<?xml version="1.0" encoding="utf-8"?>
<!-- Generator: Adobe Illustrator 25.2.3, SVG Export Plug-In . SVG Version: 6.00 Build 0)  -->
<svg version="1.1" id="arrow_white.svg" xmlns="http://www.w3.org/2000/svg" xmlns:xlink="http://www.w3.org/1999/xlink" x="0px"
	 y="0px" viewBox="0 0 30 30" style="enable-background:new 0 0 30 30;" xml:space="preserve">
<style type="text/css">
	.st0{fill:#FFFFFF;}
</style>
<g>
	<g>
		<path class="st0" d="M15,29.9C6.8,29.9,0.1,23.2,0.1,15S6.8,0.1,15,0.1S29.9,6.8,29.9,15S23.2,29.9,15,29.9z M15,0.8
			C7.2,0.8,0.8,7.2,0.8,15c0,7.8,6.4,14.2,14.2,14.2S29.2,22.8,29.2,15C29.2,7.2,22.8,0.8,15,0.8z"/>
	</g>
	<g>
		<path class="st0" d="M4.1,16.1l5.5,5.5c0.6,0.6,1.6,0.6,2.2,0c0.6-0.6,0.6-1.6,0-2.2L7.4,15l4.4-4.4c0.6-0.6,0.6-1.6,0-2.2
			c-0.6-0.6-1.6-0.6-2.2,0l-5.5,5.5c-0.3,0.3-0.5,0.7-0.5,1.1C3.6,15.4,3.8,15.8,4.1,16.1z M9.8,15c0,0.4,0.2,0.8,0.5,1.1l5.5,5.5
			c0.6,0.6,1.6,0.6,2.2,0c0.6-0.6,0.6-1.6,0-2.2L13.6,15l4.4-4.4c0.6-0.6,0.6-1.6,0-2.2c-0.6-0.6-1.6-0.6-2.2,0l-5.5,5.5
			C10,14.2,9.8,14.6,9.8,15z M16,15c0,0.4,0.2,0.8,0.5,1.1l5.5,5.5c0.6,0.6,1.6,0.6,2.2,0c0.6-0.6,0.6-1.6,0-2.2L19.8,15l4.4-4.4
			c0.6-0.6,0.6-1.6,0-2.2c-0.6-0.6-1.6-0.6-2.2,0l-5.5,5.5C16.2,14.2,16,14.6,16,15z"/>
	</g>
</g>
</svg>
