<?xml version="1.0" encoding="utf-8"?>
<!-- Generator: Adobe Illustrator 25.2.3, SVG Export Plug-In . SVG Version: 6.00 Build 0)  -->
<svg version="1.1" id="finger_white.svg" xmlns="http://www.w3.org/2000/svg" xmlns:xlink="http://www.w3.org/1999/xlink" x="0px"
	 y="0px" viewBox="0 0 62 59" style="enable-background:new 0 0 62 59;" xml:space="preserve">
<style type="text/css">
	.st0{fill-rule:evenodd;clip-rule:evenodd;fill:#F9CFB1;}
	.st1{fill:#323333;}
	.st2{fill:#FFFFFF;}
</style>
<g>
	<g>
		<g>
			<path class="st0" d="M23.6,40.6L23.6,40.6L23.6,40.6z M23.6,40.6L23.6,40.6L23.6,40.6z M24.7,41.9L24.7,41.9L24.7,41.9z
				 M24.7,41.9L24.7,41.9L24.7,41.9z M39.4,40.7L39.4,40.7L39.4,40.7z M39.6,38.5c3.3-6,3-10,2.6-15.7c-0.1-1.9-0.3-4.1-0.3-6.5
				c0-0.9-0.4-1.7-0.9-2.2c-0.5-0.6-1.3-0.9-2.1-0.9c-0.8,0-1.5,0.3-2,0.8c0-0.9-0.4-1.6-0.9-2.2c-0.5-0.6-1.3-0.9-2.1-0.9
				c-0.8,0-1.5,0.3-2.1,0.9c-0.1-0.5-0.4-0.9-0.7-1.3c-0.5-0.6-1.3-0.9-2.1-0.9c-0.8,0-1.6,0.4-2.1,0.9c-0.1,0.1-0.1,0.1-0.2,0.2v-7
				c0-0.9-0.3-1.6-0.9-2.2c-0.5-0.6-1.3-0.9-2.1-0.9c-0.8,0-1.5,0.3-2.1,0.9c-0.5,0.6-0.9,1.3-0.9,2.2v13.8
				c-0.4-0.2-0.8-0.3-1.2-0.3c-0.4,0-0.8,0.1-1.2,0.3c-0.4,0.2-0.7,0.5-1,0.8c-0.7,0.9-1.2,2.4-1.2,4.6c0,0,0,0.1,0,0.1l0,0.4
				c0,2.9,0.1,8.1,2.1,10.2l5,5.2c0.1,0.1,0.2,0.2,0.2,0.4c0,0.1,0.1,0.3,0.1,0.4v0h0c0,0,0,0,0,0.1l0,1h0v0v0
				c0,0.3,0.1,0.6,0.3,0.9c0.2,0.2,0.5,0.4,0.8,0.4v0h0h0h13.5c0.3,0,0.6-0.1,0.8-0.4c0.2-0.2,0.3-0.5,0.3-0.9v0h0c0,0,0,0,0-0.1
				l0-1.6l0,0c0,0,0,0,0-0.1c0-0.1,0-0.1,0-0.2C39.5,38.7,39.5,38.6,39.6,38.5L39.6,38.5z M37.8,39L37.8,39L37.8,39z M38.2,40.6
				L38.2,40.6L38.2,40.6L38.2,40.6l-0.4,0v0L38.2,40.6z"/>
		</g>
		<g>
			<path class="st1" d="M38.2,37.6c3-5.6,2.8-9.3,2.4-14.7c-0.1-1.9-0.3-4-0.3-6.6c0-0.4-0.2-0.8-0.4-1c-0.2-0.3-0.6-0.4-1-0.4
				c-0.4,0-0.7,0.2-1,0.4c-0.2,0.3-0.4,0.6-0.4,1v1.1c0,0.3-0.1,0.5-0.2,0.7c-0.1,0.2-0.3,0.4-0.6,0.4c-0.1,0-0.2,0-0.3,0
				c-0.2,0-0.5-0.1-0.7-0.2c-0.2-0.2-0.3-0.4-0.4-0.6c0-0.1,0-0.2,0-0.3v-3.3c0-0.4-0.2-0.8-0.4-1.1c-0.3-0.3-0.6-0.4-1-0.4
				c-0.4,0-0.7,0.2-1,0.4c-0.3,0.3-0.4,0.6-0.4,1.1v2.4c0,0.5-0.3,0.9-0.7,1.1l-0.3-0.8l0.3,0.8c0,0-0.1,0-0.1,0c-0.1,0-0.2,0-0.3,0
				c-0.1,0-0.3,0-0.4-0.1c-0.4-0.2-0.7-0.5-0.7-1.1v-3.8c0-0.4-0.2-0.8-0.4-1c-0.2-0.3-0.6-0.4-1-0.4c-0.4,0-0.7,0.2-1,0.4
				c-0.2,0.3-0.4,0.6-0.4,1v4.8c0,0.3-0.1,0.7-0.3,0.9c-0.2,0.2-0.5,0.4-0.8,0.4c-0.1,0-0.1,0-0.1,0c-0.3,0-0.6-0.1-0.8-0.4
				c-0.2-0.2-0.4-0.5-0.4-0.9c0-0.1,0-0.1,0-0.1V3.6c0-0.4-0.1-0.7-0.4-1c-0.2-0.3-0.6-0.4-0.9-0.4c-0.4,0-0.7,0.2-0.9,0.4
				c-0.2,0.3-0.4,0.6-0.4,1v15v1.7c0,0.5-0.4,0.9-0.8,0.9c-0.4,0-0.7-0.3-0.8-0.6l-0.5-1.4c-0.2-0.2-0.5-0.3-0.8-0.3
				c-0.2,0-0.3,0-0.5,0.1c-0.2,0.1-0.3,0.2-0.5,0.4c-0.5,0.6-0.8,1.8-0.8,3.5c0,0,0,0,0,0.1c0,0.1,0,0.3,0,0.4c0,2.6,0.1,7.4,1.6,9
				l5,5.2c0.3,0.3,0.5,0.6,0.6,0.9c0.1,0.3,0.2,0.7,0.2,1.1l-0.8,0l0.8,0c0,0,0,0.1,0,0.1l0,0.5h12.6l0-1.2l0,0v0h0c0,0,0-0.1,0-0.1
				c0-0.2,0-0.4,0.1-0.6C38,38,38.1,37.8,38.2,37.6L38.2,37.6z M42.2,22.8c0.4,5.7,0.7,9.7-2.6,15.7c0,0.1-0.1,0.2-0.1,0.3
				c0,0.1,0,0.1,0,0.2c0,0,0,0,0,0.1l0,0l0,1.6c0,0,0,0,0,0.1h0v0l0,0c0,0.3-0.1,0.6-0.3,0.9c-0.2,0.2-0.5,0.4-0.8,0.4H24.7l0,0h0
				l0,0h0v0c-0.3,0-0.6-0.1-0.8-0.4c-0.2-0.2-0.3-0.5-0.3-0.9l0,0v0l0,0c0,0,0,0,0,0h0l0-1c0,0,0,0,0-0.1h0v0c0-0.1,0-0.3-0.1-0.4
				c0-0.1-0.1-0.3-0.2-0.4l-5-5.2c-2-2.1-2.1-7.3-2.1-10.2c0-0.1,0-0.3,0-0.4c0,0,0-0.1,0-0.1c0-2.2,0.5-3.7,1.2-4.6
				c0.3-0.4,0.6-0.7,1-0.8c0.4-0.2,0.8-0.3,1.2-0.3c0.4,0,0.8,0.1,1.2,0.3V3.6c0-0.9,0.3-1.6,0.9-2.2c0.5-0.6,1.3-0.9,2.1-0.9
				c0.8,0,1.5,0.3,2.1,0.9c0.5,0.6,0.9,1.3,0.9,2.2v7c0-0.1,0.1-0.1,0.2-0.2c0.5-0.6,1.3-0.9,2.1-0.9c0.8,0,1.6,0.4,2.1,0.9
				c0.3,0.4,0.6,0.8,0.7,1.3c0.5-0.5,1.3-0.9,2.1-0.9c0.8,0,1.6,0.4,2.1,0.9c0.5,0.6,0.9,1.3,0.9,2.2c0.5-0.5,1.2-0.8,2-0.8
				c0.8,0,1.6,0.4,2.1,0.9c0.5,0.6,0.9,1.4,0.9,2.2C41.9,18.7,42,20.8,42.2,22.8L42.2,22.8z M38.2,40.6L38.2,40.6l0.4,0L38.2,40.6
				L38.2,40.6z M38.2,40.6L38.2,40.6L38.2,40.6L38.2,40.6L38.2,40.6L38.2,40.6z M37.8,40.6L37.8,40.6l0.4,0l0,0L37.8,40.6z"/>
		</g>
		<g>
			<path class="st2" d="M33.6,2.5c0.2-0.2,0.2-0.4,0-0.6c-0.2-0.2-0.4-0.2-0.6,0l-1.7,1.8l0,0c-0.2,0.2-0.2,0.4,0,0.6v0L33,6.2
				c0.2,0.2,0.4,0.2,0.6,0c0.2-0.2,0.2-0.4,0-0.6L32.1,4L33.6,2.5z"/>
		</g>
		<g>
			<path class="st2" d="M45.5,1.9c-0.2-0.2-0.4-0.2-0.6,0c-0.2,0.2-0.2,0.4,0,0.6L46.4,4L45,5.6c-0.2,0.2-0.2,0.4,0,0.6
				c0.2,0.2,0.4,0.2,0.6,0l1.7-1.8l0,0c0.2-0.2,0.2-0.4,0-0.6l0,0L45.5,1.9z"/>
		</g>
		<g>
			<path class="st2" d="M31.6,3.6c-0.2,0-0.4,0.2-0.4,0.4c0,0.2,0.2,0.4,0.4,0.4H47c0.2,0,0.4-0.2,0.4-0.4c0-0.2-0.2-0.4-0.4-0.4
				H31.6z"/>
		</g>
	</g>
	<g>
		<path class="st2" d="M1.7,56.7c-0.2,0.8-0.4,1.3-0.6,1.8l-0.4-0.2c0.3-0.5,0.4-1.1,0.6-1.7L1.7,56.7z M4.7,56.3H0.7v-0.4h1.8V55
			H0.9v-0.4h1.5v-0.8H1v-3.1h3.4v3.1H2.9v0.8h1.5V55H2.9v0.9h1.7V56.3z M2.5,53.4v-2.2h-1v2.2H2.5z M2.3,52.8L1.9,53
			c-0.1-0.4-0.2-0.9-0.3-1.3L2,51.5C2.1,52,2.2,52.5,2.3,52.8z M2.5,58.3l-0.4,0.1c0-0.1,0-0.2,0-0.4c0-0.4,0-0.9-0.1-1.3l0.5,0
			C2.5,57.2,2.5,57.7,2.5,58.3z M3.6,58.1l-0.4,0.1c0-0.5-0.1-1-0.3-1.6l0.4-0.1C3.5,57.1,3.5,57.6,3.6,58.1z M3.9,53.4v-2.2h-1v2.2
			H3.9z M3.8,51.7c-0.1,0.5-0.2,1-0.4,1.4l-0.4-0.1c0.2-0.5,0.3-0.9,0.3-1.4L3.8,51.7z M4.7,57.9L4.3,58c-0.1-0.5-0.3-1-0.4-1.4
			l0.4-0.1C4.5,57,4.6,57.4,4.7,57.9z M8.6,52.5H6.7v1.8h1.5v4.2H7.7v-0.7H5.5v0.7H5v-4.2h1.2v-3.8h0.5v1.6h1.9V52.5z M7.7,57.3
			v-2.6H5.5v2.6H7.7z"/>
		<path class="st2" d="M17.4,57.9l-0.2,0.5h-3c-0.9,0-1.6-0.1-2.1-0.3c-0.5-0.2-0.9-0.4-1.3-0.8c-0.3,0.6-0.7,1-1,1.2l-0.3-0.3
			c0.8-0.7,1.3-1.7,1.6-2.9H9.7v-0.5c0.5-0.7,0.9-1.3,1.2-1.8H9.5v-0.5h1.9V53c-0.5,0.8-0.8,1.4-1.2,1.9h1.2v0.4
			c-0.1,0.5-0.2,1-0.5,1.5c0.6,0.7,1.6,1.1,3,1.1H17.4z M11.3,51.8L11,52.1c-0.4-0.5-0.8-0.9-1.2-1.2l0.3-0.3
			C10.5,50.9,11,51.4,11.3,51.8z M17.3,56.1h-5.6v-0.4h1.5v-0.7h-1.3v-0.5h1.3v-0.6h0.5v0.6h1.7v-0.6h0.5v0.6H17v0.5h-1.3v0.7h1.5
			V56.1z M13.8,56.6c-0.6,0.4-1.1,0.6-1.6,0.8L11.9,57c0.5-0.2,1.1-0.4,1.6-0.8L13.8,56.6z M14.3,53.4c-0.5,0.1-1.3,0.3-2.2,0.5
			l-0.2-0.4c0.1-0.1,0.2-0.2,0.2-0.3v-2.5h2v1.7h-1.6v0.9c0.6-0.1,1.1-0.2,1.7-0.4L14.3,53.4z M13.7,52v-0.8h-1.1V52H13.7z
			 M15.3,55.6v-0.7h-1.7v0.7H15.3z M17.1,53.6h-1.9c-0.1,0-0.2-0.1-0.3-0.2c-0.1-0.1-0.2-0.2-0.2-0.3v-2.4h2v1.7h-1.6V53
			c0,0,0,0.1,0.1,0.1c0,0,0.1,0.1,0.1,0.1h1.7V53.6z M17,57l-0.2,0.4c-0.6-0.3-1.2-0.6-1.7-0.7l0.2-0.4C15.9,56.4,16.5,56.7,17,57z
			 M16.4,52v-0.8h-1.2V52H16.4z"/>
		<path class="st2" d="M21.9,53.3h-2v3.4c0.5-0.3,1.1-0.6,1.7-1l0.1,0.4c-0.8,0.6-1.6,1-2.4,1.3L19.2,57c0.1-0.1,0.2-0.2,0.2-0.4
			v-3.4h-1.1v-0.5h1.1v-2.3h0.5v2.3h2V53.3z M26,50.7c0,1.7,0,3.2-0.1,4.6c-0.1,1.4-0.2,2.2-0.2,2.4s-0.2,0.5-0.4,0.6
			c-0.2,0.1-0.5,0.2-1,0.2c-0.2,0-0.3,0-0.5,0l-0.2-0.5c0.3,0,0.5,0,0.7,0c0.3,0,0.6,0,0.7-0.1s0.2-0.2,0.2-0.4
			c0.1-0.3,0.2-1.2,0.2-2.7c0.1-1,0.1-2.3,0.1-3.6h-1.9c0,2.1-0.2,3.6-0.4,4.5c-0.3,0.8-0.8,1.8-1.6,2.9l-0.4-0.3
			c0.4-0.4,0.8-1,1.1-1.6c0.4-0.6,0.6-1.5,0.7-2.5s0.2-2,0.1-2.9h-1.6v-0.5H26z"/>
		<path class="st2" d="M29.7,54.6c-0.5,0.2-0.8,0.4-1,0.4v2.9c0,0.1-0.1,0.3-0.2,0.4c-0.1,0.1-0.3,0.2-0.6,0.2c-0.2,0-0.3,0-0.5,0
			l-0.1-0.5c0.2,0,0.4,0,0.7,0c0.2,0,0.3-0.1,0.3-0.3v-2.5c-0.3,0.2-0.7,0.3-1,0.4l-0.1-0.5c0.3-0.1,0.7-0.2,1.2-0.4v-2.2h-1.1v-0.4
			h1.1v-1.6h0.5v1.6h0.9v0.4h-0.9v2c0.3-0.1,0.6-0.2,0.9-0.4L29.7,54.6z M34.9,56.1h-2.5c-0.3,1-1.3,1.8-2.8,2.3L29.3,58
			c1.4-0.4,2.3-1,2.6-1.9h-2.4v-0.5h0.8v-2.8c-0.2,0.1-0.3,0.2-0.4,0.3l-0.3-0.4c0.8-0.6,1.5-1.5,2-2.5l0.4,0.2
			c0,0.1-0.1,0.3-0.3,0.5H34v0.5l-0.7,1h1.1v3.1h0.4V56.1z M33.5,51.6h-2.1c-0.2,0.4-0.5,0.7-0.8,1h2.2L33.5,51.6z M34,55.7V53h-1.4
			c0,0.2-0.1,0.4-0.2,0.7c0.5,0.4,0.9,0.7,1.2,1.2l-0.3,0.3c-0.4-0.5-0.8-0.8-1.1-1.1c-0.2,0.4-0.6,0.8-1.1,1.1l-0.3-0.4
			c0.8-0.5,1.2-1.1,1.3-1.9h-1.4v2.7H32c0-0.2,0.1-0.5,0.1-0.6l0.5,0c0,0.2,0,0.4-0.1,0.6H34z M34.8,58.1l-0.3,0.3
			c-0.7-0.7-1.3-1.2-1.8-1.4l0.3-0.3C33.5,57,34.1,57.5,34.8,58.1z"/>
		<path class="st2" d="M43.6,52.5h-4.8c-0.5,1.9-1.4,3.5-2.7,4.8l-0.3-0.4c1.2-1.1,2-2.6,2.5-4.4H36v-0.5h2.4
			c0.1-0.6,0.2-1.2,0.3-1.6l0.5,0c-0.1,0.8-0.2,1.3-0.3,1.6h4.7V52.5z M43.7,58.2h-6.8v-0.5h3.4V55h-1.9v-0.5h4.5V55h-2.1v2.8h2.9
			V58.2z"/>
		<path class="st2" d="M52.5,52.3h-4.1c-0.4,0.8-0.7,1.4-1,1.9h4.4v4.2h-0.5v-0.7h-3.8v0.7h-0.5v-3.6c-0.7,0.7-1.3,1.3-1.9,1.7
			l-0.4-0.4c0.7-0.4,1.4-1,2-1.7c0.6-0.7,1-1.4,1.3-2.1h-3.1v-0.5H48c0.2-0.4,0.3-0.9,0.5-1.4l0.5,0.1c-0.1,0.4-0.2,0.9-0.4,1.3h4
			V52.3z M51.2,57.2v-2.5h-3.8v2.5H51.2z"/>
		<path class="st2" d="M61.3,51.2h-3.6c-0.1,0.3-0.2,0.6-0.4,1h3v4.5h-4l0.3,0.3c-1,0.7-1.9,1.3-2.7,1.6l-0.3-0.4
			c0.9-0.3,1.8-0.8,2.6-1.4h-1.8v-4.5h2.3c0.2-0.4,0.3-0.7,0.4-1h-3.7v-0.5h7.8V51.2z M59.9,53.4v-0.8H55v0.8H59.9z M59.9,54.8v-0.9
			H55v0.9H59.9z M59.9,56.2v-0.9H55v0.9H59.9z M61.2,58l-0.3,0.4c-0.8-0.5-1.7-0.9-2.7-1.1l0.2-0.4C59.5,57.2,60.4,57.6,61.2,58z"/>
	</g>
</g>
</svg>
