<svg id="subtitle.svg" xmlns="http://www.w3.org/2000/svg" width="349" height="85" viewBox="0 0 349 85">
  <defs>
    <style>
      .cls-1 {
        fill: #fff;
      }

      .cls-1, .cls-2 {
        fill-rule: evenodd;
      }

      .cls-2 {
        fill: #f8b62b;
      }
    </style>
  </defs>
  <path id="形狀_3" data-name="形狀 3" class="cls-1" d="M172.087,542.705h-23.3v-5.32l4.228-4.6c6.293-6.625,10.087-10.93,10.087-15.379a4.8,4.8,0,0,0-5.188-5.127,11.844,11.844,0,0,0-6.533,2.467l-2.209-6.191a18.8,18.8,0,0,1,10.424-3.143c8.214,0,11.913,5.078,11.913,11.22,0,6.432-4.227,11.462-8.695,15.912l-3.074,2.95v0.1h12.345v7.11Zm1.973-17.846h12.922v5.8H174.06v-5.8Zm29.687-1.886a9.144,9.144,0,0,1,7.206,9.092c0,6.19-5.092,11.172-13.739,11.172a19.155,19.155,0,0,1-9.368-2.128l1.778-6.432a14.7,14.7,0,0,0,6.87,1.886c3.746,0,5.86-2.177,5.86-4.933,0-3.676-3.267-5.32-6.773-5.32h-2.4v-5.949h2.162c2.69,0,6-1.306,6-4.4,0-2.225-1.585-3.821-4.611-3.821a12.838,12.838,0,0,0-6.1,1.789L189,507.835a20.348,20.348,0,0,1,9.8-2.418c7.206,0,11.049,4.159,11.049,9.092,0,3.772-2.258,6.819-6.1,8.367v0.1Zm48.218,6.89H235.423c-0.127.594-.211,1.187-0.337,1.78h8.208l1.3-.127,3.452,0.508a10.389,10.389,0,0,1-.253,1.526c-0.757,10.508-1.726,10.974-10.607,10.8a11.95,11.95,0,0,0-1.558-5.042c1.558,0.127,3.031.17,3.747,0.17,1.473,0,1.81-.551,2.146-3.22h-7.913c-1.558,3.3-4.5,6.059-10.608,8.008a15.8,15.8,0,0,0-2.694-4.237,18.154,18.154,0,0,1-2.652,3.982,23.889,23.889,0,0,0-5.262-3.389c4.8-5.212,5.178-12.924,5.178-18.517v-9.576h30.6v10.72h-9.134a1.52,1.52,0,0,1-1.137.594v1.4h14.059v4.618Zm-0.21-24.024v5.466H213.829v-5.466h37.926Zm-28.582,24.024a35.075,35.075,0,0,1-2.441,9.28c6.567-1.949,8.04-5.085,8.629-9.28h-6.188Zm8.672-4.618v-1.992h-8.209c0,0.636-.042,1.314-0.084,1.992h8.293Zm10.313-8.263H223.636v1.78h18.522v-1.78ZM271.708,503h2.1v42.371h-2.1V503Zm48.2,25.931a17.867,17.867,0,0,0,1.515,2.966,40.724,40.724,0,0,0,5.051-3.093l4.546,3.686a1.064,1.064,0,0,1-.8.255,1.845,1.845,0,0,1-.463-0.043c-1.347.763-3.452,1.78-5.388,2.627a17.8,17.8,0,0,0,7.787,3.9,19.784,19.784,0,0,0-3.326,4.619c-7.534-2.373-11.575-7.415-13.975-14.915h-1.894a6.213,6.213,0,0,1-.926.466c3.915,2.543,5.725,6.017,5.725,8.941,0,3.6-2.862,6.016-6.777,6.016-0.926,0-2.105,0-3.157-.042a12.9,12.9,0,0,0-.926-3.644,45.657,45.657,0,0,1-10.608,3.39,19.574,19.574,0,0,0-2.61-3.6c6.651-.974,13.134-3.135,17.174-6.228l-0.631-.636a42.608,42.608,0,0,1-13.68,5,17.339,17.339,0,0,0-2.315-3.008,47.463,47.463,0,0,0,13.47-3.814l-0.674-.381a72.648,72.648,0,0,1-9.724,2.457,21.482,21.482,0,0,0-1.852-3.178,69.948,69.948,0,0,0,8.587-1.737h-3.788v-3.6h24.835v3.6h-5.177Zm11.828-22.2v4.153H293.809v-4.153H309.3v-2.669l7.787,0.424c-0.042.466-.421,0.762-1.347,0.932v1.313h16ZM331.483,528h-5.515v-3.644h-26.6V528.3H294.1v-7.839h37.38V528Zm-32.118-16.017h26.94v7.585h-26.94v-7.585Zm20.415,4.45v-1.314H305.469v1.314H319.78Zm-7.155,21.312a2.034,2.034,0,0,0-.043-0.508,32.01,32.01,0,0,1-3.662,2.373C311.362,539.609,312.625,539.609,312.625,537.744Zm42.051-1.991c0,1.991.337,2.2,2.778,2.2h6.1c2.189,0,2.568-.847,2.9-5.593a19.605,19.605,0,0,0,6.1,2.543c-0.8,7.076-2.652,9.109-8.461,9.109H356.7c-6.9,0-8.756-1.949-8.756-8.177V532.49L334.682,533.8l-0.842-5.932,14.1-1.314v-3.432c-2.778.466-5.64,0.848-8.419,1.144a19.314,19.314,0,0,0-1.641-4.83h-3.368V508.72H349.33v-4.7l7.914,0.423c-0.042.509-.421,0.805-1.347,0.933v3.347h15.069v10.72H364.4v-4.915h-5.009l4.42,4.576a1.3,1.3,0,0,1-.884.254,1.887,1.887,0,0,1-.463-0.042,65,65,0,0,1-6.82,2.2h0.379c-0.042.509-.421,0.805-1.347,0.975v3.432l16.669-1.526,0.8,5.721-17.469,1.737v3.9Zm-13.933-17.2a79.27,79.27,0,0,0,16.5-4.025h-16.5v4.025Zm68.572-1.313,3.662,1.567a1.94,1.94,0,0,1-.589.848,44.589,44.589,0,0,1-5.936,15.8,21.136,21.136,0,0,0,6.82,3.94,21.077,21.077,0,0,0-3.7,5,22.419,22.419,0,0,1-6.735-4.407,24.882,24.882,0,0,1-5.346,4.153,20.463,20.463,0,0,0-3.956-4.407,21.8,21.8,0,0,1-2.568,4.576,28.179,28.179,0,0,0-4.5-3.6,15.191,15.191,0,0,0,1.978-3.347l-2.694,1.017a57.11,57.11,0,0,0-1.557-5.678v11.61h-5.3V531.177h-0.126a37.007,37.007,0,0,1-2.231,10.084,30.521,30.521,0,0,0-4.252-2.076c0.968-2.33,1.516-6.313,1.768-9.83l4.841,1.1v-2.8c-1.642.085-3.157,0.212-4.42,0.254a0.925,0.925,0,0,1-.842.678l-1.094-6.017h3.031c0.547-.72,1.094-1.44,1.641-2.2a34.207,34.207,0,0,0-4.672-5.593l2.862-4.237,0.716,0.636a58.956,58.956,0,0,0,2.82-7.077l5.851,2.373a1.416,1.416,0,0,1-1.263.466,61.632,61.632,0,0,1-4.083,7.67c0.3,0.339.59,0.72,0.842,1.059a59.092,59.092,0,0,0,3.536-6.441l4.967,2.246v-5.085H403l1.263-.084,2.862,0.508a9.944,9.944,0,0,1-.211,1.1c-0.378,2.542-1.01,5.974-1.683,9.491h3.115Zm-25.341,5.211c-0.336-.847-0.715-1.695-1.094-2.5-0.674.89-1.347,1.738-1.978,2.543Zm0.211,8.178,3.872-1.271c0.548,1.441,1.137,3.093,1.642,4.661,1.684-5.848,2.1-13.559,2.147-21.991h-2.694a1.845,1.845,0,0,1-1.052.254c-1.263,2.119-2.989,4.661-4.8,7.119l3.746-1.568a36.437,36.437,0,0,1,3.62,9.194L386,529.1a13.73,13.73,0,0,0-.421-1.949l-1.389.127v3.347Zm14.9,4.873a34.2,34.2,0,0,1-2.862-5.848,44.313,44.313,0,0,1-2.61,9.873A22.334,22.334,0,0,0,399.086,535.5Zm-1.6-23.474c-0.042,1.059-.042,2.118-0.084,3.178a50.806,50.806,0,0,0,1.389,6.7c0.632-3.178,1.305-6.78,1.853-9.873h-3.158Zm1.768,11.483a29.353,29.353,0,0,0,3.368,7.457,31.238,31.238,0,0,0,3.325-8.093h-1.81l-0.252,1.186Zm24.037-5.466,3.367,0.932a2.436,2.436,0,0,1-.336.974,62.581,62.581,0,0,1-2.652,14.237c3.83,2.712,8.881,3.263,14.606,3.305,2.989,0,11.281,0,14.859-.169a21.5,21.5,0,0,0-2.315,6.017H438.108c-6.777,0-12.376-.763-16.838-3.814a17.078,17.078,0,0,1-4.251,5,22.375,22.375,0,0,0-4.588-4.11,14.921,14.921,0,0,0,4.5-5.169,29.493,29.493,0,0,1-4-8.263l4.756-1.652a22.548,22.548,0,0,0,1.6,3.771,47.53,47.53,0,0,0,1.01-5.593h-1.684l-0.42.974-5.515-1.4c1.642-3.6,3.494-7.881,4.967-11.525h-4.8V506.22h8.082l1.136-.127,3.41,1.144a10.355,10.355,0,0,1-.463.974c-1.011,2.628-2.526,6.271-4.083,9.958h1.347Zm11.618-5.678v-0.975h-6.9v-4.576h6.9v-2.839l7.156,0.382c-0.042.466-.379,0.762-1.221,0.889v1.568h8.124v5.551H452.5v4.661h-3.536v5.55h-8.124v0.975h8.8v4.364h-8.8v1.017h10.692v4.788H440.844v3.051h-5.935v-3.051H425.4v-4.788h9.513v-1.017h-7.661V523.55h7.661v-0.975h-7.03V518h7.03v-0.974h-10.1v-4.661h10.1Zm8.04-.975h-2.105v0.975h2.105v-0.975Zm0,6.61v-0.974h-2.105V518h2.105Zm22.394,1.356c1.389,1.441,5.22,6.186,6.1,7.33l-3.662,5.127c-0.59-1.271-1.516-2.881-2.442-4.491v16.991h-5.935V529.821a31.506,31.506,0,0,1-4.251,7.712,34.842,34.842,0,0,0-2.989-6.017c2.82-3.263,5.219-8.432,6.567-13.093h-5.3v-5.8h5.977v-8.559l7.156,0.381c-0.042.466-.379,0.763-1.221,0.89v7.288h5.178v5.8h-5.178v0.932ZM493,512.618v5.8h-4.083v18.643c0,5.17-1.137,7.288-10.608,7.288a26.642,26.642,0,0,0-1.978-6.482c2.189,0.084,4.546.084,5.346,0.084a0.824,0.824,0,0,0,1.01-.974V525.626a46.766,46.766,0,0,1-10.608,11.991,23.88,23.88,0,0,0-4.335-4.915c4.925-3.008,9.639-8.6,12.628-14.279h-8.966v-5.8h11.281V504.1l7.535,0.339a1.221,1.221,0,0,1-1.305.933v7.245H493ZM150.4,569.035V570.5c0.714,0.958,2.671,3.807,3.121,4.525-0.37.506-.715,1.012-1.349,1.81-0.344-.8-1.085-2.182-1.772-3.407v12.458h-2.3V574.359a26.136,26.136,0,0,1-2.91,6.548,12.267,12.267,0,0,0-1.19-2.183,28.6,28.6,0,0,0,3.888-9.689h-3.306v-2.342H148.1V560.97l2.909,0.16a0.582,0.582,0,0,1-.608.426v5.137h2.83v2.342H150.4ZM157.225,561l2.883,0.159a0.558,0.558,0,0,1-.608.426V572.2c0,4.978-.688,10.674-6,13.788a10.208,10.208,0,0,0-1.587-1.837c3.465-1.677,4.682-4.658,5.105-7.719-1.164,1.065-2.3,2.023-3.121,2.715a0.5,0.5,0,0,1-.265.533l-1.348-2.476c1.243-.772,3.094-2.1,4.919-3.434,0.026-.532.026-1.064,0.026-1.57V561Zm-1.983,10.434a28.149,28.149,0,0,0-2.169-5.723l1.851-.772a28.97,28.97,0,0,1,2.3,5.617Zm8.807,10.621c0,1.091.079,1.277,0.635,1.277h1.825c0.5,0,.608-0.718.661-3.247a6.2,6.2,0,0,0,2.116,1.011c-0.238,3.3-.82,4.5-2.618,4.5h-2.407c-2.01,0-2.592-.745-2.592-3.567V560.97l2.962,0.186a0.571,0.571,0,0,1-.582.426v11.952l0.714-.639a42.816,42.816,0,0,1,4.5,4.711l-1.613,1.571a34.787,34.787,0,0,0-3.6-4.126v7Zm0-11.659a36.448,36.448,0,0,0,2.512-5.67l2.619,1.225a0.7,0.7,0,0,1-.661.239,39.653,39.653,0,0,1-2.751,5.111Zm6.4-8.305h22.534v23.823h-2.46v-1.064H172.8v1.064h-2.354V562.088Zm2.354,20.469h17.72v-18.18H172.8v18.18Zm14.917-7.027,1.825,1.225a0.643,0.643,0,0,1-.582.159c-0.714.479-1.772,1.172-2.751,1.731a17.434,17.434,0,0,0,3.756,1.437,7.874,7.874,0,0,0-1.323,1.65,16.62,16.62,0,0,1-6.268-3.7v3.833h-2.221v-3.434a28.392,28.392,0,0,1-5.422,2.636,9.9,9.9,0,0,0-1.269-1.544,21.183,21.183,0,0,0,6.744-3.381H175.92V571.7h11.4v4.179Zm1.613-6.415v1.517H173.963v-1.517h6.506v-1.384h-5V566.24h5V564.8l2.883,0.186a0.582,0.582,0,0,1-.608.426v0.825H187.9v1.491h-5.157v1.384h6.585Zm-11.293,3.913v1.783h7.088v-1.783h-7.088Zm5.052,3.114-0.106.107a10.2,10.2,0,0,0,1.772,1.517c0.74-.479,1.587-1.091,2.248-1.624h-3.914Zm30.622-1.6a0.524,0.524,0,0,1-.582.293c-0.238.373-.529,0.825-0.846,1.251h6.85v1.97h-24.6v-1.97H201.2a11.257,11.257,0,0,0-.794-1.6l1.084-.293h-2.8v-5.084h16.45V574.2h-2.8Zm-8.225-8.411v-1.517h-9.944v-1.864h9.944v-1.836l3.174,0.186a0.566,0.566,0,0,1-.635.453v1.2H218.18v1.864H208.024v1.517h8.463v1.81H197.419v-1.81h8.066Zm-7.22,19.777v-6.574h17.323v6.548h-2.565v-0.772h-12.3v0.8h-2.459Zm14.758-4.844h-12.3v2.262h12.3v-2.262ZM201.1,570.739v1.836h11.531v-1.836H201.1Zm8.543,5.35a15.922,15.922,0,0,0,.951-1.89h-7.7a8.666,8.666,0,0,1,.9,1.89h5.846Zm23.56-9.077v6.309a23.444,23.444,0,0,0,11.267,9.183,10.42,10.42,0,0,0-1.878,2.289,26.075,26.075,0,0,1-9.389-7.559v8.651h-2.645v-8.571a27.338,27.338,0,0,1-9.309,7.453,11.429,11.429,0,0,0-1.772-2.156,24.877,24.877,0,0,0,11.081-9.157v-6.442H220.477v-2.449h10.076V560.97l3.28,0.213a0.635,0.635,0,0,1-.635.452v2.928h10.368v2.449H233.2Zm-5.58,8.465a29.1,29.1,0,0,0-2.248-2.343,13.375,13.375,0,0,1-3.333,3.993,11.556,11.556,0,0,0-1.8-1.57c2.3-1.651,4-4.685,4.788-8.092l2.883,0.692a0.658,0.658,0,0,1-.635.319,19.779,19.779,0,0,1-.847,2.5,38.276,38.276,0,0,1,2.883,2.716Zm14.414,1.118a48.278,48.278,0,0,0-3.914-3.567,11.7,11.7,0,0,1-2.169,2.795,12.544,12.544,0,0,0-1.957-1.3c1.771-1.491,3.041-4.179,3.649-7.054l2.83,0.665a0.549,0.549,0,0,1-.582.32,20.329,20.329,0,0,1-.767,2.475c1.614,1.278,3.624,2.875,4.682,3.913Zm24.275-13.682a0.664,0.664,0,0,1-.635.133,35.654,35.654,0,0,1-3.412,2.742,17.128,17.128,0,0,0,1.561,1.81,33.81,33.81,0,0,0,3.253-3.141l2.142,1.6a0.681,0.681,0,0,1-.634.133,42.545,42.545,0,0,1-3.306,2.742,16.585,16.585,0,0,0,4.311,2.662,9.929,9.929,0,0,0-1.693,2.1,19.46,19.46,0,0,1-5.924-4.552v1.57H252.1v-1.437a22.639,22.639,0,0,1-5.844,4.5,9.926,9.926,0,0,0-1.535-1.81,17.257,17.257,0,0,0,4.417-3.034,17.015,17.015,0,0,0-3.2-2.582l1.375-1.384a16.028,16.028,0,0,1,3.28,2.448,16.77,16.77,0,0,0,2.3-3.353h-6.48v-2.077h7.8l0.423-.106,1.72,0.852a0.8,0.8,0,0,1-.344.319,19,19,0,0,1-3.306,5.537h8.754a26.22,26.22,0,0,1-4.1-6.868l2.142-.665a20.749,20.749,0,0,0,1.613,3.141,26.452,26.452,0,0,0,3.015-2.9Zm-4.576,16.663,1.958,0.586a0.582,0.582,0,0,1-.635.293,26.378,26.378,0,0,1-1.507,2.741h7.167v2.1H245.545v-2.1h6.877a15.7,15.7,0,0,0-1.508-3.167l1.508-.453H249.7v-7.134h14.89v7.134h-2.857Zm-9.6-5.084v3.035h9.891v-3.035h-9.891Zm7.009,8.7a29.63,29.63,0,0,0,1.639-3.62h-7.617a12.529,12.529,0,0,1,1.693,3.594l-0.079.026h4.364Zm35.066-7.24H280.638c-0.132.719-.265,1.411-0.45,2.076h8.437l0.556-.053,1.534,0.293a6.636,6.636,0,0,1-.159.692c-0.661,6.575-1.428,6.921-4.893,6.921-0.82,0-1.851-.027-2.883-0.08a5.113,5.113,0,0,0-.74-2.156c1.56,0.133,3.147.159,3.729,0.159a1.608,1.608,0,0,0,1.11-.239c0.371-.346.688-1.331,0.953-3.461h-8.384c-1.164,2.529-3.359,4.579-8.04,5.83a7.67,7.67,0,0,0-1.428-2.156c6.056-1.384,7.458-4.1,8.066-7.826h-7.855v-2.209h10.685v-2.609l3.227,0.213a0.594,0.594,0,0,1-.635.426v1.97h10.738v2.209ZM276.565,568.4a13.747,13.747,0,0,0-1.111-2.583l1.243-.319h-5.765v-2.209h9.891V560.97l3.253,0.186a0.609,0.609,0,0,1-.635.453v1.677h10V565.5h-5.158l1.376,0.4a0.568,0.568,0,0,1-.609.266c-0.317.666-.767,1.491-1.216,2.237h5.527v4.631h-2.485v-2.449h-17.3v2.449h-2.354V568.4h5.343Zm1.323-2.9a11.747,11.747,0,0,1,1.269,2.9h6.057a20.516,20.516,0,0,0,1.243-2.9h-8.569Z" transform="translate(-144 -503)"/>
  <path id="形狀_4" data-name="形狀 4" class="cls-2" d="M300,574.5a21.436,21.436,0,0,1,1.141-7.868,9.164,9.164,0,0,1,3.22-4.213,8.012,8.012,0,0,1,4.653-1.434,8.206,8.206,0,0,1,4.725,1.442,9.63,9.63,0,0,1,3.348,4.327,25.038,25.038,0,0,1,.019,15.456,9.605,9.605,0,0,1-3.348,4.327,8.22,8.22,0,0,1-4.744,1.46,8,8,0,0,1-4.635-1.417,9.2,9.2,0,0,1-3.22-4.222A21.245,21.245,0,0,1,300,574.5Zm2.537,0.043a20.344,20.344,0,0,0,.811,6.588,7.01,7.01,0,0,0,2.4,3.386,5.483,5.483,0,0,0,6.7.026,6.9,6.9,0,0,0,2.354-3.386,19.359,19.359,0,0,0,1-6.614,19.028,19.028,0,0,0-.894-6.36,7.433,7.433,0,0,0-2.472-3.621,5.447,5.447,0,0,0-6.687,0,7.043,7.043,0,0,0-2.39,3.376A20.173,20.173,0,0,0,302.537,574.543Zm20.062-6.949h-2.737a8.593,8.593,0,0,1,2.865-4.9,7.7,7.7,0,0,1,5-1.713,8.553,8.553,0,0,1,3.914.918,6.98,6.98,0,0,1,2.809,2.474,5.949,5.949,0,0,1,1,3.252q0,3.321-3.448,5.262a7.824,7.824,0,0,1,3.174,2.2,6.866,6.866,0,0,1,1.752,4.581,7.918,7.918,0,0,1-1.2,4.169,8.2,8.2,0,0,1-3.285,3.069A9.918,9.918,0,0,1,327.781,588,8.781,8.781,0,0,1,322,586.082a9.253,9.253,0,0,1-3.029-5.621H321.6a7.209,7.209,0,0,0,1.989,3.619,6.3,6.3,0,0,0,4.233,1.416,6.532,6.532,0,0,0,4.689-1.678,5.255,5.255,0,0,0,1.77-3.934,4.936,4.936,0,0,0-.885-2.814,5.5,5.5,0,0,0-2.372-1.976,13.667,13.667,0,0,0-4.607-.822v-2.36a8.765,8.765,0,0,0,3.357-.621,4.869,4.869,0,0,0,2.2-1.582,3.543,3.543,0,0,0,.684-2.1,3.744,3.744,0,0,0-1.395-2.9,5.162,5.162,0,0,0-3.531-1.224,4.878,4.878,0,0,0-2.992.935A7.043,7.043,0,0,0,322.6,567.594Zm29.47,0.384h-4.908a7.653,7.653,0,0,1,2.135-4.58,8.393,8.393,0,0,1,6.148-2.413A7.973,7.973,0,0,1,360.982,563a6.219,6.219,0,0,1,2.235,4.773,5.4,5.4,0,0,1-.976,3.129,6.907,6.907,0,0,1-2.837,2.29,7.26,7.26,0,0,1,3.822,2.439,6.411,6.411,0,0,1,1.377,4.1,7.606,7.606,0,0,1-2.664,5.866,9.746,9.746,0,0,1-6.787,2.4,9.04,9.04,0,0,1-6.367-2.264,8.718,8.718,0,0,1-2.7-6.163h5.054a4.791,4.791,0,0,0,1.45,2.963,4.586,4.586,0,0,0,5.8-.131,3.545,3.545,0,0,0,1.177-2.692,3.6,3.6,0,0,0-1.587-2.955,7.618,7.618,0,0,0-4.58-1.241v-4.2a8.555,8.555,0,0,0,2.746-.551,3.375,3.375,0,0,0,1.405-1.128,2.608,2.608,0,0,0,.5-1.521,2.24,2.24,0,0,0-.766-1.739,2.881,2.881,0,0,0-2.007-.691,3.347,3.347,0,0,0-1.989.638A3.2,3.2,0,0,0,352.069,567.978ZM380,573.406a7.925,7.925,0,0,1,2.819,2.878,7.6,7.6,0,0,1,.994,3.805,7.72,7.72,0,0,1-1.158,4.111,7.4,7.4,0,0,1-3.111,2.843,11.348,11.348,0,0,1-4.981.954,12.091,12.091,0,0,1-5.163-.919,7.205,7.205,0,0,1-3.066-2.782,7.85,7.85,0,0,1-1.149-4.207,7.542,7.542,0,0,1,.921-3.7,9.083,9.083,0,0,1,2.765-2.982,8.442,8.442,0,0,1-1.816-2.49,6.539,6.539,0,0,1-.611-2.786,6.832,6.832,0,0,1,3.85-6.228,9.266,9.266,0,0,1,4.214-.917,8.887,8.887,0,0,1,4.142.926,7.1,7.1,0,0,1,3.849,6.289,6.085,6.085,0,0,1-.538,2.559A9.984,9.984,0,0,1,380,573.406Zm-5.455,2.615a4.609,4.609,0,0,0-3.1,1.075,3.269,3.269,0,0,0-1.259,2.561,3.413,3.413,0,0,0,1.186,2.631,4.466,4.466,0,0,0,3.12,1.076,4.58,4.58,0,0,0,3.111-1.006,3.278,3.278,0,0,0,1.158-2.6,3.429,3.429,0,0,0-1.2-2.666A4.351,4.351,0,0,0,374.54,576.021Zm-0.2-10.316a2.844,2.844,0,0,0-2.071.793,2.718,2.718,0,0,0-.812,2.031,2.783,2.783,0,0,0,.858,2.075,3.132,3.132,0,0,0,4.242.017,2.858,2.858,0,0,0,.83-2.127,2.616,2.616,0,0,0-.839-2.013A3.126,3.126,0,0,0,374.339,565.705Zm14.991-4.073H401.9v4.528h-8.758l-1.095,4.668a7.559,7.559,0,0,1,.894-0.184,6.2,6.2,0,0,1,.839-0.061,8.217,8.217,0,0,1,8.484,8.5,8.462,8.462,0,0,1-2.672,6.338,9.021,9.021,0,0,1-6.5,2.579,9.461,9.461,0,0,1-5.893-1.871,8.712,8.712,0,0,1-3.23-5.123h5.365a4.463,4.463,0,0,0,1.633,1.827,4.192,4.192,0,0,0,2.235.621,3.946,3.946,0,0,0,2.882-1.171,4.418,4.418,0,0,0,.082-5.936,3.577,3.577,0,0,0-2.672-1.145,3.689,3.689,0,0,0-1.652.4,5.961,5.961,0,0,0-1.6,1.206l-4.16-.891Zm16.03,14.022h9.268v4.44H405.36v-4.44Zm17.125-5.735H417.5a9.217,9.217,0,0,1,2.728-6.547,9.971,9.971,0,0,1,10.8-1.4,7.564,7.564,0,0,1,2.992,2.85,7.257,7.257,0,0,1,1.122,3.785,10.835,10.835,0,0,1-1.36,4.93,26.994,26.994,0,0,1-4.974,6.241l-3.012,3.043h9.565v4.528H416.774v-2.343l8.3-8.112a23.462,23.462,0,0,0,4-4.695,6.7,6.7,0,0,0,.994-3.208,3.23,3.23,0,0,0-1.031-2.456,3.715,3.715,0,0,0-2.654-.97,3.59,3.59,0,0,0-2.737,1.171A4.742,4.742,0,0,0,422.485,569.919Zm14.79-8.287h17.607v2.57L442.766,588l-4.315-2.007,10.081-19.76H437.275v-4.6Zm23.328,8.287h-4.981a9.217,9.217,0,0,1,2.728-6.547,9.971,9.971,0,0,1,10.8-1.4,7.564,7.564,0,0,1,2.992,2.85,7.257,7.257,0,0,1,1.122,3.785,10.835,10.835,0,0,1-1.36,4.93,26.994,26.994,0,0,1-4.974,6.241l-3.012,3.043h9.565v4.528H454.892v-2.343l8.3-8.112a23.415,23.415,0,0,0,4-4.695,6.692,6.692,0,0,0,1-3.208,3.23,3.23,0,0,0-1.031-2.456,3.716,3.716,0,0,0-2.655-.97,3.593,3.593,0,0,0-2.737,1.171A4.741,4.741,0,0,0,460.6,569.919Zm14.79-8.287H493v2.57L480.885,588l-4.316-2.007,10.082-19.76H475.393v-4.6Z" transform="translate(-144 -503)"/>
</svg>
