<?xml version="1.0" encoding="utf-8"?>
<!-- Generator: Adobe Illustrator 25.2.3, SVG Export Plug-In . SVG Version: 6.00 Build 0)  -->
<svg version="1.1" id="logo.svg" xmlns="http://www.w3.org/2000/svg" xmlns:xlink="http://www.w3.org/1999/xlink" x="0px" y="0px"
	 viewBox="0 0 365 162" style="enable-background:new 0 0 365 162;" xml:space="preserve">
<style type="text/css">
	.st0{fill-rule:evenodd;clip-rule:evenodd;fill:#C30D23;}
	.st1{fill:#FFFFFF;}
</style>
<path id="形狀_2" class="st0" d="M354.6,121.8c0,1-0.2,2-0.6,2.8c-0.5,0.9-1,1.8-1.7,2.5c-0.8,0.8-1.6,1.5-2.5,2.1
	c-0.9,0.6-1.9,1.2-2.9,1.8c0.8,0.3,1.5,0.7,2.2,1s1.4,0.7,2.1,1.1c0.6,0.4,1.2,0.8,1.8,1.2c0.5,0.4,1,0.9,1.5,1.4
	c0.4,0.5,0.7,1.1,1,1.7c0.2,0.7,0.4,1.4,0.4,2.1c0,1.3-0.3,2.5-0.9,3.6c-0.7,1.2-1.6,2.2-2.7,3c-1.3,0.9-2.7,1.6-4.2,2.1
	c-1.8,0.5-3.6,0.8-5.4,0.8c-1.3,0-2.7-0.1-4-0.4c-1.2-0.3-2.3-0.7-3.4-1.3c-1-0.6-1.8-1.4-2.4-2.3c-0.6-1-0.9-2.2-0.9-3.4
	c0-1,0.2-2,0.6-3c0.4-0.9,1-1.8,1.7-2.5c0.8-0.8,1.6-1.5,2.5-2.1c1-0.6,2-1.3,3.1-1.9c-0.8-0.4-1.6-0.9-2.4-1.4
	c-0.7-0.5-1.4-1-2-1.7c-0.6-0.6-1-1.3-1.3-2.1c-0.3-0.8-0.5-1.7-0.5-2.6c0-1.3,0.3-2.5,1-3.6c0.7-1.1,1.6-2,2.7-2.7
	c1.2-0.8,2.5-1.4,3.9-1.8c1.5-0.4,3-0.6,4.5-0.6c1.1,0,2.2,0.1,3.3,0.4c1,0.2,2,0.6,2.9,1.2c0.8,0.5,1.5,1.2,2,2
	C354.4,119.9,354.7,120.9,354.6,121.8z M341.4,132.9c-0.7,0.4-1.4,0.9-2.1,1.5c-0.6,0.5-1.2,1.1-1.7,1.7c-0.5,0.6-0.8,1.3-1.1,2
	c-0.3,0.7-0.4,1.5-0.4,2.3c0,0.9,0.2,1.8,0.5,2.6c0.3,0.8,0.8,1.5,1.4,2.1c0.7,0.6,1.5,1.1,2.3,1.4c1,0.4,2.1,0.6,3.3,0.5
	c1,0,1.9-0.1,2.9-0.4c0.9-0.2,1.8-0.6,2.5-1.1c0.7-0.5,1.3-1.1,1.8-1.8c0.5-0.7,0.7-1.6,0.7-2.5c0-1-0.2-1.9-0.7-2.7
	c-0.5-0.8-1.2-1.5-1.9-2c-0.9-0.6-1.8-1.2-2.7-1.6c-1-0.5-2.1-1-3.2-1.4L341.4,132.9z M337.6,122.7c0,0.9,0.2,1.8,0.6,2.6
	c0.4,0.8,1,1.5,1.7,2c0.7,0.6,1.5,1.2,2.4,1.6c0.9,0.5,1.9,0.9,2.8,1.4c0.8-0.5,1.6-1,2.4-1.6c0.6-0.5,1.2-1.1,1.7-1.7
	c0.4-0.6,0.8-1.2,1-1.9c0.2-0.7,0.3-1.5,0.3-2.2c0-0.7-0.1-1.5-0.4-2.2c-0.3-0.7-0.7-1.2-1.2-1.7c-0.6-0.5-1.2-0.9-2-1.1
	c-0.9-0.3-1.8-0.4-2.8-0.4c-0.9,0-1.7,0.1-2.6,0.4c-0.8,0.2-1.5,0.5-2.1,1c-0.6,0.4-1.1,1-1.4,1.6
	C337.8,121.2,337.6,121.9,337.6,122.7z M365,112.2l-0.4-1.3l-0.1-1l-0.1-0.8L364,107l0.4-1l-0.1-3.2l-0.3-1.3l0-0.8l-0.9-1.1
	l-0.1-1.8l0-1.3l0.2-1.8l-0.4-1l-0.3-2.7l-0.5-0.9l-0.7-1.6l-0.3-1.1l-0.5-1l-0.4-1.4l-0.7-3.1l-0.5-0.6l-0.2-0.8l-0.5-0.7l-2.1-3.6
	l-0.8-1.1l-0.4-0.8l-0.4-0.3l-4.3-3.6l-4.3-1.7l-2.8-0.5l-0.8-0.1l-3.4,0.7l-2.6,1.2L336,70l-2.2,2l-0.9,0.6l-2,2l-0.5,0.9l0.2,0.5
	l0.4,0.6l0.6,0.7c2-0.9,3.3-4.3,3.3-4.3l0.2-0.6l0.6-0.5l1.2-0.6l0.9-0.3l0.9-0.4l0.7-0.3l1.4-0.4l0.8,0v0.3l-0.8,1.4l0.6-0.3
	l0.3-0.4l0.1-0.5l0.6-0.6l0.8-0.2l0.4,0.1l0.5,0.6l0.9-0.1L347,71l1.2,0.3l1.2,0.6l1.1,0.9l3.6,3.2l0.5,0.8l1.9,4l0.3,0.3l0.3,1.6
	l0.5,0.9v0.8l1,1.6l0.1,0.4l0.5,0.9l0.2,1.6l0.4,0.8l0.1,1.6l0.2,0.6l0,2.5l0.2,2.5l0.3,1l0.1,1.1l0.1,1.3l0,1.3l0,1l0.4,3l-0.1,1.6
	l0.9,6.3l0.2,3.5l-0.4,3.5l0.2,1.6l0,1.4l0.1,1.3l-0.1,0.3l-0.1,0l0.1,0.7l0.5,1.1l-0.5,3.9l0.1,1.3l-0.7,2l-0.4,2l-0.3,1.4
	l-0.3,0.8l-0.2,1.3l-0.6,2.3l-0.4,2.1l-0.5,1.2l-0.2,0.5l0,0.8l-0.4,1l-0.8,1.1l-0.4,0.7l-0.5,1.2l-0.3,0.7l-0.8,0.9l-0.2,0.2
	l-0.3,0.8l-1.1,1.2l-0.7,0.3l-0.7,0.7l-0.5,0.1l-3.4,1.3l-2.1,0.4l-0.5,0.1l-0.9,0.5l-1.4-0.2l-0.5-0.3l-0.8-0.1l-0.4,0.1l-1.2-0.1
	l-0.6-0.5l-2.4-1.6l-0.3-0.1h-0.3l-0.6,0.7l-0.3-0.6l-0.6-1l-0.4-0.1l-0.5-0.3l-2-1.9l-0.2,2.5l1.2,1.6l0.6,0.6l2.6,1.3l0.8,0.4
	l1.2,0.5l0.4,0.4l1.6,0.8l1.4-0.1l0.7,0h0.5l0.4-0.3l0.7,0.1l1.5,0.5h0.3l3-0.3l0.5-0.3l0.4-0.1l0.8-0.3l2.2-1.5l2.1-2.3l2-2.5
	l1.2-2l1.6-2.8l1-2.8l0.5-1.2l0.6-1.9l0.3-0.8l0.2-0.8l0.5-1.8l0.3-2l0.4-3.4l-0.2-0.6l-0.1-1.2l0.1-1l0-2.1l0.3-1.3l0.1-1.6
	l0.1-2.6l0.1-1l0-1.8l-0.1-3.6l0.1-2.6L365,112.2z M325.3,125.3L325,125l0-0.5l-0.1-2.2l0.1-4.9l0.1-0.8l0.4-1.2l0.3-1.6l-0.3-0.3
	l-0.3-2.2l-0.1-1l0.4-0.7l0.1-1.4l0.2-1v-0.5l0.1-0.5l0-0.8l0-2.2l0.3-3.2l0-2.6l-0.1-0.7l0.1-0.7l0.2-1.8l-0.2-2.4l0.2-1.3
	l-0.4-1.6l0.4-1l0-1.1l0.5-0.5l-0.1-1.2l0.5-0.8l1.6-3.5l0.2-1.2l0.1-1.6l-0.3-0.5l-0.3,0.1l-0.9,1.2l-0.5,0.8l-0.5,0.6l0,0.8
	l-1.3,3.3l-0.3,0.9l-1,2.8l-0.3,1.3l-0.1,0.8l-0.3,1.2l-0.2,1.6l-0.2,2.5l-0.2,1.4l-0.2,1.6l-0.3,1.2l0.2,1.8l0.2,1.3l-0.1,4.4
	l0.1,1.2l-0.4,2.1l-0.5,1l0.4,2.9l0.5,8.1l0,1.2l0.7,4.8l0,1.8l0.4,2.2l-0.3,1.6l-0.1,1l0.5,1.4l0.8,1.4l0.3,1.2l0,1.6l0.4,1.3
	l0.4,1l0.7,2.4l0.4,0.8l0,0.5l0.9,1.6l0.2,0.8l0.6,0.8l0.1,0.8l1,1.1l0.6,0.3l0.3-0.4l-0.1-0.7l-0.8-1.6c-3-7.5-4.7-19.3-4.7-19.3
	L325.3,125.3z M353.6,94.6c-0.6-1.1-1.5-2-2.5-2.7c-3.1-2-6.8-2.6-10.3-1.8c-1.2,0.2-2.3,0.5-3.4,0.9c0.1-0.4,0.2-0.8,0.3-1.3
	c0.1-0.7,0.3-1.5,0.4-2.3c0.1-0.8,0.2-1.5,0.3-2.3c0.1-0.6,0.1-1.1,0.2-1.7c2,0.3,1.9,0.5,3.6,0.6c4.3,0.3,7.7,0.2,9.6-0.4
	c1.3-0.5,2-1.2,2-2.1c0-0.6-0.3-1.2-0.7-1.7l-0.2-0.2l-0.2,0c-1.9,0.2-3.8,0.3-5.6,0.4c-2.4,0.1-3,0.1-5.3,0.1c-0.6,0-1.2,0-1.8,0
	s-1.2,0-1.9,0l-4.4-0.1l0,0.4c-0.1,2.1,1.6,4.2,1.4,6.3c-0.2,1.9-0.6,3.8-1.1,5.7l-0.1,0.2l1.3,1.3l0.3-0.1c1.1-0.4,2.2-0.7,3.4-1
	c2.5-0.5,2.9-0.4,4.7,0.2c1,0.3,1.9,0.8,2.8,1.5c0.7,0.6,1.3,1.4,1.8,2.2c0.4,0.9,0.6,1.8,0.6,2.8c0,0.7-0.1,1.4-0.3,2
	c-0.2,0.7-0.4,1.3-0.8,1.9c-0.3,0.6-0.8,1.2-1.3,1.7c-0.5,0.5-1.1,1-1.7,1.4c-0.7,0.4-1.4,0.7-2.2,0.9c-1.5,0.4-3.1,0.5-4.7,0.2
	c-0.7-0.1-1.4-0.4-2-0.7c-0.6-0.3-1.2-0.7-1.7-1.2c-0.5-0.5-1-1-1.3-1.7l-0.1-0.2h-0.3c-0.5,0-0.9,0.1-1.3,0.2
	c-0.4,0.1-0.7,0.3-1.1,0.6c-0.3,0.2-0.5,0.5-0.7,0.8c-0.2,0.3-0.3,0.6-0.3,1c0,0.6,0.2,1.1,0.5,1.6c0.3,0.4,0.7,0.8,1.2,1.1
	c0.5,0.3,1.1,0.6,1.7,0.8c0.6,0.2,1.3,0.4,1.9,0.5c0.6,0.1,1.3,0.2,1.9,0.3c0.6,0.1,1.2,0.1,1.8,0.1c1.6,0,3.3-0.2,4.9-0.6
	c1.4-0.3,2.8-0.8,4.1-1.4c1.2-0.6,2.3-1.3,3.3-2.1c0.9-0.8,1.7-1.6,2.4-2.6c0.6-0.9,1.1-1.9,1.5-2.9c0.3-1,0.5-2,0.5-3
	C354.6,97,354.2,95.7,353.6,94.6L353.6,94.6z"/>
<g>
	<rect x="66.5" y="139.1" class="st1" width="15.4" height="16.7"/>
	<path class="st1" d="M137.4,53.4h-8.5v52.7h8.5h4.9h8.5V53.4h-8.5H137.4z M142.3,99.7h-4.9V59.9h4.9V99.7z"/>
	<path class="st1" d="M143,127c1.2-3.4,2-7.6,2.4-12.7l0,0l0-0.1c0,0,0-0.1,0-0.1h0l0.1-3.4h-13v3.4c0,19.7-5.1,34.5-15.3,44.4h3.7
		c10.6-12,17.5-21.2,20.8-27.7c1.2,13.3,5.9,22.9,14.1,29c-1.2-9,0-15,3.7-18C151.8,139.7,146.3,134.7,143,127z"/>
	<path class="st1" d="M283,139h10.4V94H283v0h-8.4v0h-10.4V139h10.4v0L283,139L283,139z M274.6,132.6v-32.2h8.4v32.2H274.6z"/>
	<rect x="160.3" y="33.1" class="st1" width="11.6" height="94.1"/>
	<path class="st1" d="M122.5,146.2l3.9-9.9c-3-1.9-11.4-7.3-11.4-7.3c1.2-4.3,2.2-9.2,3.1-14.8h0l0.4-3.4h-12.6v3.4
		c0.4,18.9-3.5,33.5-11.6,43.8h4.3c8.2-12.5,13.2-20.8,15.3-25.1c1.6,3.9,4.1,7.7,7.3,11.6L122.5,146.2z"/>
	<path class="st1" d="M129.5,21.4c0.4,0.8,0.9,1.6,1.4,2.6c7.3,10.3,14.5,18.9,21.4,25.7c0.8-5.1,1.2-10.5,1.2-16.1
		c-4.1-3-9.4-6.9-15.9-11.6c-2.5-1.6-4.6-3-6.3-4.4L129.5,21.4z"/>
	<rect x="20.5" y="37.9" class="st1" width="19.6" height="3.8"/>
	<path class="st1" d="M24.2,149c0,1.3-0.4,2.4-1.1,3.1l-0.1,0.1v3.8l0.6-0.6c3.7-3.7,5.6-8.2,5.6-13.4v-0.4h-5V149z"/>
	<path class="st1" d="M31.9,142.8c-0.2-0.4-0.3-0.7-0.3-1.1v-0.4h-1v0.4c0,4.3,0.4,8.3,1.2,12l0.1,0.6l0.5-0.5
		c1.2-1.2,2.2-2.5,2.8-3.8l0.1-0.2l-0.1-0.2C34.6,148.5,33.4,146.1,31.9,142.8z"/>
	<path class="st1" d="M37.2,152.8l0.4-0.5c0.8-1,1.7-2.4,2.5-4l0.3-0.5h-0.6c0,0-0.2-0.1-0.6-0.7c-1.6-2.6-2.7-4.5-3.3-5.8l-0.7-1.4
		v1.5c0,2.9,0.6,6.5,1.8,10.8L37.2,152.8z"/>
	<path class="st1" d="M18.2,59.3h-0.9l0.4,1.1h0c0,0,0,0.1,0,0.1l0,0.1l0,0c0.1,0.3,0.2,0.6,0.3,1c1.4,3.8,3,7.6,5,11.5l0.2,0.4
		l0.4-0.3c1.5-1.1,2.8-2.9,4.1-5.4l0.1-0.2l-0.2-0.2c-2.2-2-4.5-4-6.8-5.9c-0.4-0.3-0.8-0.7-1.2-1l0,0L18.2,59.3z"/>
	<path class="st1" d="M21.1,15.2v1.5v2.8h-2.3H17H14h-3.9v29.2H17h15.9h1.8h8.4h6.8V19.5h-6.8h-2.3h-3.7v-2.8v-1.5h7.1h12.4v-3.8
		H41.8h-2.8h-4.2h-5.3h-2.5c0.2-0.5,0.4-1.2,0.7-2.6c0.3-1,0.4-1.3,0.5-1.4l0.4-0.4L28,6.9c-2.7-1.2-5.9-2.3-9.5-3.1l-0.4-0.1v0.4
		c0,0.2,0,0.7,2.8,4.2c1.2,1.7,1.9,2.6,2.3,3.1H4v3.8h9.8H21.1z M17,23.3h2.7h1.5l0,1.7c-0.1,4.6-1.2,8-3.4,9.9
		c-0.2,0.2-0.5,0.4-0.8,0.6l0,0v-1.1V23.3z M43.1,36.1V45H17v-6.4v-0.5c0.7-0.2,1.9-0.9,1.9-0.9l0.1-0.1c5-3.6,7.8-7.7,8.3-12.1
		l0-1.7h3.6V25v5.1v0c0.2,2.8,1.8,4.4,4.6,4.6h5.6h1.5h0.5V36.1z M43.1,23.3v5.2v1.3h-0.5h-1.5h-4.1v-4.2V25v-1.7h3.7H43.1z
		 M30.9,15.2v1.5v2.8h-3.6v-2.8v-1.5H30.9z"/>
	<path class="st1" d="M41,8.3c1.6-0.9,3.1-2,4.6-3c0.1-0.1,0.2-0.1,0.2-0.2l-6.3-3.1l-4.2,6.5c-0.5,0.7-0.9,1.5-1.5,2.2
		c0.7,0,1.5-0.1,2.2-0.2C37.7,10.1,39.4,9.1,41,8.3z"/>
	<path class="st1" d="M40.6,94.4c1.7-0.6,4.3-2.8,5.7-3.8c1.4-1.1,2.3-1.9,3.8-3c0.1-0.1,0.8-0.7,0.9-0.7l-6.5-2.6L40.7,91
		c-0.5,0.7-1.8,3-2.3,3.8C39.1,94.8,39.9,94.6,40.6,94.4z"/>
	<path class="st1" d="M43.3,109.5l-0.1-0.2c-0.2-0.3-0.3-0.5-0.5-0.8h9.9v-3.5H35.4c0.8-2.4,1.3-4,1.6-4.8h14.1v-3.5h-5.4h-2.6H39
		h-0.3h-0.9c0.4-2.4,1-7.2,1.8-14.2l0-0.4h-7.1l0,0.3C32.2,88.1,32,93,31.8,96.8h-2.7c0.7-1.2,1.6-3,2.4-5.3l0.1-0.2l-0.2-0.2
		c-1-0.8-2.9-2.3-5.5-4.6c-1-0.6-1.8-1.3-2.3-2l-0.2-0.3l-0.8,0.8l0.1,0.2c1.4,3.7,3,7.6,5,11.7h-5.3v3.5h9.1c-0.5,2.4-1,4-1.3,4.8
		h-6.8h-0.8h-0.9v-1.9V83.4H4.7V124c0,11.5-0.3,19.3-0.9,23.1c-0.4,3-1.5,6.8-3.3,11.2l-0.2,0.5h2.9l0.1-0.2
		c4-8.9,6.4-17.4,7.1-25.4l0,0.1c0,0,0.3-1.2,0.5-7.5h4.5l0,24.8c-0.1,1.4-0.6,3.4-6.5,6.3l-0.4,0.2l0.7,1.2
		c1.5-0.2,1.6-0.3,2.6-0.5c0.9-0.2,1.7-0.5,1.7-0.5c1.3-0.5,2.3-1,3.4-1.8c0.9-0.7,2-1.5,2.9-2.3c0.9-0.9,1.9-2.1,1.9-3.5v-22v-3.3
		l1.3-1.2l0.4-0.4l0.9-0.9v19h5.9v-1.5h9.6l0.1,1.2c0.2,3.9,0.8,7.5,1.8,10.8l0.3,0.9l0.4-0.8c0.2-0.4,0.5-0.8,0.9-1.2
		c1-1.5,1.5-1.9,1.7-2l0.1,0v3.4c0,2-2.8,3.9-8.3,5.5l-0.4,0.1l0.5,1.6c1.9-0.1,2.9-0.1,4.8-0.5c3-0.6,6-1.7,7.9-4.3
		c0.8-1,1.2-2.3,1.3-3.5v-17.1h-5.9v2.4h-5.1v-3.9h8.2v-3.8h-8.2V125h4h0.8h3.4v-0.9V123v-0.3l0.3,0.3v0c0.9,1.2,2.1,2.2,3.4,2.8
		l0.8,0.4l-0.3-0.8c-1.2-3.5-0.6-6.8,1.8-9.7l0.4-0.5l-0.6-0.1C48.7,114.4,45.2,112.5,43.3,109.5z M10.9,103.8V87.2h4.5l0,17h-4.5
		V103.8z M10.9,122c0.1-3.5,0.1-8.1,0-14.1h4.4l0,14.1H10.9z M23.3,118.3c-0.6,0.8-1.1,1.5-1.7,2.3V118v-5.1v-4.3h0.9h0.8h5.6
		C27.6,111.6,25.7,114.9,23.3,118.3z M32.4,110.5c0.5-0.7,1-1.4,1.4-2h0.5h5.8h0.3c0,0,0.1,0.3,0.2,0.7h0l0.1,0.4
		c0.4,1.1,1,2.8,1.7,4.6h-1.9h-4.4h-6.1C30.6,113.4,31.4,112.2,32.4,110.5z M33.9,135.6h-3.9v-3.9h3.9V135.6z M33.9,127.9h-3.9V125
		h3.9V127.9z M33.9,121.2h-3.9V118h3.9V121.2z M44.9,139.3v8.2c-1.8-3-3.3-5.4-4.5-7.2l-0.6-1H44.9z M46.5,121.2h-1.8h-0.8h-0.4
		h-3.6V118h2.9h0.4h1.3l0,0c0.3,0.4,0.6,0.8,0.8,1.2l0,0c0.3,0.5,0.7,1.1,1.3,1.8c0.1,0.1,0.2,0.2,0.3,0.3H46.5z"/>
	<path class="st1" d="M299.5,80.4h-40.8l1.7,0h-12.1v80.1h10.4V86.8h40.8v58.9c0,0,0.4,3.3-2.3,6c-2.7,2.6-7.4,5.6-14.2,8.8l0.6,1.3
		c6.7-0.5,10.6-1.9,10.6-1.9c11-4.3,16.4-7.5,16.3-12.9V80.4L299.5,80.4L299.5,80.4z"/>
	<path class="st1" d="M178,143.8c-0.3,4.8-4.7,9.4-15.3,14.2c0,0,0.6,1.3,0.6,1.3c0.1,0.1,2.4-0.3,2.7-0.4c0.9-0.1,1.8-0.2,2.6-0.5
		c2.4-0.6,4-1,6.3-1.7c2.5-0.8,5.7-2.8,7.8-4.3c1.7-1.2,3.4-2.6,4.9-4.2c1.3-1.4,2.4-3.1,2.6-5.1V3.4H178V143.8z"/>
	<path class="st1" d="M43.8,52v-2.1H37v4.3H2.8v3.8h11h3.7h1.8h2.3H37l0,14.6c0.2,2.4-3.3,4.8-10.6,6.1L26,78.7l0.4,1.5
		c1.9,0.1,3.8,0,5.7-0.3c1.6-0.3,3.1-0.5,4.7-1c2.2-0.7,4.6-1.7,5.9-3.7c0.8-1.1,1.1-2.5,1.1-3.9V57.9h13.4v-3.8H43.8
		C43.8,54.1,43.8,52,43.8,52z"/>
	<path class="st1" d="M315.6,50.4c-12.2-2.1-21.6-7.9-28.1-17.4h24.5v-6.4h-35.5c1.7-3.1,3.3-6.2,4.6-9.5c-2.9,0.3-6,0.5-7.5,0.7
		c-1.3,0.1-3.4,0.2-5.2,0.3c-0.9,3.6-1.7,6.5-2.3,8.5h-20.2v6.4h17.7c-3.9,8.6-10.9,18.8-21,30.9c-1-0.7-2-1.4-3.1-2.1
		c-0.7-0.4-1.4-0.9-2.1-1.3l-0.7-0.5V42.1h11v-6.4h-11V0.9h-11v34.8h-14.1v6.4h13.5c-0.4,29.6-5.5,55.1-15.3,76.6h3.1
		c5.3-11.2,9.6-21,12.8-29.6v72.1h11V77.7v-8.6v-3.6c0.8,1.8,1.8,3.5,2.8,5.3c0.5,0.8,0.9,1.6,1.5,2.4c1.6,3,3.1,5.4,4.3,7.1
		c1.2-3.4,2.2-7.3,3.1-11.6c-1-1.1-2.3-2.2-3.8-3.4c2-2.1,4.7-4.7,8.1-7.8c2.2-2,4.1-3.7,5.7-5.3l4-4.6v0V70v6.4h10.4H283h10.4V70
		V50.3c1.6,2.2,3.5,4.5,5,5.9c7.3,6.9,12.6,10.7,15.9,11.6C312.7,61.8,313.1,56,315.6,50.4z M273.4,33.1H285c0.8,2.5,1.8,5.3,3,8.2
		h-20.4C270,38.2,272,35.5,273.4,33.1z M272.6,70V47.6H283V70H272.6z"/>
	<path class="st1" d="M264,15.6c1.6-0.1,3.3-0.2,5-0.4l13.2-1.3c0,0,0,0,0,0c6.3-0.7,11.2-1.3,11.2-1.3l0,0c3-0.2,6.1-0.5,9.3-0.9
		c2.4-0.4,4.3-0.9,5.5-1.3c-0.8-0.4-1.6-1.1-2.4-1.9c-3.7-3.9-6.5-6.6-8.6-8.4c-22.4,8.6-39.5,13.3-51.4,14.2v1.3
		C253.5,16,259.5,16,264,15.6z"/>
	<path class="st1" d="M101.4,57l0.8-0.8c0.2-0.3,0.5-0.7,0.8-1.2v51h8.5h4.9h8.5V53.4h-8.5h-4.9h-7.3c1.1-1.6,2.5-3.7,4.2-6.2
		c0.3-0.4,1.3-1.9,2.4-3.5v4.2h31.8v-6.4h-30.2c0.3-0.5,0.6-0.9,0.9-1.3l0,0c6.7-9.6,11.4-17,13.8-22.1l1.4-3
		c2-3.9,3.5-7.3,4.3-10.3h-15.9C115.2,24,107.3,42.9,93,61.4h4.3C98.5,60.1,99.8,58.7,101.4,57z M111.5,59.9h4.9v39.8h-4.9V59.9z"/>
</g>
</svg>
