<svg id="logo.svg" xmlns="http://www.w3.org/2000/svg" width="365" height="162" viewBox="0 0 365 162">
  <defs>
    <style>
      .cls-1 {
        fill: #fff;
      }

      .cls-1, .cls-2 {
        fill-rule: evenodd;
      }

      .cls-2 {
        fill: #c30d23;
      }
    </style>
  </defs>
  <path id="形狀_1" data-name="形狀 1" class="cls-1" d="M266.887,345.294h6.562v3.772h-6.562v-3.772Zm-0.6,7.03h9.128V356.1H266.29v-3.772Zm7.528-101.988h-32.9v29.319h39.7V250.336h-6.8Zm0,8.962v16.581h-26.09V254.11h26.09V259.3Zm38.816,127.759H297.205V370.279h15.429v16.778ZM347,337.155h8.448v-52.8H333.664v52.8H347Zm-4.889-46.345H347V330.7h-4.889V290.81Zm30.77,46.345h8.452v-52.8h-21.79v52.8h13.338ZM368,290.81h4.887V330.7H368V290.81Zm-38.808,98.314h-4.271q12.209-15.494,11.6-43.892h12.218a117.367,117.367,0,0,1-3.054,14.849,14.127,14.127,0,0,0,4.884,3.223,31.1,31.1,0,0,0,4.884,3.228q-1.825,4.523-3.664,9.035a45.375,45.375,0,0,1-7.324-11.615Q341.392,370.41,329.187,389.124Zm7.33-43.892v-3.453h12.545l-0.427,4.1Zm26.729,0h12.826a51.187,51.187,0,0,1-2.443,12.912q4.881,11.615,16.491,14.843-5.5,4.507-3.664,18.067-12.226-9.04-14.049-29.038-4.893,9.679-20.763,27.754h-3.669Q363.239,374.913,363.246,345.232Zm0,0.931v-4.384h12.942l-0.127,3.617Zm141.84,24v0h8.4v0h10.385V324.983H513.486v0h-8.4v0H494.7v45.182h10.389Zm0-38.726h8.4V363.71h-8.4V331.439Zm-12.377-24.056h10.383V277.029H492.709v30.354Zm20.777,0h10.385V277.029H513.486v30.354Zm10.385,0H492.709V301h31.162v6.379Zm0-28.859H492.709v-6.375h31.162v6.375ZM390.877,263.917v94.348h11.6V263.917h-11.6Zm-45.2,96.164s8.39,5.477,11.379,7.339l-3.944,9.971-1.331-1.824-7.226-14.2Zm15.878-105.2a197.47,197.47,0,0,0,21.376,25.815,103.469,103.469,0,0,0,1.222-16.134q-6.111-4.512-15.878-11.615a65.122,65.122,0,0,1-6.268-4.443l-1.88,3.777C360.565,253.062,361.04,253.926,361.559,254.879Zm-120.694,84.1h5.506V335.2h-5.506v3.777Zm0,17.935h5.506v-3.773h-5.506v3.773Zm30.011-88.1h-19.6v3.772h19.6v-3.772ZM254.933,380.2a4.229,4.229,0,0,1-1.117,3.109l-0.1.109v3.762l0.611-.611a18.411,18.411,0,0,0,5.584-13.4v-0.36h-4.978V380.2Zm7.681-6.277a2.327,2.327,0,0,1-.267-1.062v-0.357h-1.018v0.357a55.5,55.5,0,0,0,1.228,12L262.7,385.5l0.457-.458a14.9,14.9,0,0,0,2.808-3.762l0.079-.166-0.079-.159C265.319,379.665,264.164,377.233,262.614,373.925Zm5.315,10.1,0.433-.544a23.964,23.964,0,0,0,2.476-4.038l0.29-.52h-0.577a1.922,1.922,0,0,1-.641-0.749c-1.588-2.581-2.708-4.524-3.335-5.779l-0.68-1.357v1.513a41.075,41.075,0,0,0,1.845,10.8ZM258.391,298.4c-2.195-2.027-4.483-4.013-6.81-5.952-0.463-.385-0.914-0.784-1.381-1.163h-1.779c0.13,0.382.285,0.775,0.42,1.163a98.111,98.111,0,0,0,5,11.557l0.195,0.383,0.366-.273a14.719,14.719,0,0,0,4.056-5.378l0.094-.185Zm-9.9-6.912-0.42-1.263H249l1.337,1.177Zm24-49.24h-14.8a23.07,23.07,0,0,0,.686-2.613,3.357,3.357,0,0,1,.517-1.362l0.361-.363-0.466-.215a47.51,47.51,0,0,0-9.513-3.085l-0.434-.1v0.45c0,0.238,0,.741,2.808,4.183,1.214,1.681,1.892,2.595,2.281,3.1h-19.1v3.771h52.494v-3.771H272.494Zm-2.292-9.388-4.2,6.522c-0.526.717-.946,1.478-1.473,2.192a9.138,9.138,0,0,0,2.16-.231,21.4,21.4,0,0,0,5.007-2.263c1.593-.891,3.062-1.961,4.576-2.971,0.079-.056.158-0.111,0.241-0.165Zm4.938,82.37-3.695,6.823c-0.471.75-1.8,3.035-2.271,3.784a9.2,9.2,0,0,0,2.135-.394c1.7-.567,4.341-2.834,5.676-3.847,1.448-1.105,2.34-1.928,3.771-3.055,0.075-.057.831-0.661,0.911-0.721Zm10.029,31.066-0.627-.079c-5.131-.687-8.646-2.589-10.516-5.631l-0.092-.151a7.959,7.959,0,0,1-.47-0.843h-2.336s0.083,0.276.231,0.745h0l0.128,0.388c0.715,2.173,2.421,6.945,4.469,9.523l0-.007a13.629,13.629,0,0,0,1.283,1.781c0.106,0.108.207,0.211,0.3,0.305l1.528,1.816v-0.011a9.935,9.935,0,0,0,3.444,2.849l0.769,0.386-0.272-.822a9.857,9.857,0,0,1,1.765-9.749ZM467.216,294.25v-21.3h11V266.5h-11V231.645H456.225V266.5H442.177v6.455h13.435q-0.618,44.531-15.269,76.8H443.4q7.926-16.774,12.828-29.688v72.285h10.991v-98.1Zm62.76,17.1v0H489.2l1.688,0h-12.07V391.7H489.2v-73.9h40.773v59.052a8,8,0,0,1-2.272,6q-3.974,3.942-14.218,8.844l0.616,1.289a42.377,42.377,0,0,0,10.559-1.929c10.993-4.306,16.389-7.548,16.311-12.914v-66.8h-11ZM408.585,234.227v140.7c-0.322,4.862-4.683,9.457-15.267,14.2,0,0,.609,1.282.609,1.288a21.885,21.885,0,0,0,2.675-.39,23.6,23.6,0,0,0,2.624-.459c2.43-.62,3.948-0.981,6.34-1.721a32.677,32.677,0,0,0,7.831-4.312,29.012,29.012,0,0,0,4.853-4.161,9.173,9.173,0,0,0,2.552-5.091V234.227H408.585ZM274.529,285.055s0-2.167,0-2.167v-2.112h-6.8v4.279H233.612v3.776h34.112v14.65c0.182,2.425-3.3,4.765-10.564,6.149l-0.368.068,0.359,1.5a23.943,23.943,0,0,0,5.686-.351,40.194,40.194,0,0,0,4.672-1.045c2.18-.709,4.6-1.724,5.92-3.693a6.928,6.928,0,0,0,1.1-3.876v-13.4h13.4v-3.776h-13.4Zm-39.09,29.351V355.13c0,11.549-.309,19.349-0.909,23.19a47.92,47.92,0,0,1-3.331,11.225l-0.2.5h2.894l0.1-.214a81.751,81.751,0,0,0,7.109-25.5l0.007,0.057s0.905-3.592.53-29.188V318.176H246.1l0,63.594c-0.076,1.4-.647,3.4-6.5,6.348l-0.357.178,0.68,1.211a23.737,23.737,0,0,0,2.6-.526,12.835,12.835,0,0,0,1.654-.525,13.217,13.217,0,0,0,3.348-1.81,26.094,26.094,0,0,0,2.855-2.328c0.894-.926,1.921-2.133,1.921-3.5V314.406H235.439Zm38.379-53.814h-5.99V245.6h-6.2v15.374a4.512,4.512,0,0,0,4.623,4.614h9.265v-5h-1.7Zm-21.93-14.99v6.429l-0.006,3.772c-0.051,4.659-1.183,8-3.354,9.968a7.245,7.245,0,0,1-.786.637l-0.279.184v2.5l0.217-.109a12.273,12.273,0,0,0,1.936-.941l0.1-.067c5.015-3.631,7.818-7.718,8.336-12.167l0.034-3.772V245.6h-6.2Zm218.148,47.129c-0.663-.434-1.394-0.906-2.105-1.344l-0.715-.535c-0.24-.187-0.477-0.384-0.617-0.518v5.153s0.511,0.773.617,1c0.839,1.779,1.786,3.558,2.82,5.333,0.467,0.8.948,1.607,1.458,2.415a68.658,68.658,0,0,0,4.271,7.1,77.945,77.945,0,0,0,3.056-11.617A49.719,49.719,0,0,0,470.036,292.731ZM264.617,339.589h18.747v-3.471H266.143c0.811-2.455,1.343-4.05,1.583-4.787h14.116v-3.469H268.506c0.4-2.4,1-7.2,1.76-14.28l0.04-.4h-7.135l-0.015.346c-0.195,5.63-.394,10.449-0.592,14.331h-2.671a36.925,36.925,0,0,0,2.427-5.323l0.1-.243-0.206-.168q-1.523-1.206-5.521-4.611a8.078,8.078,0,0,1-2.335-2.047l-0.246-.333-0.757.761,0.078,0.216c1.351,3.69,3.013,7.639,4.948,11.748h-5.275v3.469h9.05a30.664,30.664,0,0,1-1.306,4.787H252.3v3.471h7.342a45.387,45.387,0,0,1-5.6,9.8c-0.552.759-1.128,1.521-1.74,2.293l-0.267.163v3.848l1.58-1.421,0.427-.434,0.9-.9V372h5.889v-1.526h9.584l0.06,1.186a43.761,43.761,0,0,0,1.845,10.79l0.267,0.857,0.393-.8a4.451,4.451,0,0,1,.893-1.182,6.323,6.323,0,0,1,1.687-2.021l0.1-.049v3.4c0,2.048-2.785,3.89-8.271,5.471l-0.359.1,0.523,1.581a28.354,28.354,0,0,0,4.805-.522c3.031-.608,5.977-1.719,7.876-4.3a7,7,0,0,0,1.315-3.545V364.248h-5.889V366.7h-5.075v-3.866H278.8V359.05h-8.223V356.1H278.8v-3.772h-8.223v-3.258h4.551l-1.922-3.772h-12.38c0.5-.763,1.287-2,2.365-3.71C263.705,340.9,264.187,340.222,264.617,339.589Zm11.031,30.884v8.23c-1.807-3.018-3.33-5.456-4.528-7.262l-0.644-.968h5.172ZM264.677,366.7h-3.855v-3.866h3.855V366.7Zm0-7.645h-3.855V356.1h3.855v2.954Zm0-9.984v3.258h-3.855v-3.258h3.855Zm-14.142-9.477h2.66v-3.471h-2.66v3.471ZM546,281.341q-18.318-3.219-28.091-17.424h24.431v-6.454H506.917a78.678,78.678,0,0,0,4.582-9.529c-2.885.267-5.993,0.549-7.453,0.681-1.341.118-3.4,0.213-5.2,0.277-0.9,3.66-1.676,6.529-2.317,8.571H476.379v6.454h17.712q-6.115,13.554-22.6,32.912h3.049q3.052-3.217,8.555-8.389c2.229-1.963,4.1-3.739,5.658-5.345l5.941-6.919a90.381,90.381,0,0,0,9.167-12.259h11.6c0.809,2.581,1.834,5.382,3.052,8.388a14.68,14.68,0,0,0,1.833,3.871s5.153,7.864,8.549,10.973q10.992,10.332,15.884,11.618A25.6,25.6,0,0,1,546,281.341Zm-33.326-36.5a0.063,0.063,0,0,1,.014-0.033c6.293-.69,11.182-1.31,11.182-1.31l-0.011-.012c3-.209,6.088-0.492,9.317-0.874a35.646,35.646,0,0,0,5.494-1.292,9.355,9.355,0,0,1-2.442-1.936A118.9,118.9,0,0,0,527.678,231q-33.594,12.921-51.3,14.2v1.288a171.844,171.844,0,0,0,18.118-.027h0c1.573-.1,3.273-0.221,5.027-0.361h0ZM343.846,271.015q10.1-14.449,13.831-22.161l1.436-3.009a52.086,52.086,0,0,0,4.278-10.326H347.512q-2.451,29.04-23.825,56.792h4.277q1.773-1.866,4.116-4.342l0.772-.82q1.835-2.571,6.109-9.037c0.477-.713,3.476-5.054,4.876-7.072Zm29.318,1.29H341.405v6.454h31.759v-6.454Z" transform="translate(-231 -231)"/>
  <path id="形狀_2" data-name="形狀 2" class="cls-2" d="M585.649,352.837a6.228,6.228,0,0,1-.641,2.831,10.164,10.164,0,0,1-1.74,2.491,15.858,15.858,0,0,1-2.479,2.137,27.2,27.2,0,0,1-2.864,1.767c0.751,0.324,1.485.654,2.214,0.983s1.425,0.681,2.083,1.053a17.158,17.158,0,0,1,1.827,1.2,8.235,8.235,0,0,1,1.464,1.421,6.477,6.477,0,0,1,.975,1.712,5.843,5.843,0,0,1,.371,2.067,7.216,7.216,0,0,1-.944,3.625,9.777,9.777,0,0,1-2.72,3.032,13.945,13.945,0,0,1-4.2,2.083,18.278,18.278,0,0,1-5.417.81,17.485,17.485,0,0,1-4.008-.4,11.022,11.022,0,0,1-3.395-1.339,7.376,7.376,0,0,1-2.365-2.33,6.345,6.345,0,0,1-.9-3.359,6.942,6.942,0,0,1,.594-2.974,9.006,9.006,0,0,1,1.687-2.488,14.728,14.728,0,0,1,2.531-2.116c0.976-.649,2.021-1.276,3.144-1.878a24.564,24.564,0,0,1-2.388-1.381,10.453,10.453,0,0,1-1.966-1.686,7.466,7.466,0,0,1-1.348-2.109,6.922,6.922,0,0,1-.509-2.65,6.618,6.618,0,0,1,.976-3.619,8.943,8.943,0,0,1,2.672-2.747,13.316,13.316,0,0,1,3.852-1.75,17.145,17.145,0,0,1,4.527-.64,13.291,13.291,0,0,1,3.3.371,9.4,9.4,0,0,1,2.86,1.173,6.452,6.452,0,0,1,2.028,1.962A5.082,5.082,0,0,1,585.649,352.837ZM572.438,363.9a17.387,17.387,0,0,0-2.082,1.455,10.187,10.187,0,0,0-1.659,1.7,7.253,7.253,0,0,0-1.085,2,6.526,6.526,0,0,0-.377,2.329,7.379,7.379,0,0,0,.486,2.586,5.786,5.786,0,0,0,1.414,2.138,6.714,6.714,0,0,0,2.336,1.44,8.814,8.814,0,0,0,3.258.517,12.711,12.711,0,0,0,2.88-.372,9.066,9.066,0,0,0,2.544-1.076,5.849,5.849,0,0,0,1.8-1.778,4.373,4.373,0,0,0,.673-2.472,4.936,4.936,0,0,0-.749-2.693,7.578,7.578,0,0,0-1.924-2.031,15.867,15.867,0,0,0-2.732-1.609q-1.536-.714-3.162-1.423ZM568.6,353.677a5.415,5.415,0,0,0,.644,2.616,7.569,7.569,0,0,0,1.68,2.031,12.768,12.768,0,0,0,2.406,1.615c0.91,0.479,1.857.94,2.849,1.367a19.109,19.109,0,0,0,2.375-1.583,9.278,9.278,0,0,0,1.691-1.688,6.191,6.191,0,0,0,1.012-1.887,6.77,6.77,0,0,0,.321-2.2,5.694,5.694,0,0,0-.418-2.157,4.723,4.723,0,0,0-1.2-1.725,5.535,5.535,0,0,0-1.977-1.138,8.455,8.455,0,0,0-2.75-.39,9.5,9.5,0,0,0-2.578.37,6.625,6.625,0,0,0-2.115,1.008,4.874,4.874,0,0,0-1.423,1.6A4.311,4.311,0,0,0,568.6,353.677ZM596,343.163l-0.364-1.284-0.065-.958-0.121-.813L594.961,338l0.4-.958-0.145-3.245-0.3-1.3-0.013-.818-0.875-1.146L593.9,328.77l0.044-1.3,0.153-1.773-0.409-1.014-0.258-2.654-0.472-.949-0.652-1.63-0.3-1.088-0.472-1.014-0.416-1.426-0.726-3.057-0.47-.612-0.236-.813-0.531-.742-2.113-3.592-0.759-1.083-0.353-.812-0.353-.271-4.252-3.633-4.294-1.732-2.839-.519L573.379,299l-3.4.715-2.649,1.181-0.343.145-2.177,1.993-0.862.621-2,2-0.51.887,0.237,0.545,0.408,0.61,0.587,0.741c2-.9,3.308-4.325,3.308-4.325l0.23-.611,0.627-.55,1.209-.558,0.865-.281,0.861-.418,0.749-.277,1.386-.424,0.81-.006v0.27l-0.8,1.371,0.635-.281,0.339-.409,0.111-.473,0.634-.557,0.8-.211,0.353,0.137,0.521,0.608,0.927-.149,1.8,0.735,1.218,0.26,1.159,0.6,1.11,0.948,3.553,3.159,0.472,0.812,1.887,4,0.289,0.337,0.306,1.566,0.471,0.945,0,0.818,1,1.623,0.121,0.412,0.524,0.877,0.195,1.567,0.41,0.813,0.134,1.629L591.122,323l0.026,2.454,0.25,2.517,0.3,1.02,0.128,1.087,0.073,1.3,0.006,1.293,0.01,0.951,0.377,2.976-0.1,1.634,0.868,6.257,0.209,3.541-0.433,3.458,0.188,1.566-0.042,1.43,0.07,1.294-0.055.341-0.083.024L593,356.8l0.537,1.085-0.487,3.889,0.123,1.291-0.668,2.049-0.39,1.981-0.333,1.43-0.279.825-0.162,1.29-0.615,2.257-0.381,2.111-0.453,1.231-0.225.546,0.007,0.818-0.4.954-0.8,1.1-0.449.685-0.51,1.232-0.281.685-0.8.892-0.232.206-0.28.817-1.087,1.168-0.689.281-0.747.688-0.461.138-3.4,1.328-2.134.361-0.459.077-0.865.549-1.443-.189-0.468-.27-0.813-.126-0.4.073-1.157-.057-0.583-.472-2.441-1.614-0.289-.127H568.2l-0.567.685-0.3-.61-0.644-1.018-0.4-.064-0.524-.264-2.03-1.89-0.219,2.521,1.231,1.622,0.579,0.612,2.558,1.266,0.758,0.4,1.218,0.469,0.409,0.4,1.62,0.8,1.446-.15,0.692-.008,0.463,0,0.4-.279,0.7,0.066L577.09,391l0.286,0,3-.3,0.518-.346,0.4-.142,0.808-.346,2.18-1.518,2.058-2.265,2-2.539,1.2-1.992,1.649-2.81,1.017-2.794,0.509-1.166,0.557-1.91,0.285-.821,0.159-.819,0.509-1.773,0.262-2.046L594.923,364l-0.179-.61-0.07-1.161,0.105-.953,0.04-2.112,0.333-1.3,0.1-1.566,0.09-2.588,0.108-.956,0.04-1.772L595.4,347.39l0.146-2.584Zm-39.7,13.166L556.009,356l-0.008-.48-0.139-2.247,0.07-4.887,0.108-.814,0.4-1.163,0.271-1.637-0.292-.27-0.254-2.243L556.1,341.3l0.4-.682,0.1-1.433,0.226-.954,0-.478,0.114-.477,0.048-.818,0.036-2.165,0.315-3.2,0.034-2.584-0.124-.746,0.052-.685,0.156-1.775-0.194-2.445,0.164-1.3L557.052,320l0.394-1.025,0.049-1.092,0.46-.484-0.071-1.151,0.452-.826,1.645-3.489,0.22-1.163,0.1-1.631-0.291-.475-0.348.065-0.913,1.243-0.458.819-0.451.617-0.05.817-1.3,3.284-0.279.886-1.014,2.8-0.334,1.3-0.112.817-0.331,1.227-0.163,1.642-0.2,2.452-0.161,1.432-0.154,1.632-0.337,1.234,0.249,1.767,0.242,1.29-0.13,4.409,0.068,1.158-0.389,2.116-0.451.96,0.374,2.855,0.483,8.149-0.044,1.158,0.737,4.758-0.037,1.769,0.364,2.244-0.273,1.639-0.052.956,0.479,1.357,0.765,1.356,0.3,1.152-0.047,1.567,0.419,1.291,0.415,0.952,0.715,2.444,0.36,0.808L558,377.563l0.882,1.562,0.24,0.811,0.644,0.812,0.064,0.815,1,1.078,0.638,0.267,0.341-.409-0.066-.682-0.766-1.56c-2.975-7.455-4.746-19.3-4.746-19.3Zm28.326-30.681a8.288,8.288,0,0,0-2.479-2.676,13.7,13.7,0,0,0-10.335-1.843,27.939,27.939,0,0,0-3.422.868c0.106-.4.2-0.823,0.291-1.265q0.219-1.1.4-2.272t0.315-2.3q0.1-.877.187-1.666c1.994,0.266,1.9.48,3.559,0.618,4.3,0.347,7.651.242,9.618-.447,1.3-.464,1.964-1.175,1.953-2.108a2.862,2.862,0,0,0-.744-1.724l-0.155-.182-0.236.02c-1.935.2-3.8,0.327-5.566,0.393-2.4.091-3.007,0.125-5.287,0.113-0.6,0-1.2-.01-1.812-0.016s-1.232-.024-1.868-0.037l-4.375-.052-0.025.433c-0.114,2.135,1.629,4.237,1.359,6.269a48.384,48.384,0,0,1-1.068,5.691l-0.064.242,1.266,1.291,0.271-.1a21.115,21.115,0,0,1,3.395-.974c2.51-.486,2.87-0.4,4.732.218a8.436,8.436,0,0,1,2.766,1.5,6.719,6.719,0,0,1,1.771,2.24,6.41,6.41,0,0,1,.642,2.785,7.687,7.687,0,0,1-.251,2.018,8.484,8.484,0,0,1-.773,1.93,8.325,8.325,0,0,1-1.252,1.714,8.532,8.532,0,0,1-1.711,1.371,8.825,8.825,0,0,1-2.155.928,9.972,9.972,0,0,1-4.659.151,8.452,8.452,0,0,1-1.986-.672,7.563,7.563,0,0,1-1.727-1.157,6.373,6.373,0,0,1-1.326-1.677l-0.129-.227h-0.264a4.209,4.209,0,0,0-1.345.222,3.835,3.835,0,0,0-1.076.564,3.021,3.021,0,0,0-.734.812,1.886,1.886,0,0,0-.286.993,2.608,2.608,0,0,0,.512,1.562,4.342,4.342,0,0,0,1.223,1.095,7.685,7.685,0,0,0,1.672.753,15.986,15.986,0,0,0,1.893.486,18.468,18.468,0,0,0,1.933.252c0.625,0.052,1.22.073,1.757,0.071a22.271,22.271,0,0,0,4.878-.563,19.246,19.246,0,0,0,4.083-1.443,15.166,15.166,0,0,0,3.259-2.129,14,14,0,0,0,2.372-2.615,11.673,11.673,0,0,0,1.457-2.9,9.456,9.456,0,0,0,.477-3A7.148,7.148,0,0,0,584.623,325.648Z" transform="translate(-231 -231)"/>
</svg>
