<?xml version="1.0" encoding="utf-8"?>
<!-- Generator: Adobe Illustrator 25.2.3, SVG Export Plug-In . SVG Version: 6.00 Build 0)  -->
<svg version="1.1" id="nav1.svg" xmlns="http://www.w3.org/2000/svg" xmlns:xlink="http://www.w3.org/1999/xlink" x="0px" y="0px"
	 viewBox="0 0 158.7 119.1" style="enable-background:new 0 0 158.7 119.1;" xml:space="preserve">
<style type="text/css">
	.繪圖樣式_x0020_3{fill:url(#SVGID_1_);}
	.st0{fill:#000D43;}
	.st1{fill:url(#SVGID_2_);}
	.st2{fill:#FFFFFF;}
	.st3{fill:url(#SVGID_3_);}
</style>
<linearGradient id="SVGID_1_" gradientUnits="userSpaceOnUse" x1="0" y1="137" x2="1" y2="137">
	<stop  offset="0" style="stop-color:#DBA04C"/>
	<stop  offset="0.1" style="stop-color:#A86F42"/>
	<stop  offset="0.48" style="stop-color:#ECE7A9"/>
	<stop  offset="1" style="stop-color:#BA8D6D"/>
</linearGradient>
<g>
	<g>
		<rect x="0" y="0" class="st0" width="158.7" height="119.1"/>
		
			<linearGradient id="SVGID_2_" gradientUnits="userSpaceOnUse" x1="1930.8221" y1="1620.724" x2="2236.8799" y2="1620.724" gradientTransform="matrix(0.7071 -0.7071 0.7071 0.7071 -2539.7561 386.6261)">
			<stop  offset="0.1107" style="stop-color:#6E4930"/>
			<stop  offset="0.3162" style="stop-color:#A88355"/>
			<stop  offset="0.4074" style="stop-color:#9E7A4E"/>
			<stop  offset="0.5359" style="stop-color:#896640"/>
			<stop  offset="0.7152" style="stop-color:#F6CC8B"/>
			<stop  offset="0.9027" style="stop-color:#A46B3D"/>
			<stop  offset="1" style="stop-color:#6E4930"/>
		</linearGradient>
		<path class="st1" d="M5.1,5.1l0,108.8l148.5,0V5.1L5.1,5.1z M6.8,112.3V6.8h145.1l0,105.5L6.8,112.3z"/>
	</g>
	<g>
		<g>
			<path class="st2" d="M43.7,100.2h16.1v1.7H43.7V100.2z M59.3,89.4v1.7h-15v-1.7h6.5V86l2.2,0.1c0,0.2-0.1,0.2-0.4,0.3v2.9H59.3z
				 M48.2,91.9c0.8,2.3,1.4,5.2,1.5,7.2c-0.1,0-0.1,0-1.7,0.4c-0.1-1.9-0.6-4.9-1.4-7.2L48.2,91.9z M57.5,92.3
				c-0.1,0.1-0.2,0.2-0.5,0.3c-0.5,2.3-1.5,5.4-2.3,7.3l-1.5-0.5c0.7-2,1.6-5.3,2-7.7L57.5,92.3z"/>
			<path class="st2" d="M64.9,99.2c0.9-0.2,1.9-0.4,2.8-0.7c-0.4-0.7-0.9-1.3-1.4-1.9l1.3-0.7c1.2,1.4,2.6,3.3,3.1,4.6l-1.4,0.8
				c-0.2-0.4-0.4-1-0.8-1.5c-2.1,0.6-4.2,1.2-5.5,1.6c0,0.2-0.1,0.3-0.3,0.3L62,99.8c0.4-0.1,0.8-0.2,1.2-0.3V87h6.5v8.5h-4.9V99.2z
				 M68.2,88.5h-3.4v1.9h3.4V88.5z M64.9,93.9h3.4v-2h-3.4V93.9z M78,87v10.9c0,1.8-0.8,2.1-3.4,2.1c-0.1-0.5-0.3-1.3-0.6-1.8
				c0.4,0,0.9,0,1.2,0c0.9,0,1,0,1-0.3v-9.2H73v14h-1.7V87H78z"/>
			<path class="st2" d="M84.6,93.1v5.8c1.2,2,3.5,2,6.7,2c2,0,4.5-0.1,6.1-0.2c-0.2,0.4-0.5,1.2-0.6,1.7c-1.3,0.1-3.3,0.1-5.2,0.1
				c-3.9,0-6.1,0-7.7-2.1c-0.9,0.7-1.8,1.5-2.5,2c0,0.2-0.1,0.3-0.2,0.3l-0.9-1.8c0.8-0.5,1.8-1.2,2.7-1.9v-4.3h-2.5v-1.6H84.6z
				 M81.9,86.4c1.1,0.8,2.5,2,3.1,2.8l-1.3,1.2c-0.6-0.9-1.9-2.1-3-3L81.9,86.4z M87.9,97v2.9h-1.6v-9.3h4.6c-1-0.5-2.1-0.9-3-1.3
				l1.1-0.9c0.7,0.3,1.5,0.6,2.3,0.9c0.7-0.4,1.4-0.8,2-1.2h-7v-1.3H95l0.2-0.1l1.2,0.8c-0.1,0.1-0.2,0.2-0.3,0.2
				c-0.9,0.7-2.1,1.6-3.3,2.3c0.5,0.2,0.9,0.4,1.2,0.6h2.2v7.7c0,1.5-0.6,1.6-3.1,1.6c-0.1-0.4-0.2-1-0.4-1.4c0.4,0,0.9,0,1.2,0
				c0.7,0,0.8,0,0.8-0.3V97H92v2.8h-1.5V97H87.9z M90.5,91.8h-2.6v1.3h2.6V91.8z M87.9,95.7h2.6v-1.4h-2.6V95.7z M94.7,93.1v-1.3H92
				v1.3H94.7z M92,95.7h2.7v-1.4H92V95.7z"/>
			<path class="st2" d="M98.9,90.4v-1.3h6.7v1.3H98.9z M105.1,96.6v5.3h-4v0.8h-1.4v-6.1H105.1z M105,91.6v1.3h-5.3v-1.3H105z
				 M99.7,95.4v-1.3h5.3v1.3H99.7z M105,86.6v1.3h-5.2v-1.3H105z M103.7,97.9h-2.5v2.6h2.5V97.9z M115.7,92.9h-4.1v2.7h3.2v7h-1.7
				v-0.8h-4.8v0.9h-1.6v-7.1h3.1v-2.7h-4.1v-1.6h4.1v-2.6c-1.1,0.2-2.3,0.3-3.3,0.4c-0.1-0.4-0.3-1-0.5-1.4c2.7-0.3,5.9-0.9,7.7-1.5
				l1.3,1.4c-0.1,0.1-0.2,0.1-0.4,0.1c-0.9,0.3-1.9,0.5-3.1,0.7v2.9h4.1V92.9z M113.2,100.3v-3.1h-4.8v3.1H113.2z"/>
		</g>
	</g>
	<linearGradient id="SVGID_3_" gradientUnits="userSpaceOnUse" x1="55.1095" y1="47.9167" x2="106.5928" y2="47.9167">
		<stop  offset="0" style="stop-color:#DBA04C"/>
		<stop  offset="0.1" style="stop-color:#A86F42"/>
		<stop  offset="0.48" style="stop-color:#ECE7A9"/>
		<stop  offset="1" style="stop-color:#BA8D6D"/>
	</linearGradient>
	<path class="st3" d="M85.8,61.4c-2.5,0-8.6-4.9-11-7.4c-2.5-2.5-7.4-8.6-7.4-11c0-2.5,6.1-4.9,6.1-6.1l-4.9-14.7c0,0-1.2,0-4.9,0
		c-2.5,0-8.6,7.4-8.6,12.3c0,4.9,2.5,14.7,13.5,25.8c11,11,20.8,13.5,25.7,13.5c4.9,0,12.3-6.1,12.3-8.6c0-3.7,0-4.9,0-4.9
		l-14.7-4.9C90.7,55.3,88.2,61.4,85.8,61.4z"/>
</g>
</svg>
