<?xml version="1.0" encoding="utf-8"?>
<!-- Generator: Adobe Illustrator 25.2.3, SVG Export Plug-In . SVG Version: 6.00 Build 0)  -->
<svg version="1.1" id="nav2.svg" xmlns="http://www.w3.org/2000/svg" xmlns:xlink="http://www.w3.org/1999/xlink" x="0px" y="0px"
	 viewBox="0 0 158.7 119.1" style="enable-background:new 0 0 158.7 119.1;" xml:space="preserve">
<style type="text/css">
	.st0{fill:#000D43;}
	.st1{fill:url(#SVGID_1_);}
	.st2{fill:#FFFFFF;}
	.st3{fill:url(#SVGID_2_);}
</style>
<g>
	<g>
		<rect y="0" class="st0" width="158.7" height="119.1"/>
		
			<linearGradient id="SVGID_1_" gradientUnits="userSpaceOnUse" x1="1930.8215" y1="1620.7242" x2="2236.8806" y2="1620.7242" gradientTransform="matrix(0.7071 -0.7071 0.7071 0.7071 -2539.7561 386.6261)">
			<stop  offset="0.1107" style="stop-color:#6E4930"/>
			<stop  offset="0.3162" style="stop-color:#A88355"/>
			<stop  offset="0.4074" style="stop-color:#9E7A4E"/>
			<stop  offset="0.5359" style="stop-color:#896640"/>
			<stop  offset="0.7152" style="stop-color:#F6CC8B"/>
			<stop  offset="0.9027" style="stop-color:#A46B3D"/>
			<stop  offset="1" style="stop-color:#6E4930"/>
		</linearGradient>
		<path class="st1" d="M5.1,5.1l0,108.8l148.5,0V5.1L5.1,5.1z M6.8,112.3V6.8h145.1l0,105.5L6.8,112.3z"/>
	</g>
	<g>
		<g>
			<path class="st2" d="M48.2,96.8l1.8-0.7l0.3,1.5c-1.8,0.8-3.7,1.7-5,2.2c0,0.2-0.1,0.3-0.2,0.3l-0.8-1.9c0.6-0.2,1.4-0.5,2.3-0.8
				V92h-1.9v-1.6h1.9v-4.2l2,0.1c0,0.2-0.1,0.2-0.4,0.3v3.8H50V92h-1.8V96.8z M53,99.6c0,1,0.2,1.2,1.3,1.2h4c1,0,1.2-0.5,1.3-2.4
				c0.4,0.3,1,0.5,1.5,0.6c-0.2,2.5-0.7,3.3-2.7,3.3h-4.2c-2.2,0-2.9-0.6-2.9-2.7v-5.3l-1.6,0.7l-0.6-1.5l2.2-0.9v-4.7l2,0.1
				c0,0.2-0.1,0.2-0.4,0.3v3.6l2-0.8V86l2,0.1c0,0.1-0.1,0.2-0.4,0.3v3.9l2.3-1l0.4-0.3l1.3,0.5c-0.1,0.1-0.1,0.2-0.2,0.2
				c0,3.4,0,5.9-0.1,6.6c-0.2,1.3-1,1.5-2.7,1.5c-0.1-0.4-0.2-1.1-0.4-1.4c0.4,0,0.9,0,1,0c0.2,0,0.4-0.1,0.5-0.4
				c0.1-0.4,0.1-2.1,0.1-4.9L56.6,92v6.6H55v-5.9l-2,0.9V99.6z"/>
			<path class="st2" d="M63.8,86.7h15.2v15.9h-1.6V102h-12v0.7h-1.6V86.7z M65.4,100.6h12V88.1h-12V100.6z M72,92.4h4.6v1H66.1v-1
				h4.5v-0.7h-2.8v-2.8h7.2v2.8H72V92.4z M67.1,99.8V94h8.4v5.7H67.1z M68.5,95v3.8h5.7V95H68.5z M69.1,89.8v1h4.4v-1H69.1z
				 M69.4,98.1v-2.5h3.7v2.5H69.4z M70.4,96.5v0.9h1.8v-0.9H70.4z"/>
			<path class="st2" d="M85.5,94.1c1,1.5,2.8,1.5,5.9,1.5c2.3,0,5.1-0.1,6.7-0.2c-0.2,0.3-0.4,0.9-0.4,1.3c-0.9,0-2,0.1-3.3,0.1
				c-0.1,0.1-0.2,0.2-0.4,0.2v0.7H98v1.3h-3.9v1.9c0,1.5-0.6,1.7-3.8,1.7c-0.1-0.4-0.3-1-0.5-1.4c0.6,0,1.2,0,1.7,0c0.9,0,1,0,1-0.3
				v-1.8h-6.3c0.9,0.6,1.8,1.3,2.3,1.9l-1.2,1c-0.5-0.6-1.6-1.5-2.5-2.1l0.9-0.8h-4v-1.3h10.8v-0.9c-1.3,0-2.6,0-3.4,0
				c-1.9-0.1-3.2-0.5-4.1-1.6c-0.9,0.6-1.7,1.2-2.5,1.6c0,0.2-0.1,0.2-0.2,0.3l-0.7-1.5c0.7-0.4,1.6-0.8,2.4-1.3v-2.4h-2.3v-1.3h3.8
				V94.1z M83.3,86.3c0.9,0.6,2,1.5,2.5,2.2l-1.2,1c-0.5-0.7-1.5-1.7-2.4-2.3L83.3,86.3z M87.6,89.5h3.2c0.1-0.2,0.1-0.5,0.2-0.8
				h-4.8v-1.2h3c-0.2-0.4-0.5-0.9-0.8-1.3l1.4-0.3c0.4,0.5,0.8,1.1,1,1.6h2.5c0.3-0.5,0.7-1.1,0.9-1.6l1.8,0.4
				c-0.1,0.1-0.2,0.2-0.4,0.2c-0.2,0.3-0.5,0.7-0.8,1h3.1v1.2h-5.4l-0.3,0.8h4.2v5.3h-8.8V89.5z M94.8,91v-0.7h-5.6V91H94.8z
				 M94.8,92.5v-0.7h-5.6v0.7H94.8z M94.8,94v-0.7h-5.6V94H94.8z"/>
			<path class="st2" d="M107.9,94.7l-1,0.1v6.2c0,1.4-0.6,1.6-2.8,1.6c-0.1-0.4-0.2-1-0.4-1.4c0.7,0,1.3,0,1.5,0
				c0.2,0,0.3-0.1,0.3-0.3v-6c-1,0.1-2,0.2-2.8,0.3c0,2.3-0.2,5.4-1.5,7.4c-0.2-0.2-0.8-0.6-1.2-0.8c1.1-1.8,1.3-4.4,1.3-6.5l-0.5,0
				c0,0.1-0.1,0.2-0.3,0.3l-0.5-1.6l1.3-0.1v-5.5h1.5c0.2-0.8,0.5-1.8,0.6-2.5l2,0.5c0,0.1-0.2,0.2-0.4,0.2
				c-0.2,0.5-0.5,1.2-0.7,1.8h2.6v5.1l0.9-0.1L107.9,94.7z M102.7,89.8v4.1l2.8-0.2v-3.9H102.7z M104.1,93.2
				c-0.1-0.7-0.5-1.7-0.9-2.4l1-0.4c0.5,0.7,0.9,1.7,1,2.3L104.1,93.2z M104.9,95.7c0,0.1-0.1,0.2-0.3,0.2v3.9h-1v-4.2L104.9,95.7z
				 M114.7,100.2c0,0.8,0.1,0.8,0.3,0.8c0.5,0,0.6,0,0.7-0.1c0.2-0.1,0.2-1.3,0.2-2c0.3,0.2,0.8,0.5,1.2,0.6
				c-0.1,1.9-0.1,2.8-1.6,2.8h-0.9c-0.4,0-0.8-0.1-1.1-0.4c-0.3-0.3-0.4-0.6-0.4-1.9v-6.6h-2.5v2.6c0,2.1-0.3,4.8-2,6.6
				c-0.3-0.3-0.9-0.8-1.3-0.9c1.6-1.6,1.8-3.9,1.8-5.7v-4h5.7V100.2z M116.8,88.9v1.5h-9.4v-1.5h3.7v-2.8l2,0.1
				c0,0.2-0.1,0.2-0.4,0.3v2.4H116.8z"/>
		</g>
	</g>
	<linearGradient id="SVGID_2_" gradientUnits="userSpaceOnUse" x1="65.8116" y1="17.7822" x2="100.6287" y2="70.7184">
		<stop  offset="0" style="stop-color:#DBA04C"/>
		<stop  offset="0.1" style="stop-color:#A86F42"/>
		<stop  offset="0.48" style="stop-color:#ECE7A9"/>
		<stop  offset="1" style="stop-color:#BA8D6D"/>
	</linearGradient>
	<path class="st3" d="M101,40.8c0-10.5-8.5-18.9-18.9-18.9c-10.5,0-18.9,8.5-18.9,18.9c0,3.5,0.9,6.7,2.5,9.5h0l16.4,28.4l16.4-28.4
		h0C100.1,47.5,101,44.3,101,40.8z M82.1,50.6c-5.4,0-9.8-4.4-9.8-9.8s4.4-9.8,9.8-9.8c5.4,0,9.8,4.4,9.8,9.8S87.5,50.6,82.1,50.6z"
		/>
</g>
</svg>
