<?xml version="1.0" encoding="utf-8"?>
<!-- Generator: Adobe Illustrator 25.2.3, SVG Export Plug-In . SVG Version: 6.00 Build 0)  -->
<svg version="1.1" id="nav3.svg" xmlns="http://www.w3.org/2000/svg" xmlns:xlink="http://www.w3.org/1999/xlink" x="0px" y="0px"
	 viewBox="0 0 158.7 119.1" style="enable-background:new 0 0 158.7 119.1;" xml:space="preserve">
<style type="text/css">
	.st0{fill:#000D43;}
	.st1{fill:url(#SVGID_1_);}
	.st2{fill:#FFFFFF;}
	.st3{fill:url(#SVGID_2_);}
	.st4{fill:url(#SVGID_3_);}
	.st5{fill:url(#SVGID_4_);}
	.st6{fill:url(#SVGID_5_);}
	.st7{fill:url(#SVGID_6_);}
	.st8{fill:url(#SVGID_7_);}
</style>
<g>
	<g>
		<rect x="0" y="0" class="st0" width="158.7" height="119.1"/>
		
			<linearGradient id="SVGID_1_" gradientUnits="userSpaceOnUse" x1="1930.8223" y1="1620.7239" x2="2236.8796" y2="1620.7239" gradientTransform="matrix(0.7071 -0.7071 0.7071 0.7071 -2539.7561 386.6261)">
			<stop  offset="0.1107" style="stop-color:#6E4930"/>
			<stop  offset="0.3162" style="stop-color:#A88355"/>
			<stop  offset="0.4074" style="stop-color:#9E7A4E"/>
			<stop  offset="0.5359" style="stop-color:#896640"/>
			<stop  offset="0.7152" style="stop-color:#F6CC8B"/>
			<stop  offset="0.9027" style="stop-color:#A46B3D"/>
			<stop  offset="1" style="stop-color:#6E4930"/>
		</linearGradient>
		<path class="st1" d="M5.1,5.1l0,108.8l148.5,0V5.1L5.1,5.1z M6.8,112.3V6.8h145.1l0,105.5L6.8,112.3z"/>
	</g>
	<g>
		<g>
			<path class="st2" d="M35.8,101.1V87.5h7.1v1.7h-5v4.2h4.6v1.7h-4.6v6H35.8z"/>
			<path class="st2" d="M51.3,93.8c1.4,0.4,2.7,1.5,2.7,3.4c0,1.4-0.7,2.3-1.2,2.7c-0.9,0.9-2.4,1.3-4.6,1.3c-1.2,0-2.1-0.1-2.7-0.2
				V87.7c0.8-0.2,2-0.3,3.2-0.3c4.1,0,4.8,2,4.8,3.4C53.6,92.1,52.7,93.2,51.3,93.8L51.3,93.8z M48.8,93.2c1.6,0,2.7-0.9,2.7-2.2
				c0-1.6-1.3-2-2.6-2c-0.7,0-1.1,0.1-1.3,0.1v4.1H48.8z M47.6,99.6c0.3,0.1,0.7,0.1,1.2,0.1c1.7,0,3.1-0.7,3.1-2.5
				c0-1.8-1.5-2.5-3.1-2.5h-1.2V99.6z"/>
			<path class="st2" d="M58.7,96.8c0,0.2-0.2,0.2-0.4,0.2c-0.2,1.5-0.6,3.2-1.1,4.2c-0.3-0.2-0.9-0.4-1.2-0.6c0.5-1,0.8-2.7,1-4.2
				L58.7,96.8z M62.1,96.1c-0.1-0.3-0.2-0.6-0.3-1l-1.2,0.1v7.4H59v-7.4c-0.9,0-1.7,0.1-2.3,0.1c0,0.2-0.2,0.2-0.3,0.2L56,93.9
				l1.2,0c0.3-0.4,0.7-0.9,1-1.4c-0.5-0.8-1.4-1.8-2.2-2.5l0.8-1.1c0.2,0.1,0.3,0.3,0.5,0.4c0.6-1,1.2-2.3,1.5-3.3l1.7,0.7
				c-0.1,0.1-0.2,0.2-0.4,0.2c-0.4,1-1.2,2.4-1.9,3.4c0.3,0.3,0.6,0.7,0.8,1c0.7-1.1,1.3-2.2,1.8-3.1l1.7,0.8
				C62.6,89,62.4,89,62.2,89c-0.9,1.4-2.2,3.4-3.4,4.9l2.4,0c-0.3-0.6-0.6-1.1-0.9-1.6l1.2-0.5c0.8,1.2,1.5,2.7,1.8,3.7L62.1,96.1z
				 M62.1,96.4c0.5,1,0.9,2.3,1.1,3.1c-0.4,0.1-0.7,0.3-1.3,0.5c-0.2-0.9-0.6-2.2-1-3.2L62.1,96.4z M65.9,95.7l0.9,0.4
				c0,0.1-0.1,0.2-0.2,0.2c-0.6,2.8-1.9,4.8-3.7,5.8c-0.2-0.3-0.7-0.9-1-1.2c1.4-0.7,2.5-2,3.1-3.8h-2.2v-1.4h2.8L65.9,95.7z
				 M68.5,94.3c0,0.6,0.6,2,0.9,2.7c0.7-0.6,1.5-1.4,2-2c1.3,1.1,1.4,1.1,1.5,1.2c-0.1,0.1-0.2,0.1-0.5,0.1
				c-0.6,0.6-1.6,1.3-2.4,1.9c0.7,1,1.7,2,3,2.6c-0.3,0.3-0.8,0.9-1,1.3c-1.7-0.9-2.8-2.4-3.6-4v2.9c0,1.5-0.5,1.7-3,1.7
				c-0.1-0.4-0.2-1-0.4-1.5c0.4,0,0.7,0,1,0c0.9,0,0.9,0,0.9-0.3v-6.6h-3.4v-6.5h2.7c0.3-0.6,0.6-1.3,0.7-1.8l2.1,0.5
				c-0.1,0.1-0.2,0.2-0.4,0.2c-0.2,0.3-0.4,0.7-0.6,1.2h4.1v6.5H68.5z M65.1,89.2v1.3h5.4v-1.3H65.1z M65.1,91.7V93h5.4v-1.3H65.1z"
				/>
			<path class="st2" d="M83.6,100.1h7.8v1.7H75.2v-1.7h6.6V86.3l2.2,0.1c0,0.2-0.1,0.3-0.4,0.3v4.9h6.5v1.7h-6.5V100.1z"/>
			<path class="st2" d="M99.5,89v1.3h-6.2V89H99.5z M99,96.3v5.3h-3.6v0.8H94v-6.1H99z M98.9,91.5v1.3H94v-1.3H98.9z M94,95.2v-1.3
				h4.9v1.3H94z M98.9,86.6v1.3h-4.7v-1.3H98.9z M97.6,97.7h-2.2v2.6h2.2V97.7z M99.2,92.6c0.9-0.4,2.1-1,3.4-1.6l0.4,1.2
				c-1,0.6-2.1,1.2-2.8,1.5c0,0.1-0.1,0.3-0.2,0.3L99.2,92.6z M100.6,86.5c0.8,0.6,1.7,1.5,2.1,2.1l-1.1,0.9c-0.4-0.6-1.2-1.6-2-2.2
				L100.6,86.5z M100.8,102.7v-6.9h7.8v6.8H107v-0.8h-4.6v0.9H100.8z M106.8,89.2v1c0,0.8,0.4,2.9,3.4,3.9c-0.3,0.3-0.7,0.9-0.9,1.3
				c-2.1-0.7-3-2.5-3.3-3.3c-0.2,0.9-1.3,2.5-3.6,3.3c-0.2-0.3-0.6-0.9-0.8-1.2c3.2-1.1,3.6-3.2,3.6-4v-1h-0.7
				c-0.4,0.8-0.8,1.5-1.2,2.1c-0.3-0.2-0.8-0.6-1.2-0.8c0.9-1,1.6-2.8,2-4.5l1.8,0.5c0,0.1-0.2,0.2-0.4,0.2
				c-0.1,0.4-0.2,0.8-0.4,1.2h4.2l0.8,0.1c0,0.4-0.6,2.5-1,3.3l-1.2-0.3c0.2-0.4,0.3-1.1,0.5-1.7H106.8z M107,97.3h-4.6v3h4.6V97.3z
				"/>
			<path class="st2" d="M118.4,89v1.3H112V89H118.4z M117.9,96.3v5.3h-3.8v0.8h-1.4v-6.1H117.9z M127.3,88.9l0.9,0
				c0,0.1,0,0.4,0,0.6c-0.1,8.6-0.3,11.4-0.9,12.3c-0.6,0.8-1.2,0.9-2.6,0.9c-0.5,0-1,0-1.6-0.1c0-0.4-0.2-1.2-0.5-1.6
				c1.1,0.1,2.1,0.1,2.6,0.1c0.3,0,0.5-0.1,0.7-0.3c0.5-0.6,0.7-3.3,0.8-10.4H121c-0.3,0.6-0.6,1.2-0.9,1.8h4.9V99h-3.8v0.9h-1.4
				v-7.2c-0.3,0.4-0.5,0.8-0.8,1.1c-0.2-0.3-0.7-0.7-1.1-1h-5v-1.3h5.1v0.9c1.2-1.5,2.3-4,2.9-6.4l2,0.6c-0.1,0.2-0.2,0.2-0.4,0.2
				c-0.2,0.7-0.4,1.4-0.7,2.1H127.3z M117.9,93.9v1.3h-5.1v-1.3H117.9z M117.9,86.6v1.3h-5v-1.3H117.9z M116.5,97.7h-2.4v2.6h2.4
				V97.7z M123.5,93.5h-2.4v1.4h2.4V93.5z M121.2,97.7h2.4v-1.5h-2.4V97.7z"/>
		</g>
	</g>
	<linearGradient id="SVGID_2_" gradientUnits="userSpaceOnUse" x1="64.5931" y1="24.0776" x2="99.4117" y2="81.2795">
		<stop  offset="0" style="stop-color:#DBA04C"/>
		<stop  offset="0.1" style="stop-color:#A86F42"/>
		<stop  offset="0.48" style="stop-color:#ECE7A9"/>
		<stop  offset="1" style="stop-color:#BA8D6D"/>
	</linearGradient>
	<path class="st3" d="M71.6,40.3c0-9.9,6.2-14.7,13.6-14.7c2.5,0,4.4,0.3,5.9,0.8l-0.7,8.5c-0.9-0.3-1.9-0.4-3.2-0.4
		c-4.6,0-4.6,4.5-4.6,7.1h6.5v8h-6.5V77H71.6V49.5h-4.7v-8h4.7V40.3z"/>
	<g>
		<linearGradient id="SVGID_3_" gradientUnits="userSpaceOnUse" x1="69.9076" y1="23.2702" x2="106.0693" y2="82.6787">
			<stop  offset="0" style="stop-color:#DBA04C"/>
			<stop  offset="0.1" style="stop-color:#A86F42"/>
			<stop  offset="0.48" style="stop-color:#ECE7A9"/>
			<stop  offset="1" style="stop-color:#BA8D6D"/>
		</linearGradient>
		<path class="st4" d="M96.5,71.9c0-1.5,1.4-2.7,3-2.7c1.6,0,3,1.1,3,2.7c0,1.5-1.4,2.7-3,2.7C97.9,74.5,96.5,73.4,96.5,71.9z
			 M98.2,70.8c-0.3,0.3-0.5,0.6-0.5,1c0,0.4,0.2,0.7,0.5,1c0.3,0.3,0.8,0.5,1.3,0.5s1-0.2,1.3-0.5c0.3-0.3,0.5-0.6,0.5-1
			c0-0.4-0.2-0.7-0.5-1c-0.3-0.3-0.8-0.5-1.3-0.5S98.5,70.6,98.2,70.8z"/>
		<g>
			<linearGradient id="SVGID_4_" gradientUnits="userSpaceOnUse" x1="77.3945" y1="18.7225" x2="113.5495" y2="78.12">
				<stop  offset="0" style="stop-color:#DBA04C"/>
				<stop  offset="0.1" style="stop-color:#A86F42"/>
				<stop  offset="0.48" style="stop-color:#ECE7A9"/>
				<stop  offset="1" style="stop-color:#BA8D6D"/>
			</linearGradient>
			<path class="st5" d="M102.5,69.4c-3.2-0.2-6-1-8.1-2.3c-2.1-1.3-3.5-3.1-3.5-5.2c0-2,1.4-3.8,3.4-5.1c2-1.3,4.7-2.1,7.8-2.3
				c1.3-1.1,2.9-1.8,4.6-1.8c2.7,0,5.1,1.7,6.5,4.1c2,1.3,3.4,3,3.4,5.1c0,2.1-1.5,4-3.7,5.3c-1.4,2.2-3.6,3.6-6.2,3.6
				C105.1,70.8,103.7,70.3,102.5,69.4z M102.7,55.5l-0.2,0.1l-0.2,0c-3,0.2-5.6,1-7.4,2.1c-1.9,1.2-2.9,2.6-2.9,4.1
				c0,1.5,1.1,3,3,4.2c1.9,1.2,4.6,2,7.7,2.1l0.2,0l0.1,0.1c1,0.8,2.3,1.3,3.6,1.3c2.1,0,4-1.2,5.3-3.2l0.1-0.1l0.1-0.1
				c2.1-1.2,3.2-2.7,3.2-4.3c0-1.5-1-3-2.9-4.2l-0.1-0.1l-0.1-0.1c-1.2-2.2-3.2-3.6-5.5-3.6C105.2,53.9,103.8,54.5,102.7,55.5z"/>
			<linearGradient id="SVGID_5_" gradientUnits="userSpaceOnUse" x1="68.7667" y1="23.9568" x2="104.9325" y2="83.3721">
				<stop  offset="0" style="stop-color:#DBA04C"/>
				<stop  offset="0.1" style="stop-color:#A86F42"/>
				<stop  offset="0.48" style="stop-color:#ECE7A9"/>
				<stop  offset="1" style="stop-color:#BA8D6D"/>
			</linearGradient>
			<path class="st6" d="M98.5,76.5c0-1.2,1-2.1,2.2-2.1c1.2,0,2.2,0.9,2.2,2.1c0,1.2-1,2.1-2.2,2.1C99.5,78.5,98.5,77.7,98.5,76.5z
				 M99.7,76.5c0,0.5,0.4,0.9,1,0.9c0.6,0,1-0.5,1-0.9c0-0.5-0.4-0.9-1-0.9C100.1,75.5,99.7,76,99.7,76.5z"/>
			<linearGradient id="SVGID_6_" gradientUnits="userSpaceOnUse" x1="78.7918" y1="17.8871" x2="114.9363" y2="77.2674">
				<stop  offset="0" style="stop-color:#DBA04C"/>
				<stop  offset="0.1" style="stop-color:#A86F42"/>
				<stop  offset="0.48" style="stop-color:#ECE7A9"/>
				<stop  offset="1" style="stop-color:#BA8D6D"/>
			</linearGradient>
			<path class="st7" d="M98.6,61.2c-0.4,0-0.8-0.3-0.8-0.8c0-0.4,0.3-0.8,0.8-0.8h12.2c0.4,0,0.8,0.3,0.8,0.8c0,0.4-0.3,0.8-0.8,0.8
				H98.6z"/>
			<linearGradient id="SVGID_7_" gradientUnits="userSpaceOnUse" x1="77.5696" y1="18.6289" x2="113.7162" y2="78.0127">
				<stop  offset="0" style="stop-color:#DBA04C"/>
				<stop  offset="0.1" style="stop-color:#A86F42"/>
				<stop  offset="0.48" style="stop-color:#ECE7A9"/>
				<stop  offset="1" style="stop-color:#BA8D6D"/>
			</linearGradient>
			<path class="st8" d="M98.6,63.9c-0.4,0-0.8-0.3-0.8-0.8c0-0.4,0.3-0.8,0.8-0.8h12.2c0.4,0,0.8,0.3,0.8,0.8c0,0.4-0.3,0.8-0.8,0.8
				H98.6z"/>
		</g>
	</g>
</g>
</svg>
