<?xml version="1.0" encoding="utf-8"?>
<!-- Generator: Adobe Illustrator 25.2.3, SVG Export Plug-In . SVG Version: 6.00 Build 0)  -->
<svg version="1.1" id="nav4.svg" xmlns="http://www.w3.org/2000/svg" xmlns:xlink="http://www.w3.org/1999/xlink" x="0px" y="0px"
	 viewBox="0 0 158.7 119.1" style="enable-background:new 0 0 158.7 119.1;" xml:space="preserve">
<style type="text/css">
	.st0{fill:#000D43;}
	.st1{fill:url(#SVGID_1_);}
	.st2{fill:#FFFFFF;}
	.st3{fill:url(#SVGID_2_);}
	.st4{fill:url(#SVGID_3_);}
	.st5{fill:url(#SVGID_4_);}
	.st6{fill:url(#SVGID_5_);}
	.st7{fill:url(#SVGID_6_);}
</style>
<g>
	<g>
		<rect x="0" y="0" class="st0" width="158.7" height="119.1"/>
		
			<linearGradient id="SVGID_1_" gradientUnits="userSpaceOnUse" x1="1930.8229" y1="1620.7246" x2="2236.8809" y2="1620.7246" gradientTransform="matrix(0.7071 -0.7071 0.7071 0.7071 -2539.7561 386.6261)">
			<stop  offset="0.1107" style="stop-color:#6E4930"/>
			<stop  offset="0.3162" style="stop-color:#A88355"/>
			<stop  offset="0.4074" style="stop-color:#9E7A4E"/>
			<stop  offset="0.5359" style="stop-color:#896640"/>
			<stop  offset="0.7152" style="stop-color:#F6CC8B"/>
			<stop  offset="0.9027" style="stop-color:#A46B3D"/>
			<stop  offset="1" style="stop-color:#6E4930"/>
		</linearGradient>
		<path class="st1" d="M5.1,5.1V114l148.5,0V5.1L5.1,5.1z M6.8,112.3V6.8h145.1l0,105.5L6.8,112.3z"/>
	</g>
	<g>
		<g>
			<path class="st2" d="M52.9,92.6l0.9,0.1l-0.1,0.3c-0.4,1.4-0.9,3.1-1.4,4.1c-1.1-0.4-1.2-0.4-1.2-0.5c0.2-0.7,0.6-1.6,0.8-2.5
				h-1.5v6.7c0,1.7-0.7,1.8-3.4,1.8c-0.1-0.5-0.3-1.2-0.5-1.6c2.3,0.1,2.3,0,2.3-0.3v-6.7h-2.8v-1.5h4.2c-0.9-0.8-2.3-1.7-3.4-2.3
				l0.9-1.1c0.6,0.3,1.2,0.6,1.8,1c0.5-0.5,1.1-1.2,1.5-1.8h-4.6v-1.5H52l0.3-0.1l1,0.6v-0.6h9.2v1.4h-3.9c-0.1,0.4-0.2,1-0.4,1.5
				h3.6v9.4H54v-9.4h2.6c0.1-0.5,0.2-1,0.3-1.5h-3.6v-0.6l-0.2,0.1c-0.6,1-1.7,2.3-2.6,3.3c0.5,0.4,1,0.7,1.3,1l-0.4,0.6H52.9z
				 M57.3,100.3c-0.1,0.1-0.2,0.1-0.3,0.1c-0.8,0.8-2.4,1.8-3.9,2.3c-0.3-0.3-0.8-0.8-1.1-1.1c1.4-0.5,3-1.5,3.8-2.2L57.3,100.3z
				 M60.3,92.5V91h-4.7v1.5H60.3z M60.3,95.2v-1.5h-4.7v1.5H60.3z M60.3,97.9v-1.5h-4.7v1.5H60.3z M61.5,102.7
				c-0.6-0.7-2-1.7-3.1-2.4l1.3-0.9c1,0.6,2.4,1.6,3.1,2.3L61.5,102.7z"/>
			<path class="st2" d="M67.3,96.8C67.3,97,67.2,97,67,97c-0.2,1.5-0.7,3.2-1.3,4.3c-0.3-0.2-0.9-0.5-1.3-0.6c0.6-1,0.9-2.7,1.2-4.2
				L67.3,96.8z M71.6,88.9C71.5,89,71.3,89,71.1,89c-0.9,1.5-2.4,3.4-3.7,4.9l2.9-0.1c-0.3-0.5-0.6-1-1-1.5c0.5-0.3,0.9-0.4,1.2-0.6
				c0.9,1.1,1.8,2.6,2.1,3.7c-0.6,0.3-0.9,0.5-1.3,0.7c-0.1-0.3-0.2-0.6-0.4-1l-1.7,0.1v7.4h-1.6v-7.4c-1,0.1-1.9,0.1-2.6,0.1
				c0,0.2-0.2,0.2-0.3,0.2l-0.4-1.7l1.3,0c0.4-0.4,0.8-0.9,1.1-1.4c-0.6-0.8-1.5-1.7-2.3-2.4l0.8-1.1c0.1,0.1,0.3,0.2,0.5,0.4
				c0.7-1,1.4-2.4,1.8-3.4l1.7,0.7c-0.1,0.1-0.3,0.2-0.4,0.2c-0.5,1-1.4,2.4-2.1,3.4c0.4,0.4,0.7,0.7,1,1c0.8-1.1,1.5-2.3,2.1-3.3
				L71.6,88.9z M71,100.4c-0.2-1-0.7-2.5-1.2-3.6l1.3-0.4c0.5,1.1,1.1,2.6,1.3,3.5L71,100.4z M79.9,89.3l0.9,0.1c0,0.1,0,0.4,0,0.6
				c-0.2,8.2-0.5,10.9-1.2,11.8c-0.6,0.7-1.1,0.9-2.7,0.9c-0.5,0-1.1,0-1.7-0.1c0-0.5-0.2-1.2-0.5-1.6c1.2,0.1,2.2,0.1,2.7,0.1
				c0.4,0,0.6-0.1,0.8-0.3c0.5-0.6,0.8-3.3,1-9.9h-5c-0.4,1-1,1.9-1.5,2.7c-0.3-0.3-1-0.7-1.4-0.9c1.2-1.5,2.1-4.1,2.7-6.6l2,0.5
				c-0.1,0.1-0.2,0.2-0.4,0.2c-0.2,0.9-0.5,1.7-0.8,2.6h4.8L79.9,89.3z M74.5,93.3c1,1.2,2,2.9,2.4,4.1l-1.5,0.8
				c-0.4-1.1-1.4-2.9-2.3-4.2L74.5,93.3z"/>
			<path class="st2" d="M90,101c-0.1,0.1-0.2,0.1-0.4,0.1c-1.3,0.7-3.5,1.3-5.3,1.6c-0.3-0.4-0.8-0.9-1.2-1.2c1.8-0.2,4-0.7,5.1-1.3
				L90,101z M85.2,89.2v2.1h-1.6V88h2.8c-0.3-0.5-0.7-1-1.1-1.4l1.5-0.4c0.5,0.5,1.1,1.2,1.3,1.7L87.7,88h2.4v-2l2.1,0.1
				c0,0.2-0.1,0.2-0.4,0.3V88h2.4l-0.1-0.1c0.5-0.5,1-1.3,1.4-1.9l1.9,0.6c-0.1,0.1-0.2,0.2-0.4,0.2c-0.3,0.3-0.7,0.8-1,1.1h2.8v3.3
				H97v-2.1H85.2z M93.7,100.1L93.7,100.1c1.9,0.5,4,1.1,5.3,1.6l-1.7,0.9c-1.1-0.5-3.1-1.1-5-1.6l1.2-0.9h-8.1v-6.3H97v6.3H93.7z
				 M95.9,93h-9.5v-3h9.5V93z M87,94.8v0.8h8.4v-0.8H87z M87,96.5v0.9h8.4v-0.9H87z M87,98.3v0.9h8.4v-0.9H87z M88,91v1h6.3v-1H88z"
				/>
			<path class="st2" d="M111.7,100.7h5.9v1.3h-13.3v-1.3h5.7v-1.5h-4.3v-1.3h4.3v-1.2c-1.6,0.1-3.1,0.1-4.2,0.1
				c0,0.1-0.2,0.2-0.3,0.2l-0.5-1.6l2,0c0.4-0.5,0.8-1.2,1.1-1.8h-3.3c-0.1,2.9-0.5,6.5-2.1,9c-0.3-0.3-1.1-0.7-1.5-0.9
				c1.8-2.8,1.9-6.9,1.9-9.8v-5.1h13.3v4.4h-11.6v1h12.4v1.3h-3.6c1.2,0.8,2.7,2,3.4,2.8l-1.4,0.9c-0.2-0.2-0.5-0.5-0.8-0.8
				c-1,0-1.9,0.1-2.9,0.1c-0.1,0.1-0.2,0.1-0.3,0.1v1.2h4.4v1.3h-4.4V100.7z M114.8,88.3h-9.9v1.6h9.9V88.3z M113.1,93.6h-3.1
				c-0.3,0.6-0.8,1.2-1.2,1.8c1.5,0,3.1-0.1,4.7-0.1c-0.5-0.4-1-0.7-1.4-1.1L113.1,93.6z"/>
		</g>
	</g>
	<g>
		<linearGradient id="SVGID_2_" gradientUnits="userSpaceOnUse" x1="60.5914" y1="13.7776" x2="112.9147" y2="88.647">
			<stop  offset="0" style="stop-color:#DBA04C"/>
			<stop  offset="0.1" style="stop-color:#A86F42"/>
			<stop  offset="0.48" style="stop-color:#ECE7A9"/>
			<stop  offset="1" style="stop-color:#BA8D6D"/>
		</linearGradient>
		<path class="st3" d="M67.2,43.8c0,1,0.8,1.9,1.9,1.9h25.1c1,0,1.9-0.8,1.9-1.9c0-1-0.8-1.9-1.9-1.9H69C68,42,67.2,42.8,67.2,43.8z
			"/>
		<linearGradient id="SVGID_3_" gradientUnits="userSpaceOnUse" x1="57.1424" y1="16.1941" x2="109.4639" y2="91.061">
			<stop  offset="0" style="stop-color:#DBA04C"/>
			<stop  offset="0.1" style="stop-color:#A86F42"/>
			<stop  offset="0.48" style="stop-color:#ECE7A9"/>
			<stop  offset="1" style="stop-color:#BA8D6D"/>
		</linearGradient>
		<path class="st4" d="M94.1,49.3H69c-1,0-1.9,0.8-1.9,1.9c0,1,0.8,1.9,1.9,1.9h25.1c1,0,1.9-0.8,1.9-1.9
			C96,50.1,95.2,49.3,94.1,49.3z"/>
		<linearGradient id="SVGID_4_" gradientUnits="userSpaceOnUse" x1="53.6952" y1="18.6118" x2="106.0127" y2="93.473">
			<stop  offset="0" style="stop-color:#DBA04C"/>
			<stop  offset="0.1" style="stop-color:#A86F42"/>
			<stop  offset="0.48" style="stop-color:#ECE7A9"/>
			<stop  offset="1" style="stop-color:#BA8D6D"/>
		</linearGradient>
		<path class="st5" d="M94.1,56.7H69c-1,0-1.9,0.8-1.9,1.9c0,1,0.8,1.9,1.9,1.9h25.1c1,0,1.9-0.8,1.9-1.9
			C96,57.5,95.2,56.7,94.1,56.7z"/>
		<linearGradient id="SVGID_5_" gradientUnits="userSpaceOnUse" x1="46.1475" y1="23.8864" x2="98.4685" y2="98.7525">
			<stop  offset="0" style="stop-color:#DBA04C"/>
			<stop  offset="0.1" style="stop-color:#A86F42"/>
			<stop  offset="0.48" style="stop-color:#ECE7A9"/>
			<stop  offset="1" style="stop-color:#BA8D6D"/>
		</linearGradient>
		<path class="st6" d="M82,64H69c-1,0-1.9,0.8-1.9,1.9c0,1,0.8,1.9,1.9,1.9H82c1,0,1.9-0.8,1.9-1.9C83.8,64.8,83,64,82,64z"/>
		<linearGradient id="SVGID_6_" gradientUnits="userSpaceOnUse" x1="54.4595" y1="18.051" x2="106.798" y2="92.942">
			<stop  offset="0" style="stop-color:#DBA04C"/>
			<stop  offset="0.1" style="stop-color:#A86F42"/>
			<stop  offset="0.48" style="stop-color:#ECE7A9"/>
			<stop  offset="1" style="stop-color:#BA8D6D"/>
		</linearGradient>
		<path class="st7" d="M88.4,26.5H64.6c-1.6,0-2.8,1.3-2.8,2.8v44c0,1.6,1.3,2.8,2.8,2.8h34.1c1.6,0,2.8-1.3,2.8-2.8V39.6L88.4,26.5
			z M97.7,72.4H65.5V30.2h21.2v4.4H69c-1,0-1.9,0.8-1.9,1.9s0.8,1.9,1.9,1.9h17.7v1.7h11V72.4z"/>
	</g>
</g>
</svg>
