<?xml version="1.0" encoding="utf-8"?>
<!-- Generator: Adobe Illustrator 25.2.3, SVG Export Plug-In . SVG Version: 6.00 Build 0)  -->
<svg version="1.1" id="ribbon.svg" xmlns="http://www.w3.org/2000/svg" xmlns:xlink="http://www.w3.org/1999/xlink" x="0px" y="0px"
	 viewBox="0 0 65 256" style="enable-background:new 0 0 65 256;" xml:space="preserve">
<style type="text/css">
	.st0{fill:url(#SVGID_1_);}
	.st1{fill:#FFFFFF;}
	.st2{fill:#F7B52C;}
</style>
<g>
	<g>
		<linearGradient id="SVGID_1_" gradientUnits="userSpaceOnUse" x1="32.5" y1="256.7736" x2="32.5" y2="1.1773">
			<stop  offset="3.067480e-02" style="stop-color:#B7282C"/>
			<stop  offset="0.189" style="stop-color:#821B1F"/>
			<stop  offset="0.6098" style="stop-color:#DD2526"/>
			<stop  offset="0.7988" style="stop-color:#F0979E"/>
			<stop  offset="1" style="stop-color:#DD2526"/>
		</linearGradient>
		<polygon class="st0" points="64.8,255.9 32.5,235.9 0.2,255.9 0.2,0.9 64.8,0.9 		"/>
	</g>
	<g>
		<path class="st1" d="M30.1,45.1c-1.9,2.8-3.2,4.5-5.4,6.7c-2.2,2.2-3.8,3.5-7.1,5.5c-1.7-2.2-2.9-3.5-4.9-5.4
			c2.7-1.4,4.4-2.5,6.5-4.3c2.2-1.9,3.2-3.1,4.6-5.5L30.1,45.1z M17,23.6c0-1.6,0-2.8-0.2-4c1.2,0.1,2.4,0.2,4.7,0.2h22
			c2.3,0,3.6,0,4.8-0.2c-0.1,1.1-0.2,2.1-0.2,3.9v14.1c0,1.9,0,3.1,0.2,4.1c-1.5-0.1-2.4-0.2-4.2-0.2h-23c-1.7,0-2.9,0-4.2,0.2
			c0.1-1.2,0.2-2.3,0.2-4.1V23.6z M23.6,26v9.6h17.9V26H23.6z M40.6,42.1c1.6,2.4,2.9,3.8,5.4,5.8c1.9,1.5,3.6,2.6,6.2,3.8
			c-2.1,2.2-3.3,3.6-4.7,5.7c-3-1.7-5.1-3.3-7.6-6c-2.1-2.2-3.3-3.7-5.1-6.4L40.6,42.1z"/>
		<path class="st1" d="M21.5,89.5c-1.9,0-3,0-4.5,0.2c0.1-1.4,0.2-2.7,0.2-5.1v-9.2c0-2.3,0-3.8-0.2-5c1.2,0.1,2.2,0.1,4.1,0.1h22.5
			c2.3,0,3.3,0,4.5-0.1c-0.1,1.2-0.2,2.6-0.2,5v9.5c0,2.5,0,3.8,0.2,4.8c-1.3-0.1-2.4-0.2-4.4-0.2h-2.2c3.2,1.3,6.3,1.8,11.2,2.1
			c-1.2,1.8-1.7,2.8-2.9,5.5c-3.9-0.5-6.1-1.1-9.1-2.2c-2.6-1-4.1-1.7-6.2-3l2.8-2.4H27l3,2.4c-2.1,1.5-3.7,2.2-6.6,3.3
			c-2.7,1-4.6,1.5-7.6,2c-0.9-2-1.6-3.3-3.2-5.3c4.7-0.5,7.6-1.2,10.4-2.4H21.5z M50.4,65.8c0,1.9,0,2.8,0.2,3.8
			c-1-0.1-2-0.1-4.2-0.1H18.5c-2.1,0-3.3,0-4.2,0.1c0.2-1.2,0.2-1.9,0.2-3.8v-3.5c0-1.9,0-2.7-0.2-4c1.1,0.1,2.3,0.2,4.7,0.2h26.7
			c2.4,0,3.7,0,4.7-0.2c-0.2,1.2-0.2,2-0.2,4V65.8z M24.6,63h-4v1.8h4V63z M23.3,76.1h18.4v-1.2H23.3V76.1z M23.3,80.6h18.4v-1.2
			H23.3V80.6z M23.3,85.2h18.4v-1.3H23.3V85.2z M34.3,63h-4v1.8h4V63z M44.1,64.9V63H40v1.8H44.1z"/>
		<path class="st1" d="M16.9,116.5c-1.6,0-2.5,0.1-3.7,0.2v-5.1c1.2,0.2,2.4,0.2,4.8,0.2h28.9c2.4,0,3.5,0,4.7-0.2v5.1
			c-1.4-0.2-2.5-0.2-4.9-0.2H32.9v13.8c1.6-0.6,2.3-1,3.6-1.7c-1.1-1.2-1.7-2-2.9-4.1l4.3-1.8h-0.7c-1.5,0-2.4,0-3.3,0.2v-5.3
			c1,0.1,1.8,0.2,3.5,0.2h7.2c1.3,0,2.4,0,3.1-0.2l2.9,3.2c-0.2,0.4-0.2,0.4-1,1.9c-1.2,2.2-2.5,4-4.1,5.9c2.1,0.9,3.7,1.3,6.8,1.9
			c-1.2,2-1.9,3.4-2.7,5.9c-4-1.3-6.2-2.3-8.5-3.8c-2,1.5-3.4,2.3-6.3,3.6c-0.6-1.6-1-2.3-1.8-3.7c0,1.6,0.1,2.7,0.2,3.8h-6.4
			c0.1-1,0.2-1.8,0.2-3.9c-3.4,0.7-4.5,0.8-11,1.8c-0.6,0.1-1,0.2-1.8,0.4l-1.2-6.1c0.4,0,0.6,0,0.8,0c0.5,0,1.2,0,3.1-0.2V116.5z
			 M47.7,106.8c0,1.8,0,2.8,0.2,3.8c-0.4,0-1.5,0-3.4-0.1H21.3c-1.9,0-2.9,0-4.1,0.1c0.1-1.1,0.2-2.1,0.2-3.9v-5
			c0-1.8,0-2.8-0.2-3.9c1.4,0.1,2.4,0.2,4.4,0.2h21.9c2,0,3,0,4.4-0.2c-0.1,1-0.2,2-0.2,3.9V106.8z M22.7,117.8H27v-1.3h-4.2V117.8z
			 M22.7,122.6H27v-1.5h-4.2V122.6z M22.7,127.8c0.8-0.1,2.2-0.2,4.2-0.5V126h-4.2V127.8z M23.4,103.1h18.1v-1.2H23.4V103.1z
			 M23.4,107.2h18.1V106H23.4V107.2z M38.6,122.7c0.9,1.4,1.2,1.8,2.1,2.8c1-1,1.5-1.5,2.3-2.8H38.6z"/>
		<path class="st1" d="M28.5,172.5c-2-2-2.6-2.6-4.1-3.9c-2.1,2.9-4.4,5.1-7.7,7.3c-1.2-2.1-2.2-3.4-4-5.5c3.1-1.9,4.9-3.5,6.8-5.8
			c-2.2-1.7-3.2-2.3-6.1-4.1c1.5-3.7,2.4-6.6,3.3-10.9h-0.8c-0.9,0-1.7,0-2.6,0.2v-6.1c1.1,0.2,2.1,0.2,3.7,0.2h0.7
			c0.3-2.6,0.7-5.8,0.7-6.8v-0.3c0,0,0-0.1,0-0.2c0,0,0-0.1,0-0.2l6.8,0.5c-0.1,0.5-0.1,0.5-0.7,5c-0.1,0.8-0.2,1.3-0.3,2h3.7
			c1.3,0,2.2,0,3.2-0.1c0,1.3,0,1.3-0.1,3.2c-0.2,6-1.4,11.6-3.2,15.9c1.9,1.5,2.6,2.1,4.6,3.9L28.5,172.5z M22.6,159.2
			c1.1-2.8,1.6-4.9,2.2-9.5h-2c-0.5,2.3-1.2,5.1-2.2,8.2L22.6,159.2z M37.8,152.4c0-1.7,0-2.6-0.2-3.9h2.2c1-1,2.2-2.6,3.2-4.2h-6.3
			c-1.9,0-3.2,0-4.9,0.2v-6.6c1.1,0.2,2.7,0.2,5,0.2h8.1c2.2,0,3,0,4-0.2l3,3.9c-0.3,0.4-0.5,0.6-0.9,1.2c-3,4.6-4.3,6.3-6.6,8.7
			v1.9h3.3c1.8,0,3.2-0.1,4.5-0.2v6.6c-1.5-0.2-2.8-0.2-4.5-0.2h-3.3v10.5c0,4.3-1.4,5.3-7.1,5.3c-1.1,0-2.4,0-3.7-0.1
			c-0.4-2.7-0.7-4-1.7-6.5c1.9,0.2,3.1,0.4,4.2,0.4c1.5,0,1.7-0.1,1.7-0.8v-8.8h-2.7c-1.6,0-3.1,0.1-4.7,0.2v-6.5
			c1,0.1,2.2,0.2,4.5,0.2h2.9V152.4z"/>
		<path class="st1" d="M37,204.9c-1.2-4.3-2.5-7.4-4.4-10.5c-0.2,0.2-0.3,0.4-0.7,0.7c-1-1.1-1.2-1.4-2-2.1v16c0,1.4,0,2.6,0.1,3.9
			h-6v-2.3h-3.9v3.7H14c0.2-1.3,0.2-3.1,0.2-5.7v-22.2c0-2.6,0-3.3-0.2-4.5c1.1,0.1,1.4,0.1,3.6,0.1h0.9c0.9-2.2,1.3-3.6,1.7-5.8
			l6.6,0.8c-1.2,2.9-1.2,2.9-2.1,5h1.9c1.4,0,2.5,0,3.5-0.1c0,0.4,0,0.4-0.1,1.3c0,0,0,0.9,0,2.2v2.3c1.7-2.3,3.4-5.7,4.3-8.6
			c0.4-1.1,0.6-2,0.7-2.9l6.6,1c-0.2,0.4-0.5,1.2-0.7,2c-0.3,1.1-0.5,1.5-0.8,2.4h7.6c1.7,0,2.7,0,3.5-0.2c-0.2,1.2-0.2,1.7-0.2,2.8
			c0,1.6,0,2.6-0.3,13.1c-0.1,4.7-0.6,9.7-1.1,12.1c-0.7,3.1-1.5,4.3-3.2,5.1c-1.2,0.5-3.6,0.9-6.1,0.9c-0.8,0-1.7,0-3.1,0
			c-0.3-2.6-0.6-4-1.6-6.5c2.4,0.3,3.6,0.4,4.8,0.4c2,0,2.6-0.3,3-1.5c0.7-2.2,1-7.9,1.1-19.8h-7.3c-1.5,2.7-2.8,4.6-4.4,6.4
			l5.3-2.3c2,3.5,3.4,6.4,4.9,10.4L37,204.9z M20.2,193.2h3.9v-5.5h-3.9V193.2z M20.2,204.9h3.9v-6.1h-3.9V204.9z"/>
	</g>
	<g>
		<polygon class="st2" points="32.9,226.1 30,227.6 30.5,224.4 28.2,222 31.5,221.6 32.9,218.6 34.4,221.6 37.7,222 35.3,224.4 
			35.9,227.6 		"/>
		<polygon class="st2" points="24.2,227.9 22.4,228.8 22.8,226.9 21.4,225.5 23.3,225.2 24.2,223.4 25.1,225.2 27,225.5 25.6,226.9 
			25.9,228.8 		"/>
		<polygon class="st2" points="18.3,229.7 17.1,230.4 17.3,229 16.3,228.1 17.7,227.9 18.3,226.7 18.9,227.9 20.2,228.1 19.2,229 
			19.5,230.4 		"/>
		<polygon class="st2" points="47.6,229.7 46.4,230.4 46.6,229 45.6,228.1 47,227.9 47.6,226.7 48.2,227.9 49.5,228.1 48.6,229 
			48.8,230.4 		"/>
		<polygon class="st2" points="41.7,227.9 39.9,228.8 40.2,226.9 38.8,225.5 40.8,225.2 41.7,223.4 42.5,225.2 44.5,225.5 
			43.1,226.9 43.4,228.8 		"/>
	</g>
</g>
</svg>
