<?xml version="1.0" encoding="utf-8"?>
<!-- Generator: Adobe Illustrator 25.2.3, SVG Export Plug-In . SVG Version: 6.00 Build 0)  -->
<svg version="1.1" id="section6_title.svg" xmlns="http://www.w3.org/2000/svg" xmlns:xlink="http://www.w3.org/1999/xlink" x="0px"
	 y="0px" viewBox="0 0 309 80" style="enable-background:new 0 0 309 80;" xml:space="preserve">
<style type="text/css">
	.繪圖樣式{fill:url(#SVGID_1_);}
	.st0{fill:url(#SVGID_2_);}
	.st1{fill:url(#SVGID_3_);}
	.st2{fill:url(#SVGID_4_);}
	.st3{fill:url(#SVGID_5_);}
	.st4{fill:url(#SVGID_6_);}
	.st5{fill:url(#SVGID_7_);}
	.st6{fill:url(#SVGID_8_);}
	.st7{fill:url(#SVGID_9_);}
	.st8{fill:url(#SVGID_10_);}
	.st9{fill:url(#SVGID_11_);}
	.st10{fill:#FFFFFF;}
</style>
<linearGradient id="SVGID_1_" gradientUnits="userSpaceOnUse" x1="0" y1="80" x2="0.8008" y2="80.599">
	<stop  offset="0" style="stop-color:#FAC859"/>
	<stop  offset="2.877487e-03" style="stop-color:#FACB64"/>
	<stop  offset="9.516122e-03" style="stop-color:#FBD176"/>
	<stop  offset="1.745736e-02" style="stop-color:#FCD582"/>
	<stop  offset="2.788930e-02" style="stop-color:#FCD78A"/>
	<stop  offset="5.042250e-02" style="stop-color:#FCD88C"/>
	<stop  offset="6.442444e-02" style="stop-color:#FCD681"/>
	<stop  offset="8.918270e-02" style="stop-color:#FBD163"/>
	<stop  offset="0.1216" style="stop-color:#FACA33"/>
	<stop  offset="0.1355" style="stop-color:#FAC61C"/>
	<stop  offset="0.1458" style="stop-color:#E6B417"/>
	<stop  offset="0.1638" style="stop-color:#C99B11"/>
	<stop  offset="0.184" style="stop-color:#B2860B"/>
	<stop  offset="0.207" style="stop-color:#9F7607"/>
	<stop  offset="0.2343" style="stop-color:#936A04"/>
	<stop  offset="0.2701" style="stop-color:#8B6402"/>
	<stop  offset="0.3475" style="stop-color:#896202"/>
	<stop  offset="0.6179" style="stop-color:#FAC859"/>
	<stop  offset="0.651" style="stop-color:#FACC64"/>
	<stop  offset="0.7093" style="stop-color:#FCD582"/>
	<stop  offset="0.7267" style="stop-color:#FCD88C"/>
	<stop  offset="0.7501" style="stop-color:#FCD481"/>
	<stop  offset="0.7914" style="stop-color:#FACB63"/>
	<stop  offset="0.8037" style="stop-color:#FAC859"/>
	<stop  offset="0.811" style="stop-color:#F2C153"/>
	<stop  offset="0.85" style="stop-color:#CC9F36"/>
	<stop  offset="0.8888" style="stop-color:#AF841F"/>
	<stop  offset="0.9271" style="stop-color:#9A710F"/>
	<stop  offset="0.9645" style="stop-color:#8D6605"/>
	<stop  offset="1" style="stop-color:#896202"/>
</linearGradient>
<g>
	<g>
		
			<image style="overflow:visible;opacity:0.4;" width="312" height="43" xlink:href="5BBEFB621F841687.png"  transform="matrix(1 0 0 1 8.135195e-02 39.9158)">
		</image>
		<g>
			<g>
				
					<linearGradient id="SVGID_2_" gradientUnits="userSpaceOnUse" x1="-346.9512" y1="140.1097" x2="182.9683" y2="536.4637" gradientTransform="matrix(1 0 0 1 113.3333 -370.8323)">
					<stop  offset="0" style="stop-color:#FAC859"/>
					<stop  offset="2.877487e-03" style="stop-color:#FACB64"/>
					<stop  offset="9.516122e-03" style="stop-color:#FBD176"/>
					<stop  offset="1.745736e-02" style="stop-color:#FCD582"/>
					<stop  offset="2.788930e-02" style="stop-color:#FCD78A"/>
					<stop  offset="5.042250e-02" style="stop-color:#FCD88C"/>
					<stop  offset="6.442444e-02" style="stop-color:#FCD681"/>
					<stop  offset="8.918270e-02" style="stop-color:#FBD163"/>
					<stop  offset="0.1216" style="stop-color:#FACA33"/>
					<stop  offset="0.1355" style="stop-color:#FAC61C"/>
					<stop  offset="0.1458" style="stop-color:#E6B417"/>
					<stop  offset="0.1638" style="stop-color:#C99B11"/>
					<stop  offset="0.184" style="stop-color:#B2860B"/>
					<stop  offset="0.207" style="stop-color:#9F7607"/>
					<stop  offset="0.2343" style="stop-color:#936A04"/>
					<stop  offset="0.2701" style="stop-color:#8B6402"/>
					<stop  offset="0.3475" style="stop-color:#896202"/>
					<stop  offset="0.6179" style="stop-color:#FAC859"/>
					<stop  offset="0.651" style="stop-color:#FACC64"/>
					<stop  offset="0.7093" style="stop-color:#FCD582"/>
					<stop  offset="0.7267" style="stop-color:#FCD88C"/>
					<stop  offset="0.7501" style="stop-color:#FCD481"/>
					<stop  offset="0.7914" style="stop-color:#FACB63"/>
					<stop  offset="0.8037" style="stop-color:#FAC859"/>
					<stop  offset="0.811" style="stop-color:#F2C153"/>
					<stop  offset="0.85" style="stop-color:#CC9F36"/>
					<stop  offset="0.8888" style="stop-color:#AF841F"/>
					<stop  offset="0.9271" style="stop-color:#9A710F"/>
					<stop  offset="0.9645" style="stop-color:#8D6605"/>
					<stop  offset="1" style="stop-color:#896202"/>
				</linearGradient>
				<path class="st0" d="M12.8,55.3c3.6,1.4,4.7,3.2,4.7,4.6c0,1.2-0.9,2-1.8,2c-0.5,0-1-0.2-1.4-0.8c0-0.7-0.1-1.5-0.3-2.3
					l-1.5,0.4v15.1c0,0.2-1.1,1-2.8,1H9.1v-11c-0.2,0.1-0.4,0.1-0.8,0.1c-0.9,3.3-2.3,6.3-4.1,8.1l-0.6-0.3c0.9-2.2,1.5-5.9,1.8-9.4
					l3.7,0.8v-3.5c-1,0.3-2,0.6-3.2,0.8c-0.2,0.4-0.6,0.7-0.9,0.8l-1.2-3.6c0.9,0,2.2,0,3.8,0c1.9-3.4,3.9-7.8,5.1-11l4.5,1.9
					c-0.1,0.3-0.4,0.4-0.9,0.4c-0.1,0-0.3,0-0.5-0.1c-1.7,2.5-4.4,5.9-7,8.7c1.5,0,3.2-0.1,5-0.1c-0.3-0.9-0.8-1.8-1.2-2.4
					L12.8,55.3z M4,48.8C5.1,49,6,49.3,6.8,49.7c0.6-1.9,1.3-4.4,1.9-6.7l4.6,1.6c-0.1,0.4-0.5,0.6-1.3,0.6
					c-1.3,1.8-2.8,3.7-4.3,5.1c1,0.7,1.4,1.6,1.4,2.3c0,1-0.8,1.8-1.7,1.8c-0.4,0-0.9-0.2-1.3-0.6c-0.2-1.6-1.3-3.5-2.5-4.7L4,48.8z
					 M27.6,56.6c0.5,2.6,1.3,4.8,2.2,6.5c0.9-1.8,2-3.9,2.4-5.1l3.9,2.3c-0.1,0.2-0.3,0.3-0.6,0.3c-0.1,0-0.3,0-0.5-0.1
					c-1,0.9-3,2.3-4.7,3.4c1.7,2.8,3.9,4.5,6.1,5.8l-0.1,0.4c-1.4,0.3-2.4,1.6-2.9,3.3c-3.2-3.3-4.9-7.2-5.8-14.4h0v12
					c0,2.4-0.6,4-4.2,4.4c0-2.5-0.6-3.2-2.7-3.4v-0.4h3.1c0.3,0,0.4-0.1,0.4-0.5v-5c-1.1,1.4-2.8,3.4-5.1,6c0,0.4-0.2,0.9-0.6,1
					l-2.3-3.2c-0.2,0.1-0.3,0.1-0.5,0.1c-0.5,0-1-0.2-1.4-0.8c0.1-1.9-0.5-4.4-1.3-6l0.4-0.2c3.1,1.6,4.1,3.4,4.1,4.8
					c0,0.4-0.1,0.8-0.3,1.2c1.7-0.8,4.3-2.2,7-3.6v-8.7h-7.9L16,56h11.3l0.6-3.8H22l-0.3,1.4c-0.4,0.3-1,0.4-1.8,0.4
					c-0.5,0-1.1-0.1-1.7-0.3c0.7-2.6,1.9-8.5,2.2-10.9l4.6,0.5c-0.1,0.5-0.4,0.8-1.4,0.8c-0.1,0.6-0.3,1.5-0.5,2.5h5.2l1.5-1.7
					l3.3,2.7c-0.2,0.3-0.6,0.4-1.2,0.5L30.8,56h1l1.7-2.8l3.1,2.8c-0.3,0.4-0.7,0.6-1.7,0.6H27.6z M18.3,58.5
					c3.4,1.2,4.5,2.8,4.5,4.1c0,1.1-0.9,1.9-1.8,1.9c-0.5,0-1-0.2-1.4-0.8c0-1.7-0.7-3.8-1.7-5.1L18.3,58.5z M23,47.5
					c-0.2,1.3-0.6,2.8-0.9,4H28l0.6-4H23z"/>
				
					<linearGradient id="SVGID_3_" gradientUnits="userSpaceOnUse" x1="-346.9512" y1="140.1097" x2="182.9683" y2="536.4637" gradientTransform="matrix(1 0 0 1 113.3333 -370.8323)">
					<stop  offset="0" style="stop-color:#FAC859"/>
					<stop  offset="2.877487e-03" style="stop-color:#FACB64"/>
					<stop  offset="9.516122e-03" style="stop-color:#FBD176"/>
					<stop  offset="1.745736e-02" style="stop-color:#FCD582"/>
					<stop  offset="2.788930e-02" style="stop-color:#FCD78A"/>
					<stop  offset="5.042250e-02" style="stop-color:#FCD88C"/>
					<stop  offset="6.442444e-02" style="stop-color:#FCD681"/>
					<stop  offset="8.918270e-02" style="stop-color:#FBD163"/>
					<stop  offset="0.1216" style="stop-color:#FACA33"/>
					<stop  offset="0.1355" style="stop-color:#FAC61C"/>
					<stop  offset="0.1458" style="stop-color:#E6B417"/>
					<stop  offset="0.1638" style="stop-color:#C99B11"/>
					<stop  offset="0.184" style="stop-color:#B2860B"/>
					<stop  offset="0.207" style="stop-color:#9F7607"/>
					<stop  offset="0.2343" style="stop-color:#936A04"/>
					<stop  offset="0.2701" style="stop-color:#8B6402"/>
					<stop  offset="0.3475" style="stop-color:#896202"/>
					<stop  offset="0.6179" style="stop-color:#FAC859"/>
					<stop  offset="0.651" style="stop-color:#FACC64"/>
					<stop  offset="0.7093" style="stop-color:#FCD582"/>
					<stop  offset="0.7267" style="stop-color:#FCD88C"/>
					<stop  offset="0.7501" style="stop-color:#FCD481"/>
					<stop  offset="0.7914" style="stop-color:#FACB63"/>
					<stop  offset="0.8037" style="stop-color:#FAC859"/>
					<stop  offset="0.811" style="stop-color:#F2C153"/>
					<stop  offset="0.85" style="stop-color:#CC9F36"/>
					<stop  offset="0.8888" style="stop-color:#AF841F"/>
					<stop  offset="0.9271" style="stop-color:#9A710F"/>
					<stop  offset="0.9645" style="stop-color:#8D6605"/>
					<stop  offset="1" style="stop-color:#896202"/>
				</linearGradient>
				<path class="st1" d="M68.3,65v5c1.7,0.5,2.2,0.7,2.2,1.4c0,1.7-1.5,2.8-8.1,2.8H49.8c-4.9,0-7.2-1.2-7.2-5.2V54.2
					c-1.3,1.1-2.8,2.1-4.2,2.9l-0.3-0.3c3.7-3.2,7.3-9,9-13.9l5.3,1.2c-0.1,0.4-0.4,0.6-1.3,0.5c-0.5,0.9-1.1,1.8-1.8,2.7H57l2-2
					l3.5,3.3c-0.3,0.3-0.7,0.3-1.4,0.4c-1.5,1.4-3.7,3.2-5.7,4.5h6.9l1.5-2l4.1,2.9c-0.2,0.3-0.8,0.6-1.5,0.8v9.1c0,0.1-1,1-3.7,1
					v-2.5H46.3v6.5c0,1.3,1,1.7,3.3,1.7H62c2.1,0,3.1-0.1,3.8-1c0.6-0.8,1.5-3,2.1-4.9H68.3z M54.5,53.4c1-1.5,2.1-3.9,2.7-5.5h-8.4
					c-1.2,1.6-2.7,3.2-4.2,4.7l2.2,0.8H54.5z M46.3,54.1V62h6.4v-7.9H46.3z M62.8,54.1h-6.5V62h6.5V54.1z"/>
				
					<linearGradient id="SVGID_4_" gradientUnits="userSpaceOnUse" x1="-346.9512" y1="140.1097" x2="182.9683" y2="536.4637" gradientTransform="matrix(1 0 0 1 113.3333 -370.8323)">
					<stop  offset="0" style="stop-color:#FAC859"/>
					<stop  offset="2.877487e-03" style="stop-color:#FACB64"/>
					<stop  offset="9.516122e-03" style="stop-color:#FBD176"/>
					<stop  offset="1.745736e-02" style="stop-color:#FCD582"/>
					<stop  offset="2.788930e-02" style="stop-color:#FCD78A"/>
					<stop  offset="5.042250e-02" style="stop-color:#FCD88C"/>
					<stop  offset="6.442444e-02" style="stop-color:#FCD681"/>
					<stop  offset="8.918270e-02" style="stop-color:#FBD163"/>
					<stop  offset="0.1216" style="stop-color:#FACA33"/>
					<stop  offset="0.1355" style="stop-color:#FAC61C"/>
					<stop  offset="0.1458" style="stop-color:#E6B417"/>
					<stop  offset="0.1638" style="stop-color:#C99B11"/>
					<stop  offset="0.184" style="stop-color:#B2860B"/>
					<stop  offset="0.207" style="stop-color:#9F7607"/>
					<stop  offset="0.2343" style="stop-color:#936A04"/>
					<stop  offset="0.2701" style="stop-color:#8B6402"/>
					<stop  offset="0.3475" style="stop-color:#896202"/>
					<stop  offset="0.6179" style="stop-color:#FAC859"/>
					<stop  offset="0.651" style="stop-color:#FACC64"/>
					<stop  offset="0.7093" style="stop-color:#FCD582"/>
					<stop  offset="0.7267" style="stop-color:#FCD88C"/>
					<stop  offset="0.7501" style="stop-color:#FCD481"/>
					<stop  offset="0.7914" style="stop-color:#FACB63"/>
					<stop  offset="0.8037" style="stop-color:#FAC859"/>
					<stop  offset="0.811" style="stop-color:#F2C153"/>
					<stop  offset="0.85" style="stop-color:#CC9F36"/>
					<stop  offset="0.8888" style="stop-color:#AF841F"/>
					<stop  offset="0.9271" style="stop-color:#9A710F"/>
					<stop  offset="0.9645" style="stop-color:#8D6605"/>
					<stop  offset="1" style="stop-color:#896202"/>
				</linearGradient>
				<path class="st2" d="M81.4,54.3l3.3,2.8c-0.2,0.3-0.6,0.4-1.3,0.6c-0.5,3.6-1.3,7.1-3.1,10.2c3.7,2.8,9,3.4,16.7,3.4
					c1.8,0,5.8,0,7.9,0v0.4c-1.4,0.3-2.1,1.5-2.2,2.9h-6c-8.3,0-13.8-1-17.5-5c-1.5,2.2-3.7,4.2-6.5,5.8l-0.2-0.5
					c2.4-2,4.1-4.5,5.2-7.3c-1.1-1.9-2.1-4.1-2.9-7l0.4-0.2c0.8,2.3,1.9,4.2,3.1,5.6c0.9-2.8,1.4-5.9,1.6-9h-2.4
					c-0.3,0.7-0.6,1.3-0.9,1.9c-0.3,0.1-0.7,0.1-1.1,0.1c-0.6,0-1.3-0.1-2.2-0.4c1.7-3.8,3.7-8.6,4.9-11.8H73L72.8,46h5.3l1.6-1.8
					l3.4,2.9c-0.2,0.3-0.8,0.5-1.6,0.6c-0.8,2.1-2.3,5.5-3.7,8.5h1.8L81.4,54.3z M102.7,48.9l2.8,2.6c-0.3,0.4-0.7,0.6-1.6,0.6h-3
					v5.1c0,0.1-1,0.9-3.4,0.9v-1.5H94v3.9h3.3l1.8-2.4l3.4,2.5c-0.3,0.4-0.7,0.6-1.6,0.6H94v3.9h4.3l2-2.6l3.8,2.7
					c-0.2,0.4-0.7,0.6-1.7,0.6H94v3.7c0,0-0.4,1-3.5,1v-4.7h-7.7l-0.2-0.7h7.9v-3.9h-6.2l-0.2-0.7h6.4v-3.9h-5.6l-0.2-0.7h5.8v-3.9
					h-8.2l-0.2-0.7h8.4v-3.8h-5.5l-0.2-0.7h5.8v-4.1l4.9,0.4C95.3,43.8,95,44,94,44.2v2.8h3.2l1.3-1.8l3.8,2.7
					c-0.2,0.2-0.7,0.6-1.4,0.7v2.9h0.3L102.7,48.9z M94,47.6v3.8h3.5v-3.8H94z M97.5,55.9v-3.9H94v3.9H97.5z"/>
				
					<linearGradient id="SVGID_5_" gradientUnits="userSpaceOnUse" x1="-346.9512" y1="140.1097" x2="182.9683" y2="536.4637" gradientTransform="matrix(1 0 0 1 113.3333 -370.8323)">
					<stop  offset="0" style="stop-color:#FAC859"/>
					<stop  offset="2.877487e-03" style="stop-color:#FACB64"/>
					<stop  offset="9.516122e-03" style="stop-color:#FBD176"/>
					<stop  offset="1.745736e-02" style="stop-color:#FCD582"/>
					<stop  offset="2.788930e-02" style="stop-color:#FCD78A"/>
					<stop  offset="5.042250e-02" style="stop-color:#FCD88C"/>
					<stop  offset="6.442444e-02" style="stop-color:#FCD681"/>
					<stop  offset="8.918270e-02" style="stop-color:#FBD163"/>
					<stop  offset="0.1216" style="stop-color:#FACA33"/>
					<stop  offset="0.1355" style="stop-color:#FAC61C"/>
					<stop  offset="0.1458" style="stop-color:#E6B417"/>
					<stop  offset="0.1638" style="stop-color:#C99B11"/>
					<stop  offset="0.184" style="stop-color:#B2860B"/>
					<stop  offset="0.207" style="stop-color:#9F7607"/>
					<stop  offset="0.2343" style="stop-color:#936A04"/>
					<stop  offset="0.2701" style="stop-color:#8B6402"/>
					<stop  offset="0.3475" style="stop-color:#896202"/>
					<stop  offset="0.6179" style="stop-color:#FAC859"/>
					<stop  offset="0.651" style="stop-color:#FACC64"/>
					<stop  offset="0.7093" style="stop-color:#FCD582"/>
					<stop  offset="0.7267" style="stop-color:#FCD88C"/>
					<stop  offset="0.7501" style="stop-color:#FCD481"/>
					<stop  offset="0.7914" style="stop-color:#FACB63"/>
					<stop  offset="0.8037" style="stop-color:#FAC859"/>
					<stop  offset="0.811" style="stop-color:#F2C153"/>
					<stop  offset="0.85" style="stop-color:#CC9F36"/>
					<stop  offset="0.8888" style="stop-color:#AF841F"/>
					<stop  offset="0.9271" style="stop-color:#9A710F"/>
					<stop  offset="0.9645" style="stop-color:#8D6605"/>
					<stop  offset="1" style="stop-color:#896202"/>
				</linearGradient>
				<path class="st3" d="M136.8,48.8l3,2.7c-0.3,0.4-0.7,0.6-1.6,0.6h-3.7v18.7c0,2.3-0.6,4-5.1,4.4c0-2.4-1.3-3-4.4-3.3v-0.5h5.1
					c0.6,0,0.7-0.2,0.7-0.7V59c-2.7,4.4-6.6,8.3-11.4,11.2l-0.4-0.5c5-4.5,8.8-11.2,10.6-17.6h-7.4l0-0.1c-0.2,0.1-0.6,0.1-1,0.1
					h-4.6v4.5c4.2,1.3,5.5,3.2,5.5,4.6c0,1.2-0.9,2-1.9,2c-0.5,0-1-0.2-1.5-0.8c-0.1-1.8-1.1-3.9-2.2-5.3v17c0,0.1-0.5,1.1-3.6,1.1
					V60.9c-1.5,2.5-3.4,4.8-5.8,6.8l-0.4-0.5c3-4,4.9-9.6,5.9-15h-5.5l-0.2-0.7h6V43l5,0.5c-0.1,0.5-0.3,0.8-1.4,0.9v7.1h1.1
					l1.8-2.5l3.2,2.5h8.1V43l5,0.4c0,0.5-0.2,0.8-1.4,0.9v7.1h0.7L136.8,48.8z"/>
				
					<linearGradient id="SVGID_6_" gradientUnits="userSpaceOnUse" x1="-346.9512" y1="140.1097" x2="182.9683" y2="536.4637" gradientTransform="matrix(1 0 0 1 113.3333 -370.8323)">
					<stop  offset="0" style="stop-color:#FAC859"/>
					<stop  offset="2.877487e-03" style="stop-color:#FACB64"/>
					<stop  offset="9.516122e-03" style="stop-color:#FBD176"/>
					<stop  offset="1.745736e-02" style="stop-color:#FCD582"/>
					<stop  offset="2.788930e-02" style="stop-color:#FCD78A"/>
					<stop  offset="5.042250e-02" style="stop-color:#FCD88C"/>
					<stop  offset="6.442444e-02" style="stop-color:#FCD681"/>
					<stop  offset="8.918270e-02" style="stop-color:#FBD163"/>
					<stop  offset="0.1216" style="stop-color:#FACA33"/>
					<stop  offset="0.1355" style="stop-color:#FAC61C"/>
					<stop  offset="0.1458" style="stop-color:#E6B417"/>
					<stop  offset="0.1638" style="stop-color:#C99B11"/>
					<stop  offset="0.184" style="stop-color:#B2860B"/>
					<stop  offset="0.207" style="stop-color:#9F7607"/>
					<stop  offset="0.2343" style="stop-color:#936A04"/>
					<stop  offset="0.2701" style="stop-color:#8B6402"/>
					<stop  offset="0.3475" style="stop-color:#896202"/>
					<stop  offset="0.6179" style="stop-color:#FAC859"/>
					<stop  offset="0.651" style="stop-color:#FACC64"/>
					<stop  offset="0.7093" style="stop-color:#FCD582"/>
					<stop  offset="0.7267" style="stop-color:#FCD88C"/>
					<stop  offset="0.7501" style="stop-color:#FCD481"/>
					<stop  offset="0.7914" style="stop-color:#FACB63"/>
					<stop  offset="0.8037" style="stop-color:#FAC859"/>
					<stop  offset="0.811" style="stop-color:#F2C153"/>
					<stop  offset="0.85" style="stop-color:#CC9F36"/>
					<stop  offset="0.8888" style="stop-color:#AF841F"/>
					<stop  offset="0.9271" style="stop-color:#9A710F"/>
					<stop  offset="0.9645" style="stop-color:#8D6605"/>
					<stop  offset="1" style="stop-color:#896202"/>
				</linearGradient>
				<path class="st4" d="M142.4,75.5c1.3-0.6,2.3-1.8,2.7-3.4c-0.2,0.1-0.5,0.1-0.7,0.1c-1.4,0-2.5-1.2-2.5-2.6
					c0-1.5,1.2-2.7,2.6-2.7c1.5,0,2.9,1.2,2.9,3.2c0,2.4-1.7,5.2-4.4,6.1L142.4,75.5z"/>
				
					<linearGradient id="SVGID_7_" gradientUnits="userSpaceOnUse" x1="-346.9512" y1="140.1097" x2="182.9683" y2="536.4637" gradientTransform="matrix(1 0 0 1 113.3333 -370.8323)">
					<stop  offset="0" style="stop-color:#FAC859"/>
					<stop  offset="2.877487e-03" style="stop-color:#FACB64"/>
					<stop  offset="9.516122e-03" style="stop-color:#FBD176"/>
					<stop  offset="1.745736e-02" style="stop-color:#FCD582"/>
					<stop  offset="2.788930e-02" style="stop-color:#FCD78A"/>
					<stop  offset="5.042250e-02" style="stop-color:#FCD88C"/>
					<stop  offset="6.442444e-02" style="stop-color:#FCD681"/>
					<stop  offset="8.918270e-02" style="stop-color:#FBD163"/>
					<stop  offset="0.1216" style="stop-color:#FACA33"/>
					<stop  offset="0.1355" style="stop-color:#FAC61C"/>
					<stop  offset="0.1458" style="stop-color:#E6B417"/>
					<stop  offset="0.1638" style="stop-color:#C99B11"/>
					<stop  offset="0.184" style="stop-color:#B2860B"/>
					<stop  offset="0.207" style="stop-color:#9F7607"/>
					<stop  offset="0.2343" style="stop-color:#936A04"/>
					<stop  offset="0.2701" style="stop-color:#8B6402"/>
					<stop  offset="0.3475" style="stop-color:#896202"/>
					<stop  offset="0.6179" style="stop-color:#FAC859"/>
					<stop  offset="0.651" style="stop-color:#FACC64"/>
					<stop  offset="0.7093" style="stop-color:#FCD582"/>
					<stop  offset="0.7267" style="stop-color:#FCD88C"/>
					<stop  offset="0.7501" style="stop-color:#FCD481"/>
					<stop  offset="0.7914" style="stop-color:#FACB63"/>
					<stop  offset="0.8037" style="stop-color:#FAC859"/>
					<stop  offset="0.811" style="stop-color:#F2C153"/>
					<stop  offset="0.85" style="stop-color:#CC9F36"/>
					<stop  offset="0.8888" style="stop-color:#AF841F"/>
					<stop  offset="0.9271" style="stop-color:#9A710F"/>
					<stop  offset="0.9645" style="stop-color:#8D6605"/>
					<stop  offset="1" style="stop-color:#896202"/>
				</linearGradient>
				<path class="st5" d="M168.7,62.9v7.2c2.5,0.8,5.6,1,9.6,1c2.9,0,9.9,0,13-0.1v0.5c-1.3,0.3-2,1.5-2.1,2.8h-11
					c-8.3,0-12.7-1.4-15.5-7.5c-0.7,3.2-1.8,6.3-3.8,8.4l-0.5-0.4c1.5-4,1.7-11.3,1.7-16.1l4.7,0.2c-0.1,0.4-0.3,0.7-1.2,0.8
					c-0.1,1.8-0.3,3.8-0.6,5.8c0.7,1.2,1.5,2.1,2.4,2.9V55.7h-6.5l-0.2-0.7h6.6v-5.9h-5.2l-0.2-0.7h5.4v-5.5l4.7,0.4
					c0,0.5-0.3,0.7-1.3,0.8v4.2h1l1.7-2.2l3.2,2.3c-0.3,0.4-0.7,0.6-1.6,0.6h-4.3V55h1.4l1.8-2.4l3.3,2.4c2.4-3.1,2.8-6.4,2.9-9.3
					h-4.1l-0.2-0.7H186l1.4-1.7L191,46c-0.2,0.3-0.7,0.5-1.3,0.6c-0.3,8.1-1.1,9.9-5.7,9.9c0-2-0.4-2.6-2.7-3.1v-0.5
					c0.8,0,2.4,0.1,3,0.1c0.5,0,0.7,0,0.9-0.2c0.6-0.5,0.9-2.7,1-7h-4.4c-0.4,3.8-1.6,7.9-6.6,11.1l3.3,1.4h6.3l1.4-1.9l3.9,2.8
					c-0.2,0.2-0.7,0.6-1.4,0.7v8.3c0,0.1-0.9,1.2-3.6,1.2v-2.1h-6.8v1.3c0,0-0.5,1.2-3.5,1.2V57c-0.6,0.4-1.3,0.8-2.1,1.1l-0.4-0.4
					c0.9-0.7,1.7-1.5,2.3-2.2h0c-0.3,0.1-0.7,0.2-1.3,0.2h-3.9c-0.1,0.2-0.4,0.3-1,0.4v6.1h1.2l1.7-2.4l3.1,2.5
					c-0.3,0.4-0.8,0.6-1.6,0.6H168.7z M185.2,58.9h-6.8v7.6h6.8V58.9z"/>
				
					<linearGradient id="SVGID_8_" gradientUnits="userSpaceOnUse" x1="-346.9512" y1="140.1097" x2="182.9683" y2="536.4637" gradientTransform="matrix(1 0 0 1 113.3333 -370.8323)">
					<stop  offset="0" style="stop-color:#FAC859"/>
					<stop  offset="2.877487e-03" style="stop-color:#FACB64"/>
					<stop  offset="9.516122e-03" style="stop-color:#FBD176"/>
					<stop  offset="1.745736e-02" style="stop-color:#FCD582"/>
					<stop  offset="2.788930e-02" style="stop-color:#FCD78A"/>
					<stop  offset="5.042250e-02" style="stop-color:#FCD88C"/>
					<stop  offset="6.442444e-02" style="stop-color:#FCD681"/>
					<stop  offset="8.918270e-02" style="stop-color:#FBD163"/>
					<stop  offset="0.1216" style="stop-color:#FACA33"/>
					<stop  offset="0.1355" style="stop-color:#FAC61C"/>
					<stop  offset="0.1458" style="stop-color:#E6B417"/>
					<stop  offset="0.1638" style="stop-color:#C99B11"/>
					<stop  offset="0.184" style="stop-color:#B2860B"/>
					<stop  offset="0.207" style="stop-color:#9F7607"/>
					<stop  offset="0.2343" style="stop-color:#936A04"/>
					<stop  offset="0.2701" style="stop-color:#8B6402"/>
					<stop  offset="0.3475" style="stop-color:#896202"/>
					<stop  offset="0.6179" style="stop-color:#FAC859"/>
					<stop  offset="0.651" style="stop-color:#FACC64"/>
					<stop  offset="0.7093" style="stop-color:#FCD582"/>
					<stop  offset="0.7267" style="stop-color:#FCD88C"/>
					<stop  offset="0.7501" style="stop-color:#FCD481"/>
					<stop  offset="0.7914" style="stop-color:#FACB63"/>
					<stop  offset="0.8037" style="stop-color:#FAC859"/>
					<stop  offset="0.811" style="stop-color:#F2C153"/>
					<stop  offset="0.85" style="stop-color:#CC9F36"/>
					<stop  offset="0.8888" style="stop-color:#AF841F"/>
					<stop  offset="0.9271" style="stop-color:#9A710F"/>
					<stop  offset="0.9645" style="stop-color:#8D6605"/>
					<stop  offset="1" style="stop-color:#896202"/>
				</linearGradient>
				<path class="st6" d="M225.5,53.6c-0.3,0.4-0.7,0.6-1.7,0.6h-13.1c1.2,6.5,5.1,13.1,15,17.2l-0.1,0.4c-1.9,0.3-3.1,1.4-3.4,3.6
					c-8.5-5.1-11.1-13.7-12.1-20.7h0c-1,8.3-4.3,15.6-16.7,20.8l-0.3-0.5c9.6-5.9,12.3-12.9,13.1-20.7h-12.9l-0.2-0.7h13.2
					c0.3-3,0.3-5.4,0.3-10.4l5.5,0.5c-0.1,0.5-0.3,0.8-1.4,0.9c-0.1,3.1-0.1,6.1-0.4,9.1h8.5l2.3-3L225.5,53.6z"/>
				
					<linearGradient id="SVGID_9_" gradientUnits="userSpaceOnUse" x1="-346.9512" y1="140.1097" x2="182.9683" y2="536.4637" gradientTransform="matrix(1 0 0 1 113.3333 -370.8323)">
					<stop  offset="0" style="stop-color:#FAC859"/>
					<stop  offset="2.877487e-03" style="stop-color:#FACB64"/>
					<stop  offset="9.516122e-03" style="stop-color:#FBD176"/>
					<stop  offset="1.745736e-02" style="stop-color:#FCD582"/>
					<stop  offset="2.788930e-02" style="stop-color:#FCD78A"/>
					<stop  offset="5.042250e-02" style="stop-color:#FCD88C"/>
					<stop  offset="6.442444e-02" style="stop-color:#FCD681"/>
					<stop  offset="8.918270e-02" style="stop-color:#FBD163"/>
					<stop  offset="0.1216" style="stop-color:#FACA33"/>
					<stop  offset="0.1355" style="stop-color:#FAC61C"/>
					<stop  offset="0.1458" style="stop-color:#E6B417"/>
					<stop  offset="0.1638" style="stop-color:#C99B11"/>
					<stop  offset="0.184" style="stop-color:#B2860B"/>
					<stop  offset="0.207" style="stop-color:#9F7607"/>
					<stop  offset="0.2343" style="stop-color:#936A04"/>
					<stop  offset="0.2701" style="stop-color:#8B6402"/>
					<stop  offset="0.3475" style="stop-color:#896202"/>
					<stop  offset="0.6179" style="stop-color:#FAC859"/>
					<stop  offset="0.651" style="stop-color:#FACC64"/>
					<stop  offset="0.7093" style="stop-color:#FCD582"/>
					<stop  offset="0.7267" style="stop-color:#FCD88C"/>
					<stop  offset="0.7501" style="stop-color:#FCD481"/>
					<stop  offset="0.7914" style="stop-color:#FACB63"/>
					<stop  offset="0.8037" style="stop-color:#FAC859"/>
					<stop  offset="0.811" style="stop-color:#F2C153"/>
					<stop  offset="0.85" style="stop-color:#CC9F36"/>
					<stop  offset="0.8888" style="stop-color:#AF841F"/>
					<stop  offset="0.9271" style="stop-color:#9A710F"/>
					<stop  offset="0.9645" style="stop-color:#8D6605"/>
					<stop  offset="1" style="stop-color:#896202"/>
				</linearGradient>
				<path class="st7" d="M256,59.5l4.1,2.9c-0.2,0.4-0.7,0.6-1.7,0.6h-12.8v7.5c0,2.5-0.7,4.4-5.5,4.9c0-2.8-1.5-3.4-4.9-3.7v-0.5
					h5.8c0.6,0,0.8-0.2,0.8-0.7V63h-14.1l-0.2-0.7h14.3v-7.1H230l-0.2-0.7h12.1v-6.3c-4,0.4-8.2,0.6-12.2,0.6l-0.1-0.6
					c8.1-1,18-3.2,23.1-5.3l3.7,3.6c-0.2,0.1-0.4,0.2-0.8,0.2s-0.8-0.1-1.4-0.3c-2.1,0.4-4.5,0.8-7.1,1.2c-0.1,0.3-0.4,0.6-1.4,0.7
					v6.2h5.9l2.2-2.8l4.1,2.9c-0.3,0.4-0.7,0.6-1.7,0.6h-10.5v7.1h8.1L256,59.5z"/>
				
					<linearGradient id="SVGID_10_" gradientUnits="userSpaceOnUse" x1="-346.9512" y1="140.1097" x2="182.9683" y2="536.4637" gradientTransform="matrix(1 0 0 1 113.3333 -370.8323)">
					<stop  offset="0" style="stop-color:#FAC859"/>
					<stop  offset="2.877487e-03" style="stop-color:#FACB64"/>
					<stop  offset="9.516122e-03" style="stop-color:#FBD176"/>
					<stop  offset="1.745736e-02" style="stop-color:#FCD582"/>
					<stop  offset="2.788930e-02" style="stop-color:#FCD78A"/>
					<stop  offset="5.042250e-02" style="stop-color:#FCD88C"/>
					<stop  offset="6.442444e-02" style="stop-color:#FCD681"/>
					<stop  offset="8.918270e-02" style="stop-color:#FBD163"/>
					<stop  offset="0.1216" style="stop-color:#FACA33"/>
					<stop  offset="0.1355" style="stop-color:#FAC61C"/>
					<stop  offset="0.1458" style="stop-color:#E6B417"/>
					<stop  offset="0.1638" style="stop-color:#C99B11"/>
					<stop  offset="0.184" style="stop-color:#B2860B"/>
					<stop  offset="0.207" style="stop-color:#9F7607"/>
					<stop  offset="0.2343" style="stop-color:#936A04"/>
					<stop  offset="0.2701" style="stop-color:#8B6402"/>
					<stop  offset="0.3475" style="stop-color:#896202"/>
					<stop  offset="0.6179" style="stop-color:#FAC859"/>
					<stop  offset="0.651" style="stop-color:#FACC64"/>
					<stop  offset="0.7093" style="stop-color:#FCD582"/>
					<stop  offset="0.7267" style="stop-color:#FCD88C"/>
					<stop  offset="0.7501" style="stop-color:#FCD481"/>
					<stop  offset="0.7914" style="stop-color:#FACB63"/>
					<stop  offset="0.8037" style="stop-color:#FAC859"/>
					<stop  offset="0.811" style="stop-color:#F2C153"/>
					<stop  offset="0.85" style="stop-color:#CC9F36"/>
					<stop  offset="0.8888" style="stop-color:#AF841F"/>
					<stop  offset="0.9271" style="stop-color:#9A710F"/>
					<stop  offset="0.9645" style="stop-color:#8D6605"/>
					<stop  offset="1" style="stop-color:#896202"/>
				</linearGradient>
				<path class="st8" d="M289.7,62.4c0,0.2-1.8,0.9-3,0.9h-0.6v-1.4h-6.3v3.4h6.8l1.9-2.2l3.5,2.3c-0.3,0.4-0.7,0.6-1.6,0.6h-10.5
					v3.4h9l1.9-2.4l3.6,2.5c-0.2,0.4-0.7,0.6-1.7,0.6h-12.9v4c0,0.1-0.6,1.2-3.7,1.2v-5.2h-13.8l-0.2-0.7h14V66h-11.2l-0.2-0.7h11.4
					v-3.4h-10l-0.2-0.7h10.2v-3.4h-14l-0.2-0.7h14.2v-3.4h-9.7l-0.2-0.7h10v-1.2l-0.2,0.1l-0.4-0.3c0.2-0.2,0.4-0.5,0.6-0.7v-0.6
					l0.4,0c1.3-1.9,2.6-4.6,3.4-7.5l4.7,1.8c-0.2,0.4-0.5,0.6-1.4,0.6c-0.3,0.6-0.7,1.1-1.1,1.6h6.8l1.9-2.4l3.5,2.5
					c-0.2,0.4-0.7,0.6-1.6,0.6h-7.3c1.9,0.7,2.5,1.7,2.5,2.6c0,0.6-0.2,1-0.6,1.4l3.5,2.4c-0.2,0.2-0.6,0.5-1.2,0.6v2.7h0.6l1.6-2.5
					l3,2.6c-0.2,0.4-0.7,0.6-1.6,0.6h-3.5V62.4z M270.7,47.5c1.9,0.8,2.5,1.8,2.5,2.7c0,1-0.9,1.7-1.8,1.7c-0.5,0-1-0.2-1.4-0.8
					c0-1.2-0.4-2.6-1.1-3.6h-1.1c-1.5,2.3-3.4,4.1-5.4,5.3l-0.4-0.3c1.5-2.1,3.1-5.9,4-9.7l4.6,1.5c-0.2,0.4-0.5,0.7-1.3,0.6
					c-0.3,0.6-0.7,1.2-1,1.8h4.9l1.7-2.3l3.1,2.3c-0.3,0.4-0.7,0.6-1.6,0.6H270.7z M281.6,47.5c-1,1.2-2.1,2.2-3.3,3l2.7,0.2
					c-0.1,0.4-0.3,0.7-1.2,0.8v1.5h6l1-1.2c-0.2,0.1-0.4,0.1-0.7,0.1c-0.5,0-1-0.2-1.4-0.7c-0.1-1.2-0.7-2.7-1.5-3.8H281.6z
					 M279.8,53.8v3.4h6.3v-3.4H279.8z M279.8,61.3h6.3v-3.4h-6.3V61.3z"/>
				
					<linearGradient id="SVGID_11_" gradientUnits="userSpaceOnUse" x1="-346.9512" y1="140.1097" x2="182.9683" y2="536.4637" gradientTransform="matrix(1 0 0 1 113.3333 -370.8323)">
					<stop  offset="0" style="stop-color:#FAC859"/>
					<stop  offset="2.877487e-03" style="stop-color:#FACB64"/>
					<stop  offset="9.516122e-03" style="stop-color:#FBD176"/>
					<stop  offset="1.745736e-02" style="stop-color:#FCD582"/>
					<stop  offset="2.788930e-02" style="stop-color:#FCD78A"/>
					<stop  offset="5.042250e-02" style="stop-color:#FCD88C"/>
					<stop  offset="6.442444e-02" style="stop-color:#FCD681"/>
					<stop  offset="8.918270e-02" style="stop-color:#FBD163"/>
					<stop  offset="0.1216" style="stop-color:#FACA33"/>
					<stop  offset="0.1355" style="stop-color:#FAC61C"/>
					<stop  offset="0.1458" style="stop-color:#E6B417"/>
					<stop  offset="0.1638" style="stop-color:#C99B11"/>
					<stop  offset="0.184" style="stop-color:#B2860B"/>
					<stop  offset="0.207" style="stop-color:#9F7607"/>
					<stop  offset="0.2343" style="stop-color:#936A04"/>
					<stop  offset="0.2701" style="stop-color:#8B6402"/>
					<stop  offset="0.3475" style="stop-color:#896202"/>
					<stop  offset="0.6179" style="stop-color:#FAC859"/>
					<stop  offset="0.651" style="stop-color:#FACC64"/>
					<stop  offset="0.7093" style="stop-color:#FCD582"/>
					<stop  offset="0.7267" style="stop-color:#FCD88C"/>
					<stop  offset="0.7501" style="stop-color:#FCD481"/>
					<stop  offset="0.7914" style="stop-color:#FACB63"/>
					<stop  offset="0.8037" style="stop-color:#FAC859"/>
					<stop  offset="0.811" style="stop-color:#F2C153"/>
					<stop  offset="0.85" style="stop-color:#CC9F36"/>
					<stop  offset="0.8888" style="stop-color:#AF841F"/>
					<stop  offset="0.9271" style="stop-color:#9A710F"/>
					<stop  offset="0.9645" style="stop-color:#8D6605"/>
					<stop  offset="1" style="stop-color:#896202"/>
				</linearGradient>
				<path class="st9" d="M305.9,70.2c0,1.4-1.2,2.6-2.6,2.6c-1.4,0-2.6-1.2-2.6-2.6c0-1.4,1.2-2.6,2.6-2.6
					C304.8,67.6,305.9,68.8,305.9,70.2z M302.7,65.4c-0.3-2.7-1.9-16.5-1.9-17.2c0-1.2,0.7-2.2,2.5-2.2c1.8,0,2.5,1,2.5,2.2
					c0,0.6-1.6,14.4-1.9,17.2H302.7z"/>
			</g>
		</g>
	</g>
	<g>
		<path class="st10" d="M9.1,9c0,1.6,0,2.9,0.1,3.5c0,0.5,0.1,0.8,0.6,0.9c0.2,0,0.6,0.1,0.7,0.1c0.1,0,0.1,0,0.1,0.1
			c0,0.1-0.1,0.1-0.3,0.1c-0.9,0-1.9,0-2,0c-0.1,0-1.1,0-1.6,0c-0.2,0-0.3,0-0.3-0.1c0,0,0-0.1,0.1-0.1c0.1,0,0.3,0,0.5-0.1
			c0.3-0.1,0.4-0.4,0.5-0.9c0.1-0.7,0.1-2,0.1-3.5V2l-2.4,0c-1,0-1.4,0.1-1.7,0.5C3.5,2.9,3.4,3,3.4,3.1c0,0.1-0.1,0.2-0.2,0.2
			c0,0-0.1,0-0.1-0.1c0-0.2,0.3-1.6,0.4-1.7c0-0.1,0.1-0.3,0.2-0.3c0.1,0,0.3,0.2,0.7,0.2c0.5,0,1.1,0.1,1.3,0.1h6.1
			c0.5,0,0.9,0,1.2-0.1c0.2,0,0.4-0.1,0.5-0.1c0.1,0,0.1,0.1,0.1,0.2c0,0.5,0,1.6,0,1.8c0,0.1,0,0.2-0.1,0.2c-0.1,0-0.1,0-0.1-0.3
			l0-0.2c0-0.5-0.4-0.9-2-0.9L9.1,2V9z"/>
		<path class="st10" d="M31.5,9.7c0,1.3,0,2.4,0.1,3c0,0.4,0.1,0.7,0.5,0.7c0.2,0,0.5,0.1,0.6,0.1c0.1,0,0.1,0.1,0.1,0.1
			c0,0.1-0.1,0.1-0.2,0.1c-0.8,0-1.7,0-1.8,0c-0.1,0-1,0-1.4,0c-0.2,0-0.2,0-0.2-0.1c0,0,0-0.1,0.1-0.1c0.1,0,0.3,0,0.4-0.1
			c0.3-0.1,0.3-0.3,0.4-0.8c0.1-0.6,0.1-1.6,0.1-3V8.3c0-0.1,0-0.1-0.1-0.1h-6c0,0-0.1,0-0.1,0.1v1.4c0,1.3,0,2.4,0.1,3
			c0,0.4,0.1,0.7,0.5,0.7c0.2,0,0.5,0.1,0.7,0.1c0.1,0,0.1,0.1,0.1,0.1c0,0.1-0.1,0.1-0.2,0.1c-0.8,0-1.7,0-1.8,0c-0.1,0-1,0-1.4,0
			c-0.1,0-0.2,0-0.2-0.1c0,0,0-0.1,0.1-0.1c0.1,0,0.3,0,0.4-0.1c0.3-0.1,0.3-0.3,0.4-0.7c0.1-0.6,0.1-1.7,0.1-3V7.2c0-2.2,0-2.6,0-3
			c0-0.5-0.1-0.7-0.6-0.8c-0.1,0-0.4,0-0.5,0c0,0-0.1-0.1-0.1-0.1c0-0.1,0.1-0.1,0.2-0.1c0.7,0,1.6,0,1.7,0c0.1,0,1,0,1.4,0
			c0.2,0,0.2,0,0.2,0.1c0,0-0.1,0.1-0.1,0.1c-0.1,0-0.2,0-0.4,0c-0.4,0.1-0.5,0.3-0.5,0.8c0,0.4,0,0.9,0,3v0.3c0,0.1,0,0.1,0.1,0.1
			h6c0,0,0.1,0,0.1-0.1V7.2c0-2.2,0-2.6,0-3c0-0.5-0.1-0.7-0.6-0.8c-0.1,0-0.4,0-0.5,0c-0.1,0-0.1-0.1-0.1-0.1
			c0-0.1,0.1-0.1,0.2-0.1c0.6,0,1.6,0,1.6,0c0.1,0,1,0,1.4,0c0.2,0,0.2,0,0.2,0.1c0,0-0.1,0.1-0.1,0.1c-0.1,0-0.2,0-0.4,0
			c-0.4,0.1-0.5,0.3-0.5,0.8c0,0.4,0,0.8,0,3V9.7z"/>
		<path class="st10" d="M42.8,7.2c0-2.2,0-2.6,0-3c0-0.5-0.1-0.7-0.6-0.8c-0.1,0-0.4,0-0.5,0c0,0-0.1-0.1-0.1-0.1
			c0-0.1,0.1-0.1,0.2-0.1c0.7,0,1.6,0,1.7,0c0.1,0,3.1,0,3.4,0c0.3,0,0.5-0.1,0.7-0.1c0.1,0,0.1-0.1,0.2-0.1c0,0,0.1,0.1,0.1,0.1
			c0,0.1-0.1,0.3-0.1,0.7c0,0.1,0,0.8-0.1,0.9c0,0.1-0.1,0.1-0.1,0.1c-0.1,0-0.1-0.1-0.1-0.2c0-0.1,0-0.3-0.1-0.5
			c-0.1-0.2-0.2-0.3-1-0.4c-0.2,0-1.9,0-2.1,0c-0.1,0-0.1,0-0.1,0.1v3.8c0,0.1,0,0.1,0.1,0.1c0.2,0,2.1,0,2.4,0c0.3,0,0.6,0,0.7-0.2
			c0.1-0.1,0.2-0.2,0.2-0.2c0,0,0.1,0,0.1,0.1c0,0.1-0.1,0.3-0.1,0.8c0,0.3-0.1,0.8-0.1,0.9c0,0.1,0,0.3-0.1,0.3
			c-0.1,0-0.1,0-0.1-0.1c0-0.1,0-0.3-0.1-0.5c0-0.2-0.2-0.4-0.7-0.4c-0.4,0-1.9-0.1-2.2-0.1c-0.1,0-0.1,0-0.1,0.1v1.2
			c0,0.5,0,2.1,0,2.4c0,0.9,0.3,1.1,1.7,1.1c0.4,0,1.1,0,1.4-0.1c0.4-0.2,0.6-0.4,0.7-1c0-0.2,0.1-0.2,0.1-0.2
			c0.1,0,0.1,0.1,0.1,0.2c0,0.1-0.1,1-0.2,1.3c-0.1,0.4-0.2,0.4-0.8,0.4c-1.1,0-1.9,0-2.5,0c-0.6,0-1,0-1.2,0c0,0-0.3,0-0.6,0
			c-0.3,0-0.6,0-0.8,0c-0.1,0-0.2,0-0.2-0.1c0,0,0-0.1,0.1-0.1c0.1,0,0.3,0,0.4-0.1c0.3,0,0.3-0.3,0.4-0.7c0.1-0.6,0.1-1.7,0.1-3
			V7.2z"/>
		<path class="st10" d="M70.6,6.1c0-2.6,0-3,0-3.5c0-0.6-0.2-0.8-0.7-0.9c-0.1,0-0.4,0-0.6,0c-0.1,0-0.1,0-0.1-0.1
			c0-0.1,0.1-0.1,0.3-0.1c0.4,0,0.8,0,1.2,0l0.7,0c0.1,0,3.4,0,3.7,0c0.3,0,0.6,0,0.7-0.1c0.1,0,0.1-0.1,0.2-0.1
			c0,0,0.1,0.1,0.1,0.1c0,0.1-0.1,0.3-0.1,0.8c0,0.2,0,0.9-0.1,1.1c0,0.1,0,0.2-0.1,0.2c-0.1,0-0.1-0.1-0.1-0.2c0-0.1,0-0.4-0.1-0.6
			c-0.1-0.3-0.3-0.5-1.2-0.6c-0.3,0-2.1,0-2.2,0C72,2,72,2,72,2.1v4.5c0,0.1,0,0.2,0.1,0.2c0.2,0,2.2,0,2.6,0c0.4,0,0.6-0.1,0.8-0.2
			c0.1-0.1,0.2-0.2,0.2-0.2c0,0,0.1,0,0.1,0.1c0,0.1-0.1,0.4-0.1,0.9c0,0.3-0.1,0.9-0.1,1c0,0.1,0,0.3-0.1,0.3
			c-0.1,0-0.1-0.1-0.1-0.1c0-0.2,0-0.3-0.1-0.5c-0.1-0.2-0.2-0.5-0.9-0.6c-0.4,0-2.1-0.1-2.3-0.1c-0.1,0-0.1,0-0.1,0.1V9
			c0,0.6,0,2.5,0,2.8c0,1.1,0.3,1.3,1.9,1.3c0.4,0,1.1,0,1.6-0.2c0.4-0.2,0.6-0.5,0.7-1.2c0-0.2,0.1-0.2,0.1-0.2
			c0.1,0,0.1,0.1,0.1,0.2c0,0.1-0.1,1.2-0.2,1.6c-0.1,0.4-0.2,0.4-0.9,0.4c-1.2,0-2.1,0-2.8,0c-0.6,0-1,0-1.3,0c0,0-0.3,0-0.7,0
			c-0.3,0-0.7,0-0.9,0c-0.2,0-0.3,0-0.3-0.1c0,0,0-0.1,0.1-0.1c0.1,0,0.3,0,0.5-0.1c0.3-0.1,0.4-0.4,0.5-0.9c0.1-0.7,0.1-2,0.1-3.5
			V6.1z"/>
		<path class="st10" d="M88.1,9.7c0,2,0,2.9,0.3,3.1c0.2,0.2,0.8,0.3,1.9,0.3c0.8,0,1.4,0,1.7-0.4c0.2-0.2,0.3-0.5,0.3-0.8
			c0-0.1,0.1-0.2,0.1-0.2c0.1,0,0.1,0.1,0.1,0.2s-0.1,1-0.2,1.4c-0.1,0.3-0.1,0.4-0.9,0.4c-1,0-1.8,0-2.5,0c-0.7,0-1.1,0-1.6,0
			c-0.1,0-0.3,0-0.6,0c-0.3,0-0.6,0-0.8,0c-0.1,0-0.2,0-0.2-0.1c0,0,0-0.1,0.1-0.1c0.1,0,0.3,0,0.4-0.1c0.3-0.1,0.3-0.3,0.4-0.7
			c0.1-0.6,0.1-1.7,0.1-3V7.2c0-2.2,0-2.6,0-3c0-0.5-0.1-0.7-0.6-0.8c-0.1,0-0.4,0-0.5,0c0,0-0.1-0.1-0.1-0.1c0-0.1,0.1-0.1,0.2-0.1
			c0.7,0,1.6,0,1.6,0c0.1,0,1.1,0,1.6,0c0.1,0,0.2,0,0.2,0.1c0,0-0.1,0.1-0.1,0.1c-0.1,0-0.3,0-0.5,0c-0.4,0.1-0.5,0.3-0.5,0.8
			c0,0.4,0,0.8,0,3V9.7z"/>
		<path class="st10" d="M103.4,9.7c0,1.3,0,2.4,0.1,3c0,0.4,0.1,0.7,0.5,0.7c0.2,0,0.5,0.1,0.7,0.1c0.1,0,0.1,0.1,0.1,0.1
			c0,0.1-0.1,0.1-0.2,0.1c-0.8,0-1.7,0-1.8,0c-0.1,0-1,0-1.4,0c-0.1,0-0.2,0-0.2-0.1c0,0,0-0.1,0.1-0.1c0.1,0,0.3,0,0.4-0.1
			c0.3-0.1,0.3-0.3,0.4-0.7c0.1-0.6,0.1-1.7,0.1-3V7.2c0-2.2,0-2.6,0-3c0-0.5-0.1-0.7-0.5-0.8c-0.2,0-0.3,0-0.4,0
			c-0.1,0-0.1-0.1-0.1-0.1c0-0.1,0.1-0.1,0.2-0.1c0.5,0,1.4,0,1.5,0c0.1,0,1,0,1.4,0c0.2,0,0.2,0,0.2,0.1c0,0-0.1,0.1-0.1,0.1
			c-0.1,0-0.2,0-0.4,0c-0.4,0.1-0.5,0.3-0.5,0.8c0,0.4,0,0.8,0,3V9.7z"/>
		<path class="st10" d="M118.1,9.7c0,1.3,0,2.4,0.1,3c0,0.4,0.1,0.7,0.6,0.7c0.2,0,0.5,0.1,0.7,0.1c0.1,0,0.1,0.1,0.1,0.1
			c0,0.1-0.1,0.1-0.2,0.1c-0.8,0-1.7,0-1.8,0c-0.1,0-1.1,0-1.5,0c-0.2,0-0.2,0-0.2-0.1c0,0,0-0.1,0.1-0.1c0.1,0,0.3,0,0.4-0.1
			c0.3-0.1,0.4-0.3,0.4-0.8c0.1-0.6,0.1-1.7,0.1-3V3.8l-2.1,0c-0.9,0-1.2,0.1-1.5,0.4c-0.2,0.2-0.2,0.3-0.2,0.4
			c0,0.1-0.1,0.1-0.1,0.1c0,0-0.1,0-0.1-0.1c0-0.1,0.3-1.4,0.3-1.5c0-0.1,0.1-0.3,0.1-0.3c0.1,0,0.2,0.1,0.6,0.2
			c0.4,0,1,0.1,1.1,0.1h5.4c0.5,0,0.8,0,1-0.1c0.2,0,0.3-0.1,0.4-0.1s0.1,0.1,0.1,0.2c0,0.4,0,1.4,0,1.6c0,0.1-0.1,0.2-0.1,0.2
			s-0.1,0-0.1-0.2l0-0.1c0-0.4-0.4-0.7-1.7-0.8l-1.8,0V9.7z"/>
		<path class="st10" d="M131.5,7.2c0-2.2,0-2.6,0-3c0-0.5-0.1-0.7-0.6-0.8c-0.1,0-0.4,0-0.5,0c0,0-0.1-0.1-0.1-0.1
			c0-0.1,0.1-0.1,0.2-0.1c0.7,0,1.6,0,1.7,0c0.1,0,3.1,0,3.4,0c0.3,0,0.5-0.1,0.7-0.1c0.1,0,0.1-0.1,0.2-0.1c0,0,0.1,0.1,0.1,0.1
			c0,0.1-0.1,0.3-0.1,0.7c0,0.1,0,0.8-0.1,0.9c0,0.1-0.1,0.1-0.1,0.1c-0.1,0-0.1-0.1-0.1-0.2c0-0.1,0-0.3-0.1-0.5
			c-0.1-0.2-0.2-0.3-1-0.4c-0.2,0-1.9,0-2.1,0c-0.1,0-0.1,0-0.1,0.1v3.8c0,0.1,0,0.1,0.1,0.1c0.2,0,2.1,0,2.4,0c0.3,0,0.6,0,0.7-0.2
			c0.1-0.1,0.2-0.2,0.2-0.2c0,0,0.1,0,0.1,0.1c0,0.1-0.1,0.3-0.1,0.8c0,0.3-0.1,0.8-0.1,0.9c0,0.1,0,0.3-0.1,0.3
			c-0.1,0-0.1,0-0.1-0.1c0-0.1,0-0.3-0.1-0.5c0-0.2-0.2-0.4-0.7-0.4c-0.4,0-1.9-0.1-2.2-0.1c-0.1,0-0.1,0-0.1,0.1v1.2
			c0,0.5,0,2.1,0,2.4c0,0.9,0.3,1.1,1.7,1.1c0.4,0,1.1,0,1.4-0.1c0.4-0.2,0.6-0.4,0.7-1c0-0.2,0.1-0.2,0.1-0.2
			c0.1,0,0.1,0.1,0.1,0.2c0,0.1-0.1,1-0.2,1.3c-0.1,0.4-0.2,0.4-0.8,0.4c-1.1,0-1.9,0-2.5,0c-0.6,0-1,0-1.2,0c0,0-0.3,0-0.6,0
			c-0.3,0-0.6,0-0.8,0c-0.1,0-0.2,0-0.2-0.1c0,0,0-0.1,0.1-0.1c0.1,0,0.3,0,0.4-0.1c0.3,0,0.3-0.3,0.4-0.7c0.1-0.6,0.1-1.7,0.1-3
			V7.2z"/>
		<path class="st10" d="M162.8,9c0,1.6,0,2.9,0.1,3.5c0,0.5,0.1,0.8,0.6,0.9c0.2,0,0.6,0.1,0.7,0.1c0.1,0,0.1,0,0.1,0.1
			c0,0.1-0.1,0.1-0.3,0.1c-0.9,0-1.9,0-2,0c-0.1,0-1.1,0-1.6,0c-0.2,0-0.3,0-0.3-0.1c0,0,0-0.1,0.1-0.1c0.1,0,0.3,0,0.5-0.1
			c0.3-0.1,0.4-0.4,0.5-0.9c0.1-0.7,0.1-2,0.1-3.5V2l-2.4,0c-1,0-1.4,0.1-1.7,0.5c-0.2,0.3-0.2,0.4-0.3,0.5c0,0.1-0.1,0.2-0.2,0.2
			c0,0-0.1,0-0.1-0.1c0-0.2,0.3-1.6,0.4-1.7c0-0.1,0.1-0.3,0.2-0.3c0.1,0,0.3,0.2,0.7,0.2c0.5,0,1.1,0.1,1.3,0.1h6.1
			c0.5,0,0.9,0,1.2-0.1c0.2,0,0.4-0.1,0.5-0.1c0.1,0,0.1,0.1,0.1,0.2c0,0.5,0,1.6,0,1.8c0,0.1,0,0.2-0.1,0.2c-0.1,0-0.1,0-0.1-0.3
			l0-0.2c0-0.5-0.4-0.9-2-0.9l-2.1,0V9z"/>
		<path class="st10" d="M176.4,7.2c0-2.2,0-2.6,0-3c0-0.5-0.1-0.7-0.6-0.8c-0.1,0-0.4,0-0.5,0c0,0-0.1-0.1-0.1-0.1
			c0-0.1,0.1-0.1,0.2-0.1c0.7,0,1.6,0,1.7,0c0.1,0,3.1,0,3.4,0c0.3,0,0.5-0.1,0.7-0.1c0.1,0,0.1-0.1,0.2-0.1c0,0,0.1,0.1,0.1,0.1
			c0,0.1-0.1,0.3-0.1,0.7c0,0.1,0,0.8-0.1,0.9c0,0.1-0.1,0.1-0.1,0.1c-0.1,0-0.1-0.1-0.1-0.2c0-0.1,0-0.3-0.1-0.5
			c-0.1-0.2-0.2-0.3-1-0.4c-0.2,0-1.9,0-2.1,0c-0.1,0-0.1,0-0.1,0.1v3.8c0,0.1,0,0.1,0.1,0.1c0.2,0,2.1,0,2.4,0c0.3,0,0.6,0,0.7-0.2
			c0.1-0.1,0.2-0.2,0.2-0.2c0,0,0.1,0,0.1,0.1c0,0.1-0.1,0.3-0.1,0.8c0,0.3-0.1,0.8-0.1,0.9c0,0.1,0,0.3-0.1,0.3
			c-0.1,0-0.1,0-0.1-0.1c0-0.1,0-0.3-0.1-0.5c0-0.2-0.2-0.4-0.7-0.4c-0.4,0-1.9-0.1-2.2-0.1c-0.1,0-0.1,0-0.1,0.1v1.2
			c0,0.5,0,2.1,0,2.4c0,0.9,0.3,1.1,1.7,1.1c0.4,0,1.1,0,1.4-0.1c0.4-0.2,0.6-0.4,0.7-1c0-0.2,0.1-0.2,0.1-0.2
			c0.1,0,0.1,0.1,0.1,0.2c0,0.1-0.1,1-0.2,1.3c-0.1,0.4-0.2,0.4-0.8,0.4c-1.1,0-1.9,0-2.5,0c-0.6,0-1,0-1.2,0c0,0-0.3,0-0.6,0
			c-0.3,0-0.6,0-0.8,0c-0.1,0-0.2,0-0.2-0.1c0,0,0-0.1,0.1-0.1c0.1,0,0.3,0,0.4-0.1c0.3,0,0.3-0.3,0.4-0.7c0.1-0.6,0.1-1.7,0.1-3
			V7.2z"/>
		<path class="st10" d="M194.2,3.5c0.2-0.5,0.2-0.5,0.3-0.5c0.1,0,0.2,0.2,0.3,0.5c0.3,0.6,2.6,6.3,3.5,8.4c0.5,1.2,0.9,1.4,1.2,1.5
			c0.2,0.1,0.4,0.1,0.6,0.1c0.1,0,0.2,0,0.2,0.1c0,0.1-0.2,0.1-0.3,0.1c-0.2,0-1.3,0-2.3,0c-0.3,0-0.5,0-0.5-0.1
			c0-0.1,0-0.1,0.1-0.1c0.1,0,0.2-0.1,0.1-0.4l-1.3-3.2c0-0.1,0-0.1-0.1-0.1h-3.3c-0.1,0-0.1,0-0.1,0.1l-0.8,2.2
			c-0.1,0.3-0.2,0.7-0.2,0.9c0,0.3,0.2,0.4,0.5,0.4h0.1c0.1,0,0.1,0,0.1,0.1c0,0.1-0.1,0.1-0.2,0.1c-0.3,0-1.1,0-1.3,0
			c-0.1,0-0.9,0-1.5,0c-0.2,0-0.3,0-0.3-0.1c0-0.1,0.1-0.1,0.1-0.1c0.1,0,0.3,0,0.4,0c0.7-0.1,0.9-0.6,1.2-1.3L194.2,3.5z
			 M195.8,9.3C195.8,9.3,195.8,9.2,195.8,9.3l-1.4-3.9c-0.1-0.2-0.2-0.2-0.2,0l-1.3,3.8c0,0.1,0,0.1,0,0.1H195.8z"/>
		<path class="st10" d="M219.9,11.9c0,0.5,0.1,1.2,0.7,1.4c0.4,0.1,0.8,0.1,0.9,0.1c0.1,0,0.1,0,0.1,0.1c0,0.1-0.1,0.1-0.3,0.1
			c-0.3,0-1.9,0-2.5-0.1c-0.3,0-0.4-0.1-0.4-0.1c0,0,0-0.1,0.1-0.1c0.1,0,0.1-0.2,0.1-0.5l-0.7-7h0l-3.5,7.1
			c-0.3,0.6-0.4,0.7-0.5,0.7s-0.2-0.1-0.5-0.6c-0.4-0.7-1.3-2.5-1.7-3.2c-0.4-0.9-1.6-3.2-1.8-3.8h-0.1l-0.6,6.3c0,0.2,0,0.5,0,0.7
			c0,0.2,0.1,0.3,0.3,0.4c0.2,0.1,0.5,0.1,0.6,0.1c0,0,0.1,0,0.1,0.1c0,0.1-0.1,0.1-0.3,0.1c-0.5,0-1.2,0-1.3,0c-0.1,0-0.8,0-1.2,0
			c-0.1,0-0.2,0-0.2-0.1c0,0,0.1-0.1,0.1-0.1c0.1,0,0.2,0,0.4,0c0.5-0.1,0.5-0.6,0.6-1.1l1-9.1c0-0.1,0.1-0.2,0.2-0.2
			c0.1,0,0.2,0,0.3,0.2l4.4,8.6l4.2-8.6c0.1-0.1,0.1-0.2,0.2-0.2c0.1,0,0.2,0.1,0.2,0.4L219.9,11.9z"/>
	</g>
</g>
</svg>
