<?xml version="1.0" encoding="utf-8"?>
<!-- Generator: Adobe Illustrator 25.2.3, SVG Export Plug-In . SVG Version: 6.00 Build 0)  -->
<svg version="1.1" id="section2_title.svg" xmlns="http://www.w3.org/2000/svg" xmlns:xlink="http://www.w3.org/1999/xlink" x="0px"
	 y="0px" viewBox="0 0 314 117" style="enable-background:new 0 0 314 117;" xml:space="preserve">
<style type="text/css">
	.繪圖樣式{fill:url(#SVGID_1_);}
	.st0{fill:url(#SVGID_2_);}
	.st1{fill:url(#SVGID_3_);}
	.st2{fill:url(#SVGID_4_);}
	.st3{fill:url(#SVGID_5_);}
	.st4{fill:url(#SVGID_6_);}
	.st5{fill:url(#SVGID_7_);}
	.st6{fill:url(#SVGID_8_);}
	.st7{fill:url(#SVGID_9_);}
	.st8{fill:url(#SVGID_10_);}
	.st9{fill:#FFFFFF;}
</style>
<linearGradient id="SVGID_1_" gradientUnits="userSpaceOnUse" x1="0" y1="117" x2="0.8008" y2="117.599">
	<stop  offset="0" style="stop-color:#FAC859"/>
	<stop  offset="2.877487e-03" style="stop-color:#FACB64"/>
	<stop  offset="9.516122e-03" style="stop-color:#FBD176"/>
	<stop  offset="1.745736e-02" style="stop-color:#FCD582"/>
	<stop  offset="2.788930e-02" style="stop-color:#FCD78A"/>
	<stop  offset="5.042250e-02" style="stop-color:#FCD88C"/>
	<stop  offset="6.442444e-02" style="stop-color:#FCD681"/>
	<stop  offset="8.918270e-02" style="stop-color:#FBD163"/>
	<stop  offset="0.1216" style="stop-color:#FACA33"/>
	<stop  offset="0.1355" style="stop-color:#FAC61C"/>
	<stop  offset="0.1458" style="stop-color:#E6B417"/>
	<stop  offset="0.1638" style="stop-color:#C99B11"/>
	<stop  offset="0.184" style="stop-color:#B2860B"/>
	<stop  offset="0.207" style="stop-color:#9F7607"/>
	<stop  offset="0.2343" style="stop-color:#936A04"/>
	<stop  offset="0.2701" style="stop-color:#8B6402"/>
	<stop  offset="0.3475" style="stop-color:#896202"/>
	<stop  offset="0.6179" style="stop-color:#FAC859"/>
	<stop  offset="0.651" style="stop-color:#FACC64"/>
	<stop  offset="0.7093" style="stop-color:#FCD582"/>
	<stop  offset="0.7267" style="stop-color:#FCD88C"/>
	<stop  offset="0.7501" style="stop-color:#FCD481"/>
	<stop  offset="0.7914" style="stop-color:#FACB63"/>
	<stop  offset="0.8037" style="stop-color:#FAC859"/>
	<stop  offset="0.811" style="stop-color:#F2C153"/>
	<stop  offset="0.85" style="stop-color:#CC9F36"/>
	<stop  offset="0.8888" style="stop-color:#AF841F"/>
	<stop  offset="0.9271" style="stop-color:#9A710F"/>
	<stop  offset="0.9645" style="stop-color:#8D6605"/>
	<stop  offset="1" style="stop-color:#896202"/>
</linearGradient>
<g>
	<g>
		
			<image style="overflow:visible;opacity:0.4;" width="318" height="44" xlink:href="839A3EF5BCEB3063.png"  transform="matrix(1 0 0 1 -0.2519 37.7481)">
		</image>
		<g>
			<g>
				
					<linearGradient id="SVGID_2_" gradientUnits="userSpaceOnUse" x1="-239.4817" y1="-238.2025" x2="302.9054" y2="167.4766" gradientTransform="matrix(1 0 0 1 0 -2)">
					<stop  offset="0" style="stop-color:#FAC859"/>
					<stop  offset="2.877487e-03" style="stop-color:#FACB64"/>
					<stop  offset="9.516122e-03" style="stop-color:#FBD176"/>
					<stop  offset="1.745736e-02" style="stop-color:#FCD582"/>
					<stop  offset="2.788930e-02" style="stop-color:#FCD78A"/>
					<stop  offset="5.042250e-02" style="stop-color:#FCD88C"/>
					<stop  offset="6.442444e-02" style="stop-color:#FCD681"/>
					<stop  offset="8.918270e-02" style="stop-color:#FBD163"/>
					<stop  offset="0.1216" style="stop-color:#FACA33"/>
					<stop  offset="0.1355" style="stop-color:#FAC61C"/>
					<stop  offset="0.1458" style="stop-color:#E6B417"/>
					<stop  offset="0.1638" style="stop-color:#C99B11"/>
					<stop  offset="0.184" style="stop-color:#B2860B"/>
					<stop  offset="0.207" style="stop-color:#9F7607"/>
					<stop  offset="0.2343" style="stop-color:#936A04"/>
					<stop  offset="0.2701" style="stop-color:#8B6402"/>
					<stop  offset="0.3475" style="stop-color:#896202"/>
					<stop  offset="0.6179" style="stop-color:#FAC859"/>
					<stop  offset="0.651" style="stop-color:#FACC64"/>
					<stop  offset="0.7093" style="stop-color:#FCD582"/>
					<stop  offset="0.7267" style="stop-color:#FCD88C"/>
					<stop  offset="0.7501" style="stop-color:#FCD481"/>
					<stop  offset="0.7914" style="stop-color:#FACB63"/>
					<stop  offset="0.8037" style="stop-color:#FAC859"/>
					<stop  offset="0.811" style="stop-color:#F2C153"/>
					<stop  offset="0.85" style="stop-color:#CC9F36"/>
					<stop  offset="0.8888" style="stop-color:#AF841F"/>
					<stop  offset="0.9271" style="stop-color:#9A710F"/>
					<stop  offset="0.9645" style="stop-color:#8D6605"/>
					<stop  offset="1" style="stop-color:#896202"/>
				</linearGradient>
				<path class="st0" d="M31.8,62.2l3.6,2.6c-0.3,0.4-0.7,0.6-1.7,0.6h-6.2v4.3c0,2.4-0.6,4-4.8,4.4c0-2.5-1.1-3.1-4-3.3v-0.4h4.6
					c0.5,0,0.7-0.2,0.7-0.6v-4.3H3.3l-0.2-0.7h21v-3.1l3.4,0.2v-0.3H10.9v0.6c0,0.1-0.5,1.2-3.4,1.2V49.1l3.7,1.4h3.4
					c0.1-0.5,0.1-1,0.1-1.4v-2H3.4l-0.2-0.7h10.2c-0.2-0.1-0.4-0.2-0.6-0.3c-0.3-1.5-1.5-3.1-2.9-4l0.2-0.3c4.4-0.2,5.8,1.4,5.8,2.8
					c0,0.8-0.4,1.5-1.1,1.8h7.5c0.5-1.5,1.1-3.4,1.5-4.9l5.3,1.9c-0.1,0.3-0.4,0.4-0.9,0.4c-0.1,0-0.3,0-0.5,0
					c-1.1,0.8-2.8,1.8-4.3,2.6h6.4l1.9-2.5l3.6,2.6c-0.3,0.4-0.7,0.6-1.7,0.6H23.4v3.4h3.9l1.4-1.8l3.8,2.7
					c-0.2,0.3-0.7,0.6-1.4,0.7v9.3c0,0.2-1.2,0.8-2.3,1c-0.2,0.2-0.5,0.3-1.1,0.3v2h2.3L31.8,62.2z M8.8,66.4c5.3,0,7,1.9,7,3.5
					c0,1.1-0.8,2.1-1.9,2.1c-0.4,0-0.9-0.1-1.3-0.5c-0.6-1.8-2.2-3.8-3.9-4.8L8.8,66.4z M11.3,56.2c2.2-1.5,3-3.3,3.2-5h-3.7v6.3
					h16.7v-6.3h-4.2v1.1c0,0.8,0,0.9,0.3,0.9h1.1c0.5,0,0.8,0,1.4-1h0.2l0.1,1c0.9,0.4,1,0.6,1,1c0,1.1-0.9,1.6-2.7,1.6h-1.5
					c-2.8,0-3-0.4-3-3.5v-1.1h-2.9c-0.5,2-1.9,4.1-5.8,5.4L11.3,56.2z M10.9,60.8h16.7v-2.5H10.9V60.8z M17.7,47.1v2
					c0,0.4,0,0.9-0.1,1.4h2.8v-3.4H17.7z"/>
				
					<linearGradient id="SVGID_3_" gradientUnits="userSpaceOnUse" x1="-239.4817" y1="-238.2025" x2="302.9054" y2="167.4766" gradientTransform="matrix(1 0 0 1 0 -2)">
					<stop  offset="0" style="stop-color:#FAC859"/>
					<stop  offset="2.877487e-03" style="stop-color:#FACB64"/>
					<stop  offset="9.516122e-03" style="stop-color:#FBD176"/>
					<stop  offset="1.745736e-02" style="stop-color:#FCD582"/>
					<stop  offset="2.788930e-02" style="stop-color:#FCD78A"/>
					<stop  offset="5.042250e-02" style="stop-color:#FCD88C"/>
					<stop  offset="6.442444e-02" style="stop-color:#FCD681"/>
					<stop  offset="8.918270e-02" style="stop-color:#FBD163"/>
					<stop  offset="0.1216" style="stop-color:#FACA33"/>
					<stop  offset="0.1355" style="stop-color:#FAC61C"/>
					<stop  offset="0.1458" style="stop-color:#E6B417"/>
					<stop  offset="0.1638" style="stop-color:#C99B11"/>
					<stop  offset="0.184" style="stop-color:#B2860B"/>
					<stop  offset="0.207" style="stop-color:#9F7607"/>
					<stop  offset="0.2343" style="stop-color:#936A04"/>
					<stop  offset="0.2701" style="stop-color:#8B6402"/>
					<stop  offset="0.3475" style="stop-color:#896202"/>
					<stop  offset="0.6179" style="stop-color:#FAC859"/>
					<stop  offset="0.651" style="stop-color:#FACC64"/>
					<stop  offset="0.7093" style="stop-color:#FCD582"/>
					<stop  offset="0.7267" style="stop-color:#FCD88C"/>
					<stop  offset="0.7501" style="stop-color:#FCD481"/>
					<stop  offset="0.7914" style="stop-color:#FACB63"/>
					<stop  offset="0.8037" style="stop-color:#FAC859"/>
					<stop  offset="0.811" style="stop-color:#F2C153"/>
					<stop  offset="0.85" style="stop-color:#CC9F36"/>
					<stop  offset="0.8888" style="stop-color:#AF841F"/>
					<stop  offset="0.9271" style="stop-color:#9A710F"/>
					<stop  offset="0.9645" style="stop-color:#8D6605"/>
					<stop  offset="1" style="stop-color:#896202"/>
				</linearGradient>
				<path class="st1" d="M45.6,57l3,2.1c-0.2,0.2-0.6,0.5-1.2,0.6v10.6c0,2-0.4,3.4-3.3,3.7c0-2.1-0.6-2.5-2.3-2.8v-0.5h2.5
					c0.3,0,0.4-0.1,0.4-0.5v-3.1h-2.8c-0.4,2.4-1.6,5-4.2,6.9l-0.4-0.4c2.2-3.2,2.3-7.1,2.3-10.6v-5.9l3.1,1.3h1.7L45.6,57z
					 M60.4,47.8c0.9,0,1.8,0,2.2,0c0.4,0,1.3,0,2.3-0.3c0.1,0,0.2,0,0.3,0.1c1.7,0.3,2.1,0.4,2.1,0.9c0,1.1-0.7,1.3-7.3,1.3H47
					c-6,0-6.7-0.3-6.7-3v-3.7l3.8,1.5h7.6v-3l4.9,0.4c0,0.4-0.3,0.7-1.3,0.8v1.8h7.8l1.9-2.3l3.5,2.4c-0.3,0.4-0.7,0.6-1.7,0.6H43.7
					v1.5c0,1,0.1,1,3.1,1H60.4z M42.3,63c0,1.1,0,2.2-0.2,3.4h2.7V63H42.3z M65.2,55.8c0,0.2-1.8,0.9-2.8,0.9h-0.6v-1.2H45.5v0.4
					c0,0.1-0.6,1.1-3.4,1.1v-6.8l3.6,1.4h15.8l1.2-1.6l3.6,2.4c-0.2,0.2-0.6,0.4-1.1,0.6V55.8z M44.8,59.1h-2.5v3.2h2.5V59.1z
					 M45.5,54.8h16.3v-2.5H45.5V54.8z M69.2,67.8l0.1,3c0.8,0.3,0.9,0.5,0.9,1c0,1-0.7,1.7-2.4,1.7h-1.3c-2.3,0-2.4-0.8-2.4-3.4V67
					c-0.2,0.3-0.6,0.5-0.9,0.5c-0.3,0-0.7-0.2-0.9-0.5c0-1-0.4-2.4-1-3.4c0,3.2-0.2,7.6-5.4,10.4l-0.4-0.4c0.3-0.3,0.6-0.6,0.8-0.9
					c-0.1,0-0.2,0-0.3,0c-0.3,0-0.6-0.1-0.8-0.3c-0.3-0.9-1-2-1.8-2.6l0.2-0.3c0.2,0,0.4,0,0.6,0.1v-1.1h-2.7c0,0.8,0,0.9-0.6,1.2
					l2.5,1.3c-0.1,0.2-0.3,0.4-0.8,0.4c-0.1,0-0.3,0-0.5-0.1c-0.9,1-2.5,2.1-4.2,2.7l-0.4-0.6c1.1-0.9,2-2.3,2.6-3.5
					C49.8,70,49.6,70,48.9,70V57.2l2.8,1.2h2.2l1.1-1.4l3,2.1c-0.2,0.2-0.6,0.4-1.1,0.6v9.1c0,0.2-1.2,0.7-2,0.8
					c1.6,0.3,2.2,1,2.3,1.7c1.2-2.3,1.3-4.8,1.3-7.4v-6.8l3.2,1.3h2l1.2-1.6l3.1,2.4c-0.2,0.3-0.7,0.4-1.3,0.6v10.5
					c0,0.7,0,0.7,0.2,0.7c0.8,0,0.9,0,1-0.3c0.2-0.5,0.7-2,0.9-2.9H69.2z M54.2,59.1h-2.7v2.3h2.7V59.1z M54.2,64.6v-2.4h-2.7v2.4
					H54.2z M51.5,67.8h2.7v-2.5h-2.7V67.8z M61.2,59.1v3.7c1.6,0.8,2.4,1.6,2.8,2.4v-6.1H61.2z"/>
				
					<linearGradient id="SVGID_4_" gradientUnits="userSpaceOnUse" x1="-239.4817" y1="-238.2025" x2="302.9054" y2="167.4766" gradientTransform="matrix(1 0 0 1 0 -2)">
					<stop  offset="0" style="stop-color:#FAC859"/>
					<stop  offset="2.877487e-03" style="stop-color:#FACB64"/>
					<stop  offset="9.516122e-03" style="stop-color:#FBD176"/>
					<stop  offset="1.745736e-02" style="stop-color:#FCD582"/>
					<stop  offset="2.788930e-02" style="stop-color:#FCD78A"/>
					<stop  offset="5.042250e-02" style="stop-color:#FCD88C"/>
					<stop  offset="6.442444e-02" style="stop-color:#FCD681"/>
					<stop  offset="8.918270e-02" style="stop-color:#FBD163"/>
					<stop  offset="0.1216" style="stop-color:#FACA33"/>
					<stop  offset="0.1355" style="stop-color:#FAC61C"/>
					<stop  offset="0.1458" style="stop-color:#E6B417"/>
					<stop  offset="0.1638" style="stop-color:#C99B11"/>
					<stop  offset="0.184" style="stop-color:#B2860B"/>
					<stop  offset="0.207" style="stop-color:#9F7607"/>
					<stop  offset="0.2343" style="stop-color:#936A04"/>
					<stop  offset="0.2701" style="stop-color:#8B6402"/>
					<stop  offset="0.3475" style="stop-color:#896202"/>
					<stop  offset="0.6179" style="stop-color:#FAC859"/>
					<stop  offset="0.651" style="stop-color:#FACC64"/>
					<stop  offset="0.7093" style="stop-color:#FCD582"/>
					<stop  offset="0.7267" style="stop-color:#FCD88C"/>
					<stop  offset="0.7501" style="stop-color:#FCD481"/>
					<stop  offset="0.7914" style="stop-color:#FACB63"/>
					<stop  offset="0.8037" style="stop-color:#FAC859"/>
					<stop  offset="0.811" style="stop-color:#F2C153"/>
					<stop  offset="0.85" style="stop-color:#CC9F36"/>
					<stop  offset="0.8888" style="stop-color:#AF841F"/>
					<stop  offset="0.9271" style="stop-color:#9A710F"/>
					<stop  offset="0.9645" style="stop-color:#8D6605"/>
					<stop  offset="1" style="stop-color:#896202"/>
				</linearGradient>
				<path class="st2" d="M103.8,64.8l-0.4,5.8c0.8,1,1.1,1.6,1.1,2c0,0.3-0.4,1.4-1.8,1.4c-1.5,0-4.6-1.6-6.5-4.2
					c-2.6,2-5.5,3.1-8.6,3.8l-0.2-0.5c2.7-1.1,5.3-2.9,7.6-5.4c-1-1.9-1.7-4.2-2.2-6.8h-4.2c0,1.1-0.1,2.2-0.3,3.2
					c3.3,0.7,4.3,2.1,4.3,3.2c0,1-0.8,1.8-1.7,1.8c-0.4,0-0.9-0.2-1.3-0.7c-0.1-1.1-0.7-2.4-1.4-3.4c-0.7,3.5-2.2,6.6-6.3,9
					l-0.4-0.5c3.4-3.7,3.6-8,3.7-12.6h-1.1c-0.2,0.7-0.8,1.1-1.4,1.1c-0.4,0-0.9-0.2-1.2-0.7c0-1.5-0.7-3.6-1.6-5.1V73
					c0,0.1-0.4,1-3.3,1V60.4c-1.1,2-2.3,3.9-3.9,5.6l-0.5-0.5c2.1-4.1,3.3-9.4,3.9-14.6h-3.7l-0.2-0.7h4.3v-8.4l4.8,0.4
					c0,0.5-0.3,0.8-1.4,0.9v7.1h0.4l1.5-2.5l2.6,2.4c-0.3-1.1-1-2.3-1.8-3l0.3-0.2c0.7,0.1,1.3,0.3,1.8,0.5c0.4-1.5,0.9-3.7,1.3-5.6
					l4.1,1.3c-0.1,0.4-0.4,0.6-1.3,0.6c-1,1.3-2.2,2.9-3.2,4c1.1,0.6,1.5,1.3,1.5,2h0c0.4-1.1,0.8-2.3,1.2-3.4l3.2,1.2
					c-0.1-1.9-0.2-3.8-0.3-5.9l4.8,0.5c0,0.4-0.3,0.7-1.3,0.8c0.1,6.6,0.3,12.6,1.3,17.3h4.1l0.7-1c-0.3,0.2-0.6,0.3-1,0.3
					c-0.3,0-0.8-0.2-1.1-0.5c-0.1-0.8-0.6-1.7-1.2-2.2L96.9,57c-0.2,0.4-0.6,0.7-0.9,0.7l-1.2-3.3c0.4,0,1.1,0,1.8,0
					c0.5-1,1-2.2,1.5-3.4c-0.2,0.2-0.5,0.3-0.8,0.3c-0.4,0-0.8-0.2-1.2-0.6c-0.1-1.3-0.8-2.9-1.7-3.8l0.3-0.3
					c0.6,0.1,1.1,0.3,1.6,0.4c0.4-1.4,0.9-3.5,1.3-5.3l4.2,1.4c-0.1,0.4-0.4,0.6-1.3,0.6c-1,1.2-2.3,2.7-3.4,3.8
					c1.1,0.6,1.6,1.3,1.7,1.9c0.5-1.1,0.9-2.3,1.3-3.4l3.9,1.7c-0.2,0.3-0.5,0.6-1.3,0.5c-1.4,2.1-3.2,4.4-4.8,6.2
					c1,0,2.2-0.1,3.4-0.1c-0.2-0.8-0.6-1.6-0.9-2.1l0.3-0.2c2.7,1.3,3.6,2.7,3.6,3.9c0,1-0.7,1.7-1.5,1.7c-0.4,0-0.8-0.2-1.2-0.7
					c0-0.5,0-1.1-0.1-1.7l-3.4,1.4c2.1,0.2,2.8,1,2.8,1.7c0,0.1,0,0.2-0.1,0.4l0.4-0.6l3.2,2.4c-0.2,0.4-0.7,0.6-1.6,0.6h-7.2
					c0.3,1.5,0.7,2.8,1.2,4c0.7-1.1,1.3-2.3,1.9-3.6l4,2.1c-0.1,0.2-0.4,0.4-0.8,0.4c-0.2,0-0.4,0-0.6-0.1c-0.9,1.5-1.9,2.8-2.9,3.9
					c1.2,1.5,2.5,2.2,2.7,2.2c0.2,0,0.3-0.2,0.5-0.6c0.5-0.9,1.2-3,1.7-4.5L103.8,64.8z M79.5,55.6c3.3,1.5,4.4,3.3,4.3,4.6h8.6
					c-0.2-0.9-0.3-1.8-0.4-2.8c-0.3,0.3-0.7,0.5-1.1,0.5c-0.4,0-0.9-0.2-1.2-0.7c0-0.5-0.1-1.1-0.2-1.7c-1.1,0.6-2.8,1.2-4.9,2.1
					c-0.2,0.5-0.5,0.7-0.9,0.7l-1.4-3.3c0.6,0,1.3,0,2.3-0.1c0.6-1.2,1.2-2.8,1.8-4.3h0c-0.3,0.3-0.7,0.5-1.1,0.5
					c-0.4,0-0.8-0.1-1.1-0.5l0-0.3c-0.3,0.3-0.7,0.4-1.5,0.4h-3.1V55.6z M89.3,54.8c-0.3-0.8-0.6-1.5-1-2.1l0.3-0.2
					c1.4,0.6,2.4,1.3,3,1.9c-0.2-1.9-0.3-3.9-0.4-6h-0.5c-1.5,2.2-3.2,4.7-4.9,6.6L89.3,54.8z"/>
				
					<linearGradient id="SVGID_5_" gradientUnits="userSpaceOnUse" x1="-239.4817" y1="-238.2025" x2="302.9054" y2="167.4766" gradientTransform="matrix(1 0 0 1 0 -2)">
					<stop  offset="0" style="stop-color:#FAC859"/>
					<stop  offset="2.877487e-03" style="stop-color:#FACB64"/>
					<stop  offset="9.516122e-03" style="stop-color:#FBD176"/>
					<stop  offset="1.745736e-02" style="stop-color:#FCD582"/>
					<stop  offset="2.788930e-02" style="stop-color:#FCD78A"/>
					<stop  offset="5.042250e-02" style="stop-color:#FCD88C"/>
					<stop  offset="6.442444e-02" style="stop-color:#FCD681"/>
					<stop  offset="8.918270e-02" style="stop-color:#FBD163"/>
					<stop  offset="0.1216" style="stop-color:#FACA33"/>
					<stop  offset="0.1355" style="stop-color:#FAC61C"/>
					<stop  offset="0.1458" style="stop-color:#E6B417"/>
					<stop  offset="0.1638" style="stop-color:#C99B11"/>
					<stop  offset="0.184" style="stop-color:#B2860B"/>
					<stop  offset="0.207" style="stop-color:#9F7607"/>
					<stop  offset="0.2343" style="stop-color:#936A04"/>
					<stop  offset="0.2701" style="stop-color:#8B6402"/>
					<stop  offset="0.3475" style="stop-color:#896202"/>
					<stop  offset="0.6179" style="stop-color:#FAC859"/>
					<stop  offset="0.651" style="stop-color:#FACC64"/>
					<stop  offset="0.7093" style="stop-color:#FCD582"/>
					<stop  offset="0.7267" style="stop-color:#FCD88C"/>
					<stop  offset="0.7501" style="stop-color:#FCD481"/>
					<stop  offset="0.7914" style="stop-color:#FACB63"/>
					<stop  offset="0.8037" style="stop-color:#FAC859"/>
					<stop  offset="0.811" style="stop-color:#F2C153"/>
					<stop  offset="0.85" style="stop-color:#CC9F36"/>
					<stop  offset="0.8888" style="stop-color:#AF841F"/>
					<stop  offset="0.9271" style="stop-color:#9A710F"/>
					<stop  offset="0.9645" style="stop-color:#8D6605"/>
					<stop  offset="1" style="stop-color:#896202"/>
				</linearGradient>
				<path class="st3" d="M136.8,63.6l2.6,2.3c-0.3,0.4-0.7,0.6-1.6,0.6h-2.2v3.3c0,2.2-0.6,3.9-4.3,4.2c0-2.6-0.9-3.1-3.3-3.3v-0.4
					h3.8c0.4,0,0.5-0.1,0.5-0.5v-3.2h-9.7v6.3c0,0.1-0.4,1.2-3.2,1.2v-7.5h-3.2l-0.2-0.7h3.3v-9.8l3.4,1.4h2.9v-3.1h-8.5l-0.2-0.7
					h5.1v-3.3h-2.9c-0.1,0.1-0.2,0.3-0.5,0.3c-0.2,0.1-0.6,0.1-1.1,0.1h-3.5v4.5c3.6,1.3,4.8,3,4.8,4.3c0,1-0.8,1.8-1.7,1.8
					c-0.4,0-0.9-0.2-1.3-0.7c-0.1-1.5-0.9-3.5-1.8-4.9v17c0,0.1-0.4,1.1-3.4,1.1V60c-1.2,2.2-2.6,4.2-4.3,6l-0.4-0.4
					c2.3-4.1,3.6-9.4,4.2-14.7h-3.8l-0.2-0.7h4.5v-8.4l4.8,0.4c0,0.5-0.3,0.8-1.4,0.9v7.1h0.5l1.7-2.4l2.9,2.4l-0.1-0.5h3.1v-3.1
					H118l-0.2-0.7h4.3v-4.2l4.4,0.4c0,0.4-0.3,0.6-1.2,0.8v3h4v-4.2l4.5,0.4c0,0.4-0.3,0.7-1.3,0.8v3h0.8l1.6-2.1L138,46
					c-0.2,0.4-0.7,0.6-1.6,0.6h-3.9v3.1h0.4l1.5-2l2.8,2.1c-0.2,0.4-0.7,0.6-1.5,0.6h-3.2v3.3h1.5l1.6-2.1l3,2.2
					c-0.2,0.4-0.7,0.6-1.6,0.6h-8.2v3.1h3l1.3-1.7l3.6,2.6c-0.2,0.2-0.7,0.5-1.3,0.7v6.6L136.8,63.6z M125.7,58.2h-3.1v3.4h3.1V58.2
					z M122.6,62.3v3.6h3.1v-3.6H122.6z M125.3,46.6v3.1h4v-3.1H125.3z M125.3,53.7h4v-3.3h-4V53.7z M132.3,58.2h-3.3v3.4h3.3V58.2z
					 M128.9,65.9h3.3v-3.6h-3.3V65.9z"/>
				
					<linearGradient id="SVGID_6_" gradientUnits="userSpaceOnUse" x1="-239.4817" y1="-238.2025" x2="302.9054" y2="167.4766" gradientTransform="matrix(1 0 0 1 0 -2)">
					<stop  offset="0" style="stop-color:#FAC859"/>
					<stop  offset="2.877487e-03" style="stop-color:#FACB64"/>
					<stop  offset="9.516122e-03" style="stop-color:#FBD176"/>
					<stop  offset="1.745736e-02" style="stop-color:#FCD582"/>
					<stop  offset="2.788930e-02" style="stop-color:#FCD78A"/>
					<stop  offset="5.042250e-02" style="stop-color:#FCD88C"/>
					<stop  offset="6.442444e-02" style="stop-color:#FCD681"/>
					<stop  offset="8.918270e-02" style="stop-color:#FBD163"/>
					<stop  offset="0.1216" style="stop-color:#FACA33"/>
					<stop  offset="0.1355" style="stop-color:#FAC61C"/>
					<stop  offset="0.1458" style="stop-color:#E6B417"/>
					<stop  offset="0.1638" style="stop-color:#C99B11"/>
					<stop  offset="0.184" style="stop-color:#B2860B"/>
					<stop  offset="0.207" style="stop-color:#9F7607"/>
					<stop  offset="0.2343" style="stop-color:#936A04"/>
					<stop  offset="0.2701" style="stop-color:#8B6402"/>
					<stop  offset="0.3475" style="stop-color:#896202"/>
					<stop  offset="0.6179" style="stop-color:#FAC859"/>
					<stop  offset="0.651" style="stop-color:#FACC64"/>
					<stop  offset="0.7093" style="stop-color:#FCD582"/>
					<stop  offset="0.7267" style="stop-color:#FCD88C"/>
					<stop  offset="0.7501" style="stop-color:#FCD481"/>
					<stop  offset="0.7914" style="stop-color:#FACB63"/>
					<stop  offset="0.8037" style="stop-color:#FAC859"/>
					<stop  offset="0.811" style="stop-color:#F2C153"/>
					<stop  offset="0.85" style="stop-color:#CC9F36"/>
					<stop  offset="0.8888" style="stop-color:#AF841F"/>
					<stop  offset="0.9271" style="stop-color:#9A710F"/>
					<stop  offset="0.9645" style="stop-color:#8D6605"/>
					<stop  offset="1" style="stop-color:#896202"/>
				</linearGradient>
				<path class="st4" d="M157.5,40.6v34.4h-1.1V40.6H157.5z"/>
				
					<linearGradient id="SVGID_7_" gradientUnits="userSpaceOnUse" x1="-239.4817" y1="-238.2025" x2="302.9054" y2="167.4766" gradientTransform="matrix(1 0 0 1 0 -2)">
					<stop  offset="0" style="stop-color:#FAC859"/>
					<stop  offset="2.877487e-03" style="stop-color:#FACB64"/>
					<stop  offset="9.516122e-03" style="stop-color:#FBD176"/>
					<stop  offset="1.745736e-02" style="stop-color:#FCD582"/>
					<stop  offset="2.788930e-02" style="stop-color:#FCD78A"/>
					<stop  offset="5.042250e-02" style="stop-color:#FCD88C"/>
					<stop  offset="6.442444e-02" style="stop-color:#FCD681"/>
					<stop  offset="8.918270e-02" style="stop-color:#FBD163"/>
					<stop  offset="0.1216" style="stop-color:#FACA33"/>
					<stop  offset="0.1355" style="stop-color:#FAC61C"/>
					<stop  offset="0.1458" style="stop-color:#E6B417"/>
					<stop  offset="0.1638" style="stop-color:#C99B11"/>
					<stop  offset="0.184" style="stop-color:#B2860B"/>
					<stop  offset="0.207" style="stop-color:#9F7607"/>
					<stop  offset="0.2343" style="stop-color:#936A04"/>
					<stop  offset="0.2701" style="stop-color:#8B6402"/>
					<stop  offset="0.3475" style="stop-color:#896202"/>
					<stop  offset="0.6179" style="stop-color:#FAC859"/>
					<stop  offset="0.651" style="stop-color:#FACC64"/>
					<stop  offset="0.7093" style="stop-color:#FCD582"/>
					<stop  offset="0.7267" style="stop-color:#FCD88C"/>
					<stop  offset="0.7501" style="stop-color:#FCD481"/>
					<stop  offset="0.7914" style="stop-color:#FACB63"/>
					<stop  offset="0.8037" style="stop-color:#FAC859"/>
					<stop  offset="0.811" style="stop-color:#F2C153"/>
					<stop  offset="0.85" style="stop-color:#CC9F36"/>
					<stop  offset="0.8888" style="stop-color:#AF841F"/>
					<stop  offset="0.9271" style="stop-color:#9A710F"/>
					<stop  offset="0.9645" style="stop-color:#8D6605"/>
					<stop  offset="1" style="stop-color:#896202"/>
				</linearGradient>
				<path class="st5" d="M204,62.2l3.6,2.6c-0.3,0.4-0.7,0.6-1.7,0.6h-6.2v4.3c0,2.4-0.6,4-4.8,4.4c0-2.5-1.1-3.1-4-3.3v-0.4h4.6
					c0.5,0,0.7-0.2,0.7-0.6v-4.3h-20.8l-0.2-0.7h21v-3.1l3.4,0.2v-0.3H183v0.6c0,0.1-0.5,1.2-3.4,1.2V49.1l3.7,1.4h3.4
					c0.1-0.5,0.1-1,0.1-1.4v-2h-11.3l-0.2-0.7h10.2c-0.2-0.1-0.4-0.2-0.6-0.3c-0.3-1.5-1.5-3.1-2.9-4l0.2-0.3
					c4.4-0.2,5.8,1.4,5.8,2.8c0,0.8-0.4,1.5-1.1,1.8h7.5c0.5-1.5,1.1-3.4,1.5-4.9l5.3,1.9c-0.1,0.3-0.4,0.4-0.9,0.4
					c-0.1,0-0.3,0-0.5,0c-1.1,0.8-2.8,1.8-4.3,2.6h6.4L204,44l3.6,2.6c-0.3,0.4-0.7,0.6-1.7,0.6h-10.4v3.4h3.9l1.4-1.8l3.8,2.7
					c-0.2,0.3-0.7,0.6-1.4,0.7v9.3c0,0.2-1.2,0.8-2.3,1c-0.2,0.2-0.5,0.3-1.1,0.3v2h2.3L204,62.2z M180.9,66.4c5.3,0,7,1.9,7,3.5
					c0,1.1-0.8,2.1-1.9,2.1c-0.4,0-0.9-0.1-1.3-0.5c-0.6-1.8-2.2-3.8-3.9-4.8L180.9,66.4z M183.5,56.2c2.2-1.5,3-3.3,3.2-5H183v6.3
					h16.7v-6.3h-4.2v1.1c0,0.8,0,0.9,0.3,0.9h1.1c0.5,0,0.8,0,1.4-1h0.2l0.1,1c0.9,0.4,1,0.6,1,1c0,1.1-0.9,1.6-2.7,1.6h-1.5
					c-2.8,0-3-0.4-3-3.5v-1.1h-2.9c-0.5,2-1.9,4.1-5.8,5.4L183.5,56.2z M183,60.8h16.7v-2.5H183V60.8z M189.8,47.1v2
					c0,0.4,0,0.9-0.1,1.4h2.8v-3.4H189.8z"/>
				
					<linearGradient id="SVGID_8_" gradientUnits="userSpaceOnUse" x1="-239.4817" y1="-238.2025" x2="302.9054" y2="167.4766" gradientTransform="matrix(1 0 0 1 0 -2)">
					<stop  offset="0" style="stop-color:#FAC859"/>
					<stop  offset="2.877487e-03" style="stop-color:#FACB64"/>
					<stop  offset="9.516122e-03" style="stop-color:#FBD176"/>
					<stop  offset="1.745736e-02" style="stop-color:#FCD582"/>
					<stop  offset="2.788930e-02" style="stop-color:#FCD78A"/>
					<stop  offset="5.042250e-02" style="stop-color:#FCD88C"/>
					<stop  offset="6.442444e-02" style="stop-color:#FCD681"/>
					<stop  offset="8.918270e-02" style="stop-color:#FBD163"/>
					<stop  offset="0.1216" style="stop-color:#FACA33"/>
					<stop  offset="0.1355" style="stop-color:#FAC61C"/>
					<stop  offset="0.1458" style="stop-color:#E6B417"/>
					<stop  offset="0.1638" style="stop-color:#C99B11"/>
					<stop  offset="0.184" style="stop-color:#B2860B"/>
					<stop  offset="0.207" style="stop-color:#9F7607"/>
					<stop  offset="0.2343" style="stop-color:#936A04"/>
					<stop  offset="0.2701" style="stop-color:#8B6402"/>
					<stop  offset="0.3475" style="stop-color:#896202"/>
					<stop  offset="0.6179" style="stop-color:#FAC859"/>
					<stop  offset="0.651" style="stop-color:#FACC64"/>
					<stop  offset="0.7093" style="stop-color:#FCD582"/>
					<stop  offset="0.7267" style="stop-color:#FCD88C"/>
					<stop  offset="0.7501" style="stop-color:#FCD481"/>
					<stop  offset="0.7914" style="stop-color:#FACB63"/>
					<stop  offset="0.8037" style="stop-color:#FAC859"/>
					<stop  offset="0.811" style="stop-color:#F2C153"/>
					<stop  offset="0.85" style="stop-color:#CC9F36"/>
					<stop  offset="0.8888" style="stop-color:#AF841F"/>
					<stop  offset="0.9271" style="stop-color:#9A710F"/>
					<stop  offset="0.9645" style="stop-color:#8D6605"/>
					<stop  offset="1" style="stop-color:#896202"/>
				</linearGradient>
				<path class="st6" d="M242.4,56.4c-1.2,0.3-2.1,1.3-2.4,2.8c-1.1-0.6-2.1-1.4-3-2.3c-0.3,0.2-0.7,0.3-1.3,0.3h-3.1v2.3h1.3
					l1.3-1.7l2.5,1.8c-0.2,0.4-0.7,0.6-1.5,0.6h-3.6v2.3h1.6l1.3-1.7l2.6,1.8c-0.2,0.5-0.7,0.6-1.5,0.6h-4.1v2.3h4.3l1.2-1.4
					l3.1,2.3c-0.2,0.3-0.6,0.4-1.2,0.6c-0.5,5.8-1.5,7.2-5.2,7.2c0-1.7-0.6-2.1-2.3-2.4v-0.5c0.7,0,2.1,0,2.7,0c0.4,0,0.7,0,0.9-0.1
					c0.5-0.4,0.9-1.9,1.1-4.8h-10.2v0.2c0,0.2-1,1-2.5,1h-0.5v-9.9c-1.1,0.8-2.2,1.5-3.5,2.2l-0.2-0.3v10.6c0,2.2-0.4,3.8-3.8,4.1
					c0-2.3-0.3-3-2.3-3.2v-0.4h2.6c0.3,0,0.4-0.1,0.4-0.5v-9.1h-2.8c-0.3,4.6-1.2,9.5-4.1,13.2l-0.5-0.2c1.7-5.1,1.7-11,1.7-18.9
					V42.5l3.7,1.4h1.8l1.3-1.7l3.4,2.4c-0.2,0.2-0.7,0.5-1.2,0.6v13.8c2.1-1.7,3.8-3.7,5-5.9h-4.3l-0.2-0.7h4.9
					c0.6-1.1,1-2.3,1.4-3.4h-5l-0.2-0.7h5.4c0.7-2.2,1.1-4.6,1.3-6.8l4.9,1c-0.1,0.4-0.4,0.7-1.3,0.7c-0.4,1.7-0.9,3.4-1.5,5.1h2.3
					c0.8-1.8,1.7-4.3,2.2-6.1l4.3,1.5c-0.1,0.3-0.4,0.4-0.8,0.4c-0.1,0-0.3,0-0.5,0c-1.1,1.3-2.7,2.9-4.3,4.2h2.4l1.7-2.1l3.2,2.2
					c-0.2,0.5-0.7,0.6-1.6,0.6h-6c0.7,1.3,1.6,2.4,2.7,3.4h1.1l1.7-2.2l3.3,2.3c-0.2,0.4-0.7,0.6-1.6,0.6h-3.8
					c1.7,1.3,3.7,2.3,5.6,2.9L242.4,56.4z M214.5,54.8c0,1.7,0,3.4-0.1,5.3h2.7v-7.5h-2.6V54.8z M217.1,44.6h-2.6v7.3h2.6V44.6z
					 M224.5,68c0.3,0.9,0.4,1.7,0.4,2.3c0,1.8-0.9,3.3-2.4,3.3c-0.8,0-1.4-0.5-1.4-1.1c0-0.6,0.5-1.1,1.1-1.4c0.9-0.5,1.9-1.8,1.8-3
					H224.5z M222.9,42.3c3,1.1,4,2.5,4,3.6c0,1-0.8,1.8-1.7,1.8c-0.5,0-1-0.2-1.4-0.8c0.1-1.4-0.4-3.3-1.2-4.4L222.9,42.3z
					 M235.9,55.8c-0.7-0.8-1.2-1.7-1.7-2.7h-6.3c-0.7,1-1.4,1.9-2.3,2.8l1.7,0.7h5.7l1.4-1.8L235.9,55.8z M226.7,67.9
					c1.4,1.2,2,2.4,2,3.3c0,1.1-0.7,1.8-1.4,1.8c-0.4,0-0.8-0.2-1-0.7c0.3-1.3,0.3-3.2,0.1-4.3L226.7,67.9z M229.6,59.5v-2.3h-2.7
					v2.3H229.6z M229.6,62.5v-2.3h-2.7v2.3H229.6z M229.6,65.5v-2.3h-2.7v2.3H229.6z M233.9,52.4c-0.5-1.1-0.9-2.2-1.2-3.4h-2.4
					c-0.5,1.2-1.1,2.3-1.8,3.4H233.9z M229.4,67.6c2.3,0.9,3,2.1,3,3c0,0.8-0.6,1.4-1.3,1.4c-0.3,0-0.7-0.1-1-0.5
					c0.1-1.2-0.4-2.8-1.1-3.7L229.4,67.6z M232.5,67.1c2.4,0.2,3.3,1.1,3.3,1.9c0,0.7-0.6,1.2-1.2,1.2c-0.3,0-0.6-0.1-0.9-0.4
					c-0.2-0.8-0.8-1.9-1.4-2.5L232.5,67.1z"/>
				
					<linearGradient id="SVGID_9_" gradientUnits="userSpaceOnUse" x1="-239.4817" y1="-238.2025" x2="302.9054" y2="167.4766" gradientTransform="matrix(1 0 0 1 0 -2)">
					<stop  offset="0" style="stop-color:#FAC859"/>
					<stop  offset="2.877487e-03" style="stop-color:#FACB64"/>
					<stop  offset="9.516122e-03" style="stop-color:#FBD176"/>
					<stop  offset="1.745736e-02" style="stop-color:#FCD582"/>
					<stop  offset="2.788930e-02" style="stop-color:#FCD78A"/>
					<stop  offset="5.042250e-02" style="stop-color:#FCD88C"/>
					<stop  offset="6.442444e-02" style="stop-color:#FCD681"/>
					<stop  offset="8.918270e-02" style="stop-color:#FBD163"/>
					<stop  offset="0.1216" style="stop-color:#FACA33"/>
					<stop  offset="0.1355" style="stop-color:#FAC61C"/>
					<stop  offset="0.1458" style="stop-color:#E6B417"/>
					<stop  offset="0.1638" style="stop-color:#C99B11"/>
					<stop  offset="0.184" style="stop-color:#B2860B"/>
					<stop  offset="0.207" style="stop-color:#9F7607"/>
					<stop  offset="0.2343" style="stop-color:#936A04"/>
					<stop  offset="0.2701" style="stop-color:#8B6402"/>
					<stop  offset="0.3475" style="stop-color:#896202"/>
					<stop  offset="0.6179" style="stop-color:#FAC859"/>
					<stop  offset="0.651" style="stop-color:#FACC64"/>
					<stop  offset="0.7093" style="stop-color:#FCD582"/>
					<stop  offset="0.7267" style="stop-color:#FCD88C"/>
					<stop  offset="0.7501" style="stop-color:#FCD481"/>
					<stop  offset="0.7914" style="stop-color:#FACB63"/>
					<stop  offset="0.8037" style="stop-color:#FAC859"/>
					<stop  offset="0.811" style="stop-color:#F2C153"/>
					<stop  offset="0.85" style="stop-color:#CC9F36"/>
					<stop  offset="0.8888" style="stop-color:#AF841F"/>
					<stop  offset="0.9271" style="stop-color:#9A710F"/>
					<stop  offset="0.9645" style="stop-color:#8D6605"/>
					<stop  offset="1" style="stop-color:#896202"/>
				</linearGradient>
				<path class="st7" d="M252.8,53l3.3,2.8c-0.2,0.3-0.6,0.4-1.3,0.6c-0.5,3.6-1.3,7.1-3.1,10.2c3.7,2.8,9,3.4,16.7,3.4
					c1.8,0,5.8,0,7.9,0v0.4c-1.4,0.3-2.1,1.5-2.2,2.9h-6c-8.3,0-13.8-1-17.5-5c-1.5,2.2-3.7,4.2-6.5,5.8l-0.2-0.5
					c2.4-2,4.1-4.5,5.2-7.3c-1.1-1.9-2.1-4.1-2.9-7l0.4-0.2c0.8,2.3,1.9,4.2,3.1,5.6c0.9-2.8,1.4-5.9,1.6-9H249
					c-0.3,0.7-0.6,1.3-0.9,1.9c-0.3,0.1-0.7,0.1-1.1,0.1c-0.6,0-1.3-0.1-2.2-0.4c1.7-3.8,3.7-8.6,4.9-11.8h-5.2l-0.2-0.7h5.3
					l1.6-1.8l3.4,2.9c-0.2,0.3-0.8,0.5-1.6,0.6c-0.8,2.1-2.3,5.5-3.7,8.5h1.8L252.8,53z M274.2,47.6l2.8,2.6
					c-0.3,0.4-0.7,0.6-1.6,0.6h-3v5.1c0,0.1-1,0.9-3.4,0.9v-1.5h-3.5v3.9h3.3l1.8-2.4l3.4,2.5c-0.3,0.4-0.7,0.6-1.6,0.6h-6.9v3.9
					h4.3l2-2.6l3.8,2.7c-0.2,0.4-0.7,0.6-1.7,0.6h-8.5v3.7c0,0-0.4,1-3.5,1v-4.7h-7.7l-0.2-0.7h7.9v-3.9h-6.2l-0.2-0.7h6.4v-3.9
					h-5.6l-0.2-0.7h5.8v-3.9h-8.2l-0.2-0.7h8.4v-3.8h-5.5l-0.2-0.7h5.8v-4.1l4.9,0.4c-0.1,0.5-0.4,0.7-1.4,0.9v2.8h3.2l1.3-1.8
					l3.8,2.7c-0.2,0.2-0.7,0.6-1.4,0.7v2.9h0.3L274.2,47.6z M265.5,46.3v3.8h3.5v-3.8H265.5z M269,54.6v-3.9h-3.5v3.9H269z"/>
				
					<linearGradient id="SVGID_10_" gradientUnits="userSpaceOnUse" x1="-239.4817" y1="-238.2025" x2="302.9054" y2="167.4766" gradientTransform="matrix(1 0 0 1 0 -2)">
					<stop  offset="0" style="stop-color:#FAC859"/>
					<stop  offset="2.877487e-03" style="stop-color:#FACB64"/>
					<stop  offset="9.516122e-03" style="stop-color:#FBD176"/>
					<stop  offset="1.745736e-02" style="stop-color:#FCD582"/>
					<stop  offset="2.788930e-02" style="stop-color:#FCD78A"/>
					<stop  offset="5.042250e-02" style="stop-color:#FCD88C"/>
					<stop  offset="6.442444e-02" style="stop-color:#FCD681"/>
					<stop  offset="8.918270e-02" style="stop-color:#FBD163"/>
					<stop  offset="0.1216" style="stop-color:#FACA33"/>
					<stop  offset="0.1355" style="stop-color:#FAC61C"/>
					<stop  offset="0.1458" style="stop-color:#E6B417"/>
					<stop  offset="0.1638" style="stop-color:#C99B11"/>
					<stop  offset="0.184" style="stop-color:#B2860B"/>
					<stop  offset="0.207" style="stop-color:#9F7607"/>
					<stop  offset="0.2343" style="stop-color:#936A04"/>
					<stop  offset="0.2701" style="stop-color:#8B6402"/>
					<stop  offset="0.3475" style="stop-color:#896202"/>
					<stop  offset="0.6179" style="stop-color:#FAC859"/>
					<stop  offset="0.651" style="stop-color:#FACC64"/>
					<stop  offset="0.7093" style="stop-color:#FCD582"/>
					<stop  offset="0.7267" style="stop-color:#FCD88C"/>
					<stop  offset="0.7501" style="stop-color:#FCD481"/>
					<stop  offset="0.7914" style="stop-color:#FACB63"/>
					<stop  offset="0.8037" style="stop-color:#FAC859"/>
					<stop  offset="0.811" style="stop-color:#F2C153"/>
					<stop  offset="0.85" style="stop-color:#CC9F36"/>
					<stop  offset="0.8888" style="stop-color:#AF841F"/>
					<stop  offset="0.9271" style="stop-color:#9A710F"/>
					<stop  offset="0.9645" style="stop-color:#8D6605"/>
					<stop  offset="1" style="stop-color:#896202"/>
				</linearGradient>
				<path class="st8" d="M290.4,46.2l3.2,2.3c-0.2,0.4-0.7,0.6-1.6,0.6h-13.4l-0.2-0.7h10.3L290.4,46.2z M280.1,52.9h6.8l1.6-2.1
					l3.1,2.2c-0.3,0.4-0.7,0.6-1.6,0.6h-9.7L280.1,52.9z M291.6,57.5c-0.3,0.4-0.7,0.6-1.6,0.6h-9.7l-0.2-0.7h6.8l1.7-2.1
					L291.6,57.5z M292.5,62.8c-0.2,0.2-0.7,0.6-1.3,0.7v8.1c0,0.1-0.9,1-3.4,1v-2.3h-4.3v2.4c0,0-0.5,1.2-3.3,1.2V60.6l3.5,1.4h3.8
					l1.3-1.7L292.5,62.8z M291.7,44.2c-0.2,0.4-0.7,0.6-1.6,0.6h-9.7l-0.2-0.7h6.5l1.7-2.2L291.7,44.2z M283.5,69.6h4.3v-6.9h-4.3
					V69.6z M305.7,55.5l3.5,3.1c-0.2,0.3-0.6,0.5-1.4,0.5c-1.2,3-2.9,5.7-5.2,8c2.5,1.5,5.4,2.6,8.5,3.3l0,0.4
					c-1.6,0.3-2.7,1.4-3.3,3.2c-3-1.2-5.5-2.8-7.6-4.9c-2.7,2.1-6,3.7-10.1,4.9l-0.2-0.5c3.6-1.5,6.5-3.7,8.8-6.2
					c-1.8-2.4-3.1-5.4-3.9-9.2h-1.8l-0.2-0.7h10.7L305.7,55.5z M298.1,46.4c0,2.8-0.6,7.4-6.1,10.1l-0.3-0.4c2.7-3,3-6.7,3-9.7v-3.9
					l4,1.4h3.7l1.4-1.8l3.5,2.7c-0.2,0.2-0.7,0.4-1.2,0.5v6c0,0.5,0,0.6,0.4,0.6h1.5c0.2,0,0.4,0,0.6-0.3c0.3-0.5,0.8-2,1.1-3h0.3
					l0,3.1c0.9,0.4,1,0.6,1,1.2c0,1.2-0.8,2-3,2h-2.2c-2.8,0-3-0.8-3-3.8v-6.5h-4.6V46.4z M295.4,58.2c1,3,2.7,5.3,4.9,7.2
					c1.6-2.2,2.7-4.6,3.5-7.2H295.4z"/>
			</g>
		</g>
	</g>
	<g>
		<path class="st9" d="M8.4,7.7c0,1.6,0,2.9,0.1,3.5c0,0.5,0.1,0.8,0.6,0.9c0.2,0,0.6,0.1,0.7,0.1c0.1,0,0.1,0,0.1,0.1
			c0,0.1-0.1,0.1-0.3,0.1c-0.9,0-1.9,0-2,0c-0.1,0-1.1,0-1.6,0c-0.2,0-0.3,0-0.3-0.1c0,0,0-0.1,0.1-0.1c0.1,0,0.3,0,0.5-0.1
			c0.3-0.1,0.4-0.4,0.5-0.9C7,10.5,7,9.2,7,7.7V0.7l-2.4,0c-1,0-1.4,0.1-1.7,0.5C2.8,1.6,2.7,1.7,2.7,1.8C2.6,1.9,2.6,2,2.5,2
			c0,0-0.1,0-0.1-0.1c0-0.2,0.3-1.6,0.4-1.7c0-0.1,0.1-0.3,0.2-0.3C3-0.2,3.2,0,3.7,0c0.5,0,1.1,0.1,1.3,0.1h6.1
			c0.5,0,0.9,0,1.2-0.1c0.2,0,0.4-0.1,0.5-0.1c0.1,0,0.1,0.1,0.1,0.2c0,0.5,0,1.6,0,1.8c0,0.1,0,0.2-0.1,0.2c-0.1,0-0.1,0-0.1-0.3
			l0-0.2c0-0.5-0.4-0.9-2-0.9l-2.1,0V7.7z"/>
		<path class="st9" d="M30.8,8.4c0,1.3,0,2.4,0.1,3c0,0.4,0.1,0.7,0.5,0.7c0.2,0,0.5,0.1,0.6,0.1c0.1,0,0.1,0.1,0.1,0.1
			c0,0.1-0.1,0.1-0.2,0.1c-0.8,0-1.7,0-1.8,0c-0.1,0-1,0-1.4,0c-0.2,0-0.2,0-0.2-0.1c0,0,0-0.1,0.1-0.1c0.1,0,0.3,0,0.4-0.1
			c0.3-0.1,0.3-0.3,0.4-0.8c0.1-0.6,0.1-1.6,0.1-3V7c0-0.1,0-0.1-0.1-0.1h-6c0,0-0.1,0-0.1,0.1v1.4c0,1.3,0,2.4,0.1,3
			c0,0.4,0.1,0.7,0.5,0.7c0.2,0,0.5,0.1,0.7,0.1c0.1,0,0.1,0.1,0.1,0.1c0,0.1-0.1,0.1-0.2,0.1c-0.8,0-1.7,0-1.8,0c-0.1,0-1,0-1.4,0
			c-0.1,0-0.2,0-0.2-0.1c0,0,0-0.1,0.1-0.1c0.1,0,0.3,0,0.4-0.1c0.3-0.1,0.3-0.3,0.4-0.7c0.1-0.6,0.1-1.7,0.1-3V5.9c0-2.2,0-2.6,0-3
			c0-0.5-0.1-0.7-0.6-0.8c-0.1,0-0.4,0-0.5,0c0,0-0.1-0.1-0.1-0.1c0-0.1,0.1-0.1,0.2-0.1c0.7,0,1.6,0,1.7,0c0.1,0,1,0,1.4,0
			c0.2,0,0.2,0,0.2,0.1c0,0-0.1,0.1-0.1,0.1c-0.1,0-0.2,0-0.4,0c-0.4,0.1-0.5,0.3-0.5,0.8c0,0.4,0,0.9,0,3v0.3c0,0.1,0,0.1,0.1,0.1
			h6c0,0,0.1,0,0.1-0.1V5.9c0-2.2,0-2.6,0-3c0-0.5-0.1-0.7-0.6-0.8c-0.1,0-0.4,0-0.5,0c-0.1,0-0.1-0.1-0.1-0.1
			c0-0.1,0.1-0.1,0.2-0.1c0.6,0,1.6,0,1.6,0c0.1,0,1,0,1.4,0c0.2,0,0.2,0,0.2,0.1c0,0-0.1,0.1-0.1,0.1c-0.1,0-0.2,0-0.4,0
			c-0.4,0.1-0.5,0.3-0.5,0.8c0,0.4,0,0.8,0,3V8.4z"/>
		<path class="st9" d="M42.1,5.9c0-2.2,0-2.6,0-3c0-0.5-0.1-0.7-0.6-0.8c-0.1,0-0.4,0-0.5,0c0,0-0.1-0.1-0.1-0.1
			c0-0.1,0.1-0.1,0.2-0.1c0.7,0,1.6,0,1.7,0c0.1,0,3.1,0,3.4,0c0.3,0,0.5-0.1,0.7-0.1c0.1,0,0.1-0.1,0.2-0.1c0,0,0.1,0.1,0.1,0.1
			c0,0.1-0.1,0.3-0.1,0.7c0,0.1,0,0.8-0.1,0.9c0,0.1-0.1,0.1-0.1,0.1c-0.1,0-0.1-0.1-0.1-0.2c0-0.1,0-0.3-0.1-0.5
			c-0.1-0.2-0.2-0.3-1-0.4c-0.2,0-1.9,0-2.1,0c-0.1,0-0.1,0-0.1,0.1v3.8c0,0.1,0,0.1,0.1,0.1c0.2,0,2.1,0,2.4,0c0.3,0,0.6,0,0.7-0.2
			c0.1-0.1,0.2-0.2,0.2-0.2c0,0,0.1,0,0.1,0.1c0,0.1-0.1,0.3-0.1,0.8c0,0.3-0.1,0.8-0.1,0.9c0,0.1,0,0.3-0.1,0.3
			c-0.1,0-0.1,0-0.1-0.1c0-0.1,0-0.3-0.1-0.5c0-0.2-0.2-0.4-0.7-0.4c-0.4,0-1.9-0.1-2.2-0.1c-0.1,0-0.1,0-0.1,0.1v1.2
			c0,0.5,0,2.1,0,2.4c0,0.9,0.3,1.1,1.7,1.1c0.4,0,1.1,0,1.4-0.1c0.4-0.2,0.6-0.4,0.7-1c0-0.2,0.1-0.2,0.1-0.2
			c0.1,0,0.1,0.1,0.1,0.2c0,0.1-0.1,1-0.2,1.3c-0.1,0.4-0.2,0.4-0.8,0.4c-1.1,0-1.9,0-2.5,0c-0.6,0-1,0-1.2,0c0,0-0.3,0-0.6,0
			c-0.3,0-0.6,0-0.8,0c-0.1,0-0.2,0-0.2-0.1c0,0,0-0.1,0.1-0.1c0.1,0,0.3,0,0.4-0.1c0.3,0,0.3-0.3,0.4-0.7c0.1-0.6,0.1-1.7,0.1-3
			V5.9z"/>
		<path class="st9" d="M69.9,4.8c0-2.6,0-3,0-3.5c0-0.6-0.2-0.8-0.7-0.9c-0.1,0-0.4,0-0.6,0c-0.1,0-0.1,0-0.1-0.1
			c0-0.1,0.1-0.1,0.3-0.1c0.4,0,0.8,0,1.2,0l0.7,0c0.1,0,3.4,0,3.7,0c0.3,0,0.6,0,0.7-0.1c0.1,0,0.1-0.1,0.2-0.1
			c0,0,0.1,0.1,0.1,0.1c0,0.1-0.1,0.3-0.1,0.8c0,0.2,0,0.9-0.1,1.1c0,0.1,0,0.2-0.1,0.2c-0.1,0-0.1-0.1-0.1-0.2c0-0.1,0-0.4-0.1-0.6
			c-0.1-0.3-0.3-0.5-1.2-0.6c-0.3,0-2.1,0-2.2,0c-0.1,0-0.1,0-0.1,0.2v4.5c0,0.1,0,0.2,0.1,0.2c0.2,0,2.2,0,2.6,0
			c0.4,0,0.6-0.1,0.8-0.2C74.9,5.1,74.9,5,75,5c0,0,0.1,0,0.1,0.1c0,0.1-0.1,0.4-0.1,0.9c0,0.3-0.1,0.9-0.1,1c0,0.1,0,0.3-0.1,0.3
			c-0.1,0-0.1-0.1-0.1-0.1c0-0.2,0-0.3-0.1-0.5c-0.1-0.2-0.2-0.5-0.9-0.6c-0.4,0-2.1-0.1-2.3-0.1c-0.1,0-0.1,0-0.1,0.1v1.4
			c0,0.6,0,2.5,0,2.8c0,1.1,0.3,1.3,1.9,1.3c0.4,0,1.1,0,1.6-0.2c0.4-0.2,0.6-0.5,0.7-1.2c0-0.2,0.1-0.2,0.1-0.2
			c0.1,0,0.1,0.1,0.1,0.2c0,0.1-0.1,1.2-0.2,1.6c-0.1,0.4-0.2,0.4-0.9,0.4c-1.2,0-2.1,0-2.8,0c-0.6,0-1,0-1.3,0c0,0-0.3,0-0.7,0
			c-0.3,0-0.7,0-0.9,0c-0.2,0-0.3,0-0.3-0.1c0,0,0-0.1,0.1-0.1c0.1,0,0.3,0,0.5-0.1c0.3-0.1,0.4-0.4,0.5-0.9c0.1-0.7,0.1-2,0.1-3.5
			V4.8z"/>
		<path class="st9" d="M87.4,8.4c0,2,0,2.9,0.3,3.1c0.2,0.2,0.8,0.3,1.9,0.3c0.8,0,1.4,0,1.7-0.4c0.2-0.2,0.3-0.5,0.3-0.8
			c0-0.1,0.1-0.2,0.1-0.2c0.1,0,0.1,0.1,0.1,0.2c0,0.1-0.1,1-0.2,1.4c-0.1,0.3-0.1,0.4-0.9,0.4c-1,0-1.8,0-2.5,0c-0.7,0-1.1,0-1.6,0
			c-0.1,0-0.3,0-0.6,0c-0.3,0-0.6,0-0.8,0c-0.1,0-0.2,0-0.2-0.1c0,0,0-0.1,0.1-0.1c0.1,0,0.3,0,0.4-0.1c0.3-0.1,0.3-0.3,0.4-0.7
			c0.1-0.6,0.1-1.7,0.1-3V5.9c0-2.2,0-2.6,0-3c0-0.5-0.1-0.7-0.6-0.8c-0.1,0-0.4,0-0.5,0c0,0-0.1-0.1-0.1-0.1c0-0.1,0.1-0.1,0.2-0.1
			c0.7,0,1.6,0,1.6,0c0.1,0,1.1,0,1.6,0c0.1,0,0.2,0,0.2,0.1c0,0-0.1,0.1-0.1,0.1c-0.1,0-0.3,0-0.5,0c-0.4,0.1-0.5,0.3-0.5,0.8
			c0,0.4,0,0.8,0,3V8.4z"/>
		<path class="st9" d="M102.7,8.4c0,1.3,0,2.4,0.1,3c0,0.4,0.1,0.7,0.5,0.7c0.2,0,0.5,0.1,0.7,0.1c0.1,0,0.1,0.1,0.1,0.1
			c0,0.1-0.1,0.1-0.2,0.1c-0.8,0-1.7,0-1.8,0c-0.1,0-1,0-1.4,0c-0.1,0-0.2,0-0.2-0.1c0,0,0-0.1,0.1-0.1c0.1,0,0.3,0,0.4-0.1
			c0.3-0.1,0.3-0.3,0.4-0.7c0.1-0.6,0.1-1.7,0.1-3V5.9c0-2.2,0-2.6,0-3c0-0.5-0.1-0.7-0.5-0.8c-0.2,0-0.3,0-0.4,0
			c-0.1,0-0.1-0.1-0.1-0.1c0-0.1,0.1-0.1,0.2-0.1c0.5,0,1.4,0,1.5,0c0.1,0,1,0,1.4,0c0.2,0,0.2,0,0.2,0.1c0,0-0.1,0.1-0.1,0.1
			c-0.1,0-0.2,0-0.4,0c-0.4,0.1-0.5,0.3-0.5,0.8c0,0.4,0,0.8,0,3V8.4z"/>
		<path class="st9" d="M117.4,8.4c0,1.3,0,2.4,0.1,3c0,0.4,0.1,0.7,0.6,0.7c0.2,0,0.5,0.1,0.7,0.1c0.1,0,0.1,0.1,0.1,0.1
			c0,0.1-0.1,0.1-0.2,0.1c-0.8,0-1.7,0-1.8,0c-0.1,0-1.1,0-1.5,0c-0.2,0-0.2,0-0.2-0.1c0,0,0-0.1,0.1-0.1c0.1,0,0.3,0,0.4-0.1
			c0.3-0.1,0.4-0.3,0.4-0.8c0.1-0.6,0.1-1.7,0.1-3V2.5l-2.1,0c-0.9,0-1.2,0.1-1.5,0.4c-0.2,0.2-0.2,0.3-0.2,0.4
			c0,0.1-0.1,0.1-0.1,0.1c0,0-0.1,0-0.1-0.1c0-0.1,0.3-1.4,0.3-1.5c0-0.1,0.1-0.3,0.1-0.3c0.1,0,0.2,0.1,0.6,0.2
			c0.4,0,1,0.1,1.1,0.1h5.4c0.5,0,0.8,0,1-0.1c0.2,0,0.3-0.1,0.4-0.1s0.1,0.1,0.1,0.2c0,0.4,0,1.4,0,1.6c0,0.1-0.1,0.2-0.1,0.2
			s-0.1,0-0.1-0.2l0-0.1c0-0.4-0.4-0.7-1.7-0.8l-1.8,0V8.4z"/>
		<path class="st9" d="M130.8,5.9c0-2.2,0-2.6,0-3c0-0.5-0.1-0.7-0.6-0.8c-0.1,0-0.4,0-0.5,0c0,0-0.1-0.1-0.1-0.1
			c0-0.1,0.1-0.1,0.2-0.1c0.7,0,1.6,0,1.7,0c0.1,0,3.1,0,3.4,0c0.3,0,0.5-0.1,0.7-0.1c0.1,0,0.1-0.1,0.2-0.1c0,0,0.1,0.1,0.1,0.1
			c0,0.1-0.1,0.3-0.1,0.7c0,0.1,0,0.8-0.1,0.9c0,0.1-0.1,0.1-0.1,0.1c-0.1,0-0.1-0.1-0.1-0.2c0-0.1,0-0.3-0.1-0.5
			c-0.1-0.2-0.2-0.3-1-0.4c-0.2,0-1.9,0-2.1,0c-0.1,0-0.1,0-0.1,0.1v3.8c0,0.1,0,0.1,0.1,0.1c0.2,0,2.1,0,2.4,0c0.3,0,0.6,0,0.7-0.2
			c0.1-0.1,0.2-0.2,0.2-0.2c0,0,0.1,0,0.1,0.1c0,0.1-0.1,0.3-0.1,0.8c0,0.3-0.1,0.8-0.1,0.9c0,0.1,0,0.3-0.1,0.3
			c-0.1,0-0.1,0-0.1-0.1c0-0.1,0-0.3-0.1-0.5c0-0.2-0.2-0.4-0.7-0.4c-0.4,0-1.9-0.1-2.2-0.1c-0.1,0-0.1,0-0.1,0.1v1.2
			c0,0.5,0,2.1,0,2.4c0,0.9,0.3,1.1,1.7,1.1c0.4,0,1.1,0,1.4-0.1c0.4-0.2,0.6-0.4,0.7-1c0-0.2,0.1-0.2,0.1-0.2
			c0.1,0,0.1,0.1,0.1,0.2c0,0.1-0.1,1-0.2,1.3c-0.1,0.4-0.2,0.4-0.8,0.4c-1.1,0-1.9,0-2.5,0c-0.6,0-1,0-1.2,0c0,0-0.3,0-0.6,0
			c-0.3,0-0.6,0-0.8,0c-0.1,0-0.2,0-0.2-0.1c0,0,0-0.1,0.1-0.1c0.1,0,0.3,0,0.4-0.1c0.3,0,0.3-0.3,0.4-0.7c0.1-0.6,0.1-1.7,0.1-3
			V5.9z"/>
		<path class="st9" d="M162.1,7.7c0,1.6,0,2.9,0.1,3.5c0,0.5,0.1,0.8,0.6,0.9c0.2,0,0.6,0.1,0.7,0.1c0.1,0,0.1,0,0.1,0.1
			c0,0.1-0.1,0.1-0.3,0.1c-0.9,0-1.9,0-2,0c-0.1,0-1.1,0-1.6,0c-0.2,0-0.3,0-0.3-0.1c0,0,0-0.1,0.1-0.1c0.1,0,0.3,0,0.5-0.1
			c0.3-0.1,0.4-0.4,0.5-0.9c0.1-0.7,0.1-2,0.1-3.5V0.7l-2.4,0c-1,0-1.4,0.1-1.7,0.5c-0.2,0.3-0.2,0.4-0.3,0.5c0,0.1-0.1,0.2-0.2,0.2
			c0,0-0.1,0-0.1-0.1c0-0.2,0.3-1.6,0.4-1.7c0-0.1,0.1-0.3,0.2-0.3c0.1,0,0.3,0.2,0.7,0.2c0.5,0,1.1,0.1,1.3,0.1h6.1
			c0.5,0,0.9,0,1.2-0.1c0.2,0,0.4-0.1,0.5-0.1c0.1,0,0.1,0.1,0.1,0.2c0,0.5,0,1.6,0,1.8c0,0.1,0,0.2-0.1,0.2c-0.1,0-0.1,0-0.1-0.3
			l0-0.2c0-0.5-0.4-0.9-2-0.9l-2.1,0V7.7z"/>
		<path class="st9" d="M175.7,5.9c0-2.2,0-2.6,0-3c0-0.5-0.1-0.7-0.6-0.8c-0.1,0-0.4,0-0.5,0c0,0-0.1-0.1-0.1-0.1
			c0-0.1,0.1-0.1,0.2-0.1c0.7,0,1.6,0,1.7,0c0.1,0,3.1,0,3.4,0c0.3,0,0.5-0.1,0.7-0.1c0.1,0,0.1-0.1,0.2-0.1c0,0,0.1,0.1,0.1,0.1
			c0,0.1-0.1,0.3-0.1,0.7c0,0.1,0,0.8-0.1,0.9c0,0.1-0.1,0.1-0.1,0.1c-0.1,0-0.1-0.1-0.1-0.2c0-0.1,0-0.3-0.1-0.5
			c-0.1-0.2-0.2-0.3-1-0.4c-0.2,0-1.9,0-2.1,0c-0.1,0-0.1,0-0.1,0.1v3.8c0,0.1,0,0.1,0.1,0.1c0.2,0,2.1,0,2.4,0c0.3,0,0.6,0,0.7-0.2
			c0.1-0.1,0.2-0.2,0.2-0.2s0.1,0,0.1,0.1c0,0.1-0.1,0.3-0.1,0.8c0,0.3-0.1,0.8-0.1,0.9c0,0.1,0,0.3-0.1,0.3c-0.1,0-0.1,0-0.1-0.1
			c0-0.1,0-0.3-0.1-0.5c0-0.2-0.2-0.4-0.7-0.4c-0.4,0-1.9-0.1-2.2-0.1c-0.1,0-0.1,0-0.1,0.1v1.2c0,0.5,0,2.1,0,2.4
			c0,0.9,0.3,1.1,1.7,1.1c0.4,0,1.1,0,1.4-0.1c0.4-0.2,0.6-0.4,0.7-1c0-0.2,0.1-0.2,0.1-0.2c0.1,0,0.1,0.1,0.1,0.2
			c0,0.1-0.1,1-0.2,1.3c-0.1,0.4-0.2,0.4-0.8,0.4c-1.1,0-1.9,0-2.5,0c-0.6,0-1,0-1.2,0c0,0-0.3,0-0.6,0c-0.3,0-0.6,0-0.8,0
			c-0.1,0-0.2,0-0.2-0.1c0,0,0-0.1,0.1-0.1c0.1,0,0.3,0,0.4-0.1c0.3,0,0.3-0.3,0.4-0.7c0.1-0.6,0.1-1.7,0.1-3V5.9z"/>
		<path class="st9" d="M193.5,2.2c0.2-0.5,0.2-0.5,0.3-0.5c0.1,0,0.2,0.2,0.3,0.5c0.3,0.6,2.6,6.3,3.5,8.4c0.5,1.2,0.9,1.4,1.2,1.5
			c0.2,0.1,0.4,0.1,0.6,0.1c0.1,0,0.2,0,0.2,0.1s-0.2,0.1-0.3,0.1c-0.2,0-1.3,0-2.3,0c-0.3,0-0.5,0-0.5-0.1c0-0.1,0-0.1,0.1-0.1
			c0.1,0,0.2-0.1,0.1-0.4l-1.3-3.2c0-0.1,0-0.1-0.1-0.1H192c-0.1,0-0.1,0-0.1,0.1l-0.8,2.2c-0.1,0.3-0.2,0.7-0.2,0.9
			c0,0.3,0.2,0.4,0.5,0.4h0.1c0.1,0,0.1,0,0.1,0.1c0,0.1-0.1,0.1-0.2,0.1c-0.3,0-1.1,0-1.3,0c-0.1,0-0.9,0-1.5,0
			c-0.2,0-0.3,0-0.3-0.1c0-0.1,0.1-0.1,0.1-0.1c0.1,0,0.3,0,0.4,0c0.7-0.1,0.9-0.6,1.2-1.3L193.5,2.2z M195.1,8
			C195.1,8,195.1,7.9,195.1,8L193.7,4c-0.1-0.2-0.2-0.2-0.2,0l-1.3,3.8c0,0.1,0,0.1,0,0.1H195.1z"/>
		<path class="st9" d="M219.2,10.6c0,0.5,0.1,1.2,0.7,1.4c0.4,0.1,0.8,0.1,0.9,0.1c0.1,0,0.1,0,0.1,0.1c0,0.1-0.1,0.1-0.3,0.1
			c-0.3,0-1.9,0-2.5-0.1c-0.3,0-0.4-0.1-0.4-0.1c0,0,0-0.1,0.1-0.1c0.1,0,0.1-0.2,0.1-0.5l-0.7-7h0l-3.5,7.1
			c-0.3,0.6-0.4,0.7-0.5,0.7s-0.2-0.1-0.5-0.6c-0.4-0.7-1.3-2.5-1.7-3.2c-0.4-0.9-1.6-3.2-1.8-3.8h-0.1l-0.6,6.3c0,0.2,0,0.5,0,0.7
			c0,0.2,0.1,0.3,0.3,0.4c0.2,0.1,0.5,0.1,0.6,0.1c0,0,0.1,0,0.1,0.1c0,0.1-0.1,0.1-0.3,0.1c-0.5,0-1.2,0-1.3,0c-0.1,0-0.8,0-1.2,0
			c-0.1,0-0.2,0-0.2-0.1c0,0,0.1-0.1,0.1-0.1c0.1,0,0.2,0,0.4,0c0.5-0.1,0.5-0.6,0.6-1.1l1-9.1c0-0.1,0.1-0.2,0.2-0.2
			c0.1,0,0.2,0,0.3,0.2l4.4,8.6l4.2-8.6c0.1-0.1,0.1-0.2,0.2-0.2c0.1,0,0.2,0.1,0.2,0.4L219.2,10.6z"/>
	</g>
	<g>
		<path class="st9" d="M25.1,106.7c-0.2,0.3-0.5,0.5-1.2,0.5h-8.9c1.8,3.1,5.6,4.4,10.4,4.8l0,0.3c-0.8,0.2-1.3,0.9-1.5,1.8
			c-4.8-1.1-7.8-2.9-9.3-6.9h-0.3c-0.9,3.2-3.2,5.4-11.1,6.9l-0.2-0.5c6.1-1.7,8.3-3.7,9.1-6.5H3.1l-0.1-0.5h9.2
			c0.2-1,0.3-2.1,0.4-3.3l3.1,0.2c0,0.3-0.2,0.5-0.9,0.6c-0.1,0.9-0.2,1.7-0.4,2.5h7.1l1.3-1.6L25.1,106.7z M3.1,102.6h9.8v-3H5.2
			l-0.1-0.5h7.8v-2.9H4l-0.1-0.5h12.3c0.6-1.2,1.4-2.9,1.8-4.1l2.8,1.1c-0.1,0.2-0.3,0.3-0.6,0.3c-0.1,0-0.2,0-0.3,0
			c-0.7,0.8-1.9,1.9-3,2.7h4l1.2-1.6l2.3,1.6c-0.2,0.3-0.5,0.5-1.1,0.5h-8.4v2.9h4.9l1.2-1.5l2.2,1.5c-0.2,0.4-0.5,0.5-1.2,0.5h-7.2
			v3h6.5l1.3-1.6l2.3,1.7c-0.2,0.3-0.5,0.5-1.2,0.5H3.3L3.1,102.6z M7.9,91.7c2.6,0.7,3.4,1.8,3.4,2.7c0,0.7-0.5,1.3-1.1,1.3
			c-0.3,0-0.6-0.1-0.9-0.4c-0.1-1.1-0.8-2.6-1.6-3.3L7.9,91.7z"/>
		<path class="st9" d="M35.1,96.2l2,1.8c-0.2,0.2-0.4,0.3-0.9,0.4c-0.3,3.2-0.8,6.2-2,8.9c1.8,1.1,2.4,2.4,2.4,3.2
			c0,0.6-0.3,1-0.8,1c-0.2,0-0.4-0.1-0.7-0.2c-0.4-0.8-1-1.6-1.8-2.4c-1.3,2.1-3.2,3.9-6,5.2l-0.2-0.4c2.4-1.6,4-3.6,5.1-5.9
			c-0.9-0.7-1.8-1.4-2.7-1.9l-0.3,1.3c-0.2,0.2-0.6,0.3-1,0.3c-0.3,0-0.6,0-1-0.1c0.6-2.1,1.4-6,2-9.5h-2.2l-0.2-0.5h2.4
			c0.4-2.2,0.8-4.3,0.9-5.7L33,92c0,0.3-0.2,0.5-0.9,0.6c-0.2,1.1-0.5,2.8-0.9,4.8h2.8L35.1,96.2z M31.1,97.8
			c-0.5,2.5-1,5.3-1.5,7.5c1.2,0.3,2.3,0.7,3.2,1.1c0.9-2.6,1.3-5.5,1.5-8.6H31.1z M47.4,100.7l2.2,1.6c-0.2,0.3-0.5,0.5-1.2,0.5
			h-5.1v8.4c0,1.5-0.3,2.6-2.9,2.8c0-1.6-0.8-1.8-2.6-2v-0.4H41c0.4,0,0.5-0.1,0.5-0.5v-8.4H36l-0.1-0.5h5.6v-4l1.6,0.1
			c1-1.2,2.1-3,2.8-4.2h-9.1l-0.2-0.5H46l1.2-1.2l2,1.9c-0.2,0.2-0.5,0.2-1,0.2c-1.1,1-2.9,2.7-4.4,3.8l0.7,0c0,0.3-0.2,0.5-1,0.6
			v3.2h2.8L47.4,100.7z"/>
		<path class="st9" d="M57,99.7l2,1.7c-0.1,0.2-0.4,0.3-0.9,0.4c-0.3,2.6-0.9,5.1-2.1,7.3c2.6,2.2,6.3,2.7,11.8,2.7
			c1.3,0,4.1,0,5.6,0v0.3c-0.8,0.1-1.2,0.8-1.3,1.5h-4.6c-5.8,0-9.6-0.7-12.1-3.6c-1,1.6-2.5,3-4.4,4.1l-0.2-0.4
			c1.7-1.3,2.9-3,3.7-4.9c-0.8-1.3-1.5-2.8-2.1-4.8l0.3-0.2c0.6,1.7,1.3,3,2.1,4c0.7-2,1.1-4.3,1.3-6.5h-2.3l-0.7,1.4
			c-0.2,0-0.4,0.1-0.6,0.1c-0.4,0-0.7-0.1-1.2-0.3c1.3-2.6,2.7-6,3.6-8.3h-3.9L51,93.7h4l1-1.1l2,1.8c-0.2,0.2-0.6,0.3-1.1,0.4
			c-0.6,1.5-1.7,3.9-2.7,6H56L57,99.7z M71.9,96l1.9,1.6c-0.2,0.3-0.5,0.5-1.1,0.5h-2.1v3.6c0,0-0.6,0.6-1.8,0.6v-1h-3.2v2.7h2.9
			l1.1-1.5l2.1,1.5c-0.2,0.4-0.5,0.5-1.1,0.5h-5v2.7h3.8l1.2-1.6l2.3,1.6c-0.2,0.3-0.5,0.5-1.1,0.5h-6.3v2.7c0,0.1-0.2,0.6-1.9,0.6
			v-3.3h-5.9l-0.1-0.5h6v-2.7h-4.8l-0.1-0.5h5v-2.7h-4.4l-0.2-0.6h4.5V98h-6.3l-0.1-0.6h6.4v-2.6h-4.3l-0.2-0.6h4.5v-2.7l2.9,0.2
			c0,0.3-0.3,0.5-1,0.6v1.9h2.9l0.8-1.1l2.3,1.6c-0.2,0.2-0.5,0.4-1,0.5v2.1h0.3L71.9,96z M65.6,94.9v2.6h3.2v-2.6H65.6z
			 M68.8,100.7V98h-3.2v2.7H68.8z"/>
		<path class="st9" d="M97.5,107.1c-0.2,0.3-0.5,0.5-1.2,0.5h-8.5c2.3,2,6.4,3.5,9.9,4.1l0,0.3c-0.8,0.1-1.4,0.8-1.6,1.8
			c-3.5-1.2-6.9-3.3-8.9-6.1v5.8c0,0-0.3,0.6-1.9,0.6v-5.6c-2.5,2.4-6.1,4.2-10.2,5.4l-0.2-0.4c3.4-1.4,6.5-3.6,8.5-5.8h-8.1
			l-0.1-0.5h10.2v-2.6c-0.9,0.6-2,1.1-3.7,1.5l-0.2-0.3c3.6-1.5,4.3-3.4,4.3-5.3v-3.2l2.1,0.9h4l0.8-1l2.1,1.6
			c-0.1,0.2-0.4,0.3-0.8,0.4v3.9c0,0.4,0,0.4,0.3,0.4h1.3c0.2,0,0.3,0,0.4-0.2c0.2-0.3,0.5-1.4,0.7-2.1h0.2l0,2.2
			c0.6,0.2,0.7,0.3,0.7,0.7c0,0.6-0.5,1.1-1.9,1.1h-1.7c-1.7,0-1.9-0.4-1.9-2.1v-4.2h-4.6v1.7c0,1.3-0.3,2.8-2,4.1l2.7,0.2
			c0,0.3-0.2,0.5-0.9,0.6v1.9H94l1.2-1.5L97.5,107.1z M80.9,94.5c1.2,0.6,1.6,1.3,1.6,1.8c0,0.6-0.4,1-0.9,1c-0.3,0-0.5-0.1-0.7-0.4
			c-0.1-0.8-0.5-1.7-1-2.4h-1.2c-0.9,1.4-2.1,2.5-3.2,3.2l-0.3-0.3c1.1-1.3,2.2-3.5,2.9-5.9l2.6,0.9c-0.1,0.3-0.3,0.4-0.9,0.4
			c-0.2,0.4-0.4,0.7-0.6,1.1h4.2l1-1.4l2,1.4c-0.2,0.3-0.5,0.5-1.1,0.5H80.9z M84.6,102.5c-1.7,0.7-4.2,1.5-7.7,2.6
			c-0.1,0.3-0.3,0.5-0.6,0.5l-1.1-2.1c0.8-0.1,2-0.2,3.5-0.5V99h-3.3l-0.2-0.5h6l1-1.3l2,1.4C84.3,98.9,84,99,83.3,99h-2.7v3.8
			l3.9-0.6L84.6,102.5z M88.1,94.5c-1.1,1.2-2.4,2.2-3.6,2.9l-0.3-0.3c1.2-1.2,2.5-3.3,3.4-5.5l2.6,1.2c-0.1,0.3-0.4,0.4-0.9,0.3
			c-0.2,0.3-0.4,0.6-0.7,0.9h5.5l1.2-1.5l2.2,1.6c-0.2,0.3-0.5,0.5-1.1,0.5H91c1.2,0.5,1.7,1.2,1.7,1.8c0,0.6-0.5,1.1-1,1.1
			c-0.3,0-0.6-0.1-0.8-0.4c-0.1-0.8-0.7-1.8-1.2-2.5H88.1z M87.8,99.9c2.6,0.4,3.4,1.5,3.4,2.2c0,0.6-0.4,1-0.8,1
			c-0.2,0-0.5-0.1-0.7-0.3c-0.2-1-1.2-2.1-2-2.7L87.8,99.9z"/>
		<path class="st9" d="M99.8,114.3c0.8-0.4,1.5-1.2,1.7-2.3c-0.1,0-0.2,0-0.4,0c-0.9,0-1.6-0.7-1.6-1.7c0-1,0.8-1.7,1.7-1.7
			c1,0,1.9,0.8,1.9,2.1c0,1.7-1.1,3.5-2.8,4.2L99.8,114.3z"/>
		<path class="st9" d="M120.4,108.4c0,0-0.2,0.5-1.4,0.5v-3.8c-0.1,0.4-0.4,0.6-0.8,0.6c-0.2,0-0.5-0.1-0.7-0.4
			c-0.1-1.1-0.7-2.5-1.3-3.4v11.4c0,0.1-0.2,0.6-1.8,0.6v-10.3c-0.7,1.7-1.7,3.3-2.9,4.8l-0.4-0.3c1.5-2.9,2.4-6.6,2.9-10.2h-2.7
			l-0.2-0.5h3.2v-5.8l2.8,0.2c0,0.3-0.3,0.5-1,0.6v4.9h0.5l1-1.5l1.8,1.6c-0.2,0.3-0.5,0.5-1.1,0.5h-2.3v3.4
			c1.8,0.9,2.6,1.9,2.8,2.7v-4.3l1.6,0.7h1.4l0.6-0.8l1.8,1.3c-0.1,0.1-0.4,0.3-0.8,0.4v6.2c0,0.1-0.4,0.5-1.5,0.5v-1.2h-1.8V108.4z
			 M130.3,112.6l1.2-1.5l2.2,1.5c-0.2,0.4-0.5,0.5-1.1,0.5h-14.7l-0.2-0.5H130.3z M131.7,98.2l1.9,1.6c-0.2,0.2-0.4,0.3-0.9,0.4
			c-0.3,2.2-0.8,4.4-1.9,6.3c0.8,1,1.8,1.8,2.9,2.5l0,0.2c-0.8,0.1-1.4,0.6-1.7,1.5c-0.9-0.8-1.6-1.6-2.2-2.6
			c-0.8,1.1-1.9,2.1-3.2,2.9l-0.2-0.4c1.2-1.1,2.1-2.3,2.8-3.7c-0.8-1.9-1.2-4.2-1.4-7h-0.7c-0.1,7-0.4,10.2-1.4,11.1
			c-0.6,0.6-1.3,0.8-2.5,0.8c0-0.9-0.1-1.4-2-1.7c0-0.2,0-0.3,0-0.4c0.7,0,1.9,0.1,2.4,0.1c0.4,0,0.5,0,0.7-0.3
			c0.6-0.6,0.9-4.1,1-11.1h-2l-0.2,0.9c-0.3,0.1-0.6,0.2-0.9,0.2c-0.3,0-0.6,0-1-0.1c0.5-1.6,1-3.8,1.3-5.2h-4.1l-0.1-0.6h11.9
			l1.2-1.5l2.2,1.6c-0.2,0.3-0.5,0.5-1.2,0.5h-7.9c-0.2,1-0.6,2.4-0.9,3.7h1.6l0.9-1.1l2.1,1.6c-0.2,0.2-0.5,0.3-1,0.4v0.5h3.6
			L131.7,98.2z M122.2,101.1h-1.8v5.3h1.8V101.1z M128.3,99.8c0.3,2.1,0.8,3.8,1.6,5.3c0.5-1.7,0.8-3.5,1-5.3H128.3z"/>
		<path class="st9" d="M141.7,109.7c1.7-0.3,3.5-0.6,5.4-0.9l0.1,0.4c-2.3,0.9-5.7,2.1-10.3,3.5c-0.1,0.3-0.4,0.5-0.6,0.6l-1-2.6
			c1-0.1,2.6-0.3,4.6-0.7v-4.6h-3.9l-0.1-0.5h4.1v-3.4l3,0.3c0,0.4-0.3,0.5-1,0.6v2.5h1.4l1.2-1.6l2.2,1.6c-0.2,0.4-0.5,0.5-1.1,0.5
			h-3.7V109.7z M142.3,96.7c2.9,0.9,3.9,2.4,3.9,3.4c0,0.7-0.5,1.2-1,1.2c-0.2,0-0.5-0.1-0.8-0.4c0-0.4-0.1-0.9-0.3-1.3
			c-1.8,0.5-4.1,1.2-7.2,2c-0.1,0.3-0.4,0.5-0.6,0.5l-0.9-2.5c0.6,0,1.3,0,2.3-0.1c0.5-1.5,1.1-3.6,1.4-5.2h-3.5l-0.1-0.6h8.2
			l1.2-1.5l2.3,1.6c-0.2,0.3-0.5,0.5-1.1,0.5h-4.6c-0.8,1.7-1.9,3.8-2.9,5.2c1.5-0.1,3.4-0.3,5.3-0.4c-0.4-0.8-1.1-1.7-1.7-2.2
			L142.3,96.7z M158,97.2c-0.2,0.3-0.5,0.5-1.1,0.5h-1c-0.6,3.9-1.6,7.2-3.4,10c1.4,1.9,3.3,3.5,5.7,4.6l-0.1,0.2
			c-0.9,0.2-1.5,0.7-1.8,1.5c-2.1-1.3-3.6-3-4.8-5c-1.7,2-3.9,3.7-7,5l-0.1-0.4c2.9-1.6,4.9-3.6,6.4-6c-1.2-2.4-1.9-5.1-2.4-8.1
			c-0.8,1.5-1.7,2.7-2.7,3.7l-0.4-0.2c1.5-2.5,2.8-7,3.4-11.4l3,0.7c-0.1,0.3-0.3,0.5-0.9,0.5c-0.4,1.5-0.8,3-1.4,4.3h5.2l1.2-1.6
			L158,97.2z M148.6,98.8c0.6,2.7,1.5,5.2,2.8,7.4c1.2-2.5,1.9-5.3,2.3-8.5h-4.5L148.6,98.8z"/>
		<path class="st9" d="M166.9,95l2.1,1.5c-0.2,0.4-0.5,0.5-1.1,0.5h-8.6l-0.1-0.5h6.7L166.9,95z M167.6,93.4
			c-0.2,0.4-0.5,0.5-1.1,0.5h-6.1l-0.2-0.5h4.3l1.1-1.4L167.6,93.4z M160.3,99.5h4.6l1-1.3l1.9,1.4c-0.2,0.3-0.5,0.5-1.1,0.5h-6.2
			L160.3,99.5z M167.7,102.7c-0.2,0.3-0.5,0.5-1.1,0.5h-6.2l-0.1-0.5h4.6l1-1.3L167.7,102.7z M165.9,104.8l2.2,1.6
			c-0.1,0.2-0.5,0.4-1,0.5v5.8c0,0-0.5,0.6-1.8,0.6v-1.5h-3.3v1.8c0,0-0.3,0.7-1.8,0.7V105l1.9,0.8h3L165.9,104.8z M162.1,111.1h3.3
			v-4.7h-3.3V111.1z M170.2,106.6c0.3,0.9,0.4,1.7,0.4,2.4c0,1.7-0.7,3.4-2.1,3.4c-0.6,0-0.9-0.4-0.9-0.8s0.3-0.8,0.6-1.1
			c0.8-0.6,1.7-2.3,1.6-3.9H170.2z M174.9,101.1c0.7,0,2,0.1,2.5,0.1c0.4,0,0.6,0,0.7-0.2c0.5-0.5,0.7-2.8,0.9-7.2h-3.9
			c-0.2,1.1-0.4,2-0.7,3c1.6,0.7,2.3,1.7,2.3,2.4c0,0.5-0.3,0.8-0.8,0.8c-0.1,0-0.3,0-0.5-0.1c-0.4-0.5-1-1-1.6-1.5
			c-1,2.1-2.5,3.9-5.2,5.2l-0.2-0.4c2.1-1.6,3.2-3.6,3.9-5.8c-0.9-0.6-1.9-1-2.8-1.3l0-0.3c1.2,0,2.2,0.1,3.1,0.3
			c0.2-0.8,0.3-1.6,0.4-2.4h-3.7l-0.2-0.6h9.7l0.9-1.1l2.1,1.6c-0.2,0.2-0.5,0.3-0.9,0.4c-0.1,5.1-0.5,7.6-1.4,8.4
			c-0.7,0.5-1.3,0.7-2.4,0.7c0-1.1-0.2-1.4-2.1-1.7L174.9,101.1z M178,109.6v2.4c0.7,0.3,0.8,0.3,0.8,0.6c0,0.7-0.7,1.1-2.4,1.1
			h-2.5c-1.9,0-2.2-0.4-2.2-2.2v-5.8l2.6,0.2c0,0.3-0.2,0.4-0.8,0.5v5.1c0,0.6,0,0.6,0.5,0.6h2.3c0.3,0,0.5,0,0.6-0.3
			c0.2-0.2,0.5-1.2,0.8-2.2H178z M171.9,103c3.6,0,4.8,1.5,4.8,2.5c0,0.6-0.4,1-0.9,1c-0.2,0-0.4,0-0.6-0.2
			c-0.6-1.2-2.1-2.5-3.5-3.1L171.9,103z M178.3,106.3c2.7,1.5,3.6,3.3,3.6,4.5c0,1-0.6,1.7-1.2,1.7c-0.3,0-0.6-0.1-0.9-0.5
			c0.1-1.8-0.7-4.1-1.8-5.5L178.3,106.3z"/>
		<path class="st9" d="M203.5,106.7l2.4,1.7c-0.2,0.3-0.5,0.5-1.2,0.5h-21.3l-0.2-0.5h18.9L203.5,106.7z M193,110.6
			c-0.1,0.2-0.3,0.3-0.7,0.3c-0.1,0-0.3,0-0.5,0c-1.9,1.2-5,2.6-8,3.3l-0.1-0.3c2.6-1.1,5.5-3.1,6.9-4.6L193,110.6z M184.6,95
			l-0.1-0.5h9.1v-2.9l3.1,0.3c0,0.4-0.3,0.5-1.1,0.7v2h5.7l1.3-1.6l2.4,1.7c-0.2,0.3-0.5,0.5-1.2,0.5h-8.3v2.4h3.8l0.9-1.1l2.4,1.7
			c-0.2,0.2-0.6,0.4-1,0.5v8c0,0-0.6,0.6-2,0.6v-1h-9.9v0.4c0,0-0.2,0.7-2,0.7V96.5l2.1,0.9h3.8V95H184.6z M199.5,98h-9.9v2.1h9.9
			V98z M189.6,100.7v2.2h9.9v-2.2H189.6z M189.6,105.6h9.9v-2.2h-9.9V105.6z M196.8,109.6c6.5,0.8,8.2,2.5,8.2,3.6
			c0,0.5-0.4,0.9-1,0.9c-0.3,0-0.6-0.1-0.9-0.4c-1.1-1.2-3.3-2.6-6.4-3.8L196.8,109.6z"/>
		<path class="st9" d="M214,110.8c0,0.9-0.7,1.6-1.6,1.6s-1.6-0.7-1.6-1.6s0.7-1.6,1.6-1.6C213.3,109.2,214,110,214,110.8z
			 M211,95.1c0-0.8,0.4-1.3,1.4-1.3s1.4,0.6,1.4,1.3c0,0-0.9,10.5-1,12.4H212C211.8,105.1,211,95.5,211,95.1L211,95.1z"/>
	</g>
</g>
</svg>
