<?xml version="1.0" encoding="utf-8"?>
<!-- Generator: Adobe Illustrator 25.2.3, SVG Export Plug-In . SVG Version: 6.00 Build 0)  -->
<svg version="1.1" id="section4_title.svg" xmlns="http://www.w3.org/2000/svg" xmlns:xlink="http://www.w3.org/1999/xlink" x="0px"
	 y="0px" viewBox="0 0 309 80" style="enable-background:new 0 0 309 80;" xml:space="preserve">
<style type="text/css">
	.繪圖樣式{fill:url(#SVGID_1_);}
	.st0{fill:url(#SVGID_2_);}
	.st1{fill:url(#SVGID_3_);}
	.st2{fill:url(#SVGID_4_);}
	.st3{fill:url(#SVGID_5_);}
	.st4{fill:url(#SVGID_6_);}
	.st5{fill:url(#SVGID_7_);}
	.st6{fill:url(#SVGID_8_);}
	.st7{fill:url(#SVGID_9_);}
	.st8{fill:url(#SVGID_10_);}
	.st9{fill:url(#SVGID_11_);}
	.st10{fill:#FFFFFF;}
</style>
<linearGradient id="SVGID_1_" gradientUnits="userSpaceOnUse" x1="0" y1="80" x2="0.8008" y2="80.599">
	<stop  offset="0" style="stop-color:#FAC859"/>
	<stop  offset="2.877487e-03" style="stop-color:#FACB64"/>
	<stop  offset="9.516122e-03" style="stop-color:#FBD176"/>
	<stop  offset="1.745736e-02" style="stop-color:#FCD582"/>
	<stop  offset="2.788930e-02" style="stop-color:#FCD78A"/>
	<stop  offset="5.042250e-02" style="stop-color:#FCD88C"/>
	<stop  offset="6.442444e-02" style="stop-color:#FCD681"/>
	<stop  offset="8.918270e-02" style="stop-color:#FBD163"/>
	<stop  offset="0.1216" style="stop-color:#FACA33"/>
	<stop  offset="0.1355" style="stop-color:#FAC61C"/>
	<stop  offset="0.1458" style="stop-color:#E6B417"/>
	<stop  offset="0.1638" style="stop-color:#C99B11"/>
	<stop  offset="0.184" style="stop-color:#B2860B"/>
	<stop  offset="0.207" style="stop-color:#9F7607"/>
	<stop  offset="0.2343" style="stop-color:#936A04"/>
	<stop  offset="0.2701" style="stop-color:#8B6402"/>
	<stop  offset="0.3475" style="stop-color:#896202"/>
	<stop  offset="0.6179" style="stop-color:#FAC859"/>
	<stop  offset="0.651" style="stop-color:#FACC64"/>
	<stop  offset="0.7093" style="stop-color:#FCD582"/>
	<stop  offset="0.7267" style="stop-color:#FCD88C"/>
	<stop  offset="0.7501" style="stop-color:#FCD481"/>
	<stop  offset="0.7914" style="stop-color:#FACB63"/>
	<stop  offset="0.8037" style="stop-color:#FAC859"/>
	<stop  offset="0.811" style="stop-color:#F2C153"/>
	<stop  offset="0.85" style="stop-color:#CC9F36"/>
	<stop  offset="0.8888" style="stop-color:#AF841F"/>
	<stop  offset="0.9271" style="stop-color:#9A710F"/>
	<stop  offset="0.9645" style="stop-color:#8D6605"/>
	<stop  offset="1" style="stop-color:#896202"/>
</linearGradient>
<g>
	<g>
		
			<image style="overflow:visible;opacity:0.4;" width="312" height="43" xlink:href="EFAC9D2BEE37A375.png"  transform="matrix(1 0 0 1 0.1197 38.7333)">
		</image>
		<g>
			<g>
				
					<linearGradient id="SVGID_2_" gradientUnits="userSpaceOnUse" x1="-201.2183" y1="-102.1564" x2="329.0376" y2="294.4492" gradientTransform="matrix(1 0 0 1 -32.6284 -130.0148)">
					<stop  offset="0" style="stop-color:#FAC859"/>
					<stop  offset="2.877487e-03" style="stop-color:#FACB64"/>
					<stop  offset="9.516122e-03" style="stop-color:#FBD176"/>
					<stop  offset="1.745736e-02" style="stop-color:#FCD582"/>
					<stop  offset="2.788930e-02" style="stop-color:#FCD78A"/>
					<stop  offset="5.042250e-02" style="stop-color:#FCD88C"/>
					<stop  offset="6.442444e-02" style="stop-color:#FCD681"/>
					<stop  offset="8.918270e-02" style="stop-color:#FBD163"/>
					<stop  offset="0.1216" style="stop-color:#FACA33"/>
					<stop  offset="0.1355" style="stop-color:#FAC61C"/>
					<stop  offset="0.1458" style="stop-color:#E6B417"/>
					<stop  offset="0.1638" style="stop-color:#C99B11"/>
					<stop  offset="0.184" style="stop-color:#B2860B"/>
					<stop  offset="0.207" style="stop-color:#9F7607"/>
					<stop  offset="0.2343" style="stop-color:#936A04"/>
					<stop  offset="0.2701" style="stop-color:#8B6402"/>
					<stop  offset="0.3475" style="stop-color:#896202"/>
					<stop  offset="0.6179" style="stop-color:#FAC859"/>
					<stop  offset="0.651" style="stop-color:#FACC64"/>
					<stop  offset="0.7093" style="stop-color:#FCD582"/>
					<stop  offset="0.7267" style="stop-color:#FCD88C"/>
					<stop  offset="0.7501" style="stop-color:#FCD481"/>
					<stop  offset="0.7914" style="stop-color:#FACB63"/>
					<stop  offset="0.8037" style="stop-color:#FAC859"/>
					<stop  offset="0.811" style="stop-color:#F2C153"/>
					<stop  offset="0.85" style="stop-color:#CC9F36"/>
					<stop  offset="0.8888" style="stop-color:#AF841F"/>
					<stop  offset="0.9271" style="stop-color:#9A710F"/>
					<stop  offset="0.9645" style="stop-color:#8D6605"/>
					<stop  offset="1" style="stop-color:#896202"/>
				</linearGradient>
				<path class="st0" d="M17.5,65.9c0,0-0.3,0.9-2.4,0.9v-5.1c-0.3,0.4-0.7,0.6-1.1,0.6c-0.4,0-0.9-0.2-1.2-0.7
					c0.1-1.6-0.6-3.7-1.4-5.1v16.6c0,0.1-0.4,1-3.3,1V60.6c-1.1,2-2.3,3.9-3.9,5.6l-0.5-0.5c2.1-4.1,3.3-9.4,3.9-14.6H3.9l-0.2-0.7
					H8v-8.4l4.8,0.4c0,0.5-0.3,0.8-1.4,0.9v7.1h0.4l1.5-2.5l2.8,2.6c-0.3,0.4-0.7,0.6-1.6,0.6h-3.1v4.8c2.1,1,3.2,2,3.8,3v-5.2
					l2.5,1.1h1.5l1-1.2l2.8,2c-0.2,0.2-0.6,0.4-1,0.5v8.8c0,0.1-0.7,0.8-2.4,0.8v-1.7h-1.9V65.9z M31,72.1l1.9-2.3l3.5,2.4
					c-0.2,0.5-0.7,0.6-1.6,0.6H13.4l-0.2-0.7H31z M21.6,52.8c-0.5,0.2-1,0.3-1.6,0.3c-0.6,0-1.1-0.1-1.9-0.3
					c0.7-2.3,1.4-5.5,1.8-7.5h-5.5l-0.2-0.7h16.6l1.8-2.5l3.5,2.5c-0.3,0.5-0.7,0.6-1.7,0.6H23.4c-0.3,1.5-0.8,3.6-1.3,5.5h1.5
					l1.4-1.9l3.5,2.7c-0.2,0.3-0.7,0.5-1.4,0.7V53h4.2l1.7-1.8l3.1,2.6c-0.2,0.3-0.5,0.4-1.2,0.6c-0.3,3-1,6-2.3,8.7
					c1.1,1.2,2.3,2.2,3.8,3.1l-0.1,0.3c-1.3,0.2-2.4,1.2-3,2.8c-1-1-1.9-2.1-2.6-3.4c-1.1,1.4-2.5,2.8-4.3,3.9l-0.2-0.5
					c1.7-1.5,2.8-3.4,3.6-5.5c-1-2.6-1.4-5.9-1.7-10.1h-0.9c-0.2,10.6-0.6,14.6-2.1,16c-1,1-2,1.3-3.9,1.3c0-1.8-0.2-2.7-2.9-3.1
					c0-0.3,0-0.4,0-0.5c0.9,0,2.5,0.1,3.2,0.1c0.5,0,0.7,0,1-0.3c0.9-0.9,1.2-5.5,1.4-15.6h-2.1L21.6,52.8z M19.5,55.5h-1.9v7.7h1.9
					V55.5z M28.7,53.7c0.4,2.7,1.1,5,2.1,6.8c0.5-2.2,0.8-4.5,0.9-6.8H28.7z"/>
				
					<linearGradient id="SVGID_3_" gradientUnits="userSpaceOnUse" x1="-201.2183" y1="-102.1564" x2="329.0376" y2="294.4492" gradientTransform="matrix(1 0 0 1 -32.6284 -130.0148)">
					<stop  offset="0" style="stop-color:#FAC859"/>
					<stop  offset="2.877487e-03" style="stop-color:#FACB64"/>
					<stop  offset="9.516122e-03" style="stop-color:#FBD176"/>
					<stop  offset="1.745736e-02" style="stop-color:#FCD582"/>
					<stop  offset="2.788930e-02" style="stop-color:#FCD78A"/>
					<stop  offset="5.042250e-02" style="stop-color:#FCD88C"/>
					<stop  offset="6.442444e-02" style="stop-color:#FCD681"/>
					<stop  offset="8.918270e-02" style="stop-color:#FBD163"/>
					<stop  offset="0.1216" style="stop-color:#FACA33"/>
					<stop  offset="0.1355" style="stop-color:#FAC61C"/>
					<stop  offset="0.1458" style="stop-color:#E6B417"/>
					<stop  offset="0.1638" style="stop-color:#C99B11"/>
					<stop  offset="0.184" style="stop-color:#B2860B"/>
					<stop  offset="0.207" style="stop-color:#9F7607"/>
					<stop  offset="0.2343" style="stop-color:#936A04"/>
					<stop  offset="0.2701" style="stop-color:#8B6402"/>
					<stop  offset="0.3475" style="stop-color:#896202"/>
					<stop  offset="0.6179" style="stop-color:#FAC859"/>
					<stop  offset="0.651" style="stop-color:#FACC64"/>
					<stop  offset="0.7093" style="stop-color:#FCD582"/>
					<stop  offset="0.7267" style="stop-color:#FCD88C"/>
					<stop  offset="0.7501" style="stop-color:#FCD481"/>
					<stop  offset="0.7914" style="stop-color:#FACB63"/>
					<stop  offset="0.8037" style="stop-color:#FAC859"/>
					<stop  offset="0.811" style="stop-color:#F2C153"/>
					<stop  offset="0.85" style="stop-color:#CC9F36"/>
					<stop  offset="0.8888" style="stop-color:#AF841F"/>
					<stop  offset="0.9271" style="stop-color:#9A710F"/>
					<stop  offset="0.9645" style="stop-color:#8D6605"/>
					<stop  offset="1" style="stop-color:#896202"/>
				</linearGradient>
				<path class="st1" d="M44.9,53.5v2.4c0,5.7-0.3,13.3-6.4,18.4l-0.4-0.3c3-5.3,3.2-12,3.2-18V45.7l4.1,1.5h8v-5.3l5.1,0.4
					c-0.1,0.5-0.4,0.8-1.5,0.9v4h7.7l2-2.7l3.7,2.8c-0.2,0.4-0.7,0.6-1.7,0.6H44.9v4.9h4.8v-3.8l4.8,0.4c-0.1,0.4-0.3,0.7-1.3,0.8
					v2.6h6.5v-3.8l4.8,0.4c0,0.4-0.3,0.7-1.2,0.8v2.6h1.8l1.9-2.5l3.3,2.5c-0.2,0.4-0.7,0.6-1.6,0.6h-5.4v6.3c0,0.1-0.7,1-3.6,1
					v-1.9h-6.5V60c0,0.1-0.8,1-3.5,1v-7.5H44.9z M63.1,60.5l3.3,3.1c-0.3,0.3-0.7,0.4-1.5,0.5c-1.4,1.9-3.1,3.5-5.2,4.8
					c3.3,0.9,7,1.3,10.8,1.5v0.4c-1.5,0.4-2.5,1.7-2.8,3.5c-4.4-0.7-8.2-1.8-11.4-3.5c-3.9,1.7-8.6,2.8-14,3.5l-0.1-0.5
					c4.6-0.9,8.7-2.4,12.1-4.3c-2.1-1.6-3.8-3.6-5.1-6.2h-4L45,62.4h15.9L63.1,60.5z M49.9,63.1c1.5,2.1,3.9,3.6,6.6,4.7
					c1.8-1.3,3.3-2.9,4.4-4.7H49.9z M59.8,53.5h-6.5v4.8h6.5V53.5z"/>
				
					<linearGradient id="SVGID_4_" gradientUnits="userSpaceOnUse" x1="-201.2183" y1="-102.1564" x2="329.0376" y2="294.4492" gradientTransform="matrix(1 0 0 1 -32.6284 -130.0148)">
					<stop  offset="0" style="stop-color:#FAC859"/>
					<stop  offset="2.877487e-03" style="stop-color:#FACB64"/>
					<stop  offset="9.516122e-03" style="stop-color:#FBD176"/>
					<stop  offset="1.745736e-02" style="stop-color:#FCD582"/>
					<stop  offset="2.788930e-02" style="stop-color:#FCD78A"/>
					<stop  offset="5.042250e-02" style="stop-color:#FCD88C"/>
					<stop  offset="6.442444e-02" style="stop-color:#FCD681"/>
					<stop  offset="8.918270e-02" style="stop-color:#FBD163"/>
					<stop  offset="0.1216" style="stop-color:#FACA33"/>
					<stop  offset="0.1355" style="stop-color:#FAC61C"/>
					<stop  offset="0.1458" style="stop-color:#E6B417"/>
					<stop  offset="0.1638" style="stop-color:#C99B11"/>
					<stop  offset="0.184" style="stop-color:#B2860B"/>
					<stop  offset="0.207" style="stop-color:#9F7607"/>
					<stop  offset="0.2343" style="stop-color:#936A04"/>
					<stop  offset="0.2701" style="stop-color:#8B6402"/>
					<stop  offset="0.3475" style="stop-color:#896202"/>
					<stop  offset="0.6179" style="stop-color:#FAC859"/>
					<stop  offset="0.651" style="stop-color:#FACC64"/>
					<stop  offset="0.7093" style="stop-color:#FCD582"/>
					<stop  offset="0.7267" style="stop-color:#FCD88C"/>
					<stop  offset="0.7501" style="stop-color:#FCD481"/>
					<stop  offset="0.7914" style="stop-color:#FACB63"/>
					<stop  offset="0.8037" style="stop-color:#FAC859"/>
					<stop  offset="0.811" style="stop-color:#F2C153"/>
					<stop  offset="0.85" style="stop-color:#CC9F36"/>
					<stop  offset="0.8888" style="stop-color:#AF841F"/>
					<stop  offset="0.9271" style="stop-color:#9A710F"/>
					<stop  offset="0.9645" style="stop-color:#8D6605"/>
					<stop  offset="1" style="stop-color:#896202"/>
				</linearGradient>
				<path class="st2" d="M101.4,62.3L105,65c-0.3,0.4-0.7,0.6-1.7,0.6h-6.2v4.3c0,2.4-0.6,4-4.8,4.4c0-2.5-1.1-3.1-4-3.3v-0.4H93
					c0.5,0,0.7-0.2,0.7-0.6v-4.3H72.8l-0.2-0.7h21v-3.1l3.4,0.2v-0.3H80.5v0.6c0,0.1-0.5,1.2-3.4,1.2V49.3l3.7,1.4h3.4
					c0.1-0.5,0.1-1,0.1-1.4v-2H73l-0.2-0.7H83c-0.2-0.1-0.4-0.2-0.6-0.3c-0.3-1.5-1.5-3.1-2.9-4l0.2-0.3c4.4-0.2,5.8,1.4,5.8,2.8
					c0,0.8-0.4,1.5-1.1,1.8H92c0.5-1.5,1.1-3.4,1.5-4.9l5.3,1.9c-0.1,0.3-0.4,0.4-0.9,0.4c-0.1,0-0.3,0-0.5,0
					c-1.1,0.8-2.8,1.8-4.3,2.6h6.4l1.9-2.5l3.6,2.6c-0.3,0.4-0.7,0.6-1.7,0.6H92.9v3.4h3.9l1.4-1.8l3.8,2.7
					c-0.2,0.3-0.7,0.6-1.4,0.7v9.3c0,0.2-1.2,0.8-2.3,1c-0.2,0.2-0.5,0.3-1.1,0.3v2h2.3L101.4,62.3z M78.3,66.6c5.3,0,7,1.9,7,3.5
					c0,1.1-0.8,2.1-1.9,2.1c-0.4,0-0.9-0.1-1.3-0.5c-0.6-1.8-2.2-3.8-3.9-4.8L78.3,66.6z M80.9,56.4c2.2-1.5,3-3.3,3.2-5h-3.7v6.3
					h16.7v-6.3h-4.2v1.1c0,0.8,0,0.9,0.3,0.9h1.1c0.5,0,0.8,0,1.4-1H96l0.1,1c0.9,0.4,1,0.6,1,1c0,1.1-0.9,1.6-2.7,1.6H93
					c-2.8,0-3-0.4-3-3.5v-1.1H87c-0.5,2-1.9,4.1-5.8,5.4L80.9,56.4z M80.5,61h16.7v-2.5H80.5V61z M87.2,47.3v2c0,0.4,0,0.9-0.1,1.4
					h2.8v-3.4H87.2z"/>
				
					<linearGradient id="SVGID_5_" gradientUnits="userSpaceOnUse" x1="-201.2183" y1="-102.1564" x2="329.0376" y2="294.4492" gradientTransform="matrix(1 0 0 1 -32.6284 -130.0148)">
					<stop  offset="0" style="stop-color:#FAC859"/>
					<stop  offset="2.877487e-03" style="stop-color:#FACB64"/>
					<stop  offset="9.516122e-03" style="stop-color:#FBD176"/>
					<stop  offset="1.745736e-02" style="stop-color:#FCD582"/>
					<stop  offset="2.788930e-02" style="stop-color:#FCD78A"/>
					<stop  offset="5.042250e-02" style="stop-color:#FCD88C"/>
					<stop  offset="6.442444e-02" style="stop-color:#FCD681"/>
					<stop  offset="8.918270e-02" style="stop-color:#FBD163"/>
					<stop  offset="0.1216" style="stop-color:#FACA33"/>
					<stop  offset="0.1355" style="stop-color:#FAC61C"/>
					<stop  offset="0.1458" style="stop-color:#E6B417"/>
					<stop  offset="0.1638" style="stop-color:#C99B11"/>
					<stop  offset="0.184" style="stop-color:#B2860B"/>
					<stop  offset="0.207" style="stop-color:#9F7607"/>
					<stop  offset="0.2343" style="stop-color:#936A04"/>
					<stop  offset="0.2701" style="stop-color:#8B6402"/>
					<stop  offset="0.3475" style="stop-color:#896202"/>
					<stop  offset="0.6179" style="stop-color:#FAC859"/>
					<stop  offset="0.651" style="stop-color:#FACC64"/>
					<stop  offset="0.7093" style="stop-color:#FCD582"/>
					<stop  offset="0.7267" style="stop-color:#FCD88C"/>
					<stop  offset="0.7501" style="stop-color:#FCD481"/>
					<stop  offset="0.7914" style="stop-color:#FACB63"/>
					<stop  offset="0.8037" style="stop-color:#FAC859"/>
					<stop  offset="0.811" style="stop-color:#F2C153"/>
					<stop  offset="0.85" style="stop-color:#CC9F36"/>
					<stop  offset="0.8888" style="stop-color:#AF841F"/>
					<stop  offset="0.9271" style="stop-color:#9A710F"/>
					<stop  offset="0.9645" style="stop-color:#8D6605"/>
					<stop  offset="1" style="stop-color:#896202"/>
				</linearGradient>
				<path class="st3" d="M135.7,50.6l3.7,2.5c-0.3,0.4-0.7,0.6-1.6,0.6h-30.5l-0.2-0.7h14.3v-2.8H116v0.7c0,0.1-0.6,1.2-3.4,1.2
					v-8.5l3.7,1.5h5.1v-3.2l5,0.5c0,0.5-0.4,0.8-1.5,0.9V45h5.3l1.3-1.8l3.8,2.7c-0.2,0.2-0.7,0.6-1.4,0.7v4c0,0.1-0.9,1-3.5,1v-1.4
					h-5.6V53h8.8L135.7,50.6z M134.3,68.4c0,0.1-1.2,0.9-3.6,0.9c5.7,0.7,7.5,2.2,7.5,3.3c0,0.9-1,1.6-2.2,1.6
					c-0.6,0-1.2-0.2-1.8-0.6c-1.7-1.3-4.7-3.1-9-4.2l0.1-0.5c2,0,3.8,0.2,5.2,0.3v-1.4h-12.5l3.9,2.8c-0.2,0.2-0.5,0.3-0.9,0.3
					c-0.3,0-0.6-0.1-1-0.2c-3,1.5-7.9,2.9-12.6,3.3l-0.2-0.4c4.2-1.3,8.6-3.8,10.8-5.9h-2.3v0.4c0,0.1-0.6,1.3-3.6,1.3v-15l3.9,1.6
					h14.3l1.4-1.8l3.9,2.7c-0.2,0.2-0.7,0.5-1.3,0.7V68.4z M130.7,57h-14.9v2.9h14.9V57z M130.7,63.5v-3h-14.9v3H130.7z M115.7,67.3
					h14.9v-3.1h-14.9V67.3z M116,49.5h5.3v-3.8H116V49.5z M130.5,45.7h-5.6v3.8h5.6V45.7z"/>
				
					<linearGradient id="SVGID_6_" gradientUnits="userSpaceOnUse" x1="-201.2183" y1="-102.1564" x2="329.0376" y2="294.4492" gradientTransform="matrix(1 0 0 1 -32.6284 -130.0148)">
					<stop  offset="0" style="stop-color:#FAC859"/>
					<stop  offset="2.877487e-03" style="stop-color:#FACB64"/>
					<stop  offset="9.516122e-03" style="stop-color:#FBD176"/>
					<stop  offset="1.745736e-02" style="stop-color:#FCD582"/>
					<stop  offset="2.788930e-02" style="stop-color:#FCD78A"/>
					<stop  offset="5.042250e-02" style="stop-color:#FCD88C"/>
					<stop  offset="6.442444e-02" style="stop-color:#FCD681"/>
					<stop  offset="8.918270e-02" style="stop-color:#FBD163"/>
					<stop  offset="0.1216" style="stop-color:#FACA33"/>
					<stop  offset="0.1355" style="stop-color:#FAC61C"/>
					<stop  offset="0.1458" style="stop-color:#E6B417"/>
					<stop  offset="0.1638" style="stop-color:#C99B11"/>
					<stop  offset="0.184" style="stop-color:#B2860B"/>
					<stop  offset="0.207" style="stop-color:#9F7607"/>
					<stop  offset="0.2343" style="stop-color:#936A04"/>
					<stop  offset="0.2701" style="stop-color:#8B6402"/>
					<stop  offset="0.3475" style="stop-color:#896202"/>
					<stop  offset="0.6179" style="stop-color:#FAC859"/>
					<stop  offset="0.651" style="stop-color:#FACC64"/>
					<stop  offset="0.7093" style="stop-color:#FCD582"/>
					<stop  offset="0.7267" style="stop-color:#FCD88C"/>
					<stop  offset="0.7501" style="stop-color:#FCD481"/>
					<stop  offset="0.7914" style="stop-color:#FACB63"/>
					<stop  offset="0.8037" style="stop-color:#FAC859"/>
					<stop  offset="0.811" style="stop-color:#F2C153"/>
					<stop  offset="0.85" style="stop-color:#CC9F36"/>
					<stop  offset="0.8888" style="stop-color:#AF841F"/>
					<stop  offset="0.9271" style="stop-color:#9A710F"/>
					<stop  offset="0.9645" style="stop-color:#8D6605"/>
					<stop  offset="1" style="stop-color:#896202"/>
				</linearGradient>
				<path class="st4" d="M142.4,74.4c1.3-0.6,2.3-1.8,2.7-3.4c-0.2,0.1-0.5,0.1-0.7,0.1c-1.4,0-2.5-1.2-2.5-2.6
					c0-1.5,1.2-2.7,2.6-2.7c1.5,0,2.9,1.2,2.9,3.2c0,2.4-1.7,5.2-4.4,6.1L142.4,74.4z"/>
				
					<linearGradient id="SVGID_7_" gradientUnits="userSpaceOnUse" x1="-201.2183" y1="-102.1564" x2="329.0376" y2="294.4492" gradientTransform="matrix(1 0 0 1 -32.6284 -130.0148)">
					<stop  offset="0" style="stop-color:#FAC859"/>
					<stop  offset="2.877487e-03" style="stop-color:#FACB64"/>
					<stop  offset="9.516122e-03" style="stop-color:#FBD176"/>
					<stop  offset="1.745736e-02" style="stop-color:#FCD582"/>
					<stop  offset="2.788930e-02" style="stop-color:#FCD78A"/>
					<stop  offset="5.042250e-02" style="stop-color:#FCD88C"/>
					<stop  offset="6.442444e-02" style="stop-color:#FCD681"/>
					<stop  offset="8.918270e-02" style="stop-color:#FBD163"/>
					<stop  offset="0.1216" style="stop-color:#FACA33"/>
					<stop  offset="0.1355" style="stop-color:#FAC61C"/>
					<stop  offset="0.1458" style="stop-color:#E6B417"/>
					<stop  offset="0.1638" style="stop-color:#C99B11"/>
					<stop  offset="0.184" style="stop-color:#B2860B"/>
					<stop  offset="0.207" style="stop-color:#9F7607"/>
					<stop  offset="0.2343" style="stop-color:#936A04"/>
					<stop  offset="0.2701" style="stop-color:#8B6402"/>
					<stop  offset="0.3475" style="stop-color:#896202"/>
					<stop  offset="0.6179" style="stop-color:#FAC859"/>
					<stop  offset="0.651" style="stop-color:#FACC64"/>
					<stop  offset="0.7093" style="stop-color:#FCD582"/>
					<stop  offset="0.7267" style="stop-color:#FCD88C"/>
					<stop  offset="0.7501" style="stop-color:#FCD481"/>
					<stop  offset="0.7914" style="stop-color:#FACB63"/>
					<stop  offset="0.8037" style="stop-color:#FAC859"/>
					<stop  offset="0.811" style="stop-color:#F2C153"/>
					<stop  offset="0.85" style="stop-color:#CC9F36"/>
					<stop  offset="0.8888" style="stop-color:#AF841F"/>
					<stop  offset="0.9271" style="stop-color:#9A710F"/>
					<stop  offset="0.9645" style="stop-color:#8D6605"/>
					<stop  offset="1" style="stop-color:#896202"/>
				</linearGradient>
				<path class="st5" d="M186.3,42.8l3.9,2.9c-0.2,0.3-0.7,0.6-1.4,0.7V70c0,2.2-0.6,3.7-5.2,4.2c0-2.4-1.8-3-4.6-3.3v-0.5h5.5
					c0.6,0,0.8-0.1,0.8-0.5V45.5h-20.6v27.2c0,0.1-0.4,1.5-3.6,1.5v-31l3.9,1.7h19.9L186.3,42.8z M180,47.8l3.7,2.6
					c-0.2,0.5-0.7,0.6-1.6,0.6h-15.5l-0.2-0.7h11.7L180,47.8z M182.6,56.2c-0.2,0.2-0.7,0.5-1.2,0.6v9.3c0,0.1-1,1.1-3.5,1.1v-2.4
					h-6.2V67c0,0.1-0.6,1.2-3.4,1.2V53.9l3.6,1.5h5.7l1.3-1.8L182.6,56.2z M171.6,64.1h6.2V56h-6.2V64.1z"/>
				
					<linearGradient id="SVGID_8_" gradientUnits="userSpaceOnUse" x1="-201.2183" y1="-102.1564" x2="329.0376" y2="294.4492" gradientTransform="matrix(1 0 0 1 -32.6284 -130.0148)">
					<stop  offset="0" style="stop-color:#FAC859"/>
					<stop  offset="2.877487e-03" style="stop-color:#FACB64"/>
					<stop  offset="9.516122e-03" style="stop-color:#FBD176"/>
					<stop  offset="1.745736e-02" style="stop-color:#FCD582"/>
					<stop  offset="2.788930e-02" style="stop-color:#FCD78A"/>
					<stop  offset="5.042250e-02" style="stop-color:#FCD88C"/>
					<stop  offset="6.442444e-02" style="stop-color:#FCD681"/>
					<stop  offset="8.918270e-02" style="stop-color:#FBD163"/>
					<stop  offset="0.1216" style="stop-color:#FACA33"/>
					<stop  offset="0.1355" style="stop-color:#FAC61C"/>
					<stop  offset="0.1458" style="stop-color:#E6B417"/>
					<stop  offset="0.1638" style="stop-color:#C99B11"/>
					<stop  offset="0.184" style="stop-color:#B2860B"/>
					<stop  offset="0.207" style="stop-color:#9F7607"/>
					<stop  offset="0.2343" style="stop-color:#936A04"/>
					<stop  offset="0.2701" style="stop-color:#8B6402"/>
					<stop  offset="0.3475" style="stop-color:#896202"/>
					<stop  offset="0.6179" style="stop-color:#FAC859"/>
					<stop  offset="0.651" style="stop-color:#FACC64"/>
					<stop  offset="0.7093" style="stop-color:#FCD582"/>
					<stop  offset="0.7267" style="stop-color:#FCD88C"/>
					<stop  offset="0.7501" style="stop-color:#FCD481"/>
					<stop  offset="0.7914" style="stop-color:#FACB63"/>
					<stop  offset="0.8037" style="stop-color:#FAC859"/>
					<stop  offset="0.811" style="stop-color:#F2C153"/>
					<stop  offset="0.85" style="stop-color:#CC9F36"/>
					<stop  offset="0.8888" style="stop-color:#AF841F"/>
					<stop  offset="0.9271" style="stop-color:#9A710F"/>
					<stop  offset="0.9645" style="stop-color:#8D6605"/>
					<stop  offset="1" style="stop-color:#896202"/>
				</linearGradient>
				<path class="st6" d="M221.5,50.8l4,2.8c-0.3,0.4-0.7,0.6-1.7,0.6h-11.4c-0.1,0.3-0.4,0.4-1.3,0.6v7.9c0,2.4-0.6,4-4.8,4.4
					c0-2.6-1.1-3-3.6-3.3v-0.4h4.1c0.5,0,0.6-0.2,0.6-0.6v-8.5h-14.2l-0.2-0.7h5.5v-8.9l4.8,0.4c-0.1,0.4-0.4,0.7-1.3,0.8v7.6h5.4
					V41.9l5.2,0.5c-0.1,0.5-0.4,0.7-1.4,0.9v4.1h5.1l2.1-2.6l3.9,2.7c-0.3,0.4-0.8,0.6-1.7,0.6h-9.4v5.6h8.1L221.5,50.8z M193.8,65
					c2.9-2.5,5.5-6.4,6.7-9.3l4.5,2.4c-0.2,0.3-0.5,0.6-1.3,0.4c-2.1,2.5-5.7,5.3-9.7,6.9L193.8,65z M223,59.5
					c-0.2,0.3-0.5,0.4-1,0.4c-0.2,0-0.4,0-0.7-0.1c-7,10.6-14.7,13.1-25.5,14.4l-0.1-0.6c9.5-2.3,17-5.9,22.5-16.8L223,59.5z"/>
				
					<linearGradient id="SVGID_9_" gradientUnits="userSpaceOnUse" x1="-201.2183" y1="-102.1564" x2="329.0376" y2="294.4492" gradientTransform="matrix(1 0 0 1 -32.6284 -130.0148)">
					<stop  offset="0" style="stop-color:#FAC859"/>
					<stop  offset="2.877487e-03" style="stop-color:#FACB64"/>
					<stop  offset="9.516122e-03" style="stop-color:#FBD176"/>
					<stop  offset="1.745736e-02" style="stop-color:#FCD582"/>
					<stop  offset="2.788930e-02" style="stop-color:#FCD78A"/>
					<stop  offset="5.042250e-02" style="stop-color:#FCD88C"/>
					<stop  offset="6.442444e-02" style="stop-color:#FCD681"/>
					<stop  offset="8.918270e-02" style="stop-color:#FBD163"/>
					<stop  offset="0.1216" style="stop-color:#FACA33"/>
					<stop  offset="0.1355" style="stop-color:#FAC61C"/>
					<stop  offset="0.1458" style="stop-color:#E6B417"/>
					<stop  offset="0.1638" style="stop-color:#C99B11"/>
					<stop  offset="0.184" style="stop-color:#B2860B"/>
					<stop  offset="0.207" style="stop-color:#9F7607"/>
					<stop  offset="0.2343" style="stop-color:#936A04"/>
					<stop  offset="0.2701" style="stop-color:#8B6402"/>
					<stop  offset="0.3475" style="stop-color:#896202"/>
					<stop  offset="0.6179" style="stop-color:#FAC859"/>
					<stop  offset="0.651" style="stop-color:#FACC64"/>
					<stop  offset="0.7093" style="stop-color:#FCD582"/>
					<stop  offset="0.7267" style="stop-color:#FCD88C"/>
					<stop  offset="0.7501" style="stop-color:#FCD481"/>
					<stop  offset="0.7914" style="stop-color:#FACB63"/>
					<stop  offset="0.8037" style="stop-color:#FAC859"/>
					<stop  offset="0.811" style="stop-color:#F2C153"/>
					<stop  offset="0.85" style="stop-color:#CC9F36"/>
					<stop  offset="0.8888" style="stop-color:#AF841F"/>
					<stop  offset="0.9271" style="stop-color:#9A710F"/>
					<stop  offset="0.9645" style="stop-color:#8D6605"/>
					<stop  offset="1" style="stop-color:#896202"/>
				</linearGradient>
				<path class="st7" d="M259.9,56.8c-0.3,0.3-0.6,0.3-1.3,0.4c-1.1,1-3,2.4-4.3,3.2L258,63c-0.2,0.2-0.3,0.3-0.7,0.3
					c-0.1,0-0.3,0-0.6-0.1c-1.5,0.7-3.9,1.5-6.2,2.1c2.4,2,5.6,3.3,9.2,4.1l0,0.4c-1.4,0.3-2.5,1.4-3,3.2
					c-5.8-2.4-9.3-6.1-10.9-13.5h-0.2c-1.1,0.7-2.3,1.3-3.7,1.9c3.9,2.1,5.3,5.3,5.3,8c0,1.5-0.5,2.9-1.3,3.7
					c-0.8,0.9-2.1,1.3-4,1.3c-0.1-2.3-1.1-2.5-3.2-2.9V71h3.5c0.4,0,0.7,0,0.9-0.2c0.6-0.6,0.9-1.7,0.8-3c-4.2,2.2-10.1,4-15.4,4.8
					l-0.1-0.6c5.4-1.4,11.4-4.3,14.8-7.3l-0.3-0.7c-3.6,1.9-9,3.5-13.7,4.2l-0.1-0.6c4.4-1.1,9.4-3.4,12.3-5.7l-0.4-0.4
					c-3.2,1.2-7.2,2-11.1,2.5l-0.2-0.6c4-1,7.7-2.5,10.4-4.2h-6l-0.2-0.7h14.3l1.8-2.2l3.4,2.3c-0.2,0.4-0.7,0.6-1.6,0.6h-5.4
					c0.7,2,1.8,3.7,3.2,5.1c1.8-1.3,3.7-3,4.7-4.2l-0.3-0.2c0.3-0.9,0.8-2.7,1.1-3.9h-22.3c0.2,2.7-1.3,4.4-3.2,4.4
					c-1.1,0-2-0.6-2-1.6c0-0.9,0.7-1.5,1.5-1.9c1.3-0.4,2.6-1.8,2.6-3.4h0.5c0.2,0.6,0.4,1.2,0.4,1.7h22.1l1.9-1.9L259.9,56.8z
					 M228.3,46.5l-0.2-0.7h13.6v-4l5.2,0.5c-0.1,0.5-0.4,0.7-1.5,0.9v2.6h8.1l2.1-2.8l3.9,2.8c-0.3,0.4-0.7,0.6-1.7,0.6H228.3z
					 M253.5,53.6c0,0.2-1.9,0.9-3,0.9h-0.6v-1.2h-12.3v0.3c0,0.1-0.7,1.2-3.6,1.2v-7.6l3.8,1.5h11.8l1.3-1.7l3.8,2.6
					c-0.2,0.2-0.6,0.5-1.2,0.6V53.6z M237.5,52.6h12.3v-3.1h-12.3V52.6z"/>
				
					<linearGradient id="SVGID_10_" gradientUnits="userSpaceOnUse" x1="-201.2183" y1="-102.1564" x2="329.0376" y2="294.4492" gradientTransform="matrix(1 0 0 1 -32.6284 -130.0148)">
					<stop  offset="0" style="stop-color:#FAC859"/>
					<stop  offset="2.877487e-03" style="stop-color:#FACB64"/>
					<stop  offset="9.516122e-03" style="stop-color:#FBD176"/>
					<stop  offset="1.745736e-02" style="stop-color:#FCD582"/>
					<stop  offset="2.788930e-02" style="stop-color:#FCD78A"/>
					<stop  offset="5.042250e-02" style="stop-color:#FCD88C"/>
					<stop  offset="6.442444e-02" style="stop-color:#FCD681"/>
					<stop  offset="8.918270e-02" style="stop-color:#FBD163"/>
					<stop  offset="0.1216" style="stop-color:#FACA33"/>
					<stop  offset="0.1355" style="stop-color:#FAC61C"/>
					<stop  offset="0.1458" style="stop-color:#E6B417"/>
					<stop  offset="0.1638" style="stop-color:#C99B11"/>
					<stop  offset="0.184" style="stop-color:#B2860B"/>
					<stop  offset="0.207" style="stop-color:#9F7607"/>
					<stop  offset="0.2343" style="stop-color:#936A04"/>
					<stop  offset="0.2701" style="stop-color:#8B6402"/>
					<stop  offset="0.3475" style="stop-color:#896202"/>
					<stop  offset="0.6179" style="stop-color:#FAC859"/>
					<stop  offset="0.651" style="stop-color:#FACC64"/>
					<stop  offset="0.7093" style="stop-color:#FCD582"/>
					<stop  offset="0.7267" style="stop-color:#FCD88C"/>
					<stop  offset="0.7501" style="stop-color:#FCD481"/>
					<stop  offset="0.7914" style="stop-color:#FACB63"/>
					<stop  offset="0.8037" style="stop-color:#FAC859"/>
					<stop  offset="0.811" style="stop-color:#F2C153"/>
					<stop  offset="0.85" style="stop-color:#CC9F36"/>
					<stop  offset="0.8888" style="stop-color:#AF841F"/>
					<stop  offset="0.9271" style="stop-color:#9A710F"/>
					<stop  offset="0.9645" style="stop-color:#8D6605"/>
					<stop  offset="1" style="stop-color:#896202"/>
				</linearGradient>
				<path class="st8" d="M287.8,52.4c0.4-1.1,1-3.1,1.3-4.6h-21.5c0.2,2.9-1.1,5.1-3.3,5.1c-1.1,0-2-0.6-2-1.7
					c0-0.8,0.7-1.5,1.4-1.9c1.3-0.6,2.8-2.3,2.8-4.3h0.5c0.2,0.7,0.4,1.4,0.5,2h8.8v-5.4l5.2,0.5c-0.1,0.5-0.4,0.8-1.4,0.9v4h8.8
					l2-2l3.4,3.3c-0.3,0.3-0.7,0.4-1.3,0.4c-1.2,1.2-3.2,2.9-4.8,3.8L287.8,52.4z M288.1,59.5l1.7-2.9l4.2,2.2
					c-0.2,0.5-0.7,0.7-1.5,0.8l-14.1,1.9v7.4c0,1.1,0.1,1.2,1.6,1.2h7.6c0.8,0,1.3-0.1,1.7-0.6c0.4-0.6,1-2.3,1.8-4.8h0.3l-0.1,5
					c1.5,0.5,1.7,0.8,1.7,1.3c0,1.5-1.1,2.2-5.4,2.2H280c-4.2,0-5.3-0.8-5.3-4.4V62l-12.3,1.7l-0.3-0.7l12.6-1.7v-6.7
					c-3,0.6-6.1,1.1-9.1,1.4l-0.2-0.5c6.3-1.5,13.6-4.4,17.3-6.7l3.8,3.1c-0.2,0.2-0.5,0.3-0.9,0.3c-0.3,0-0.7-0.1-1.2-0.2
					c-1.5,0.6-3.2,1.1-5.1,1.6l0.3,0c-0.1,0.4-0.3,0.7-1.3,0.8v6.5L288.1,59.5z"/>
				
					<linearGradient id="SVGID_11_" gradientUnits="userSpaceOnUse" x1="-201.2183" y1="-102.1564" x2="329.0376" y2="294.4492" gradientTransform="matrix(1 0 0 1 -32.6284 -130.0148)">
					<stop  offset="0" style="stop-color:#FAC859"/>
					<stop  offset="2.877487e-03" style="stop-color:#FACB64"/>
					<stop  offset="9.516122e-03" style="stop-color:#FBD176"/>
					<stop  offset="1.745736e-02" style="stop-color:#FCD582"/>
					<stop  offset="2.788930e-02" style="stop-color:#FCD78A"/>
					<stop  offset="5.042250e-02" style="stop-color:#FCD88C"/>
					<stop  offset="6.442444e-02" style="stop-color:#FCD681"/>
					<stop  offset="8.918270e-02" style="stop-color:#FBD163"/>
					<stop  offset="0.1216" style="stop-color:#FACA33"/>
					<stop  offset="0.1355" style="stop-color:#FAC61C"/>
					<stop  offset="0.1458" style="stop-color:#E6B417"/>
					<stop  offset="0.1638" style="stop-color:#C99B11"/>
					<stop  offset="0.184" style="stop-color:#B2860B"/>
					<stop  offset="0.207" style="stop-color:#9F7607"/>
					<stop  offset="0.2343" style="stop-color:#936A04"/>
					<stop  offset="0.2701" style="stop-color:#8B6402"/>
					<stop  offset="0.3475" style="stop-color:#896202"/>
					<stop  offset="0.6179" style="stop-color:#FAC859"/>
					<stop  offset="0.651" style="stop-color:#FACC64"/>
					<stop  offset="0.7093" style="stop-color:#FCD582"/>
					<stop  offset="0.7267" style="stop-color:#FCD88C"/>
					<stop  offset="0.7501" style="stop-color:#FCD481"/>
					<stop  offset="0.7914" style="stop-color:#FACB63"/>
					<stop  offset="0.8037" style="stop-color:#FAC859"/>
					<stop  offset="0.811" style="stop-color:#F2C153"/>
					<stop  offset="0.85" style="stop-color:#CC9F36"/>
					<stop  offset="0.8888" style="stop-color:#AF841F"/>
					<stop  offset="0.9271" style="stop-color:#9A710F"/>
					<stop  offset="0.9645" style="stop-color:#8D6605"/>
					<stop  offset="1" style="stop-color:#896202"/>
				</linearGradient>
				<path class="st9" d="M305.9,69.1c0,1.4-1.2,2.6-2.6,2.6c-1.4,0-2.6-1.2-2.6-2.6c0-1.4,1.2-2.6,2.6-2.6
					C304.8,66.4,305.9,67.7,305.9,69.1z M302.7,64.3c-0.3-2.7-1.9-16.5-1.9-17.2c0-1.2,0.7-2.2,2.5-2.2c1.8,0,2.5,1,2.5,2.2
					c0,0.6-1.6,14.4-1.9,17.2H302.7z"/>
			</g>
		</g>
	</g>
	<g>
		<path class="st10" d="M9.1,7.9c0,1.6,0,2.9,0.1,3.5c0,0.5,0.1,0.8,0.6,0.9c0.2,0,0.6,0.1,0.7,0.1c0.1,0,0.1,0,0.1,0.1
			c0,0.1-0.1,0.1-0.3,0.1c-0.9,0-1.9,0-2,0s-1.1,0-1.6,0c-0.2,0-0.3,0-0.3-0.1c0,0,0-0.1,0.1-0.1c0.1,0,0.3,0,0.5-0.1
			c0.3-0.1,0.4-0.4,0.5-0.9c0.1-0.7,0.1-2,0.1-3.5V0.9L5.3,1c-1,0-1.4,0.1-1.7,0.5C3.5,1.8,3.4,1.9,3.4,2c0,0.1-0.1,0.2-0.2,0.2
			c0,0-0.1,0-0.1-0.1c0-0.2,0.3-1.6,0.4-1.7C3.5,0.2,3.6,0,3.6,0c0.1,0,0.3,0.2,0.7,0.2c0.5,0,1.1,0.1,1.3,0.1h6.1
			c0.5,0,0.9,0,1.2-0.1c0.2,0,0.4-0.1,0.5-0.1c0.1,0,0.1,0.1,0.1,0.2c0,0.5,0,1.6,0,1.8c0,0.1,0,0.2-0.1,0.2c-0.1,0-0.1,0-0.1-0.3
			l0-0.2c0-0.5-0.4-0.9-2-0.9l-2.1,0V7.9z"/>
		<path class="st10" d="M31.5,8.6c0,1.3,0,2.4,0.1,3c0,0.4,0.1,0.7,0.5,0.7c0.2,0,0.5,0.1,0.6,0.1c0.1,0,0.1,0.1,0.1,0.1
			c0,0.1-0.1,0.1-0.2,0.1c-0.8,0-1.7,0-1.8,0c-0.1,0-1,0-1.4,0c-0.2,0-0.2,0-0.2-0.1c0,0,0-0.1,0.1-0.1c0.1,0,0.3,0,0.4-0.1
			c0.3-0.1,0.3-0.3,0.4-0.8c0.1-0.6,0.1-1.6,0.1-3V7.2c0-0.1,0-0.1-0.1-0.1h-6c0,0-0.1,0-0.1,0.1v1.4c0,1.3,0,2.4,0.1,3
			c0,0.4,0.1,0.7,0.5,0.7c0.2,0,0.5,0.1,0.7,0.1c0.1,0,0.1,0.1,0.1,0.1c0,0.1-0.1,0.1-0.2,0.1c-0.8,0-1.7,0-1.8,0c-0.1,0-1,0-1.4,0
			c-0.1,0-0.2,0-0.2-0.1c0,0,0-0.1,0.1-0.1c0.1,0,0.3,0,0.4-0.1c0.3-0.1,0.3-0.3,0.4-0.7c0.1-0.6,0.1-1.7,0.1-3V6.1c0-2.2,0-2.6,0-3
			c0-0.5-0.1-0.7-0.6-0.8c-0.1,0-0.4,0-0.5,0c0,0-0.1-0.1-0.1-0.1c0-0.1,0.1-0.1,0.2-0.1c0.7,0,1.6,0,1.7,0c0.1,0,1,0,1.4,0
			c0.2,0,0.2,0,0.2,0.1c0,0-0.1,0.1-0.1,0.1c-0.1,0-0.2,0-0.4,0c-0.4,0.1-0.5,0.3-0.5,0.8c0,0.4,0,0.9,0,3v0.3c0,0.1,0,0.1,0.1,0.1
			h6c0,0,0.1,0,0.1-0.1V6.1c0-2.2,0-2.6,0-3c0-0.5-0.1-0.7-0.6-0.8c-0.1,0-0.4,0-0.5,0c-0.1,0-0.1-0.1-0.1-0.1
			c0-0.1,0.1-0.1,0.2-0.1c0.6,0,1.6,0,1.6,0c0.1,0,1,0,1.4,0c0.2,0,0.2,0,0.2,0.1c0,0-0.1,0.1-0.1,0.1c-0.1,0-0.2,0-0.4,0
			c-0.4,0.1-0.5,0.3-0.5,0.8c0,0.4,0,0.8,0,3V8.6z"/>
		<path class="st10" d="M42.8,6.1c0-2.2,0-2.6,0-3c0-0.5-0.1-0.7-0.6-0.8c-0.1,0-0.4,0-0.5,0c0,0-0.1-0.1-0.1-0.1
			c0-0.1,0.1-0.1,0.2-0.1c0.7,0,1.6,0,1.7,0c0.1,0,3.1,0,3.4,0c0.3,0,0.5-0.1,0.7-0.1C47.7,2,47.7,2,47.8,2c0,0,0.1,0.1,0.1,0.1
			c0,0.1-0.1,0.3-0.1,0.7c0,0.1,0,0.8-0.1,0.9c0,0.1-0.1,0.1-0.1,0.1c-0.1,0-0.1-0.1-0.1-0.2c0-0.1,0-0.3-0.1-0.5
			c-0.1-0.2-0.2-0.3-1-0.4c-0.2,0-1.9,0-2.1,0c-0.1,0-0.1,0-0.1,0.1v3.8c0,0.1,0,0.1,0.1,0.1c0.2,0,2.1,0,2.4,0c0.3,0,0.6,0,0.7-0.2
			c0.1-0.1,0.2-0.2,0.2-0.2s0.1,0,0.1,0.1s-0.1,0.3-0.1,0.8c0,0.3-0.1,0.8-0.1,0.9c0,0.1,0,0.3-0.1,0.3c-0.1,0-0.1,0-0.1-0.1
			c0-0.1,0-0.3-0.1-0.5c0-0.2-0.2-0.4-0.7-0.4c-0.4,0-1.9-0.1-2.2-0.1c-0.1,0-0.1,0-0.1,0.1v1.2c0,0.5,0,2.1,0,2.4
			c0,0.9,0.3,1.1,1.7,1.1c0.4,0,1.1,0,1.4-0.1c0.4-0.2,0.6-0.4,0.7-1c0-0.2,0.1-0.2,0.1-0.2c0.1,0,0.1,0.1,0.1,0.2
			c0,0.1-0.1,1-0.2,1.3c-0.1,0.4-0.2,0.4-0.8,0.4c-1.1,0-1.9,0-2.5,0c-0.6,0-1,0-1.2,0c0,0-0.3,0-0.6,0c-0.3,0-0.6,0-0.8,0
			c-0.1,0-0.2,0-0.2-0.1c0,0,0-0.1,0.1-0.1c0.1,0,0.3,0,0.4-0.1c0.3,0,0.3-0.3,0.4-0.7c0.1-0.6,0.1-1.7,0.1-3V6.1z"/>
		<path class="st10" d="M70.6,5c0-2.6,0-3,0-3.5c0-0.6-0.2-0.8-0.7-0.9c-0.1,0-0.4,0-0.6,0c-0.1,0-0.1,0-0.1-0.1
			c0-0.1,0.1-0.1,0.3-0.1c0.4,0,0.8,0,1.2,0l0.7,0c0.1,0,3.4,0,3.7,0c0.3,0,0.6,0,0.7-0.1c0.1,0,0.1-0.1,0.2-0.1
			c0,0,0.1,0.1,0.1,0.1c0,0.1-0.1,0.3-0.1,0.8c0,0.2,0,0.9-0.1,1.1c0,0.1,0,0.2-0.1,0.2c-0.1,0-0.1-0.1-0.1-0.2c0-0.1,0-0.4-0.1-0.6
			c-0.1-0.3-0.3-0.5-1.2-0.6c-0.3,0-2.1,0-2.2,0C72,0.9,72,0.9,72,1v4.5c0,0.1,0,0.2,0.1,0.2c0.2,0,2.2,0,2.6,0
			c0.4,0,0.6-0.1,0.8-0.2c0.1-0.1,0.2-0.2,0.2-0.2c0,0,0.1,0,0.1,0.1c0,0.1-0.1,0.4-0.1,0.9c0,0.3-0.1,0.9-0.1,1
			c0,0.1,0,0.3-0.1,0.3c-0.1,0-0.1-0.1-0.1-0.1c0-0.2,0-0.3-0.1-0.5c-0.1-0.2-0.2-0.5-0.9-0.6c-0.4,0-2.1-0.1-2.3-0.1
			c-0.1,0-0.1,0-0.1,0.1v1.4c0,0.6,0,2.5,0,2.8c0,1.1,0.3,1.3,1.9,1.3c0.4,0,1.1,0,1.6-0.2c0.4-0.2,0.6-0.5,0.7-1.2
			c0-0.2,0.1-0.2,0.1-0.2c0.1,0,0.1,0.1,0.1,0.2c0,0.1-0.1,1.2-0.2,1.6c-0.1,0.4-0.2,0.4-0.9,0.4c-1.2,0-2.1,0-2.8,0
			c-0.6,0-1,0-1.3,0c0,0-0.3,0-0.7,0c-0.3,0-0.7,0-0.9,0c-0.2,0-0.3,0-0.3-0.1c0,0,0-0.1,0.1-0.1c0.1,0,0.3,0,0.5-0.1
			c0.3-0.1,0.4-0.4,0.5-0.9c0.1-0.7,0.1-2,0.1-3.5V5z"/>
		<path class="st10" d="M88.1,8.6c0,2,0,2.9,0.3,3.1c0.2,0.2,0.8,0.3,1.9,0.3c0.8,0,1.4,0,1.7-0.4c0.2-0.2,0.3-0.5,0.3-0.8
			c0-0.1,0.1-0.2,0.1-0.2c0.1,0,0.1,0.1,0.1,0.2c0,0.1-0.1,1-0.2,1.4c-0.1,0.3-0.1,0.4-0.9,0.4c-1,0-1.8,0-2.5,0c-0.7,0-1.1,0-1.6,0
			c-0.1,0-0.3,0-0.6,0c-0.3,0-0.6,0-0.8,0c-0.1,0-0.2,0-0.2-0.1c0,0,0-0.1,0.1-0.1c0.1,0,0.3,0,0.4-0.1c0.3-0.1,0.3-0.3,0.4-0.7
			c0.1-0.6,0.1-1.7,0.1-3V6.1c0-2.2,0-2.6,0-3c0-0.5-0.1-0.7-0.6-0.8c-0.1,0-0.4,0-0.5,0c0,0-0.1-0.1-0.1-0.1c0-0.1,0.1-0.1,0.2-0.1
			c0.7,0,1.6,0,1.6,0c0.1,0,1.1,0,1.6,0c0.1,0,0.2,0,0.2,0.1c0,0-0.1,0.1-0.1,0.1c-0.1,0-0.3,0-0.5,0c-0.4,0.1-0.5,0.3-0.5,0.8
			c0,0.4,0,0.8,0,3V8.6z"/>
		<path class="st10" d="M103.4,8.6c0,1.3,0,2.4,0.1,3c0,0.4,0.1,0.7,0.5,0.7c0.2,0,0.5,0.1,0.7,0.1c0.1,0,0.1,0.1,0.1,0.1
			c0,0.1-0.1,0.1-0.2,0.1c-0.8,0-1.7,0-1.8,0c-0.1,0-1,0-1.4,0c-0.1,0-0.2,0-0.2-0.1c0,0,0-0.1,0.1-0.1c0.1,0,0.3,0,0.4-0.1
			c0.3-0.1,0.3-0.3,0.4-0.7c0.1-0.6,0.1-1.7,0.1-3V6.1c0-2.2,0-2.6,0-3c0-0.5-0.1-0.7-0.5-0.8c-0.2,0-0.3,0-0.4,0
			c-0.1,0-0.1-0.1-0.1-0.1c0-0.1,0.1-0.1,0.2-0.1c0.5,0,1.4,0,1.5,0c0.1,0,1,0,1.4,0c0.2,0,0.2,0,0.2,0.1c0,0-0.1,0.1-0.1,0.1
			c-0.1,0-0.2,0-0.4,0c-0.4,0.1-0.5,0.3-0.5,0.8c0,0.4,0,0.8,0,3V8.6z"/>
		<path class="st10" d="M118.1,8.6c0,1.3,0,2.4,0.1,3c0,0.4,0.1,0.7,0.6,0.7c0.2,0,0.5,0.1,0.7,0.1c0.1,0,0.1,0.1,0.1,0.1
			c0,0.1-0.1,0.1-0.2,0.1c-0.8,0-1.7,0-1.8,0c-0.1,0-1.1,0-1.5,0c-0.2,0-0.2,0-0.2-0.1c0,0,0-0.1,0.1-0.1c0.1,0,0.3,0,0.4-0.1
			c0.3-0.1,0.4-0.3,0.4-0.8c0.1-0.6,0.1-1.7,0.1-3V2.7l-2.1,0c-0.9,0-1.2,0.1-1.5,0.4c-0.2,0.2-0.2,0.3-0.2,0.4
			c0,0.1-0.1,0.1-0.1,0.1c0,0-0.1,0-0.1-0.1c0-0.1,0.3-1.4,0.3-1.5c0-0.1,0.1-0.3,0.1-0.3c0.1,0,0.2,0.1,0.6,0.2
			c0.4,0,1,0.1,1.1,0.1h5.4c0.5,0,0.8,0,1-0.1c0.2,0,0.3-0.1,0.4-0.1s0.1,0.1,0.1,0.2c0,0.4,0,1.4,0,1.6c0,0.1-0.1,0.2-0.1,0.2
			s-0.1,0-0.1-0.2l0-0.1c0-0.4-0.4-0.7-1.7-0.8l-1.8,0V8.6z"/>
		<path class="st10" d="M131.5,6.1c0-2.2,0-2.6,0-3c0-0.5-0.1-0.7-0.6-0.8c-0.1,0-0.4,0-0.5,0c0,0-0.1-0.1-0.1-0.1
			c0-0.1,0.1-0.1,0.2-0.1c0.7,0,1.6,0,1.7,0c0.1,0,3.1,0,3.4,0c0.3,0,0.5-0.1,0.7-0.1c0.1,0,0.1-0.1,0.2-0.1c0,0,0.1,0.1,0.1,0.1
			c0,0.1-0.1,0.3-0.1,0.7c0,0.1,0,0.8-0.1,0.9c0,0.1-0.1,0.1-0.1,0.1c-0.1,0-0.1-0.1-0.1-0.2c0-0.1,0-0.3-0.1-0.5
			c-0.1-0.2-0.2-0.3-1-0.4c-0.2,0-1.9,0-2.1,0c-0.1,0-0.1,0-0.1,0.1v3.8c0,0.1,0,0.1,0.1,0.1c0.2,0,2.1,0,2.4,0c0.3,0,0.6,0,0.7-0.2
			c0.1-0.1,0.2-0.2,0.2-0.2s0.1,0,0.1,0.1s-0.1,0.3-0.1,0.8c0,0.3-0.1,0.8-0.1,0.9c0,0.1,0,0.3-0.1,0.3c-0.1,0-0.1,0-0.1-0.1
			c0-0.1,0-0.3-0.1-0.5c0-0.2-0.2-0.4-0.7-0.4c-0.4,0-1.9-0.1-2.2-0.1c-0.1,0-0.1,0-0.1,0.1v1.2c0,0.5,0,2.1,0,2.4
			c0,0.9,0.3,1.1,1.7,1.1c0.4,0,1.1,0,1.4-0.1c0.4-0.2,0.6-0.4,0.7-1c0-0.2,0.1-0.2,0.1-0.2c0.1,0,0.1,0.1,0.1,0.2
			c0,0.1-0.1,1-0.2,1.3c-0.1,0.4-0.2,0.4-0.8,0.4c-1.1,0-1.9,0-2.5,0c-0.6,0-1,0-1.2,0c0,0-0.3,0-0.6,0c-0.3,0-0.6,0-0.8,0
			c-0.1,0-0.2,0-0.2-0.1c0,0,0-0.1,0.1-0.1c0.1,0,0.3,0,0.4-0.1c0.3,0,0.3-0.3,0.4-0.7c0.1-0.6,0.1-1.7,0.1-3V6.1z"/>
		<path class="st10" d="M162.8,7.9c0,1.6,0,2.9,0.1,3.5c0,0.5,0.1,0.8,0.6,0.9c0.2,0,0.6,0.1,0.7,0.1c0.1,0,0.1,0,0.1,0.1
			c0,0.1-0.1,0.1-0.3,0.1c-0.9,0-1.9,0-2,0s-1.1,0-1.6,0c-0.2,0-0.3,0-0.3-0.1c0,0,0-0.1,0.1-0.1c0.1,0,0.3,0,0.5-0.1
			c0.3-0.1,0.4-0.4,0.5-0.9c0.1-0.7,0.1-2,0.1-3.5V0.9L159,1c-1,0-1.4,0.1-1.7,0.5c-0.2,0.3-0.2,0.4-0.3,0.5c0,0.1-0.1,0.2-0.2,0.2
			c0,0-0.1,0-0.1-0.1c0-0.2,0.3-1.6,0.4-1.7c0-0.1,0.1-0.3,0.2-0.3c0.1,0,0.3,0.2,0.7,0.2c0.5,0,1.1,0.1,1.3,0.1h6.1
			c0.5,0,0.9,0,1.2-0.1c0.2,0,0.4-0.1,0.5-0.1c0.1,0,0.1,0.1,0.1,0.2c0,0.5,0,1.6,0,1.8c0,0.1,0,0.2-0.1,0.2c-0.1,0-0.1,0-0.1-0.3
			l0-0.2c0-0.5-0.4-0.9-2-0.9l-2.1,0V7.9z"/>
		<path class="st10" d="M176.4,6.1c0-2.2,0-2.6,0-3c0-0.5-0.1-0.7-0.6-0.8c-0.1,0-0.4,0-0.5,0c0,0-0.1-0.1-0.1-0.1
			c0-0.1,0.1-0.1,0.2-0.1c0.7,0,1.6,0,1.7,0c0.1,0,3.1,0,3.4,0c0.3,0,0.5-0.1,0.7-0.1c0.1,0,0.1-0.1,0.2-0.1c0,0,0.1,0.1,0.1,0.1
			c0,0.1-0.1,0.3-0.1,0.7c0,0.1,0,0.8-0.1,0.9c0,0.1-0.1,0.1-0.1,0.1c-0.1,0-0.1-0.1-0.1-0.2c0-0.1,0-0.3-0.1-0.5
			c-0.1-0.2-0.2-0.3-1-0.4c-0.2,0-1.9,0-2.1,0c-0.1,0-0.1,0-0.1,0.1v3.8c0,0.1,0,0.1,0.1,0.1c0.2,0,2.1,0,2.4,0c0.3,0,0.6,0,0.7-0.2
			c0.1-0.1,0.2-0.2,0.2-0.2s0.1,0,0.1,0.1s-0.1,0.3-0.1,0.8c0,0.3-0.1,0.8-0.1,0.9c0,0.1,0,0.3-0.1,0.3c-0.1,0-0.1,0-0.1-0.1
			c0-0.1,0-0.3-0.1-0.5c0-0.2-0.2-0.4-0.7-0.4c-0.4,0-1.9-0.1-2.2-0.1c-0.1,0-0.1,0-0.1,0.1v1.2c0,0.5,0,2.1,0,2.4
			c0,0.9,0.3,1.1,1.7,1.1c0.4,0,1.1,0,1.4-0.1c0.4-0.2,0.6-0.4,0.7-1c0-0.2,0.1-0.2,0.1-0.2c0.1,0,0.1,0.1,0.1,0.2
			c0,0.1-0.1,1-0.2,1.3c-0.1,0.4-0.2,0.4-0.8,0.4c-1.1,0-1.9,0-2.5,0c-0.6,0-1,0-1.2,0c0,0-0.3,0-0.6,0c-0.3,0-0.6,0-0.8,0
			c-0.1,0-0.2,0-0.2-0.1c0,0,0-0.1,0.1-0.1c0.1,0,0.3,0,0.4-0.1c0.3,0,0.3-0.3,0.4-0.7c0.1-0.6,0.1-1.7,0.1-3V6.1z"/>
		<path class="st10" d="M194.2,2.4c0.2-0.5,0.2-0.5,0.3-0.5c0.1,0,0.2,0.2,0.3,0.5c0.3,0.6,2.6,6.3,3.5,8.4c0.5,1.2,0.9,1.4,1.2,1.5
			c0.2,0.1,0.4,0.1,0.6,0.1c0.1,0,0.2,0,0.2,0.1c0,0.1-0.2,0.1-0.3,0.1c-0.2,0-1.3,0-2.3,0c-0.3,0-0.5,0-0.5-0.1
			c0-0.1,0-0.1,0.1-0.1c0.1,0,0.2-0.1,0.1-0.4l-1.3-3.2c0-0.1,0-0.1-0.1-0.1h-3.3c-0.1,0-0.1,0-0.1,0.1l-0.8,2.2
			c-0.1,0.3-0.2,0.7-0.2,0.9c0,0.3,0.2,0.4,0.5,0.4h0.1c0.1,0,0.1,0,0.1,0.1c0,0.1-0.1,0.1-0.2,0.1c-0.3,0-1.1,0-1.3,0
			c-0.1,0-0.9,0-1.5,0c-0.2,0-0.3,0-0.3-0.1c0-0.1,0.1-0.1,0.1-0.1c0.1,0,0.3,0,0.4,0c0.7-0.1,0.9-0.6,1.2-1.3L194.2,2.4z
			 M195.8,8.1C195.8,8.1,195.8,8.1,195.8,8.1l-1.4-3.9c-0.1-0.2-0.2-0.2-0.2,0L192.8,8c0,0.1,0,0.1,0,0.1H195.8z"/>
		<path class="st10" d="M219.9,10.8c0,0.5,0.1,1.2,0.7,1.4c0.4,0.1,0.8,0.1,0.9,0.1c0.1,0,0.1,0,0.1,0.1c0,0.1-0.1,0.1-0.3,0.1
			c-0.3,0-1.9,0-2.5-0.1c-0.3,0-0.4-0.1-0.4-0.1c0,0,0-0.1,0.1-0.1c0.1,0,0.1-0.2,0.1-0.5l-0.7-7h0l-3.5,7.1
			c-0.3,0.6-0.4,0.7-0.5,0.7s-0.2-0.1-0.5-0.6c-0.4-0.7-1.3-2.5-1.7-3.2c-0.4-0.9-1.6-3.2-1.8-3.8h-0.1l-0.6,6.3c0,0.2,0,0.5,0,0.7
			c0,0.2,0.1,0.3,0.3,0.4c0.2,0.1,0.5,0.1,0.6,0.1c0,0,0.1,0,0.1,0.1c0,0.1-0.1,0.1-0.3,0.1c-0.5,0-1.2,0-1.3,0c-0.1,0-0.8,0-1.2,0
			c-0.1,0-0.2,0-0.2-0.1c0,0,0.1-0.1,0.1-0.1c0.1,0,0.2,0,0.4,0c0.5-0.1,0.5-0.6,0.6-1.1l1-9.1c0-0.1,0.1-0.2,0.2-0.2
			c0.1,0,0.2,0,0.3,0.2l4.4,8.6l4.2-8.6c0.1-0.1,0.1-0.2,0.2-0.2c0.1,0,0.2,0.1,0.2,0.4L219.9,10.8z"/>
	</g>
</g>
</svg>
