<?xml version="1.0" encoding="utf-8"?>
<!-- Generator: Adobe Illustrator 25.2.3, SVG Export Plug-In . SVG Version: 6.00 Build 0)  -->
<svg version="1.1" id="section4_p.svg" xmlns="http://www.w3.org/2000/svg" xmlns:xlink="http://www.w3.org/1999/xlink" x="0px"
	 y="0px" viewBox="0 0 628 87" style="enable-background:new 0 0 628 87;" xml:space="preserve">
<style type="text/css">
	.st0{fill:#FFFFFF;}
</style>
<g>
	<g>
		<path class="st0" d="M17.9,5.9H3.2v3.5c0,3.1-0.6,5.6-1.8,7.5l-0.8-0.6c1.1-1.6,1.6-3.9,1.6-6.8V5h15.7V5.9z M9.1,0.4v3.4H2.5V0.4
			H9.1z M11.2,10H10v7.4h-1v-1.8c-1.1,0.2-3,0.4-5.7,0.6l-0.3-0.9c0.7,0,1.3-0.1,1.9-0.2V10h-1V9.2h3.3V7.9H4.4V7h6.4v0.9H8.2v1.3
			h3.1V10z M8.1,2.8V1.3H3.5v1.5H8.1z M9.1,11v-1H6v1H9.1z M9.1,12.9v-1H6v1H9.1z M9.1,14.6v-0.8H6V15C7.1,14.9,8.1,14.8,9.1,14.6z
			 M16.9,3.8h-6.3V0.4h6.3V3.8z M18.2,16.6l-0.6,0.8c-1.4-0.6-2.5-1.3-3.3-2.2c-1,0.9-2,1.7-3.2,2.2l-0.5-0.8c1.2-0.5,2.2-1.2,3-2
			c-0.6-1-1.1-1.9-1.3-2.9l0.9-0.4c0.2,0.9,0.6,1.7,1,2.5c0.8-1.1,1.3-2.6,1.5-4.2h-2.4c-0.5,1-1.2,1.9-1.9,2.6l-0.6-0.7
			c1.1-1.1,2-2.7,2.5-4.7l0.9,0.3c0,0.1-0.2,0.7-0.5,1.6H18v0.9h-1.2c-0.3,2-0.9,3.7-1.8,5C15.6,15.3,16.7,16,18.2,16.6z M15.9,2.8
			V1.3h-4.4v1.5H15.9z"/>
		<path class="st0" d="M38.3,16.2l-0.4,1h-6.8c-2,0-3.5-0.2-4.6-0.6c-1.1-0.4-2.1-1-2.8-1.8c-0.8,1.3-1.5,2.2-2.2,2.7l-0.7-0.6
			c1.8-1.5,2.9-3.7,3.5-6.4h-2.9v-1c1.1-1.5,2-2.8,2.7-4.1h-3.2v-1h4.3v1c-1,1.8-1.9,3.1-2.6,4.1h2.7v1c-0.2,1.1-0.5,2.3-1.1,3.4
			c1.3,1.6,3.5,2.3,6.6,2.3H38.3z M24.9,2.9l-0.8,0.7c-1-1.1-1.9-2-2.7-2.7l0.7-0.8C23.1,1,24,1.9,24.9,2.9z M38,12.3H25.6v-1h3.3
			V9.7h-2.8v-1h2.8V7.4h1v1.3h3.7V7.4h1v1.3h2.9v1h-2.9v1.6H38V12.3z M30.3,13.4c-1.3,0.8-2.5,1.4-3.6,1.8l-0.7-0.8
			c1.2-0.4,2.3-1,3.5-1.7L30.3,13.4z M31.5,6.3c-1.2,0.3-2.8,0.7-4.9,1.1l-0.4-0.9c0.2-0.2,0.4-0.4,0.4-0.6V0.5H31v3.8h-3.5v1.9
			c1.3-0.2,2.5-0.5,3.8-0.9L31.5,6.3z M30,3.2V1.4h-2.5v1.8H30z M33.6,11.3V9.7H30v1.6H33.6z M37.7,6.8h-4.1c-0.2,0-0.4-0.1-0.7-0.4
			c-0.2-0.2-0.4-0.5-0.4-0.7V0.5h4.6v3.8h-3.6v1.3c0,0.1,0,0.1,0.1,0.2c0.1,0.1,0.2,0.1,0.2,0.1h3.8V6.8z M37.5,14.3L37,15.1
			c-1.3-0.7-2.6-1.2-3.8-1.6l0.5-0.8C35,13,36.2,13.6,37.5,14.3z M36.1,3.2V1.4h-2.6v1.8H36.1z"/>
		<path class="st0" d="M58.4,16l-0.5,0.9c-2.6-0.9-4.7-2-6.4-3.4c0.1,0.5,0.2,1.1,0.2,1.7c0,0.6-0.1,1.1-0.3,1.4s-0.6,0.6-1,0.7
			c-0.4,0.1-1.2,0.2-2.2,0.2l-0.3-1c0.3,0,0.9,0,1.8,0c0.7,0,1.1-0.5,1.1-1.6c0-0.4-0.1-0.7-0.2-1.1c-2.6,1.6-5.7,2.6-9.1,3.1
			L40.8,16c3.7-0.4,6.8-1.5,9.3-3c-0.1-0.3-0.2-0.6-0.4-0.8c-2.4,1.3-5.1,2.2-8.1,2.6l-0.5-0.9c3-0.3,5.7-1.1,8-2.3
			c-0.2-0.2-0.4-0.4-0.7-0.6c-2,0.9-4.1,1.4-6.4,1.6l-0.4-0.9c2.3-0.1,4.5-0.6,6.5-1.5h-4.4V9.1h11.9v0.9h-5.5
			c-0.3,0.2-0.5,0.3-0.8,0.4c0.7,0.4,1.3,1.1,1.8,1.9c1.8-0.4,3.5-1,5.1-1.8l0.7,0.7c-1.3,0.7-2.8,1.3-4.5,1.7
			C54.1,14.4,56.1,15.4,58.4,16z M58.3,2.2H40.9v-1h8.4c-0.1-0.3-0.3-0.6-0.7-1.1l0.9-0.4c0.3,0.4,0.6,0.9,0.8,1.5h8V2.2z
			 M57.8,10.2h-1v-2H42.5v2.1h-1v-3h16.3V10.2z M55.6,6.2H43.7v-3h11.9V6.2z M54.6,5.3V4.1h-9.9v1.1H54.6z"/>
		<path class="st0" d="M78.5,11.4h-9v4.5c0,0.1,0.1,0.2,0.2,0.3c0.1,0.1,0.2,0.2,0.4,0.2h1.6c2.9,0,4.5,0,5-0.1
			c0.4-0.1,0.6-1,0.6-2.8l1.1,0.4c-0.1,1.5-0.2,2.4-0.5,2.8c-0.3,0.4-0.6,0.6-1,0.7c-0.4,0.1-1.9,0.1-4.6,0.1c-1.2,0-2,0-2.4,0
			c-0.4,0-0.7-0.2-1-0.5s-0.4-0.6-0.4-0.9v-4.6h-7.3v-1h7.3V7.1c-1.8,0.1-3.1,0.2-4,0.2l-0.4-1c4.9-0.2,8.5-0.7,10.8-1.6l0.6,0.9
			c-1.7,0.6-3.7,1-5.9,1.2v3.5h9V11.4z M77.8,7.2h-1.1V3.1H62.8v4.1h-1.1V2.1h7.5c-0.4-0.7-0.7-1.3-1-1.8l1-0.4
			c0.4,0.5,0.7,1.3,1.2,2.2h7.4V7.2z"/>
		<path class="st0" d="M83.4,12.7c-0.4,2-0.8,3.5-1.3,4.7l-1-0.3c0.6-1.5,1-3.1,1.3-4.7L83.4,12.7z M88.9,11.6L88,12
			c-0.2-0.5-0.4-1-0.5-1.2c-1.7,0.5-3.6,0.9-5.8,1.2l-0.3-1c1.4-1.2,2.7-2.7,4-4.6c-1.2,0.2-2.4,0.3-3.5,0.3l-0.2-0.9
			c1.5-1.6,2.8-3.6,3.8-6l1,0.4c-0.9,2.1-2,4-3.3,5.5c1,0,2-0.2,3-0.3c0.6-0.9,1.1-1.7,1.5-2.5l1,0.4c-1.9,3.3-3.7,5.7-5.5,7.4
			c1.1-0.1,2.5-0.4,3.9-0.8c-0.3-0.5-0.5-1-0.8-1.4l0.9-0.4C88,9.5,88.6,10.6,88.9,11.6z M86.1,16.8l-1,0.1
			c-0.1-1.4-0.3-2.8-0.6-4.2l1-0.1C85.8,14.2,86,15.6,86.1,16.8z M98.7,16.7l-0.6,0.8c-1.2-0.7-2.3-1.6-3.4-2.8
			c-1.1,1.1-2.4,2.1-3.8,2.8l-0.7-0.8c1.3-0.6,2.5-1.5,3.8-2.8c-1.2-1.7-2.1-3.9-2.6-6.6c-0.3,4.1-1.3,7.5-2.9,10.2l-0.8-0.6
			c0.3-0.5,0.6-1,0.8-1.6l-0.8,0.2c-0.3-1.1-0.6-2-1-2.8l0.9-0.2c0.4,0.7,0.8,1.6,1,2.6c1.3-2.8,1.9-7.3,2-13.5H89v-1h7.9
			c-0.3,2-0.7,3.8-1.3,5.6h2.4c-0.4,3.5-1.3,6.1-2.7,7.9C96.3,15,97.4,15.9,98.7,16.7z M95.6,1.4h-4c0,1.6-0.1,3.1-0.1,4.6h3
			C95,4.4,95.4,2.9,95.6,1.4z M96.9,7.1h-4.5c0.4,2.4,1.2,4.4,2.3,6C95.8,11.7,96.5,9.7,96.9,7.1z"/>
		<path class="st0" d="M118.7,16.2l-0.2,1.1c-1.2,0-2.4,0-3.4,0c-2.4,0-4-0.1-5-0.2s-2-0.4-3-0.7c-1-0.3-1.8-0.9-2.6-1.7
			c-1,1.2-1.9,2.1-2.7,2.8l-0.7-0.8c1-0.8,1.9-1.7,2.7-2.8c-0.7-1-1.4-2.3-1.9-3.9l0.9-0.4c0.4,1.4,0.9,2.5,1.5,3.3
			c0.7-1.5,1.1-3.2,1.2-5.1h-3.7V6.9c1.2-1.6,2.5-3.4,3.7-5.4h-4.1v-1h5.2v1c-1.2,2.1-2.4,3.8-3.5,5.3h3.5c-0.1,2.9-0.6,5.3-1.5,7
			c0.6,0.6,1.3,1.2,2.1,1.5c0.8,0.4,1.6,0.6,2.5,0.7s2.7,0.2,5.3,0.2C116.3,16.2,117.5,16.2,118.7,16.2z M118.6,5.3h-1.4v2.8h-4.6
			v1.7h5v1h-5v1.6h5.7v1h-5.7v2h-1v-2h-5v-1h5v-1.6h-4.2v-1h4.2V8.1h-3.8v-1h3.8V5.3h-5v-1h5V2.5h-3.8v-1h3.8V0.1h1v1.5h4.6v2.7h1.4
			V5.3z M116.1,4.3V2.6h-3.6v1.7H116.1z M116.1,7.1V5.3h-3.6v1.8H116.1z"/>
		<path class="st0" d="M129.7,10l-0.7,0.9c-0.7-1.2-1.6-2.4-2.7-3.7v10.2h-1V7.1c-1,2.3-2.1,4.1-3.3,5.5l-0.7-0.9
			c1.6-1.9,2.9-4.2,3.8-7h-3.5v-1h3.6v-4h1v4h3.1v1h-3.1v1.1C127.5,7.1,128.7,8.5,129.7,10z M138.8,4.9h-2.3v10.6
			c0,0.8-0.2,1.4-0.6,1.6c-0.4,0.3-1.1,0.4-2.3,0.4c-0.4,0-0.7,0-1.1,0l-0.4-1c0.5,0,1.1,0.1,1.6,0.1c0.8,0,1.3-0.1,1.5-0.2
			c0.2-0.1,0.3-0.3,0.3-0.6V6.1c-1.4,3.2-3.6,6-6.7,8.3l-0.7-0.8c3.2-2.3,5.5-5.2,6.8-8.7h-4.8v-1h5.4v-4h1v4h2.3V4.9z"/>
		<path class="st0" d="M150.6,1.5h-3v2.6h2.4v13.3h-1v-1.2h-5.9v1.1h-1V4.1h2.4V1.5h-3.1v-1h9.1V1.5z M149.1,15.2v-5.1h-0.9
			c-1,0-1.5-0.4-1.5-1.3V5.1h-1.2c0,3-0.6,5.1-1.9,6.3l-0.4-0.4v4.2H149.1z M144.5,5.1h-1.3v5.2C144,9.3,144.5,7.6,144.5,5.1z
			 M148.2,13h-4.3v-0.9h4.3V13z M146.7,4.1V1.5h-1.2v2.6H146.7z M149.1,9.1v-4h-1.4v3.5c0,0.3,0.2,0.5,0.6,0.5H149.1z M158.9,12.9
			c-0.1,1.7-0.2,2.8-0.4,3.2c-0.2,0.4-0.5,0.7-0.9,0.8c-0.4,0.1-1.2,0.2-2.5,0.2c-1.4,0-2.2,0-2.5-0.1c-0.3,0-0.5-0.2-0.7-0.4
			c-0.2-0.2-0.3-0.6-0.3-1V6.7h5.3V1.5h-5.6v-1h6.7v7.2h-5.4v7.8c0,0.1,0.1,0.3,0.2,0.4c0.1,0.1,0.3,0.2,0.5,0.2s1.3,0,3.2,0
			c0.6,0,1-0.3,1.1-1c0.1-0.7,0.2-1.5,0.2-2.5L158.9,12.9z"/>
		<path class="st0" d="M166,0l-1.1,3.7v13.7h-1V6.2c-0.6,1.2-1.1,2.2-1.6,2.9l-0.7-0.8c1.5-2.2,2.7-5.1,3.5-8.7L166,0z M179,5.9
			h-8.9c-0.4,0.7-0.7,1.2-1,1.6h8.7v8.5c0,0.3-0.1,0.6-0.3,0.9c-0.2,0.3-0.4,0.5-0.7,0.6s-0.9,0.1-1.7,0.1l-0.4-1c0.4,0,0.8,0,1.1,0
			c0.6,0,1-0.2,1-0.7v-2h-3.3v3.5h-1v-3.5h-3.7c-0.4,1.5-1.1,2.7-2.1,3.8l-0.7-0.7c1.5-1.7,2.3-3.8,2.3-6.2V8.5
			c-0.7,0.9-1.5,1.7-2.4,2.5l-0.7-0.7c1.5-1.3,2.7-2.7,3.8-4.4h-3.3v-1h3.8v-2h-3.3v-1h3.3v-1.9h1v1.9h3.8v-1.9h1v1.9h3.2v1h-3.2v2
			h3.6V5.9z M172.6,12.8v-1.7h-3.3c0,0.6-0.1,1.2-0.2,1.7H172.6z M172.6,10.1V8.4h-3.2v1.7H172.6z M174.4,4.9v-2h-3.8v2H174.4z
			 M176.9,10.1V8.4h-3.3v1.7H176.9z M176.9,12.8v-1.7h-3.3v1.7H176.9z"/>
		<path class="st0" d="M190.2,10.6c-0.5-0.3-0.7-0.6-0.7-1c0-0.2,0.1-0.4,0.2-0.6s0.4-0.3,0.7-0.3c0.6,0,0.9,0.4,0.9,1.2
			c0,0.7-0.4,1.3-1.2,1.9l-0.4-0.3C190,11.2,190.2,10.8,190.2,10.6z"/>
		<path class="st0" d="M211.3,2.8H207v13.6h-1.7V2.8h-4.4V1.3h10.4V2.8z"/>
		<path class="st0" d="M211.9,9c0-2.4,0.7-4.4,2-5.8c1.3-1.5,3.1-2.2,5.4-2.2c2.1,0,3.8,0.7,5,2.1c1.3,1.4,1.9,3.3,1.9,5.5
			c0,2.4-0.6,4.4-1.9,5.8c-1.3,1.5-3,2.2-5.3,2.2c-2.1,0-3.8-0.7-5.1-2.1C212.5,13.1,211.9,11.3,211.9,9z M213.6,8.9
			c0,1.8,0.5,3.3,1.4,4.5c1,1.2,2.3,1.8,3.9,1.8c1.7,0,3.1-0.6,4-1.7s1.4-2.7,1.4-4.6c0-2-0.5-3.6-1.4-4.7s-2.2-1.7-3.9-1.7
			c-1.7,0-3,0.6-4,1.8S213.6,7.1,213.6,8.9z"/>
		<path class="st0" d="M237.1,2.8h-4.4v13.6h-1.7V2.8h-4.4V1.3h10.4V2.8z"/>
		<path class="st0" d="M237.6,9c0-2.4,0.7-4.4,2-5.8c1.3-1.5,3.1-2.2,5.4-2.2c2.1,0,3.8,0.7,5,2.1c1.3,1.4,1.9,3.3,1.9,5.5
			c0,2.4-0.6,4.4-1.9,5.8c-1.3,1.5-3,2.2-5.3,2.2c-2.1,0-3.8-0.7-5.1-2.1C238.3,13.1,237.6,11.3,237.6,9z M239.4,8.9
			c0,1.8,0.5,3.3,1.4,4.5c1,1.2,2.3,1.8,3.9,1.8c1.7,0,3.1-0.6,4-1.7s1.4-2.7,1.4-4.6c0-2-0.5-3.6-1.4-4.7s-2.2-1.7-3.9-1.7
			c-1.7,0-3,0.6-4,1.8S239.4,7.1,239.4,8.9z"/>
		<path class="st0" d="M258.5,5.5l-1,1.8v10.1h-1V8.9c-0.5,0.8-1.1,1.5-1.6,2.1l-0.8-0.7c1.3-1.4,2.5-3.2,3.5-5.3L258.5,5.5z
			 M258.8,0.3c-1.4,2-2.6,3.5-3.7,4.5l-0.8-0.6c1.3-1.1,2.5-2.5,3.7-4.3L258.8,0.3z M267.7,15.1h-3.6v2.3h-1v-2.3h-3.9l0.4-2.8h-0.8
			v-0.9h4.3V9.9h-3.4V6.4h7.1v3.6h-2.7v1.4h3.3v0.9h-3.3v1.9h3.6V15.1z M267.8,5h-9V4h2.8l0.5-1.7h-2.4v-1h2.6l0.3-1.3h1l-0.3,1.3
			h3.2V4h1.3V5z M263.1,14.2v-1.9h-2.5l-0.3,1.9H263.1z M265.7,9V7.3h-5V9H265.7z M265.5,4V2.3h-2.4L262.7,4H265.5z M271.8,6.8h-1.2
			V16c0,0.4-0.1,0.7-0.3,1c-0.2,0.2-0.4,0.4-0.6,0.4c-0.2,0-0.8,0-1.7,0l-0.3-1c0.3,0,0.5,0,0.8,0c0.5,0,0.9,0,1-0.1
			c0.1-0.1,0.2-0.2,0.2-0.4v-9h-2.1v-1h4.2V6.8z M271.5,1.7h-3.7v-1h3.7V1.7z"/>
		<path class="st0" d="M278.3,7.8l-0.6,0.9c-0.8-0.8-1.9-1.7-3.2-2.6l0.6-0.8C276.4,6.1,277.4,6.9,278.3,7.8z M278.7,11.1
			c-1,2.5-2.1,4.6-3.3,6.3l-0.8-0.8c1.2-1.6,2.2-3.7,3.2-6.2L278.7,11.1z M279,2.5l-0.7,0.8c-0.9-1-2-1.8-3.2-2.6l0.7-0.9
			C276.9,0.6,278,1.5,279,2.5z M292.1,9.7l-0.7,0.9c-2.9-2-4.9-3.9-6.1-5.7c-1.6,2-3.6,3.8-6.2,5.6l-0.8-0.7
			c3.2-2.2,5.5-4.4,6.8-6.6l0.9,0.4c0,0.1-0.1,0.2-0.2,0.4C287.4,6.1,289.4,8,292.1,9.7z M284.3,0.5c-1.5,1.8-3,3.1-4.5,4.1L279,3.9
			c1.5-1,3-2.3,4.5-4L284.3,0.5z M289.7,17.5h-1v-1.3H282v1.3h-1.1V9.8h8.7V17.5z M288.6,15.1v-4.2H282v4.2H288.6z M291.6,3.9
			l-0.7,0.7c-1.4-1.5-2.9-2.9-4.7-4l0.7-0.8C288.9,1.2,290.5,2.5,291.6,3.9z"/>
		<path class="st0" d="M305.2,9.9l-0.7,0.8c-1-1.1-2-2-3.2-2.9L302,7C303.4,8,304.4,9,305.2,9.9z"/>
		<path class="st0" d="M317,10.7v5.8h-1.7V1.3h4.1c1.6,0,2.8,0.4,3.7,1.2c0.9,0.8,1.3,1.9,1.3,3.3c0,1.5-0.5,2.7-1.6,3.6
			c-1.1,0.9-2.3,1.3-3.9,1.3H317z M317,2.8v6.3h1.9c1.2,0,2.2-0.3,2.9-0.8c0.7-0.6,1-1.4,1-2.4c0-2-1.2-3.1-3.6-3.1H317z"/>
		<path class="st0" d="M326.8,6.4c1.1-0.7,2.3-1,3.7-1c2.5,0,3.8,1.3,3.8,4v7.1h-1.6v-1.7h-0.1c-0.8,1.3-1.9,2-3.3,2
			c-1.1,0-1.9-0.3-2.5-0.9c-0.6-0.6-0.9-1.3-0.9-2.3c0-2,1.2-3.2,3.6-3.5l3.3-0.5c0-1.9-0.8-2.8-2.3-2.8c-1.3,0-2.5,0.4-3.5,1.3V6.4
			z M329.9,11.3c-0.9,0.1-1.6,0.3-1.9,0.7c-0.4,0.3-0.5,0.8-0.5,1.5c0,0.5,0.2,1,0.6,1.3c0.4,0.3,0.9,0.5,1.5,0.5
			c0.9,0,1.6-0.3,2.2-0.9s0.9-1.4,0.9-2.3V11L329.9,11.3z"/>
		<path class="st0" d="M346.5,16.4h-1.6v-6.2c0-2.3-0.9-3.5-2.6-3.5c-0.9,0-1.6,0.3-2.2,1s-0.9,1.5-0.9,2.5v6.2h-1.6V5.6h1.6v1.8h0
			c0.8-1.4,2-2.1,3.6-2.1c1.2,0,2.1,0.4,2.7,1.1s0.9,1.9,0.9,3.3V16.4z"/>
		<path class="st0" d="M350.1,6.4c1.1-0.7,2.3-1,3.7-1c2.5,0,3.8,1.3,3.8,4v7.1h-1.6v-1.7h-0.1c-0.8,1.3-1.9,2-3.3,2
			c-1.1,0-1.9-0.3-2.5-0.9c-0.6-0.6-0.9-1.3-0.9-2.3c0-2,1.2-3.2,3.6-3.5l3.3-0.5c0-1.9-0.8-2.8-2.2-2.8c-1.3,0-2.5,0.4-3.5,1.3V6.4
			z M353.3,11.3c-0.9,0.1-1.6,0.3-1.9,0.7s-0.5,0.8-0.5,1.5c0,0.5,0.2,1,0.6,1.3c0.4,0.3,0.9,0.5,1.5,0.5c0.9,0,1.6-0.3,2.2-0.9
			s0.9-1.4,0.9-2.3V11L353.3,11.3z"/>
		<path class="st0" d="M360.2,14.2c0.9,0.7,2,1,3.1,1c1.5,0,2.3-0.5,2.3-1.6c0-0.5-0.2-0.8-0.5-1.1s-1-0.6-2-1
			c-1.2-0.5-2-0.9-2.3-1.4c-0.4-0.5-0.6-1.1-0.6-1.8c0-0.9,0.4-1.7,1.2-2.3c0.8-0.6,1.8-0.9,2.9-0.9c0.9,0,1.8,0.2,2.5,0.5v1.7
			c-0.8-0.5-1.7-0.8-2.8-0.8c-0.6,0-1.2,0.1-1.6,0.4S362,7.9,362,8.3s0.1,0.8,0.4,1.1s0.9,0.6,1.9,1c1.2,0.5,2.1,0.9,2.5,1.4
			c0.4,0.5,0.6,1.1,0.6,1.8c0,1-0.4,1.7-1.2,2.3c-0.8,0.6-1.8,0.8-3,0.8c-1.1,0-2.1-0.2-2.9-0.7V14.2z"/>
		<path class="st0" d="M369.4,11.2c0-1.8,0.5-3.2,1.5-4.3s2.3-1.6,4-1.6c1.6,0,2.8,0.5,3.7,1.5c0.9,1,1.4,2.4,1.4,4.1
			c0,1.7-0.5,3.1-1.5,4.1s-2.3,1.6-3.9,1.6c-1.6,0-2.8-0.5-3.8-1.5C369.9,14.2,369.4,12.8,369.4,11.2z M371.1,11.1
			c0,1.3,0.3,2.3,1,3.1c0.7,0.8,1.6,1.1,2.7,1.1c1.1,0,2-0.4,2.6-1.1s0.9-1.8,0.9-3.1c0-1.4-0.3-2.4-0.9-3.2
			c-0.6-0.7-1.5-1.1-2.6-1.1c-1.1,0-2,0.4-2.7,1.2C371.4,8.7,371.1,9.8,371.1,11.1z"/>
		<path class="st0" d="M391.8,16.4h-1.6v-6.2c0-2.3-0.9-3.5-2.6-3.5c-0.9,0-1.6,0.3-2.2,1s-0.9,1.5-0.9,2.5v6.2h-1.6V5.6h1.6v1.8h0
			c0.8-1.4,2-2.1,3.6-2.1c1.2,0,2.1,0.4,2.7,1.1s0.9,1.9,0.9,3.3V16.4z"/>
		<path class="st0" d="M394.9,1.7c0-0.3,0.1-0.6,0.3-0.8c0.2-0.2,0.5-0.3,0.7-0.3c0.3,0,0.6,0.1,0.8,0.3s0.3,0.5,0.3,0.8
			c0,0.3-0.1,0.5-0.3,0.8s-0.5,0.3-0.8,0.3s-0.6-0.1-0.8-0.3S394.9,2,394.9,1.7z M395.1,16.4V5.6h1.6v10.8H395.1z"/>
		<path class="st0" d="M407.7,15.9c-0.8,0.5-1.8,0.8-2.9,0.8c-1.5,0-2.8-0.5-3.7-1.5c-0.9-1-1.4-2.3-1.4-3.9c0-1.8,0.5-3.2,1.5-4.3
			c1-1.1,2.4-1.6,4.1-1.6c0.9,0,1.8,0.2,2.5,0.5v1.7c-0.8-0.6-1.7-0.9-2.6-0.9c-1.1,0-2,0.4-2.7,1.2c-0.7,0.8-1.1,1.9-1.1,3.2
			c0,1.3,0.3,2.3,1,3.1s1.6,1.1,2.7,1.1c1,0,1.9-0.3,2.7-0.9V15.9z"/>
		<path class="st0" d="M427.2,2.8h-14.9v5.8c0,2.1-0.1,3.8-0.3,5.1s-0.6,2.5-1.2,3.7l-0.8-0.6c0.9-2,1.4-4.8,1.4-8.2V1.8h7.1
			c-0.1-0.4-0.4-0.9-0.7-1.5l0.9-0.4c0.4,0.7,0.6,1.3,0.8,1.9h7.6V2.8z M421,16.1c-2.2,0.5-4.8,0.9-7.8,1.4l-0.2-1
			c0.5,0,1.3-0.2,2.5-0.3c0-0.4-0.3-1.3-0.8-2.8l0.7-0.6h-1.4V9.2h6.4v3.6h-1.4l0.7,0.5c-0.3,0.8-0.5,1.6-0.8,2.3
			c0.7-0.1,1.4-0.2,2.2-0.4V16.1z M421,5.6h-3.2V7h2.8V8h-6.9V7h3V5.6h-3.5V4.6h3.5V3.5h1v1.1h3.2V5.6z M419.2,11.8v-1.6h-4.4v1.6
			H419.2z M418.7,12.7h-3.2c0.5,1.4,0.8,2.5,0.9,3.2l1.3-0.2C418.1,14.7,418.4,13.7,418.7,12.7z M423.5,12.9l-0.9,0.3
			c-0.2-1.1-0.6-2.2-1.3-3.5l0.9-0.3C422.7,10.4,423.1,11.6,423.5,12.9z M427.4,7.4h-1.7V16c0,1-0.5,1.6-1.6,1.6h-2l-0.3-1h2.2
			c0.4,0,0.7-0.2,0.7-0.7V7.4h-3.3V6.5h3.3V3.7h1v2.7h1.7V7.4z"/>
		<path class="st0" d="M436.8,15c-1.6,1-3.6,1.8-6,2.6l-0.7-0.9c2.5-0.7,4.4-1.6,5.9-2.5L436.8,15z M447.7,13.4h-17.5v-1h2V0.5h13.4
			v11.9h2.1V13.4z M444.6,3.4V1.5h-11.3v1.9H444.6z M444.6,6.3V4.4h-11.3v1.9H444.6z M444.6,9.3V7.2h-11.3v2.1H444.6z M444.6,12.4
			v-2.1h-11.3v2.1H444.6z M447.7,16.8l-0.7,0.8c-1.7-1-3.8-1.8-6.1-2.5l0.5-0.9C444,15.1,446.1,15.9,447.7,16.8z"/>
		<path class="st0" d="M460.9,9.9l-0.7,0.8c-1-1.1-2-2-3.2-2.9l0.7-0.8C459,8,460.1,9,460.9,9.9z"/>
		<path class="st0" d="M480.8,1.3l-5,9.6v5.6h-1.7v-5.6l-4.9-9.6h1.9l3.4,6.9c0.1,0.1,0.2,0.4,0.4,0.9h0c0.1-0.2,0.2-0.5,0.4-0.9
			l3.6-6.9H480.8z"/>
		<path class="st0" d="M493.4,16.4h-2.4l-5.9-6.9c-0.2-0.2-0.3-0.4-0.4-0.5h0v7.5H483V1.3h1.7v7.1h0c0.1-0.1,0.2-0.3,0.4-0.5
			l5.8-6.6h2.1l-6.6,7.3L493.4,16.4z"/>
		<path class="st0" d="M505.9,16.4h-2.4l-5.9-6.9c-0.2-0.2-0.3-0.4-0.4-0.5h0v7.5h-1.7V1.3h1.7v7.1h0c0.1-0.1,0.2-0.3,0.4-0.5
			l5.8-6.6h2.1l-6.6,7.3L505.9,16.4z"/>
		<path class="st0" d="M524.6,2.6h-13.1c-0.8,1.2-2,2.4-3.4,3.5l-0.7-0.9c2.2-1.6,3.7-3.5,4.6-5.5l1,0.3c-0.2,0.5-0.5,1-0.8,1.4
			h12.4V2.6z M512.6,13.9c-1.1,1.1-2.6,2.1-4.4,3.1l-0.7-0.9c1.8-0.9,3.3-1.8,4.4-2.9L512.6,13.9z M520.2,12.3h-5.5v5.1h-1v-5.1h-6
			v-1h6v-3h1v3h5.5V12.3z M524.9,13.5c-0.2,1.2-0.5,2.2-0.8,3c-0.3,0.7-0.7,1.1-1.2,1.1c-0.7,0-1.2-0.6-1.4-1.8s-0.3-2.5-0.3-3.9
			V7.6h-12.1v-1h13.1v5.1c0,1.3,0.1,2.3,0.2,3.2c0.1,0.9,0.3,1.3,0.5,1.3c0.1,0,0.1,0,0.2-0.1s0.2-0.4,0.4-1.1
			c0.2-0.7,0.4-1.4,0.5-2.2L524.9,13.5z M512.4,10.1l-0.9,0.6c-0.7-0.6-1.5-1.2-2.4-1.8l0.8-0.7C511,8.7,511.8,9.4,512.4,10.1z
			 M523.5,5.1h-11.9v-1h11.9V5.1z M519.2,8.8c-0.7,0.8-1.5,1.5-2.3,2l-0.9-0.7c0.7-0.5,1.4-1.1,2.2-1.9L519.2,8.8z M520.7,16.3
			l-0.8,0.8c-1.4-1.4-2.7-2.4-3.7-3.1l0.8-0.7C518.5,14.4,519.7,15.3,520.7,16.3z"/>
		<path class="st0" d="M541.2,4.6c-1.9,2.2-4.2,4-7.1,5.5c0,0.2,0.1,0.3,0.3,0.4s1,0.1,2.3,0.1c1.4,0,2.3-0.1,2.7-0.2
			c0.4-0.1,0.6-0.9,0.7-2.3l1,0.5c0,0.8-0.2,1.5-0.4,1.9c-0.2,0.5-0.6,0.7-0.9,0.8c-0.4,0.1-1.1,0.2-2.2,0.2c-1.9,0-3.1,0-3.5-0.1
			c-0.4-0.1-0.7-0.4-0.9-0.8c-1.7,0.8-3.4,1.4-5,2l-0.5-0.8c2-0.7,3.8-1.4,5.4-2.2V3.8h1V9c2.6-1.3,4.7-3,6.4-5L541.2,4.6z
			 M532.3,5.3c-1.3,1.6-2.6,2.9-4,3.9l-0.7-0.7c1.2-0.9,2.5-2.1,3.8-3.7L532.3,5.3z M544.2,5.5h-1v-3h-13.8v3h-1v-4h7.5
			c-0.1-0.4-0.3-0.9-0.6-1.4l0.9-0.3c0.3,0.5,0.5,1.1,0.7,1.7h7.3V5.5z M542.9,17.5h-1V17h-12.2v-4.1h1V16h5v-4h1v4h5.2v-3.2h1V17.5
			z M537.8,5.6l-0.8,0.5c-0.6-0.9-1.2-1.7-1.9-2.4l0.9-0.5C536.5,3.7,537.1,4.6,537.8,5.6z M544.9,9.6l-0.8,0.7
			c-0.8-1.2-1.9-2.4-3.2-3.7l0.8-0.6C543.1,7.4,544.2,8.6,544.9,9.6z"/>
		<path class="st0" d="M564.4,4.8h-1V2.6h-4.6v1.5c0,0.4,0.2,0.5,0.6,0.5h3.2v1h-3.4c-0.9,0-1.3-0.4-1.3-1.2V2.6h-2.2
			c-0.3,0.9-0.9,1.7-1.8,2.3S552,6,551,6.1l-0.6-0.9c2.2-0.2,3.6-1.1,4.2-2.6h-5.1v2.1h-1.1V1.6h7.6c-0.4-0.6-0.8-1.1-1-1.3l0.9-0.5
			c0.3,0.4,0.8,1,1.3,1.8h7.2V4.8z M563.5,17.6h-1.1v-0.9h-12.1v0.9h-1V7h5.2c0.6-1,1-1.7,1.1-2.1l1,0.3c-0.2,0.5-0.5,1-0.9,1.7h7.8
			V17.6z M562.5,15.6V8h-12.1v7.6H562.5z M561.3,14.1l-0.7,0.7c-1.1-0.8-2.2-1.5-3.2-2.2c-1.7,1.1-3.3,1.9-4.9,2.3l-0.7-0.8
			c1.7-0.5,3.3-1.2,4.6-2.1c-0.7-0.4-1.3-0.7-1.7-1c-0.9,0.6-1.8,1-2.5,1.3l-0.7-0.8c0.8-0.3,1.5-0.6,2.2-1c-0.4-0.2-1-0.5-1.8-0.9
			l0.7-0.7c0.6,0.3,1.3,0.7,2,1c0.7-0.6,1.2-1,1.5-1.4l0.8,0.5c-0.3,0.5-0.8,0.9-1.4,1.4l1.8,1c0.8-0.5,1.7-1.3,2.5-2.4l0.8,0.5
			c-0.6,0.9-1.4,1.7-2.5,2.5C559,12.5,560,13.2,561.3,14.1z"/>
		<path class="st0" d="M578.4,9.9l-0.7,0.8c-1-1.1-2-2-3.2-2.9l0.7-0.8C576.5,8,577.6,9,578.4,9.9z"/>
		<path class="st0" d="M605.3,17h-17.4v-1.1h17.4V17z M604.3,1.5h-15.4V0.4h15.4V1.5z M603.5,8.9h-13.7V7.8h13.7V8.9z"/>
		<path class="st0" d="M625.5,7.9h-6v1.3c0,0.1,0,0.2,0.1,0.2c0.1,0.1,0.2,0.1,0.2,0.1h5.2v0.9h-5.5c-0.3,0-0.5-0.1-0.8-0.3
			c-0.2-0.2-0.3-0.5-0.3-0.8V7.9h-3.6c-0.6,1.8-2.7,3.1-6.3,3.8l-0.5-0.9c3.2-0.5,5.1-1.4,5.7-2.8h-5.8V6.9h8.2V5.4h-6.7v-1h6.7V3.1
			h1v1.3h6.6v1h-6.6v1.6h8.2V7.9z M625.5,16.5l-0.5,1c-2.9-0.4-5.4-1-7.2-1.8c-2.4,0.9-5.4,1.5-9.1,1.7l-0.5-0.9
			c3.8-0.2,6.6-0.6,8.4-1.3c-1.3-0.6-2.4-1.3-3.3-2.1c-1.3,0.7-2.5,1.2-3.7,1.6l-0.6-0.8c1.2-0.3,2.3-0.8,3.5-1.4
			c-0.3-0.3-0.5-0.5-0.6-0.6l0.8-0.5c0.2,0.2,0.5,0.4,0.7,0.6c1.1-0.7,2.1-1.4,2.8-2.3l1,0.4c-0.3,0.5-0.9,1-1.6,1.6h6.8v0.9
			c-1.2,1.2-2.3,2.1-3.3,2.6C620.7,15.8,622.8,16.3,625.5,16.5z M616.3,2.5h-2.5v1h-1v-1h-4.5v-1h4.5v-1.6h1v1.6h2.5V2.5z
			 M620.9,12.6h-6.7l0,0c0.8,0.7,2,1.4,3.7,2.1C618.9,14.2,619.9,13.5,620.9,12.6z M625.3,2.5h-4.6v1h-1v-1h-2.4v-1h2.4v-1.6h1v1.6
			h4.6V2.5z"/>
		<path class="st0" d="M17.7,42h-1v-3.4h-7v4h-1v-4H2.1V42h-1v-4.4h7.6v-1.5H1.8v-0.9h15.3v0.9H9.7v1.5h8V42z M18.3,49.9
			c-0.1,0.8-0.3,1.4-0.6,1.7c-0.3,0.3-0.9,0.5-1.7,0.6s-1.7,0.1-2.8,0.1c-0.9,0-1.7,0-2.5-0.1c-0.8,0-1.3-0.2-1.6-0.5
			c-0.3-0.3-0.4-0.7-0.4-1.2V49H2.3v-5.7h13.9V49H9.8v1.6c0,0.2,0.1,0.3,0.2,0.4c0.1,0.1,0.5,0.2,1.3,0.2s1.6,0.1,2.5,0.1
			c1.6,0,2.5,0,2.8-0.1c0.3-0.1,0.5-0.3,0.6-0.6c0.1-0.3,0.2-0.7,0.2-1.2L18.3,49.9z M7.9,41.9c-1.6,0.4-3.1,0.7-4.5,0.8L3,41.7
			c1.5-0.1,3-0.3,4.5-0.6L7.9,41.9z M7.9,39.9l-0.3,0.9c-1.1-0.3-2.6-0.5-4.4-0.6l0.4-0.9C5.3,39.4,6.7,39.6,7.9,39.9z M8.7,45.7
			v-1.4H3.4v1.4H8.7z M8.7,48.1v-1.5H3.4v1.5H8.7z M15.1,45.7v-1.4H9.8v1.4H15.1z M15.1,48.1v-1.5H9.8v1.5H15.1z M15.7,41.9
			l-0.5,0.8c-1.4-0.4-3-0.6-4.7-0.8l0.4-0.8C13,41.4,14.6,41.6,15.7,41.9z M15.6,40.1c-1.7,0.3-3.2,0.5-4.6,0.6l-0.3-0.8
			c1.4-0.1,2.9-0.3,4.5-0.6L15.6,40.1z"/>
		<path class="st0" d="M27.5,43.3l-0.8,0.7c-0.4-0.8-0.9-1.5-1.4-2.1v10.3h-1.1V41.9c-0.8,2.1-1.7,3.8-2.6,5L21,46
			c1.4-1.9,2.4-4.1,3.2-6.7h-3v-1h3.1v-3.5h1.1v3.5h1.8v1h-1.8v1.1C26.3,41.6,27,42.5,27.5,43.3z M38.1,44.8c0,2.9-0.2,4.6-0.5,5.1
			c-0.3,0.5-0.9,0.8-1.6,0.8l-1.1,0l-0.4-1.1c0.3,0,0.6,0,0.8,0c0.7,0,1.1-0.1,1.4-0.2s0.4-0.6,0.4-1.5c0-0.9,0.1-1.6,0.1-2.2h-3.6
			v6.5h-1v-5.2c-1.2,1.6-2.9,3-4.9,4.3l-0.7-0.8c2.5-1.5,4.3-3.1,5.3-4.8h-4.3l0.5-4.4h4v-2.3h-4.5v-1h9.8v4.2h-4.2v2.4H38.1z
			 M32.4,44.8v-2.4h-3.1L29,44.8H32.4z M31.7,37.1l-0.8,0.6c-0.4-0.8-1-1.5-1.7-2.3l0.8-0.6C30.7,35.5,31.3,36.3,31.7,37.1z
			 M36.7,41.4v-2.3h-3.2v2.3H36.7z M37.1,35.2c-0.6,1-1.3,1.8-2.1,2.5l-0.8-0.6c0.8-0.8,1.5-1.6,2-2.4L37.1,35.2z"/>
		<path class="st0" d="M41.3,50.3c0-0.3,0.1-0.6,0.3-0.8c0.2-0.2,0.5-0.3,0.8-0.3c0.3,0,0.6,0.1,0.8,0.3c0.2,0.2,0.3,0.5,0.3,0.8
			c0,0.3-0.1,0.6-0.3,0.8c-0.2,0.2-0.5,0.3-0.8,0.3c-0.3,0-0.6-0.1-0.8-0.3C41.5,50.9,41.3,50.7,41.3,50.3z"/>
		<path class="st0" d="M46.3,50.3c0-0.3,0.1-0.6,0.3-0.8c0.2-0.2,0.5-0.3,0.8-0.3c0.3,0,0.6,0.1,0.8,0.3c0.2,0.2,0.3,0.5,0.3,0.8
			c0,0.3-0.1,0.6-0.3,0.8c-0.2,0.2-0.5,0.3-0.8,0.3c-0.3,0-0.6-0.1-0.8-0.3C46.5,50.9,46.3,50.7,46.3,50.3z"/>
		<path class="st0" d="M51.3,50.3c0-0.3,0.1-0.6,0.3-0.8c0.2-0.2,0.5-0.3,0.8-0.3c0.3,0,0.6,0.1,0.8,0.3c0.2,0.2,0.3,0.5,0.3,0.8
			c0,0.3-0.1,0.6-0.3,0.8c-0.2,0.2-0.5,0.3-0.8,0.3c-0.3,0-0.6-0.1-0.8-0.3C51.5,50.9,51.3,50.7,51.3,50.3z"/>
		<path class="st0" d="M74,45h-6.6v5.5c0,0.2,0.1,0.3,0.2,0.4c0.2,0.1,0.9,0.1,2.3,0.1c1.2,0,2,0,2.2-0.1s0.4-1.1,0.4-3l1.1,0.4
			c0,1.7-0.2,2.8-0.6,3.2S71.7,52,70.1,52c-1.7,0-2.7,0-3-0.1c-0.2-0.1-0.4-0.3-0.6-0.5c-0.2-0.2-0.2-0.6-0.2-0.9V45h-3.2
			c0,3.8-2,6.3-5.9,7.3l-0.7-0.9c3.8-0.8,5.6-2.9,5.5-6.3h-5.5v-1H74V45z M73.3,41.5h-1.1v-3.6H58.3v3.6h-1.1v-4.6h7.4
			c-0.5-1-0.9-1.7-1-2l1.1-0.4c0.5,0.9,0.9,1.6,1.1,2.3h7.4V41.5z M70.8,41.1h-11v-1h11V41.1z"/>
		<path class="st0" d="M94.3,40.8l-0.6,0.9c-3.8-1.7-6.5-3.5-8.2-5.5c-1.6,2.2-4.3,4-8.3,5.5l-0.5-1c3.4-1.2,5.9-2.7,7.5-4.6h-1.9
			v-1h3.8C87.6,37.3,90.3,39.2,94.3,40.8z M93.8,51.8H77.3v-1h7.8V47h-5.5v-1h5.5v-3.7h-5.5v-1h12v1h-5.5V46h5.5v1h-5.5v3.8h7.7
			V51.8z"/>
		<path class="st0" d="M113.9,50.8c0,0.7-0.2,1.1-0.7,1.3c-0.4,0.1-0.9,0.2-1.4,0.2c-0.6,0-1.4,0-2.3,0l-0.4-1.1c0.4,0,1.4,0,3.3,0
			c0.4,0,0.5-0.2,0.5-0.5V36.2H99.4v16.1h-1v-17h15.5V50.8z M111.2,39.7h-10.1v-1h10.1V39.7z M110.1,48.2h-7.8v-5.9h7.8V48.2z
			 M109,47.1v-3.8h-5.7v3.8H109z"/>
		<path class="st0" d="M135.3,42h-8.1v6.4h-1V42h-8.4v-1h3.2v-5h1v5h4.1v-6.3h1v2.6h6.4v1h-6.4V41h8V42z M124.1,44.3
			c-1.5,1.8-3.4,3.3-5.5,4.4l-0.7-0.8c2.5-1.3,4.3-2.7,5.4-4.2L124.1,44.3z M134,44.2c-1.5,2.9-3.4,4.9-5.5,6
			c-2.1,1.1-4.9,1.8-8.4,2l-0.5-1c3.4-0.1,6.2-0.7,8.2-1.7s3.8-2.9,5.3-5.7L134,44.2z"/>
		<path class="st0" d="M154.7,39h-13.9c0,4.1-0.2,7-0.5,8.9s-0.7,3.3-1.2,4.4l-0.8-0.7c0.4-0.9,0.8-2.2,1.1-3.8s0.4-4.1,0.4-7.5v-5
			h14.9V39z M153.6,38v-1.8h-12.9V38H153.6z M154.4,45.3H142v-4.3h12.4V45.3z M153.8,52.2h-1v-0.9h-9v0.9h-1v-6h11.1V52.2z
			 M147.7,44.4V42h-4.6v2.4H147.7z M152.8,48.2v-1h-9v1H152.8z M152.8,50.4v-1.2h-9v1.2H152.8z M146.3,43.7l-0.8,0.5
			c-0.4-0.6-0.8-1-1.3-1.4l0.8-0.5C145.5,42.7,145.9,43.1,146.3,43.7z M146.6,40.4l-0.9,0.5c-0.5-0.5-0.9-0.9-1.4-1.2l1-0.5
			C145.8,39.7,146.2,40,146.6,40.4z M153.4,44.4V42h-4.7v2.4H153.4z M152.2,39.8c-0.3,0.3-0.9,0.7-1.6,1.1l-0.9-0.6
			c0.6-0.3,1.1-0.6,1.6-1L152.2,39.8z M152.2,42.7c-0.3,0.4-0.8,0.9-1.4,1.5l-0.8-0.5c0.6-0.5,1.1-1,1.4-1.4L152.2,42.7z"/>
		<path class="st0" d="M165.1,51.6h-1v-1.1h-4.9V37.4h1v12.1h1.4V35h1v14.4h1.4V37.4h1V51.6z M176.1,41.8l-0.6,0.9
			c-1.7-0.5-3.2-1.2-4.6-2c-1.5,0.8-3.1,1.6-4.9,2.1l-0.6-0.9c1.7-0.5,3.2-1.1,4.6-1.8c-0.7-0.6-1.4-1.3-2-2.1
			c-0.6,0.5-1.2,0.9-1.8,1.2l-0.6-0.9c2-1.2,3.4-2.4,4.1-3.7l1,0.4c-0.2,0.4-0.5,0.7-0.7,1h4.9v0.9c-0.9,1.2-1.9,2.2-3,3
			C173,40.8,174.4,41.4,176.1,41.8z M176.1,49.9h-4.6v2.3h-1v-2.3h-4.5v-1h4.5v-1.9h-3.7v-1h3.7v-1.7h-4.1v-1h4.1V42h1v1.5h4.1v1
			h-4.1v1.7h3.8v1h-3.8v1.9h4.6V49.9z M173.5,37.2h-4.4l-0.2,0.2c0.7,0.9,1.4,1.6,2.1,2.1C172.2,38.7,173.1,37.9,173.5,37.2z"/>
		<path class="st0" d="M186.6,52.3h-1v-1.4h-4.4v1.4h-1.1v-8.8h6.5V52.3z M185.6,49.8v-5.3h-4.4v5.3H185.6z M194,41.2h-11.8v-6H194
			V41.2z M192.9,40.2v-3.9h-9.7v3.9H192.9z M195.6,52.3h-1.1v-1.4h-4.5v1.4H189v-8.8h6.6V52.3z M194.5,49.8v-5.3h-4.5v5.3H194.5z"/>
		<path class="st0" d="M205.2,48.6h-1v-1h-3v1.7h-1V36.1h5.1V48.6z M204.2,46.6v-9.5h-3v9.5H204.2z M217.1,49.7l-0.8,0.8
			c-1.5-1.2-3.1-3.2-4.7-6.2v8h-1v-8.1c-1.8,3-3.5,5.1-5.1,6.3l-0.7-0.8c1.9-1.4,3.7-3.6,5.4-6.8h-4.3v-1h4.8v-3.4h-4.2v-1h4.2v-2.7
			h1v2.7h4.6v1h-4.6v3.4h5.1v1h-4.6C213.4,45.7,215.1,48,217.1,49.7z"/>
		<path class="st0" d="M228.4,45.4c-0.5-0.3-0.7-0.6-0.7-1c0-0.2,0.1-0.4,0.2-0.6c0.2-0.2,0.4-0.3,0.7-0.3c0.6,0,0.9,0.4,0.9,1.2
			c0,0.7-0.4,1.3-1.2,1.9l-0.4-0.3C228.2,46,228.4,45.6,228.4,45.4z"/>
		<path class="st0" d="M249.3,40.9c-0.1,6.1-0.3,9.6-0.7,10.3c-0.3,0.7-0.9,1.1-1.8,1.1h-1.7l-0.3-1h2c0.6,0,0.9-0.5,1-1.5
			c0.1-1,0.2-3.6,0.4-7.9h-5.3c-0.6,1.2-1.3,2.1-1.9,2.8l-0.8-0.7c0.9-0.9,1.8-2.4,2.7-4.6l1,0.3c-0.2,0.5-0.4,0.9-0.5,1.2H249.3z
			 M244.6,39h-1v-1.1h-3.1v-1h3.1v-2.2h1V39z M246.4,49.2H242V44h4.5V49.2z M245.4,48.2V45H243v3.2H245.4z M250.6,37.9h-2.9v1.7h-1
			v-4.9h1v2.2h2.9V37.9z M257.9,51.5l-0.8,0.8c-1.4-0.9-2.5-1.9-3.3-2.9c-0.9,1-2.2,2-3.7,2.9l-0.8-0.7c1.7-1,3-2,3.8-3
			c-1-1.6-1.6-3.4-1.8-5.3l1-0.3c0.3,1.9,0.8,3.5,1.5,4.7c1.2-2,1.8-4.9,1.8-8.8h-2.8c-0.7,1.7-1.4,3.1-2.3,4.3l-0.7-0.7
			c1.5-2.3,2.6-4.9,3-7.8l1,0.2c-0.1,0.8-0.4,1.8-0.7,3.1h4.7v1h-1.2c0,4.5-0.8,7.7-2.2,9.7C255.3,49.8,256.5,50.7,257.9,51.5z"/>
		<path class="st0" d="M271.9,37.6c-0.2,1.1-0.5,2-0.7,2.7l-0.9-0.4c0.1-0.4,0.3-0.9,0.4-1.4h-4.3v0.9l3.3-0.2l0.1,0.8l-3.3,0.2v0.4
			c0,0.1,0,0.1,0.1,0.2s0.2,0.1,0.2,0.1h3.2v0.8h-3.5c-0.3,0-0.5-0.1-0.7-0.3c-0.2-0.2-0.3-0.5-0.3-0.8v-0.4l-1.7,0.1l-0.1-0.8
			l1.7-0.1v-0.9H263v6c0,2.9-0.5,5.3-1.4,7.3l-0.8-0.7c0.9-1.8,1.3-4.2,1.3-7.2v-6.2h4.3v-2.8h1v0.9h3.9v0.9h-3.9v1H271.9z
			 M271.2,51.2c0,0.7-0.6,1.1-1.7,1.1c-0.1,0-0.3,0-0.4,0l-0.3-0.9c0.1,0,0.3,0,0.5,0c0.4,0,0.7,0,0.8-0.1c0.1-0.1,0.2-0.2,0.2-0.4
			v-3.1h-1c-0.2,0.7-0.4,1.2-0.5,1.4h0.8V50h-1.7v2h-0.8v-2h-1.7v-0.8h0.8c-0.1-0.3-0.3-0.8-0.6-1.4h-0.9v4.6h-1v-5.4h7.6V51.2z
			 M271.5,43.2h-7.9v-0.8h7.9V43.2z M270.9,46.1h-6.6v-2.3h6.6V46.1z M270,45.4v-0.7h-4.6v0.7H270z M268.3,47.8h-1.9
			c0.2,0.5,0.4,1,0.6,1.4h0.8C268,48.8,268.2,48.3,268.3,47.8z M278.3,51.6l-0.8,0.7c-1.6-2.6-2.5-5.2-2.7-7.9
			c-0.3,3.1-1.1,5.7-2.3,7.9l-0.8-0.6c1.7-3.1,2.5-6.6,2.5-10.6h-2.4v-1h2.4c0-2.1,0.1-3.9,0-5.3h1c0,2,0,3.8,0,5.3h3v1h-2.9
			C275.3,45.1,276.4,48.6,278.3,51.6z M278,38.8l-0.9,0.4c-0.2-1-0.6-1.9-1.1-2.9l0.9-0.3C277.4,36.7,277.7,37.6,278,38.8z"/>
		<path class="st0" d="M298.6,50.8l-0.3,1c-1.4,0-3.8,0-7,0c-3.7,0-6.4-1.1-8-3.2c-0.4,1.5-0.8,2.8-1.2,3.7l-0.9-0.5
			c0.9-2.2,1.5-4.8,1.7-8l1.1,0.2c-0.1,1-0.2,2.1-0.4,3.3c0.6,0.8,1.2,1.5,1.8,2v-7h-3.8v-1h3.6v-2.8H282v-1h3.2v-2.8h1v2.8h2.9v1
			h-2.9v2.8h3v1h-2.9v2.9h2.9v1h-2.9v3.7c1.5,0.7,3.3,1.1,5.6,1.1C293.3,51,295.5,50.9,298.6,50.8z M298,35.2c0,0.4,0,0.8,0,1.2
			c0,1.1-0.1,2.2-0.2,3.2c-0.1,1.1-0.3,1.7-0.4,2c-0.2,0.2-0.4,0.4-0.8,0.6c-0.4,0.1-1.2,0.2-2.5,0.2l-0.4-1c0.4,0,0.8,0.1,1.2,0.1
			c0.8,0,1.3-0.1,1.5-0.3c0.2-0.2,0.3-0.7,0.4-1.6c0.1-0.9,0.1-2,0.1-3.3h-3.2c-0.5,3-1.6,5.2-3.3,6.7l-0.7-0.8
			c1.5-1.1,2.5-3.1,3-5.9h-2.8v-1H298z M297.8,49.3h-7.4v-5.8h7.4V49.3z M296.8,48.3v-3.8h-5.4v3.8H296.8z"/>
		<path class="st0" d="M306.9,40.7h-3.4l-0.4,3.8h3.8c0,1.1-0.1,2.4-0.2,3.8c-0.1,1.4-0.2,2.3-0.3,2.6s-0.2,0.5-0.4,0.7
			c-0.2,0.2-0.5,0.4-0.8,0.5c-0.3,0.1-0.9,0.2-1.5,0.2c-0.6,0-1.1,0-1.6,0l-0.3-1c0.7,0,1.3,0,1.9,0c0.6,0,1.1,0,1.2-0.1
			c0.2-0.1,0.3-0.2,0.4-0.4c0.1-0.2,0.2-0.8,0.3-2c0.1-1.1,0.2-2.2,0.2-3.3h-3.8l0.6-5.8h3.3v-3.4h-4.2v-1h5.2V40.7z M319.1,51.8
			l-0.9,0.5c-0.3-0.7-0.6-1.2-0.9-1.6c-3.6,0.6-6.9,1.2-9.8,1.5l-0.3-1c2.5-0.3,4.3-0.5,5.2-0.7v-3.3h-4.2v-5.1h4.2v-1.8
			c-1.9,0.1-3.4,0.2-4.4,0.3l-0.4-0.9c1.7-1.3,3.2-3,4.3-5l1.1,0.3c-0.9,1.6-2.1,3.1-3.6,4.5c3.3-0.2,5.6-0.4,7.1-0.5
			c-0.6-0.7-1.3-1.5-2.1-2.2l0.7-0.7c1.4,1.3,2.7,2.7,3.9,4.3l-0.8,0.7c-0.1-0.1-0.4-0.6-1-1.3l-3.8,0.4v1.9h4.2v5.1h-4.2v3.2
			c1.2-0.2,2.3-0.3,3.3-0.6c-0.3-0.5-0.6-0.9-1-1.4l0.9-0.5C317.7,49.2,318.5,50.5,319.1,51.8z M312.5,46.1v-3h-3.1v3H312.5z
			 M316.7,46.1v-3h-3.1v3H316.7z"/>
		<path class="st0" d="M339.6,48.6h-3.9v2.2c0,0.4-0.1,0.7-0.4,0.9c-0.2,0.2-0.5,0.3-0.9,0.4c-0.4,0-0.9,0.1-1.7,0.1h-1.2l-0.4-1
			c0.6,0.1,1.2,0.1,1.7,0.1c0.9,0,1.4-0.1,1.5-0.2c0.1-0.1,0.2-0.2,0.2-0.4v-2.1h-12.5v-0.9h12.5v-1.3h-11v-7.1h4.6
			c0-0.4,0.1-1,0.1-1.6h-6.1v-1h17v1h-6.1v1.6h4.7v7.1h-2.2v1.3h3.9V48.6z M336.8,45.3v-2.9h-3.2c-1,0-1.5-0.5-1.5-1.5v-0.7h-2.9
			c-0.4,1.5-1.7,2.6-3.8,3.2l-0.6-0.6v2.7H336.8z M328.1,40.1h-3.4v2.3C326.6,41.9,327.7,41.2,328.1,40.1z M329.1,50.8l-0.7,0.8
			c-0.8-0.7-1.7-1.3-2.9-1.9l0.6-0.8C327.2,49.3,328.2,50,329.1,50.8z M328,35.8l-0.9,0.6c-0.4-0.5-0.9-0.8-1.4-1.2l0.8-0.6
			C327.1,35,327.6,35.4,328,35.8z M335.8,44.3h-9.9v-0.8h9.9V44.3z M332.1,39.2v-1.6h-2.7c0,0.6,0,1.2-0.1,1.6H332.1z M336.8,41.4
			v-1.3h-3.7v0.8c0,0.3,0.2,0.5,0.5,0.5H336.8z M335.8,35.2c-0.5,0.5-1,0.9-1.5,1.3l-0.9-0.6c0.6-0.4,1-0.8,1.5-1.2L335.8,35.2z"/>
		<path class="st0" d="M359.9,41.2h-17.4v-0.9h8.2v-1.2h-6.1v-3.2h6.1v-1.2h1v1.2h6.1v3.2h-6.1v1.2h8.2V41.2z M357.5,49.5h-8.6
			l0.6,0.7c-1.7,0.9-3.8,1.6-6.4,2.1l-0.5-1c2.4-0.4,4.4-1,5.9-1.8h-3.6v-7.1h12.6V49.5z M350.7,38.2v-1.4h-5v1.4H350.7z
			 M356.5,44.5v-1.2h-10.5v1.2H356.5z M356.5,46.6v-1.2h-10.5v1.2H356.5z M356.5,48.7v-1.2h-10.5v1.2H356.5z M356.8,38.2v-1.4h-5.1
			v1.4H356.8z M359.6,51.5l-0.5,1c-2.2-0.8-4.3-1.3-6.4-1.6l0.5-0.9C355.5,50.3,357.6,50.8,359.6,51.5z"/>
		<path class="st0" d="M369.6,54l1.3-5.2h1.6l-1.7,5.2H369.6z M371.6,40.2c0.3,0,0.6,0.1,0.8,0.3s0.3,0.5,0.3,0.8
			c0,0.3-0.1,0.6-0.3,0.8c-0.2,0.2-0.5,0.3-0.8,0.3c-0.3,0-0.6-0.1-0.8-0.3c-0.2-0.2-0.3-0.5-0.3-0.8c0-0.3,0.1-0.6,0.3-0.8
			C371,40.3,371.3,40.2,371.6,40.2z"/>
		<path class="st0" d="M399.5,52.3h-1.1V51h-9.5v1.3h-1.1v-6.9c-1.6,0.6-2.8,1-3.8,1.3l-0.6-1c3.1-0.8,5.8-1.9,8-3.1
			c-0.8-1.2-1.9-2.3-3.3-3.5c-1,0.7-2.1,1.3-3.4,1.9l-0.9-0.9c3-1.3,5.6-3.1,7.6-5.5l1,0.5c-0.3,0.4-0.7,0.7-1.1,1.2h7.8v0.9
			c-2.2,2.9-5.1,5.3-8.8,7.1h9.1V52.3z M398.4,49.9v-4.6h-9.5v4.6H398.4z M397.6,37.4h-7.3c-0.5,0.4-0.9,0.7-1.3,1.1
			c1.3,1.2,2.4,2.4,3.4,3.6C394.5,40.7,396.2,39.1,397.6,37.4z"/>
		<path class="st0" d="M409.7,52.3h-1v-7.4h-2.5c-0.1,3.1-0.6,5.6-1.5,7.5l-0.9-0.5c1-2,1.5-4.4,1.5-7.2V35h1v4.8h2.4v-4.9h1v6h-3.4
			v3.1h3.5V52.3z M421.2,48.6H418v3.7h-1v-3.7h-6.4v-1h6.4v-3.1h-1.6c-0.8,1.2-1.8,2.1-3.2,2.7l-0.7-0.8c1.2-0.5,2-1.2,2.6-1.9h-2.9
			v-7.8h2.3c0.3-0.5,0.7-1.1,1.1-2.1l1,0.3c-0.2,0.4-0.5,1-0.9,1.8h5.4v7.8H418v3.1h3.2V48.6z M415.2,37.7h-2.9V40h2.9
			C415.2,39.1,415.2,38.3,415.2,37.7z M415.1,41h-2.8v2.5h2.4C414.9,42.7,415.1,41.9,415.1,41z M419.1,43.5V41h-3
			c-0.1,1-0.2,1.8-0.4,2.5H419.1z M419.1,40v-2.3h-2.9c0,0.7,0,1.5,0,2.3H419.1z"/>
		<path class="st0" d="M441.1,46.9H433c-0.4,1.2-1.1,2.2-2.3,3s-3.1,1.6-6,2.4l-0.6-0.9c2.1-0.5,3.8-1.1,5.2-1.8
			c1.3-0.7,2.2-1.6,2.6-2.7h-7.2v-0.9h7.4c0.1-0.4,0.2-0.9,0.2-1.5l1,0c0,0.7-0.1,1.2-0.2,1.5h7.8V46.9z M441.6,43.8h-17.4v-1h8.2
			v-1.9h-6.5v-1h6.5v-1.8h-7.3v-1h15.7v1h-7.3v1.8h6.5v1h-6.5v1.9h8.2V43.8z M431,36.2l-0.9,0.6c-0.5-0.5-1.2-1.1-2.1-1.6l1-0.6
			C429.7,35.1,430.4,35.6,431,36.2z M441.5,51.5l-0.6,0.9c-2.1-1.3-4.5-2.5-7.3-3.5l0.6-0.9C436.6,48.9,439,50,441.5,51.5z
			 M437.5,35.2c-0.6,0.6-1.3,1.1-2.2,1.6l-1-0.6c0.8-0.4,1.5-0.9,2.2-1.6L437.5,35.2z"/>
		<path class="st0" d="M462,48.9h-8.2v2c0,0.4-0.1,0.7-0.4,0.9s-0.5,0.3-0.9,0.3l-2.4,0l-0.3-1c0.4,0,0.8,0,1.2,0
			c0.9,0,1.4,0,1.6-0.1c0.1-0.1,0.2-0.2,0.2-0.5v-1.7h-8.2V48h8.2v-0.8c1.3-0.4,2.3-0.9,3.2-1.3H448V45h10.2v0.9
			c-1.4,0.7-2.8,1.3-4.4,1.9V48h8.2V48.9z M461.6,46.2h-1v-2.5h-14.5v2.5h-1v-3.5h1l-0.1-7.2c1.3-0.2,2.6-0.5,3.7-1l0.5,0.8
			c-0.9,0.4-2,0.7-3.2,0.9v1.4h3.2v0.9H447l0,1.5h3.2v0.9h-3.1l0,1.6h12.3l0-1.6h-3.2v-0.9h3.2l0-1.5h-3.2v-0.9h3.2l0-1.4h-3.5v-0.9
			h4.5l-0.2,7.4h1.2V46.2z M455.9,41.7l-0.7,0.6c-0.2-0.2-0.8-0.7-1.8-1.5c-1,0.7-1.8,1.2-2.4,1.4l-0.5-0.8c0.4-0.1,1.1-0.5,2.2-1.2
			c-0.2-0.2-0.5-0.4-0.9-0.6c-0.3-0.2-0.6-0.4-0.7-0.5l0.6-0.6c1,0.7,1.5,1.1,1.7,1.2c0.7-0.6,1.2-1,1.3-1.2l0.8,0.5
			c-0.1,0.2-0.6,0.6-1.3,1.2C454.5,40.5,455.1,41,455.9,41.7z M455.8,37.8l-0.7,0.6c-0.5-0.5-1.1-0.9-1.7-1.4
			c-0.7,0.5-1.4,0.9-2.3,1.3l-0.4-0.8c0.6-0.3,1.3-0.6,2-1.1c-0.5-0.4-0.9-0.8-1.4-1.1l0.7-0.6c0.8,0.6,1.3,1,1.5,1.1
			c0.6-0.5,1.1-0.9,1.4-1.3l0.8,0.4c-0.3,0.4-0.7,0.9-1.4,1.5C454.4,36.6,455,37.1,455.8,37.8z"/>
		<path class="st0" d="M473.5,45.4c-0.5-0.3-0.7-0.6-0.7-1c0-0.2,0.1-0.4,0.2-0.6c0.2-0.2,0.4-0.3,0.7-0.3c0.6,0,0.9,0.4,0.9,1.2
			c0,0.7-0.4,1.3-1.2,1.9l-0.4-0.3C473.3,46,473.5,45.6,473.5,45.4z"/>
		<path class="st0" d="M490.9,43.1l-0.8,0.7c-0.4-0.7-0.8-1.4-1.2-2v10.5h-1v-10c-0.7,2.1-1.4,3.6-1.9,4.6l-0.6-1.1
			c1-1.8,1.9-4,2.5-6.5h-2.3v-1h2.4v-3.7h1v3.7h1.5v1h-1.5v1.1C489.6,41.3,490.2,42.2,490.9,43.1z M503,49.1c-0.1,1.1-0.3,2-0.6,2.5
			c-0.3,0.6-0.7,0.9-1.1,0.9c-0.9,0-1.8-0.9-2.9-2.7c-1.1,0.9-2.4,1.7-3.9,2.4l-0.7-0.8c1.6-0.6,2.9-1.4,4.1-2.4
			c-0.6-1.2-1-2.4-1.2-3.6h-3.7l-0.1,1.2c1.1,0.6,2.1,1.2,2.8,2l-0.6,0.8c-0.5-0.5-1.3-1.2-2.4-1.8c-0.4,1.9-1.2,3.5-2.5,4.9
			l-0.9-0.6c1.6-1.4,2.5-3.6,2.6-6.4h-1.8v-1h6.3c-0.4-3.2-0.6-6.4-0.6-9.7l1,0c0.1,4.3,0.3,7.5,0.7,9.6h2c-0.1-0.1-0.2-0.4-0.5-0.9
			L500,43c0.3,0.3,0.5,0.8,0.7,1.3h2.1v1h-5c0.1,0.9,0.5,1.8,0.9,2.8c0.6-0.7,1.2-1.5,1.7-2.4l0.8,0.5c-0.6,1.1-1.3,2-2.1,2.8
			c0.3,0.6,0.6,1.1,1.1,1.6c0.4,0.5,0.8,0.8,1,0.8c0.2,0,0.4-0.2,0.5-0.5s0.3-1.1,0.5-2.3L503,49.1z M495.9,43.2l-0.9,0.3
			c0-0.2-0.1-0.5-0.2-0.9c-1.4,0.1-2.6,0.3-3.7,0.4l-0.2-0.7c0.9-1,1.6-1.9,2.1-2.8l-2.1,0.3l-0.3-0.9c0.9-1.5,1.6-2.9,2-4.1
			l0.9,0.4c-0.4,0.9-1,2.1-1.8,3.4c0.6-0.1,1.3-0.2,1.9-0.3c0.3-0.4,0.6-1,0.9-1.6l0.9,0.5c-1,1.6-2.1,3.2-3.3,4.6
			c0.7,0,1.4-0.1,2.2-0.2c-0.1-0.5-0.2-0.9-0.4-1.3l0.9-0.2C495.4,40.8,495.7,41.9,495.9,43.2z M502.9,43.1l-0.9,0.3
			c0-0.2-0.1-0.5-0.2-0.9c-1.1,0.1-2.3,0.3-3.6,0.5l-0.3-0.9c0.8-1,1.5-1.9,2.1-2.7c-0.6,0.1-1.2,0.2-2,0.3l-0.3-0.9
			c0.8-1.3,1.5-2.6,2-3.9l0.9,0.4c-0.6,1.2-1.1,2.3-1.7,3.3c0.4-0.1,1-0.2,1.9-0.3c0.2-0.4,0.5-0.8,0.9-1.4l0.9,0.4
			c-0.7,1.2-1.8,2.7-3.2,4.5l2.2-0.3c-0.1-0.5-0.2-0.8-0.4-1.1l0.9-0.3C502.3,41.1,502.6,42.1,502.9,43.1z"/>
		<path class="st0" d="M515.3,40l-0.8,0.7c-0.2-0.4-0.5-0.8-0.8-1.2c-2.4,0.3-4.9,0.6-7.5,0.7l-0.4-0.9c1.2-0.9,2.3-2.5,3.2-4.5
			l1,0.3c-0.8,1.7-1.7,3-2.6,4.1c2.1-0.2,3.9-0.4,5.5-0.6c-0.4-0.5-0.9-1.1-1.7-1.9l0.9-0.6C513.8,37.6,514.8,38.9,515.3,40z
			 M514,51.1c0,0.3-0.1,0.6-0.4,0.8c-0.2,0.2-0.5,0.4-0.8,0.4s-0.9,0-1.9,0l-0.4-1c0.3,0,0.6,0,0.9,0c0.6,0,1.1,0,1.2-0.1
			c0.2,0,0.3-0.2,0.3-0.4v-3.3c-1.9,0.9-3.5,1.5-4.7,1.9l-0.5-0.7c-0.2,1.2-0.5,2.3-0.9,3.4l-0.9-0.5c0.6-1.6,0.9-3.2,0.9-4.8v-5.4
			h7.2V51.1z M512.9,46.6v-4h-5.1v1.4c1.4,0.2,2.8,0.6,4.3,1.2l-0.5,0.9c-1.5-0.5-2.8-0.9-3.9-1.1V47c0,0.6,0,1.1-0.1,1.6
			C509.1,48.3,510.8,47.6,512.9,46.6z M523.4,48.9c-0.1,1-0.2,1.8-0.4,2.2c-0.2,0.5-0.5,0.8-0.8,0.9c-0.3,0.1-0.8,0.2-1.6,0.2l-3,0
			c-0.5,0-0.8-0.1-1.1-0.4s-0.4-0.6-0.4-1v-7.5h1v2.9h5.8v1h-5.8v3.6c0,0.4,0.2,0.6,0.7,0.6c2,0,3.2,0,3.5,0c0.3,0,0.5-0.2,0.7-0.4
			c0.2-0.2,0.3-1,0.4-2.2L523.4,48.9z M523.1,42.4h-5.8c-0.4,0-0.7-0.1-0.9-0.4c-0.2-0.3-0.3-0.6-0.3-0.9v-6.2h1v2.5h5.7v1h-5.7v2.6
			c0,0.3,0.2,0.5,0.5,0.5h5.5V42.4z"/>
		<path class="st0" d="M534.7,38.9h-2.3v1.9h-1v-1.9h-2.7c-0.3,1.4-0.9,2.3-1.7,3l-0.7-0.7c1.1-0.8,1.6-2.3,1.6-4.3
			c0-0.3,0-0.7,0-1.1c2.4-0.1,4.3-0.4,5.8-0.8l0.6,0.9c-1.6,0.4-3.4,0.7-5.3,0.8c0,0.1,0,0.6-0.1,1.4h5.9V38.9z M541.3,49.2h-8.5
			l0.5,0.7c-1.8,1.1-4,1.9-6.4,2.3l-0.5-0.9c2.6-0.5,4.7-1.2,6.2-2.2h-3.6v-7.7h12.4V49.2z M540.3,43.7v-1.3H530v1.3H540.3z
			 M540.3,45.9v-1.3H530v1.3H540.3z M540.3,48.3v-1.4H530v1.4H540.3z M543.6,38.9h-3.1v1.9h-1v-1.9h-3c-0.3,1-0.8,1.7-1.3,2.2
			l-0.8-0.7c0.9-0.8,1.3-2,1.3-3.8c0-0.2,0-0.5,0-0.8c2-0.1,4.2-0.4,6.4-0.9l0.5,0.9c-2.2,0.5-4.2,0.8-6,0.9c0,0.6,0,1-0.1,1.3h6.9
			V38.9z M543.8,51.5l-0.5,0.9c-1.8-0.7-3.9-1.2-6.2-1.7l0.6-0.9C540.2,50.3,542.3,50.8,543.8,51.5z"/>
		<path class="st0" d="M564.1,47c-0.1,0.9-0.3,1.7-0.6,2.5s-0.7,1.2-1.1,1.2c-0.5,0-1.1-0.5-1.8-1.5c-0.7-1-1.3-2.2-1.6-3.6
			c-0.8,0.9-1.6,1.5-2.4,2l-0.7-0.7c1.2-0.9,2.1-1.7,2.8-2.5c-0.3-1.9-0.5-4.1-0.6-6.5h-8.5c0.1,4.6-0.6,8-2,10l-0.8-0.7
			c1.2-1.8,1.9-4.7,1.9-8.7c0-0.5,0-1,0-1.6h9.4c0-0.3,0-0.6,0-1.1c0-0.4,0-0.8,0-1.2h1c0,0.5,0,1,0,1.4c0,0.3,0,0.6,0,0.8h5v1H559
			c0.1,2.4,0.3,4.2,0.5,5.4c1-1.4,1.9-2.8,2.6-4.2l0.8,0.6c-0.8,1.6-1.8,3.3-3.2,5c0.4,1.6,0.8,2.9,1.4,3.7c0.6,0.8,0.9,1.2,1.1,1.2
			c0.1,0,0.3-0.4,0.5-1.1c0.2-0.7,0.3-1.4,0.4-2L564.1,47z M549.9,47.8c-0.4,1.4-0.9,2.5-1.7,3.5l-0.8-0.6c0.7-0.9,1.2-2.1,1.6-3.4
			L549.9,47.8z M557,40.5h-6.6v-0.9h6.6V40.5z M556.7,49.4c-0.1,0.8-0.2,1.3-0.4,1.7c-0.2,0.4-0.5,0.7-0.9,0.8c-0.4,0.1-1,0.2-2,0.2
			c-1.2,0-2-0.1-2.3-0.3c-0.3-0.2-0.5-0.6-0.5-1.2V47h1v3.4c0,0.2,0.1,0.4,0.2,0.5c0.2,0.1,0.7,0.2,1.6,0.2c1,0,1.6-0.1,1.8-0.3
			c0.2-0.2,0.4-0.8,0.5-1.9L556.7,49.4z M556.3,45.8h-5.4v-3.9h5.4V45.8z M555.4,44.8v-2h-3.4v2H555.4z M554.9,48.6l-0.8,0.5
			c-0.3-0.6-0.8-1.3-1.5-2.1l0.8-0.5C554,47.2,554.5,47.9,554.9,48.6z M559.6,50.8l-0.8,0.5c-0.4-1-1-2-1.6-2.9l0.8-0.6
			C558.6,48.8,559.2,49.8,559.6,50.8z M562.8,36l-0.8,0.7c-0.4-0.4-0.8-0.8-1.3-1.2l0.7-0.7C561.9,35.2,562.4,35.6,562.8,36z"/>
		<path class="st0" d="M575.6,45.4c-0.5-0.3-0.7-0.6-0.7-1c0-0.2,0.1-0.4,0.2-0.6c0.2-0.2,0.4-0.3,0.7-0.3c0.6,0,0.9,0.4,0.9,1.2
			c0,0.7-0.4,1.3-1.2,1.9l-0.4-0.3C575.4,46,575.6,45.6,575.6,45.4z"/>
		<path class="st0" d="M605,36.2h-7.9c-0.4,1-0.8,1.9-1.2,2.6h7.8v13.4h-1V51H590v1.2H589V38.8h5.7c0.6-0.9,1.1-1.8,1.3-2.6h-8.4v-1
			H605V36.2z M592.9,50V39.9H590V50H592.9z M598.7,42.4v-2.5H594v2.5H598.7z M598.7,46.1v-2.7H594v2.7H598.7z M598.7,50v-2.9H594V50
			H598.7z M602.6,50V39.9h-2.8V50H602.6z"/>
		<path class="st0" d="M625.4,36.2h-7.9c-0.4,1-0.8,1.9-1.2,2.6h7.8v13.4h-1V51h-12.5v1.2h-1.1V38.8h5.7c0.6-0.9,1.1-1.8,1.3-2.6
			H608v-1h17.4V36.2z M613.3,50V39.9h-2.8V50H613.3z M619.1,42.4v-2.5h-4.7v2.5H619.1z M619.1,46.1v-2.7h-4.7v2.7H619.1z M619.1,50
			v-2.9h-4.7V50H619.1z M623,50V39.9h-2.8V50H623z"/>
		<path class="st0" d="M6.2,69.8c-0.3,0.7-0.6,1.5-1.1,2.5l-0.7,1.3V87H3.3V75.4c-0.7,1.1-1.4,2.1-2.2,2.9l-0.5-1.1
			C2.4,75,4,72.4,5.2,69.4L6.2,69.8z M18.2,82.7H5.2v-1h2.2V70.2h9.1v11.5h1.7V82.7z M10.7,84.1c-1.6,1.4-3.1,2.4-4.5,3l-0.7-0.9
			c1.3-0.5,2.8-1.4,4.4-2.8L10.7,84.1z M15.4,72.9v-1.7H8.5v1.7H15.4z M15.4,75.7v-1.9H8.5v1.9H15.4z M15.4,78.5v-1.8H8.5v1.8H15.4z
			 M15.4,81.7v-2.3H8.5v2.3H15.4z M17.6,86.4l-0.7,0.8c-1.1-1.1-2.4-2.2-3.9-3.1l0.7-0.8C15.4,84.5,16.7,85.5,17.6,86.4z"/>
		<path class="st0" d="M31.4,77.3l-0.9,0.6c-0.4-0.8-0.7-1.5-1.1-2c-0.8,0.1-1.7,0.3-2.7,0.4v3.1h3.9v1h-3.9v4.1
			c1.6-0.2,3-0.5,4.4-0.8v1c-3.4,0.7-6.9,1.3-10.4,1.6l-0.2-1c2.3-0.3,4-0.5,5.1-0.7v-4.3h-4.6v-1h4.6v-3c-1.6,0.2-3.1,0.3-4.5,0.4
			L21,76c1.7-1.3,3-3,3.9-4.9h-4V70h10.3v1.1h-5c-0.9,1.8-2,3.3-3.2,4.6c2.6-0.2,4.6-0.5,6-0.8c-0.4-0.6-0.8-1.2-1.4-1.9l0.9-0.5
			C29.8,74.3,30.8,75.9,31.4,77.3z M33.6,83.3h-1.1V70.9h1.1V83.3z M37.6,85.2c0,1.2-0.6,1.8-1.7,1.8c-1.4,0-2.3,0-2.7,0l-0.4-1.1
			c1,0.1,2,0.1,2.9,0.1c0.6,0,0.9-0.3,0.9-0.9V69.5h1V85.2z"/>
		<path class="st0" d="M49.5,76.4c0.6,0,1,0.2,1.4,0.6s0.6,0.9,0.6,1.4c0,0.6-0.2,1.1-0.5,1.4c-0.4,0.4-0.8,0.6-1.4,0.6
			c-0.5,0-1-0.2-1.4-0.5s-0.6-0.8-0.6-1.5c0-0.6,0.2-1.1,0.6-1.5C48.6,76.5,49,76.4,49.5,76.4z M50.7,78.4c0-0.3-0.1-0.6-0.4-0.8
			c-0.2-0.2-0.5-0.3-0.9-0.3c-0.3,0-0.6,0.1-0.8,0.3s-0.3,0.5-0.3,0.8c0,0.3,0.1,0.6,0.3,0.8c0.2,0.3,0.5,0.4,0.9,0.4
			c0.3,0,0.6-0.1,0.8-0.3S50.7,78.7,50.7,78.4z"/>
	</g>
</g>
</svg>
