<?xml version="1.0" encoding="utf-8"?>
<!-- Generator: Adobe Illustrator 25.2.3, SVG Export Plug-In . SVG Version: 6.00 Build 0)  -->
<svg version="1.1" id="section2_p.svg" xmlns="http://www.w3.org/2000/svg" xmlns:xlink="http://www.w3.org/1999/xlink" x="0px"
	 y="0px" viewBox="0 0 318 192" style="enable-background:new 0 0 318 192;" xml:space="preserve">
<style type="text/css">
	.st0{fill:#FFFFFF;}
</style>
<g>
	<g>
		<path class="st0" d="M5.6,5.6C5.3,6.3,4.8,7.1,4.2,7.9v9.7h-1V9.3c-0.6,0.7-1.3,1.4-2,2l-0.6-0.8c1.6-1.4,3-3.2,4.1-5.3L5.6,5.6z
			 M5.8,0.6C4.5,2.4,3.1,3.9,1.4,5L0.8,4.2C2.2,3.2,3.6,1.9,4.9,0L5.8,0.6z M18.2,16.4l-0.4,1.1c-1.2,0-2.4,0-3.7-0.1
			c-1.2-0.1-2.1-0.2-2.6-0.3s-1.1-0.3-1.7-0.8c-0.6-0.4-1.2-1-1.7-1.7c-0.3,0.9-0.8,1.9-1.6,3l-0.9-0.6c1.5-2.1,2.3-4.8,2.4-8L9,9.2
			c-0.1,1.6-0.3,3.1-0.6,4.3c0.9,1.4,2,2.2,3.2,2.6v-8h1.1v2.6h4.4v1h-4.4v4.6C15,16.3,16.9,16.4,18.2,16.4z M11.5,6l-0.8,0.8
			c-0.5-1.1-1-1.9-1.5-2.5C8.8,5.3,8,6.5,6.8,7.8L6,7.1c1.8-2,2.9-4.3,3.4-7l1,0.2c-0.2,1.1-0.4,2-0.8,2.9C10.3,3.9,10.9,4.8,11.5,6
			z M17.9,7.1l-0.7,0.8c-0.8-1.5-1.7-2.7-2.6-3.6c-0.6,1.2-1.3,2.3-2.1,3.2l-0.7-0.7c1.5-1.8,2.6-4,3.2-6.7l0.9,0.3
			c-0.2,1-0.5,2-0.9,2.8C16.1,4.3,17,5.6,17.9,7.1z"/>
		<path class="st0" d="M39.5,7.5H22.1V6.6h8.2V5h-6.8V4.1h6.8V2.6h-7.4V1.6h7.4V0.2h1v1.4h7.5v0.9h-7.5v1.5h6.8V5h-6.8v1.6h8.2V7.5z
			 M37.2,16.2c0,0.6-0.2,1-0.6,1.2c-0.4,0.2-1.2,0.3-2.5,0.3c-0.3,0-0.6,0-0.9,0l-0.4-1c0.4,0,0.9,0,1.3,0c1,0,1.6,0,1.8-0.1
			c0.2-0.1,0.2-0.3,0.2-0.5v-1.3H25.3c-0.4,1.2-1.1,2.2-1.9,3L22.7,17c1.4-1.4,2.1-3.2,2.1-5.6V9.1h12.5V16.2z M36.2,13.9v-1.4H25.8
			c0,0.6-0.1,1.1-0.2,1.4H36.2z M36.2,11.5V10H25.8v1.5H36.2z"/>
		<path class="st0" d="M49,13.6c-1.6,0.8-3.4,1.6-5.4,2.3l-0.3-1c0.8-0.2,1.6-0.5,2.4-0.9V6.5h-2.2v-1h2.2V0.3h1.1v5.2h2.1v1h-2.1v7
			c0.6-0.3,1.3-0.6,2-1L49,13.6z M60.9,3.4h-5.4v2h4.5v10.6c0,0.4-0.1,0.7-0.3,1c-0.2,0.3-0.5,0.5-0.9,0.5s-0.7,0-1.1,0H57l-0.4-1
			l1.8,0c0.3,0,0.5-0.2,0.5-0.6v-2.7h-3.4v4.2h-1v-4.2h-3.6v4.3h-1V5.5h4.6v-2h-5.5v-1h5.5V0.2h1v2.3h5.4V3.4z M54.4,8.8V6.5h-3.6
			v2.3H54.4z M54.4,12.3V9.9h-3.6v2.4H54.4z M58.9,8.8V6.5h-3.4v2.3H58.9z M58.9,12.3V9.9h-3.4v2.4H58.9z M59.6,1.7l-0.8,0.7
			c-0.5-0.6-1-1-1.6-1.4l0.7-0.7C58.5,0.6,59.1,1.1,59.6,1.7z"/>
		<path class="st0" d="M75.5,7.9l-0.9,0.6c-0.4-0.8-0.7-1.5-1.1-2c-0.8,0.1-1.7,0.3-2.7,0.4v3.1h3.9v1h-3.9v4.1
			c1.6-0.2,3-0.5,4.4-0.8v1c-3.4,0.7-6.9,1.3-10.4,1.6l-0.2-1c2.3-0.3,4-0.5,5.1-0.7v-4.3h-4.6v-1h4.6v-3c-1.6,0.2-3.1,0.3-4.5,0.4
			l-0.2-0.9c1.7-1.3,3-3,3.9-4.9h-4V0.6h10.3v1.1h-5c-0.9,1.8-2,3.3-3.2,4.6c2.6-0.2,4.6-0.5,6-0.8c-0.4-0.6-0.8-1.2-1.4-1.9
			l0.9-0.5C73.9,4.9,74.9,6.5,75.5,7.9z M77.7,13.9h-1.1V1.5h1.1V13.9z M81.7,15.8c0,1.2-0.6,1.8-1.7,1.8c-1.4,0-2.3,0-2.7,0
			l-0.4-1.1c1,0.1,2,0.1,2.9,0.1c0.6,0,0.9-0.3,0.9-0.9V0.1h1V15.8z"/>
		<path class="st0" d="M103.7,16.9l-0.7,0.9c-2.2-1.4-3.9-3-5.2-4.8C96.6,11.2,95.6,9,95,6.3c-0.8,4.7-3.5,8.5-8.2,11.5l-0.7-0.9
			c1.2-0.8,2.3-1.7,3.4-2.7c1.1-1.1,2-2.2,2.7-3.3C92.9,9.6,93.5,8,93.9,6h-7.4V5h7.6c0.2-1.6,0.3-3.3,0.3-4.9h1.1
			c-0.1,1.7-0.2,3.4-0.4,4.9h8.2v1H96c0.7,2.9,1.7,5.1,3,6.7S101.8,15.7,103.7,16.9z"/>
		<path class="st0" d="M124.2,17.7h-1v-1h-13.8v1h-1v-17h15.8V17.7z M123.2,15.7V1.6h-13.8v14.1H123.2z M120.9,10.7h-5
			c-0.3,0.4-0.8,0.9-1.5,1.5V14c0.8-0.2,1.7-0.4,2.6-0.7l0.1,0.9c-1.2,0.4-2.4,0.7-3.7,1l-0.4-0.9c0.2-0.1,0.3-0.3,0.3-0.5v-0.9
			c-1.3,0.7-2.3,1.1-3.1,1.3l-0.6-0.9c2-0.5,3.6-1.3,4.8-2.6h-3V7.5h9.3V10.7z M122.2,6.3h-11.9V5.4h5.5V4h-4.7V3.2h4.7v-1h1v1h4.7
			V4h-4.7v1.3h5.5V6.3z M119.9,9.8V8.4h-7.3v1.4H119.9z M122.2,14.3l-0.6,0.7c-1.4-1-3.1-2-5.2-3l0.6-0.8c0.7,0.3,1.4,0.7,2.2,1.1
			c0.5-0.3,0.9-0.7,1.4-1.2l0.7,0.6c-0.5,0.5-1,0.9-1.3,1.1C120.7,13.3,121.4,13.7,122.2,14.3z"/>
		<path class="st0" d="M137.4,10.8c-0.5-0.3-0.7-0.6-0.7-1c0-0.2,0.1-0.4,0.2-0.6c0.2-0.2,0.4-0.3,0.7-0.3c0.6,0,0.9,0.4,0.9,1.2
			c0,0.7-0.4,1.3-1.2,1.9l-0.4-0.3C137.2,11.4,137.4,11,137.4,10.8z"/>
		<path class="st0" d="M167.9,14H164v2.2c0,0.4-0.1,0.7-0.4,0.9c-0.2,0.2-0.5,0.3-0.9,0.4c-0.4,0-0.9,0.1-1.7,0.1h-1.2l-0.4-1
			c0.6,0.1,1.2,0.1,1.7,0.1c0.9,0,1.4-0.1,1.5-0.2c0.1-0.1,0.2-0.2,0.2-0.4V14h-12.5V13h12.5v-1.3h-11V4.6h4.6c0-0.4,0.1-1,0.1-1.6
			h-6.1V2h17v1h-6.1v1.6h4.7v7.1H164V13h3.9V14z M165.1,10.7V7.8h-3.2c-1,0-1.5-0.5-1.5-1.5V5.5h-2.9c-0.4,1.5-1.7,2.6-3.8,3.2
			L153,8.1v2.7H165.1z M156.4,5.5H153v2.3C154.9,7.3,156,6.6,156.4,5.5z M157.4,16.2l-0.7,0.8c-0.8-0.7-1.7-1.3-2.9-1.9l0.6-0.8
			C155.5,14.7,156.4,15.4,157.4,16.2z M156.3,1.2l-0.9,0.6c-0.4-0.5-0.9-0.8-1.4-1.2l0.8-0.6C155.4,0.4,155.9,0.8,156.3,1.2z
			 M164.1,9.7h-9.9V8.9h9.9V9.7z M160.4,4.6V3h-2.7c0,0.6,0,1.2-0.1,1.6H160.4z M165.1,6.8V5.5h-3.7v0.8c0,0.3,0.2,0.5,0.5,0.5
			H165.1z M164.1,0.6c-0.5,0.5-1,0.9-1.5,1.3l-0.9-0.6c0.6-0.4,1-0.8,1.5-1.2L164.1,0.6z"/>
		<path class="st0" d="M176.8,16.5c0,0.4-0.1,0.7-0.4,0.9c-0.3,0.2-0.7,0.3-1.2,0.3h-0.5l-0.3-1.1c0.2,0,0.4,0.1,0.6,0.1
			c0.6,0,0.8-0.2,0.8-0.5v-4.9h-2.2c-0.1,2.7-0.5,4.8-1.2,6.4l-0.8-0.7c0.7-1.8,1-4.5,1-8.3v-8h4.1V16.5z M175.8,5.4V1.6h-2.2v3.8
			H175.8z M175.8,10.3V6.4h-2.2v3.9H175.8z M189.2,8.3l-0.5,0.8c-0.7-0.2-1.4-0.6-2.2-1.2h-2.5V9h3.4v0.8h-3.4v1.1h3.4v0.8h-3.4v1.1
			h4.6c0,2-0.1,3.3-0.5,3.9c-0.1,0.3-0.4,0.5-0.8,0.6c-0.4,0.1-0.8,0.2-1.3,0.2h-0.5l-0.3-1c0.4,0,0.7,0,1,0c0.5,0,0.9-0.1,1-0.4
			c0.2-0.3,0.3-1.1,0.3-2.5h-8.9V8.6c-0.3,0.2-0.6,0.4-0.9,0.5l-0.7-0.7c1.4-0.7,2.5-1.6,3.5-2.7h-3.1V4.8h3.8
			c0.2-0.4,0.5-0.8,0.7-1.3h-4.2V2.6h4.6c0.3-0.7,0.5-1.5,0.7-2.6l0.9,0.2c-0.1,0.7-0.3,1.5-0.6,2.4h4.9v0.9h-5.2
			c-0.2,0.4-0.4,0.9-0.7,1.3h6.4v0.9h-3.2C186.5,6.8,187.7,7.7,189.2,8.3z M179.4,14.7c-0.2,1.1-0.6,2.1-1.1,2.9l-0.8-0.3
			c0.5-0.9,0.9-1.9,1.2-2.8L179.4,14.7z M181.1,1.5l-0.7,0.6c-0.5-0.4-1.1-0.8-1.7-1.1l0.7-0.6C180,0.7,180.6,1,181.1,1.5z M183.1,9
			V7.9h-3.3V9H183.1z M183.1,10.9V9.8h-3.3v1.1H183.1z M183.1,12.9v-1.1h-3.3v1.1H183.1z M181.8,17.2l-0.8,0.2
			c-0.1-0.9-0.2-1.8-0.5-2.6l0.8-0.1C181.5,15.6,181.7,16.4,181.8,17.2z M185.6,7c-0.4-0.4-0.7-0.8-1-1.4h-2.7
			c-0.4,0.5-0.8,0.9-1.2,1.4H185.6z M184.2,16.7l-0.8,0.3c-0.2-0.8-0.5-1.6-0.9-2.2l0.7-0.3C183.6,15.2,183.9,15.9,184.2,16.7z
			 M186.3,15.9l-0.8,0.3c-0.2-0.5-0.4-1-0.8-1.6l0.8-0.3C185.8,14.8,186,15.3,186.3,15.9z M187.7,0.8c-0.5,0.5-1,0.9-1.6,1.3
			l-0.8-0.5c0.6-0.3,1.1-0.8,1.6-1.2L187.7,0.8z"/>
		<path class="st0" d="M210.5,17.2h-17.4v-1h8.2v-2.6h-7v-1h7V11h1v1.5h7v1h-7v2.6h8.2V17.2z M202.1,1.6h-3.1v1.8h2.6v4h-2.6v1.8
			h3.1v1h-7.9V0.6h7.9V1.6z M197.9,3.4V1.6h-2.7v1.8H197.9z M200.5,6.4v-2h-5.3v2H200.5z M197.9,9.2V7.4h-2.7v1.8H197.9z M210.6,9.4
			l-0.5,1c-1.5-0.7-2.7-1.4-3.6-2.3c-1,0.9-2.2,1.7-3.4,2.3l-0.5-1c1.2-0.5,2.3-1.2,3.2-2.1c-1.2-1.3-2-3.2-2.3-5.7h-0.6v-1h7
			c-0.3,2.8-1.2,5.1-2.7,6.7C208.3,8.3,209.4,9,210.6,9.4z M208.7,1.6h-4.3c0.4,2.1,1,3.7,2,5C207.6,5.3,208.4,3.6,208.7,1.6z"/>
		<path class="st0" d="M220.8,9.1l-2.4,1v6.1c0,0.4-0.1,0.7-0.3,1c-0.2,0.3-0.8,0.4-1.8,0.4c-0.3,0-0.7,0-1.1,0l-0.3-1l1.8,0
			c0.4,0,0.7-0.2,0.7-0.6v-5.5c-0.9,0.3-1.9,0.6-2.8,0.9l-0.2-1c0.9-0.2,1.9-0.5,3-1V5.2h-2.9v-1h2.9v-4h1v4h2.1v1h-2.1v3.9
			c0.9-0.4,1.7-0.7,2.3-1L220.8,9.1z M231.7,3.6h-5v2.9h4.3v1h-9.5v-1h4.2V3.6h-4.7v-1h4.7V0.2h1.1v2.3h5V3.6z M231.9,11.2h-2.4v5
			c0,0.5-0.2,0.9-0.5,1.2c-0.4,0.3-1,0.4-1.9,0.4h-1.3l-0.3-1c1.5,0,2.3,0,2.6-0.1c0.3-0.1,0.4-0.3,0.4-0.6v-4.8h-7.5v-1h7.5v-2h1v2
			h2.4V11.2z M225.6,14.9l-0.9,0.7c-0.6-1-1.5-2-2.7-3l0.8-0.6C223.9,12.8,224.9,13.8,225.6,14.9z"/>
		<path class="st0" d="M242.1,3.2h-6.2v-1h2.7c-0.2-0.7-0.5-1.3-0.8-1.8l0.9-0.3c0.4,0.8,0.8,1.5,1,2.2h2.4V3.2z M241.7,6.1h-5.4v-1
			h5.4V6.1z M241.7,8.9h-5.4v-1h5.4V8.9z M241.3,17.1h-1v-1.1h-2.6v1.6h-1v-6.7h4.6V17.1z M240.3,15.1v-3.1h-2.6v3.1H240.3z
			 M244.3,11.2c-0.5,2.1-1,3.8-1.5,4.9l-0.9-0.4c0.6-1.4,1.1-2.9,1.5-4.7L244.3,11.2z M252.6,0.6c-0.1,1.5-0.1,2.9-0.3,4.3
			c-0.1,1.4-0.2,2.2-0.3,2.5c-0.1,0.3-0.2,0.5-0.5,0.7c-0.2,0.2-0.5,0.4-0.9,0.5c-0.4,0.1-1.1,0.1-2,0.1l-0.3-1.1c0.6,0,1.1,0,1.4,0
			c0.7,0,1.1-0.2,1.3-0.6s0.4-2.2,0.5-5.4h-2.7c-0.3,4.1-2.2,6.7-5.7,7.8l-0.6-0.8c1.5-0.5,2.8-1.3,3.7-2.3
			c-0.7-0.8-1.5-1.5-2.5-2.1l0.7-0.7c0.9,0.5,1.7,1.2,2.4,2c0.6-1.1,0.9-2.3,1-3.8h-5v-1H252.6z M250.6,13.7
			c-0.1,1.4-0.2,2.3-0.4,2.7c-0.2,0.4-0.4,0.7-0.7,0.8s-0.9,0.2-1.9,0.2c-0.9,0-1.5-0.1-1.8-0.4c-0.3-0.2-0.5-0.7-0.5-1.3v-4.8h1
			v4.9c0,0.2,0.1,0.3,0.3,0.5c0.2,0.1,0.7,0.2,1.5,0.2c0.6,0,1-0.1,1.2-0.3s0.3-1.1,0.4-2.6L250.6,13.7z M249.4,11.5l-0.7,0.7
			c-0.7-1-1.5-1.9-2.3-2.7l0.7-0.7C248,9.7,248.8,10.6,249.4,11.5z M253.3,15.4l-1,0.4c-0.3-1.4-0.8-3-1.5-4.6l0.9-0.4
			C252.5,12.5,253,14.1,253.3,15.4z"/>
		<path class="st0" d="M274.7,14.1h-17.5v-0.9h2.7V3.8h4.3c0.1-0.2,0.3-0.7,0.6-1.4h-7.2V1.5h7.6c0.2-0.5,0.4-0.9,0.5-1.4l1.1,0.2
			l-0.4,1.2h8.2v0.9h-8.6l-0.6,1.4h6.8v9.3h2.6V14.1z M264.4,15.6c-1.9,0.9-4,1.7-6.3,2.4l-0.7-1c2.3-0.6,4.3-1.4,6.1-2.2
			L264.4,15.6z M271,6.2V4.8h-10v1.4H271z M271,8.5V7.1h-10v1.4H271z M271,10.8V9.4h-10v1.4H271z M271,13.1v-1.4h-10v1.4H271z
			 M274.8,17.1l-0.7,1c-1.7-0.9-3.8-1.7-6.3-2.4l0.7-0.9C270.8,15.4,272.9,16.2,274.8,17.1z"/>
		<path class="st0" d="M286.9,2.7h-2.4v1.4h-1V2.7h-4.8v-1h4.8V0.2h1v1.5h2.4V2.7z M296.1,17.3h-17.4v-1h2.3v-3.6h12.8v3.6h2.3V17.3
			z M296.1,8.6h-9.5c-1.2,1-2.5,1.7-3.9,2.2c3.1,0,6.2-0.1,9.2-0.2c-0.6-0.5-1-0.8-1.2-0.9l0.8-0.7c1.5,0.8,2.7,1.8,3.8,2.9
			l-0.7,0.7c-0.3-0.4-0.8-0.8-1.4-1.2c-3.4,0.2-7.7,0.3-12.8,0.4l-0.2-0.9c2-0.5,3.6-1.3,4.9-2.3h-6.3V7.6h8.2V6.1h-7v-1h7V3.9h1
			v1.2h7.1v1h-7.1v1.6h8.3V8.6z M284.9,16.4v-2.7H282v2.7H284.9z M288.8,16.4v-2.7h-2.9v2.7H288.8z M296.1,2.7h-4.8v1.4h-1V2.7h-2.5
			v-1h2.5V0.2h1v1.5h4.8V2.7z M292.8,16.4v-2.7h-2.9v2.7H292.8z"/>
		<path class="st0" d="M307.9,4.6c-0.4,0.1-0.8,0.2-1.2,0.3c-0.2,3.4-0.7,6.1-1.7,8c1,0.8,1.9,1.6,2.8,2.5l-0.8,0.8
			c-0.7-0.8-1.5-1.6-2.5-2.3c-0.8,1.2-2,2.5-3.7,3.9l-0.8-0.8c1.7-1.4,2.9-2.6,3.6-3.7c-0.7-0.6-1.7-1.2-3-2c0.5-2,0.9-3.9,1.1-5.5
			c-0.9,0.1-1.4,0.1-1.7,0.1v-1c0.7,0,1.3-0.1,1.9-0.2c0.2-1.2,0.4-2.7,0.5-4.3h1.1c-0.1,1-0.2,2.4-0.5,4.2c0.7-0.1,1.5-0.2,2.6-0.4
			c0-0.6,0-1.3,0-1.9h1.1c0,0.7,0,1.3,0,1.6c0.3,0,0.7-0.1,1.2-0.3V4.6z M305.7,5.1c-0.8,0.2-1.7,0.3-2.7,0.4
			c-0.4,2.1-0.7,3.8-1.1,5.1c0.8,0.5,1.6,1,2.3,1.6C305.1,10.3,305.6,7.9,305.7,5.1z M317.5,9.4h-4.3v6.5c0,0.7-0.2,1.2-0.6,1.4
			c-0.4,0.2-1.1,0.3-2.2,0.3c-0.5,0-0.9,0-1.4,0l-0.4-1.1c0.7,0.1,1.3,0.1,2,0.1c0.5,0,0.9,0,1.1-0.1c0.2-0.1,0.2-0.2,0.2-0.4V9.4
			h-4.8v-1h4.8V6c1.4-1.4,2.6-2.9,3.5-4.3h-7.9v-1h9.2v1.1c-0.8,1.3-2,2.9-3.6,4.6v1.9h4.3V9.4z"/>
		<path class="st0" d="M18.1,46.4h-9v4.5c0,0.1,0.1,0.2,0.2,0.3c0.1,0.1,0.2,0.2,0.4,0.2h1.6c2.9,0,4.5,0,5-0.1
			c0.4-0.1,0.6-1,0.6-2.8l1.1,0.4c-0.1,1.5-0.2,2.4-0.5,2.8c-0.3,0.4-0.6,0.6-1,0.7c-0.4,0.1-1.9,0.1-4.6,0.1c-1.2,0-2,0-2.4,0
			c-0.4,0-0.7-0.2-1-0.5C8.1,51.7,8,51.4,8,51v-4.6H0.7v-1H8v-3.3c-1.8,0.1-3.1,0.2-4,0.2l-0.4-1c4.9-0.2,8.5-0.7,10.8-1.6l0.6,0.9
			c-1.7,0.6-3.7,1-5.9,1.2v3.5h9V46.4z M17.4,42.2h-1.1v-4.1H2.4v4.1H1.4v-5.1h7.5c-0.4-0.7-0.7-1.3-1-1.8l1-0.4
			c0.4,0.5,0.7,1.3,1.2,2.2h7.4V42.2z"/>
		<path class="st0" d="M30.7,49.4c0.3,0,0.6,0.1,0.8,0.3c0.2,0.2,0.3,0.5,0.3,0.8c0,0.3-0.1,0.6-0.3,0.8c-0.2,0.2-0.5,0.3-0.8,0.3
			c-0.3,0-0.6-0.1-0.8-0.3c-0.2-0.2-0.3-0.5-0.3-0.8c0-0.3,0.1-0.6,0.3-0.8C30.1,49.5,30.4,49.4,30.7,49.4z M31.5,36.3l-0.2,10.9H30
			l-0.2-10.9H31.5z"/>
		<path class="st0" d="M49.1,39.6H47v3.9c0.7-0.3,1.3-0.6,1.9-1l0.2,1.1c-0.8,0.4-1.5,0.8-2.1,1v6.3c0,0.7-0.2,1.1-0.6,1.3
			s-0.9,0.3-1.5,0.3H44l-0.4-1l1.8,0c0.3,0,0.5-0.2,0.5-0.5V45c-0.6,0.3-1.4,0.6-2.2,0.8L43.4,45c0.8-0.3,1.6-0.6,2.5-1v-4.4h-2.6
			v-1H46v-3.7h1v3.7h2.1V39.6z M61.1,50.7l-0.7,0.9c-2.2-1.7-3.8-3.5-5-5.6v6.5h-1.1v-6.4c-1.2,2-3,3.8-5.4,5.5l-0.7-0.8
			c2.6-1.7,4.4-3.5,5.4-5.5h-4.4v-1h5v-1.9h1.1v1.9h5.5v1h-4.8C57.1,47.2,58.8,49.1,61.1,50.7z M59.9,35.7c-2.5,1-5.8,1.6-10,1.8
			l-0.5-1c4.1-0.2,7.4-0.8,9.9-1.7L59.9,35.7z M52.3,42.1l-0.9,0.5c-0.5-1.2-1-2.3-1.6-3.3l0.9-0.5C51.4,39.8,51.9,40.9,52.3,42.1z
			 M55.9,41.2l-1,0.3c-0.3-1.1-0.6-2.2-1.1-3.2l0.9-0.4C55.2,39,55.6,40.1,55.9,41.2z M60.5,38.1c-0.5,1.6-1.2,3.1-2,4.4l-1-0.4
			c0.9-1.4,1.5-2.9,2-4.4L60.5,38.1z"/>
		<path class="st0" d="M82.2,43.2h-9v9.2h-1v-2.2c-2.7,0.4-5.1,0.7-7.3,0.9l-0.4-1c0.3,0,0.9-0.1,1.8-0.2v-6.8h-1.6v-1h17.4V43.2z
			 M79.6,41.2h-1v-4.8H68.4v4.8h-1v-5.8h12.2V41.2z M72.2,44.5v-1.3h-4.8v1.3H72.2z M72.2,47v-1.4h-4.8V47H72.2z M72.2,49.3v-1.4
			h-4.8v2C69.4,49.7,71,49.5,72.2,49.3z M77.3,38.6h-7.7v-1h7.7V38.6z M77.3,40.8h-7.7v-1h7.7V40.8z M82.3,51.7l-0.5,0.9
			c-1.3-0.5-2.6-1.2-3.7-2c-1.2,0.9-2.4,1.6-3.6,2l-0.7-0.7c1.2-0.4,2.4-1,3.5-1.8c-1.2-1.3-2.2-2.7-2.9-4.3H74v-1h7.4
			c-0.4,2.2-1.2,4-2.5,5.3C79.7,50.6,80.9,51.2,82.3,51.7z M80.2,45.6h-4.6c0.6,1.4,1.5,2.6,2.6,3.7C79,48.3,79.7,47.1,80.2,45.6z"
			/>
		<path class="st0" d="M103.3,37.7H86.5v-1h7.9c-0.1-0.4-0.2-0.9-0.6-1.6l1-0.3c0.2,0.5,0.4,1.1,0.6,1.9h7.8V37.7z M102.5,50.9
			c0,0.5-0.1,0.8-0.4,1.1s-0.8,0.4-1.7,0.4c-0.3,0-0.7,0-1.1,0l-0.3-1c0.8,0,1.4,0,1.6,0c0.6,0,0.9-0.2,0.9-0.7v-5.6h-13v7.3h-1
			v-8.3h15.1V50.9z M100.5,42.8H89.3V39h11.2V42.8z M99.4,41.8V40h-9v1.8H99.4z M99,50.4h-8.2v-3.9H99V50.4z M97.9,49.5v-2h-6.1v2
			H97.9z"/>
		<path class="st0" d="M113.7,43.7l-0.8,0.7c-0.3-0.7-0.8-1.6-1.6-2.6v10.7h-1v-9.7c-0.9,2-1.6,3.4-2.2,4.2l-0.7-0.8
			c1.1-1.6,2.1-3.7,2.8-6h-2.5v-1h2.6V35h1v4.1h2v1h-2v0.2C112.4,41.5,113.2,42.7,113.7,43.7z M117.5,48.9c-1.2,1.4-2.4,2.4-3.6,3.2
			l-0.7-0.8c1.1-0.7,2.3-1.7,3.5-3.1L117.5,48.9z M125,47.1h-5.2v5.4h-1v-5.4h-5.3v-1H125V47.1z M125,36.4h-3.7v1.5h3.1v4.4h-10.2
			v-4.4h3v-1.5h-3.6v-1H125V36.4z M124.3,44.6h-9.9v-0.9h9.9V44.6z M117.2,41.3v-2.5h-2v2.5H117.2z M120.3,37.9v-1.5h-2v1.5H120.3z
			 M120.3,41.3v-2.5h-2v2.5H120.3z M125.1,51.3l-0.7,0.7c-0.8-0.9-1.9-2-3.3-3l0.7-0.7C123.2,49.5,124.4,50.5,125.1,51.3z
			 M123.4,38.8h-2.1v2.5h2.1V38.8z"/>
		<path class="st0" d="M146.4,49.2h-8.2v3.4h-1v-3.4H129v-1h8.2v-1.9h-2v-6.5c-0.4,0.5-0.9,1-1.5,1.6l-0.6-0.9
			c1.6-1.4,2.8-3.3,3.8-5.6l1,0.3c-0.2,0.6-0.6,1.2-1,2h3.9c-0.1-0.5-0.4-1.2-0.9-2l1-0.3c0.4,0.8,0.8,1.6,1,2.3h4.1v1h-4.6V40h3.9
			v1h-3.9v1.7h3.9v1h-3.9v1.7h4.9v1h-8v1.9h8.2V49.2z M132.7,41l-0.6,0.8c-0.8-0.6-1.8-1.2-3.1-1.7l0.6-0.9
			C130.6,39.6,131.6,40.2,132.7,41z M133.9,43.4c-1.5,1.8-2.9,3.1-4.2,3.8l-0.6-0.8c1.2-0.7,2.6-2,4.1-3.8L133.9,43.4z M134,37.3
			l-0.6,0.9c-1-0.9-2.1-1.6-3.2-2.2l0.6-0.8C132.1,35.8,133.2,36.6,134,37.3z M140.3,40v-1.7h-4V40H140.3z M140.3,42.6v-1.7h-4v1.7
			H140.3z M140.3,45.3v-1.7h-4v1.7H140.3z"/>
		<path class="st0" d="M167.6,40.9h-14.7v3.5c0,3.1-0.6,5.6-1.8,7.5l-0.8-0.6c1.1-1.6,1.6-3.9,1.6-6.8V40h15.7V40.9z M158.7,35.4
			v3.4h-6.5v-3.4H158.7z M160.9,45h-1.2v7.4h-1v-1.8c-1.1,0.2-3,0.4-5.7,0.6l-0.3-0.9c0.7,0,1.3-0.1,1.9-0.2V45h-1v-0.9h3.3v-1.3
			h-2.8V42h6.4v0.9h-2.6v1.3h3.1V45z M157.7,37.9v-1.5h-4.5v1.5H157.7z M158.7,46.1v-1h-3.1v1H158.7z M158.7,47.9v-1h-3.1v1H158.7z
			 M158.7,49.7v-0.8h-3.1v1.2C156.8,49.9,157.8,49.8,158.7,49.7z M166.6,38.8h-6.3v-3.4h6.3V38.8z M167.9,51.6l-0.6,0.8
			c-1.4-0.6-2.5-1.3-3.3-2.2c-1,0.9-2,1.7-3.2,2.2l-0.5-0.8c1.2-0.5,2.2-1.2,3-2c-0.6-1-1.1-1.9-1.3-2.9l0.9-0.4
			c0.2,0.9,0.6,1.7,1,2.5c0.8-1.1,1.3-2.6,1.5-4.2H163c-0.5,1-1.2,1.9-1.9,2.6l-0.6-0.7c1.1-1.1,2-2.7,2.5-4.7l0.9,0.3
			c0,0.1-0.2,0.7-0.5,1.6h4.2v0.9h-1.2c-0.3,2-0.9,3.7-1.8,5C165.3,50.3,166.4,51,167.9,51.6z M165.6,37.9v-1.5h-4.4v1.5H165.6z"/>
		<path class="st0" d="M178.1,42.9l-0.8,0.7c-0.3-0.7-0.8-1.4-1.4-2.1v10.8h-1v-9.9c-0.9,1.9-1.7,3.5-2.6,4.5l-0.7-0.9
			c1.3-1.6,2.4-3.7,3.2-6.1h-2.7v-1h2.8V35h1v4.1h2v1h-2v0.1C176.7,40.9,177.4,41.8,178.1,42.9z M189.3,43.8l-0.6,0.9
			c-1.9-0.7-3.5-1.6-5-2.5c-1.8,1.1-3.5,1.9-5.2,2.5l-0.6-0.9c1.9-0.6,3.5-1.4,4.9-2.3c-0.9-0.8-1.7-1.6-2.2-2.5
			c-0.5,0.4-0.9,0.7-1.3,1l-0.9-0.7c2.1-1.4,3.5-2.9,4.4-4.6l1,0.3c-0.2,0.5-0.5,0.9-1,1.5h5.1v1c-1,1.7-2.2,3-3.4,4
			C186,42.4,187.5,43.2,189.3,43.8z M187.8,52.4h-1v-0.9h-6.2v0.9h-1v-7.3h8.2V52.4z M186.8,50.6v-4.4h-6.2v4.4H186.8z M186.8,37.5
			h-4.7c-0.1,0.2-0.4,0.4-0.7,0.8c0.6,1,1.3,1.9,2.3,2.6C185,40,186,38.8,186.8,37.5z"/>
		<path class="st0" d="M201.5,45.6c-0.5-0.3-0.7-0.6-0.7-1c0-0.2,0.1-0.4,0.2-0.6s0.4-0.3,0.7-0.3c0.6,0,0.9,0.4,0.9,1.2
			c0,0.7-0.4,1.3-1.2,1.9l-0.4-0.3C201.4,46.2,201.5,45.9,201.5,45.6z"/>
		<path class="st0" d="M231.9,52h-17.4v-1h6.2V39.6h-5.8v-1h16.6v1h-5.8V51h6.2V52z M219.4,48.8l-1,0.4c-0.6-2.4-1.5-4.8-2.8-7.4
			l0.9-0.4C217.8,43.8,218.7,46.2,219.4,48.8z M221.2,37.5l-0.9,0.7c-0.5-0.8-1.3-1.7-2.4-2.6l0.9-0.6
			C219.5,35.5,220.3,36.4,221.2,37.5z M224.6,51V39.6h-2.9V51H224.6z M228.7,35.4c-0.7,1-1.6,2-2.6,2.8l-0.9-0.7
			c1.3-1,2.1-1.9,2.6-2.7L228.7,35.4z M230.8,41.8c-0.6,2.3-1.6,4.7-2.9,7.4l-0.9-0.4c1.2-2.3,2.1-4.7,2.9-7.3L230.8,41.8z"/>
		<path class="st0" d="M241.5,52.4h-1v-7.9h-1.9c-0.1,3.7-0.7,6.2-1.7,7.7l-0.9-0.6c1-1.6,1.5-4,1.5-7.1h-1.5v-1h4.5v-2.6h-3.5v-5
			h1.1v3.9h2.4v-5h1V52.4z M252.4,37.7c-2,3.1-5.1,5.2-9.6,6.3l-0.7-1c2.4-0.4,4.4-1.2,6.1-2.4c-0.8-0.7-2-1.4-3.7-2.3
			c-0.5,0.4-1.1,0.7-1.6,1l-0.8-0.8c2.3-1.1,3.9-2.4,4.9-3.7l1,0.5c-0.3,0.5-0.8,0.9-1.2,1.4h5.6V37.7z M253.4,45.6H251V51
			c0,0.6-0.2,1-0.6,1.2c-0.4,0.2-1.1,0.3-2.2,0.3c-0.4,0-0.7,0-1.1,0l-0.4-1.1c0.8,0,1.5,0.1,2,0.1c0.5,0,0.9,0,1-0.1
			c0.1-0.1,0.2-0.2,0.2-0.4v-5.3h-7.6v-1h7.6v-2.4h1v2.4h2.3V45.6z M242.9,41.3l0-1c0.9,0,2-0.1,3.2-0.3l0,1
			C244.6,41.2,243.5,41.3,242.9,41.3z M246.9,49.8l-0.9,0.6c-0.7-1.2-1.5-2.3-2.6-3.4l0.8-0.6C245.3,47.5,246.2,48.6,246.9,49.8z
			 M251.2,37.7h-5.5l-0.1,0c1.3,0.7,2.5,1.5,3.5,2.2C249.8,39.3,250.5,38.6,251.2,37.7z"/>
		<path class="st0" d="M273.9,40.2h-13.5v3.1c0,3.8-0.8,6.9-2.4,9.1l-0.9-0.6c1.5-2.1,2.2-4.7,2.2-8v-8.3h14.5V40.2z M272.8,39.1
			v-2.7h-12.4v2.7H272.8z M274.7,43.8h-6.4v2.6h5.1v6.1h-1.1v-1.1h-9.2v1.1h-1.1v-6.1h5.2v-2.6h-6.1v-1h6.1v-2h1v2h6.4V43.8z
			 M272.4,50.5v-3h-9.2v3H272.4z"/>
		<path class="st0" d="M284.3,35.3c-0.2,0.6-0.6,1.3-1,2.3l-0.7,1.3v13.6h-1.1V40.6c-0.7,1.1-1.6,2.1-2.6,3.2l-0.6-1
			c2-1.9,3.7-4.5,5-7.8L284.3,35.3z M296,52h-12.4v-1h5.4v-5.4h-4.4v-1h4.4v-4.6h-5v-1h5.3c-0.2-1-0.7-2.2-1.5-3.6l1-0.4
			c0.6,1.2,1.1,2.6,1.5,4h5.4v1h-5.7v4.6h5v1h-5V51h5.9V52z"/>
		<path class="st0" d="M317.5,41.9h-6.7c-1,0.8-2.1,1.6-3.4,2.3h7.8v8.2h-1v-1h-9v1h-1v-6.7c-0.9,0.4-2,0.8-3.5,1.3l-0.6-0.9
			c3.5-1,6.5-2.5,9.1-4.3h-9v-1h7.5V38H302v-1h5.6v-2.1h1.1V37h4.1v1h-4.1v2.9h1.8c1.7-1.4,3.3-3.1,5-5.1l0.8,0.6
			c-1.3,1.7-2.7,3.1-4.2,4.5h5.5V41.9z M314.1,47.3v-2.1h-8.7l-0.3,0.1v2H314.1z M314.1,50.4v-2.1h-9v2.1H314.1z"/>
		<path class="st0" d="M18.1,79.6H9.8c-0.3,0.8-0.6,1.4-0.8,1.8h7.8v4.5c0,0.9-0.7,1.4-2.1,1.4c-0.3,0-0.6,0-1.1-0.1l-0.3-1
			c0.4,0,0.8,0.1,1.2,0.1c0.6,0,1,0,1.1-0.1s0.2-0.2,0.2-0.4v-3.4h-3.6V87h-1v-4.7H7.6V87h-1v-4.7H3v5.1h-1v-6h5.9
			c0.3-0.5,0.5-1.1,0.8-1.8h-8v-0.9h17.4V79.6z M17.7,76.9h-1v-3.3H9.9v4.5h-1v-4.5H2.2v3.3h-1v-4.2h7.8v-1.5H1.8v-0.9H17v0.9H9.9
			v1.5h7.8V76.9z M8.1,77c-1.3,0.4-2.9,0.7-4.7,0.8L3,76.9c1.7-0.1,3.3-0.3,4.8-0.7L8.1,77z M8.1,74.9l-0.4,0.9
			c-1.6-0.4-3.1-0.6-4.5-0.7l0.4-0.9C5.2,74.4,6.7,74.6,8.1,74.9z M15.9,75.1c-1.3,0.3-2.9,0.6-4.7,0.6l-0.4-0.9
			c1.3,0,2.9-0.2,4.6-0.5L15.9,75.1z M16,77l-0.4,0.9c-1.4-0.4-3-0.7-4.7-0.8l0.5-0.9C13.3,76.4,14.8,76.7,16,77z"/>
		<path class="st0" d="M29,80.8c-2.4,2.3-4.6,3.9-6.4,5L22,84.8c2-1.1,4.1-2.8,6.4-5L29,80.8z M39.4,84.8l-0.6,0.9
			c-3.5-1.5-6-3.6-7.4-6.2v6.3c0,0.6-0.2,1-0.6,1.2c-0.4,0.2-1.2,0.3-2.3,0.3c-0.4,0-0.7,0-1.1,0l-0.5-1.1c0.6,0,1.5,0,2.8,0
			c0.2,0,0.3-0.1,0.4-0.2c0.1-0.1,0.2-0.3,0.2-0.4V74.2h-8.2v-1h8.2v-3.4h1.1v3.4h8v1h-8v2.9c0.2,0.6,0.6,1.3,1.1,2.1
			c1.9-1.1,3.5-2.3,4.9-3.7l0.8,0.7c-1.2,1.3-2.9,2.5-5.1,3.8C34.1,81.8,36.2,83.4,39.4,84.8z M27.5,78.8l-0.7,0.8
			c-0.9-1.1-2.1-2.2-3.6-3.3l0.7-0.8C25.4,76.6,26.6,77.7,27.5,78.8z M37.2,71.9l-0.7,0.8c-0.7-0.6-1.6-1.3-2.7-2l0.6-0.8
			C35.6,70.6,36.5,71.3,37.2,71.9z"/>
		<path class="st0" d="M49,70c-0.4,1-0.8,1.8-1.2,2.6l-0.6,1.1v13.6h-1.1V75.6c-1.1,1.6-1.9,2.6-2.3,3.1l-0.6-1
			c1.9-2.2,3.5-4.9,4.7-8L49,70z M60.9,73.5h-6.4V77H60v1h-5.5v3.7h5.9v1h-5.9v4.5h-1.1V73.5h-1.9c-0.7,1.5-1.6,3.1-2.8,4.7L48,77.4
			c1.7-2,2.9-4.6,3.9-7.8l0.9,0.4c-0.1,0.4-0.4,1.3-0.8,2.5h8.8V73.5z"/>
		<path class="st0" d="M81.8,79.6c0,1.3-0.1,2.6-0.2,3.8c-0.1,1.2-0.3,2-0.4,2.4s-0.3,0.7-0.6,0.9s-0.6,0.4-1.1,0.5
			c-0.4,0.1-1.1,0.2-2.1,0.2L77,86.2c0.3,0,0.9,0,1.9,0c0.3,0,0.6-0.1,0.8-0.2c0.2-0.1,0.4-0.4,0.5-0.6c0.1-0.3,0.2-0.8,0.3-1.7
			c0.1-0.8,0.2-1.9,0.2-3.2H68.5c-0.9,1.1-2,2.2-3.1,3.1l-0.6-1c3.1-2.5,5.1-5.5,6.1-9h-5.3v-1h5.6c0.3-1.3,0.5-2.3,0.6-3l1,0.2
			c-0.1,0.7-0.3,1.7-0.5,2.8h7.4c-0.2,1.1-0.4,2.3-0.7,3.5h2c-0.1,1.1-0.3,2.2-0.6,3.4H81.8z M69.7,71.8l-0.9,0.6
			c-0.5-0.7-1-1.4-1.7-2.1l0.9-0.6C68.6,70.4,69.2,71.1,69.7,71.8z M70.2,82.2c-0.6,1.9-1.3,3.5-2.1,4.8l-1-0.5
			c0.8-1.2,1.5-2.7,2.2-4.6L70.2,82.2z M79.6,77.2h-8.9c-0.3,0.7-0.8,1.5-1.4,2.4h9.9C79.3,78.7,79.5,77.9,79.6,77.2z M78.3,73.7
			h-6.4c-0.2,0.8-0.5,1.6-0.8,2.4h6.7C77.9,75.5,78.1,74.7,78.3,73.7z M73.1,86.7L72,87c0.1-1.3-0.1-2.9-0.5-4.8l1-0.2
			C72.8,83.3,73,85,73.1,86.7z M76.3,85.7l-1,0.4c-0.2-1.4-0.6-2.7-1.1-3.9l1-0.3C75.5,82.9,75.9,84.2,76.3,85.7z M79.1,84.6
			L78.2,85c-0.3-0.9-0.7-2-1.3-3.1l0.9-0.4C78.3,82.4,78.7,83.4,79.1,84.6z"/>
		<path class="st0" d="M103.6,78h-9v9.2h-1v-2.2c-2.7,0.4-5.1,0.7-7.3,0.9l-0.4-1c0.3,0,0.9-0.1,1.8-0.2V78h-1.6v-1h17.4V78z
			 M101,76h-1v-4.8H89.8V76h-1v-5.8H101V76z M93.6,79.3V78h-4.8v1.3H93.6z M93.6,81.8v-1.4h-4.8v1.4H93.6z M93.6,84.1v-1.4h-4.8v2
			C90.8,84.5,92.4,84.3,93.6,84.1z M98.7,73.4H91v-1h7.7V73.4z M98.7,75.6H91v-1h7.7V75.6z M103.6,86.5l-0.5,0.9
			c-1.3-0.5-2.6-1.2-3.7-2c-1.2,0.9-2.4,1.6-3.6,2l-0.7-0.7c1.2-0.4,2.4-1,3.5-1.8c-1.2-1.3-2.2-2.7-2.9-4.3h-0.4v-1h7.4
			c-0.4,2.2-1.2,4-2.5,5.3C101.1,85.4,102.3,86,103.6,86.5z M101.5,80.4h-4.6c0.6,1.4,1.5,2.6,2.6,3.7
			C100.4,83.1,101.1,81.9,101.5,80.4z"/>
		<path class="st0" d="M111.7,70c-0.1,0.6-0.4,1.4-0.6,2.4l-0.4,1.4v13.6h-1v-11c-0.6,1.2-1.1,2.1-1.5,2.7l-0.8-0.8
			c1.5-2.2,2.6-5,3.3-8.5L111.7,70z M124.7,71.2h-5.9c-0.1,0.3-0.3,0.7-0.5,1.1h4.5v4.9h1.8v2.5h-1.1v-1.6h-10.6v1.6h-1v-2.5h1.7
			v-4.9h3.6c0.2-0.3,0.3-0.6,0.5-1.1h-5.4v-0.9h12.3V71.2z M125,86.7l-0.5,0.8c-2.3-0.4-4.1-0.9-5.6-1.5c-1.6,0.7-3.7,1.2-6.3,1.4
			l-0.5-0.9c2.4-0.1,4.3-0.4,5.7-0.9c-0.9-0.4-1.8-1-2.6-1.6c-1,0.5-1.8,0.9-2.4,1.1l-0.6-0.8c1-0.3,1.8-0.7,2.2-0.9
			c-0.3-0.3-0.4-0.4-0.6-0.6l0.7-0.6c0.3,0.3,0.5,0.5,0.7,0.7c0.4-0.2,0.9-0.7,1.6-1.3c-0.8-0.1-1.2-0.5-1.2-1.2v-1.5h1v1.5
			c0,0.2,0.1,0.3,0.2,0.4c0.1,0.1,0.7,0.1,1.6,0.1c1.1,0,1.7-0.1,1.9-0.2c0.2-0.2,0.3-0.5,0.3-1.1l0.9,0.4c-0.1,0.9-0.4,1.4-0.8,1.5
			c-0.5,0.2-1.4,0.2-2.7,0.2c-0.4,0.4-0.6,0.7-0.7,0.8h5.3v0.8c-0.6,0.7-1.4,1.5-2.5,2.2C121.5,86,123.1,86.4,125,86.7z M115,79.3
			c-0.6,1.2-1.2,2.2-1.9,2.8l-0.8-0.6c0.7-0.7,1.4-1.6,1.9-2.6L115,79.3z M121.8,73.9v-0.8h-7.2v0.8H121.8z M121.8,75.6v-0.9h-7.2
			v0.9H121.8z M121.8,77.2v-0.9h-7.2v0.9H121.8z M121.1,83.3H116l-0.1,0.2c0.9,0.7,1.9,1.2,2.9,1.6
			C119.5,84.7,120.3,84.1,121.1,83.3z M119.6,79.5l-0.5,0.7c-0.6-0.4-1.1-0.7-1.7-1l0.5-0.7C118.5,78.7,119,79.1,119.6,79.5z
			 M124.4,81.6l-0.8,0.5c-0.5-1-1.1-1.9-1.8-2.8l0.8-0.5C123.3,79.8,124,80.7,124.4,81.6z"/>
		<path class="st0" d="M146.4,82.9c-0.2,1.6-0.3,2.5-0.5,3c-0.2,0.4-0.5,0.7-0.9,0.9c-0.4,0.2-1.5,0.3-3.2,0.3c-0.8,0-1.3,0-1.6-0.1
			s-0.4-0.2-0.6-0.4c-0.2-0.2-0.3-0.5-0.3-0.9v-6.9h-3.6c0.1,4-1.9,6.9-6.1,8.6l-0.7-0.9c1.7-0.7,3-1.6,4.1-2.7
			c1.1-1.2,1.6-2.8,1.5-4.9h-5.4l0-1h8V74h-4.5c-0.6,0.9-1.3,1.8-2.2,2.6l-1-0.7c1.6-1.4,2.9-3.4,4-5.9l1,0.4
			c-0.2,0.6-0.6,1.5-1.3,2.5h3.8v-3.2h1.1V73h7.1V74h-7.1v3.6h7.9v1h-5.9v6.7c0,0.2,0.1,0.4,0.2,0.5s0.8,0.1,1.8,0.1
			c1.2,0,1.9-0.1,2.1-0.2c0.2-0.1,0.4-0.4,0.5-0.8c0.1-0.4,0.2-1.2,0.3-2.4L146.4,82.9z"/>
		<path class="st0" d="M167.7,76.3h-6.1c-1,0.7-2.2,1.5-3.6,2.2h8.4v1H158l-0.7,2.4h8.9c-0.2,2-0.6,3.3-0.9,3.9s-0.9,1-1.5,1.2
			s-1.9,0.2-3.7,0.2c-0.7,0-1.5,0-2.3-0.1l-0.4-1.1c1.4,0.1,2.5,0.1,3.6,0.1c1.5,0,2.3-0.1,2.7-0.2c0.3-0.1,0.6-0.4,0.8-0.8
			c0.2-0.4,0.4-1.2,0.6-2.4H156l1.1-4.1c-2.6,1.2-4.7,2.1-6.2,2.6l-0.6-0.9c4-1.3,7.2-2.8,9.6-4.3h-9v-1.1h6.6v-2.6h-5.1v-1h5.1
			v-1.8h1.1v1.8h4.9v1h-4.9v2.6h2.9c1.5-1,3.2-2.6,5.1-4.8l0.8,0.7c-1.5,1.7-2.9,3.1-4.1,4.2h4.7V76.3z"/>
		<path class="st0" d="M189.1,86.8h-17.4V86h8.2v-1.3h-7v-0.8h7v-1.3h-6.4V78h13.8v4.6H181v1.3h7v0.8h-7V86h8.2V86.8z M189,76.8h-17
			V76h17V76.8z M187.4,74.9h-13.8v-4.6h13.8V74.9z M179.9,79.9v-1.1h-5.4v1.1H179.9z M179.9,81.9v-1.2h-5.4v1.2H179.9z M186.4,72.2
			v-1.1h-11.8v1.1H186.4z M186.4,74.1V73h-11.8v1.1H186.4z M186.4,79.9v-1.1H181v1.1H186.4z M186.4,81.9v-1.2H181v1.2H186.4z"/>
		<path class="st0" d="M201.5,80.4c-0.5-0.3-0.7-0.6-0.7-1c0-0.2,0.1-0.4,0.2-0.6c0.2-0.2,0.4-0.3,0.7-0.3c0.6,0,0.9,0.4,0.9,1.2
			c0,0.7-0.4,1.3-1.2,1.9l-0.4-0.3C201.4,81,201.5,80.7,201.5,80.4z"/>
		<path class="st0" d="M218.9,74.9c-0.1,2.7-0.4,4.9-1,6.6c-0.6,1.7-1.5,3.1-2.7,4.4l-0.9-0.6c2-2,3.1-5.2,3.4-9.3h-3.2v-1H218.9z
			 M228.8,71.4c-1.4,1.2-2.9,2.3-4.6,3.4v1.1h2.6v1h-2.6v2h3.3v1h-3.3v2h3.9v1h-3.9v2.6c0,0.5-0.1,0.8-0.3,1.1
			c-0.2,0.3-0.4,0.4-0.7,0.5c-0.3,0.1-0.7,0.1-1.3,0.1c-0.3,0-0.7,0-1.2,0l-0.4-1.1c0.5,0,0.9,0,1.4,0c0.7,0,1.2,0,1.3-0.1
			c0.1-0.1,0.2-0.2,0.2-0.4V83h-4.5v-1h4.5v-2h-3.5v-1h3.5v-2h-3.3v-1h3.3v-1.6c1.7-1.1,3.1-2.1,4.2-3h-9.8v-1h11.2V71.4z
			 M232.1,85.2l-0.9,0.6c-2-2.3-3.1-5.5-3.3-9.4c1.4-0.8,2.5-1.7,3.4-2.6l0.7,0.7c-0.7,0.7-1.7,1.6-3,2.5
			C229.2,80.2,230.2,83,232.1,85.2z"/>
		<path class="st0" d="M241.9,72.9h-6v-1h2.7c-0.2-0.6-0.5-1.2-0.8-1.8l1-0.4c0.4,0.8,0.7,1.6,0.9,2.3h2.2V72.9z M241.6,75.8h-5.3
			v-1h5.3V75.8z M241.6,78.7h-5.3v-1h5.3V78.7z M241.6,86.9h-1v-1.1h-2.9v1.5h-1.1v-6.6h5V86.9z M240.6,84.8v-3.1h-2.9v3.1H240.6z
			 M253.3,77.7h-6.1c-0.3,0.9-0.8,1.8-1.4,2.7h6.5v6.9h-1V86h-5.5v1.4h-1v-5.4c-0.6,0.7-1.2,1.3-1.8,1.9l-0.7-0.8
			c2-1.9,3.3-3.7,4-5.4h-3.5v-1h3.9c0.3-0.6,0.5-1.5,0.8-2.5l1,0.2c-0.2,0.9-0.4,1.7-0.6,2.3h5.8V77.7z M247.7,72.9h-2v1.8h-1v-1.8
			h-2v-1h2v-2.1h1v2.1h2V72.9z M251.2,85v-3.6h-5.5V85H251.2z M253.2,72.9h-2v1.8h-1v-1.8h-1.6v-1h1.6v-2.1h1v2.1h2V72.9z"/>
		<path class="st0" d="M274.8,80.5l-0.4,1c-3.4-0.4-6.2-1.2-8.3-2.2c-2.3,1-5,1.7-8.2,2.2l-0.6-1c3-0.4,5.6-1,7.6-1.8
			c-1.2-0.7-2.2-1.5-3-2.3c-1,0.8-1.9,1.4-2.8,1.9l-0.7-0.8c2.4-1.3,4.2-2.8,5.2-4.6l1,0.4c-0.3,0.5-0.6,1-0.9,1.3h7.8v1
			c-1,1.1-2.4,2.1-4.2,3.2C269.3,79.6,271.8,80.2,274.8,80.5z M274,75.6h-1v-3.2H259v3.1H258v-4.1h7.7c-0.1-0.4-0.4-0.9-0.9-1.4
			l1.1-0.3c0.4,0.6,0.7,1.2,1,1.8h7.1V75.6z M272,87.3h-1v-0.9h-9.8v0.9h-1v-5.5H272V87.3z M270.9,85.4v-2.6h-9.8v2.6H270.9z
			 M270,75.6h-7.2l-0.1,0.1c0.9,1,2.1,1.8,3.3,2.5C267.7,77.4,269,76.6,270,75.6z"/>
		<path class="st0" d="M295.3,70.8c-4.7,0.9-9,1.4-12.9,1.4v2.7h12.8v6.4h-13c-0.4,2.5-1.3,4.6-2.8,6.1l-0.8-0.9
			c1.1-1,1.8-2.2,2.2-3.6s0.6-3.7,0.6-7.1v-4.6c4.4,0,8.9-0.4,13.3-1.4L295.3,70.8z M294.1,80.3v-4.3h-11.7c0,0.8,0,2.2-0.1,4.3
			H294.1z"/>
		<path class="st0" d="M314.5,70.8h-4.7v7.7h-1.1v-8.7h5.8V70.8z"/>
		<path class="st0" d="M17.2,120.7c0,0.5-0.2,0.9-0.6,1.1c-0.4,0.2-1.3,0.3-2.6,0.3c-0.3,0-0.6,0-0.9,0l-0.3-1.1
			c0.5,0,1,0.1,1.4,0.1c1,0,1.5,0,1.7-0.1c0.2-0.1,0.2-0.2,0.2-0.4v-4.8h-5.7v5.9H9.3v-5.9H3.6c-0.3,2.7-1,4.9-2.1,6.3l-0.9-0.7
			c1.4-2,2-4.4,2-7.2V105h14.5V120.7z M9.3,109.7v-3.7H3.7v3.7H9.3z M9.3,114.7v-3.9H3.7v3.9H9.3z M16.1,109.7v-3.7h-5.7v3.7H16.1z
			 M16.1,114.7v-3.9h-5.7v3.9H16.1z"/>
		<path class="st0" d="M26.1,104.8c-0.1,0.6-0.4,1.4-0.6,2.4l-0.4,1.4v13.6h-1v-11c-0.6,1.2-1.1,2.1-1.5,2.7l-0.8-0.8
			c1.5-2.2,2.6-5,3.3-8.5L26.1,104.8z M39.2,106h-5.9c-0.1,0.3-0.3,0.7-0.5,1.1h4.5v4.9h1.8v2.5H38v-1.6H27.4v1.6h-1V112h1.7v-4.9
			h3.6c0.2-0.3,0.3-0.6,0.5-1.1h-5.4v-0.9h12.3V106z M39.4,121.5l-0.5,0.8c-2.3-0.4-4.1-0.9-5.6-1.5c-1.6,0.7-3.7,1.2-6.3,1.4
			l-0.5-0.9c2.4-0.1,4.3-0.4,5.7-0.9c-0.9-0.4-1.8-1-2.6-1.6c-1,0.5-1.8,0.9-2.4,1.1l-0.6-0.8c1-0.3,1.8-0.7,2.2-0.9
			c-0.3-0.3-0.4-0.4-0.6-0.6l0.7-0.6c0.3,0.3,0.5,0.5,0.7,0.7c0.4-0.2,0.9-0.7,1.6-1.3c-0.8-0.1-1.2-0.5-1.2-1.2v-1.5h1v1.5
			c0,0.2,0.1,0.3,0.2,0.4c0.1,0.1,0.7,0.1,1.6,0.1c1.1,0,1.7-0.1,1.9-0.2c0.2-0.2,0.3-0.5,0.3-1.1l0.9,0.4c-0.1,0.9-0.4,1.4-0.8,1.5
			c-0.5,0.2-1.4,0.2-2.7,0.2c-0.4,0.4-0.6,0.7-0.7,0.8h5.3v0.8c-0.6,0.7-1.4,1.5-2.5,2.2C35.9,120.8,37.6,121.2,39.4,121.5z
			 M29.4,114.1c-0.6,1.2-1.2,2.2-1.9,2.8l-0.8-0.6c0.7-0.7,1.4-1.6,1.9-2.6L29.4,114.1z M36.3,108.7v-0.8h-7.2v0.8H36.3z
			 M36.3,110.4v-0.9h-7.2v0.9H36.3z M36.3,112v-0.9h-7.2v0.9H36.3z M35.6,118.1h-5.1l-0.1,0.2c0.9,0.7,1.9,1.2,2.9,1.6
			C34,119.5,34.8,118.9,35.6,118.1z M34.1,114.3l-0.5,0.7c-0.6-0.4-1.1-0.7-1.7-1l0.5-0.7C32.9,113.6,33.5,113.9,34.1,114.3z
			 M38.9,116.4l-0.8,0.5c-0.5-1-1.1-1.9-1.8-2.8l0.8-0.5C37.8,114.6,38.4,115.5,38.9,116.4z"/>
		<path class="st0" d="M58.6,114.7H46.4v5.9c1.2-0.3,2.9-0.8,5-1.6l0.1,1c-2.7,1-4.7,1.6-6.2,1.9l-0.5-1.2c0.3-0.2,0.4-0.6,0.4-1
			v-13.5h6.2c-0.2-0.4-0.6-0.9-1-1.4l1-0.5c0.5,0.6,0.9,1.2,1.4,1.9h5.9V114.7z M57.6,110v-2.5H46.4v2.5H57.6z M57.6,113.7V111H46.4
			v2.7H57.6z M61.2,121.2l-0.6,0.9c-4.5-1.3-7.7-3.4-9.4-6.1l0.9-0.6c0.5,0.9,1.4,1.8,2.6,2.9c1.6-0.9,3-1.9,4.1-3l0.8,0.7
			c-1,1-2.3,2-3.8,2.9C57.1,119.8,59,120.5,61.2,121.2z"/>
		<path class="st0" d="M82.3,120.8l-0.2,1.1c-1.2,0-2.4,0-3.4,0c-2.4,0-4-0.1-5-0.2c-1-0.1-2-0.4-3-0.7c-1-0.3-1.8-0.9-2.6-1.7
			c-1,1.2-1.9,2.1-2.7,2.8l-0.7-0.8c1-0.8,1.9-1.7,2.7-2.8c-0.7-1-1.4-2.3-1.9-3.9l0.9-0.4c0.4,1.4,0.9,2.5,1.5,3.3
			c0.7-1.5,1.1-3.2,1.2-5.1h-3.7v-0.9c1.2-1.6,2.5-3.4,3.7-5.4h-4.1v-1h5.2v1c-1.2,2.1-2.4,3.8-3.5,5.3H70c-0.1,2.9-0.6,5.3-1.5,7
			c0.6,0.6,1.3,1.2,2.1,1.5c0.8,0.4,1.6,0.6,2.5,0.7s2.7,0.2,5.3,0.2C79.8,120.9,81.1,120.9,82.3,120.8z M82.1,110h-1.4v2.8h-4.6
			v1.7h5v1h-5v1.6h5.7v1h-5.7v2h-1v-2h-5v-1h5v-1.6h-4.2v-1h4.2v-1.7h-3.8v-1h3.8V110h-5v-1h5v-1.7h-3.8v-1h3.8v-1.5h1v1.5h4.6v2.7
			h1.4V110z M79.7,108.9v-1.7h-3.6v1.7H79.7z M79.7,111.8V110h-3.6v1.8H79.7z"/>
		<path class="st0" d="M94.9,106.9h-5.6c-0.6,0.8-1.3,1.5-2.2,2.2l-0.9-0.6c1.4-1.1,2.6-2.5,3.5-4.1l1,0.4c-0.2,0.4-0.5,0.8-0.8,1.2
			h4.9V106.9z M103.6,117.1h-8.2v5h-1.1v-5h-8.2v-0.9h8.2v-0.9h1.1v0.9h8.2V117.1z M92.7,118.7c-1.5,1-3.4,2-5.8,2.9l-0.7-0.9
			c2.3-0.8,4.2-1.7,5.8-2.8L92.7,118.7z M93.9,110.6H91v2.9c0.7-0.1,1.6-0.3,2.9-0.6v1c-2.5,0.6-4.8,1-7,1.4l-0.3-0.9l3.3-0.6v-3.1
			H87v-1h6.9V110.6z M92.8,108.8l-0.9,0.5c-0.5-0.7-0.9-1.2-1.3-1.6l0.9-0.4C92.2,107.8,92.6,108.3,92.8,108.8z M103.7,112.5
			c0,0.8-0.2,1.3-0.5,1.7c-0.3,0.4-0.8,0.6-1.6,0.6c-1.1,0-1.6-0.4-1.6-1.1v-3H98c-0.1,0.8-0.3,1.5-0.5,2c0.5,0.3,1.1,0.7,1.7,1.3
			l-0.7,0.6c-0.5-0.4-1-0.8-1.6-1.2c-0.6,0.6-1.3,1.1-2,1.4l-0.8-0.7c0.9-0.3,1.6-0.7,2.1-1.2c-0.6-0.4-1.2-0.7-1.6-0.9l0.7-0.7
			c0.5,0.2,0.9,0.5,1.4,0.8c0.2-0.4,0.3-0.9,0.3-1.5h-2.2v-0.9h6.2v3.8c0,0.2,0.2,0.3,0.7,0.3c0.4,0,0.7-0.2,0.8-0.5
			c0.1-0.3,0.2-0.7,0.2-1.2L103.7,112.5z M103.6,106.9h-6.1c-0.8,0.9-1.6,1.7-2.3,2.2l-0.9-0.6c1.5-1.1,2.7-2.5,3.7-4l1,0.4
			c-0.2,0.4-0.5,0.8-0.7,1.1h5.4V106.9z M103.7,121l-0.7,0.8c-1.6-1-3.5-2-5.7-2.9L98,118C100.2,119,102.1,120,103.7,121z
			 M100.9,109l-0.9,0.4c-0.4-0.7-0.7-1.3-1.1-1.7l1-0.4C100.3,107.8,100.7,108.4,100.9,109z"/>
		<path class="st0" d="M125.2,120.7l-0.3,1.1l-7.8,0c-3.4,0-5.9-1-7.5-3.1c-0.5,1.6-0.9,2.7-1.4,3.4l-0.8-0.8c1.1-2.1,1.7-4.8,2-8.1
			l1,0.2c-0.1,1.6-0.3,2.9-0.5,3.8c0.4,1,1.2,1.8,2.2,2.4v-7.8h-4.4v-1h4.4v-2.8h-4v-1h4v-2.5h1v2.5h2.9v1h-2.9v2.8h3.4v1h-3.4v2.6
			h3v1h-3v4.7c0.8,0.4,1.8,0.6,3.2,0.6c1.4,0,3,0.1,5,0.1C123.2,120.8,124.5,120.8,125.2,120.7z M125.1,114.7c0,1,0,1.8-0.2,2.4
			c-0.2,0.6-0.5,1-0.9,1.2c-0.5,0.2-1.4,0.3-2.9,0.3c-1.5,0-2.5-0.1-2.9-0.3c-0.4-0.2-0.6-0.7-0.6-1.5v-11.2h6.6v6.4h-5.6v5.1
			c0,0.2,0.2,0.4,0.5,0.4s1,0.1,2,0.1c1.4,0,2.2-0.1,2.3-0.2c0.1-0.1,0.3-0.3,0.3-0.5c0.1-0.2,0.2-1,0.2-2.5L125.1,114.7z
			 M123.2,110.9v-4.4h-4.5v4.4H123.2z"/>
		<path class="st0" d="M146.5,120.7l-0.2,1c-0.7,0-3.1,0-7.2,0c-3.4,0-5.8-0.7-7.2-2.2c-0.8,1.1-1.6,2-2.3,2.7l-0.8-0.7
			c1.9-1.5,3.2-3.7,3.9-6.4h-3.4v-0.9c0.9-1.1,2-2.5,3.1-4.1H129v-1h4.8v1c-0.6,0.8-1.6,2.2-3,4h3v1c-0.4,1.3-0.8,2.5-1.4,3.6
			c0.7,0.7,1.4,1.1,2.2,1.4c0.8,0.3,1.6,0.5,2.5,0.5c0.9,0.1,2.7,0.1,5.4,0.1C144.5,120.8,145.9,120.8,146.5,120.7z M133.1,107.6
			l-0.8,0.7c-0.8-1.1-1.8-2.1-2.9-3l0.7-0.7C131.3,105.5,132.3,106.5,133.1,107.6z M146.3,112.1h-11.8v-1h5.5v-2.9h-3.2
			c-0.6,0.9-1,1.5-1.3,1.9l-0.9-0.5c1.1-1.4,1.9-2.9,2.5-4.7l1,0.2c-0.3,0.9-0.5,1.6-0.8,2.2h2.7v-2.7h1v2.7h4.3v1H141v2.9h5.3
			V112.1z M145.1,118.6H136v-4.8h9.1V118.6z M144,117.6v-2.8h-7v2.8H144z"/>
		<path class="st0" d="M154.4,104.8c-0.2,0.6-0.4,1.4-0.6,2.4l-0.4,1.4v13.6h-1v-11c-0.6,1.2-1.1,2.1-1.5,2.7l-0.8-0.8
			c1.5-2.2,2.6-5,3.3-8.5L154.4,104.8z M167.5,106h-5.9c-0.1,0.3-0.3,0.7-0.5,1.1h4.5v4.9h1.8v2.5h-1.1v-1.6h-10.6v1.6h-1V112h1.7
			v-4.9h3.6c0.2-0.3,0.3-0.6,0.5-1.1h-5.4v-0.9h12.3V106z M167.7,121.5l-0.5,0.8c-2.3-0.4-4.1-0.9-5.6-1.5c-1.6,0.7-3.7,1.2-6.3,1.4
			l-0.5-0.9c2.4-0.1,4.3-0.4,5.7-0.9c-0.9-0.4-1.8-1-2.6-1.6c-1,0.5-1.8,0.9-2.4,1.1l-0.6-0.8c1-0.3,1.8-0.7,2.2-0.9
			c-0.3-0.3-0.4-0.4-0.6-0.6l0.7-0.6c0.3,0.3,0.5,0.5,0.7,0.7c0.4-0.2,0.9-0.7,1.6-1.3c-0.8-0.1-1.2-0.5-1.2-1.2v-1.5h1v1.5
			c0,0.2,0.1,0.3,0.2,0.4c0.1,0.1,0.7,0.1,1.6,0.1c1.1,0,1.7-0.1,1.9-0.2c0.2-0.2,0.3-0.5,0.3-1.1l0.9,0.4c-0.1,0.9-0.4,1.4-0.8,1.5
			c-0.5,0.2-1.4,0.2-2.7,0.2c-0.4,0.4-0.6,0.7-0.7,0.8h5.3v0.8c-0.6,0.7-1.4,1.5-2.5,2.2C164.2,120.8,165.9,121.2,167.7,121.5z
			 M157.8,114.1c-0.6,1.2-1.2,2.2-1.9,2.8l-0.8-0.6c0.7-0.7,1.4-1.6,1.9-2.6L157.8,114.1z M164.6,108.7v-0.8h-7.2v0.8H164.6z
			 M164.6,110.4v-0.9h-7.2v0.9H164.6z M164.6,112v-0.9h-7.2v0.9H164.6z M163.9,118.1h-5.1l-0.1,0.2c0.9,0.7,1.9,1.2,2.9,1.6
			C162.3,119.5,163.1,118.9,163.9,118.1z M162.4,114.3l-0.5,0.7c-0.6-0.4-1.1-0.7-1.7-1l0.5-0.7
			C161.2,113.6,161.8,113.9,162.4,114.3z M167.2,116.4l-0.8,0.5c-0.5-1-1.1-1.9-1.8-2.8l0.8-0.5
			C166.1,114.6,166.8,115.5,167.2,116.4z"/>
		<path class="st0" d="M180.1,108.7h-2.3v1.9h-1v-1.9h-2.7c-0.3,1.4-0.9,2.3-1.7,3l-0.7-0.7c1.1-0.8,1.6-2.3,1.6-4.3
			c0-0.3,0-0.7,0-1.1c2.4-0.1,4.3-0.4,5.8-0.8l0.6,0.9c-1.6,0.4-3.4,0.7-5.3,0.8c0,0.1,0,0.6-0.1,1.4h5.9V108.7z M186.7,119h-8.5
			l0.5,0.7c-1.8,1.1-4,1.9-6.4,2.3l-0.5-0.9c2.6-0.5,4.7-1.2,6.2-2.2h-3.6v-7.7h12.4V119z M185.7,113.5v-1.3h-10.3v1.3H185.7z
			 M185.7,115.8v-1.3h-10.3v1.3H185.7z M185.7,118.1v-1.4h-10.3v1.4H185.7z M189,108.7H186v1.9h-1v-1.9h-3c-0.3,1-0.8,1.7-1.3,2.2
			l-0.8-0.7c0.9-0.8,1.3-2,1.3-3.8c0-0.2,0-0.5,0-0.8c2-0.1,4.2-0.4,6.4-0.9l0.5,0.9c-2.2,0.5-4.2,0.8-6,0.9c0,0.6,0,1-0.1,1.3h6.9
			V108.7z M189.2,121.3l-0.5,0.9c-1.8-0.7-3.9-1.2-6.2-1.7l0.6-0.9C185.7,120.1,187.7,120.7,189.2,121.3z"/>
		<path class="st0" d="M210.4,120.3l-0.7,0.9c-2.5-1.3-4.4-2.9-5.7-4.8c0.1,0.5,0.1,1.1,0.1,1.7c0,1.7-0.3,2.7-0.8,3.2
			c-0.5,0.5-1.4,0.7-2.6,0.7c-0.4,0-0.7,0-1,0l-0.3-1c0.4,0.1,0.9,0.1,1.3,0.1c0.8,0,1.3-0.1,1.6-0.2s0.5-0.4,0.6-0.8s0.2-1,0.2-1.9
			c0-0.5,0-1.1-0.1-1.7c-2.5,2-5.6,3.5-9.4,4.7l-0.6-0.9c4.3-1.3,7.5-3,9.6-5c-0.2-0.6-0.3-1.1-0.5-1.5c-2,1.5-4.7,2.8-8,3.7l-0.6-1
			c3.2-0.7,6-2,8.2-3.7c-0.2-0.3-0.4-0.7-0.8-1.2c-2,1-4.1,1.7-6.3,2.2l-0.6-1c3.4-0.7,6.1-1.7,7.9-3h-5.8v-1h11.4v1h-4
			c-0.5,0.4-1.1,0.9-1.8,1.3c0.7,0.9,1.3,2.1,1.8,3.4c2-1.1,3.6-2.1,4.6-3.3l0.7,0.7c-1.1,1.1-2.5,2.2-4.4,3.2
			C205.7,117.4,207.7,119.1,210.4,120.3z M209.7,109.7h-1v-2.5H195v2.5h-1v-3.5h7.6c-0.2-0.5-0.4-1-0.6-1.5l1-0.3
			c0.2,0.4,0.4,1,0.7,1.8h7V109.7z"/>
		<path class="st0" d="M231.1,122.1h-1v-1h-13.8v1h-1v-17h15.8V122.1z M230.1,120.1V106h-13.8v14.1H230.1z M227.8,115.1h-5
			c-0.3,0.4-0.8,0.9-1.5,1.5v1.8c0.8-0.2,1.7-0.4,2.6-0.7l0.1,0.9c-1.2,0.4-2.4,0.7-3.7,1l-0.4-0.9c0.2-0.1,0.3-0.3,0.3-0.5v-0.9
			c-1.3,0.7-2.3,1.1-3.1,1.3l-0.6-0.9c2-0.5,3.6-1.3,4.8-2.6h-3v-3.2h9.3V115.1z M229.2,110.7h-11.9v-0.9h5.5v-1.3H218v-0.9h4.7v-1
			h1v1h4.7v0.9h-4.7v1.3h5.5V110.7z M226.8,114.2v-1.4h-7.3v1.4H226.8z M229.1,118.7l-0.6,0.7c-1.4-1-3.1-2-5.2-3l0.6-0.8
			c0.7,0.3,1.4,0.7,2.2,1.1c0.5-0.3,0.9-0.7,1.4-1.2l0.7,0.6c-0.5,0.5-1,0.9-1.3,1.1C227.6,117.7,228.3,118.2,229.1,118.7z"/>
		<path class="st0" d="M238.8,121.2h4.7v-7.7h1.1v8.7h-5.8V121.2z"/>
		<path class="st0" d="M264,123.9l1.3-5.2h1.6l-1.7,5.2H264z M265.9,110c0.3,0,0.6,0.1,0.8,0.3s0.3,0.5,0.3,0.8
			c0,0.3-0.1,0.6-0.3,0.8c-0.2,0.2-0.5,0.3-0.8,0.3c-0.3,0-0.6-0.1-0.8-0.3c-0.2-0.2-0.3-0.5-0.3-0.8c0-0.3,0.1-0.6,0.3-0.8
			S265.6,110,265.9,110z"/>
		<path class="st0" d="M288.3,120.5c-2.6,0.5-5.8,0.8-9.4,1.2l-0.3-1c1.4-0.1,2.9-0.2,4.5-0.4v-2.7h-3.9v-1h3.9v-2.3H279v-1h2.6
			c-0.3-1-0.6-1.9-1-2.7h-1.6v-0.9h2.9v-5h1v5h1.8v-5h1v5h2.6v0.9h-1.5c-0.3,0.9-0.6,1.8-1,2.7h2.4v1h-3.8v2.3h3.4v1h-3.4v2.5
			c1.3-0.1,2.7-0.4,4.1-0.6V120.5z M281,108.4l-0.9,0.4c-0.3-1.1-0.7-2.1-1.3-3.1l0.8-0.4C280.3,106.3,280.7,107.3,281,108.4z
			 M285.6,110.6h-3.9c0.3,0.8,0.7,1.7,1,2.7h1.9C285,112.2,285.4,111.3,285.6,110.6z M289,105.6c-0.4,1.2-1,2.3-1.6,3.2l-0.8-0.5
			c0.8-1.2,1.2-2.3,1.5-3.1L289,105.6z M296.1,110h-1.8v10.3c0,0.5-0.1,0.8-0.3,1.1c-0.2,0.3-0.5,0.5-0.8,0.5
			c-0.3,0.1-0.9,0.1-1.7,0.1c-0.5,0-0.9,0-1.3,0l-0.4-1c0.7,0,1.6,0.1,2.6,0.1c0.5,0,0.8-0.3,0.8-0.8V110h-4.4v-1h4.4v-4.4h1v4.4
			h1.8V110z M291.9,116.8l-1,0.5c-0.5-1.6-1.2-3.2-2-4.8l0.9-0.5C290.5,113.2,291.2,114.8,291.9,116.8z"/>
		<path class="st0" d="M317.6,118.4h-3.9v2.2c0,0.4-0.1,0.7-0.4,0.9c-0.2,0.2-0.5,0.3-0.9,0.4c-0.4,0-0.9,0.1-1.7,0.1h-1.2l-0.4-1
			c0.6,0.1,1.2,0.1,1.7,0.1c0.9,0,1.4-0.1,1.5-0.2c0.1-0.1,0.2-0.2,0.2-0.4v-2.1h-12.5v-0.9h12.5v-1.3h-11V109h4.6
			c0-0.4,0.1-1,0.1-1.6h-6.1v-1h17v1h-6.1v1.6h4.7v7.1h-2.2v1.3h3.9V118.4z M314.8,115.2v-2.9h-3.2c-1,0-1.5-0.5-1.5-1.5V110h-2.9
			c-0.4,1.5-1.7,2.6-3.8,3.2l-0.6-0.6v2.7H314.8z M306.1,110h-3.4v2.3C304.6,111.8,305.7,111,306.1,110z M307.1,120.7l-0.7,0.8
			c-0.8-0.7-1.7-1.3-2.9-1.9l0.6-0.8C305.2,119.2,306.1,119.8,307.1,120.7z M306,105.7l-0.9,0.6c-0.4-0.5-0.9-0.8-1.4-1.2l0.8-0.6
			C305.1,104.8,305.6,105.2,306,105.7z M313.8,114.2h-9.9v-0.8h9.9V114.2z M310.1,109v-1.6h-2.7c0,0.6,0,1.2-0.1,1.6H310.1z
			 M314.8,111.3V110h-3.7v0.8c0,0.3,0.2,0.5,0.5,0.5H314.8z M313.8,105c-0.5,0.5-1,0.9-1.5,1.3l-0.9-0.6c0.6-0.4,1-0.8,1.5-1.2
			L313.8,105z"/>
		<path class="st0" d="M5.7,155.8c0,0.4-0.1,0.7-0.4,0.9s-0.7,0.3-1.2,0.3H3.5l-0.3-1.1c0.2,0,0.4,0.1,0.6,0.1
			c0.6,0,0.8-0.2,0.8-0.5v-4.9H2.5c-0.1,2.7-0.5,4.8-1.2,6.4l-0.8-0.7c0.7-1.8,1-4.5,1-8.3v-8h4.1V155.8z M4.7,144.6v-3.8H2.5v3.8
			H4.7z M4.7,149.5v-3.9H2.5v3.9H4.7z M18.2,147.6l-0.5,0.8c-0.7-0.2-1.4-0.6-2.2-1.2H13v1.1h3.4v0.8H13v1.1h3.4v0.8H13v1.1h4.6
			c0,2-0.1,3.3-0.5,3.9c-0.1,0.3-0.4,0.5-0.8,0.6c-0.4,0.1-0.8,0.2-1.3,0.2h-0.5l-0.3-1c0.4,0,0.7,0,1,0c0.5,0,0.9-0.1,1-0.4
			c0.2-0.3,0.3-1.1,0.3-2.5H7.7v-5.2c-0.3,0.2-0.6,0.4-0.9,0.5l-0.7-0.7c1.4-0.7,2.5-1.6,3.5-2.7H6.5V144h3.8
			c0.2-0.4,0.5-0.8,0.7-1.3H6.8v-0.9h4.6c0.3-0.7,0.5-1.5,0.7-2.6l0.9,0.2c-0.1,0.7-0.3,1.5-0.6,2.4h4.9v0.9h-5.2
			c-0.2,0.4-0.4,0.9-0.7,1.3h6.4v0.9h-3.2C15.5,146.1,16.6,146.9,18.2,147.6z M8.3,154c-0.2,1.1-0.6,2.1-1.1,2.9l-0.8-0.3
			c0.5-0.9,0.9-1.9,1.2-2.8L8.3,154z M10,140.8l-0.7,0.6c-0.5-0.4-1.1-0.8-1.7-1.1l0.7-0.6C8.9,139.9,9.5,140.3,10,140.8z
			 M12.1,148.2v-1.1H8.7v1.1H12.1z M12.1,150.2v-1.1H8.7v1.1H12.1z M12.1,152.1V151H8.7v1.1H12.1z M10.7,156.4l-0.8,0.2
			c-0.1-0.9-0.2-1.8-0.5-2.6l0.8-0.1C10.5,154.8,10.6,155.7,10.7,156.4z M14.5,146.3c-0.4-0.4-0.7-0.8-1-1.4h-2.7
			c-0.4,0.5-0.8,0.9-1.2,1.4H14.5z M13.1,156l-0.8,0.3c-0.2-0.8-0.5-1.6-0.9-2.2l0.7-0.3C12.5,154.4,12.8,155.2,13.1,156z
			 M15.2,155.1l-0.8,0.3c-0.2-0.5-0.4-1-0.8-1.6l0.8-0.3C14.7,154.1,15,154.6,15.2,155.1z M16.6,140.1c-0.5,0.5-1,0.9-1.6,1.3
			l-0.8-0.5c0.6-0.3,1.1-0.8,1.6-1.2L16.6,140.1z"/>
		<path class="st0" d="M39.7,154.9l-0.6,0.9c-3.4-1.6-6-3.8-7.9-6.8v7.8l-1,0v-7.7c-1.9,2.5-4.4,4.7-7.7,6.7l-0.6-0.8
			c4-2.5,6.8-5,8.3-7.7v-4.9h-7.9v-1h7.9v-2h1v2h8.1v1h-8.1v4.9c0.9,1.6,2.1,3.1,3.6,4.5C36.3,153.2,37.9,154.2,39.7,154.9z
			 M28.4,148.5l-0.7,0.8c-0.6-0.9-1.3-1.7-2.1-2.4c-0.5,1-1.4,2.1-2.6,3.2l-0.8-0.7c1.9-1.5,3.1-3.5,3.8-6l1,0.2
			c-0.1,0.7-0.4,1.5-0.8,2.4C27,146.9,27.8,147.7,28.4,148.5z M38.7,149.2l-0.5,1c-0.8-1-1.8-2-2.9-3c-0.5,1.1-1,1.9-1.5,2.4
			l-0.8-0.7c1.1-1.4,1.9-3.1,2.4-5.3l1,0.2c-0.2,0.9-0.4,1.7-0.7,2.4C37,147.2,38,148.2,38.7,149.2z"/>
		<path class="st0" d="M50,142.6h-6.5l0-1h3c-0.2-0.7-0.5-1.3-0.8-1.9l1-0.3c0.3,0.7,0.7,1.4,1,2.2H50V142.6z M49.5,145.5h-5.5v-1
			h5.5V145.5z M49.5,148.2h-5.5v-1h5.5V148.2z M49.3,156.4h-1.1v-1h-3.1v1.5h-1.1v-6.7h5.2V156.4z M48.2,154.4v-3.1h-3.1v3.1H48.2z
			 M60.9,152.5c-0.1,1.9-0.2,3-0.5,3.5c-0.3,0.5-0.8,0.7-1.4,0.7h-1.6c-0.3,0-0.6-0.1-0.8-0.4s-0.4-0.5-0.4-0.9v-6.1h-1.8
			c0.1,3.5-1.2,6.1-3.7,7.8l-0.8-0.8c1.1-0.7,2-1.7,2.7-2.9s0.9-2.6,0.9-4.1h-2V144h8.1v5.3h-2.2v6c0,0.1,0,0.1,0.1,0.2
			c0.1,0.1,0.2,0.1,0.3,0.1h1.3c0.4,0,0.6-0.2,0.7-0.7s0.2-1.4,0.2-2.7L60.9,152.5z M54.4,140c-0.8,1.3-2.1,2.6-3.7,3.9l-0.9-0.8
			c1.7-1.2,2.9-2.4,3.7-3.7L54.4,140z M58.3,148.2v-3.1h-6v3.1H58.3z M60.9,143.1l-0.8,0.8c-0.8-1.1-2.1-2.3-3.9-3.7l0.7-0.8
			C58.5,140.7,59.9,141.9,60.9,143.1z"/>
		<path class="st0" d="M73.2,150c-0.5-0.3-0.7-0.6-0.7-1c0-0.2,0.1-0.4,0.2-0.6s0.4-0.3,0.7-0.3c0.6,0,0.9,0.4,0.9,1.2
			c0,0.7-0.4,1.3-1.2,1.9l-0.4-0.3C73.1,150.6,73.2,150.3,73.2,150z"/>
		<path class="st0" d="M103.6,155.6l-0.2,1.1c-1.2,0-2.4,0-3.4,0c-2.4,0-4-0.1-5-0.2c-1-0.1-2-0.4-3-0.7c-1-0.3-1.8-0.9-2.6-1.7
			c-1,1.2-1.9,2.1-2.7,2.8l-0.7-0.8c1-0.8,1.9-1.7,2.7-2.8c-0.7-1-1.4-2.3-1.9-3.9l0.9-0.4c0.4,1.4,0.9,2.5,1.5,3.3
			c0.7-1.5,1.1-3.2,1.2-5.1h-3.7v-0.9c1.2-1.6,2.5-3.4,3.7-5.4h-4.1v-1h5.2v1c-1.2,2.1-2.4,3.8-3.5,5.3h3.5c-0.1,2.9-0.6,5.3-1.5,7
			c0.6,0.6,1.3,1.2,2.1,1.5c0.8,0.4,1.6,0.6,2.5,0.7c0.9,0.1,2.7,0.2,5.3,0.2C101.2,155.7,102.4,155.7,103.6,155.6z M103.5,144.8
			h-1.4v2.8h-4.6v1.7h5v1h-5v1.6h5.7v1h-5.7v2h-1v-2h-5v-1h5v-1.6h-4.2v-1h4.2v-1.7h-3.8v-1h3.8v-1.8h-5v-1h5V142h-3.8v-1h3.8v-1.5
			h1v1.5h4.6v2.7h1.4V144.8z M101,143.7V142h-3.6v1.7H101z M101,146.6v-1.8h-3.6v1.8H101z"/>
		<path class="st0" d="M116.2,141.7h-5.6c-0.6,0.8-1.3,1.5-2.2,2.2l-0.9-0.6c1.4-1.1,2.6-2.5,3.5-4.1l1,0.4
			c-0.2,0.4-0.5,0.8-0.8,1.2h4.9V141.7z M125,151.9h-8.2v5h-1.1v-5h-8.2v-0.9h8.2V150h1.1v0.9h8.2V151.9z M114.1,153.5
			c-1.5,1-3.4,2-5.8,2.9l-0.7-0.9c2.3-0.8,4.2-1.7,5.8-2.8L114.1,153.5z M115.3,145.4h-2.9v2.9c0.7-0.1,1.6-0.3,2.9-0.6v1
			c-2.5,0.6-4.8,1-7,1.4l-0.3-0.9l3.3-0.6v-3.1h-2.9v-1h6.9V145.4z M114.2,143.6l-0.9,0.5c-0.5-0.7-0.9-1.2-1.3-1.6l0.9-0.4
			C113.5,142.6,114,143.2,114.2,143.6z M125,147.3c0,0.8-0.2,1.3-0.5,1.7s-0.8,0.6-1.6,0.6c-1.1,0-1.6-0.4-1.6-1.1v-3h-1.9
			c-0.1,0.8-0.3,1.5-0.5,2c0.5,0.3,1.1,0.7,1.7,1.3l-0.7,0.6c-0.5-0.4-1-0.8-1.6-1.2c-0.6,0.6-1.3,1.1-2,1.4l-0.8-0.7
			c0.9-0.3,1.6-0.7,2.1-1.2c-0.6-0.4-1.2-0.7-1.6-0.9l0.7-0.7c0.5,0.2,0.9,0.5,1.4,0.8c0.2-0.4,0.3-0.9,0.3-1.5h-2.2v-0.9h6.2v3.8
			c0,0.2,0.2,0.3,0.7,0.3c0.4,0,0.7-0.2,0.8-0.5c0.1-0.3,0.2-0.7,0.2-1.2L125,147.3z M125,141.7h-6.1c-0.8,0.9-1.6,1.7-2.3,2.2
			l-0.9-0.6c1.5-1.1,2.7-2.5,3.7-4l1,0.4c-0.2,0.4-0.5,0.8-0.7,1.1h5.4V141.7z M125.1,155.8l-0.7,0.8c-1.6-1-3.5-2-5.7-2.9l0.7-0.8
			C121.6,153.8,123.5,154.8,125.1,155.8z M122.3,143.8l-0.9,0.4c-0.4-0.7-0.7-1.3-1.1-1.7l1-0.4C121.7,142.6,122,143.2,122.3,143.8z
			"/>
		<path class="st0" d="M146.7,151.5l-0.7,0.9c-3-2.4-5.6-4.1-7.8-5.2v10h-1.1v-11.3c-1.9,2.3-4.4,4.4-7.6,6.5l-0.7-0.9
			c4.9-2.9,8.3-6.4,10-10.4h-9.6v-1.1h17v1.1h-6.2c-0.5,1-1.1,2.1-1.8,3.3v1.6C142,148,144.8,149.9,146.7,151.5z"/>
		<path class="st0" d="M157,150.9c-1.9,2.7-3.9,4.7-6,6.1l-0.8-0.9c2.3-1.5,4.2-3.4,5.7-5.7L157,150.9z M166,148.8h-14v-8.9h14
			V148.8z M164.9,147.7v-6.8h-11.8v6.8H164.9z M167.9,156.2l-0.9,0.8c-1.6-2-3.7-4-6.2-5.9l0.7-0.8
			C164.6,152.8,166.7,154.8,167.9,156.2z"/>
		<path class="st0" d="M189.3,155.6l-0.4,1h-6.6c-1.7,0-3.1-0.2-4.2-0.7c-1.1-0.4-2-1.2-2.9-2.2c-0.7,1-1.6,2-2.9,3.1l-0.8-0.8
			c2.1-1.6,3.5-3.6,4.3-6.1l1,0.3c-0.2,0.9-0.6,1.7-1.1,2.6c1.3,1.6,2.8,2.5,4.4,2.7v-6.4h-8.5v-1h17.5v1h-7.9v2.6h6.8v1h-6.8v2.9
			c0.6,0,1.3,0.1,2,0.1H189.3z M186.7,146.5h-12.3v-6.7h12.3V146.5z M185.6,142.6v-1.8h-10.1v1.8H185.6z M185.6,145.5v-1.9h-10.1
			v1.9H185.6z"/>
		<path class="st0" d="M210.6,155.6l-0.2,1.1c-1.2,0-2.4,0-3.4,0c-2.4,0-4-0.1-5-0.2c-1-0.1-2-0.4-3-0.7c-1-0.3-1.8-0.9-2.6-1.7
			c-1,1.2-1.9,2.1-2.7,2.8l-0.7-0.8c1-0.8,1.9-1.7,2.7-2.8c-0.7-1-1.4-2.3-1.9-3.9l0.9-0.4c0.4,1.4,0.9,2.5,1.5,3.3
			c0.7-1.5,1.1-3.2,1.2-5.1h-3.7v-0.9c1.2-1.6,2.5-3.4,3.7-5.4h-4.1v-1h5.2v1c-1.2,2.1-2.4,3.8-3.5,5.3h3.5c-0.1,2.9-0.6,5.3-1.5,7
			c0.6,0.6,1.3,1.2,2.1,1.5s1.6,0.6,2.5,0.7c0.9,0.1,2.7,0.2,5.3,0.2C208.1,155.7,209.4,155.7,210.6,155.6z M210.4,144.8H209v2.8
			h-4.6v1.7h5v1h-5v1.6h5.7v1h-5.7v2h-1v-2h-5v-1h5v-1.6h-4.2v-1h4.2v-1.7h-3.8v-1h3.8v-1.8h-5v-1h5V142h-3.8v-1h3.8v-1.5h1v1.5h4.6
			v2.7h1.4V144.8z M208,143.7V142h-3.6v1.7H208z M208,146.6v-1.8h-3.6v1.8H208z"/>
		<path class="st0" d="M223.2,141.7h-5.6c-0.6,0.8-1.3,1.5-2.2,2.2l-0.9-0.6c1.4-1.1,2.6-2.5,3.5-4.1l1,0.4
			c-0.2,0.4-0.5,0.8-0.8,1.2h4.9V141.7z M231.9,151.9h-8.2v5h-1.1v-5h-8.2v-0.9h8.2V150h1.1v0.9h8.2V151.9z M221,153.5
			c-1.5,1-3.4,2-5.8,2.9l-0.7-0.9c2.3-0.8,4.2-1.7,5.8-2.8L221,153.5z M222.2,145.4h-2.9v2.9c0.7-0.1,1.6-0.3,2.9-0.6v1
			c-2.5,0.6-4.8,1-7,1.4l-0.3-0.9l3.3-0.6v-3.1h-2.9v-1h6.9V145.4z M221.1,143.6l-0.9,0.5c-0.5-0.7-0.9-1.2-1.3-1.6l0.9-0.4
			C220.5,142.6,220.9,143.2,221.1,143.6z M232,147.3c0,0.8-0.2,1.3-0.5,1.7c-0.3,0.4-0.8,0.6-1.6,0.6c-1.1,0-1.6-0.4-1.6-1.1v-3
			h-1.9c-0.1,0.8-0.3,1.5-0.5,2c0.5,0.3,1.1,0.7,1.7,1.3l-0.7,0.6c-0.5-0.4-1-0.8-1.6-1.2c-0.6,0.6-1.3,1.1-2,1.4l-0.8-0.7
			c0.9-0.3,1.6-0.7,2.1-1.2c-0.6-0.4-1.2-0.7-1.6-0.9l0.7-0.7c0.5,0.2,0.9,0.5,1.4,0.8c0.2-0.4,0.3-0.9,0.3-1.5h-2.2v-0.9h6.2v3.8
			c0,0.2,0.2,0.3,0.7,0.3c0.4,0,0.7-0.2,0.8-0.5c0.1-0.3,0.2-0.7,0.2-1.2L232,147.3z M231.9,141.7h-6.1c-0.8,0.9-1.6,1.7-2.3,2.2
			l-0.9-0.6c1.5-1.1,2.7-2.5,3.7-4l1,0.4c-0.2,0.4-0.5,0.8-0.7,1.1h5.4V141.7z M232,155.8l-0.7,0.8c-1.6-1-3.5-2-5.7-2.9l0.7-0.8
			C228.6,153.8,230.5,154.8,232,155.8z M229.2,143.8l-0.9,0.4c-0.4-0.7-0.7-1.3-1.1-1.7l1-0.4C228.6,142.6,229,143.2,229.2,143.8z"
			/>
		<path class="st0" d="M244.3,150c-0.5-0.3-0.7-0.6-0.7-1c0-0.2,0.1-0.4,0.2-0.6s0.4-0.3,0.7-0.3c0.6,0,0.9,0.4,0.9,1.2
			c0,0.7-0.4,1.3-1.2,1.9l-0.4-0.3C244.2,150.6,244.3,150.3,244.3,150z"/>
		<path class="st0" d="M274.8,155.9l-0.4,1c-4-0.2-7.3-0.9-10-1.9c-1.7,1.2-3.9,1.8-6.7,2l-0.5-1c2.5-0.1,4.5-0.6,6.1-1.5
			c-1.4-0.7-2.6-1.4-3.7-2.3l0.8-0.7c1,0.9,2.2,1.6,3.7,2.2c0.7-0.7,1.1-1.8,1.3-3.1h-6.2v-7.5h6.3v-2.2h-8.2v-1h17.2v1h-8v2.2h6.1
			v7.5h-6.2c-0.2,1.5-0.7,2.7-1.3,3.5C267.8,155.1,271,155.7,274.8,155.9z M265.6,146.3v-2.1h-5.2v2.1H265.6z M265.6,147.3h-5.2v2.4
			h5.1c0-0.5,0.1-1,0.1-1.5C265.6,147.8,265.6,147.6,265.6,147.3z M271.7,149.7v-2.4h-5c0,1.1,0,1.9-0.1,2.4H271.7z M271.7,146.3
			v-2.1h-5v2.1H271.7z"/>
		<path class="st0" d="M296.2,155.6l-0.4,1h-6.6c-1.7,0-3.1-0.2-4.2-0.7c-1.1-0.4-2-1.2-2.9-2.2c-0.7,1-1.6,2-2.9,3.1l-0.8-0.8
			c2.1-1.6,3.5-3.6,4.3-6.1l1,0.3c-0.2,0.9-0.6,1.7-1.1,2.6c1.3,1.6,2.8,2.5,4.4,2.7v-6.4h-8.5v-1h17.5v1h-7.9v2.6h6.8v1h-6.8v2.9
			c0.6,0,1.3,0.1,2,0.1H296.2z M293.6,146.5h-12.3v-6.7h12.3V146.5z M292.5,142.6v-1.8h-10.1v1.8H292.5z M292.5,145.5v-1.9h-10.1
			v1.9H292.5z"/>
		<path class="st0" d="M317,151.5h-8.1c-0.4,1.2-1.1,2.2-2.3,3c-1.1,0.8-3.1,1.6-6,2.4L300,156c2.1-0.5,3.8-1.1,5.2-1.8
			s2.2-1.6,2.6-2.7h-7.2v-0.9h7.4c0.1-0.4,0.2-0.9,0.2-1.5l1,0c0,0.7-0.1,1.2-0.2,1.5h7.8V151.5z M317.5,148.4h-17.4v-1h8.2v-1.9
			h-6.5v-1h6.5v-1.8h-7.3v-1h15.7v1h-7.3v1.8h6.5v1h-6.5v1.9h8.2V148.4z M306.8,140.8l-0.9,0.6c-0.5-0.5-1.2-1.1-2.1-1.6l1-0.6
			C305.6,139.7,306.3,140.3,306.8,140.8z M317.3,156.2l-0.6,0.9c-2.1-1.3-4.5-2.5-7.3-3.5l0.6-0.9
			C312.4,153.5,314.9,154.7,317.3,156.2z M313.4,139.9c-0.6,0.6-1.3,1.1-2.2,1.6l-1-0.6c0.8-0.4,1.5-0.9,2.2-1.6L313.4,139.9z"/>
		<path class="st0" d="M8.5,178.6c-0.4,0.1-0.8,0.2-1.2,0.3c-0.2,3.4-0.7,6.1-1.7,8c1,0.8,1.9,1.6,2.8,2.5l-0.8,0.8
			c-0.7-0.8-1.5-1.6-2.5-2.3c-0.8,1.2-2,2.5-3.7,3.9l-0.8-0.8c1.7-1.4,2.9-2.6,3.6-3.7c-0.7-0.6-1.7-1.2-3-2c0.5-2,0.9-3.9,1.1-5.5
			c-0.9,0.1-1.4,0.1-1.7,0.1v-1c0.7,0,1.3-0.1,1.9-0.2c0.2-1.2,0.4-2.7,0.5-4.3h1.1c-0.1,1-0.2,2.4-0.5,4.2c0.7-0.1,1.5-0.2,2.6-0.4
			c0-0.6,0-1.3,0-1.9h1.1c0,0.7,0,1.3,0,1.6c0.3,0,0.7-0.1,1.2-0.3V178.6z M6.3,179.1c-0.8,0.2-1.7,0.3-2.7,0.4
			c-0.4,2.1-0.7,3.8-1.1,5.1c0.8,0.5,1.6,1,2.3,1.6C5.7,184.3,6.2,182,6.3,179.1z M18.1,183.4h-4.3v6.5c0,0.7-0.2,1.2-0.6,1.4
			s-1.1,0.3-2.2,0.3c-0.5,0-0.9,0-1.4,0l-0.4-1.1c0.7,0.1,1.3,0.1,2,0.1c0.5,0,0.9,0,1.1-0.1c0.2-0.1,0.2-0.2,0.2-0.4v-6.8H7.9v-1
			h4.8V180c1.4-1.4,2.6-2.9,3.5-4.3H8.3v-1h9.2v1.1c-0.8,1.3-2,2.9-3.6,4.6v1.9h4.3V183.4z"/>
		<path class="st0" d="M38.2,191.2H20.7v-1h8.5v-5.4h-6.4v-1.1h6.4v-4.6h-5.4c-0.8,1.4-1.6,2.6-2.5,3.5l-0.8-0.7
			c1.8-1.8,3.1-4.2,3.9-7l1,0.3c-0.3,1-0.6,1.9-1,2.9h4.9v-3.9h1.1v3.9h7.6v1.1h-7.6v4.6H37v1.1h-6.7v5.4h7.9V191.2z"/>
		<path class="st0" d="M45.4,185c-1.1,2.6-2.4,4.8-3.9,6.7l-0.8-0.8c1.5-1.8,2.7-4,3.8-6.6L45.4,185z M45,182.2l-0.7,0.8
			c-1.1-1.1-2.3-2-3.6-2.7l0.6-0.9C42.7,180.2,43.9,181.1,45,182.2z M45.4,177l-0.6,0.8c-1.1-1.1-2.3-2-3.5-2.8l0.7-0.8
			C43.2,175,44.4,175.9,45.4,177z M58.2,180.9h-5.9v3.4h4.6v7.4h-1v-1.4h-8.1v1.4h-1v-7.4h4.6v-3.4h-6v-1h6v-3.5
			c-1.8,0.2-3.4,0.3-5,0.2l-0.4-1c4.3,0,7.9-0.4,10.9-1.4l0.6,0.9c-1.3,0.5-3,0.8-5,1.1v3.6h5.9V180.9z M55.9,189.3v-4h-8.1v4H55.9z
			"/>
		<path class="st0" d="M78.4,190.4l-0.3,1.1l-7.8,0c-3.4,0-5.9-1-7.5-3.1c-0.5,1.6-0.9,2.7-1.4,3.4l-0.8-0.8c1.1-2.1,1.7-4.8,2-8.1
			l1,0.2c-0.1,1.6-0.3,2.9-0.5,3.8c0.4,1,1.2,1.8,2.2,2.4v-7.8h-4.4v-1h4.4v-2.8h-4v-1h4v-2.5h1v2.5h2.9v1h-2.9v2.8h3.4v1h-3.4v2.6
			h3v1h-3v4.7c0.8,0.4,1.8,0.6,3.2,0.6c1.4,0,3,0.1,5,0.1C76.4,190.4,77.7,190.4,78.4,190.4z M78.3,184.3c0,1,0,1.8-0.2,2.4
			c-0.2,0.6-0.5,1-0.9,1.2c-0.5,0.2-1.4,0.3-2.9,0.3c-1.5,0-2.5-0.1-2.9-0.3c-0.4-0.2-0.6-0.7-0.6-1.5v-11.2h6.6v6.4h-5.6v5.1
			c0,0.2,0.2,0.4,0.5,0.4c0.3,0,1,0.1,2,0.1c1.4,0,2.2-0.1,2.3-0.2c0.1-0.1,0.3-0.3,0.3-0.5c0.1-0.2,0.2-1,0.2-2.5L78.3,184.3z
			 M76.4,180.5v-4.4h-4.5v4.4H76.4z"/>
		<path class="st0" d="M82.9,187.9c-0.4,1.7-0.8,2.9-1.3,3.9l-0.9-0.4c0.6-1.2,1-2.4,1.3-3.7L82.9,187.9z M89.6,187h-8.8v-1h3.9
			v-1.9h-3.4v-0.9h3.4v-1.7h-3.2v-6.8H89v6.8h-3.2v1.7H89v0.9h-3.3v1.9h3.8V187z M84.7,180.6v-4.9h-2.3v4.9H84.7z M84.3,179.4
			l-0.8,0.3c-0.2-0.9-0.4-1.9-0.7-2.9l0.7-0.3C84,177.7,84.2,178.6,84.3,179.4z M84.9,191.4l-1,0.2c0-0.3,0-0.5,0-0.8
			c0-1-0.1-1.9-0.2-2.9l1-0.1C84.8,189,84.9,190.2,84.9,191.4z M87.2,191l-0.9,0.2c-0.1-1.1-0.3-2.3-0.6-3.5l0.9-0.2
			C86.9,188.7,87.1,189.8,87.2,191z M88,180.6v-4.9h-2.2v4.9H88z M87.7,176.8c-0.2,1.1-0.5,2.2-0.8,3l-0.8-0.3c0.4-1,0.6-2,0.8-3
			L87.7,176.8z M89.6,190.5l-0.9,0.3c-0.2-1.1-0.6-2.2-1-3.1l1-0.2C89.1,188.5,89.5,189.6,89.6,190.5z M98.3,178.7H94v3.9h3.4v9.2
			h-1v-1.5h-4.9v1.5h-1.1v-9.2H93v-8.3H94v3.4h4.2V178.7z M96.4,189.2v-5.6h-4.9v5.6H96.4z"/>
		<path class="st0" d="M109.5,188.7c0.3,0,0.6,0.1,0.8,0.3c0.2,0.2,0.3,0.5,0.3,0.8c0,0.3-0.1,0.6-0.3,0.8c-0.2,0.2-0.5,0.3-0.8,0.3
			c-0.3,0-0.6-0.1-0.8-0.3c-0.2-0.2-0.3-0.5-0.3-0.8c0-0.3,0.1-0.6,0.3-0.8C108.9,188.8,109.2,188.7,109.5,188.7z M110.4,175.6
			l-0.2,10.9h-1.4l-0.2-10.9H110.4z"/>
	</g>
</g>
</svg>
