<?xml version="1.0" encoding="utf-8"?>
<!-- Generator: Adobe Illustrator 25.2.3, SVG Export Plug-In . SVG Version: 6.00 Build 0)  -->
<svg version="1.1" id="section5_title.svg" xmlns="http://www.w3.org/2000/svg" xmlns:xlink="http://www.w3.org/1999/xlink" x="0px"
	 y="0px" viewBox="0 0 309 80" style="enable-background:new 0 0 309 80;" xml:space="preserve">
<style type="text/css">
	.繪圖樣式{fill:url(#SVGID_1_);}
	.st0{fill:url(#SVGID_2_);}
	.st1{fill:url(#SVGID_3_);}
	.st2{fill:url(#SVGID_4_);}
	.st3{fill:url(#SVGID_5_);}
	.st4{fill:url(#SVGID_6_);}
	.st5{fill:url(#SVGID_7_);}
	.st6{fill:url(#SVGID_8_);}
	.st7{fill:url(#SVGID_9_);}
	.st8{fill:url(#SVGID_10_);}
	.st9{fill:url(#SVGID_11_);}
	.st10{fill:#FFFFFF;}
</style>
<linearGradient id="SVGID_1_" gradientUnits="userSpaceOnUse" x1="0" y1="80" x2="0.8008" y2="80.599">
	<stop  offset="0" style="stop-color:#FAC859"/>
	<stop  offset="2.877487e-03" style="stop-color:#FACB64"/>
	<stop  offset="9.516122e-03" style="stop-color:#FBD176"/>
	<stop  offset="1.745736e-02" style="stop-color:#FCD582"/>
	<stop  offset="2.788930e-02" style="stop-color:#FCD78A"/>
	<stop  offset="5.042250e-02" style="stop-color:#FCD88C"/>
	<stop  offset="6.442444e-02" style="stop-color:#FCD681"/>
	<stop  offset="8.918270e-02" style="stop-color:#FBD163"/>
	<stop  offset="0.1216" style="stop-color:#FACA33"/>
	<stop  offset="0.1355" style="stop-color:#FAC61C"/>
	<stop  offset="0.1458" style="stop-color:#E6B417"/>
	<stop  offset="0.1638" style="stop-color:#C99B11"/>
	<stop  offset="0.184" style="stop-color:#B2860B"/>
	<stop  offset="0.207" style="stop-color:#9F7607"/>
	<stop  offset="0.2343" style="stop-color:#936A04"/>
	<stop  offset="0.2701" style="stop-color:#8B6402"/>
	<stop  offset="0.3475" style="stop-color:#896202"/>
	<stop  offset="0.6179" style="stop-color:#FAC859"/>
	<stop  offset="0.651" style="stop-color:#FACC64"/>
	<stop  offset="0.7093" style="stop-color:#FCD582"/>
	<stop  offset="0.7267" style="stop-color:#FCD88C"/>
	<stop  offset="0.7501" style="stop-color:#FCD481"/>
	<stop  offset="0.7914" style="stop-color:#FACB63"/>
	<stop  offset="0.8037" style="stop-color:#FAC859"/>
	<stop  offset="0.811" style="stop-color:#F2C153"/>
	<stop  offset="0.85" style="stop-color:#CC9F36"/>
	<stop  offset="0.8888" style="stop-color:#AF841F"/>
	<stop  offset="0.9271" style="stop-color:#9A710F"/>
	<stop  offset="0.9645" style="stop-color:#8D6605"/>
	<stop  offset="1" style="stop-color:#896202"/>
</linearGradient>
<g>
	<g>
		
			<image style="overflow:visible;opacity:0.4;" width="311" height="43" xlink:href="A5B5CC4706DDDCFC.png"  transform="matrix(1 0 0 1 1.0695 39.58)">
		</image>
		<g>
			<g>
				
					<linearGradient id="SVGID_2_" gradientUnits="userSpaceOnUse" x1="-221.804" y1="-220.0627" x2="304.4273" y2="173.5327" gradientTransform="matrix(1 0 0 1 -8.6786 -8.1681)">
					<stop  offset="0" style="stop-color:#FAC859"/>
					<stop  offset="2.877487e-03" style="stop-color:#FACB64"/>
					<stop  offset="9.516122e-03" style="stop-color:#FBD176"/>
					<stop  offset="1.745736e-02" style="stop-color:#FCD582"/>
					<stop  offset="2.788930e-02" style="stop-color:#FCD78A"/>
					<stop  offset="5.042250e-02" style="stop-color:#FCD88C"/>
					<stop  offset="6.442444e-02" style="stop-color:#FCD681"/>
					<stop  offset="8.918270e-02" style="stop-color:#FBD163"/>
					<stop  offset="0.1216" style="stop-color:#FACA33"/>
					<stop  offset="0.1355" style="stop-color:#FAC61C"/>
					<stop  offset="0.1458" style="stop-color:#E6B417"/>
					<stop  offset="0.1638" style="stop-color:#C99B11"/>
					<stop  offset="0.184" style="stop-color:#B2860B"/>
					<stop  offset="0.207" style="stop-color:#9F7607"/>
					<stop  offset="0.2343" style="stop-color:#936A04"/>
					<stop  offset="0.2701" style="stop-color:#8B6402"/>
					<stop  offset="0.3475" style="stop-color:#896202"/>
					<stop  offset="0.6179" style="stop-color:#FAC859"/>
					<stop  offset="0.651" style="stop-color:#FACC64"/>
					<stop  offset="0.7093" style="stop-color:#FCD582"/>
					<stop  offset="0.7267" style="stop-color:#FCD88C"/>
					<stop  offset="0.7501" style="stop-color:#FCD481"/>
					<stop  offset="0.7914" style="stop-color:#FACB63"/>
					<stop  offset="0.8037" style="stop-color:#FAC859"/>
					<stop  offset="0.811" style="stop-color:#F2C153"/>
					<stop  offset="0.85" style="stop-color:#CC9F36"/>
					<stop  offset="0.8888" style="stop-color:#AF841F"/>
					<stop  offset="0.9271" style="stop-color:#9A710F"/>
					<stop  offset="0.9645" style="stop-color:#8D6605"/>
					<stop  offset="1" style="stop-color:#896202"/>
				</linearGradient>
				<path class="st0" d="M29.4,53.2c0.4-1.1,1-3.2,1.3-4.8H9.3c0,0.3,0.1,0.7,0.1,1c0,2.4-1.3,4.1-3.3,4.1c-1.2,0-2.1-0.7-2.1-1.7
					c0-0.9,0.7-1.6,1.6-2c1.3-0.5,2.7-2.1,2.5-4l0.5,0c0.3,0.7,0.4,1.3,0.6,1.9H18v-5.3l5.2,0.5c-0.1,0.4-0.4,0.7-1.4,0.9v4h8.6
					l2.1-2.1l3.7,3.5c-0.3,0.3-0.7,0.3-1.3,0.4c-1.2,1.3-3.4,3-5.1,3.9L29.4,53.2z M30.1,72.8l2-2.8l3.8,2.9
					c-0.3,0.4-0.7,0.6-1.7,0.6H4.2L4,72.8H18v-9.3H7.6l-0.2-0.7h19.8l2-2.8l3.8,2.8c-0.3,0.4-0.7,0.6-1.7,0.6h-9.4v9.3H30.1z
					 M18.8,49.8c-0.1,0.5-0.5,0.7-1.4,0.7c-1,4.6-4.1,8.7-12.4,10.6l-0.2-0.5c6.4-2.5,8.2-7,8.6-11.7L18.8,49.8z M22,48.7l4.8,0.3
					c-0.1,0.3-0.2,0.6-1.1,0.7v5.8c0,0.8,0,0.8,0.9,0.8h4.1c1.1,0,1.3-0.1,2.7-2.9h0.3l0,2.7c1.2,0.5,1.4,0.7,1.4,1.2
					c0,1.3-1.1,2-4.3,2h-4.4c-3.5,0-4.2-0.8-4.2-3.8V48.7z"/>
				
					<linearGradient id="SVGID_3_" gradientUnits="userSpaceOnUse" x1="-221.804" y1="-220.0627" x2="304.4273" y2="173.5327" gradientTransform="matrix(1 0 0 1 -8.6786 -8.1681)">
					<stop  offset="0" style="stop-color:#FAC859"/>
					<stop  offset="2.877487e-03" style="stop-color:#FACB64"/>
					<stop  offset="9.516122e-03" style="stop-color:#FBD176"/>
					<stop  offset="1.745736e-02" style="stop-color:#FCD582"/>
					<stop  offset="2.788930e-02" style="stop-color:#FCD78A"/>
					<stop  offset="5.042250e-02" style="stop-color:#FCD88C"/>
					<stop  offset="6.442444e-02" style="stop-color:#FCD681"/>
					<stop  offset="8.918270e-02" style="stop-color:#FBD163"/>
					<stop  offset="0.1216" style="stop-color:#FACA33"/>
					<stop  offset="0.1355" style="stop-color:#FAC61C"/>
					<stop  offset="0.1458" style="stop-color:#E6B417"/>
					<stop  offset="0.1638" style="stop-color:#C99B11"/>
					<stop  offset="0.184" style="stop-color:#B2860B"/>
					<stop  offset="0.207" style="stop-color:#9F7607"/>
					<stop  offset="0.2343" style="stop-color:#936A04"/>
					<stop  offset="0.2701" style="stop-color:#8B6402"/>
					<stop  offset="0.3475" style="stop-color:#896202"/>
					<stop  offset="0.6179" style="stop-color:#FAC859"/>
					<stop  offset="0.651" style="stop-color:#FACC64"/>
					<stop  offset="0.7093" style="stop-color:#FCD582"/>
					<stop  offset="0.7267" style="stop-color:#FCD88C"/>
					<stop  offset="0.7501" style="stop-color:#FCD481"/>
					<stop  offset="0.7914" style="stop-color:#FACB63"/>
					<stop  offset="0.8037" style="stop-color:#FAC859"/>
					<stop  offset="0.811" style="stop-color:#F2C153"/>
					<stop  offset="0.85" style="stop-color:#CC9F36"/>
					<stop  offset="0.8888" style="stop-color:#AF841F"/>
					<stop  offset="0.9271" style="stop-color:#9A710F"/>
					<stop  offset="0.9645" style="stop-color:#8D6605"/>
					<stop  offset="1" style="stop-color:#896202"/>
				</linearGradient>
				<path class="st1" d="M69.4,46.8c-0.3,0.4-0.7,0.6-1.7,0.6H47.2c-2.4,3.6-5.5,6.2-8.8,7.9L38,55c2.7-2.7,5.4-7.4,7-12.5l5.1,2.1
					c-0.2,0.4-0.5,0.6-1.4,0.6c-0.3,0.6-0.6,1.1-1,1.6h15.7l2.1-2.6L69.4,46.8z M56,63.7l1.8-2.2l3.4,2.3c-0.2,0.5-0.7,0.6-1.6,0.6
					H52v1.8c6,0.5,8,2.8,8,4.5c0,1.1-0.8,2-1.8,2c-0.4,0-0.9-0.1-1.3-0.5c-0.7-2-2.8-4.3-4.8-5.6v7.3c0,0.1-0.6,1-3.5,1v-7.4
					c-2.5,2.7-5.9,4.8-9.7,6.3l-0.3-0.6c3.4-2.2,6.2-5.6,7.9-8.9h-6.6l-0.2-0.7h8.9v-7.4l4.7,0.4c-0.1,0.4-0.3,0.7-1.2,0.8v6.2H56z
					 M70.1,66.7l-0.4,4.7c0.6,0.9,0.9,1.7,0.9,2.2c0,0.7-0.7,1.4-1.7,1.4c-1,0-2.1-0.6-2.9-1.3c-4.1-3.3-5.1-9.2-5.3-18.2H41.3
					l-0.2-0.7h19.2l1.5-2l4,2.9c-0.2,0.2-0.7,0.5-1.4,0.6c0,6,0.7,11.8,3.4,13.9c0.1,0.1,0.3,0.2,0.3,0.2c0.1,0,0.2-0.1,0.3-0.3
					c0.4-0.9,0.9-2.2,1.3-3.3L70.1,66.7z M42.4,57.1c3.5,1.2,4.7,2.8,4.7,4c0,1.1-0.9,2-1.9,2c-0.5,0-1.1-0.2-1.5-0.8
					c0-1.6-0.7-3.7-1.6-5L42.4,57.1z M45.5,50.7h15.6l2-2.5l3.7,2.6c-0.2,0.4-0.7,0.6-1.6,0.6H45.7L45.5,50.7z M59.7,58.9
					c-0.2,0.5-0.9,0.6-1.4,0.5c-1.5,1.4-3.3,2.9-4.8,3.9L53,62.9c0.7-1.4,1.7-3.7,2.4-5.9L59.7,58.9z"/>
				
					<linearGradient id="SVGID_4_" gradientUnits="userSpaceOnUse" x1="-221.804" y1="-220.0627" x2="304.4273" y2="173.5327" gradientTransform="matrix(1 0 0 1 -8.6786 -8.1681)">
					<stop  offset="0" style="stop-color:#FAC859"/>
					<stop  offset="2.877487e-03" style="stop-color:#FACB64"/>
					<stop  offset="9.516122e-03" style="stop-color:#FBD176"/>
					<stop  offset="1.745736e-02" style="stop-color:#FCD582"/>
					<stop  offset="2.788930e-02" style="stop-color:#FCD78A"/>
					<stop  offset="5.042250e-02" style="stop-color:#FCD88C"/>
					<stop  offset="6.442444e-02" style="stop-color:#FCD681"/>
					<stop  offset="8.918270e-02" style="stop-color:#FBD163"/>
					<stop  offset="0.1216" style="stop-color:#FACA33"/>
					<stop  offset="0.1355" style="stop-color:#FAC61C"/>
					<stop  offset="0.1458" style="stop-color:#E6B417"/>
					<stop  offset="0.1638" style="stop-color:#C99B11"/>
					<stop  offset="0.184" style="stop-color:#B2860B"/>
					<stop  offset="0.207" style="stop-color:#9F7607"/>
					<stop  offset="0.2343" style="stop-color:#936A04"/>
					<stop  offset="0.2701" style="stop-color:#8B6402"/>
					<stop  offset="0.3475" style="stop-color:#896202"/>
					<stop  offset="0.6179" style="stop-color:#FAC859"/>
					<stop  offset="0.651" style="stop-color:#FACC64"/>
					<stop  offset="0.7093" style="stop-color:#FCD582"/>
					<stop  offset="0.7267" style="stop-color:#FCD88C"/>
					<stop  offset="0.7501" style="stop-color:#FCD481"/>
					<stop  offset="0.7914" style="stop-color:#FACB63"/>
					<stop  offset="0.8037" style="stop-color:#FAC859"/>
					<stop  offset="0.811" style="stop-color:#F2C153"/>
					<stop  offset="0.85" style="stop-color:#CC9F36"/>
					<stop  offset="0.8888" style="stop-color:#AF841F"/>
					<stop  offset="0.9271" style="stop-color:#9A710F"/>
					<stop  offset="0.9645" style="stop-color:#8D6605"/>
					<stop  offset="1" style="stop-color:#896202"/>
				</linearGradient>
				<path class="st2" d="M72.7,51.7c4.3,0.6,5.6,2.2,5.6,3.5c0,1-0.9,1.9-1.9,1.9c-0.5,0-1-0.2-1.4-0.7c-0.2-1.6-1.3-3.5-2.5-4.5
					L72.7,51.7z M74.7,64.6c0.5,0,0.6,0,1-0.7c0.4-0.8,0.7-1.3,6.6-15.8l0.6,0.1c-1.3,4.4-3.6,12.6-4.1,14.5
					c-0.3,1.2-0.5,2.4-0.5,3.3c0,1.7,1.2,3,1.2,5.9c0,2.6-1.6,3.1-2.6,3.1c-0.8,0-1.5-0.6-1.7-1.8c0.2-1.4,0.3-2.8,0.3-4
					c0-3.4-0.7-3.7-2.5-3.9v-0.7C74.4,64.6,74.7,64.6,74.7,64.6L74.7,64.6z M74.1,42.9c4.7,0.4,6.3,2.2,6.3,3.7c0,1.1-0.9,2-1.9,2
					c-0.4,0-1-0.2-1.4-0.6c-0.4-1.7-1.8-3.7-3.1-4.8L74.1,42.9z M102.6,57.4l2.8,2.5c-0.3,0.4-0.7,0.6-1.6,0.6h-2.4V67
					c0,0.1-1,0.9-3.5,0.9V66h-3.8v4.5c0,2.4-0.7,4.1-5,4.4c0-2.8-1.3-3.2-4.2-3.5V71h5c0.5,0,0.6-0.1,0.6-0.5V66h-6.4l-0.2-0.7h6.6
					v-4.7H81l-0.2-0.7h9.7v-4.7h-5.6l-0.2-0.7h12.9l1.3-1.7l3.7,2.5c-0.2,0.2-0.6,0.4-1.1,0.6v3.5L102.6,57.4z M102.2,45.9
					c-0.2,0.2-0.4,0.2-0.8,0.2c-0.3,0-0.8-0.1-1.3-0.3c-3,0.7-7.6,1.2-11.9,1.3c-1.4,3.6-3.4,6.6-5.8,8.4L82,55.3
					c1.2-2.3,2.3-6.3,2.9-10.2l4.2,1.1c3.6-1,7.5-2.5,9.6-3.7L102.2,45.9z M91.1,47.9c3.1,1.2,4.2,2.7,4.2,3.9
					c0,1.1-0.9,1.9-1.9,1.9c-0.5,0-1.1-0.2-1.5-0.9c0-0.2,0-0.4,0-0.7c0-1.4-0.5-3-1.2-4L91.1,47.9z M94.1,55.2v4.7h3.8v-4.7H94.1z
					 M97.9,65.3v-4.7h-3.8v4.7H97.9z M97.6,47.3c5.3,0.8,7,3.1,7,4.9c0,1.2-0.8,2-1.7,2c-0.4,0-0.8-0.1-1.3-0.5
					c-0.4-2.2-2.3-4.7-4.3-6.1L97.6,47.3z"/>
				
					<linearGradient id="SVGID_5_" gradientUnits="userSpaceOnUse" x1="-221.804" y1="-220.0627" x2="304.4273" y2="173.5327" gradientTransform="matrix(1 0 0 1 -8.6786 -8.1681)">
					<stop  offset="0" style="stop-color:#FAC859"/>
					<stop  offset="2.877487e-03" style="stop-color:#FACB64"/>
					<stop  offset="9.516122e-03" style="stop-color:#FBD176"/>
					<stop  offset="1.745736e-02" style="stop-color:#FCD582"/>
					<stop  offset="2.788930e-02" style="stop-color:#FCD78A"/>
					<stop  offset="5.042250e-02" style="stop-color:#FCD88C"/>
					<stop  offset="6.442444e-02" style="stop-color:#FCD681"/>
					<stop  offset="8.918270e-02" style="stop-color:#FBD163"/>
					<stop  offset="0.1216" style="stop-color:#FACA33"/>
					<stop  offset="0.1355" style="stop-color:#FAC61C"/>
					<stop  offset="0.1458" style="stop-color:#E6B417"/>
					<stop  offset="0.1638" style="stop-color:#C99B11"/>
					<stop  offset="0.184" style="stop-color:#B2860B"/>
					<stop  offset="0.207" style="stop-color:#9F7607"/>
					<stop  offset="0.2343" style="stop-color:#936A04"/>
					<stop  offset="0.2701" style="stop-color:#8B6402"/>
					<stop  offset="0.3475" style="stop-color:#896202"/>
					<stop  offset="0.6179" style="stop-color:#FAC859"/>
					<stop  offset="0.651" style="stop-color:#FACC64"/>
					<stop  offset="0.7093" style="stop-color:#FCD582"/>
					<stop  offset="0.7267" style="stop-color:#FCD88C"/>
					<stop  offset="0.7501" style="stop-color:#FCD481"/>
					<stop  offset="0.7914" style="stop-color:#FACB63"/>
					<stop  offset="0.8037" style="stop-color:#FAC859"/>
					<stop  offset="0.811" style="stop-color:#F2C153"/>
					<stop  offset="0.85" style="stop-color:#CC9F36"/>
					<stop  offset="0.8888" style="stop-color:#AF841F"/>
					<stop  offset="0.9271" style="stop-color:#9A710F"/>
					<stop  offset="0.9645" style="stop-color:#8D6605"/>
					<stop  offset="1" style="stop-color:#896202"/>
				</linearGradient>
				<path class="st3" d="M111.7,56.7c-1.3,1.8-2.8,3.4-4.4,4.8l-0.4-0.3c2.8-4.2,5.7-11.6,7.3-18.6l5.2,1.6
					c-0.1,0.4-0.4,0.7-1.4,0.7c-0.9,2.4-2,4.7-3.1,6.8l1.4,0.6c-0.1,0.3-0.4,0.5-1.1,0.7v20.9c-0.1,0.3-1.5,1.1-2.9,1.1h-0.7V56.7z
					 M137.7,64.7l0,5.5c1.4,0.6,1.7,0.8,1.7,1.3c0,1.6-1.2,2.3-5.3,2.3h-6.9c-4.3,0-5.3-1-5.3-5.1V43l5,0.5
					c-0.1,0.5-0.3,0.8-1.4,0.9v12.6c3.5-2.4,7.2-5.7,9.1-8.1l4.3,3.1c-0.1,0.2-0.3,0.3-0.7,0.3c-0.2,0-0.4,0-0.6-0.1
					c-2.9,2-7.5,4.3-12.1,5.8v11c0,1.4,0.2,1.7,1.6,1.7h7c0.7,0,1.1-0.1,1.5-0.6c0.4-0.6,1.1-2.6,1.9-5.2H137.7z"/>
				
					<linearGradient id="SVGID_6_" gradientUnits="userSpaceOnUse" x1="-221.804" y1="-220.0627" x2="304.4273" y2="173.5327" gradientTransform="matrix(1 0 0 1 -8.6786 -8.1681)">
					<stop  offset="0" style="stop-color:#FAC859"/>
					<stop  offset="2.877487e-03" style="stop-color:#FACB64"/>
					<stop  offset="9.516122e-03" style="stop-color:#FBD176"/>
					<stop  offset="1.745736e-02" style="stop-color:#FCD582"/>
					<stop  offset="2.788930e-02" style="stop-color:#FCD78A"/>
					<stop  offset="5.042250e-02" style="stop-color:#FCD88C"/>
					<stop  offset="6.442444e-02" style="stop-color:#FCD681"/>
					<stop  offset="8.918270e-02" style="stop-color:#FBD163"/>
					<stop  offset="0.1216" style="stop-color:#FACA33"/>
					<stop  offset="0.1355" style="stop-color:#FAC61C"/>
					<stop  offset="0.1458" style="stop-color:#E6B417"/>
					<stop  offset="0.1638" style="stop-color:#C99B11"/>
					<stop  offset="0.184" style="stop-color:#B2860B"/>
					<stop  offset="0.207" style="stop-color:#9F7607"/>
					<stop  offset="0.2343" style="stop-color:#936A04"/>
					<stop  offset="0.2701" style="stop-color:#8B6402"/>
					<stop  offset="0.3475" style="stop-color:#896202"/>
					<stop  offset="0.6179" style="stop-color:#FAC859"/>
					<stop  offset="0.651" style="stop-color:#FACC64"/>
					<stop  offset="0.7093" style="stop-color:#FCD582"/>
					<stop  offset="0.7267" style="stop-color:#FCD88C"/>
					<stop  offset="0.7501" style="stop-color:#FCD481"/>
					<stop  offset="0.7914" style="stop-color:#FACB63"/>
					<stop  offset="0.8037" style="stop-color:#FAC859"/>
					<stop  offset="0.811" style="stop-color:#F2C153"/>
					<stop  offset="0.85" style="stop-color:#CC9F36"/>
					<stop  offset="0.8888" style="stop-color:#AF841F"/>
					<stop  offset="0.9271" style="stop-color:#9A710F"/>
					<stop  offset="0.9645" style="stop-color:#8D6605"/>
					<stop  offset="1" style="stop-color:#896202"/>
				</linearGradient>
				<path class="st4" d="M142.4,75.1c1.3-0.6,2.3-1.8,2.7-3.4c-0.2,0.1-0.5,0.1-0.7,0.1c-1.4,0-2.5-1.2-2.5-2.6
					c0-1.5,1.2-2.7,2.6-2.7c1.5,0,2.9,1.2,2.9,3.2c0,2.4-1.7,5.2-4.4,6.1L142.4,75.1z"/>
				
					<linearGradient id="SVGID_7_" gradientUnits="userSpaceOnUse" x1="-221.804" y1="-220.0627" x2="304.4273" y2="173.5327" gradientTransform="matrix(1 0 0 1 -8.6786 -8.1681)">
					<stop  offset="0" style="stop-color:#FAC859"/>
					<stop  offset="2.877487e-03" style="stop-color:#FACB64"/>
					<stop  offset="9.516122e-03" style="stop-color:#FBD176"/>
					<stop  offset="1.745736e-02" style="stop-color:#FCD582"/>
					<stop  offset="2.788930e-02" style="stop-color:#FCD78A"/>
					<stop  offset="5.042250e-02" style="stop-color:#FCD88C"/>
					<stop  offset="6.442444e-02" style="stop-color:#FCD681"/>
					<stop  offset="8.918270e-02" style="stop-color:#FBD163"/>
					<stop  offset="0.1216" style="stop-color:#FACA33"/>
					<stop  offset="0.1355" style="stop-color:#FAC61C"/>
					<stop  offset="0.1458" style="stop-color:#E6B417"/>
					<stop  offset="0.1638" style="stop-color:#C99B11"/>
					<stop  offset="0.184" style="stop-color:#B2860B"/>
					<stop  offset="0.207" style="stop-color:#9F7607"/>
					<stop  offset="0.2343" style="stop-color:#936A04"/>
					<stop  offset="0.2701" style="stop-color:#8B6402"/>
					<stop  offset="0.3475" style="stop-color:#896202"/>
					<stop  offset="0.6179" style="stop-color:#FAC859"/>
					<stop  offset="0.651" style="stop-color:#FACC64"/>
					<stop  offset="0.7093" style="stop-color:#FCD582"/>
					<stop  offset="0.7267" style="stop-color:#FCD88C"/>
					<stop  offset="0.7501" style="stop-color:#FCD481"/>
					<stop  offset="0.7914" style="stop-color:#FACB63"/>
					<stop  offset="0.8037" style="stop-color:#FAC859"/>
					<stop  offset="0.811" style="stop-color:#F2C153"/>
					<stop  offset="0.85" style="stop-color:#CC9F36"/>
					<stop  offset="0.8888" style="stop-color:#AF841F"/>
					<stop  offset="0.9271" style="stop-color:#9A710F"/>
					<stop  offset="0.9645" style="stop-color:#8D6605"/>
					<stop  offset="1" style="stop-color:#896202"/>
				</linearGradient>
				<path class="st5" d="M168.3,43.8c-0.1,0.4-0.4,0.7-1.3,0.7c-0.7,2.4-1.6,4.9-2.6,7.1l1.6,0.6c-0.1,0.3-0.4,0.6-1.1,0.7v21
					c0,0.2-1.5,1-2.8,1h-0.6V57.1c-0.9,1.5-1.9,2.8-2.9,4l-0.5-0.3c2-4.3,4.1-11.6,5.2-18.3L168.3,43.8z M188.1,56.5
					c0,0.2-1.6,0.9-2.7,0.9h-0.5v-1h-2.5v4h1.8l1.7-2.3l3.3,2.4c-0.2,0.5-0.7,0.6-1.6,0.6h-5.1v3.8h2.9l1.8-2.4l3.4,2.5
					c-0.2,0.4-0.7,0.6-1.6,0.6h-6.5V69c0,0.1-0.6,1.1-3.4,1.1v-4.6h-6.1l-0.1-0.3c-0.3,0.9-0.6,1.7-1,2.5c2.5,2.2,5.9,3.1,10.6,3.1
					c3,0,6.4,0,8.8,0v0.4c-1.2,0.3-1.8,1.6-1.9,3h-6.9c-5.7,0-9.4-1.3-11.8-4.4c-1.2,1.9-2.7,3.7-4.7,5.1l-0.3-0.5
					c1.7-1.9,2.9-4.1,3.8-6.5c-0.9-1.7-1.5-3.7-2-6.1l0.6-0.2c0.6,1.7,1.2,3.1,2,4.2c0.8-3,1.1-6.2,1.2-9.4h-1.2
					c-0.2,0.7-0.4,1.3-0.6,2c-0.4,0.2-0.8,0.2-1.3,0.2s-1-0.1-1.7-0.2c1.1-3.7,2.4-8.5,3.1-11.6h-2.5l-0.2-0.7h2.5l1.4-1.6l3.2,2.6
					c-0.2,0.3-0.8,0.5-1.5,0.6c-0.5,2-1.4,5.2-2.2,8.1h0.7l1.6-1.7l2.1,1.8h4.3v-4.1h-6l-0.2-0.7h6.2v-4h-3.9l-0.2-0.7h4.1v-3.8
					l4.8,0.4c-0.1,0.5-0.3,0.8-1.4,0.9v2.4h2.2l1.3-1.7l3.6,2.5c-0.2,0.3-0.7,0.6-1.3,0.7v2.5l1-1.6l2.6,2.3
					c-0.2,0.4-0.7,0.6-1.6,0.6h-2V56.5z M179,64.8V61h-5l-0.1-0.4c-0.2,1.4-0.6,2.9-1,4.2H179z M179,60.3v-4h-3.5l0.2,0.1
					c-0.2,0.3-0.6,0.4-1.3,0.6c-0.1,1.1-0.2,2.2-0.4,3.3H179z M182.4,47v4h2.5v-4H182.4z M182.4,55.7h2.5v-4.1h-2.5V55.7z"/>
				
					<linearGradient id="SVGID_8_" gradientUnits="userSpaceOnUse" x1="-221.804" y1="-220.0627" x2="304.4273" y2="173.5327" gradientTransform="matrix(1 0 0 1 -8.6786 -8.1681)">
					<stop  offset="0" style="stop-color:#FAC859"/>
					<stop  offset="2.877487e-03" style="stop-color:#FACB64"/>
					<stop  offset="9.516122e-03" style="stop-color:#FBD176"/>
					<stop  offset="1.745736e-02" style="stop-color:#FCD582"/>
					<stop  offset="2.788930e-02" style="stop-color:#FCD78A"/>
					<stop  offset="5.042250e-02" style="stop-color:#FCD88C"/>
					<stop  offset="6.442444e-02" style="stop-color:#FCD681"/>
					<stop  offset="8.918270e-02" style="stop-color:#FBD163"/>
					<stop  offset="0.1216" style="stop-color:#FACA33"/>
					<stop  offset="0.1355" style="stop-color:#FAC61C"/>
					<stop  offset="0.1458" style="stop-color:#E6B417"/>
					<stop  offset="0.1638" style="stop-color:#C99B11"/>
					<stop  offset="0.184" style="stop-color:#B2860B"/>
					<stop  offset="0.207" style="stop-color:#9F7607"/>
					<stop  offset="0.2343" style="stop-color:#936A04"/>
					<stop  offset="0.2701" style="stop-color:#8B6402"/>
					<stop  offset="0.3475" style="stop-color:#896202"/>
					<stop  offset="0.6179" style="stop-color:#FAC859"/>
					<stop  offset="0.651" style="stop-color:#FACC64"/>
					<stop  offset="0.7093" style="stop-color:#FCD582"/>
					<stop  offset="0.7267" style="stop-color:#FCD88C"/>
					<stop  offset="0.7501" style="stop-color:#FCD481"/>
					<stop  offset="0.7914" style="stop-color:#FACB63"/>
					<stop  offset="0.8037" style="stop-color:#FAC859"/>
					<stop  offset="0.811" style="stop-color:#F2C153"/>
					<stop  offset="0.85" style="stop-color:#CC9F36"/>
					<stop  offset="0.8888" style="stop-color:#AF841F"/>
					<stop  offset="0.9271" style="stop-color:#9A710F"/>
					<stop  offset="0.9645" style="stop-color:#8D6605"/>
					<stop  offset="1" style="stop-color:#896202"/>
				</linearGradient>
				<path class="st6" d="M221.1,57.1v4.6c0,0.1-0.3,0.3-0.7,0.5l3.4,2.3c-0.1,0.2-0.3,0.4-0.7,0.4c-0.1,0-0.3,0-0.6-0.1
					c-1.2,0.8-3.1,1.8-4.8,2.6c2.2,1.7,4.9,2.9,7.8,3.5l0,0.4c-1.3,0.3-2.3,1.4-2.6,3.1c-5.2-2.1-8.3-5.7-10.1-11.4v7.9
					c0,2.3-0.6,4-4.8,4.3c0-2.4-1-2.9-3.7-3.2v-0.4h4.2c0.5,0,0.6-0.2,0.6-0.6v-9.3h-7.2l-0.2-0.7h7.4v-3.7h-9.5
					c0,5.6-0.6,12.8-6.1,17.6l-0.4-0.3c2.8-5.3,2.9-12.1,2.9-18.1V46.2l4.2,1.5h8.1v-5.3l5.1,0.5c-0.1,0.5-0.4,0.7-1.5,0.9v3.9h7.9
					l2-2.8l3.7,2.8c-0.2,0.4-0.7,0.6-1.7,0.6h-12.2l2.5,0.2c0,0.5-0.2,0.7-1.4,0.9v2.6h4.6l1.3-1.8l3.7,2.6
					c-0.2,0.2-0.6,0.5-1.2,0.6v2.9h0.4l1.4-2.3l2.7,2.4c-0.3,0.4-0.7,0.6-1.6,0.6H221.1z M209.1,67.9c-1.8,1.2-4.4,3-8.1,5.3
					c-0.1,0.4-0.4,0.8-0.7,0.9l-2.4-3.7c2-0.4,6.5-1.6,11.1-2.9L209.1,67.9z M199.5,56.4h9.5v-3.7h-7l-0.2-0.7h7.3v-3.7h-9.5V56.4z
					 M201,62.3c4.2,0.6,5.6,2.2,5.6,3.5c0,1-0.8,1.8-1.7,1.8c-0.4,0-0.9-0.2-1.3-0.6c-0.3-1.5-1.5-3.5-2.8-4.5L201,62.3z
					 M217.6,52.8h-4.9v3.7h4.9V52.8z M212.7,57.1v3.7h4.9v-3.7H212.7z M217.6,61.5H213c0.9,2,2.2,3.8,3.9,5.2
					c1.1-1.3,2.4-3.1,3.1-4.3c-0.9,0.3-1.4,0.3-2.4,0.3V61.5z"/>
				
					<linearGradient id="SVGID_9_" gradientUnits="userSpaceOnUse" x1="-221.804" y1="-220.0627" x2="304.4273" y2="173.5327" gradientTransform="matrix(1 0 0 1 -8.6786 -8.1681)">
					<stop  offset="0" style="stop-color:#FAC859"/>
					<stop  offset="2.877487e-03" style="stop-color:#FACB64"/>
					<stop  offset="9.516122e-03" style="stop-color:#FBD176"/>
					<stop  offset="1.745736e-02" style="stop-color:#FCD582"/>
					<stop  offset="2.788930e-02" style="stop-color:#FCD78A"/>
					<stop  offset="5.042250e-02" style="stop-color:#FCD88C"/>
					<stop  offset="6.442444e-02" style="stop-color:#FCD681"/>
					<stop  offset="8.918270e-02" style="stop-color:#FBD163"/>
					<stop  offset="0.1216" style="stop-color:#FACA33"/>
					<stop  offset="0.1355" style="stop-color:#FAC61C"/>
					<stop  offset="0.1458" style="stop-color:#E6B417"/>
					<stop  offset="0.1638" style="stop-color:#C99B11"/>
					<stop  offset="0.184" style="stop-color:#B2860B"/>
					<stop  offset="0.207" style="stop-color:#9F7607"/>
					<stop  offset="0.2343" style="stop-color:#936A04"/>
					<stop  offset="0.2701" style="stop-color:#8B6402"/>
					<stop  offset="0.3475" style="stop-color:#896202"/>
					<stop  offset="0.6179" style="stop-color:#FAC859"/>
					<stop  offset="0.651" style="stop-color:#FACC64"/>
					<stop  offset="0.7093" style="stop-color:#FCD582"/>
					<stop  offset="0.7267" style="stop-color:#FCD88C"/>
					<stop  offset="0.7501" style="stop-color:#FCD481"/>
					<stop  offset="0.7914" style="stop-color:#FACB63"/>
					<stop  offset="0.8037" style="stop-color:#FAC859"/>
					<stop  offset="0.811" style="stop-color:#F2C153"/>
					<stop  offset="0.85" style="stop-color:#CC9F36"/>
					<stop  offset="0.8888" style="stop-color:#AF841F"/>
					<stop  offset="0.9271" style="stop-color:#9A710F"/>
					<stop  offset="0.9645" style="stop-color:#8D6605"/>
					<stop  offset="1" style="stop-color:#896202"/>
				</linearGradient>
				<path class="st7" d="M238.2,42.8l3.5,3.7c-0.3,0.3-0.7,0.4-1.5,0.4c-1.2,2-3.6,5.7-5.2,7.8c4.1,2.4,6.1,5,6.2,7.8v0.1
					c0,3.2-1.4,5.4-5.6,5.8c0-2.4-0.6-2.9-2.2-3.2v-0.5h2.5c0.4,0,0.6,0,0.8-0.2c0.5-0.3,0.8-1.1,0.8-2.3c0-2.5-0.9-5.1-3.2-7.5
					c0.6-2.2,1.6-6.5,2.2-9.2h-3.9v28.1c0,0.3-1.1,1.2-2.9,1.2H229V43.5L233,45h3.2L238.2,42.8z M260.1,49.5
					c-0.3,0.4-0.7,0.6-1.7,0.6h-8.3c-0.1,0.4-0.4,0.6-1.3,0.7c-0.1,2-0.1,4.1-0.3,6.2h5.1l1.5-1.9l3.8,2.9c-0.2,0.3-0.7,0.5-1.4,0.6
					c-0.3,9.1-0.9,13.7-2.5,15.1c-1.1,0.9-2.2,1.3-4.3,1.3c0-2.1-0.5-2.8-3.8-3.4v-0.5c1.3,0.1,3.5,0.1,4.3,0.1c0.6,0,0.9,0,1.1-0.3
					c0.9-0.9,1.4-5.4,1.7-13.1h-5.5c-0.7,6.2-2.9,12.4-10.5,17.2l-0.4-0.5c7.4-7.3,7.4-16.1,7.4-24.2h-5l-0.2-0.7h7.8v-6.9l5.1,0.4
					c-0.1,0.5-0.4,0.8-1.5,0.9v5.5h3.7l1.9-2.6L260.1,49.5z"/>
				
					<linearGradient id="SVGID_10_" gradientUnits="userSpaceOnUse" x1="-221.804" y1="-220.0627" x2="304.4273" y2="173.5327" gradientTransform="matrix(1 0 0 1 -8.6786 -8.1681)">
					<stop  offset="0" style="stop-color:#FAC859"/>
					<stop  offset="2.877487e-03" style="stop-color:#FACB64"/>
					<stop  offset="9.516122e-03" style="stop-color:#FBD176"/>
					<stop  offset="1.745736e-02" style="stop-color:#FCD582"/>
					<stop  offset="2.788930e-02" style="stop-color:#FCD78A"/>
					<stop  offset="5.042250e-02" style="stop-color:#FCD88C"/>
					<stop  offset="6.442444e-02" style="stop-color:#FCD681"/>
					<stop  offset="8.918270e-02" style="stop-color:#FBD163"/>
					<stop  offset="0.1216" style="stop-color:#FACA33"/>
					<stop  offset="0.1355" style="stop-color:#FAC61C"/>
					<stop  offset="0.1458" style="stop-color:#E6B417"/>
					<stop  offset="0.1638" style="stop-color:#C99B11"/>
					<stop  offset="0.184" style="stop-color:#B2860B"/>
					<stop  offset="0.207" style="stop-color:#9F7607"/>
					<stop  offset="0.2343" style="stop-color:#936A04"/>
					<stop  offset="0.2701" style="stop-color:#8B6402"/>
					<stop  offset="0.3475" style="stop-color:#896202"/>
					<stop  offset="0.6179" style="stop-color:#FAC859"/>
					<stop  offset="0.651" style="stop-color:#FACC64"/>
					<stop  offset="0.7093" style="stop-color:#FCD582"/>
					<stop  offset="0.7267" style="stop-color:#FCD88C"/>
					<stop  offset="0.7501" style="stop-color:#FCD481"/>
					<stop  offset="0.7914" style="stop-color:#FACB63"/>
					<stop  offset="0.8037" style="stop-color:#FAC859"/>
					<stop  offset="0.811" style="stop-color:#F2C153"/>
					<stop  offset="0.85" style="stop-color:#CC9F36"/>
					<stop  offset="0.8888" style="stop-color:#AF841F"/>
					<stop  offset="0.9271" style="stop-color:#9A710F"/>
					<stop  offset="0.9645" style="stop-color:#8D6605"/>
					<stop  offset="1" style="stop-color:#896202"/>
				</linearGradient>
				<path class="st8" d="M271.3,48.5v8.1c0,6-0.6,13.5-7.7,18.4l-0.3-0.3c2.8-3.7,3.9-8.1,4.2-12.6c-0.9,1-2,2.2-3.3,3.6
					c-0.1,0.5-0.4,0.9-0.8,1l-1.7-4.3c1-0.3,3.4-1,5.9-1.9c0-1.3,0.1-2.5,0.1-3.8V46.3l4.2,1.5h5.6v-5.3l5.4,0.5
					c0,0.5-0.4,0.8-1.4,0.9v3.9h7.4l2-2.6l3.7,2.7c-0.2,0.4-0.7,0.6-1.6,0.6H271.3z M262.5,49.5c3.6,1.4,4.8,3.3,4.8,4.7
					c0,1.3-1,2.2-2,2.2c-0.6,0-1.1-0.3-1.6-0.9c0.2-1.9-0.5-4.4-1.5-5.9L262.5,49.5z M288.2,60.5l3.2,2.9c-0.2,0.3-0.6,0.4-1.4,0.5
					c-1.3,2.2-2.9,4-5,5.5c2.8,0.9,6,1.3,9.4,1.6l0,0.4c-1.5,0.4-2.5,1.7-2.9,3.5c-3.8-0.8-7-1.8-9.7-3.5c-3.4,1.7-7.5,2.8-12.3,3.5
					l-0.1-0.5c4.1-1,7.7-2.5,10.5-4.4c-2-1.7-3.6-4-4.7-7h-1.9l-0.2-0.7h12.9l2-1.8c-3.2,0-3.4-0.7-3.4-3.8v-4.6h-6v2.4
					c0,2.5-0.8,5.9-7.1,7.8l-0.2-0.4c3.4-2.1,3.8-4.8,3.8-7.4v-4.6l4.1,1.5h5.1l1.5-1.9l3.6,2.7c-0.2,0.2-0.6,0.4-1.1,0.5v4.2
					c0,0.5,0,0.5,0.5,0.5h2.4c0.3,0,0.5,0,0.7-0.2c0.3-0.4,0.8-1.8,1.1-2.7h0.3l0.1,2.8c0.9,0.4,1.1,0.6,1.1,1.2
					c0,1.3-0.9,2.1-3.4,2.1H288.2z M275.9,63c1.4,2.4,3.5,4.1,6.1,5.3c1.7-1.5,3-3.3,4-5.3H275.9z"/>
				
					<linearGradient id="SVGID_11_" gradientUnits="userSpaceOnUse" x1="-221.804" y1="-220.0627" x2="304.4273" y2="173.5327" gradientTransform="matrix(1 0 0 1 -8.6786 -8.1681)">
					<stop  offset="0" style="stop-color:#FAC859"/>
					<stop  offset="2.877487e-03" style="stop-color:#FACB64"/>
					<stop  offset="9.516122e-03" style="stop-color:#FBD176"/>
					<stop  offset="1.745736e-02" style="stop-color:#FCD582"/>
					<stop  offset="2.788930e-02" style="stop-color:#FCD78A"/>
					<stop  offset="5.042250e-02" style="stop-color:#FCD88C"/>
					<stop  offset="6.442444e-02" style="stop-color:#FCD681"/>
					<stop  offset="8.918270e-02" style="stop-color:#FBD163"/>
					<stop  offset="0.1216" style="stop-color:#FACA33"/>
					<stop  offset="0.1355" style="stop-color:#FAC61C"/>
					<stop  offset="0.1458" style="stop-color:#E6B417"/>
					<stop  offset="0.1638" style="stop-color:#C99B11"/>
					<stop  offset="0.184" style="stop-color:#B2860B"/>
					<stop  offset="0.207" style="stop-color:#9F7607"/>
					<stop  offset="0.2343" style="stop-color:#936A04"/>
					<stop  offset="0.2701" style="stop-color:#8B6402"/>
					<stop  offset="0.3475" style="stop-color:#896202"/>
					<stop  offset="0.6179" style="stop-color:#FAC859"/>
					<stop  offset="0.651" style="stop-color:#FACC64"/>
					<stop  offset="0.7093" style="stop-color:#FCD582"/>
					<stop  offset="0.7267" style="stop-color:#FCD88C"/>
					<stop  offset="0.7501" style="stop-color:#FCD481"/>
					<stop  offset="0.7914" style="stop-color:#FACB63"/>
					<stop  offset="0.8037" style="stop-color:#FAC859"/>
					<stop  offset="0.811" style="stop-color:#F2C153"/>
					<stop  offset="0.85" style="stop-color:#CC9F36"/>
					<stop  offset="0.8888" style="stop-color:#AF841F"/>
					<stop  offset="0.9271" style="stop-color:#9A710F"/>
					<stop  offset="0.9645" style="stop-color:#8D6605"/>
					<stop  offset="1" style="stop-color:#896202"/>
				</linearGradient>
				<path class="st9" d="M305.9,69.8c0,1.4-1.2,2.6-2.6,2.6c-1.4,0-2.6-1.2-2.6-2.6c0-1.4,1.2-2.6,2.6-2.6
					C304.8,67.1,305.9,68.4,305.9,69.8z M302.7,65c-0.3-2.7-1.9-16.5-1.9-17.2c0-1.2,0.7-2.2,2.5-2.2c1.8,0,2.5,1,2.5,2.2
					c0,0.6-1.6,14.4-1.9,17.2H302.7z"/>
			</g>
		</g>
	</g>
	<g>
		<path class="st10" d="M9.1,8.6c0,1.6,0,2.9,0.1,3.5c0,0.5,0.1,0.8,0.6,0.9c0.2,0,0.6,0.1,0.7,0.1c0.1,0,0.1,0,0.1,0.1
			c0,0.1-0.1,0.1-0.3,0.1c-0.9,0-1.9,0-2,0s-1.1,0-1.6,0c-0.2,0-0.3,0-0.3-0.1c0,0,0-0.1,0.1-0.1c0.1,0,0.3,0,0.5-0.1
			c0.3-0.1,0.4-0.4,0.5-0.9c0.1-0.7,0.1-2,0.1-3.5V1.6l-2.4,0c-1,0-1.4,0.1-1.7,0.5C3.4,2.5,3.4,2.6,3.3,2.7c0,0.1-0.1,0.2-0.2,0.2
			c0,0-0.1,0-0.1-0.1c0-0.2,0.3-1.6,0.4-1.7c0-0.1,0.1-0.3,0.2-0.3c0.1,0,0.3,0.2,0.7,0.2C4.8,0.9,5.4,1,5.6,1h6.1
			c0.5,0,0.9,0,1.2-0.1c0.2,0,0.4-0.1,0.5-0.1c0.1,0,0.1,0.1,0.1,0.2c0,0.5,0,1.6,0,1.8c0,0.1,0,0.2-0.1,0.2c-0.1,0-0.1,0-0.1-0.3
			l0-0.2c0-0.5-0.4-0.9-2-0.9l-2.1,0V8.6z"/>
		<path class="st10" d="M31.5,9.3c0,1.3,0,2.4,0.1,3c0,0.4,0.1,0.7,0.5,0.7c0.2,0,0.5,0.1,0.6,0.1c0.1,0,0.1,0.1,0.1,0.1
			c0,0.1-0.1,0.1-0.2,0.1c-0.8,0-1.7,0-1.8,0c-0.1,0-1,0-1.4,0c-0.2,0-0.2,0-0.2-0.1c0,0,0-0.1,0.1-0.1c0.1,0,0.3,0,0.4-0.1
			c0.3-0.1,0.3-0.3,0.4-0.8c0.1-0.6,0.1-1.6,0.1-3V7.9c0-0.1,0-0.1-0.1-0.1h-6c0,0-0.1,0-0.1,0.1v1.4c0,1.3,0,2.4,0.1,3
			c0,0.4,0.1,0.7,0.5,0.7c0.2,0,0.5,0.1,0.7,0.1c0.1,0,0.1,0.1,0.1,0.1c0,0.1-0.1,0.1-0.2,0.1c-0.8,0-1.7,0-1.8,0c-0.1,0-1,0-1.4,0
			c-0.1,0-0.2,0-0.2-0.1c0,0,0-0.1,0.1-0.1c0.1,0,0.3,0,0.4-0.1c0.3-0.1,0.3-0.3,0.4-0.7c0.1-0.6,0.1-1.7,0.1-3V6.8c0-2.2,0-2.6,0-3
			c0-0.5-0.1-0.7-0.6-0.8c-0.1,0-0.4,0-0.5,0c0,0-0.1-0.1-0.1-0.1c0-0.1,0.1-0.1,0.2-0.1c0.7,0,1.6,0,1.7,0c0.1,0,1,0,1.4,0
			c0.2,0,0.2,0,0.2,0.1C25,2.9,25,3,24.9,3c-0.1,0-0.2,0-0.4,0c-0.4,0.1-0.5,0.3-0.5,0.8c0,0.4,0,0.9,0,3v0.3c0,0.1,0,0.1,0.1,0.1h6
			c0,0,0.1,0,0.1-0.1V6.8c0-2.2,0-2.6,0-3c0-0.5-0.1-0.7-0.6-0.8c-0.1,0-0.4,0-0.5,0C29,3,29,2.9,29,2.9c0-0.1,0.1-0.1,0.2-0.1
			c0.6,0,1.6,0,1.6,0c0.1,0,1,0,1.4,0c0.2,0,0.2,0,0.2,0.1c0,0-0.1,0.1-0.1,0.1c-0.1,0-0.2,0-0.4,0c-0.4,0.1-0.5,0.3-0.5,0.8
			c0,0.4,0,0.8,0,3V9.3z"/>
		<path class="st10" d="M42.8,6.8c0-2.2,0-2.6,0-3c0-0.5-0.1-0.7-0.6-0.8c-0.1,0-0.4,0-0.5,0c0,0-0.1-0.1-0.1-0.1
			c0-0.1,0.1-0.1,0.2-0.1c0.7,0,1.6,0,1.7,0c0.1,0,3.1,0,3.4,0c0.3,0,0.5-0.1,0.7-0.1c0.1,0,0.1-0.1,0.2-0.1c0,0,0.1,0.1,0.1,0.1
			c0,0.1-0.1,0.3-0.1,0.7c0,0.1,0,0.8-0.1,0.9c0,0.1-0.1,0.1-0.1,0.1c-0.1,0-0.1-0.1-0.1-0.2c0-0.1,0-0.3-0.1-0.5
			c-0.1-0.2-0.2-0.3-1-0.4c-0.2,0-1.9,0-2.1,0c-0.1,0-0.1,0-0.1,0.1v3.8c0,0.1,0,0.1,0.1,0.1c0.2,0,2.1,0,2.4,0c0.3,0,0.6,0,0.7-0.2
			C47.4,7.1,47.5,7,47.5,7s0.1,0,0.1,0.1c0,0.1-0.1,0.3-0.1,0.8c0,0.3-0.1,0.8-0.1,0.9c0,0.1,0,0.3-0.1,0.3c-0.1,0-0.1,0-0.1-0.1
			c0-0.1,0-0.3-0.1-0.5c0-0.2-0.2-0.4-0.7-0.4C46,8,44.5,8,44.2,8c-0.1,0-0.1,0-0.1,0.1v1.2c0,0.5,0,2.1,0,2.4
			c0,0.9,0.3,1.1,1.7,1.1c0.4,0,1.1,0,1.4-0.1c0.4-0.2,0.6-0.4,0.7-1c0-0.2,0.1-0.2,0.1-0.2c0.1,0,0.1,0.1,0.1,0.2
			c0,0.1-0.1,1-0.2,1.3c-0.1,0.4-0.2,0.4-0.8,0.4c-1.1,0-1.9,0-2.5,0c-0.6,0-1,0-1.2,0c0,0-0.3,0-0.6,0c-0.3,0-0.6,0-0.8,0
			c-0.1,0-0.2,0-0.2-0.1c0,0,0-0.1,0.1-0.1c0.1,0,0.3,0,0.4-0.1c0.3,0,0.3-0.3,0.4-0.7c0.1-0.6,0.1-1.7,0.1-3V6.8z"/>
		<path class="st10" d="M70.6,5.7c0-2.6,0-3,0-3.5c0-0.6-0.2-0.8-0.7-0.9c-0.1,0-0.4,0-0.6,0c-0.1,0-0.1,0-0.1-0.1
			c0-0.1,0.1-0.1,0.3-0.1c0.4,0,0.8,0,1.2,0l0.7,0c0.1,0,3.4,0,3.7,0c0.3,0,0.6,0,0.7-0.1c0.1,0,0.1-0.1,0.2-0.1
			c0,0,0.1,0.1,0.1,0.1c0,0.1-0.1,0.3-0.1,0.8c0,0.2,0,0.9-0.1,1.1c0,0.1,0,0.2-0.1,0.2c-0.1,0-0.1-0.1-0.1-0.2c0-0.1,0-0.4-0.1-0.6
			c-0.1-0.3-0.3-0.5-1.2-0.6c-0.3,0-2.1,0-2.2,0c-0.1,0-0.1,0-0.1,0.2v4.5c0,0.1,0,0.2,0.1,0.2c0.2,0,2.2,0,2.6,0
			c0.4,0,0.6-0.1,0.8-0.2c0.1-0.1,0.2-0.2,0.2-0.2c0,0,0.1,0,0.1,0.1c0,0.1-0.1,0.4-0.1,0.9c0,0.3-0.1,0.9-0.1,1
			c0,0.1,0,0.3-0.1,0.3c-0.1,0-0.1-0.1-0.1-0.1c0-0.2,0-0.3-0.1-0.5c-0.1-0.2-0.2-0.5-0.9-0.6C74,7,72.4,7,72.1,7C72,7,72,7,72,7.1
			v1.4c0,0.6,0,2.5,0,2.8c0,1.1,0.3,1.3,1.9,1.3c0.4,0,1.1,0,1.6-0.2c0.4-0.2,0.6-0.5,0.7-1.2c0-0.2,0.1-0.2,0.1-0.2
			c0.1,0,0.1,0.1,0.1,0.2c0,0.1-0.1,1.2-0.2,1.6c-0.1,0.4-0.2,0.4-0.9,0.4c-1.2,0-2.1,0-2.8,0c-0.6,0-1,0-1.3,0c0,0-0.3,0-0.7,0
			c-0.3,0-0.7,0-0.9,0c-0.2,0-0.3,0-0.3-0.1c0,0,0-0.1,0.1-0.1c0.1,0,0.3,0,0.5-0.1c0.3-0.1,0.4-0.4,0.5-0.9c0.1-0.7,0.1-2,0.1-3.5
			V5.7z"/>
		<path class="st10" d="M88.1,9.3c0,2,0,2.9,0.3,3.1c0.2,0.2,0.8,0.3,1.9,0.3c0.8,0,1.4,0,1.7-0.4c0.2-0.2,0.3-0.5,0.3-0.8
			c0-0.1,0.1-0.2,0.1-0.2c0.1,0,0.1,0.1,0.1,0.2c0,0.1-0.1,1-0.2,1.4c-0.1,0.3-0.1,0.4-0.9,0.4c-1,0-1.8,0-2.5,0c-0.7,0-1.1,0-1.6,0
			c-0.1,0-0.3,0-0.6,0c-0.3,0-0.6,0-0.8,0c-0.1,0-0.2,0-0.2-0.1c0,0,0-0.1,0.1-0.1c0.1,0,0.3,0,0.4-0.1c0.3-0.1,0.3-0.3,0.4-0.7
			c0.1-0.6,0.1-1.7,0.1-3V6.8c0-2.2,0-2.6,0-3c0-0.5-0.1-0.7-0.6-0.8c-0.1,0-0.4,0-0.5,0c0,0-0.1-0.1-0.1-0.1c0-0.1,0.1-0.1,0.2-0.1
			c0.7,0,1.6,0,1.6,0c0.1,0,1.1,0,1.6,0c0.1,0,0.2,0,0.2,0.1c0,0-0.1,0.1-0.1,0.1c-0.1,0-0.3,0-0.5,0c-0.4,0.1-0.5,0.3-0.5,0.8
			c0,0.4,0,0.8,0,3V9.3z"/>
		<path class="st10" d="M103.3,9.3c0,1.3,0,2.4,0.1,3c0,0.4,0.1,0.7,0.5,0.7c0.2,0,0.5,0.1,0.7,0.1c0.1,0,0.1,0.1,0.1,0.1
			c0,0.1-0.1,0.1-0.2,0.1c-0.8,0-1.7,0-1.8,0c-0.1,0-1,0-1.4,0c-0.1,0-0.2,0-0.2-0.1c0,0,0-0.1,0.1-0.1c0.1,0,0.3,0,0.4-0.1
			c0.3-0.1,0.3-0.3,0.4-0.7c0.1-0.6,0.1-1.7,0.1-3V6.8c0-2.2,0-2.6,0-3c0-0.5-0.1-0.7-0.5-0.8c-0.2,0-0.3,0-0.4,0
			C101,3,101,2.9,101,2.9c0-0.1,0.1-0.1,0.2-0.1c0.5,0,1.4,0,1.5,0c0.1,0,1,0,1.4,0c0.2,0,0.2,0,0.2,0.1c0,0-0.1,0.1-0.1,0.1
			c-0.1,0-0.2,0-0.4,0c-0.4,0.1-0.5,0.3-0.5,0.8c0,0.4,0,0.8,0,3V9.3z"/>
		<path class="st10" d="M118.1,9.3c0,1.3,0,2.4,0.1,3c0,0.4,0.1,0.7,0.6,0.7c0.2,0,0.5,0.1,0.7,0.1c0.1,0,0.1,0.1,0.1,0.1
			c0,0.1-0.1,0.1-0.2,0.1c-0.8,0-1.7,0-1.8,0c-0.1,0-1.1,0-1.5,0c-0.2,0-0.2,0-0.2-0.1c0,0,0-0.1,0.1-0.1c0.1,0,0.3,0,0.4-0.1
			c0.3-0.1,0.4-0.3,0.4-0.8c0.1-0.6,0.1-1.7,0.1-3V3.4l-2.1,0c-0.9,0-1.2,0.1-1.5,0.4c-0.2,0.2-0.2,0.3-0.2,0.4
			c0,0.1-0.1,0.1-0.1,0.1c0,0-0.1,0-0.1-0.1c0-0.1,0.3-1.4,0.3-1.5c0-0.1,0.1-0.3,0.1-0.3c0.1,0,0.2,0.1,0.6,0.2
			c0.4,0,1,0.1,1.1,0.1h5.4c0.5,0,0.8,0,1-0.1c0.2,0,0.3-0.1,0.4-0.1s0.1,0.1,0.1,0.2c0,0.4,0,1.4,0,1.6c0,0.1-0.1,0.2-0.1,0.2
			s-0.1,0-0.1-0.2l0-0.1c0-0.4-0.4-0.7-1.7-0.8l-1.8,0V9.3z"/>
		<path class="st10" d="M131.5,6.8c0-2.2,0-2.6,0-3c0-0.5-0.1-0.7-0.6-0.8c-0.1,0-0.4,0-0.5,0c0,0-0.1-0.1-0.1-0.1
			c0-0.1,0.1-0.1,0.2-0.1c0.7,0,1.6,0,1.7,0c0.1,0,3.1,0,3.4,0c0.3,0,0.5-0.1,0.7-0.1c0.1,0,0.1-0.1,0.2-0.1c0,0,0.1,0.1,0.1,0.1
			c0,0.1-0.1,0.3-0.1,0.7c0,0.1,0,0.8-0.1,0.9c0,0.1-0.1,0.1-0.1,0.1c-0.1,0-0.1-0.1-0.1-0.2c0-0.1,0-0.3-0.1-0.5
			c-0.1-0.2-0.2-0.3-1-0.4c-0.2,0-1.9,0-2.1,0c-0.1,0-0.1,0-0.1,0.1v3.8c0,0.1,0,0.1,0.1,0.1c0.2,0,2.1,0,2.4,0c0.3,0,0.6,0,0.7-0.2
			c0.1-0.1,0.2-0.2,0.2-0.2s0.1,0,0.1,0.1c0,0.1-0.1,0.3-0.1,0.8c0,0.3-0.1,0.8-0.1,0.9c0,0.1,0,0.3-0.1,0.3c-0.1,0-0.1,0-0.1-0.1
			c0-0.1,0-0.3-0.1-0.5c0-0.2-0.2-0.4-0.7-0.4c-0.4,0-1.9-0.1-2.2-0.1c-0.1,0-0.1,0-0.1,0.1v1.2c0,0.5,0,2.1,0,2.4
			c0,0.9,0.3,1.1,1.7,1.1c0.4,0,1.1,0,1.4-0.1c0.4-0.2,0.6-0.4,0.7-1c0-0.2,0.1-0.2,0.1-0.2c0.1,0,0.1,0.1,0.1,0.2
			c0,0.1-0.1,1-0.2,1.3c-0.1,0.4-0.2,0.4-0.8,0.4c-1.1,0-1.9,0-2.5,0c-0.6,0-1,0-1.2,0c0,0-0.3,0-0.6,0c-0.3,0-0.6,0-0.8,0
			c-0.1,0-0.2,0-0.2-0.1c0,0,0-0.1,0.1-0.1c0.1,0,0.3,0,0.4-0.1c0.3,0,0.3-0.3,0.4-0.7c0.1-0.6,0.1-1.7,0.1-3V6.8z"/>
		<path class="st10" d="M162.7,8.6c0,1.6,0,2.9,0.1,3.5c0,0.5,0.1,0.8,0.6,0.9c0.2,0,0.6,0.1,0.7,0.1c0.1,0,0.1,0,0.1,0.1
			c0,0.1-0.1,0.1-0.3,0.1c-0.9,0-1.9,0-2,0s-1.1,0-1.6,0c-0.2,0-0.3,0-0.3-0.1c0,0,0-0.1,0.1-0.1c0.1,0,0.3,0,0.5-0.1
			c0.3-0.1,0.4-0.4,0.5-0.9c0.1-0.7,0.1-2,0.1-3.5V1.6l-2.4,0c-1,0-1.4,0.1-1.7,0.5c-0.2,0.3-0.2,0.4-0.3,0.5c0,0.1-0.1,0.2-0.2,0.2
			c0,0-0.1,0-0.1-0.1c0-0.2,0.3-1.6,0.4-1.7c0-0.1,0.1-0.3,0.2-0.3c0.1,0,0.3,0.2,0.7,0.2c0.5,0,1.1,0.1,1.3,0.1h6.1
			c0.5,0,0.9,0,1.2-0.1c0.2,0,0.4-0.1,0.5-0.1c0.1,0,0.1,0.1,0.1,0.2c0,0.5,0,1.6,0,1.8c0,0.1,0,0.2-0.1,0.2c-0.1,0-0.1,0-0.1-0.3
			l0-0.2c0-0.5-0.4-0.9-2-0.9l-2.1,0V8.6z"/>
		<path class="st10" d="M176.4,6.8c0-2.2,0-2.6,0-3c0-0.5-0.1-0.7-0.6-0.8c-0.1,0-0.4,0-0.5,0c0,0-0.1-0.1-0.1-0.1
			c0-0.1,0.1-0.1,0.2-0.1c0.7,0,1.6,0,1.7,0c0.1,0,3.1,0,3.4,0c0.3,0,0.5-0.1,0.7-0.1c0.1,0,0.1-0.1,0.2-0.1c0,0,0.1,0.1,0.1,0.1
			c0,0.1-0.1,0.3-0.1,0.7c0,0.1,0,0.8-0.1,0.9c0,0.1-0.1,0.1-0.1,0.1c-0.1,0-0.1-0.1-0.1-0.2c0-0.1,0-0.3-0.1-0.5
			c-0.1-0.2-0.2-0.3-1-0.4c-0.2,0-1.9,0-2.1,0c-0.1,0-0.1,0-0.1,0.1v3.8c0,0.1,0,0.1,0.1,0.1c0.2,0,2.1,0,2.4,0c0.3,0,0.6,0,0.7-0.2
			c0.1-0.1,0.2-0.2,0.2-0.2s0.1,0,0.1,0.1c0,0.1-0.1,0.3-0.1,0.8c0,0.3-0.1,0.8-0.1,0.9c0,0.1,0,0.3-0.1,0.3c-0.1,0-0.1,0-0.1-0.1
			c0-0.1,0-0.3-0.1-0.5c0-0.2-0.2-0.4-0.7-0.4c-0.4,0-1.9-0.1-2.2-0.1c-0.1,0-0.1,0-0.1,0.1v1.2c0,0.5,0,2.1,0,2.4
			c0,0.9,0.3,1.1,1.7,1.1c0.4,0,1.1,0,1.4-0.1c0.4-0.2,0.6-0.4,0.7-1c0-0.2,0.1-0.2,0.1-0.2c0.1,0,0.1,0.1,0.1,0.2
			c0,0.1-0.1,1-0.2,1.3c-0.1,0.4-0.2,0.4-0.8,0.4c-1.1,0-1.9,0-2.5,0c-0.6,0-1,0-1.2,0c0,0-0.3,0-0.6,0c-0.3,0-0.6,0-0.8,0
			c-0.1,0-0.2,0-0.2-0.1c0,0,0-0.1,0.1-0.1c0.1,0,0.3,0,0.4-0.1c0.3,0,0.3-0.3,0.4-0.7c0.1-0.6,0.1-1.7,0.1-3V6.8z"/>
		<path class="st10" d="M194.2,3.1c0.2-0.5,0.2-0.5,0.3-0.5c0.1,0,0.2,0.2,0.3,0.5c0.3,0.6,2.6,6.3,3.5,8.4c0.5,1.2,0.9,1.4,1.2,1.5
			c0.2,0.1,0.4,0.1,0.6,0.1c0.1,0,0.2,0,0.2,0.1s-0.2,0.1-0.3,0.1c-0.2,0-1.3,0-2.3,0c-0.3,0-0.5,0-0.5-0.1c0-0.1,0-0.1,0.1-0.1
			c0.1,0,0.2-0.1,0.1-0.4l-1.3-3.2c0-0.1,0-0.1-0.1-0.1h-3.3c-0.1,0-0.1,0-0.1,0.1l-0.8,2.2c-0.1,0.3-0.2,0.7-0.2,0.9
			c0,0.3,0.2,0.4,0.5,0.4h0.1c0.1,0,0.1,0,0.1,0.1c0,0.1-0.1,0.1-0.2,0.1c-0.3,0-1.1,0-1.3,0c-0.1,0-0.9,0-1.5,0
			c-0.2,0-0.3,0-0.3-0.1c0-0.1,0.1-0.1,0.1-0.1c0.1,0,0.3,0,0.4,0c0.7-0.1,0.9-0.6,1.2-1.3L194.2,3.1z M195.8,8.8
			C195.8,8.8,195.8,8.8,195.8,8.8l-1.4-3.9c-0.1-0.2-0.2-0.2-0.2,0l-1.3,3.8c0,0.1,0,0.1,0,0.1H195.8z"/>
		<path class="st10" d="M219.9,11.5c0,0.5,0.1,1.2,0.7,1.4c0.4,0.1,0.8,0.1,0.9,0.1c0.1,0,0.1,0,0.1,0.1c0,0.1-0.1,0.1-0.3,0.1
			c-0.3,0-1.9,0-2.5-0.1c-0.3,0-0.4-0.1-0.4-0.1c0,0,0-0.1,0.1-0.1c0.1,0,0.1-0.2,0.1-0.5l-0.7-7h0l-3.5,7.1
			c-0.3,0.6-0.4,0.7-0.5,0.7s-0.2-0.1-0.5-0.6c-0.4-0.7-1.3-2.5-1.7-3.2c-0.4-0.9-1.6-3.2-1.8-3.8h-0.1l-0.6,6.3c0,0.2,0,0.5,0,0.7
			c0,0.2,0.1,0.3,0.3,0.4c0.2,0.1,0.5,0.1,0.6,0.1c0,0,0.1,0,0.1,0.1c0,0.1-0.1,0.1-0.3,0.1c-0.5,0-1.2,0-1.3,0c-0.1,0-0.8,0-1.2,0
			c-0.1,0-0.2,0-0.2-0.1c0,0,0.1-0.1,0.1-0.1c0.1,0,0.2,0,0.4,0c0.5-0.1,0.5-0.6,0.6-1.1l1-9.1c0-0.1,0.1-0.2,0.2-0.2
			c0.1,0,0.2,0,0.3,0.2l4.4,8.6l4.2-8.6c0.1-0.1,0.1-0.2,0.2-0.2c0.1,0,0.2,0.1,0.2,0.4L219.9,11.5z"/>
	</g>
</g>
</svg>
