<?xml version="1.0" encoding="utf-8"?>
<!-- Generator: Adobe Illustrator 25.2.3, SVG Export Plug-In . SVG Version: 6.00 Build 0)  -->
<svg version="1.1" id="section3_title.svg" xmlns="http://www.w3.org/2000/svg" xmlns:xlink="http://www.w3.org/1999/xlink" x="0px"
	 y="0px" viewBox="0 0 326 80" style="enable-background:new 0 0 326 80;" xml:space="preserve">
<style type="text/css">
	.繪圖樣式{fill:url(#SVGID_1_);}
	.st0{fill:url(#SVGID_2_);}
	.st1{fill:url(#SVGID_3_);}
	.st2{fill:url(#SVGID_4_);}
	.st3{fill:url(#SVGID_5_);}
	.st4{fill:url(#SVGID_6_);}
	.st5{fill:url(#SVGID_7_);}
	.st6{fill:url(#SVGID_8_);}
	.st7{fill:url(#SVGID_9_);}
	.st8{fill:url(#SVGID_10_);}
	.st9{fill:url(#SVGID_11_);}
	.st10{fill:#FFFFFF;}
</style>
<linearGradient id="SVGID_1_" gradientUnits="userSpaceOnUse" x1="0" y1="80" x2="0.8008" y2="80.599">
	<stop  offset="0" style="stop-color:#FAC859"/>
	<stop  offset="2.877487e-03" style="stop-color:#FACB64"/>
	<stop  offset="9.516122e-03" style="stop-color:#FBD176"/>
	<stop  offset="1.745736e-02" style="stop-color:#FCD582"/>
	<stop  offset="2.788930e-02" style="stop-color:#FCD78A"/>
	<stop  offset="5.042250e-02" style="stop-color:#FCD88C"/>
	<stop  offset="6.442444e-02" style="stop-color:#FCD681"/>
	<stop  offset="8.918270e-02" style="stop-color:#FBD163"/>
	<stop  offset="0.1216" style="stop-color:#FACA33"/>
	<stop  offset="0.1355" style="stop-color:#FAC61C"/>
	<stop  offset="0.1458" style="stop-color:#E6B417"/>
	<stop  offset="0.1638" style="stop-color:#C99B11"/>
	<stop  offset="0.184" style="stop-color:#B2860B"/>
	<stop  offset="0.207" style="stop-color:#9F7607"/>
	<stop  offset="0.2343" style="stop-color:#936A04"/>
	<stop  offset="0.2701" style="stop-color:#8B6402"/>
	<stop  offset="0.3475" style="stop-color:#896202"/>
	<stop  offset="0.6179" style="stop-color:#FAC859"/>
	<stop  offset="0.651" style="stop-color:#FACC64"/>
	<stop  offset="0.7093" style="stop-color:#FCD582"/>
	<stop  offset="0.7267" style="stop-color:#FCD88C"/>
	<stop  offset="0.7501" style="stop-color:#FCD481"/>
	<stop  offset="0.7914" style="stop-color:#FACB63"/>
	<stop  offset="0.8037" style="stop-color:#FAC859"/>
	<stop  offset="0.811" style="stop-color:#F2C153"/>
	<stop  offset="0.85" style="stop-color:#CC9F36"/>
	<stop  offset="0.8888" style="stop-color:#AF841F"/>
	<stop  offset="0.9271" style="stop-color:#9A710F"/>
	<stop  offset="0.9645" style="stop-color:#8D6605"/>
	<stop  offset="1" style="stop-color:#896202"/>
</linearGradient>
<g>
	<g>
		
			<image style="overflow:visible;opacity:0.4;" width="329" height="42" xlink:href="39A36E10D59169EA.png"  transform="matrix(1 0 0 1 -0.4223 38.9156)">
		</image>
		<g>
			<g>
				
					<linearGradient id="SVGID_2_" gradientUnits="userSpaceOnUse" x1="-249.9905" y1="-245.5941" x2="309.9162" y2="173.1889" gradientTransform="matrix(1 0 0 1 1.8296 -2.8325)">
					<stop  offset="0" style="stop-color:#FAC859"/>
					<stop  offset="2.877487e-03" style="stop-color:#FACB64"/>
					<stop  offset="9.516122e-03" style="stop-color:#FBD176"/>
					<stop  offset="1.745736e-02" style="stop-color:#FCD582"/>
					<stop  offset="2.788930e-02" style="stop-color:#FCD78A"/>
					<stop  offset="5.042250e-02" style="stop-color:#FCD88C"/>
					<stop  offset="6.442444e-02" style="stop-color:#FCD681"/>
					<stop  offset="8.918270e-02" style="stop-color:#FBD163"/>
					<stop  offset="0.1216" style="stop-color:#FACA33"/>
					<stop  offset="0.1355" style="stop-color:#FAC61C"/>
					<stop  offset="0.1458" style="stop-color:#E6B417"/>
					<stop  offset="0.1638" style="stop-color:#C99B11"/>
					<stop  offset="0.184" style="stop-color:#B2860B"/>
					<stop  offset="0.207" style="stop-color:#9F7607"/>
					<stop  offset="0.2343" style="stop-color:#936A04"/>
					<stop  offset="0.2701" style="stop-color:#8B6402"/>
					<stop  offset="0.3475" style="stop-color:#896202"/>
					<stop  offset="0.6179" style="stop-color:#FAC859"/>
					<stop  offset="0.651" style="stop-color:#FACC64"/>
					<stop  offset="0.7093" style="stop-color:#FCD582"/>
					<stop  offset="0.7267" style="stop-color:#FCD88C"/>
					<stop  offset="0.7501" style="stop-color:#FCD481"/>
					<stop  offset="0.7914" style="stop-color:#FACB63"/>
					<stop  offset="0.8037" style="stop-color:#FAC859"/>
					<stop  offset="0.811" style="stop-color:#F2C153"/>
					<stop  offset="0.85" style="stop-color:#CC9F36"/>
					<stop  offset="0.8888" style="stop-color:#AF841F"/>
					<stop  offset="0.9271" style="stop-color:#9A710F"/>
					<stop  offset="0.9645" style="stop-color:#8D6605"/>
					<stop  offset="1" style="stop-color:#896202"/>
				</linearGradient>
				<path class="st0" d="M32.2,61.2l3.3,2.4c-0.2,0.4-0.7,0.6-1.6,0.6h-4.8v5.7c0,2.3-0.5,4-4.5,4.3c0-2.4-0.8-3-3.5-3.2v-0.5h4.1
					c0.5,0,0.6-0.2,0.6-0.6v-5.7H12.2L12,63.6h13.7v-3.1l3.8,0.2v-1H18.2v0.6c0,0.1-0.6,1.2-3.3,1.2v-9.1c-0.2,0.1-0.6,0.1-1.1,0.1
					h-3.7v20.3c0,0.4-1.5,1.3-2.9,1.3H6.5V52.6H3l-0.2-0.7h3.8v-10l5,0.5c-0.1,0.5-0.3,0.7-1.4,0.9v8.7h0.6l1.6-2.5l2.5,2.2V49
					l3.6,1.5h3.5v-3.3h-8.7l-0.2-0.7h8.9v-4.6l4.9,0.4c-0.1,0.5-0.4,0.7-1.4,0.9v3.3h4.8l0.8-1c-0.4,0.1-0.9,0-1.3-0.4
					c-0.3-1.1-1.2-2.2-2.3-2.8l0.1-0.3c0.5-0.1,1-0.1,1.4-0.1c2.6,0,3.5,1,3.5,1.9c0,0.2,0,0.4-0.1,0.6l3,2.1
					c-0.3,0.5-0.7,0.6-1.6,0.6h-8.3v3.3h3.8l1.3-1.7l3.6,2.5c-0.2,0.2-0.6,0.5-1.1,0.6v8c0,0.2-1.4,0.9-2.6,1
					c-0.1,0.4-0.3,0.6-1.3,0.7v2h1.3L32.2,61.2z M15.6,64.8c4.1,0.7,5.4,2.3,5.4,3.7c0,1.1-0.9,2-2,2c-0.5,0-1-0.2-1.5-0.7
					c0-1.7-1-3.7-2.2-4.8L15.6,64.8z M21.9,51.2h-3.8v3.5h3.8V51.2z M18.2,55.4v3.7h3.8v-3.7H18.2z M29.6,51.2h-4.1v3.5h4.1V51.2z
					 M25.5,59.1h4.1v-3.7h-4.1V59.1z"/>
				
					<linearGradient id="SVGID_3_" gradientUnits="userSpaceOnUse" x1="-249.9905" y1="-245.5941" x2="309.9162" y2="173.1889" gradientTransform="matrix(1 0 0 1 1.8296 -2.8325)">
					<stop  offset="0" style="stop-color:#FAC859"/>
					<stop  offset="2.877487e-03" style="stop-color:#FACB64"/>
					<stop  offset="9.516122e-03" style="stop-color:#FBD176"/>
					<stop  offset="1.745736e-02" style="stop-color:#FCD582"/>
					<stop  offset="2.788930e-02" style="stop-color:#FCD78A"/>
					<stop  offset="5.042250e-02" style="stop-color:#FCD88C"/>
					<stop  offset="6.442444e-02" style="stop-color:#FCD681"/>
					<stop  offset="8.918270e-02" style="stop-color:#FBD163"/>
					<stop  offset="0.1216" style="stop-color:#FACA33"/>
					<stop  offset="0.1355" style="stop-color:#FAC61C"/>
					<stop  offset="0.1458" style="stop-color:#E6B417"/>
					<stop  offset="0.1638" style="stop-color:#C99B11"/>
					<stop  offset="0.184" style="stop-color:#B2860B"/>
					<stop  offset="0.207" style="stop-color:#9F7607"/>
					<stop  offset="0.2343" style="stop-color:#936A04"/>
					<stop  offset="0.2701" style="stop-color:#8B6402"/>
					<stop  offset="0.3475" style="stop-color:#896202"/>
					<stop  offset="0.6179" style="stop-color:#FAC859"/>
					<stop  offset="0.651" style="stop-color:#FACC64"/>
					<stop  offset="0.7093" style="stop-color:#FCD582"/>
					<stop  offset="0.7267" style="stop-color:#FCD88C"/>
					<stop  offset="0.7501" style="stop-color:#FCD481"/>
					<stop  offset="0.7914" style="stop-color:#FACB63"/>
					<stop  offset="0.8037" style="stop-color:#FAC859"/>
					<stop  offset="0.811" style="stop-color:#F2C153"/>
					<stop  offset="0.85" style="stop-color:#CC9F36"/>
					<stop  offset="0.8888" style="stop-color:#AF841F"/>
					<stop  offset="0.9271" style="stop-color:#9A710F"/>
					<stop  offset="0.9645" style="stop-color:#8D6605"/>
					<stop  offset="1" style="stop-color:#896202"/>
				</linearGradient>
				<path class="st1" d="M46.5,58.8c1.7-0.2,3.6-0.5,5.4-0.8l0.1,0.4c-1.4,0.7-3.2,1.5-5.5,2.4V73c0,0.1-0.5,1.2-3.4,1.2V62.3
					l-3.3,1.3c-0.2,0.4-0.6,0.7-1,0.8L37.2,60c1.2-0.1,3.4-0.3,5.9-0.7v-8.2h-2.7c-0.7,2.2-1.5,4.3-2.5,5.9l-0.6-0.2
					c0.7-3.1,1.1-8.4,1.1-13l4.5,0.7c-0.1,0.4-0.3,0.7-1.2,0.8c-0.3,1.8-0.7,3.5-1.1,5.2h2.5v-8.5l4.8,0.4c-0.1,0.5-0.3,0.8-1.4,0.9
					v7.2h0.4l1.8-2.8l3.2,2.9c-0.3,0.4-0.8,0.6-1.7,0.6h-3.7V58.8z M66.1,47.5l3.8,3c-0.3,0.3-0.7,0.6-1.5,0.7
					c-0.3,13.4-0.8,19.7-2.7,21.4c-1.2,1.1-2.3,1.5-4.6,1.6c0-2.1-0.3-2.9-3.8-3.6l0-0.5c1.3,0.1,3.4,0.1,4.3,0.1
					c0.6,0,0.8-0.1,1.2-0.4c1.2-1.2,1.7-7.8,2-19.5h-0.4c-1.6,9-5.2,17.6-12.7,23.2L51.4,73c5.4-5.8,8.3-14.3,9.4-22.7h-1.2
					c-1.6,6.3-4.9,12.5-10.2,16.6l-0.2-0.5c3.6-4.2,6-10.4,7-16.2H55c-1.4,3.1-3.3,5.6-5.5,7.4l-0.4-0.3c2.1-3.4,3.9-9.5,4.5-15.5
					l5.1,1.1c-0.1,0.4-0.4,0.7-1.3,0.8c-0.6,2.1-1.2,4-2.1,5.8h9.2L66.1,47.5z"/>
				
					<linearGradient id="SVGID_4_" gradientUnits="userSpaceOnUse" x1="-249.9905" y1="-245.5941" x2="309.9162" y2="173.1889" gradientTransform="matrix(1 0 0 1 1.8296 -2.8325)">
					<stop  offset="0" style="stop-color:#FAC859"/>
					<stop  offset="2.877487e-03" style="stop-color:#FACB64"/>
					<stop  offset="9.516122e-03" style="stop-color:#FBD176"/>
					<stop  offset="1.745736e-02" style="stop-color:#FCD582"/>
					<stop  offset="2.788930e-02" style="stop-color:#FCD78A"/>
					<stop  offset="5.042250e-02" style="stop-color:#FCD88C"/>
					<stop  offset="6.442444e-02" style="stop-color:#FCD681"/>
					<stop  offset="8.918270e-02" style="stop-color:#FBD163"/>
					<stop  offset="0.1216" style="stop-color:#FACA33"/>
					<stop  offset="0.1355" style="stop-color:#FAC61C"/>
					<stop  offset="0.1458" style="stop-color:#E6B417"/>
					<stop  offset="0.1638" style="stop-color:#C99B11"/>
					<stop  offset="0.184" style="stop-color:#B2860B"/>
					<stop  offset="0.207" style="stop-color:#9F7607"/>
					<stop  offset="0.2343" style="stop-color:#936A04"/>
					<stop  offset="0.2701" style="stop-color:#8B6402"/>
					<stop  offset="0.3475" style="stop-color:#896202"/>
					<stop  offset="0.6179" style="stop-color:#FAC859"/>
					<stop  offset="0.651" style="stop-color:#FACC64"/>
					<stop  offset="0.7093" style="stop-color:#FCD582"/>
					<stop  offset="0.7267" style="stop-color:#FCD88C"/>
					<stop  offset="0.7501" style="stop-color:#FCD481"/>
					<stop  offset="0.7914" style="stop-color:#FACB63"/>
					<stop  offset="0.8037" style="stop-color:#FAC859"/>
					<stop  offset="0.811" style="stop-color:#F2C153"/>
					<stop  offset="0.85" style="stop-color:#CC9F36"/>
					<stop  offset="0.8888" style="stop-color:#AF841F"/>
					<stop  offset="0.9271" style="stop-color:#9A710F"/>
					<stop  offset="0.9645" style="stop-color:#8D6605"/>
					<stop  offset="1" style="stop-color:#896202"/>
				</linearGradient>
				<path class="st2" d="M85,63c-0.1,0.1-1.5,0.6-2.7,0.6h-0.7v-1.7h-4.5v6.3c1.2-0.2,2.5-0.4,3.9-0.7c-0.5-1.2-1.2-2.3-2-3.2
					l0.3-0.2c4.6,1.7,6.2,4,6.2,5.8c0,1.3-0.9,2.3-2,2.3c-0.5,0-1.1-0.2-1.6-0.8c0-0.9-0.3-1.9-0.6-2.9c-1.7,1.1-4.1,2.4-7.1,4
					c-0.2,0.4-0.5,0.8-0.9,0.9L71.7,69c0.5-0.1,1.2-0.2,2.1-0.3V52.4c-0.6,0.6-1.3,1.1-1.9,1.7l-0.3-0.2c2.2-3.1,4-8.3,4.7-11.9
					l5.3,0.4c-0.1,0.4-0.4,0.7-1.3,0.8c4.7,1.1,6.2,3,6.2,4.4c0,1.2-1,2.1-2,2.1c-0.5,0-1-0.2-1.4-0.7c-0.2-1.6-1.2-3.8-2.9-5.4
					c-1.1,2.4-2.9,5.2-5,7.5l2.1,0.9h0.5v-3.9l4.2,0.4c0,0.3-0.3,0.6-1,0.7V52h0.9l1.2-1.6l3.1,2.6c-0.2,0.2-0.7,0.5-1.2,0.6V63z
					 M81.6,52.7h-4.5v3.9h4.5V52.7z M77.1,61.2h4.5v-3.9h-4.5V61.2z M98.4,63.2l1.3-1.7l3.7,2.5c-0.2,0.2-0.7,0.5-1.3,0.6v8.1
					c0,0.1-0.9,1-3.4,1v-2.5h-7.4v1.7c0,0.1-0.4,1.3-3.3,1.3V51.7c-0.6,0.2-0.8,0.2-1.1,0.2c-1.1,0-1.7-0.6-1.7-1.4
					c0-0.8,0.7-1.4,1.4-1.8c1-0.5,1.9-1.8,1.9-3.3H89c0.2,0.6,0.4,1.1,0.5,1.7h3.4v-5.2l4.9,0.4c0,0.4-0.3,0.7-1.3,0.8v3.9h2.8
					l1.8-1.9l3.2,3.1c-0.3,0.3-0.6,0.3-1.3,0.4c-0.8,0.7-2,1.8-3.1,2.5l2.5,1.8c-0.2,0.2-0.7,0.5-1.3,0.6v6.5c0,0.1-1,0.9-3.4,0.9
					v-1.7h-6.4v3.9H98.4z M99.1,50.7c0.1-0.9,0.3-2,0.5-2.9h-10c0.1,1.4-0.2,2.5-0.8,3.2l2.7,1.2h5.9l1.3-1.7L99.1,50.7z M91.4,58.6
					h6.4v-5.7h-6.4V58.6z M91.4,70.5h7.4v-6.6h-7.4V70.5z"/>
				
					<linearGradient id="SVGID_5_" gradientUnits="userSpaceOnUse" x1="-249.9905" y1="-245.5941" x2="309.9162" y2="173.1889" gradientTransform="matrix(1 0 0 1 1.8296 -2.8325)">
					<stop  offset="0" style="stop-color:#FAC859"/>
					<stop  offset="2.877487e-03" style="stop-color:#FACB64"/>
					<stop  offset="9.516122e-03" style="stop-color:#FBD176"/>
					<stop  offset="1.745736e-02" style="stop-color:#FCD582"/>
					<stop  offset="2.788930e-02" style="stop-color:#FCD78A"/>
					<stop  offset="5.042250e-02" style="stop-color:#FCD88C"/>
					<stop  offset="6.442444e-02" style="stop-color:#FCD681"/>
					<stop  offset="8.918270e-02" style="stop-color:#FBD163"/>
					<stop  offset="0.1216" style="stop-color:#FACA33"/>
					<stop  offset="0.1355" style="stop-color:#FAC61C"/>
					<stop  offset="0.1458" style="stop-color:#E6B417"/>
					<stop  offset="0.1638" style="stop-color:#C99B11"/>
					<stop  offset="0.184" style="stop-color:#B2860B"/>
					<stop  offset="0.207" style="stop-color:#9F7607"/>
					<stop  offset="0.2343" style="stop-color:#936A04"/>
					<stop  offset="0.2701" style="stop-color:#8B6402"/>
					<stop  offset="0.3475" style="stop-color:#896202"/>
					<stop  offset="0.6179" style="stop-color:#FAC859"/>
					<stop  offset="0.651" style="stop-color:#FACC64"/>
					<stop  offset="0.7093" style="stop-color:#FCD582"/>
					<stop  offset="0.7267" style="stop-color:#FCD88C"/>
					<stop  offset="0.7501" style="stop-color:#FCD481"/>
					<stop  offset="0.7914" style="stop-color:#FACB63"/>
					<stop  offset="0.8037" style="stop-color:#FAC859"/>
					<stop  offset="0.811" style="stop-color:#F2C153"/>
					<stop  offset="0.85" style="stop-color:#CC9F36"/>
					<stop  offset="0.8888" style="stop-color:#AF841F"/>
					<stop  offset="0.9271" style="stop-color:#9A710F"/>
					<stop  offset="0.9645" style="stop-color:#8D6605"/>
					<stop  offset="1" style="stop-color:#896202"/>
				</linearGradient>
				<path class="st3" d="M138.6,58.4c-0.2,0.4-0.7,0.6-1.6,0.6h-4.5c-0.1,0.3-0.3,0.5-1.3,0.6v3.4h1.5l1.9-2.4l3.5,2.5
					c-0.3,0.4-0.7,0.6-1.7,0.6h-5.2v5.8c0,2.5-0.6,4.2-5.2,4.7c0-2.8-1.5-3.2-4.5-3.5v-0.5h5.3c0.6,0,0.7-0.2,0.7-0.7v-5.8h-20.4
					l-0.2-0.7h20.6V59h-21.3l-0.2-0.7h14.4v-4.5h-10.4l-0.2-0.7h10.6v-2.5c-0.7,0.4-1.3,0.7-2,1l-0.3-0.3c1.3-1.2,2.6-2.9,3.8-4.9h0
					c-0.3,0.3-0.7,0.4-1.5,0.4h-6.1c2.1,0.9,2.8,2.1,2.8,3c0,1-0.9,1.8-1.9,1.8c-0.6,0-1.1-0.3-1.5-0.9c0.1-1.2-0.3-2.9-0.9-4h-1
					c-1.5,2.3-3.3,4.1-5.2,5.3l-0.4-0.3c1.6-2.2,3.1-6.1,4-10l4.6,1.5c-0.1,0.4-0.4,0.6-1.3,0.6c-0.4,0.8-0.8,1.5-1.2,2.2h5l1.7-2.3
					l3.1,2.4c0.8-1.4,1.5-2.9,2-4.4l4.6,2.2c-0.2,0.3-0.6,0.6-1.4,0.4c-0.4,0.6-0.8,1.2-1.3,1.7h7l1.9-2.4l3.5,2.5
					c-0.2,0.4-0.7,0.6-1.6,0.6h-7.3c2.1,0.8,2.8,1.9,2.8,2.8c0,0.4-0.1,0.9-0.4,1.2l3.3,2.4c-0.2,0.4-0.7,0.6-1.6,0.6h-9.5v4.5h9.3
					l1.8-2.4L138.6,58.4z M112.7,64.7c5.4,0.6,7.1,2.7,7.1,4.4c0,1.2-0.8,2.1-1.9,2.1c-0.4,0-0.9-0.2-1.3-0.6
					c-0.6-2-2.3-4.4-4.1-5.7L112.7,64.7z M125.4,46.8c-1,1.1-2.1,2.1-3.3,2.9l3.1,0.3c0,0.4-0.3,0.6-1.1,0.7v2.4h5.8l1.3-1.7
					c-0.2,0.1-0.4,0.1-0.7,0.1c-0.5,0-1-0.2-1.4-0.7c-0.1-1.4-0.9-3-1.8-4.1H125.4z"/>
				
					<linearGradient id="SVGID_6_" gradientUnits="userSpaceOnUse" x1="-249.9905" y1="-245.5941" x2="309.9162" y2="173.1889" gradientTransform="matrix(1 0 0 1 1.8296 -2.8325)">
					<stop  offset="0" style="stop-color:#FAC859"/>
					<stop  offset="2.877487e-03" style="stop-color:#FACB64"/>
					<stop  offset="9.516122e-03" style="stop-color:#FBD176"/>
					<stop  offset="1.745736e-02" style="stop-color:#FCD582"/>
					<stop  offset="2.788930e-02" style="stop-color:#FCD78A"/>
					<stop  offset="5.042250e-02" style="stop-color:#FCD88C"/>
					<stop  offset="6.442444e-02" style="stop-color:#FCD681"/>
					<stop  offset="8.918270e-02" style="stop-color:#FBD163"/>
					<stop  offset="0.1216" style="stop-color:#FACA33"/>
					<stop  offset="0.1355" style="stop-color:#FAC61C"/>
					<stop  offset="0.1458" style="stop-color:#E6B417"/>
					<stop  offset="0.1638" style="stop-color:#C99B11"/>
					<stop  offset="0.184" style="stop-color:#B2860B"/>
					<stop  offset="0.207" style="stop-color:#9F7607"/>
					<stop  offset="0.2343" style="stop-color:#936A04"/>
					<stop  offset="0.2701" style="stop-color:#8B6402"/>
					<stop  offset="0.3475" style="stop-color:#896202"/>
					<stop  offset="0.6179" style="stop-color:#FAC859"/>
					<stop  offset="0.651" style="stop-color:#FACC64"/>
					<stop  offset="0.7093" style="stop-color:#FCD582"/>
					<stop  offset="0.7267" style="stop-color:#FCD88C"/>
					<stop  offset="0.7501" style="stop-color:#FCD481"/>
					<stop  offset="0.7914" style="stop-color:#FACB63"/>
					<stop  offset="0.8037" style="stop-color:#FAC859"/>
					<stop  offset="0.811" style="stop-color:#F2C153"/>
					<stop  offset="0.85" style="stop-color:#CC9F36"/>
					<stop  offset="0.8888" style="stop-color:#AF841F"/>
					<stop  offset="0.9271" style="stop-color:#9A710F"/>
					<stop  offset="0.9645" style="stop-color:#8D6605"/>
					<stop  offset="1" style="stop-color:#896202"/>
				</linearGradient>
				<path class="st4" d="M149.6,54.2c3.6,1.4,4.7,3.2,4.7,4.6c0,1.2-0.9,2-1.8,2c-0.5,0-1-0.2-1.4-0.8c0-0.7-0.1-1.5-0.3-2.3
					l-1.5,0.4v15.1c0,0.2-1.1,1-2.8,1h-0.6v-11c-0.2,0.1-0.4,0.1-0.8,0.1c-0.9,3.3-2.3,6.3-4.1,8.1l-0.6-0.3
					c0.9-2.2,1.5-5.9,1.8-9.4l3.7,0.8v-3.5c-1,0.3-2,0.6-3.2,0.8c-0.2,0.4-0.6,0.7-0.9,0.8l-1.2-3.6c0.9,0,2.2,0,3.8,0
					c1.9-3.4,3.9-7.8,5.1-11l4.5,1.9c-0.1,0.3-0.4,0.4-0.9,0.4c-0.1,0-0.3,0-0.5-0.1c-1.7,2.5-4.4,5.9-7,8.7c1.5,0,3.2-0.1,5-0.1
					c-0.3-0.9-0.8-1.8-1.2-2.4L149.6,54.2z M140.8,47.7c1.1,0.2,2.1,0.6,2.8,0.9c0.6-1.9,1.3-4.4,1.9-6.7l4.6,1.6
					c-0.1,0.4-0.5,0.6-1.3,0.6c-1.3,1.8-2.8,3.7-4.3,5.1c1,0.7,1.4,1.6,1.4,2.3c0,1-0.8,1.8-1.7,1.8c-0.4,0-0.9-0.2-1.3-0.6
					c-0.2-1.6-1.3-3.5-2.5-4.7L140.8,47.7z M169.9,51.9l3.3,2.9c-0.3,0.4-0.6,0.4-1.4,0.5c-1.1,4-2.7,7.7-5.3,10.9
					c1.9,2.1,4.1,3.7,6.8,5l-0.1,0.3c-1.6,0.1-3,1-3.8,2.7c-2.1-1.5-3.9-3.3-5.3-5.4c-2.2,2.1-5,3.9-8.4,5.3l-0.3-0.5
					c3.1-1.8,5.6-4.1,7.6-6.8c-1.7-3.1-2.7-7-3.3-11.7h0c-0.6,7.1-2.4,13.7-7.9,18.8l-0.5-0.5c1.1-1.7,2-3.4,2.7-5.2h0
					c-0.3,0.4-0.8,0.7-1.3,0.7c-0.5,0-1-0.2-1.4-0.8c0.1-1.9-0.5-4.5-1.4-6.1l0.4-0.2c3.2,1.7,4.2,3.7,4.1,5.1h0
					c2.1-6.5,2.1-13.4,2.1-22.1h-2.9l-0.2-0.7h11.2l1.5-1.8l3.6,2.8c-0.2,0.3-0.8,0.6-1.5,0.6c-0.4,2-1.1,5.3-1.8,8.1h1.7
					L169.9,51.9z M165.8,55.7c-0.4,0.2-1,0.3-1.7,0.3c-0.5,0-1.1-0.1-1.8-0.2c0.9-3.5,1.9-8,2.4-11H160c0,1.7,0,3.4-0.1,5
					c0.8,6,2.3,10.6,4.8,14.2c1.7-3,2.8-6.2,3.5-9.6h-2.1L165.8,55.7z"/>
				
					<linearGradient id="SVGID_7_" gradientUnits="userSpaceOnUse" x1="-249.9905" y1="-245.5941" x2="309.9162" y2="173.1889" gradientTransform="matrix(1 0 0 1 1.8296 -2.8325)">
					<stop  offset="0" style="stop-color:#FAC859"/>
					<stop  offset="2.877487e-03" style="stop-color:#FACB64"/>
					<stop  offset="9.516122e-03" style="stop-color:#FBD176"/>
					<stop  offset="1.745736e-02" style="stop-color:#FCD582"/>
					<stop  offset="2.788930e-02" style="stop-color:#FCD78A"/>
					<stop  offset="5.042250e-02" style="stop-color:#FCD88C"/>
					<stop  offset="6.442444e-02" style="stop-color:#FCD681"/>
					<stop  offset="8.918270e-02" style="stop-color:#FBD163"/>
					<stop  offset="0.1216" style="stop-color:#FACA33"/>
					<stop  offset="0.1355" style="stop-color:#FAC61C"/>
					<stop  offset="0.1458" style="stop-color:#E6B417"/>
					<stop  offset="0.1638" style="stop-color:#C99B11"/>
					<stop  offset="0.184" style="stop-color:#B2860B"/>
					<stop  offset="0.207" style="stop-color:#9F7607"/>
					<stop  offset="0.2343" style="stop-color:#936A04"/>
					<stop  offset="0.2701" style="stop-color:#8B6402"/>
					<stop  offset="0.3475" style="stop-color:#896202"/>
					<stop  offset="0.6179" style="stop-color:#FAC859"/>
					<stop  offset="0.651" style="stop-color:#FACC64"/>
					<stop  offset="0.7093" style="stop-color:#FCD582"/>
					<stop  offset="0.7267" style="stop-color:#FCD88C"/>
					<stop  offset="0.7501" style="stop-color:#FCD481"/>
					<stop  offset="0.7914" style="stop-color:#FACB63"/>
					<stop  offset="0.8037" style="stop-color:#FAC859"/>
					<stop  offset="0.811" style="stop-color:#F2C153"/>
					<stop  offset="0.85" style="stop-color:#CC9F36"/>
					<stop  offset="0.8888" style="stop-color:#AF841F"/>
					<stop  offset="0.9271" style="stop-color:#9A710F"/>
					<stop  offset="0.9645" style="stop-color:#8D6605"/>
					<stop  offset="1" style="stop-color:#896202"/>
				</linearGradient>
				<path class="st5" d="M186.5,46.6l3.8,2.8c-0.2,0.3-0.8,0.6-1.4,0.7V69c0,0-1,1-3.4,1v-2.8H180V70c0,0.1-0.4,1.3-3.3,1.3V47
					l3.5,1.5h0.1c0.3-1.7,0.8-4.4,1.1-6.4l5.3,0.9c-0.1,0.6-0.5,0.8-1.4,0.8c-0.9,1.3-2.3,3.3-3.3,4.6h3L186.5,46.6z M185.4,49.2
					H180v8h5.4V49.2z M180,66.6h5.4v-8.7H180V66.6z M203.7,46.5l3.8,3.1c-0.3,0.3-0.7,0.5-1.5,0.6c-0.2,13.7-0.7,20.6-2.6,22.4
					c-1.2,1.2-2.4,1.7-4.9,1.7c0.1-2.2-0.4-3.1-4.3-3.7l0-0.5c1.6,0.1,4,0.1,5,0.1c0.7,0,0.9-0.1,1.3-0.4c1.3-1.2,1.7-8.5,1.9-20.5
					h-7.1c-1.5,3.6-3.5,6.8-5.8,9.1l-0.5-0.3c1.9-3.7,3.6-10.2,4.4-16.2l5.1,1.2c-0.1,0.4-0.4,0.7-1.3,0.7c-0.5,1.7-1.1,3.2-1.7,4.7
					h6.4L203.7,46.5z M193.1,55.8c4.9,1.6,6.4,3.9,6.4,5.7c0,1.3-1,2.3-2,2.3c-0.6,0-1.1-0.2-1.6-0.8c-0.1-2.3-1.4-5.2-3-7
					L193.1,55.8z"/>
				
					<linearGradient id="SVGID_8_" gradientUnits="userSpaceOnUse" x1="-249.9905" y1="-245.5941" x2="309.9162" y2="173.1889" gradientTransform="matrix(1 0 0 1 1.8296 -2.8325)">
					<stop  offset="0" style="stop-color:#FAC859"/>
					<stop  offset="2.877487e-03" style="stop-color:#FACB64"/>
					<stop  offset="9.516122e-03" style="stop-color:#FBD176"/>
					<stop  offset="1.745736e-02" style="stop-color:#FCD582"/>
					<stop  offset="2.788930e-02" style="stop-color:#FCD78A"/>
					<stop  offset="5.042250e-02" style="stop-color:#FCD88C"/>
					<stop  offset="6.442444e-02" style="stop-color:#FCD681"/>
					<stop  offset="8.918270e-02" style="stop-color:#FBD163"/>
					<stop  offset="0.1216" style="stop-color:#FACA33"/>
					<stop  offset="0.1355" style="stop-color:#FAC61C"/>
					<stop  offset="0.1458" style="stop-color:#E6B417"/>
					<stop  offset="0.1638" style="stop-color:#C99B11"/>
					<stop  offset="0.184" style="stop-color:#B2860B"/>
					<stop  offset="0.207" style="stop-color:#9F7607"/>
					<stop  offset="0.2343" style="stop-color:#936A04"/>
					<stop  offset="0.2701" style="stop-color:#8B6402"/>
					<stop  offset="0.3475" style="stop-color:#896202"/>
					<stop  offset="0.6179" style="stop-color:#FAC859"/>
					<stop  offset="0.651" style="stop-color:#FACC64"/>
					<stop  offset="0.7093" style="stop-color:#FCD582"/>
					<stop  offset="0.7267" style="stop-color:#FCD88C"/>
					<stop  offset="0.7501" style="stop-color:#FCD481"/>
					<stop  offset="0.7914" style="stop-color:#FACB63"/>
					<stop  offset="0.8037" style="stop-color:#FAC859"/>
					<stop  offset="0.811" style="stop-color:#F2C153"/>
					<stop  offset="0.85" style="stop-color:#CC9F36"/>
					<stop  offset="0.8888" style="stop-color:#AF841F"/>
					<stop  offset="0.9271" style="stop-color:#9A710F"/>
					<stop  offset="0.9645" style="stop-color:#8D6605"/>
					<stop  offset="1" style="stop-color:#896202"/>
				</linearGradient>
				<path class="st6" d="M237.5,43.7l4.2,2.9c-0.3,0.4-0.7,0.6-1.7,0.6h-30.2l-0.2-0.7h14.1v-4.6l5.2,0.5c-0.1,0.5-0.4,0.8-1.5,0.9
					v3.3h7.9L237.5,43.7z M235,59.3l1.5-1.9l4,2.8c-0.2,0.3-0.7,0.6-1.4,0.7v9.2c0,2.1-0.4,3.7-4.7,4.1c0-2.4-1-3-3.3-3.3v-0.4h3.9
					c0.4,0,0.5-0.1,0.5-0.5V60h-19.6v12.9c0,0.1-0.5,1.3-3.6,1.3V57.7l3.9,1.6H235z M233.7,56.9c0,0.2-1.9,0.8-3.1,0.8h-0.6v-1.5
					h-9.2v0.4c0,0.1-0.6,1.3-3.6,1.3v-9.2l3.8,1.5h8.6l1.4-1.9l4,2.8c-0.2,0.2-0.7,0.6-1.4,0.7V56.9z M233.2,63.7
					c-0.2,0.2-0.7,0.5-1.3,0.7v5.4c0,0.1-0.9,1-3.4,1V69h-6v1.2c0,0.1-0.5,1.2-3.3,1.2v-10l3.5,1.4h5.5l1.3-1.7L233.2,63.7z
					 M220.9,55.6h9.2v-4.6h-9.2V55.6z M222.5,68.4h6v-4.8h-6V68.4z"/>
				
					<linearGradient id="SVGID_9_" gradientUnits="userSpaceOnUse" x1="-249.9905" y1="-245.5941" x2="309.9162" y2="173.1889" gradientTransform="matrix(1 0 0 1 1.8296 -2.8325)">
					<stop  offset="0" style="stop-color:#FAC859"/>
					<stop  offset="2.877487e-03" style="stop-color:#FACB64"/>
					<stop  offset="9.516122e-03" style="stop-color:#FBD176"/>
					<stop  offset="1.745736e-02" style="stop-color:#FCD582"/>
					<stop  offset="2.788930e-02" style="stop-color:#FCD78A"/>
					<stop  offset="5.042250e-02" style="stop-color:#FCD88C"/>
					<stop  offset="6.442444e-02" style="stop-color:#FCD681"/>
					<stop  offset="8.918270e-02" style="stop-color:#FBD163"/>
					<stop  offset="0.1216" style="stop-color:#FACA33"/>
					<stop  offset="0.1355" style="stop-color:#FAC61C"/>
					<stop  offset="0.1458" style="stop-color:#E6B417"/>
					<stop  offset="0.1638" style="stop-color:#C99B11"/>
					<stop  offset="0.184" style="stop-color:#B2860B"/>
					<stop  offset="0.207" style="stop-color:#9F7607"/>
					<stop  offset="0.2343" style="stop-color:#936A04"/>
					<stop  offset="0.2701" style="stop-color:#8B6402"/>
					<stop  offset="0.3475" style="stop-color:#896202"/>
					<stop  offset="0.6179" style="stop-color:#FAC859"/>
					<stop  offset="0.651" style="stop-color:#FACC64"/>
					<stop  offset="0.7093" style="stop-color:#FCD582"/>
					<stop  offset="0.7267" style="stop-color:#FCD88C"/>
					<stop  offset="0.7501" style="stop-color:#FCD481"/>
					<stop  offset="0.7914" style="stop-color:#FACB63"/>
					<stop  offset="0.8037" style="stop-color:#FAC859"/>
					<stop  offset="0.811" style="stop-color:#F2C153"/>
					<stop  offset="0.85" style="stop-color:#CC9F36"/>
					<stop  offset="0.8888" style="stop-color:#AF841F"/>
					<stop  offset="0.9271" style="stop-color:#9A710F"/>
					<stop  offset="0.9645" style="stop-color:#8D6605"/>
					<stop  offset="1" style="stop-color:#896202"/>
				</linearGradient>
				<path class="st7" d="M259.6,51.3l3.3,2.4c-0.2,0.3-0.7,0.6-1.4,0.7v15.9c0,2.1-0.4,3.5-3.2,3.9c0-1.8,0-2.7-1.5-2.9v1.2
					c0,0.2-0.8,0.8-2.1,0.8h-0.4V53.6h-1.8v19c0,0.2-0.8,0.8-2.1,0.8H250V53.6h-1.7v19.8c0,0.2-0.9,0.9-2.3,0.9h-0.5V51.6l3.3,1.3
					h2.6c0.2-2.1,0.3-5,0.3-6.9h-7.5l-0.2-0.7h14.7l2-2.7l3.8,2.8c-0.3,0.4-0.7,0.6-1.7,0.6h-7c-0.8,2.1-2.1,5-3.2,6.9h5.9
					L259.6,51.3z M256.8,70.7h1.5c0.2,0,0.3-0.1,0.3-0.5V53.6h-1.9V70.7z M273.9,49.1l2.7,2.7c-0.2,0.4-0.7,0.6-1.6,0.6h-2.7v17.3
					c0,2.4-0.6,4.2-4.6,4.6c-0.1-2.3-0.7-3.1-3.5-3.5v-0.5h4.1c0.5,0,0.6-0.2,0.6-0.7V52.4h-7.1l-0.2-0.7h7.3v-9.3l4.9,0.4
					c0,0.5-0.2,0.8-1.4,0.9v8h0.1L273.9,49.1z M263.1,56.2c3.8,2,5,4.3,5,6.1c0,1.5-1,2.7-2.1,2.7c-0.5,0-1.1-0.3-1.5-0.9
					c0-0.3,0.1-0.7,0.1-1.1c0-2.3-0.8-4.9-1.9-6.6L263.1,56.2z"/>
				
					<linearGradient id="SVGID_10_" gradientUnits="userSpaceOnUse" x1="-249.9905" y1="-245.5941" x2="309.9162" y2="173.1889" gradientTransform="matrix(1 0 0 1 1.8296 -2.8325)">
					<stop  offset="0" style="stop-color:#FAC859"/>
					<stop  offset="2.877487e-03" style="stop-color:#FACB64"/>
					<stop  offset="9.516122e-03" style="stop-color:#FBD176"/>
					<stop  offset="1.745736e-02" style="stop-color:#FCD582"/>
					<stop  offset="2.788930e-02" style="stop-color:#FCD78A"/>
					<stop  offset="5.042250e-02" style="stop-color:#FCD88C"/>
					<stop  offset="6.442444e-02" style="stop-color:#FCD681"/>
					<stop  offset="8.918270e-02" style="stop-color:#FBD163"/>
					<stop  offset="0.1216" style="stop-color:#FACA33"/>
					<stop  offset="0.1355" style="stop-color:#FAC61C"/>
					<stop  offset="0.1458" style="stop-color:#E6B417"/>
					<stop  offset="0.1638" style="stop-color:#C99B11"/>
					<stop  offset="0.184" style="stop-color:#B2860B"/>
					<stop  offset="0.207" style="stop-color:#9F7607"/>
					<stop  offset="0.2343" style="stop-color:#936A04"/>
					<stop  offset="0.2701" style="stop-color:#8B6402"/>
					<stop  offset="0.3475" style="stop-color:#896202"/>
					<stop  offset="0.6179" style="stop-color:#FAC859"/>
					<stop  offset="0.651" style="stop-color:#FACC64"/>
					<stop  offset="0.7093" style="stop-color:#FCD582"/>
					<stop  offset="0.7267" style="stop-color:#FCD88C"/>
					<stop  offset="0.7501" style="stop-color:#FCD481"/>
					<stop  offset="0.7914" style="stop-color:#FACB63"/>
					<stop  offset="0.8037" style="stop-color:#FAC859"/>
					<stop  offset="0.811" style="stop-color:#F2C153"/>
					<stop  offset="0.85" style="stop-color:#CC9F36"/>
					<stop  offset="0.8888" style="stop-color:#AF841F"/>
					<stop  offset="0.9271" style="stop-color:#9A710F"/>
					<stop  offset="0.9645" style="stop-color:#8D6605"/>
					<stop  offset="1" style="stop-color:#896202"/>
				</linearGradient>
				<path class="st8" d="M307.1,62.1l3.5,2.3c-0.2,0.4-0.7,0.6-1.6,0.6h-3.9l3.2,2.4c-0.1,0.2-0.3,0.3-0.6,0.3c-0.2,0-0.4,0-0.7-0.1
					c-1.4,0.4-3.5,0.9-5.5,1.2c2.7,1,5.8,1.5,9,1.8V71c-1.4,0.4-2.3,1.5-2.6,3.3c-3.4-0.9-6.4-2-8.7-3.8c-2.8,0.8-6.8,1.8-12.5,3
					c-0.2,0.4-0.6,0.7-0.9,0.8l-1.9-3.9c1,0,2.5-0.1,4.2-0.1V65h-3.3c-0.4,3.1-1.9,6.6-6.2,9l-0.3-0.3c3-3.5,3.3-7.9,3.3-11.7v-5.6
					l4,1.5h18.3l1.8-2.1L309,58c-0.2,0.4-0.7,0.6-1.6,0.6H285V62c0,0.7,0,1.5-0.1,2.3h20.3L307.1,62.1z M292.5,48.7h-9.7
					c0.1,0.4,0.1,0.7,0.1,1c0,2-1.1,3.3-2.8,3.3c-1.1,0-1.9-0.6-1.9-1.6c0-0.8,0.7-1.5,1.5-1.8c1-0.4,2-1.6,1.9-3l0.6,0
					c0.2,0.5,0.3,0.9,0.5,1.4h9.8v-2.9h-10.8l-0.2-0.7h20.7l1.9-2.4l3.7,2.5c-0.3,0.5-0.7,0.6-1.6,0.6h-10.1v2.9h10l1.8-1.9l3.2,3.1
					c-0.3,0.3-0.6,0.3-1.3,0.4c-0.9,0.9-2.4,2.1-3.7,2.8l-0.4-0.2l0.1-0.4c-0.3,0.2-0.7,0.3-1.3,0.3h-7.1l-0.2-0.7h4.7l1.4-1.7
					l2.6,1.7c0.2-0.8,0.3-1.8,0.4-2.7h-10.3v7.5c0,0.1-1.1,0.8-3,0.8h-0.7V48.7z M282.5,55.3l-0.2-0.7h5.1l1.4-1.7l2.7,1.8
					c-0.2,0.4-0.7,0.6-1.5,0.6H282.5z M288.7,49.8l2.6,1.8c-0.2,0.4-0.7,0.6-1.5,0.6h-6.6l-0.2-0.7h4.4L288.7,49.8z M286,61.1h16.1
					l1.7-2l3.2,2.1c-0.2,0.4-0.7,0.6-1.5,0.6h-19.2L286,61.1z M291.7,65v5.1c2.1-0.1,4.4-0.2,6.8-0.3c-1.4-1.2-2.7-2.8-3.5-4.7
					H291.7z M295.7,65c1.1,1.4,2.7,2.4,4.5,3.3c1.7-1,3.5-2.3,4.6-3.3H295.7z M302.6,54.6l1.4-1.8l2.9,1.9c-0.3,0.4-0.7,0.6-1.5,0.6
					h-8l-0.2-0.7H302.6z"/>
				
					<linearGradient id="SVGID_11_" gradientUnits="userSpaceOnUse" x1="-249.9905" y1="-245.5941" x2="309.9162" y2="173.1889" gradientTransform="matrix(1 0 0 1 1.8296 -2.8325)">
					<stop  offset="0" style="stop-color:#FAC859"/>
					<stop  offset="2.877487e-03" style="stop-color:#FACB64"/>
					<stop  offset="9.516122e-03" style="stop-color:#FBD176"/>
					<stop  offset="1.745736e-02" style="stop-color:#FCD582"/>
					<stop  offset="2.788930e-02" style="stop-color:#FCD78A"/>
					<stop  offset="5.042250e-02" style="stop-color:#FCD88C"/>
					<stop  offset="6.442444e-02" style="stop-color:#FCD681"/>
					<stop  offset="8.918270e-02" style="stop-color:#FBD163"/>
					<stop  offset="0.1216" style="stop-color:#FACA33"/>
					<stop  offset="0.1355" style="stop-color:#FAC61C"/>
					<stop  offset="0.1458" style="stop-color:#E6B417"/>
					<stop  offset="0.1638" style="stop-color:#C99B11"/>
					<stop  offset="0.184" style="stop-color:#B2860B"/>
					<stop  offset="0.207" style="stop-color:#9F7607"/>
					<stop  offset="0.2343" style="stop-color:#936A04"/>
					<stop  offset="0.2701" style="stop-color:#8B6402"/>
					<stop  offset="0.3475" style="stop-color:#896202"/>
					<stop  offset="0.6179" style="stop-color:#FAC859"/>
					<stop  offset="0.651" style="stop-color:#FACC64"/>
					<stop  offset="0.7093" style="stop-color:#FCD582"/>
					<stop  offset="0.7267" style="stop-color:#FCD88C"/>
					<stop  offset="0.7501" style="stop-color:#FCD481"/>
					<stop  offset="0.7914" style="stop-color:#FACB63"/>
					<stop  offset="0.8037" style="stop-color:#FAC859"/>
					<stop  offset="0.811" style="stop-color:#F2C153"/>
					<stop  offset="0.85" style="stop-color:#CC9F36"/>
					<stop  offset="0.8888" style="stop-color:#AF841F"/>
					<stop  offset="0.9271" style="stop-color:#9A710F"/>
					<stop  offset="0.9645" style="stop-color:#8D6605"/>
					<stop  offset="1" style="stop-color:#896202"/>
				</linearGradient>
				<path class="st9" d="M322.2,69.1c0,1.4-1.2,2.6-2.6,2.6c-1.4,0-2.6-1.2-2.6-2.6c0-1.4,1.2-2.6,2.6-2.6
					C321.1,66.4,322.2,67.7,322.2,69.1z M319.1,64.3c-0.3-2.7-1.9-16.5-1.9-17.2c0-1.2,0.7-2.2,2.5-2.2c1.8,0,2.5,1,2.5,2.2
					c0,0.6-1.6,14.4-1.9,17.2H319.1z"/>
			</g>
		</g>
	</g>
	<g>
		<path class="st10" d="M8.2,7.9c0,1.6,0,2.9,0.1,3.5c0,0.5,0.1,0.8,0.6,0.9c0.2,0,0.6,0.1,0.7,0.1c0.1,0,0.1,0,0.1,0.1
			c0,0.1-0.1,0.1-0.3,0.1c-0.9,0-1.9,0-2,0c-0.1,0-1.1,0-1.6,0c-0.2,0-0.3,0-0.3-0.1c0,0,0-0.1,0.1-0.1c0.1,0,0.3,0,0.5-0.1
			c0.3-0.1,0.4-0.4,0.5-0.9c0.1-0.7,0.1-2,0.1-3.5V0.9L4.4,1C3.4,1,3,1.1,2.8,1.5C2.6,1.8,2.5,1.9,2.5,2c0,0.1-0.1,0.2-0.2,0.2
			c0,0-0.1,0-0.1-0.1c0-0.2,0.3-1.6,0.4-1.7C2.6,0.2,2.7,0,2.8,0C2.9,0,3,0.2,3.5,0.2c0.5,0,1.1,0.1,1.3,0.1h6.1
			c0.5,0,0.9,0,1.2-0.1c0.2,0,0.4-0.1,0.5-0.1c0.1,0,0.1,0.1,0.1,0.2c0,0.5,0,1.6,0,1.8c0,0.1,0,0.2-0.1,0.2c-0.1,0-0.1,0-0.1-0.3
			l0-0.2c0-0.5-0.4-0.9-2-0.9l-2.1,0V7.9z"/>
		<path class="st10" d="M30.7,8.6c0,1.3,0,2.4,0.1,3c0,0.4,0.1,0.7,0.5,0.7c0.2,0,0.5,0.1,0.6,0.1c0.1,0,0.1,0.1,0.1,0.1
			c0,0.1-0.1,0.1-0.2,0.1c-0.8,0-1.7,0-1.8,0c-0.1,0-1,0-1.4,0c-0.2,0-0.2,0-0.2-0.1c0,0,0-0.1,0.1-0.1c0.1,0,0.3,0,0.4-0.1
			c0.3-0.1,0.3-0.3,0.4-0.8c0.1-0.6,0.1-1.6,0.1-3V7.2c0-0.1,0-0.1-0.1-0.1h-6c0,0-0.1,0-0.1,0.1v1.4c0,1.3,0,2.4,0.1,3
			c0,0.4,0.1,0.7,0.5,0.7c0.2,0,0.5,0.1,0.7,0.1c0.1,0,0.1,0.1,0.1,0.1c0,0.1-0.1,0.1-0.2,0.1c-0.8,0-1.7,0-1.8,0c-0.1,0-1,0-1.4,0
			c-0.1,0-0.2,0-0.2-0.1c0,0,0-0.1,0.1-0.1c0.1,0,0.3,0,0.4-0.1c0.3-0.1,0.3-0.3,0.4-0.7c0.1-0.6,0.1-1.7,0.1-3V6.1c0-2.2,0-2.6,0-3
			c0-0.5-0.1-0.7-0.6-0.8c-0.1,0-0.4,0-0.5,0c0,0-0.1-0.1-0.1-0.1c0-0.1,0.1-0.1,0.2-0.1c0.7,0,1.6,0,1.7,0c0.1,0,1,0,1.4,0
			c0.2,0,0.2,0,0.2,0.1c0,0-0.1,0.1-0.1,0.1c-0.1,0-0.2,0-0.4,0c-0.4,0.1-0.5,0.3-0.5,0.8c0,0.4,0,0.9,0,3v0.3c0,0.1,0,0.1,0.1,0.1
			h6c0,0,0.1,0,0.1-0.1V6.1c0-2.2,0-2.6,0-3c0-0.5-0.1-0.7-0.6-0.8c-0.1,0-0.4,0-0.5,0c-0.1,0-0.1-0.1-0.1-0.1
			c0-0.1,0.1-0.1,0.2-0.1c0.6,0,1.6,0,1.6,0c0.1,0,1,0,1.4,0c0.2,0,0.2,0,0.2,0.1c0,0-0.1,0.1-0.1,0.1c-0.1,0-0.2,0-0.4,0
			c-0.4,0.1-0.5,0.3-0.5,0.8c0,0.4,0,0.8,0,3V8.6z"/>
		<path class="st10" d="M42,6.1c0-2.2,0-2.6,0-3c0-0.5-0.1-0.7-0.6-0.8c-0.1,0-0.4,0-0.5,0c0,0-0.1-0.1-0.1-0.1
			c0-0.1,0.1-0.1,0.2-0.1c0.7,0,1.6,0,1.7,0c0.1,0,3.1,0,3.4,0c0.3,0,0.5-0.1,0.7-0.1C46.8,2,46.8,2,46.9,2C47,2,47,2,47,2.1
			c0,0.1-0.1,0.3-0.1,0.7c0,0.1,0,0.8-0.1,0.9c0,0.1-0.1,0.1-0.1,0.1c-0.1,0-0.1-0.1-0.1-0.2c0-0.1,0-0.3-0.1-0.5
			c-0.1-0.2-0.2-0.3-1-0.4c-0.2,0-1.9,0-2.1,0c-0.1,0-0.1,0-0.1,0.1v3.8c0,0.1,0,0.1,0.1,0.1c0.2,0,2.1,0,2.4,0c0.3,0,0.6,0,0.7-0.2
			c0.1-0.1,0.2-0.2,0.2-0.2c0,0,0.1,0,0.1,0.1c0,0.1-0.1,0.3-0.1,0.8c0,0.3-0.1,0.8-0.1,0.9c0,0.1,0,0.3-0.1,0.3
			c-0.1,0-0.1,0-0.1-0.1c0-0.1,0-0.3-0.1-0.5c0-0.2-0.2-0.4-0.7-0.4c-0.4,0-1.9-0.1-2.2-0.1c-0.1,0-0.1,0-0.1,0.1v1.2
			c0,0.5,0,2.1,0,2.4c0,0.9,0.3,1.1,1.7,1.1c0.4,0,1.1,0,1.4-0.1c0.4-0.2,0.6-0.4,0.7-1c0-0.2,0.1-0.2,0.1-0.2s0.1,0.1,0.1,0.2
			c0,0.1-0.1,1-0.2,1.3c-0.1,0.4-0.2,0.4-0.8,0.4c-1.1,0-1.9,0-2.5,0c-0.6,0-1,0-1.2,0c0,0-0.3,0-0.6,0c-0.3,0-0.6,0-0.8,0
			c-0.1,0-0.2,0-0.2-0.1c0,0,0-0.1,0.1-0.1c0.1,0,0.3,0,0.4-0.1c0.3,0,0.3-0.3,0.4-0.7C42,11,42,9.9,42,8.6V6.1z"/>
		<path class="st10" d="M69.7,5c0-2.6,0-3,0-3.5c0-0.6-0.2-0.8-0.7-0.9c-0.1,0-0.4,0-0.6,0c-0.1,0-0.1,0-0.1-0.1
			c0-0.1,0.1-0.1,0.3-0.1c0.4,0,0.8,0,1.2,0l0.7,0c0.1,0,3.4,0,3.7,0c0.3,0,0.6,0,0.7-0.1c0.1,0,0.1-0.1,0.2-0.1
			c0,0,0.1,0.1,0.1,0.1c0,0.1-0.1,0.3-0.1,0.8c0,0.2,0,0.9-0.1,1.1c0,0.1,0,0.2-0.1,0.2c-0.1,0-0.1-0.1-0.1-0.2c0-0.1,0-0.4-0.1-0.6
			c-0.1-0.3-0.3-0.5-1.2-0.6c-0.3,0-2.1,0-2.2,0c-0.1,0-0.1,0-0.1,0.2v4.5c0,0.1,0,0.2,0.1,0.2c0.2,0,2.2,0,2.6,0
			c0.4,0,0.6-0.1,0.8-0.2c0.1-0.1,0.2-0.2,0.2-0.2c0,0,0.1,0,0.1,0.1c0,0.1-0.1,0.4-0.1,0.9c0,0.3-0.1,0.9-0.1,1
			c0,0.1,0,0.3-0.1,0.3c-0.1,0-0.1-0.1-0.1-0.1c0-0.2,0-0.3-0.1-0.5c-0.1-0.2-0.2-0.5-0.9-0.6c-0.4,0-2.1-0.1-2.3-0.1
			c-0.1,0-0.1,0-0.1,0.1v1.4c0,0.6,0,2.5,0,2.8c0,1.1,0.3,1.3,1.9,1.3c0.4,0,1.1,0,1.6-0.2c0.4-0.2,0.6-0.5,0.7-1.2
			c0-0.2,0.1-0.2,0.1-0.2c0.1,0,0.1,0.1,0.1,0.2c0,0.1-0.1,1.2-0.2,1.6c-0.1,0.4-0.2,0.4-0.9,0.4c-1.2,0-2.1,0-2.8,0
			c-0.6,0-1,0-1.3,0c0,0-0.3,0-0.7,0c-0.3,0-0.7,0-0.9,0c-0.2,0-0.3,0-0.3-0.1c0,0,0-0.1,0.1-0.1c0.1,0,0.3,0,0.5-0.1
			c0.3-0.1,0.4-0.4,0.5-0.9c0.1-0.7,0.1-2,0.1-3.5V5z"/>
		<path class="st10" d="M87.2,8.6c0,2,0,2.9,0.3,3.1c0.2,0.2,0.8,0.3,1.9,0.3c0.8,0,1.4,0,1.7-0.4c0.2-0.2,0.3-0.5,0.3-0.8
			c0-0.1,0.1-0.2,0.1-0.2c0.1,0,0.1,0.1,0.1,0.2s-0.1,1-0.2,1.4c-0.1,0.3-0.1,0.4-0.9,0.4c-1,0-1.8,0-2.5,0c-0.7,0-1.1,0-1.6,0
			c-0.1,0-0.3,0-0.6,0c-0.3,0-0.6,0-0.8,0c-0.1,0-0.2,0-0.2-0.1c0,0,0-0.1,0.1-0.1c0.1,0,0.3,0,0.4-0.1c0.3-0.1,0.3-0.3,0.4-0.7
			c0.1-0.6,0.1-1.7,0.1-3V6.1c0-2.2,0-2.6,0-3c0-0.5-0.1-0.7-0.6-0.8c-0.1,0-0.4,0-0.5,0c0,0-0.1-0.1-0.1-0.1c0-0.1,0.1-0.1,0.2-0.1
			c0.7,0,1.6,0,1.6,0c0.1,0,1.1,0,1.6,0c0.1,0,0.2,0,0.2,0.1c0,0-0.1,0.1-0.1,0.1c-0.1,0-0.3,0-0.5,0c-0.4,0.1-0.5,0.3-0.5,0.8
			c0,0.4,0,0.8,0,3V8.6z"/>
		<path class="st10" d="M102.5,8.6c0,1.3,0,2.4,0.1,3c0,0.4,0.1,0.7,0.5,0.7c0.2,0,0.5,0.1,0.7,0.1c0.1,0,0.1,0.1,0.1,0.1
			c0,0.1-0.1,0.1-0.2,0.1c-0.8,0-1.7,0-1.8,0c-0.1,0-1,0-1.4,0c-0.1,0-0.2,0-0.2-0.1c0,0,0-0.1,0.1-0.1c0.1,0,0.3,0,0.4-0.1
			c0.3-0.1,0.3-0.3,0.4-0.7c0.1-0.6,0.1-1.7,0.1-3V6.1c0-2.2,0-2.6,0-3c0-0.5-0.1-0.7-0.5-0.8c-0.2,0-0.3,0-0.4,0
			c-0.1,0-0.1-0.1-0.1-0.1c0-0.1,0.1-0.1,0.2-0.1c0.5,0,1.4,0,1.5,0c0.1,0,1,0,1.4,0c0.2,0,0.2,0,0.2,0.1c0,0-0.1,0.1-0.1,0.1
			c-0.1,0-0.2,0-0.4,0c-0.4,0.1-0.5,0.3-0.5,0.8c0,0.4,0,0.8,0,3V8.6z"/>
		<path class="st10" d="M117.2,8.6c0,1.3,0,2.4,0.1,3c0,0.4,0.1,0.7,0.6,0.7c0.2,0,0.5,0.1,0.7,0.1c0.1,0,0.1,0.1,0.1,0.1
			c0,0.1-0.1,0.1-0.2,0.1c-0.8,0-1.7,0-1.8,0c-0.1,0-1.1,0-1.5,0c-0.2,0-0.2,0-0.2-0.1c0,0,0-0.1,0.1-0.1c0.1,0,0.3,0,0.4-0.1
			c0.3-0.1,0.4-0.3,0.4-0.8c0.1-0.6,0.1-1.7,0.1-3V2.7l-2.1,0c-0.9,0-1.2,0.1-1.5,0.4c-0.2,0.2-0.2,0.3-0.2,0.4
			c0,0.1-0.1,0.1-0.1,0.1c0,0-0.1,0-0.1-0.1c0-0.1,0.3-1.4,0.3-1.5c0-0.1,0.1-0.3,0.1-0.3c0.1,0,0.2,0.1,0.6,0.2
			c0.4,0,1,0.1,1.1,0.1h5.4c0.5,0,0.8,0,1-0.1c0.2,0,0.3-0.1,0.4-0.1s0.1,0.1,0.1,0.2c0,0.4,0,1.4,0,1.6c0,0.1-0.1,0.2-0.1,0.2
			s-0.1,0-0.1-0.2l0-0.1c0-0.4-0.4-0.7-1.7-0.8l-1.8,0V8.6z"/>
		<path class="st10" d="M130.6,6.1c0-2.2,0-2.6,0-3c0-0.5-0.1-0.7-0.6-0.8c-0.1,0-0.4,0-0.5,0c0,0-0.1-0.1-0.1-0.1
			c0-0.1,0.1-0.1,0.2-0.1c0.7,0,1.6,0,1.7,0c0.1,0,3.1,0,3.4,0c0.3,0,0.5-0.1,0.7-0.1c0.1,0,0.1-0.1,0.2-0.1c0,0,0.1,0.1,0.1,0.1
			c0,0.1-0.1,0.3-0.1,0.7c0,0.1,0,0.8-0.1,0.9c0,0.1-0.1,0.1-0.1,0.1c-0.1,0-0.1-0.1-0.1-0.2c0-0.1,0-0.3-0.1-0.5
			c-0.1-0.2-0.2-0.3-1-0.4c-0.2,0-1.9,0-2.1,0c-0.1,0-0.1,0-0.1,0.1v3.8c0,0.1,0,0.1,0.1,0.1c0.2,0,2.1,0,2.4,0c0.3,0,0.6,0,0.7-0.2
			c0.1-0.1,0.2-0.2,0.2-0.2c0,0,0.1,0,0.1,0.1c0,0.1-0.1,0.3-0.1,0.8c0,0.3-0.1,0.8-0.1,0.9c0,0.1,0,0.3-0.1,0.3
			c-0.1,0-0.1,0-0.1-0.1c0-0.1,0-0.3-0.1-0.5c0-0.2-0.2-0.4-0.7-0.4c-0.4,0-1.9-0.1-2.2-0.1c-0.1,0-0.1,0-0.1,0.1v1.2
			c0,0.5,0,2.1,0,2.4c0,0.9,0.3,1.1,1.7,1.1c0.4,0,1.1,0,1.4-0.1c0.4-0.2,0.6-0.4,0.7-1c0-0.2,0.1-0.2,0.1-0.2s0.1,0.1,0.1,0.2
			c0,0.1-0.1,1-0.2,1.3c-0.1,0.4-0.2,0.4-0.8,0.4c-1.1,0-1.9,0-2.5,0c-0.6,0-1,0-1.2,0c0,0-0.3,0-0.6,0c-0.3,0-0.6,0-0.8,0
			c-0.1,0-0.2,0-0.2-0.1c0,0,0-0.1,0.1-0.1c0.1,0,0.3,0,0.4-0.1c0.3,0,0.3-0.3,0.4-0.7c0.1-0.6,0.1-1.7,0.1-3V6.1z"/>
		<path class="st10" d="M161.9,7.9c0,1.6,0,2.9,0.1,3.5c0,0.5,0.1,0.8,0.6,0.9c0.2,0,0.6,0.1,0.7,0.1c0.1,0,0.1,0,0.1,0.1
			c0,0.1-0.1,0.1-0.3,0.1c-0.9,0-1.9,0-2,0c-0.1,0-1.1,0-1.6,0c-0.2,0-0.3,0-0.3-0.1c0,0,0-0.1,0.1-0.1c0.1,0,0.3,0,0.5-0.1
			c0.3-0.1,0.4-0.4,0.5-0.9c0.1-0.7,0.1-2,0.1-3.5V0.9l-2.4,0c-1,0-1.4,0.1-1.7,0.5c-0.2,0.3-0.2,0.4-0.3,0.5c0,0.1-0.1,0.2-0.2,0.2
			c0,0-0.1,0-0.1-0.1c0-0.2,0.3-1.6,0.4-1.7c0-0.1,0.1-0.3,0.2-0.3c0.1,0,0.3,0.2,0.7,0.2c0.5,0,1.1,0.1,1.3,0.1h6.1
			c0.5,0,0.9,0,1.2-0.1c0.2,0,0.4-0.1,0.5-0.1c0.1,0,0.1,0.1,0.1,0.2c0,0.5,0,1.6,0,1.8c0,0.1,0,0.2-0.1,0.2c-0.1,0-0.1,0-0.1-0.3
			l0-0.2c0-0.5-0.4-0.9-2-0.9l-2.1,0V7.9z"/>
		<path class="st10" d="M175.6,6.1c0-2.2,0-2.6,0-3c0-0.5-0.1-0.7-0.6-0.8c-0.1,0-0.4,0-0.5,0c0,0-0.1-0.1-0.1-0.1
			c0-0.1,0.1-0.1,0.2-0.1c0.7,0,1.6,0,1.7,0c0.1,0,3.1,0,3.4,0c0.3,0,0.5-0.1,0.7-0.1c0.1,0,0.1-0.1,0.2-0.1c0,0,0.1,0.1,0.1,0.1
			c0,0.1-0.1,0.3-0.1,0.7c0,0.1,0,0.8-0.1,0.9c0,0.1-0.1,0.1-0.1,0.1c-0.1,0-0.1-0.1-0.1-0.2c0-0.1,0-0.3-0.1-0.5
			c-0.1-0.2-0.2-0.3-1-0.4c-0.2,0-1.9,0-2.1,0c-0.1,0-0.1,0-0.1,0.1v3.8c0,0.1,0,0.1,0.1,0.1c0.2,0,2.1,0,2.4,0c0.3,0,0.6,0,0.7-0.2
			c0.1-0.1,0.2-0.2,0.2-0.2c0,0,0.1,0,0.1,0.1c0,0.1-0.1,0.3-0.1,0.8c0,0.3-0.1,0.8-0.1,0.9c0,0.1,0,0.3-0.1,0.3
			c-0.1,0-0.1,0-0.1-0.1c0-0.1,0-0.3-0.1-0.5c0-0.2-0.2-0.4-0.7-0.4c-0.4,0-1.9-0.1-2.2-0.1c-0.1,0-0.1,0-0.1,0.1v1.2
			c0,0.5,0,2.1,0,2.4c0,0.9,0.3,1.1,1.7,1.1c0.4,0,1.1,0,1.4-0.1c0.4-0.2,0.6-0.4,0.7-1c0-0.2,0.1-0.2,0.1-0.2s0.1,0.1,0.1,0.2
			c0,0.1-0.1,1-0.2,1.3c-0.1,0.4-0.2,0.4-0.8,0.4c-1.1,0-1.9,0-2.5,0c-0.6,0-1,0-1.2,0c0,0-0.3,0-0.6,0c-0.3,0-0.6,0-0.8,0
			c-0.1,0-0.2,0-0.2-0.1c0,0,0-0.1,0.1-0.1c0.1,0,0.3,0,0.4-0.1c0.3,0,0.3-0.3,0.4-0.7c0.1-0.6,0.1-1.7,0.1-3V6.1z"/>
		<path class="st10" d="M193.3,2.4c0.2-0.5,0.2-0.5,0.3-0.5c0.1,0,0.2,0.2,0.3,0.5c0.3,0.6,2.6,6.3,3.5,8.4c0.5,1.2,0.9,1.4,1.2,1.5
			c0.2,0.1,0.4,0.1,0.6,0.1c0.1,0,0.2,0,0.2,0.1c0,0.1-0.2,0.1-0.3,0.1c-0.2,0-1.3,0-2.3,0c-0.3,0-0.5,0-0.5-0.1
			c0-0.1,0-0.1,0.1-0.1c0.1,0,0.2-0.1,0.1-0.4l-1.3-3.2c0-0.1,0-0.1-0.1-0.1h-3.3c-0.1,0-0.1,0-0.1,0.1l-0.8,2.2
			c-0.1,0.3-0.2,0.7-0.2,0.9c0,0.3,0.2,0.4,0.5,0.4h0.1c0.1,0,0.1,0,0.1,0.1c0,0.1-0.1,0.1-0.2,0.1c-0.3,0-1.1,0-1.3,0
			c-0.1,0-0.9,0-1.5,0c-0.2,0-0.3,0-0.3-0.1c0-0.1,0.1-0.1,0.1-0.1c0.1,0,0.3,0,0.4,0c0.7-0.1,0.9-0.6,1.2-1.3L193.3,2.4z
			 M194.9,8.1C195,8.1,195,8.1,194.9,8.1l-1.4-3.9c-0.1-0.2-0.2-0.2-0.2,0L191.9,8c0,0.1,0,0.1,0,0.1H194.9z"/>
		<path class="st10" d="M219,10.8c0,0.5,0.1,1.2,0.7,1.4c0.4,0.1,0.8,0.1,0.9,0.1c0.1,0,0.1,0,0.1,0.1c0,0.1-0.1,0.1-0.3,0.1
			c-0.3,0-1.9,0-2.5-0.1c-0.3,0-0.4-0.1-0.4-0.1c0,0,0-0.1,0.1-0.1c0.1,0,0.1-0.2,0.1-0.5l-0.7-7h0l-3.5,7.1
			c-0.3,0.6-0.4,0.7-0.5,0.7s-0.2-0.1-0.5-0.6c-0.4-0.7-1.3-2.5-1.7-3.2c-0.4-0.9-1.6-3.2-1.8-3.8H209l-0.6,6.3c0,0.2,0,0.5,0,0.7
			c0,0.2,0.1,0.3,0.3,0.4c0.2,0.1,0.5,0.1,0.6,0.1c0,0,0.1,0,0.1,0.1c0,0.1-0.1,0.1-0.3,0.1c-0.5,0-1.2,0-1.3,0c-0.1,0-0.8,0-1.2,0
			c-0.1,0-0.2,0-0.2-0.1c0,0,0.1-0.1,0.1-0.1c0.1,0,0.2,0,0.4,0c0.5-0.1,0.5-0.6,0.6-1.1l1-9.1c0-0.1,0.1-0.2,0.2-0.2
			c0.1,0,0.2,0,0.3,0.2l4.4,8.6l4.2-8.6c0.1-0.1,0.1-0.2,0.2-0.2c0.1,0,0.2,0.1,0.2,0.4L219,10.8z"/>
	</g>
</g>
</svg>
