<?xml version="1.0" encoding="utf-8"?>
<!-- Generator: Adobe Illustrator 25.2.3, SVG Export Plug-In . SVG Version: 6.00 Build 0)  -->
<svg version="1.1" id="section9_title.svg" xmlns="http://www.w3.org/2000/svg" xmlns:xlink="http://www.w3.org/1999/xlink" x="0px"
	 y="0px" viewBox="0 0 174 64" style="enable-background:new 0 0 174 64;" xml:space="preserve">
<style type="text/css">
	.繪圖樣式{fill:url(#SVGID_1_);}
	.st0{fill:url(#SVGID_2_);}
	.st1{fill:url(#SVGID_3_);}
	.st2{fill:url(#SVGID_4_);}
	.st3{fill:url(#SVGID_5_);}
	.st4{fill:#FFFFFF;}
</style>
<linearGradient id="SVGID_1_" gradientUnits="userSpaceOnUse" x1="0" y1="64" x2="0.8008" y2="64.599">
	<stop  offset="0" style="stop-color:#FAC859"/>
	<stop  offset="2.877487e-03" style="stop-color:#FACB64"/>
	<stop  offset="9.516122e-03" style="stop-color:#FBD176"/>
	<stop  offset="1.745736e-02" style="stop-color:#FCD582"/>
	<stop  offset="2.788930e-02" style="stop-color:#FCD78A"/>
	<stop  offset="5.042250e-02" style="stop-color:#FCD88C"/>
	<stop  offset="6.442444e-02" style="stop-color:#FCD681"/>
	<stop  offset="8.918270e-02" style="stop-color:#FBD163"/>
	<stop  offset="0.1216" style="stop-color:#FACA33"/>
	<stop  offset="0.1355" style="stop-color:#FAC61C"/>
	<stop  offset="0.1458" style="stop-color:#E6B417"/>
	<stop  offset="0.1638" style="stop-color:#C99B11"/>
	<stop  offset="0.184" style="stop-color:#B2860B"/>
	<stop  offset="0.207" style="stop-color:#9F7607"/>
	<stop  offset="0.2343" style="stop-color:#936A04"/>
	<stop  offset="0.2701" style="stop-color:#8B6402"/>
	<stop  offset="0.3475" style="stop-color:#896202"/>
	<stop  offset="0.6179" style="stop-color:#FAC859"/>
	<stop  offset="0.651" style="stop-color:#FACC64"/>
	<stop  offset="0.7093" style="stop-color:#FCD582"/>
	<stop  offset="0.7267" style="stop-color:#FCD88C"/>
	<stop  offset="0.7501" style="stop-color:#FCD481"/>
	<stop  offset="0.7914" style="stop-color:#FACB63"/>
	<stop  offset="0.8037" style="stop-color:#FAC859"/>
	<stop  offset="0.811" style="stop-color:#F2C153"/>
	<stop  offset="0.85" style="stop-color:#CC9F36"/>
	<stop  offset="0.8888" style="stop-color:#AF841F"/>
	<stop  offset="0.9271" style="stop-color:#9A710F"/>
	<stop  offset="0.9645" style="stop-color:#8D6605"/>
	<stop  offset="1" style="stop-color:#896202"/>
</linearGradient>
<g>
	<g>
		
			<image style="overflow:visible;opacity:0.4;" width="146" height="42" xlink:href="7DDA88B36976C320.png"  transform="matrix(1 0 0 1 16.7481 22.7481)">
		</image>
		<g>
			<g>
				
					<linearGradient id="SVGID_2_" gradientUnits="userSpaceOnUse" x1="-101.0222" y1="-99.269" x2="158.2284" y2="94.6378" gradientTransform="matrix(1 0 0 1 -1 0)">
					<stop  offset="0" style="stop-color:#FAC859"/>
					<stop  offset="2.877487e-03" style="stop-color:#FACB64"/>
					<stop  offset="9.516122e-03" style="stop-color:#FBD176"/>
					<stop  offset="1.745736e-02" style="stop-color:#FCD582"/>
					<stop  offset="2.788930e-02" style="stop-color:#FCD78A"/>
					<stop  offset="5.042250e-02" style="stop-color:#FCD88C"/>
					<stop  offset="6.442444e-02" style="stop-color:#FCD681"/>
					<stop  offset="8.918270e-02" style="stop-color:#FBD163"/>
					<stop  offset="0.1216" style="stop-color:#FACA33"/>
					<stop  offset="0.1355" style="stop-color:#FAC61C"/>
					<stop  offset="0.1458" style="stop-color:#E6B417"/>
					<stop  offset="0.1638" style="stop-color:#C99B11"/>
					<stop  offset="0.184" style="stop-color:#B2860B"/>
					<stop  offset="0.207" style="stop-color:#9F7607"/>
					<stop  offset="0.2343" style="stop-color:#936A04"/>
					<stop  offset="0.2701" style="stop-color:#8B6402"/>
					<stop  offset="0.3475" style="stop-color:#896202"/>
					<stop  offset="0.6179" style="stop-color:#FAC859"/>
					<stop  offset="0.651" style="stop-color:#FACC64"/>
					<stop  offset="0.7093" style="stop-color:#FCD582"/>
					<stop  offset="0.7267" style="stop-color:#FCD88C"/>
					<stop  offset="0.7501" style="stop-color:#FCD481"/>
					<stop  offset="0.7914" style="stop-color:#FACB63"/>
					<stop  offset="0.8037" style="stop-color:#FAC859"/>
					<stop  offset="0.811" style="stop-color:#F2C153"/>
					<stop  offset="0.85" style="stop-color:#CC9F36"/>
					<stop  offset="0.8888" style="stop-color:#AF841F"/>
					<stop  offset="0.9271" style="stop-color:#9A710F"/>
					<stop  offset="0.9645" style="stop-color:#8D6605"/>
					<stop  offset="1" style="stop-color:#896202"/>
				</linearGradient>
				<path class="st0" d="M32.5,37.1l3.3,3.2c-0.2,0.3-0.6,0.4-1.3,0.4c-1,1.6-2.8,4.2-4.1,5.6L30,46.1c0.3-1.6,0.8-4.5,1-6.4h-2.5
					v14.2c0,2.4-0.6,4.1-4.4,4.4c0-2.7-0.9-3.3-3.1-3.5v-0.4h3.5c0.4,0,0.5-0.2,0.5-0.6V39.7h-4.8L20,39h10.6L32.5,37.1z M48.9,26.3
					l3.8,2.8c-0.3,0.4-0.7,0.6-1.7,0.6h-5.6c-1.1,1.7-2.5,3.7-3.7,4.9h5l1.3-1.8l3.7,2.7c-0.2,0.2-0.6,0.5-1.2,0.6v14.8
					c0,0-1,1-3.6,1v-1.4h-7.5c0,0.7,0,0.7-0.3,1l4,2.4c-0.1,0.2-0.3,0.3-0.6,0.3c-0.2,0-0.3,0-0.6-0.1c-2.3,1.8-6.9,3.7-10.7,4.4
					l-0.2-0.5c2.8-1.4,6-4,7.7-6.2h0c-1,0.6-1.9,0.6-2.8,0.6V33.1l3.7,1.5h1.1c0.2-1.3,0.3-3.3,0.4-4.9h-6.8l0.4,0.4
					c-0.2,0.3-0.7,0.3-1.4,0.4c-1.4,1.2-3.7,2.8-5.7,3.8c1,0.8,1.4,1.8,1.4,2.6c0,1.1-0.8,2-1.7,2c-0.4,0-0.9-0.1-1.3-0.5
					c-0.6-2.1-2.4-4.5-4.4-5.8l0.2-0.3c2.2,0.3,3.8,0.8,4.9,1.4c0.9-1.3,2-3,2.7-4.2h-8.8l-0.2-0.7h8.9l2-2l2.3,2.2l0-0.1h13
					L48.9,26.3z M47,35.3h-7.5v4.3H47V35.3z M39.6,40.3v4.4H47v-4.4H39.6z M39.6,49.7H47v-4.4h-7.5V49.7z M44.4,51.5
					c6.1,0.7,8,3.1,8,4.9c0,1.1-0.8,2-1.8,2c-0.4,0-0.8-0.1-1.3-0.4c-0.9-2.1-3.1-4.7-5.2-6.2L44.4,51.5z"/>
				
					<linearGradient id="SVGID_3_" gradientUnits="userSpaceOnUse" x1="-101.0222" y1="-99.269" x2="158.2284" y2="94.6378" gradientTransform="matrix(1 0 0 1 -1 0)">
					<stop  offset="0" style="stop-color:#FAC859"/>
					<stop  offset="2.877487e-03" style="stop-color:#FACB64"/>
					<stop  offset="9.516122e-03" style="stop-color:#FBD176"/>
					<stop  offset="1.745736e-02" style="stop-color:#FCD582"/>
					<stop  offset="2.788930e-02" style="stop-color:#FCD78A"/>
					<stop  offset="5.042250e-02" style="stop-color:#FCD88C"/>
					<stop  offset="6.442444e-02" style="stop-color:#FCD681"/>
					<stop  offset="8.918270e-02" style="stop-color:#FBD163"/>
					<stop  offset="0.1216" style="stop-color:#FACA33"/>
					<stop  offset="0.1355" style="stop-color:#FAC61C"/>
					<stop  offset="0.1458" style="stop-color:#E6B417"/>
					<stop  offset="0.1638" style="stop-color:#C99B11"/>
					<stop  offset="0.184" style="stop-color:#B2860B"/>
					<stop  offset="0.207" style="stop-color:#9F7607"/>
					<stop  offset="0.2343" style="stop-color:#936A04"/>
					<stop  offset="0.2701" style="stop-color:#8B6402"/>
					<stop  offset="0.3475" style="stop-color:#896202"/>
					<stop  offset="0.6179" style="stop-color:#FAC859"/>
					<stop  offset="0.651" style="stop-color:#FACC64"/>
					<stop  offset="0.7093" style="stop-color:#FCD582"/>
					<stop  offset="0.7267" style="stop-color:#FCD88C"/>
					<stop  offset="0.7501" style="stop-color:#FCD481"/>
					<stop  offset="0.7914" style="stop-color:#FACB63"/>
					<stop  offset="0.8037" style="stop-color:#FAC859"/>
					<stop  offset="0.811" style="stop-color:#F2C153"/>
					<stop  offset="0.85" style="stop-color:#CC9F36"/>
					<stop  offset="0.8888" style="stop-color:#AF841F"/>
					<stop  offset="0.9271" style="stop-color:#9A710F"/>
					<stop  offset="0.9645" style="stop-color:#8D6605"/>
					<stop  offset="1" style="stop-color:#896202"/>
				</linearGradient>
				<path class="st1" d="M54.6,31.9c1.3,0.2,2.4,0.6,3.2,1c0.7-1.9,1.4-4.5,2.1-6.9l4.8,1.7c-0.2,0.4-0.5,0.6-1.4,0.6
					c-1.3,1.8-2.9,3.7-4.5,5.2c1,0.8,1.4,1.6,1.4,2.3c0,1-0.8,1.9-1.7,1.9c-0.4,0-0.9-0.2-1.3-0.6c-0.3-1.7-1.5-3.8-2.8-5L54.6,31.9
					z M83,31.1l3.9,3.1c-0.2,0.3-0.7,0.6-1.5,0.7c-0.3,13.2-0.7,20.1-2.6,21.9c-1.2,1.1-2.5,1.7-4.9,1.7c0-2.3-0.4-3-4.3-3.8V54
					c1.6,0.1,4,0.2,5,0.2c0.7,0,0.9-0.1,1.3-0.4c1.2-1.2,1.7-8.4,1.9-19.9h-8.1c-1.5,2.5-3.2,4.6-5.2,6.3c1.1,0.9,1.5,1.9,1.5,2.7
					c0,1.2-0.9,2.1-1.8,2.1c-0.5,0-1-0.2-1.4-0.7c0-0.7-0.2-1.6-0.5-2.3c-0.7,0.2-1.5,0.4-2.3,0.6v14.9c0,0.2-1.1,1-2.8,1h-0.6v-11
					c-0.2,0.2-0.5,0.3-1,0.3c-1.1,3.2-2.7,6.1-4.5,7.9l-0.5-0.2c0.9-2.2,1.7-5.9,2.1-9.3l4,1v-3.6c-1.2,0.3-2.5,0.6-3.9,0.9
					c-0.2,0.4-0.6,0.7-1,0.7l-1.2-3.7c0.9,0,2.4,0,4.2,0c2-3.4,4.3-7.9,5.6-11.2l4.6,2c-0.1,0.3-0.4,0.4-0.8,0.4
					c-0.2,0-0.3,0-0.6-0.1c-1.9,2.5-4.8,5.9-7.6,8.7c1.8,0,3.9-0.1,6-0.2c-0.4-1-1-1.9-1.6-2.6l0.3-0.2c1.5,0.5,2.6,1,3.4,1.6
					c1.9-3.2,3.8-8.6,4.8-13.8l5,1.4c-0.2,0.4-0.4,0.7-1.3,0.7c-0.7,1.8-1.5,3.5-2.4,5h7.3L83,31.1z M64.9,46.1
					c3.6,1.7,4.8,3.7,4.8,5.2c0,1.3-0.9,2.2-1.9,2.2c-0.5,0-1-0.2-1.5-0.8c0.1-2-0.8-4.8-1.8-6.4L64.9,46.1z M71.8,39.5
					c4.8,1.8,6.3,4.3,6.3,6.1c0,1.4-0.9,2.4-2,2.4c-0.5,0-1.1-0.3-1.6-0.8c-0.1-2.4-1.4-5.6-3-7.5L71.8,39.5z"/>
				
					<linearGradient id="SVGID_4_" gradientUnits="userSpaceOnUse" x1="-101.0222" y1="-99.269" x2="158.2284" y2="94.6378" gradientTransform="matrix(1 0 0 1 -1 0)">
					<stop  offset="0" style="stop-color:#FAC859"/>
					<stop  offset="2.877487e-03" style="stop-color:#FACB64"/>
					<stop  offset="9.516122e-03" style="stop-color:#FBD176"/>
					<stop  offset="1.745736e-02" style="stop-color:#FCD582"/>
					<stop  offset="2.788930e-02" style="stop-color:#FCD78A"/>
					<stop  offset="5.042250e-02" style="stop-color:#FCD88C"/>
					<stop  offset="6.442444e-02" style="stop-color:#FCD681"/>
					<stop  offset="8.918270e-02" style="stop-color:#FBD163"/>
					<stop  offset="0.1216" style="stop-color:#FACA33"/>
					<stop  offset="0.1355" style="stop-color:#FAC61C"/>
					<stop  offset="0.1458" style="stop-color:#E6B417"/>
					<stop  offset="0.1638" style="stop-color:#C99B11"/>
					<stop  offset="0.184" style="stop-color:#B2860B"/>
					<stop  offset="0.207" style="stop-color:#9F7607"/>
					<stop  offset="0.2343" style="stop-color:#936A04"/>
					<stop  offset="0.2701" style="stop-color:#8B6402"/>
					<stop  offset="0.3475" style="stop-color:#896202"/>
					<stop  offset="0.6179" style="stop-color:#FAC859"/>
					<stop  offset="0.651" style="stop-color:#FACC64"/>
					<stop  offset="0.7093" style="stop-color:#FCD582"/>
					<stop  offset="0.7267" style="stop-color:#FCD88C"/>
					<stop  offset="0.7501" style="stop-color:#FCD481"/>
					<stop  offset="0.7914" style="stop-color:#FACB63"/>
					<stop  offset="0.8037" style="stop-color:#FAC859"/>
					<stop  offset="0.811" style="stop-color:#F2C153"/>
					<stop  offset="0.85" style="stop-color:#CC9F36"/>
					<stop  offset="0.8888" style="stop-color:#AF841F"/>
					<stop  offset="0.9271" style="stop-color:#9A710F"/>
					<stop  offset="0.9645" style="stop-color:#8D6605"/>
					<stop  offset="1" style="stop-color:#896202"/>
				</linearGradient>
				<path class="st2" d="M117.7,29.7l3.5,3.3c-0.2,0.3-0.6,0.4-1.3,0.4c-1.1,0.8-3,1.8-4.3,2.2l-0.3-0.2c0.2-0.8,0.5-2.1,0.7-3.1
					H94.1c0,0.3,0,0.5,0,0.8c0,2-1.1,3.5-2.9,3.5c-1.2,0-2.2-0.7-2.2-1.7c0-1,0.8-1.7,1.8-2.1c1.1-0.4,2.3-1.5,2.2-2.9l0.5,0
					c0.2,0.6,0.4,1.2,0.6,1.7h9.2V26l5,0.4c0,0.5-0.3,0.7-1.3,0.9v4.4h2.9c0.8-1.7,1.8-4,2.3-5.6l5.2,2c-0.1,0.3-0.4,0.4-0.8,0.4
					c-0.2,0-0.3,0-0.6-0.1c-1.3,1-3.3,2.2-5.1,3.2h4.8L117.7,29.7z M112.1,52.6h-11.2l3.5,2.7c-0.2,0.2-0.5,0.3-0.9,0.3
					c-0.3,0-0.6,0-1-0.2c-3.1,1.4-8.2,2.7-13.1,3l-0.2-0.5c4.2-1.1,8.7-3.4,11.1-5.3H98c0,0.6-1.1,1.4-3.5,1.4V40.3l3.8,1.5h13.6
					l1.4-1.8l3.8,2.7c-0.2,0.2-0.7,0.6-1.3,0.7v9.3c0,0.1-1,0.9-3.6,0.9V52.6z M94.3,26.2c4.1,0.6,5.4,2.2,5.4,3.5
					c0,1.1-0.9,2-1.9,2c-0.5,0-1-0.2-1.4-0.7c-0.2-1.6-1.2-3.5-2.4-4.5L94.3,26.2z M113.9,39.5c0,0.2-1.9,0.9-3,0.9h-0.6v-0.9H99.8
					c0,0.3-0.7,1.3-3.5,1.3v-7.5l3.8,1.5h10l1.3-1.7l3.8,2.6c-0.2,0.2-0.6,0.4-1.2,0.6V39.5z M112.1,42.5H98v2.7h14.2V42.5z
					 M112.1,48.5v-2.7H98v2.7H112.1z M98,49.2v2.7h14.2v-2.7H98z M99.8,38.8h10.5v-3.4H99.8V38.8z M107,53.5
					c10.4,0,13.5,1.9,13.5,3.3c0,0.9-1.1,1.5-2.3,1.5c-0.6,0-1.2-0.1-1.8-0.5c-1.8-1.3-5-2.9-9.5-3.9L107,53.5z"/>
				
					<linearGradient id="SVGID_5_" gradientUnits="userSpaceOnUse" x1="-101.0222" y1="-99.269" x2="158.2284" y2="94.6378" gradientTransform="matrix(1 0 0 1 -1 0)">
					<stop  offset="0" style="stop-color:#FAC859"/>
					<stop  offset="2.877487e-03" style="stop-color:#FACB64"/>
					<stop  offset="9.516122e-03" style="stop-color:#FBD176"/>
					<stop  offset="1.745736e-02" style="stop-color:#FCD582"/>
					<stop  offset="2.788930e-02" style="stop-color:#FCD78A"/>
					<stop  offset="5.042250e-02" style="stop-color:#FCD88C"/>
					<stop  offset="6.442444e-02" style="stop-color:#FCD681"/>
					<stop  offset="8.918270e-02" style="stop-color:#FBD163"/>
					<stop  offset="0.1216" style="stop-color:#FACA33"/>
					<stop  offset="0.1355" style="stop-color:#FAC61C"/>
					<stop  offset="0.1458" style="stop-color:#E6B417"/>
					<stop  offset="0.1638" style="stop-color:#C99B11"/>
					<stop  offset="0.184" style="stop-color:#B2860B"/>
					<stop  offset="0.207" style="stop-color:#9F7607"/>
					<stop  offset="0.2343" style="stop-color:#936A04"/>
					<stop  offset="0.2701" style="stop-color:#8B6402"/>
					<stop  offset="0.3475" style="stop-color:#896202"/>
					<stop  offset="0.6179" style="stop-color:#FAC859"/>
					<stop  offset="0.651" style="stop-color:#FACC64"/>
					<stop  offset="0.7093" style="stop-color:#FCD582"/>
					<stop  offset="0.7267" style="stop-color:#FCD88C"/>
					<stop  offset="0.7501" style="stop-color:#FCD481"/>
					<stop  offset="0.7914" style="stop-color:#FACB63"/>
					<stop  offset="0.8037" style="stop-color:#FAC859"/>
					<stop  offset="0.811" style="stop-color:#F2C153"/>
					<stop  offset="0.85" style="stop-color:#CC9F36"/>
					<stop  offset="0.8888" style="stop-color:#AF841F"/>
					<stop  offset="0.9271" style="stop-color:#9A710F"/>
					<stop  offset="0.9645" style="stop-color:#8D6605"/>
					<stop  offset="1" style="stop-color:#896202"/>
				</linearGradient>
				<path class="st3" d="M130.9,44.1c1.3,0,3.1,0,4.5,0c0.6-1.5,1.3-3.4,1.8-5H131c-0.1,6.3-1.1,13.9-7.4,19.3l-0.4-0.3
					c3.8-6.2,4.1-13.9,4.1-20.9V26.7l4.3,1.6h17.3l1.4-1.9l4,2.8c-0.2,0.3-0.7,0.6-1.4,0.7v5.3c0,0.1-1.1,0.9-3.7,0.9v-1.3H131v3.6
					h18.3l2-2.4l3.7,2.4c-0.3,0.5-0.7,0.6-1.7,0.6h-11.5c-1.4,1.7-3.2,3.5-4.8,5c3.1-0.1,6.8-0.1,10.7-0.2c-1.1-1-2.3-2-3.4-2.6
					l0.2-0.3c6.4,0.4,8.5,2.9,8.5,4.7c0,1-0.7,1.9-1.7,1.9c-0.4,0-0.8-0.1-1.2-0.4c-0.4-0.8-1-1.6-1.7-2.4
					c-3.4,0.7-8.1,1.5-14.7,2.7c-0.2,0.4-0.6,0.7-1,0.7L130.9,44.1z M152.1,54l3.6,2.7c-0.3,0.4-0.7,0.6-1.7,0.6h-25.2l-0.2-0.7
					h11.5v-5.4h-8.9l-0.2-0.7h9v-4l4.9,0.4c-0.1,0.4-0.4,0.7-1.3,0.8v2.8h4.7l1.9-2.4l3.5,2.5c-0.2,0.4-0.7,0.6-1.7,0.6h-8.5v5.4
					h6.4L152.1,54z M149.2,29H131v5.2h18.2V29z"/>
			</g>
		</g>
	</g>
	<g>
		<path class="st4" d="M1.5,4.3c0-2.2,0-2.6,0-3c0-0.5-0.1-0.7-0.6-0.8c-0.1,0-0.4,0-0.5,0c0,0-0.1-0.1-0.1-0.1
			c0-0.1,0.1-0.1,0.2-0.1c0.7,0,1.6,0,1.7,0c0.1,0,1.4,0,1.8,0C5,0.3,6,0.3,6.7,0.9c0.4,0.3,1,0.9,1,1.9c0,1-0.4,2-1.8,3.2
			c1.2,1.5,2.2,2.7,3,3.6c0.8,0.8,1.2,0.9,1.6,1c0.3,0,0.4,0,0.5,0c0.1,0,0.1,0.1,0.1,0.1c0,0.1-0.1,0.1-0.3,0.1H10
			c-0.8,0-1.2-0.1-1.5-0.3c-0.6-0.3-1.1-1-2-2c-0.6-0.8-1.2-1.7-1.6-2C4.8,6.4,4.8,6.3,4.7,6.3l-1.8,0c-0.1,0-0.1,0-0.1,0.1v0.3
			c0,1.3,0,2.4,0.1,3c0,0.4,0.1,0.7,0.6,0.7c0.2,0,0.5,0.1,0.6,0.1c0.1,0,0.1,0.1,0.1,0.1c0,0.1-0.1,0.1-0.2,0.1c-0.8,0-1.7,0-1.8,0
			c0,0-1,0-1.4,0c-0.1,0-0.2,0-0.2-0.1c0,0,0-0.1,0.1-0.1c0.1,0,0.3,0,0.4-0.1c0.3-0.1,0.3-0.3,0.4-0.7c0.1-0.6,0.1-1.7,0.1-3V4.3z
			 M2.8,5.5c0,0.1,0,0.1,0.1,0.2c0.2,0.1,0.9,0.2,1.6,0.2c0.3,0,0.7,0,1.1-0.2C6,5.3,6.4,4.5,6.4,3.5c0-1.7-0.9-2.7-2.5-2.7
			c-0.4,0-0.9,0-1,0.1C2.8,0.9,2.8,0.9,2.8,1V5.5z"/>
		<path class="st4" d="M19.1,4.3c0-2.2,0-2.6,0-3c0-0.5-0.1-0.7-0.6-0.8c-0.1,0-0.4,0-0.5,0c0,0-0.1-0.1-0.1-0.1
			c0-0.1,0.1-0.1,0.2-0.1c0.7,0,1.6,0,1.7,0c0.1,0,3.1,0,3.4,0c0.3,0,0.5-0.1,0.7-0.1c0.1,0,0.1-0.1,0.2-0.1c0,0,0.1,0.1,0.1,0.1
			c0,0.1-0.1,0.3-0.1,0.7c0,0.1,0,0.8-0.1,0.9c0,0.1-0.1,0.1-0.1,0.1c-0.1,0-0.1-0.1-0.1-0.2c0-0.1,0-0.3-0.1-0.5
			c-0.1-0.2-0.2-0.3-1-0.4c-0.2,0-1.9,0-2.1,0c-0.1,0-0.1,0-0.1,0.1v3.8c0,0.1,0,0.1,0.1,0.1c0.2,0,2.1,0,2.4,0c0.3,0,0.6,0,0.7-0.2
			c0.1-0.1,0.2-0.2,0.2-0.2c0,0,0.1,0,0.1,0.1s-0.1,0.3-0.1,0.8c0,0.3-0.1,0.8-0.1,0.9c0,0.1,0,0.3-0.1,0.3c-0.1,0-0.1,0-0.1-0.1
			c0-0.1,0-0.3-0.1-0.5c0-0.2-0.2-0.4-0.7-0.4c-0.4,0-1.9-0.1-2.2-0.1c-0.1,0-0.1,0-0.1,0.1v1.2c0,0.5,0,2.1,0,2.4
			c0,0.9,0.3,1.1,1.7,1.1c0.4,0,1.1,0,1.4-0.1c0.4-0.2,0.6-0.4,0.7-1c0-0.2,0.1-0.2,0.1-0.2s0.1,0.1,0.1,0.2c0,0.1-0.1,1-0.2,1.3
			c-0.1,0.4-0.2,0.4-0.8,0.4c-1.1,0-1.9,0-2.5,0c-0.6,0-1,0-1.2,0c0,0-0.3,0-0.6,0c-0.3,0-0.6,0-0.8,0c-0.1,0-0.2,0-0.2-0.1
			c0,0,0-0.1,0.1-0.1c0.1,0,0.3,0,0.4-0.1c0.3,0,0.3-0.3,0.4-0.7c0.1-0.6,0.1-1.7,0.1-3V4.3z"/>
		<path class="st4" d="M33.4,10.6c-0.2-0.1-0.2-0.1-0.2-0.5c0-0.7,0.1-1.2,0.1-1.5c0-0.1,0-0.2,0.1-0.2s0.1,0,0.1,0.2
			c0,0.1,0,0.3,0,0.5c0.2,1,1.3,1.4,2.3,1.4c1.4,0,2.2-0.8,2.2-1.8c0-1-0.5-1.5-1.8-2.4l-0.7-0.5c-1.6-1.2-2.1-2-2.1-3
			C33.5,1,34.8,0,36.7,0c0.6,0,1.1,0.1,1.5,0.2c0.3,0.1,0.4,0.1,0.5,0.1c0.1,0,0.1,0,0.1,0.1c0,0.1-0.1,0.5-0.1,1.5
			c0,0.2,0,0.3-0.1,0.3c-0.1,0-0.1-0.1-0.1-0.2c0-0.2-0.1-0.5-0.2-0.7c-0.1-0.2-0.6-0.7-1.9-0.7c-1,0-1.9,0.5-1.9,1.5
			c0,0.9,0.4,1.4,1.9,2.4l0.4,0.3c1.8,1.2,2.4,2.2,2.4,3.4c0,0.8-0.3,1.7-1.3,2.4c-0.6,0.4-1.5,0.5-2.3,0.5
			C34.8,11,34,10.9,33.4,10.6z"/>
		<path class="st4" d="M49.4,4.3c0-2.2,0-2.6,0-3c0-0.5-0.1-0.7-0.6-0.8c-0.1,0-0.4,0-0.5,0c0,0-0.1-0.1-0.1-0.1
			c0-0.1,0.1-0.1,0.2-0.1c0.7,0,1.6,0,1.7,0c0.1,0,3.1,0,3.4,0c0.3,0,0.5-0.1,0.7-0.1c0.1,0,0.1-0.1,0.2-0.1c0,0,0.1,0.1,0.1,0.1
			c0,0.1-0.1,0.3-0.1,0.7c0,0.1,0,0.8-0.1,0.9c0,0.1-0.1,0.1-0.1,0.1C54,2,54,1.9,54,1.8c0-0.1,0-0.3-0.1-0.5
			c-0.1-0.2-0.2-0.3-1-0.4c-0.2,0-1.9,0-2.1,0c-0.1,0-0.1,0-0.1,0.1v3.8c0,0.1,0,0.1,0.1,0.1c0.2,0,2.1,0,2.4,0c0.3,0,0.6,0,0.7-0.2
			c0.1-0.1,0.2-0.2,0.2-0.2c0,0,0.1,0,0.1,0.1s-0.1,0.3-0.1,0.8c0,0.3-0.1,0.8-0.1,0.9c0,0.1,0,0.3-0.1,0.3c-0.1,0-0.1,0-0.1-0.1
			c0-0.1,0-0.3-0.1-0.5c0-0.2-0.2-0.4-0.7-0.4c-0.4,0-1.9-0.1-2.2-0.1c-0.1,0-0.1,0-0.1,0.1v1.2c0,0.5,0,2.1,0,2.4
			c0,0.9,0.3,1.1,1.7,1.1c0.4,0,1.1,0,1.4-0.1c0.4-0.2,0.6-0.4,0.7-1c0-0.2,0.1-0.2,0.1-0.2s0.1,0.1,0.1,0.2c0,0.1-0.1,1-0.2,1.3
			c-0.1,0.4-0.2,0.4-0.8,0.4c-1.1,0-1.9,0-2.5,0c-0.6,0-1,0-1.2,0c0,0-0.3,0-0.6,0c-0.3,0-0.6,0-0.8,0c-0.1,0-0.2,0-0.2-0.1
			c0,0,0-0.1,0.1-0.1c0.1,0,0.3,0,0.4-0.1c0.3,0,0.3-0.3,0.4-0.7c0.1-0.6,0.1-1.7,0.1-3V4.3z"/>
		<path class="st4" d="M65,4.3c0-2.2,0-2.6,0-3c0-0.5-0.1-0.7-0.6-0.8c-0.1,0-0.4,0-0.5,0c0,0-0.1-0.1-0.1-0.1
			c0-0.1,0.1-0.1,0.2-0.1c0.7,0,1.6,0,1.7,0c0.1,0,1.4,0,1.8,0c0.9,0,1.9,0.1,2.7,0.6c0.4,0.3,1,0.9,1,1.9c0,1-0.4,2-1.8,3.2
			c1.2,1.5,2.2,2.7,3,3.6c0.8,0.8,1.2,0.9,1.6,1c0.3,0,0.4,0,0.5,0c0.1,0,0.1,0.1,0.1,0.1c0,0.1-0.1,0.1-0.3,0.1h-0.9
			c-0.8,0-1.2-0.1-1.5-0.3c-0.6-0.3-1.1-1-2-2c-0.6-0.8-1.2-1.7-1.6-2c-0.1-0.1-0.1-0.1-0.2-0.1l-1.8,0c-0.1,0-0.1,0-0.1,0.1v0.3
			c0,1.3,0,2.4,0.1,3c0,0.4,0.1,0.7,0.6,0.7c0.2,0,0.5,0.1,0.6,0.1c0.1,0,0.1,0.1,0.1,0.1c0,0.1-0.1,0.1-0.2,0.1c-0.8,0-1.7,0-1.8,0
			c0,0-1,0-1.4,0c-0.1,0-0.2,0-0.2-0.1c0,0,0-0.1,0.1-0.1c0.1,0,0.3,0,0.4-0.1c0.3-0.1,0.3-0.3,0.4-0.7C65,9.2,65,8.1,65,6.7V4.3z
			 M66.2,5.5c0,0.1,0,0.1,0.1,0.2c0.2,0.1,0.9,0.2,1.6,0.2c0.3,0,0.7,0,1.1-0.2c0.5-0.3,0.9-1.1,0.9-2.1c0-1.7-0.9-2.7-2.5-2.7
			c-0.4,0-0.9,0-1,0.1c-0.1,0-0.1,0.1-0.1,0.2V5.5z"/>
		<path class="st4" d="M85.3,9c0.8-1.9,2.7-6.6,3-7.6c0.1-0.2,0.1-0.4,0.1-0.5c0-0.1,0-0.2-0.2-0.3c-0.2,0-0.3,0-0.5,0
			c-0.1,0-0.2,0-0.2-0.1c0-0.1,0.1-0.1,0.3-0.1c0.6,0,1.2,0,1.4,0c0.1,0,0.7,0,1.1,0c0.1,0,0.2,0,0.2,0.1s0,0.1-0.2,0.1
			c-0.1,0-0.4,0-0.7,0.2C89.6,0.8,89.4,1,89,1.9c-0.2,0.4-0.9,2.1-1.6,3.8c-0.9,2-1.5,3.5-1.8,4.2c-0.4,0.8-0.5,1-0.6,1
			c-0.2,0-0.3-0.2-0.5-0.9l-3.5-8.5c-0.3-0.8-0.5-0.9-1-1c-0.2,0-0.5,0-0.6,0c-0.1,0-0.1-0.1-0.1-0.1c0-0.1,0.1-0.1,0.4-0.1
			c0.7,0,1.5,0,1.7,0c0.1,0,0.8,0,1.3,0c0.3,0,0.4,0,0.4,0.1s0,0.1-0.1,0.1c-0.2,0-0.4,0-0.5,0.1c-0.1,0.1-0.2,0.1-0.2,0.2
			c0,0.2,0.2,0.6,0.4,1.2L85.3,9z"/>
		<path class="st4" d="M100.4,0.5c0.2-0.5,0.2-0.5,0.3-0.5c0.1,0,0.2,0.2,0.3,0.5c0.3,0.6,2.6,6.3,3.5,8.4c0.5,1.2,0.9,1.4,1.2,1.5
			c0.2,0.1,0.4,0.1,0.6,0.1c0.1,0,0.2,0,0.2,0.1c0,0.1-0.2,0.1-0.3,0.1c-0.2,0-1.3,0-2.3,0c-0.3,0-0.5,0-0.5-0.1
			c0-0.1,0-0.1,0.1-0.1c0.1,0,0.2-0.1,0.1-0.4L102.4,7c0-0.1,0-0.1-0.1-0.1h-3.3c-0.1,0-0.1,0-0.1,0.1L98,9.2
			c-0.1,0.3-0.2,0.7-0.2,0.9c0,0.3,0.2,0.4,0.5,0.4h0.1c0.1,0,0.1,0,0.1,0.1c0,0.1-0.1,0.1-0.2,0.1c-0.3,0-1.1,0-1.3,0
			c-0.1,0-0.9,0-1.5,0c-0.2,0-0.3,0-0.3-0.1c0-0.1,0.1-0.1,0.1-0.1c0.1,0,0.3,0,0.4,0c0.7-0.1,0.9-0.6,1.2-1.3L100.4,0.5z M102,6.3
			C102.1,6.3,102.1,6.3,102,6.3l-1.4-3.9c-0.1-0.2-0.2-0.2-0.2,0l-1.3,3.8c0,0.1,0,0.1,0,0.1H102z"/>
		<path class="st4" d="M117.1,6.7c0,1.3,0,2.4,0.1,3c0,0.4,0.1,0.7,0.6,0.7c0.2,0,0.5,0.1,0.7,0.1c0.1,0,0.1,0.1,0.1,0.1
			c0,0.1-0.1,0.1-0.2,0.1c-0.8,0-1.7,0-1.8,0c-0.1,0-1.1,0-1.5,0c-0.2,0-0.2,0-0.2-0.1c0,0,0-0.1,0.1-0.1c0.1,0,0.3,0,0.4-0.1
			c0.3-0.1,0.4-0.3,0.4-0.8c0.1-0.6,0.1-1.7,0.1-3V0.9l-2.1,0c-0.9,0-1.2,0.1-1.5,0.4c-0.2,0.2-0.2,0.3-0.2,0.4
			c0,0.1-0.1,0.1-0.1,0.1c0,0-0.1,0-0.1-0.1c0-0.1,0.3-1.4,0.3-1.5c0-0.1,0.1-0.3,0.1-0.3c0.1,0,0.2,0.1,0.6,0.2
			c0.4,0,1,0.1,1.1,0.1h5.4c0.5,0,0.8,0,1-0.1c0.2,0,0.3-0.1,0.4-0.1s0.1,0.1,0.1,0.2c0,0.4,0,1.4,0,1.6c0,0.1-0.1,0.2-0.1,0.2
			s-0.1,0-0.1-0.2l0-0.1c0-0.4-0.4-0.7-1.7-0.8l-1.8,0V6.7z"/>
		<path class="st4" d="M131.8,6.7c0,1.3,0,2.4,0.1,3c0,0.4,0.1,0.7,0.5,0.7c0.2,0,0.5,0.1,0.7,0.1c0.1,0,0.1,0.1,0.1,0.1
			c0,0.1-0.1,0.1-0.2,0.1c-0.8,0-1.7,0-1.8,0c-0.1,0-1,0-1.4,0c-0.1,0-0.2,0-0.2-0.1c0,0,0-0.1,0.1-0.1c0.1,0,0.3,0,0.4-0.1
			c0.3-0.1,0.3-0.3,0.4-0.7c0.1-0.6,0.1-1.7,0.1-3V4.3c0-2.2,0-2.6,0-3c0-0.5-0.1-0.7-0.5-0.8c-0.2,0-0.3,0-0.4,0
			c-0.1,0-0.1-0.1-0.1-0.1c0-0.1,0.1-0.1,0.2-0.1c0.5,0,1.4,0,1.5,0c0.1,0,1,0,1.4,0c0.2,0,0.2,0,0.2,0.1c0,0-0.1,0.1-0.1,0.1
			c-0.1,0-0.2,0-0.4,0c-0.4,0.1-0.5,0.3-0.5,0.8c0,0.4,0,0.8,0,3V6.7z"/>
		<path class="st4" d="M147.2,0.1c3.2,0,5.7,2,5.7,5.2c0,3.1-2.3,5.7-5.8,5.7c-3.9,0-5.6-3-5.6-5.5C141.5,3.3,143.2,0.1,147.2,0.1z
			 M147.5,10.4c1.3,0,3.9-0.7,3.9-4.7c0-3.3-2-5.1-4.3-5.1c-2.4,0-4.1,1.5-4.1,4.5C143,8.4,144.9,10.4,147.5,10.4z"/>
		<path class="st4" d="M163.1,8.9c0,1.1,0.2,1.5,0.6,1.6c0.3,0.1,0.6,0.1,0.7,0.1c0.1,0,0.1,0,0.1,0.1c0,0.1-0.1,0.1-0.3,0.1
			c-0.8,0-1.4,0-1.5,0s-0.7,0-1.4,0c-0.1,0-0.2,0-0.2-0.1c0-0.1,0-0.1,0.1-0.1c0.1,0,0.4,0,0.6-0.1c0.4-0.1,0.4-0.5,0.4-1.7v-8
			c0-0.6,0.1-0.7,0.2-0.7c0.2,0,0.4,0.3,0.6,0.4c0.2,0.2,2.3,2.5,4.5,4.7c1.4,1.5,3,3.1,3.4,3.6l-0.1-7c0-0.9-0.1-1.2-0.5-1.3
			c-0.3,0-0.6-0.1-0.7-0.1c-0.1,0-0.1-0.1-0.1-0.1c0-0.1,0.1-0.1,0.3-0.1c0.7,0,1.3,0,1.5,0c0.2,0,0.6,0,1.2,0c0.1,0,0.3,0,0.3,0.1
			c0,0-0.1,0.1-0.2,0.1c-0.1,0-0.2,0-0.3,0c-0.5,0.1-0.5,0.4-0.5,1.2l0,8.1c0,0.9,0,1-0.1,1c-0.1,0-0.3-0.1-1.1-0.9
			c-0.1-0.1-2.2-2.2-3.7-3.8c-1.7-1.8-3.3-3.5-3.7-3.9L163.1,8.9z"/>
	</g>
</g>
</svg>
