<?xml version="1.0" encoding="utf-8"?>
<!-- Generator: Adobe Illustrator 25.2.3, SVG Export Plug-In . SVG Version: 6.00 Build 0)  -->
<svg version="1.1" id="section8_title.svg" xmlns="http://www.w3.org/2000/svg" xmlns:xlink="http://www.w3.org/1999/xlink" x="0px"
	 y="0px" viewBox="0 0 309 80" style="enable-background:new 0 0 309 80;" xml:space="preserve">
<style type="text/css">
	.繪圖樣式{fill:url(#SVGID_1_);}
	.st0{fill:url(#SVGID_2_);}
	.st1{fill:url(#SVGID_3_);}
	.st2{fill:url(#SVGID_4_);}
	.st3{fill:url(#SVGID_5_);}
	.st4{fill:url(#SVGID_6_);}
	.st5{fill:url(#SVGID_7_);}
	.st6{fill:url(#SVGID_8_);}
	.st7{fill:url(#SVGID_9_);}
	.st8{fill:url(#SVGID_10_);}
	.st9{fill:url(#SVGID_11_);}
	.st10{fill:#FFFFFF;}
</style>
<linearGradient id="SVGID_1_" gradientUnits="userSpaceOnUse" x1="0" y1="80" x2="0.8008" y2="80.599">
	<stop  offset="0" style="stop-color:#FAC859"/>
	<stop  offset="2.877487e-03" style="stop-color:#FACB64"/>
	<stop  offset="9.516122e-03" style="stop-color:#FBD176"/>
	<stop  offset="1.745736e-02" style="stop-color:#FCD582"/>
	<stop  offset="2.788930e-02" style="stop-color:#FCD78A"/>
	<stop  offset="5.042250e-02" style="stop-color:#FCD88C"/>
	<stop  offset="6.442444e-02" style="stop-color:#FCD681"/>
	<stop  offset="8.918270e-02" style="stop-color:#FBD163"/>
	<stop  offset="0.1216" style="stop-color:#FACA33"/>
	<stop  offset="0.1355" style="stop-color:#FAC61C"/>
	<stop  offset="0.1458" style="stop-color:#E6B417"/>
	<stop  offset="0.1638" style="stop-color:#C99B11"/>
	<stop  offset="0.184" style="stop-color:#B2860B"/>
	<stop  offset="0.207" style="stop-color:#9F7607"/>
	<stop  offset="0.2343" style="stop-color:#936A04"/>
	<stop  offset="0.2701" style="stop-color:#8B6402"/>
	<stop  offset="0.3475" style="stop-color:#896202"/>
	<stop  offset="0.6179" style="stop-color:#FAC859"/>
	<stop  offset="0.651" style="stop-color:#FACC64"/>
	<stop  offset="0.7093" style="stop-color:#FCD582"/>
	<stop  offset="0.7267" style="stop-color:#FCD88C"/>
	<stop  offset="0.7501" style="stop-color:#FCD481"/>
	<stop  offset="0.7914" style="stop-color:#FACB63"/>
	<stop  offset="0.8037" style="stop-color:#FAC859"/>
	<stop  offset="0.811" style="stop-color:#F2C153"/>
	<stop  offset="0.85" style="stop-color:#CC9F36"/>
	<stop  offset="0.8888" style="stop-color:#AF841F"/>
	<stop  offset="0.9271" style="stop-color:#9A710F"/>
	<stop  offset="0.9645" style="stop-color:#8D6605"/>
	<stop  offset="1" style="stop-color:#896202"/>
</linearGradient>
<g>
	<g>
		
			<image style="overflow:visible;opacity:0.4;" width="310" height="43" xlink:href="C7D1599850D08999.png"  transform="matrix(1 0 0 1 2.3895 38.3895)">
		</image>
		<g>
			<g>
				
					<linearGradient id="SVGID_2_" gradientUnits="userSpaceOnUse" x1="-234.6887" y1="-231.2361" x2="298.5211" y2="167.5788" gradientTransform="matrix(1 0 0 1 -2.3586 -2.3586)">
					<stop  offset="0" style="stop-color:#FAC859"/>
					<stop  offset="2.877487e-03" style="stop-color:#FACB64"/>
					<stop  offset="9.516122e-03" style="stop-color:#FBD176"/>
					<stop  offset="1.745736e-02" style="stop-color:#FCD582"/>
					<stop  offset="2.788930e-02" style="stop-color:#FCD78A"/>
					<stop  offset="5.042250e-02" style="stop-color:#FCD88C"/>
					<stop  offset="6.442444e-02" style="stop-color:#FCD681"/>
					<stop  offset="8.918270e-02" style="stop-color:#FBD163"/>
					<stop  offset="0.1216" style="stop-color:#FACA33"/>
					<stop  offset="0.1355" style="stop-color:#FAC61C"/>
					<stop  offset="0.1458" style="stop-color:#E6B417"/>
					<stop  offset="0.1638" style="stop-color:#C99B11"/>
					<stop  offset="0.184" style="stop-color:#B2860B"/>
					<stop  offset="0.207" style="stop-color:#9F7607"/>
					<stop  offset="0.2343" style="stop-color:#936A04"/>
					<stop  offset="0.2701" style="stop-color:#8B6402"/>
					<stop  offset="0.3475" style="stop-color:#896202"/>
					<stop  offset="0.6179" style="stop-color:#FAC859"/>
					<stop  offset="0.651" style="stop-color:#FACC64"/>
					<stop  offset="0.7093" style="stop-color:#FCD582"/>
					<stop  offset="0.7267" style="stop-color:#FCD88C"/>
					<stop  offset="0.7501" style="stop-color:#FCD481"/>
					<stop  offset="0.7914" style="stop-color:#FACB63"/>
					<stop  offset="0.8037" style="stop-color:#FAC859"/>
					<stop  offset="0.811" style="stop-color:#F2C153"/>
					<stop  offset="0.85" style="stop-color:#CC9F36"/>
					<stop  offset="0.8888" style="stop-color:#AF841F"/>
					<stop  offset="0.9271" style="stop-color:#9A710F"/>
					<stop  offset="0.9645" style="stop-color:#8D6605"/>
					<stop  offset="1" style="stop-color:#896202"/>
				</linearGradient>
				<path class="st0" d="M32,42.6l3.8,2.8c-0.2,0.3-0.8,0.6-1.4,0.7v26.6c0,0.1-1,1.1-3.5,1.1v-2.3H8.9v1.2c0,0.1-0.3,1.4-3.4,1.4
					V43l3.8,1.6h21.2L32,42.6z M8.9,70.9h21.9V45.2H8.9V70.9z M9.7,64.1c1.9-0.2,6.2-0.9,10.5-1.6l0.1,0.5c-1.8,0.9-4.4,2.1-8.1,3.7
					c-0.2,0.4-0.4,0.7-0.8,0.8L9.7,64.1z M30.2,51.1c-0.2,0.5-0.7,0.6-1.6,0.6h-5.8c0.1,2.6,0.4,5.1,1,7.3c0.8-1.7,1.4-3.5,1.9-5.4
					l4,1.4c-0.2,0.4-0.5,0.6-1.4,0.6c-0.9,2.6-2.1,4.8-3.5,6.7c1.1,2.3,2.3,3.4,2.4,3.4c0.3,0,1.3-2.5,1.7-3.8l0.3,0.1l-0.5,4.5
					c0.6,1,0.9,1.6,0.9,2.1c0,0.7-0.7,1.1-1.4,1.1c-2.8,0-5.1-4.4-5.4-5c-2.1,2.2-4.6,3.8-7.4,4.9L15.1,69c2.5-1.4,4.9-3.7,6.8-6.6
					c-1.2-3.1-1.7-6.8-1.9-10.7h-10L9.8,51h10.1c-0.1-1.5-0.1-3.1-0.1-4.8l4.3,0.4c-0.1,0.4-0.3,0.6-1.3,0.8c0,1.2,0,2.4,0,3.6h2.7
					l1.2-1.6c-0.2-0.1-0.4-0.2-0.6-0.4c-0.2-0.9-0.8-1.8-1.5-2.3l0.2-0.3c2.9,0.1,3.9,1,3.9,1.8c0,0.6-0.4,1-0.9,1.2L30.2,51.1z
					 M18.8,60.5c0,0.3-1.2,0.9-2.1,0.9h-0.4v-1.3h-2.7v1.2c0,0-0.3,0.8-2.4,0.8v-8.6l2.6,1.1H16l1-1.2l2.8,1.9
					c-0.1,0.2-0.6,0.4-1,0.5V60.5z M13.6,59.4h2.7v-4h-2.7V59.4z"/>
				
					<linearGradient id="SVGID_3_" gradientUnits="userSpaceOnUse" x1="-234.6887" y1="-231.2361" x2="298.5211" y2="167.5788" gradientTransform="matrix(1 0 0 1 -2.3586 -2.3586)">
					<stop  offset="0" style="stop-color:#FAC859"/>
					<stop  offset="2.877487e-03" style="stop-color:#FACB64"/>
					<stop  offset="9.516122e-03" style="stop-color:#FBD176"/>
					<stop  offset="1.745736e-02" style="stop-color:#FCD582"/>
					<stop  offset="2.788930e-02" style="stop-color:#FCD78A"/>
					<stop  offset="5.042250e-02" style="stop-color:#FCD88C"/>
					<stop  offset="6.442444e-02" style="stop-color:#FCD681"/>
					<stop  offset="8.918270e-02" style="stop-color:#FBD163"/>
					<stop  offset="0.1216" style="stop-color:#FACA33"/>
					<stop  offset="0.1355" style="stop-color:#FAC61C"/>
					<stop  offset="0.1458" style="stop-color:#E6B417"/>
					<stop  offset="0.1638" style="stop-color:#C99B11"/>
					<stop  offset="0.184" style="stop-color:#B2860B"/>
					<stop  offset="0.207" style="stop-color:#9F7607"/>
					<stop  offset="0.2343" style="stop-color:#936A04"/>
					<stop  offset="0.2701" style="stop-color:#8B6402"/>
					<stop  offset="0.3475" style="stop-color:#896202"/>
					<stop  offset="0.6179" style="stop-color:#FAC859"/>
					<stop  offset="0.651" style="stop-color:#FACC64"/>
					<stop  offset="0.7093" style="stop-color:#FCD582"/>
					<stop  offset="0.7267" style="stop-color:#FCD88C"/>
					<stop  offset="0.7501" style="stop-color:#FCD481"/>
					<stop  offset="0.7914" style="stop-color:#FACB63"/>
					<stop  offset="0.8037" style="stop-color:#FAC859"/>
					<stop  offset="0.811" style="stop-color:#F2C153"/>
					<stop  offset="0.85" style="stop-color:#CC9F36"/>
					<stop  offset="0.8888" style="stop-color:#AF841F"/>
					<stop  offset="0.9271" style="stop-color:#9A710F"/>
					<stop  offset="0.9645" style="stop-color:#8D6605"/>
					<stop  offset="1" style="stop-color:#896202"/>
				</linearGradient>
				<path class="st1" d="M57.6,44l2.9,2.5c-0.2,0.3-0.6,0.4-1.3,0.4c-1.5,5-4.8,9.6-10.5,12.5C49,60.7,49,61.4,49,62
					c0,3.3-1.1,5.2-4.4,5.5c0-2.1-0.6-2.4-1.7-2.7v8.4c0,0.2-1,1.1-2.6,1.1h-0.6V42.8l3.6,1.4h1.8l1.8-1.9l3.2,3.2
					c-0.3,0.3-0.7,0.4-1.5,0.4c-0.9,2-2.8,5.8-4.1,7.9c1.9,1.6,3.2,3.2,4,4.9c3-2.2,5.1-5.2,6.5-8.5c-0.2,0.2-0.6,0.3-0.9,0.3
					c-0.3,0-0.7-0.1-1-0.4c-0.1-0.7-0.4-1.4-0.9-2c-0.6,0.7-1.1,1.4-1.7,2.1c2.1,0.6,2.8,1.5,2.8,2.3c0,0.7-0.6,1.3-1.3,1.3
					c-0.3,0-0.7-0.2-1-0.5c0-0.9-0.4-1.9-1-2.6c-0.7,0.7-1.4,1.3-2.2,1.8l-0.4-0.3c2.2-2.4,3.9-6.8,4.6-10.5l4.3,0.6
					C56,42.8,55.7,43,54.9,43c-0.3,0.9-0.8,1.8-1.2,2.7h2.2L57.6,44z M42.9,64.3h1.7c1.1,0,1.3-1.3,1.3-2.6c0-2.6-0.6-5.2-2.1-7.6
					c0.5-2.2,1.2-6.5,1.6-9.1h-2.5V64.3z M46.9,72.4c2.4-1.9,4.7-5.4,5.8-8l4,2c-0.1,0.2-0.3,0.3-0.7,0.3c-0.1,0-0.3,0-0.4,0
					c-1.7,2.2-5.2,4.9-8.4,6.2L46.9,72.4z M69.4,62.1c-0.3,0.4-0.7,0.6-1.6,0.6h-6.3v7.5c0,2.3-0.6,3.8-4.4,4.1
					c0-2.5-0.8-2.9-3.1-3.2v-0.4h3.5c0.3,0,0.5-0.1,0.5-0.5v-7.4h-7.4L50.4,62H64l1.9-2.5L69.4,62.1z M52.5,47.7
					c1.9,0.3,2.7,1,2.8,1.7c0.3-1,0.7-2,0.9-3.1h-2.8L52.5,47.7z M53.4,56.9h6.8l1.7-2.3L65,57c-0.2,0.4-0.7,0.6-1.6,0.6h-9.8
					L53.4,56.9z M67.6,43.9l3.1,2.9c-0.2,0.3-0.7,0.3-1.3,0.4c-1,1.4-2.8,3.2-4.3,4.4c1.7,1.9,3.7,3.3,5.9,4.4l-0.1,0.3
					c-1.3,0.2-2.3,1.1-2.9,2.7c-4.3-3.4-6.8-8.3-7.9-15.9l0.6-0.2c0.7,3.2,2.1,5.9,3.8,8.1c0.6-1.3,1.3-3.2,1.6-4.7h-3.7l-0.2-0.7
					h3.7L67.6,43.9z M63.1,64.9c5.3,1.4,7,3.9,7,5.6c0,1.2-0.8,2.1-1.8,2.1c-0.5,0-1-0.2-1.4-0.7c-0.4-2.2-2.2-5.1-4.1-6.8
					L63.1,64.9z"/>
				
					<linearGradient id="SVGID_4_" gradientUnits="userSpaceOnUse" x1="-234.6887" y1="-231.2361" x2="298.5211" y2="167.5788" gradientTransform="matrix(1 0 0 1 -2.3586 -2.3586)">
					<stop  offset="0" style="stop-color:#FAC859"/>
					<stop  offset="2.877487e-03" style="stop-color:#FACB64"/>
					<stop  offset="9.516122e-03" style="stop-color:#FBD176"/>
					<stop  offset="1.745736e-02" style="stop-color:#FCD582"/>
					<stop  offset="2.788930e-02" style="stop-color:#FCD78A"/>
					<stop  offset="5.042250e-02" style="stop-color:#FCD88C"/>
					<stop  offset="6.442444e-02" style="stop-color:#FCD681"/>
					<stop  offset="8.918270e-02" style="stop-color:#FBD163"/>
					<stop  offset="0.1216" style="stop-color:#FACA33"/>
					<stop  offset="0.1355" style="stop-color:#FAC61C"/>
					<stop  offset="0.1458" style="stop-color:#E6B417"/>
					<stop  offset="0.1638" style="stop-color:#C99B11"/>
					<stop  offset="0.184" style="stop-color:#B2860B"/>
					<stop  offset="0.207" style="stop-color:#9F7607"/>
					<stop  offset="0.2343" style="stop-color:#936A04"/>
					<stop  offset="0.2701" style="stop-color:#8B6402"/>
					<stop  offset="0.3475" style="stop-color:#896202"/>
					<stop  offset="0.6179" style="stop-color:#FAC859"/>
					<stop  offset="0.651" style="stop-color:#FACC64"/>
					<stop  offset="0.7093" style="stop-color:#FCD582"/>
					<stop  offset="0.7267" style="stop-color:#FCD88C"/>
					<stop  offset="0.7501" style="stop-color:#FCD481"/>
					<stop  offset="0.7914" style="stop-color:#FACB63"/>
					<stop  offset="0.8037" style="stop-color:#FAC859"/>
					<stop  offset="0.811" style="stop-color:#F2C153"/>
					<stop  offset="0.85" style="stop-color:#CC9F36"/>
					<stop  offset="0.8888" style="stop-color:#AF841F"/>
					<stop  offset="0.9271" style="stop-color:#9A710F"/>
					<stop  offset="0.9645" style="stop-color:#8D6605"/>
					<stop  offset="1" style="stop-color:#896202"/>
				</linearGradient>
				<path class="st2" d="M99.6,59.1c0.2-0.9,0.4-2.3,0.5-3.4H76.9c0.1,0.4,0.1,0.7,0.1,1c0,2.7-2,3.2-2.7,3.2c-1,0-1.7-0.8-1.7-1.6
					c0-0.7,0.4-1.3,1.3-1.8c0.9-0.4,1.8-1.5,1.7-3.2l0.5,0c0.3,0.6,0.5,1.2,0.6,1.8h0.6l-0.4-11.6l3.4,0.7c1.2-0.8,2.3-1.7,3-2.3
					l2.6,2c1.1,0,2,0.2,2.7,0.4c0.5-0.7,0.9-1.4,1.2-2l2.8,1.4c-0.1,0.2-0.3,0.3-0.6,0.3c-0.1,0-0.3,0-0.5-0.1
					c-0.3,0.4-0.7,0.8-1.1,1.2c0.8,0.6,1.1,1.2,1.1,1.8c0,0.6-0.4,1.1-1,1.1c-0.2,0-0.4-0.1-0.7-0.2c-0.3-0.4-0.7-0.9-1.1-1.3
					c-1.1,0.8-2.2,1.5-3.4,2L85.2,48c-0.2,0.3-0.7,0.4-1.3,0.4h-3.5l0.1,3h1.4l1.2-1.6l2.3,1.8c-0.2,0.4-0.7,0.6-1.5,0.6h-3.4
					l0.1,2.9h16.2l0.1-2.9h-3.5l-0.2-0.7h3.8l0.1-3h-3.5l-0.2-0.7h3.8l0.1-3h-4L93,44.1h3.9l1.5-1.7l3.4,2.7
					c-0.3,0.3-0.6,0.4-1.2,0.5l-0.3,9.1l1.6-1.6l3.4,3.3c-0.3,0.3-0.6,0.3-1.3,0.4c-1,0.8-2.8,2-3.9,2.7L99.6,59.1z M98.8,65.2
					l2-2.7l3.7,2.8c-0.3,0.4-0.7,0.6-1.7,0.6H90.6v3.7c0,2.5-0.6,4.3-4.9,4.7c0-2.7-1.1-3.3-4-3.6v-0.5h4.7c0.5,0,0.7-0.1,0.7-0.6
					v-3.7H73.2L73,65.2h14.1v-2.3l2.6,0.2c1.2-0.9,2.5-2.2,3.4-3.2H79.4l-0.2-0.7h14.1l2.1-2l3.4,3.3c-0.2,0.3-0.7,0.3-1.4,0.4
					c-1.7,0.7-4.2,1.6-6.5,2.3l1.1,0.1c0,0.4-0.2,0.6-1.3,0.8v1.2H98.8z M83,46.2l2.2,1.6c0.9-0.7,1.7-1.5,2.5-2.4
					c-0.6-0.5-1.2-0.9-1.8-1.2c-0.2,0-0.4,0-0.7-0.1c-1.1,0.3-3.1,0.8-5,1l0.1,2.6h1.5L83,46.2z M86.1,49.6c1.2,0.1,2.2,0.3,3,0.6
					c0.5-0.7,0.9-1.4,1.3-2.1l2.9,1.4c-0.1,0.2-0.4,0.3-0.7,0.3c-0.2,0-0.3,0-0.5-0.1c-0.3,0.4-0.7,0.9-1.2,1.4
					c0.8,0.6,1.1,1.3,1.1,1.9c0,0.7-0.4,1.3-1.1,1.3c-0.2,0-0.5-0.1-0.8-0.2c-0.2-0.5-0.6-1-1-1.5c-1.2,0.8-2.6,1.5-3.9,2l-0.3-0.5
					c1.1-0.7,2.2-1.6,3.2-2.6c-0.7-0.6-1.4-1.2-2.1-1.6L86.1,49.6z"/>
				
					<linearGradient id="SVGID_5_" gradientUnits="userSpaceOnUse" x1="-234.6887" y1="-231.2361" x2="298.5211" y2="167.5788" gradientTransform="matrix(1 0 0 1 -2.3586 -2.3586)">
					<stop  offset="0" style="stop-color:#FAC859"/>
					<stop  offset="2.877487e-03" style="stop-color:#FACB64"/>
					<stop  offset="9.516122e-03" style="stop-color:#FBD176"/>
					<stop  offset="1.745736e-02" style="stop-color:#FCD582"/>
					<stop  offset="2.788930e-02" style="stop-color:#FCD78A"/>
					<stop  offset="5.042250e-02" style="stop-color:#FCD88C"/>
					<stop  offset="6.442444e-02" style="stop-color:#FCD681"/>
					<stop  offset="8.918270e-02" style="stop-color:#FBD163"/>
					<stop  offset="0.1216" style="stop-color:#FACA33"/>
					<stop  offset="0.1355" style="stop-color:#FAC61C"/>
					<stop  offset="0.1458" style="stop-color:#E6B417"/>
					<stop  offset="0.1638" style="stop-color:#C99B11"/>
					<stop  offset="0.184" style="stop-color:#B2860B"/>
					<stop  offset="0.207" style="stop-color:#9F7607"/>
					<stop  offset="0.2343" style="stop-color:#936A04"/>
					<stop  offset="0.2701" style="stop-color:#8B6402"/>
					<stop  offset="0.3475" style="stop-color:#896202"/>
					<stop  offset="0.6179" style="stop-color:#FAC859"/>
					<stop  offset="0.651" style="stop-color:#FACC64"/>
					<stop  offset="0.7093" style="stop-color:#FCD582"/>
					<stop  offset="0.7267" style="stop-color:#FCD88C"/>
					<stop  offset="0.7501" style="stop-color:#FCD481"/>
					<stop  offset="0.7914" style="stop-color:#FACB63"/>
					<stop  offset="0.8037" style="stop-color:#FAC859"/>
					<stop  offset="0.811" style="stop-color:#F2C153"/>
					<stop  offset="0.85" style="stop-color:#CC9F36"/>
					<stop  offset="0.8888" style="stop-color:#AF841F"/>
					<stop  offset="0.9271" style="stop-color:#9A710F"/>
					<stop  offset="0.9645" style="stop-color:#8D6605"/>
					<stop  offset="1" style="stop-color:#896202"/>
				</linearGradient>
				<path class="st3" d="M135.6,68.1l3.9,2.8c-0.3,0.4-0.7,0.6-1.7,0.6h-25V73c0,0.3-1.1,1.2-3,1.2h-0.7V43.7l4.1,1.6H132l2-2.6
					l3.8,2.7c-0.3,0.4-0.7,0.6-1.7,0.6h-23.4v24.8h20.7L135.6,68.1z M124,67.3c0,0.2-1.6,0.8-2.6,0.8h-0.5v-1.4h-3.1v1.1
					c0,0.1-0.4,1.1-3,1.1V57.9l3.2,1.3h2.7l1.2-1.5l3.3,2.3c-0.2,0.2-0.6,0.5-1.1,0.6V67.3z M117.8,66.1h3.1v-6.2h-3.1V66.1z
					 M131.8,56.3c0,0.1-1,0.9-3.5,0.9v-1.5h-6.5v0.5c0,0.1-0.6,1.2-3.5,1.2v-9.7l3.7,1.4h6l1.3-1.8l3.8,2.6
					c-0.2,0.2-0.7,0.5-1.3,0.7V56.3z M121.8,55h6.5v-5.2h-6.5V55z M135.6,67.4c0,0.2-1.6,0.8-2.6,0.8h-0.5v-1.4h-3.3v0.6
					c0,0.1-0.5,1.1-3.1,1.1V57.8l3.2,1.4h2.9l1.2-1.6l3.4,2.4c-0.2,0.2-0.6,0.5-1.2,0.6V67.4z M129.1,66.1h3.3v-6.2h-3.3V66.1z"/>
				
					<linearGradient id="SVGID_6_" gradientUnits="userSpaceOnUse" x1="-234.6887" y1="-231.2361" x2="298.5211" y2="167.5788" gradientTransform="matrix(1 0 0 1 -2.3586 -2.3586)">
					<stop  offset="0" style="stop-color:#FAC859"/>
					<stop  offset="2.877487e-03" style="stop-color:#FACB64"/>
					<stop  offset="9.516122e-03" style="stop-color:#FBD176"/>
					<stop  offset="1.745736e-02" style="stop-color:#FCD582"/>
					<stop  offset="2.788930e-02" style="stop-color:#FCD78A"/>
					<stop  offset="5.042250e-02" style="stop-color:#FCD88C"/>
					<stop  offset="6.442444e-02" style="stop-color:#FCD681"/>
					<stop  offset="8.918270e-02" style="stop-color:#FBD163"/>
					<stop  offset="0.1216" style="stop-color:#FACA33"/>
					<stop  offset="0.1355" style="stop-color:#FAC61C"/>
					<stop  offset="0.1458" style="stop-color:#E6B417"/>
					<stop  offset="0.1638" style="stop-color:#C99B11"/>
					<stop  offset="0.184" style="stop-color:#B2860B"/>
					<stop  offset="0.207" style="stop-color:#9F7607"/>
					<stop  offset="0.2343" style="stop-color:#936A04"/>
					<stop  offset="0.2701" style="stop-color:#8B6402"/>
					<stop  offset="0.3475" style="stop-color:#896202"/>
					<stop  offset="0.6179" style="stop-color:#FAC859"/>
					<stop  offset="0.651" style="stop-color:#FACC64"/>
					<stop  offset="0.7093" style="stop-color:#FCD582"/>
					<stop  offset="0.7267" style="stop-color:#FCD88C"/>
					<stop  offset="0.7501" style="stop-color:#FCD481"/>
					<stop  offset="0.7914" style="stop-color:#FACB63"/>
					<stop  offset="0.8037" style="stop-color:#FAC859"/>
					<stop  offset="0.811" style="stop-color:#F2C153"/>
					<stop  offset="0.85" style="stop-color:#CC9F36"/>
					<stop  offset="0.8888" style="stop-color:#AF841F"/>
					<stop  offset="0.9271" style="stop-color:#9A710F"/>
					<stop  offset="0.9645" style="stop-color:#8D6605"/>
					<stop  offset="1" style="stop-color:#896202"/>
				</linearGradient>
				<path class="st4" d="M142.4,74.4c1.3-0.6,2.3-1.8,2.7-3.4c-0.2,0.1-0.5,0.1-0.7,0.1c-1.4,0-2.5-1.2-2.5-2.6
					c0-1.5,1.2-2.7,2.6-2.7c1.5,0,2.9,1.2,2.9,3.2c0,2.4-1.7,5.2-4.4,6.1L142.4,74.4z"/>
				
					<linearGradient id="SVGID_7_" gradientUnits="userSpaceOnUse" x1="-234.6887" y1="-231.2361" x2="298.5211" y2="167.5788" gradientTransform="matrix(1 0 0 1 -2.3586 -2.3586)">
					<stop  offset="0" style="stop-color:#FAC859"/>
					<stop  offset="2.877487e-03" style="stop-color:#FACB64"/>
					<stop  offset="9.516122e-03" style="stop-color:#FBD176"/>
					<stop  offset="1.745736e-02" style="stop-color:#FCD582"/>
					<stop  offset="2.788930e-02" style="stop-color:#FCD78A"/>
					<stop  offset="5.042250e-02" style="stop-color:#FCD88C"/>
					<stop  offset="6.442444e-02" style="stop-color:#FCD681"/>
					<stop  offset="8.918270e-02" style="stop-color:#FBD163"/>
					<stop  offset="0.1216" style="stop-color:#FACA33"/>
					<stop  offset="0.1355" style="stop-color:#FAC61C"/>
					<stop  offset="0.1458" style="stop-color:#E6B417"/>
					<stop  offset="0.1638" style="stop-color:#C99B11"/>
					<stop  offset="0.184" style="stop-color:#B2860B"/>
					<stop  offset="0.207" style="stop-color:#9F7607"/>
					<stop  offset="0.2343" style="stop-color:#936A04"/>
					<stop  offset="0.2701" style="stop-color:#8B6402"/>
					<stop  offset="0.3475" style="stop-color:#896202"/>
					<stop  offset="0.6179" style="stop-color:#FAC859"/>
					<stop  offset="0.651" style="stop-color:#FACC64"/>
					<stop  offset="0.7093" style="stop-color:#FCD582"/>
					<stop  offset="0.7267" style="stop-color:#FCD88C"/>
					<stop  offset="0.7501" style="stop-color:#FCD481"/>
					<stop  offset="0.7914" style="stop-color:#FACB63"/>
					<stop  offset="0.8037" style="stop-color:#FAC859"/>
					<stop  offset="0.811" style="stop-color:#F2C153"/>
					<stop  offset="0.85" style="stop-color:#CC9F36"/>
					<stop  offset="0.8888" style="stop-color:#AF841F"/>
					<stop  offset="0.9271" style="stop-color:#9A710F"/>
					<stop  offset="0.9645" style="stop-color:#8D6605"/>
					<stop  offset="1" style="stop-color:#896202"/>
				</linearGradient>
				<path class="st5" d="M167.2,46.2H159l-0.2-0.7h8.4v-3.7l4.9,0.4c-0.1,0.5-0.3,0.7-1.3,0.8v2.4h8.1v-3.7l4.9,0.4
					c0,0.5-0.3,0.7-1.3,0.8v2.4h3.2l1.8-2.5l3.5,2.6c-0.3,0.4-0.7,0.6-1.6,0.6h-7v2.1c0,0-0.2,0.9-3.5,0.9v-2.9h-8.1v2.2
					c0,0.1-0.4,0.9-3.5,0.9V46.2z M185.5,57.2l1.9-2.3l3.5,2.4c-0.2,0.4-0.7,0.6-1.6,0.6H159l-0.2-0.7h14.1v-2.9h-10.5l-0.2-0.7
					h10.7v-2.7h-12.2l-0.2-0.7h12.4v-2.8l4.8,0.4c-0.1,0.4-0.3,0.6-1.1,0.7v1.7h7.7l1.7-2.1l3.3,2.2c-0.3,0.4-0.7,0.6-1.6,0.6h-11.1
					v2.7h6.6l1.6-2l3.1,2.1c-0.3,0.4-0.7,0.6-1.6,0.6h-9.8v2.9H185.5z M181.9,60.6l1.4-1.9l3.9,2.8c-0.2,0.3-0.7,0.6-1.4,0.7v7.9
					c0,2.1-0.4,3.6-4.8,4.1c0-2.4-1.2-3-3.8-3.3v-0.4h4.4c0.5,0,0.6-0.1,0.6-0.5v-3.6h-14.8v6.4c0,0.1-0.6,1.3-3.6,1.3V59.1l3.8,1.5
					H181.9z M167.5,61.3v4.4h5.5v-4.4H167.5z M176.5,65.8h5.8v-4.4h-5.8V65.8z"/>
				
					<linearGradient id="SVGID_8_" gradientUnits="userSpaceOnUse" x1="-234.6887" y1="-231.2361" x2="298.5211" y2="167.5788" gradientTransform="matrix(1 0 0 1 -2.3586 -2.3586)">
					<stop  offset="0" style="stop-color:#FAC859"/>
					<stop  offset="2.877487e-03" style="stop-color:#FACB64"/>
					<stop  offset="9.516122e-03" style="stop-color:#FBD176"/>
					<stop  offset="1.745736e-02" style="stop-color:#FCD582"/>
					<stop  offset="2.788930e-02" style="stop-color:#FCD78A"/>
					<stop  offset="5.042250e-02" style="stop-color:#FCD88C"/>
					<stop  offset="6.442444e-02" style="stop-color:#FCD681"/>
					<stop  offset="8.918270e-02" style="stop-color:#FBD163"/>
					<stop  offset="0.1216" style="stop-color:#FACA33"/>
					<stop  offset="0.1355" style="stop-color:#FAC61C"/>
					<stop  offset="0.1458" style="stop-color:#E6B417"/>
					<stop  offset="0.1638" style="stop-color:#C99B11"/>
					<stop  offset="0.184" style="stop-color:#B2860B"/>
					<stop  offset="0.207" style="stop-color:#9F7607"/>
					<stop  offset="0.2343" style="stop-color:#936A04"/>
					<stop  offset="0.2701" style="stop-color:#8B6402"/>
					<stop  offset="0.3475" style="stop-color:#896202"/>
					<stop  offset="0.6179" style="stop-color:#FAC859"/>
					<stop  offset="0.651" style="stop-color:#FACC64"/>
					<stop  offset="0.7093" style="stop-color:#FCD582"/>
					<stop  offset="0.7267" style="stop-color:#FCD88C"/>
					<stop  offset="0.7501" style="stop-color:#FCD481"/>
					<stop  offset="0.7914" style="stop-color:#FACB63"/>
					<stop  offset="0.8037" style="stop-color:#FAC859"/>
					<stop  offset="0.811" style="stop-color:#F2C153"/>
					<stop  offset="0.85" style="stop-color:#CC9F36"/>
					<stop  offset="0.8888" style="stop-color:#AF841F"/>
					<stop  offset="0.9271" style="stop-color:#9A710F"/>
					<stop  offset="0.9645" style="stop-color:#8D6605"/>
					<stop  offset="1" style="stop-color:#896202"/>
				</linearGradient>
				<path class="st6" d="M222.3,59.8l3.5,2.7c-0.3,0.4-0.7,0.6-1.7,0.6h-12.9c2.5,4.6,8,6.5,14.3,7.4l0,0.4
					c-1.4,0.4-2.4,1.6-2.9,3.4c-6.1-1.9-10.1-4.9-12-11.2h-0.8c-1.7,5-6,9-16.3,11.1l-0.2-0.5c8.1-2.5,11.5-6.3,12.9-10.6h-13.1
					l-0.2-0.7h5.4V52.1l3.9,1.5h4.9v-4.9l5,0.4c0,0.5-0.3,0.7-1.4,0.8v3.6h5.2l1.7-2.1l3.9,2.7c-0.2,0.3-0.7,0.6-1.5,0.7v7.5h0.5
					L222.3,59.8z M201.6,46.8h-8.2l-0.2-0.7h8.4v-4.2l4.9,0.4c-0.1,0.4-0.3,0.7-1.3,0.8v3h8.1v-4.2l5,0.4c0,0.5-0.3,0.7-1.3,0.8v3h3
					l2-2.7l3.7,2.8c-0.3,0.4-0.7,0.6-1.6,0.6h-7v2.9c0,0-0.4,1-3.7,1v-3.8h-8.1v3.1c0,0.1-0.6,0.9-3.6,0.9V46.8z M202,62.4h4.5
					c0.5-1.8,0.7-3.8,0.7-5.8v-2.4H202V62.4z M210.8,56.6c0,2-0.2,4-0.7,5.8h6.3v-8.2h-5.5V56.6z"/>
				
					<linearGradient id="SVGID_9_" gradientUnits="userSpaceOnUse" x1="-234.6887" y1="-231.2361" x2="298.5211" y2="167.5788" gradientTransform="matrix(1 0 0 1 -2.3586 -2.3586)">
					<stop  offset="0" style="stop-color:#FAC859"/>
					<stop  offset="2.877487e-03" style="stop-color:#FACB64"/>
					<stop  offset="9.516122e-03" style="stop-color:#FBD176"/>
					<stop  offset="1.745736e-02" style="stop-color:#FCD582"/>
					<stop  offset="2.788930e-02" style="stop-color:#FCD78A"/>
					<stop  offset="5.042250e-02" style="stop-color:#FCD88C"/>
					<stop  offset="6.442444e-02" style="stop-color:#FCD681"/>
					<stop  offset="8.918270e-02" style="stop-color:#FBD163"/>
					<stop  offset="0.1216" style="stop-color:#FACA33"/>
					<stop  offset="0.1355" style="stop-color:#FAC61C"/>
					<stop  offset="0.1458" style="stop-color:#E6B417"/>
					<stop  offset="0.1638" style="stop-color:#C99B11"/>
					<stop  offset="0.184" style="stop-color:#B2860B"/>
					<stop  offset="0.207" style="stop-color:#9F7607"/>
					<stop  offset="0.2343" style="stop-color:#936A04"/>
					<stop  offset="0.2701" style="stop-color:#8B6402"/>
					<stop  offset="0.3475" style="stop-color:#896202"/>
					<stop  offset="0.6179" style="stop-color:#FAC859"/>
					<stop  offset="0.651" style="stop-color:#FACC64"/>
					<stop  offset="0.7093" style="stop-color:#FCD582"/>
					<stop  offset="0.7267" style="stop-color:#FCD88C"/>
					<stop  offset="0.7501" style="stop-color:#FCD481"/>
					<stop  offset="0.7914" style="stop-color:#FACB63"/>
					<stop  offset="0.8037" style="stop-color:#FAC859"/>
					<stop  offset="0.811" style="stop-color:#F2C153"/>
					<stop  offset="0.85" style="stop-color:#CC9F36"/>
					<stop  offset="0.8888" style="stop-color:#AF841F"/>
					<stop  offset="0.9271" style="stop-color:#9A710F"/>
					<stop  offset="0.9645" style="stop-color:#8D6605"/>
					<stop  offset="1" style="stop-color:#896202"/>
				</linearGradient>
				<path class="st7" d="M254.5,53.8c0,0.3-1.7,1-2.9,1H251v-1.3h-5.6v3h6.8l1.8-2.2l3.4,2.3c-0.3,0.4-0.7,0.6-1.6,0.6h-10.4v3.1
					h8.8l1.9-2.3l3.5,2.4c-0.3,0.4-0.7,0.6-1.6,0.6h-30.2l-0.2-0.7h14.1v-3.1h-11.3l-0.2-0.7h11.5v-3H232l-0.2-0.7h10v-3.2h-14
					l-0.2-0.7h14.2v-3.1h-9.6l-0.2-0.7h9.8v-3.4l5.1,0.5c0,0.5-0.4,0.8-1.5,0.9v2h5.3l1.4-1.8l3.8,2.7c-0.2,0.2-0.7,0.5-1.3,0.7V49
					h0.7l1.7-2.2l3.1,2.3c-0.2,0.4-0.7,0.6-1.6,0.6h-3.8V53.8z M250.7,63.7l1.4-1.9l4,2.8c-0.2,0.3-0.7,0.6-1.4,0.7v7.7
					c0,0.1-1.1,0.9-3.7,0.9v-1.9h-14.7v0.9c0,0.1-0.4,1.3-3.6,1.3V62.2l3.9,1.5H250.7z M251,64.4h-14.7v3.1H251V64.4z M236.4,71.4
					H251v-3.2h-14.7V71.4z M245.4,45.9V49h5.6v-3.1H245.4z M245.4,52.8h5.6v-3.2h-5.6V52.8z"/>
				
					<linearGradient id="SVGID_10_" gradientUnits="userSpaceOnUse" x1="-234.6887" y1="-231.2361" x2="298.5211" y2="167.5788" gradientTransform="matrix(1 0 0 1 -2.3586 -2.3586)">
					<stop  offset="0" style="stop-color:#FAC859"/>
					<stop  offset="2.877487e-03" style="stop-color:#FACB64"/>
					<stop  offset="9.516122e-03" style="stop-color:#FBD176"/>
					<stop  offset="1.745736e-02" style="stop-color:#FCD582"/>
					<stop  offset="2.788930e-02" style="stop-color:#FCD78A"/>
					<stop  offset="5.042250e-02" style="stop-color:#FCD88C"/>
					<stop  offset="6.442444e-02" style="stop-color:#FCD681"/>
					<stop  offset="8.918270e-02" style="stop-color:#FBD163"/>
					<stop  offset="0.1216" style="stop-color:#FACA33"/>
					<stop  offset="0.1355" style="stop-color:#FAC61C"/>
					<stop  offset="0.1458" style="stop-color:#E6B417"/>
					<stop  offset="0.1638" style="stop-color:#C99B11"/>
					<stop  offset="0.184" style="stop-color:#B2860B"/>
					<stop  offset="0.207" style="stop-color:#9F7607"/>
					<stop  offset="0.2343" style="stop-color:#936A04"/>
					<stop  offset="0.2701" style="stop-color:#8B6402"/>
					<stop  offset="0.3475" style="stop-color:#896202"/>
					<stop  offset="0.6179" style="stop-color:#FAC859"/>
					<stop  offset="0.651" style="stop-color:#FACC64"/>
					<stop  offset="0.7093" style="stop-color:#FCD582"/>
					<stop  offset="0.7267" style="stop-color:#FCD88C"/>
					<stop  offset="0.7501" style="stop-color:#FCD481"/>
					<stop  offset="0.7914" style="stop-color:#FACB63"/>
					<stop  offset="0.8037" style="stop-color:#FAC859"/>
					<stop  offset="0.811" style="stop-color:#F2C153"/>
					<stop  offset="0.85" style="stop-color:#CC9F36"/>
					<stop  offset="0.8888" style="stop-color:#AF841F"/>
					<stop  offset="0.9271" style="stop-color:#9A710F"/>
					<stop  offset="0.9645" style="stop-color:#8D6605"/>
					<stop  offset="1" style="stop-color:#896202"/>
				</linearGradient>
				<path class="st8" d="M294,50.4c-0.3,0.5-0.7,0.6-1.7,0.6H281c2.8,3.3,8.5,5.3,13.4,6.3l0,0.4c-1.4,0.3-2.3,1.5-2.8,3.2
					c-4.9-2-9.2-5.2-11.4-9.9h-0.3v7.3c0,0.2-1.1,1-3,1h-0.7v-6.1c-2.1,2.3-4.9,4.2-8.1,5.8l3.6,1.5h12.5l1.4-1.9l3.9,2.8
					c-0.2,0.3-0.7,0.6-1.3,0.7v11.1c0,0.1-1.1,0.9-3.7,0.9v-2.3h-13.1v1.1c0,0.1-0.5,1.3-3.6,1.3V59.1c-1.8,0.9-3.7,1.7-5.8,2.3
					l-0.3-0.6c4.8-2.5,9-6.2,11.5-9.9h-10.8l-0.2-0.7h13.9v-4c-3.7,0.2-7.6,0.4-11.3,0.4l-0.1-0.6c7.5-0.8,16.9-2.7,21.8-4.3
					l3.4,3.4c-0.2,0.2-0.4,0.2-0.8,0.2c-0.4,0-0.9-0.1-1.4-0.3c-2.3,0.3-5.1,0.7-8.1,0.9v4.3h8.5l2-2.5L294,50.4z M284.7,61.2h-13.1
					v4.4h13.1V61.2z M271.6,71.1h13.1v-4.8h-13.1V71.1z"/>
				
					<linearGradient id="SVGID_11_" gradientUnits="userSpaceOnUse" x1="-234.6887" y1="-231.2361" x2="298.5211" y2="167.5788" gradientTransform="matrix(1 0 0 1 -2.3586 -2.3586)">
					<stop  offset="0" style="stop-color:#FAC859"/>
					<stop  offset="2.877487e-03" style="stop-color:#FACB64"/>
					<stop  offset="9.516122e-03" style="stop-color:#FBD176"/>
					<stop  offset="1.745736e-02" style="stop-color:#FCD582"/>
					<stop  offset="2.788930e-02" style="stop-color:#FCD78A"/>
					<stop  offset="5.042250e-02" style="stop-color:#FCD88C"/>
					<stop  offset="6.442444e-02" style="stop-color:#FCD681"/>
					<stop  offset="8.918270e-02" style="stop-color:#FBD163"/>
					<stop  offset="0.1216" style="stop-color:#FACA33"/>
					<stop  offset="0.1355" style="stop-color:#FAC61C"/>
					<stop  offset="0.1458" style="stop-color:#E6B417"/>
					<stop  offset="0.1638" style="stop-color:#C99B11"/>
					<stop  offset="0.184" style="stop-color:#B2860B"/>
					<stop  offset="0.207" style="stop-color:#9F7607"/>
					<stop  offset="0.2343" style="stop-color:#936A04"/>
					<stop  offset="0.2701" style="stop-color:#8B6402"/>
					<stop  offset="0.3475" style="stop-color:#896202"/>
					<stop  offset="0.6179" style="stop-color:#FAC859"/>
					<stop  offset="0.651" style="stop-color:#FACC64"/>
					<stop  offset="0.7093" style="stop-color:#FCD582"/>
					<stop  offset="0.7267" style="stop-color:#FCD88C"/>
					<stop  offset="0.7501" style="stop-color:#FCD481"/>
					<stop  offset="0.7914" style="stop-color:#FACB63"/>
					<stop  offset="0.8037" style="stop-color:#FAC859"/>
					<stop  offset="0.811" style="stop-color:#F2C153"/>
					<stop  offset="0.85" style="stop-color:#CC9F36"/>
					<stop  offset="0.8888" style="stop-color:#AF841F"/>
					<stop  offset="0.9271" style="stop-color:#9A710F"/>
					<stop  offset="0.9645" style="stop-color:#8D6605"/>
					<stop  offset="1" style="stop-color:#896202"/>
				</linearGradient>
				<path class="st9" d="M305.9,69.1c0,1.4-1.2,2.6-2.6,2.6s-2.6-1.2-2.6-2.6c0-1.4,1.2-2.6,2.6-2.6
					C304.8,66.4,305.9,67.7,305.9,69.1z M302.7,64.3c-0.3-2.7-1.9-16.5-1.9-17.2c0-1.2,0.7-2.2,2.5-2.2c1.8,0,2.5,1,2.5,2.2
					c0,0.6-1.6,14.4-1.9,17.2H302.7z"/>
			</g>
		</g>
	</g>
	<g>
		<path class="st10" d="M9.1,7.9c0,1.6,0,2.9,0.1,3.5c0,0.5,0.1,0.8,0.6,0.9c0.2,0,0.6,0.1,0.7,0.1c0.1,0,0.1,0,0.1,0.1
			c0,0.1-0.1,0.1-0.3,0.1c-0.9,0-1.9,0-2,0c-0.1,0-1.1,0-1.6,0c-0.2,0-0.3,0-0.3-0.1c0,0,0-0.1,0.1-0.1c0.1,0,0.3,0,0.5-0.1
			c0.3-0.1,0.4-0.4,0.5-0.9c0.1-0.7,0.1-2,0.1-3.5V0.9L5.3,1c-1,0-1.4,0.1-1.7,0.5C3.5,1.8,3.4,1.9,3.4,2c0,0.1-0.1,0.2-0.2,0.2
			c0,0-0.1,0-0.1-0.1c0-0.2,0.3-1.6,0.4-1.7C3.5,0.2,3.6,0,3.6,0c0.1,0,0.3,0.2,0.7,0.2c0.5,0,1.1,0.1,1.3,0.1h6.1
			c0.5,0,0.9,0,1.2-0.1c0.2,0,0.4-0.1,0.5-0.1c0.1,0,0.1,0.1,0.1,0.2c0,0.5,0,1.6,0,1.8c0,0.1,0,0.2-0.1,0.2c-0.1,0-0.1,0-0.1-0.3
			l0-0.2c0-0.5-0.4-0.9-2-0.9l-2.1,0V7.9z"/>
		<path class="st10" d="M31.5,8.6c0,1.3,0,2.4,0.1,3c0,0.4,0.1,0.7,0.5,0.7c0.2,0,0.5,0.1,0.6,0.1c0.1,0,0.1,0.1,0.1,0.1
			c0,0.1-0.1,0.1-0.2,0.1c-0.8,0-1.7,0-1.8,0c-0.1,0-1,0-1.4,0c-0.2,0-0.2,0-0.2-0.1c0,0,0-0.1,0.1-0.1c0.1,0,0.3,0,0.4-0.1
			c0.3-0.1,0.3-0.3,0.4-0.8c0.1-0.6,0.1-1.6,0.1-3V7.2c0-0.1,0-0.1-0.1-0.1h-6c0,0-0.1,0-0.1,0.1v1.4c0,1.3,0,2.4,0.1,3
			c0,0.4,0.1,0.7,0.5,0.7c0.2,0,0.5,0.1,0.7,0.1c0.1,0,0.1,0.1,0.1,0.1c0,0.1-0.1,0.1-0.2,0.1c-0.8,0-1.7,0-1.8,0c-0.1,0-1,0-1.4,0
			c-0.1,0-0.2,0-0.2-0.1c0,0,0-0.1,0.1-0.1c0.1,0,0.3,0,0.4-0.1c0.3-0.1,0.3-0.3,0.4-0.7c0.1-0.6,0.1-1.7,0.1-3V6.1c0-2.2,0-2.6,0-3
			c0-0.5-0.1-0.7-0.6-0.8c-0.1,0-0.4,0-0.5,0c0,0-0.1-0.1-0.1-0.1c0-0.1,0.1-0.1,0.2-0.1c0.7,0,1.6,0,1.7,0c0.1,0,1,0,1.4,0
			c0.2,0,0.2,0,0.2,0.1c0,0-0.1,0.1-0.1,0.1c-0.1,0-0.2,0-0.4,0c-0.4,0.1-0.5,0.3-0.5,0.8c0,0.4,0,0.9,0,3v0.3c0,0.1,0,0.1,0.1,0.1
			h6c0,0,0.1,0,0.1-0.1V6.1c0-2.2,0-2.6,0-3c0-0.5-0.1-0.7-0.6-0.8c-0.1,0-0.4,0-0.5,0c-0.1,0-0.1-0.1-0.1-0.1
			c0-0.1,0.1-0.1,0.2-0.1c0.6,0,1.6,0,1.6,0c0.1,0,1,0,1.4,0c0.2,0,0.2,0,0.2,0.1c0,0-0.1,0.1-0.1,0.1c-0.1,0-0.2,0-0.4,0
			c-0.4,0.1-0.5,0.3-0.5,0.8c0,0.4,0,0.8,0,3V8.6z"/>
		<path class="st10" d="M42.8,6.1c0-2.2,0-2.6,0-3c0-0.5-0.1-0.7-0.6-0.8c-0.1,0-0.4,0-0.5,0c0,0-0.1-0.1-0.1-0.1
			c0-0.1,0.1-0.1,0.2-0.1c0.7,0,1.6,0,1.7,0c0.1,0,3.1,0,3.4,0c0.3,0,0.5-0.1,0.7-0.1C47.7,2,47.7,2,47.8,2c0,0,0.1,0.1,0.1,0.1
			c0,0.1-0.1,0.3-0.1,0.7c0,0.1,0,0.8-0.1,0.9c0,0.1-0.1,0.1-0.1,0.1c-0.1,0-0.1-0.1-0.1-0.2c0-0.1,0-0.3-0.1-0.5
			c-0.1-0.2-0.2-0.3-1-0.4c-0.2,0-1.9,0-2.1,0c-0.1,0-0.1,0-0.1,0.1v3.8c0,0.1,0,0.1,0.1,0.1c0.2,0,2.1,0,2.4,0c0.3,0,0.6,0,0.7-0.2
			c0.1-0.1,0.2-0.2,0.2-0.2c0,0,0.1,0,0.1,0.1c0,0.1-0.1,0.3-0.1,0.8c0,0.3-0.1,0.8-0.1,0.9c0,0.1,0,0.3-0.1,0.3
			c-0.1,0-0.1,0-0.1-0.1c0-0.1,0-0.3-0.1-0.5c0-0.2-0.2-0.4-0.7-0.4c-0.4,0-1.9-0.1-2.2-0.1c-0.1,0-0.1,0-0.1,0.1v1.2
			c0,0.5,0,2.1,0,2.4c0,0.9,0.3,1.1,1.7,1.1c0.4,0,1.1,0,1.4-0.1c0.4-0.2,0.6-0.4,0.7-1c0-0.2,0.1-0.2,0.1-0.2
			c0.1,0,0.1,0.1,0.1,0.2c0,0.1-0.1,1-0.2,1.3c-0.1,0.4-0.2,0.4-0.8,0.4c-1.1,0-1.9,0-2.5,0c-0.6,0-1,0-1.2,0c0,0-0.3,0-0.6,0
			c-0.3,0-0.6,0-0.8,0c-0.1,0-0.2,0-0.2-0.1c0,0,0-0.1,0.1-0.1c0.1,0,0.3,0,0.4-0.1c0.3,0,0.3-0.3,0.4-0.7c0.1-0.6,0.1-1.7,0.1-3
			V6.1z"/>
		<path class="st10" d="M70.6,5c0-2.6,0-3,0-3.5c0-0.6-0.2-0.8-0.7-0.9c-0.1,0-0.4,0-0.6,0c-0.1,0-0.1,0-0.1-0.1
			c0-0.1,0.1-0.1,0.3-0.1c0.4,0,0.8,0,1.2,0l0.7,0c0.1,0,3.4,0,3.7,0c0.3,0,0.6,0,0.7-0.1c0.1,0,0.1-0.1,0.2-0.1
			c0,0,0.1,0.1,0.1,0.1c0,0.1-0.1,0.3-0.1,0.8c0,0.2,0,0.9-0.1,1.1c0,0.1,0,0.2-0.1,0.2c-0.1,0-0.1-0.1-0.1-0.2c0-0.1,0-0.4-0.1-0.6
			c-0.1-0.3-0.3-0.5-1.2-0.6c-0.3,0-2.1,0-2.2,0C72,0.9,72,0.9,72,1v4.5c0,0.1,0,0.2,0.1,0.2c0.2,0,2.2,0,2.6,0
			c0.4,0,0.6-0.1,0.8-0.2c0.1-0.1,0.2-0.2,0.2-0.2c0,0,0.1,0,0.1,0.1c0,0.1-0.1,0.4-0.1,0.9c0,0.3-0.1,0.9-0.1,1
			c0,0.1,0,0.3-0.1,0.3c-0.1,0-0.1-0.1-0.1-0.1c0-0.2,0-0.3-0.1-0.5c-0.1-0.2-0.2-0.5-0.9-0.6c-0.4,0-2.1-0.1-2.3-0.1
			c-0.1,0-0.1,0-0.1,0.1v1.4c0,0.6,0,2.5,0,2.8c0,1.1,0.3,1.3,1.9,1.3c0.4,0,1.1,0,1.6-0.2c0.4-0.2,0.6-0.5,0.7-1.2
			c0-0.2,0.1-0.2,0.1-0.2c0.1,0,0.1,0.1,0.1,0.2c0,0.1-0.1,1.2-0.2,1.6c-0.1,0.4-0.2,0.4-0.9,0.4c-1.2,0-2.1,0-2.8,0
			c-0.6,0-1,0-1.3,0c0,0-0.3,0-0.7,0c-0.3,0-0.7,0-0.9,0c-0.2,0-0.3,0-0.3-0.1c0,0,0-0.1,0.1-0.1c0.1,0,0.3,0,0.5-0.1
			c0.3-0.1,0.4-0.4,0.5-0.9c0.1-0.7,0.1-2,0.1-3.5V5z"/>
		<path class="st10" d="M88.1,8.6c0,2,0,2.9,0.3,3.1c0.2,0.2,0.8,0.3,1.9,0.3c0.8,0,1.4,0,1.7-0.4c0.2-0.2,0.3-0.5,0.3-0.8
			c0-0.1,0.1-0.2,0.1-0.2c0.1,0,0.1,0.1,0.1,0.2c0,0.1-0.1,1-0.2,1.4c-0.1,0.3-0.1,0.4-0.9,0.4c-1,0-1.8,0-2.5,0c-0.7,0-1.1,0-1.6,0
			c-0.1,0-0.3,0-0.6,0c-0.3,0-0.6,0-0.8,0c-0.1,0-0.2,0-0.2-0.1c0,0,0-0.1,0.1-0.1c0.1,0,0.3,0,0.4-0.1c0.3-0.1,0.3-0.3,0.4-0.7
			c0.1-0.6,0.1-1.7,0.1-3V6.1c0-2.2,0-2.6,0-3c0-0.5-0.1-0.7-0.6-0.8c-0.1,0-0.4,0-0.5,0c0,0-0.1-0.1-0.1-0.1c0-0.1,0.1-0.1,0.2-0.1
			c0.7,0,1.6,0,1.6,0c0.1,0,1.1,0,1.6,0c0.1,0,0.2,0,0.2,0.1c0,0-0.1,0.1-0.1,0.1c-0.1,0-0.3,0-0.5,0c-0.4,0.1-0.5,0.3-0.5,0.8
			c0,0.4,0,0.8,0,3V8.6z"/>
		<path class="st10" d="M103.4,8.6c0,1.3,0,2.4,0.1,3c0,0.4,0.1,0.7,0.5,0.7c0.2,0,0.5,0.1,0.7,0.1c0.1,0,0.1,0.1,0.1,0.1
			c0,0.1-0.1,0.1-0.2,0.1c-0.8,0-1.7,0-1.8,0c-0.1,0-1,0-1.4,0c-0.1,0-0.2,0-0.2-0.1c0,0,0-0.1,0.1-0.1c0.1,0,0.3,0,0.4-0.1
			c0.3-0.1,0.3-0.3,0.4-0.7c0.1-0.6,0.1-1.7,0.1-3V6.1c0-2.2,0-2.6,0-3c0-0.5-0.1-0.7-0.5-0.8c-0.2,0-0.3,0-0.4,0
			c-0.1,0-0.1-0.1-0.1-0.1c0-0.1,0.1-0.1,0.2-0.1c0.5,0,1.4,0,1.5,0c0.1,0,1,0,1.4,0c0.2,0,0.2,0,0.2,0.1c0,0-0.1,0.1-0.1,0.1
			c-0.1,0-0.2,0-0.4,0c-0.4,0.1-0.5,0.3-0.5,0.8c0,0.4,0,0.8,0,3V8.6z"/>
		<path class="st10" d="M118.1,8.6c0,1.3,0,2.4,0.1,3c0,0.4,0.1,0.7,0.6,0.7c0.2,0,0.5,0.1,0.7,0.1c0.1,0,0.1,0.1,0.1,0.1
			c0,0.1-0.1,0.1-0.2,0.1c-0.8,0-1.7,0-1.8,0c-0.1,0-1.1,0-1.5,0c-0.2,0-0.2,0-0.2-0.1c0,0,0-0.1,0.1-0.1c0.1,0,0.3,0,0.4-0.1
			c0.3-0.1,0.4-0.3,0.4-0.8c0.1-0.6,0.1-1.7,0.1-3V2.7l-2.1,0c-0.9,0-1.2,0.1-1.5,0.4c-0.2,0.2-0.2,0.3-0.2,0.4
			c0,0.1-0.1,0.1-0.1,0.1c0,0-0.1,0-0.1-0.1c0-0.1,0.3-1.4,0.3-1.5c0-0.1,0.1-0.3,0.1-0.3c0.1,0,0.2,0.1,0.6,0.2
			c0.4,0,1,0.1,1.1,0.1h5.4c0.5,0,0.8,0,1-0.1c0.2,0,0.3-0.1,0.4-0.1s0.1,0.1,0.1,0.2c0,0.4,0,1.4,0,1.6c0,0.1-0.1,0.2-0.1,0.2
			s-0.1,0-0.1-0.2l0-0.1c0-0.4-0.4-0.7-1.7-0.8l-1.8,0V8.6z"/>
		<path class="st10" d="M131.5,6.1c0-2.2,0-2.6,0-3c0-0.5-0.1-0.7-0.6-0.8c-0.1,0-0.4,0-0.5,0c0,0-0.1-0.1-0.1-0.1
			c0-0.1,0.1-0.1,0.2-0.1c0.7,0,1.6,0,1.7,0c0.1,0,3.1,0,3.4,0c0.3,0,0.5-0.1,0.7-0.1c0.1,0,0.1-0.1,0.2-0.1c0,0,0.1,0.1,0.1,0.1
			c0,0.1-0.1,0.3-0.1,0.7c0,0.1,0,0.8-0.1,0.9c0,0.1-0.1,0.1-0.1,0.1c-0.1,0-0.1-0.1-0.1-0.2c0-0.1,0-0.3-0.1-0.5
			c-0.1-0.2-0.2-0.3-1-0.4c-0.2,0-1.9,0-2.1,0c-0.1,0-0.1,0-0.1,0.1v3.8c0,0.1,0,0.1,0.1,0.1c0.2,0,2.1,0,2.4,0c0.3,0,0.6,0,0.7-0.2
			c0.1-0.1,0.2-0.2,0.2-0.2c0,0,0.1,0,0.1,0.1c0,0.1-0.1,0.3-0.1,0.8c0,0.3-0.1,0.8-0.1,0.9c0,0.1,0,0.3-0.1,0.3
			c-0.1,0-0.1,0-0.1-0.1c0-0.1,0-0.3-0.1-0.5c0-0.2-0.2-0.4-0.7-0.4c-0.4,0-1.9-0.1-2.2-0.1c-0.1,0-0.1,0-0.1,0.1v1.2
			c0,0.5,0,2.1,0,2.4c0,0.9,0.3,1.1,1.7,1.1c0.4,0,1.1,0,1.4-0.1c0.4-0.2,0.6-0.4,0.7-1c0-0.2,0.1-0.2,0.1-0.2
			c0.1,0,0.1,0.1,0.1,0.2c0,0.1-0.1,1-0.2,1.3c-0.1,0.4-0.2,0.4-0.8,0.4c-1.1,0-1.9,0-2.5,0c-0.6,0-1,0-1.2,0c0,0-0.3,0-0.6,0
			c-0.3,0-0.6,0-0.8,0c-0.1,0-0.2,0-0.2-0.1c0,0,0-0.1,0.1-0.1c0.1,0,0.3,0,0.4-0.1c0.3,0,0.3-0.3,0.4-0.7c0.1-0.6,0.1-1.7,0.1-3
			V6.1z"/>
		<path class="st10" d="M162.8,7.9c0,1.6,0,2.9,0.1,3.5c0,0.5,0.1,0.8,0.6,0.9c0.2,0,0.6,0.1,0.7,0.1c0.1,0,0.1,0,0.1,0.1
			c0,0.1-0.1,0.1-0.3,0.1c-0.9,0-1.9,0-2,0s-1.1,0-1.6,0c-0.2,0-0.3,0-0.3-0.1c0,0,0-0.1,0.1-0.1c0.1,0,0.3,0,0.5-0.1
			c0.3-0.1,0.4-0.4,0.5-0.9c0.1-0.7,0.1-2,0.1-3.5V0.9L159,1c-1,0-1.4,0.1-1.7,0.5c-0.2,0.3-0.2,0.4-0.3,0.5c0,0.1-0.1,0.2-0.2,0.2
			c0,0-0.1,0-0.1-0.1c0-0.2,0.3-1.6,0.4-1.7c0-0.1,0.1-0.3,0.2-0.3c0.1,0,0.3,0.2,0.7,0.2c0.5,0,1.1,0.1,1.3,0.1h6.1
			c0.5,0,0.9,0,1.2-0.1c0.2,0,0.4-0.1,0.5-0.1c0.1,0,0.1,0.1,0.1,0.2c0,0.5,0,1.6,0,1.8c0,0.1,0,0.2-0.1,0.2c-0.1,0-0.1,0-0.1-0.3
			l0-0.2c0-0.5-0.4-0.9-2-0.9l-2.1,0V7.9z"/>
		<path class="st10" d="M176.4,6.1c0-2.2,0-2.6,0-3c0-0.5-0.1-0.7-0.6-0.8c-0.1,0-0.4,0-0.5,0c0,0-0.1-0.1-0.1-0.1
			c0-0.1,0.1-0.1,0.2-0.1c0.7,0,1.6,0,1.7,0c0.1,0,3.1,0,3.4,0c0.3,0,0.5-0.1,0.7-0.1c0.1,0,0.1-0.1,0.2-0.1c0,0,0.1,0.1,0.1,0.1
			c0,0.1-0.1,0.3-0.1,0.7c0,0.1,0,0.8-0.1,0.9c0,0.1-0.1,0.1-0.1,0.1c-0.1,0-0.1-0.1-0.1-0.2c0-0.1,0-0.3-0.1-0.5
			c-0.1-0.2-0.2-0.3-1-0.4c-0.2,0-1.9,0-2.1,0c-0.1,0-0.1,0-0.1,0.1v3.8c0,0.1,0,0.1,0.1,0.1c0.2,0,2.1,0,2.4,0c0.3,0,0.6,0,0.7-0.2
			c0.1-0.1,0.2-0.2,0.2-0.2c0,0,0.1,0,0.1,0.1c0,0.1-0.1,0.3-0.1,0.8c0,0.3-0.1,0.8-0.1,0.9c0,0.1,0,0.3-0.1,0.3
			c-0.1,0-0.1,0-0.1-0.1c0-0.1,0-0.3-0.1-0.5c0-0.2-0.2-0.4-0.7-0.4c-0.4,0-1.9-0.1-2.2-0.1c-0.1,0-0.1,0-0.1,0.1v1.2
			c0,0.5,0,2.1,0,2.4c0,0.9,0.3,1.1,1.7,1.1c0.4,0,1.1,0,1.4-0.1c0.4-0.2,0.6-0.4,0.7-1c0-0.2,0.1-0.2,0.1-0.2s0.1,0.1,0.1,0.2
			c0,0.1-0.1,1-0.2,1.3c-0.1,0.4-0.2,0.4-0.8,0.4c-1.1,0-1.9,0-2.5,0c-0.6,0-1,0-1.2,0c0,0-0.3,0-0.6,0c-0.3,0-0.6,0-0.8,0
			c-0.1,0-0.2,0-0.2-0.1c0,0,0-0.1,0.1-0.1c0.1,0,0.3,0,0.4-0.1c0.3,0,0.3-0.3,0.4-0.7c0.1-0.6,0.1-1.7,0.1-3V6.1z"/>
		<path class="st10" d="M194.2,2.4c0.2-0.5,0.2-0.5,0.3-0.5c0.1,0,0.2,0.2,0.3,0.5c0.3,0.6,2.6,6.3,3.5,8.4c0.5,1.2,0.9,1.4,1.2,1.5
			c0.2,0.1,0.4,0.1,0.6,0.1c0.1,0,0.2,0,0.2,0.1s-0.2,0.1-0.3,0.1c-0.2,0-1.3,0-2.3,0c-0.3,0-0.5,0-0.5-0.1c0-0.1,0-0.1,0.1-0.1
			c0.1,0,0.2-0.1,0.1-0.4l-1.3-3.2c0-0.1,0-0.1-0.1-0.1h-3.3c-0.1,0-0.1,0-0.1,0.1l-0.8,2.2c-0.1,0.3-0.2,0.7-0.2,0.9
			c0,0.3,0.2,0.4,0.5,0.4h0.1c0.1,0,0.1,0,0.1,0.1c0,0.1-0.1,0.1-0.2,0.1c-0.3,0-1.1,0-1.3,0c-0.1,0-0.9,0-1.5,0
			c-0.2,0-0.3,0-0.3-0.1c0-0.1,0.1-0.1,0.1-0.1c0.1,0,0.3,0,0.4,0c0.7-0.1,0.9-0.6,1.2-1.3L194.2,2.4z M195.8,8.1
			C195.8,8.1,195.8,8.1,195.8,8.1l-1.4-3.9c-0.1-0.2-0.2-0.2-0.2,0L192.8,8c0,0.1,0,0.1,0,0.1H195.8z"/>
		<path class="st10" d="M219.9,10.8c0,0.5,0.1,1.2,0.7,1.4c0.4,0.1,0.8,0.1,0.9,0.1c0.1,0,0.1,0,0.1,0.1c0,0.1-0.1,0.1-0.3,0.1
			c-0.3,0-1.9,0-2.5-0.1c-0.3,0-0.4-0.1-0.4-0.1c0,0,0-0.1,0.1-0.1c0.1,0,0.1-0.2,0.1-0.5l-0.7-7h0l-3.5,7.1
			c-0.3,0.6-0.4,0.7-0.5,0.7s-0.2-0.1-0.5-0.6c-0.4-0.7-1.3-2.5-1.7-3.2c-0.4-0.9-1.6-3.2-1.8-3.8h-0.1l-0.6,6.3c0,0.2,0,0.5,0,0.7
			c0,0.2,0.1,0.3,0.3,0.4c0.2,0.1,0.5,0.1,0.6,0.1c0,0,0.1,0,0.1,0.1c0,0.1-0.1,0.1-0.3,0.1c-0.5,0-1.2,0-1.3,0c-0.1,0-0.8,0-1.2,0
			c-0.1,0-0.2,0-0.2-0.1c0,0,0.1-0.1,0.1-0.1c0.1,0,0.2,0,0.4,0c0.5-0.1,0.5-0.6,0.6-1.1l1-9.1c0-0.1,0.1-0.2,0.2-0.2
			c0.1,0,0.2,0,0.3,0.2l4.4,8.6l4.2-8.6c0.1-0.1,0.1-0.2,0.2-0.2c0.1,0,0.2,0.1,0.2,0.4L219.9,10.8z"/>
	</g>
</g>
</svg>
