<?xml version="1.0" encoding="utf-8"?>
<!-- Generator: Adobe Illustrator 25.2.3, SVG Export Plug-In . SVG Version: 6.00 Build 0)  -->
<svg version="1.1" id="section8_p.svg" xmlns="http://www.w3.org/2000/svg" xmlns:xlink="http://www.w3.org/1999/xlink" x="0px"
	 y="0px" viewBox="0 0 628 121" style="enable-background:new 0 0 628 121;" xml:space="preserve">
<style type="text/css">
	.st0{fill:#FFFFFF;}
</style>
<g>
	<g>
		<path class="st0" d="M0.7,13.1c1,0.8,2.2,1.2,3.5,1.2c1,0,1.9-0.3,2.5-0.8c0.7-0.5,1-1.3,1-2.2c0-2-1.4-3-4.3-3H2.2V6.9h1.2
			c2.5,0,3.8-0.9,3.8-2.8c0-1.8-1-2.6-2.9-2.6c-1.1,0-2.1,0.4-3,1.1V0.9c1-0.6,2.1-0.9,3.4-0.9c1.2,0,2.2,0.3,3,1
			c0.8,0.7,1.2,1.5,1.2,2.6c0,2-1,3.3-3,3.9v0C6.9,7.7,7.8,8,8.4,8.7c0.7,0.7,1,1.5,1,2.5c0,1.4-0.5,2.5-1.5,3.3s-2.3,1.2-3.8,1.2
			c-1.4,0-2.6-0.3-3.4-0.8V13.1z"/>
		<path class="st0" d="M29.9,2.6C29.5,4,29,5.1,28.4,6l-1-0.3c0.5-0.9,0.8-1.6,1-2.1h-7.3V5l5.4-0.4l0.1,1L21.1,6v0.8
			c0,0.1,0,0.2,0.1,0.3c0.1,0.1,0.2,0.2,0.3,0.2h6.7v1h-6.9C20.5,8.2,20,7.8,20,7V6L17,6.3l-0.1-1L20,5.1V3.6h-4.2v3.8
			c0,3.2-0.6,6.1-1.9,8.8l-1-0.6c1.3-2.4,1.9-5.1,1.9-8.1V2.6h5.6v-3.5h1.1v1.1h7.6v1h-7.6v1.4H29.9z M30.6,15.2l-0.3,1
			c-4.1-0.1-6.6-0.1-7.6-0.2c-1-0.1-1.9-0.4-2.8-0.9c-1.2,0.8-2.2,1.3-3,1.6l-0.8-0.8c1.2-0.4,2.2-0.8,3-1.4c-0.5-0.5-1-1.2-1.4-1.8
			c-0.3,0.4-0.8,0.8-1.2,1.1l-0.7-0.7c1.4-1.1,2.4-2.7,3.1-4.9l1,0.3c-0.2,0.5-0.3,1-0.5,1.4h3.4v1c-0.4,1.2-1.1,2.4-2,3.5
			c0.7,0.4,1.6,0.6,2.5,0.7C24.2,15.2,26.6,15.2,30.6,15.2z M21.6,10.9h-2.7c-0.1,0.1-0.2,0.4-0.6,0.9c0.5,0.9,1,1.5,1.6,1.9
			C20.6,13,21.2,12,21.6,10.9z M30.1,11.5c0,1-0.1,1.7-0.2,1.9c-0.1,0.3-0.3,0.5-0.5,0.6s-0.7,0.2-1.4,0.2c-0.9,0-1.3-0.4-1.3-1.2
			v-2.7h-1.6c0,1.7-0.6,3.1-1.8,4.1l-0.8-0.6c1.2-1.1,1.7-2.6,1.6-4.6h3.6V13c0,0.2,0.2,0.3,0.6,0.3c0.3,0,0.5-0.1,0.6-0.3
			c0.1-0.2,0.2-0.8,0.2-1.8L30.1,11.5z"/>
		<path class="st0" d="M51,13.2h-8.2v2c0,0.4-0.1,0.7-0.4,0.9c-0.2,0.2-0.5,0.3-0.9,0.3l-2.4,0l-0.3-1c0.4,0,0.8,0,1.2,0
			c0.9,0,1.4,0,1.6-0.1s0.2-0.2,0.2-0.5v-1.7h-8.2v-0.9h8.2v-0.8c1.3-0.4,2.3-0.9,3.2-1.3H37V9.2h10.2v0.9c-1.4,0.7-2.8,1.3-4.4,1.9
			v0.2H51V13.2z M50.6,10.5h-1V7.9H35.1v2.5h-1V7h1L35-0.2c1.3-0.2,2.6-0.5,3.7-1l0.5,0.8c-0.9,0.4-2,0.7-3.2,0.9V2h3.2v0.9H36
			l0,1.5h3.2v0.9h-3.1l0,1.6h12.3l0-1.6h-3.2V4.5h3.2l0-1.5h-3.2V2h3.2l0-1.4h-3.5v-0.9h4.5L49.4,7h1.2V10.5z M44.9,5.9l-0.7,0.6
			c-0.2-0.2-0.8-0.7-1.8-1.5c-1,0.7-1.8,1.2-2.4,1.4l-0.5-0.8c0.4-0.1,1.1-0.5,2.2-1.2c-0.2-0.2-0.5-0.4-0.9-0.6
			c-0.3-0.2-0.6-0.4-0.7-0.5l0.6-0.6c1,0.7,1.5,1.1,1.7,1.2c0.7-0.6,1.2-1,1.3-1.2l0.8,0.5c-0.1,0.2-0.6,0.6-1.3,1.2
			C43.5,4.7,44.1,5.2,44.9,5.9z M44.8,2l-0.7,0.6c-0.5-0.5-1.1-0.9-1.7-1.4c-0.7,0.5-1.4,0.9-2.3,1.3l-0.4-0.8
			c0.6-0.3,1.3-0.6,2-1.1c-0.5-0.4-0.9-0.8-1.4-1.1L41-1c0.8,0.6,1.3,1,1.5,1.1c0.6-0.5,1.1-0.9,1.4-1.3l0.8,0.4
			c-0.3,0.4-0.7,0.9-1.4,1.5C43.4,0.8,44,1.3,44.8,2z"/>
		<path class="st0" d="M60.7,8.1l-0.8,0.7c-0.5-0.9-0.9-1.7-1.4-2.3v10h-1v-10c-0.8,1.9-1.7,3.4-2.6,4.5l-0.7-0.9
			c1.1-1.4,2.2-3.4,3.2-6.1h-2.7v-1h2.7v-4.2h1v4.2h2.2v1h-2.2v0.6C59.3,5.8,60.1,7,60.7,8.1z M71.9,15.7l-0.6,0.9
			c-2.2-1.1-3.9-2.2-5.1-3.5c-1.5,1.4-3.3,2.6-5.5,3.4l-0.6-0.9c2.4-1,4.2-2.1,5.4-3.3c-0.9-1.3-1.8-2.9-2.5-5L63.9,7
			c0.8,2.1,1.6,3.6,2.3,4.5c0.9-1.3,1.7-2.9,2.3-4.6l0.9,0.5c-0.7,1.8-1.5,3.4-2.5,4.9C67.9,13.5,69.5,14.6,71.9,15.7z M71.3,2.2
			H60.9v-1h4.8c-0.2-0.6-0.4-1.3-0.8-1.9l1-0.4c0.3,0.4,0.6,1.2,1,2.3h4.4V2.2z M65.3,3.5c-1.1,1.7-2.3,3.2-3.5,4.3L61,7.1
			c1.1-1,2.3-2.3,3.4-4.1L65.3,3.5z M71.7,7.1l-0.8,0.7c-0.8-1.3-2-2.6-3.4-4l0.8-0.7C69.6,4.3,70.7,5.6,71.7,7.1z"/>
		<path class="st0" d="M91.5,15.1c0,0.5-0.2,0.9-0.6,1.1c-0.4,0.2-1.3,0.3-2.6,0.3c-0.3,0-0.6,0-0.9,0l-0.3-1.1c0.5,0,1,0.1,1.4,0.1
			c1,0,1.5,0,1.7-0.1s0.2-0.2,0.2-0.4v-4.8h-5.7V16h-1.1v-5.9h-5.7c-0.3,2.7-1,4.9-2.1,6.3l-0.9-0.7c1.4-2,2-4.4,2-7.2v-9.2h14.5
			V15.1z M83.7,4.1V0.4h-5.6v3.7H83.7z M83.7,9.1V5.2h-5.6v3.9H83.7z M90.4,4.1V0.4h-5.7v3.7H90.4z M90.4,9.1V5.2h-5.7v3.9H90.4z"/>
		<path class="st0" d="M101.6,12.4c-2,1.1-3.9,1.9-5.7,2.5l-0.3-1c0.8-0.3,1.7-0.6,2.5-1V5h-2.3V4h2.3v-4.8h1V4h2.2v1h-2.2v7.5
			c1.1-0.6,1.9-0.9,2.2-1.1L101.6,12.4z M113.1,12.7c-0.1,1.3-0.3,2.2-0.6,2.7c-0.3,0.5-0.7,0.7-1,0.8s-1.4,0.1-3.2,0.1
			c-2.5,0-3.9,0-4.4-0.1s-0.8-0.2-1-0.5c-0.2-0.3-0.3-0.6-0.3-1V6.5l-1.8,0.6l-0.2-1l1.9-0.7V1.2h1v3.8l3.2-1.1v-5h1v4.6l4.4-1.5
			c0,2.6-0.4,5.5-1.1,8.5l-1-0.3c0.6-2.4,0.9-4.7,1-6.7l-3.3,1.1v7.8h-1V5.1l-3.2,1.1v8.6c0,0.1,0,0.1,0.1,0.2
			c0.1,0.1,0.2,0.2,0.2,0.2s0.5,0.1,1.2,0.1c0.7,0,1.5,0,2.2,0c2.3,0,3.6-0.1,3.9-0.2c0.4-0.1,0.6-1,0.7-2.7L113.1,12.7z"/>
		<path class="st0" d="M124.7,9.6c-0.5-0.3-0.7-0.6-0.7-1c0-0.2,0.1-0.4,0.2-0.6c0.2-0.2,0.4-0.3,0.7-0.3c0.6,0,0.9,0.4,0.9,1.2
			c0,0.7-0.4,1.3-1.2,1.9l-0.4-0.3C124.6,10.2,124.7,9.9,124.7,9.6z"/>
		<path class="st0" d="M143,3.4h-2.2v3.7c0.5-0.3,1.1-0.6,1.8-1.1l0.2,1c-0.7,0.5-1.4,1-2,1.3v6.9c0,0.3-0.1,0.5-0.3,0.7
			c-0.2,0.2-0.4,0.3-0.6,0.4s-0.6,0.1-1.3,0.1c-0.3,0-0.6,0-0.9,0l-0.3-1.1c0.2,0,0.8,0,1.8,0c0.1,0,0.2-0.1,0.3-0.2
			c0.1-0.1,0.2-0.2,0.2-0.4v-6c-0.6,0.4-1.4,0.9-2.5,1.4l-0.4-0.9c1.2-0.6,2.1-1.2,2.8-1.6V3.4h-2.6v-1h2.6V-1h1v3.5h2.2V3.4z
			 M154.5,15.2l-0.3,1.1h-2.6c-1.7,0-3.1-0.2-4.1-0.5c-1-0.3-1.9-1.1-2.7-2.4c-0.5,1.3-1.2,2.3-1.9,3.1l-0.9-0.6
			c1.5-1.7,2.3-3.7,2.4-6l1,0.1c0,0.7-0.1,1.5-0.3,2.2c0.8,1.5,1.7,2.4,2.8,2.7V8.7h-5.2v-1h11.3v1h-5.1V11h4.4v1h-4.4v3
			c0.6,0.1,1.4,0.2,2.4,0.2H154.5z M152.8,6.1h-8.7v-6.7h8.7V6.1z M151.8,2.2V0.4h-6.6v1.8H151.8z M151.8,5.1v-2h-6.6v2H151.8z"/>
		<path class="st0" d="M162.8-0.8c-0.2,0.6-0.5,1.3-1,2.2l-0.7,1.3v13.6h-1V4.6c-0.6,1-1.3,1.9-2.1,2.9l-0.5-1.1
			c1.6-1.8,3-4.3,4.4-7.5L162.8-0.8z M167.3,11.3c-1.3,2.2-2.8,3.9-4.4,5.3l-0.8-0.7c1.4-1.1,2.8-2.8,4.3-5.1L167.3,11.3z M175,9.7
			h-12.8v-1h3.4V4h-3.1V3h3.1v-4h1.1v4h3.8v-4h1.1v4h2.9v1h-2.9v4.6h3.4V9.7z M170.5,8.7V4h-3.8v4.6H170.5z M175.1,15.9l-0.9,0.6
			c-1-1.5-2.5-3.2-4.6-5.1l0.9-0.6C172.6,12.7,174.1,14.4,175.1,15.9z"/>
		<path class="st0" d="M195.8,9.2h-6.6v5.5c0,0.2,0.1,0.3,0.2,0.4c0.2,0.1,0.9,0.1,2.3,0.1c1.2,0,2,0,2.2-0.1c0.2-0.1,0.4-1.1,0.4-3
			l1.1,0.4c0,1.7-0.2,2.8-0.6,3.2c-0.4,0.4-1.3,0.6-2.9,0.6c-1.7,0-2.7,0-3-0.1c-0.2-0.1-0.4-0.3-0.6-0.5s-0.2-0.6-0.2-0.9V9.2H185
			c0,3.8-2,6.3-5.9,7.3l-0.7-0.9c3.8-0.8,5.6-2.9,5.5-6.3h-5.5v-1h17.5V9.2z M195.1,5.7H194V2.1h-13.8v3.6H179V1.1h7.4
			c-0.5-1-0.9-1.7-1-2l1.1-0.4c0.5,0.9,0.9,1.6,1.1,2.3h7.4V5.7z M192.6,5.3h-11v-1h11V5.3z"/>
		<path class="st0" d="M216.4,10.3h-17.4v-1h4.9c-0.2-0.4-0.6-0.9-1.2-1.6l0.6-0.6h-4.1V6.2h8V4.5h-7.1V3.6h7.1V2.1h-7.6V1.2h16.2
			v0.9h-7.6v1.5h7.1v0.9h-7.1v1.7h8v0.9h-4.2l0.7,0.7c-0.2,0.3-0.5,0.8-1.1,1.5h4.6V10.3z M214.4,16.6h-1v-0.9h-11.3v0.9h-1v-4.9
			h13.4V16.6z M213.4,14.7v-2h-11.3v2H213.4z M205.6,0.3l-1,0.5c-0.4-0.5-0.9-1-1.5-1.4l1-0.5C204.8-0.7,205.2-0.2,205.6,0.3z
			 M211.9,7.1h-8.4c0.6,0.7,1.1,1.4,1.6,2.2h5.2C210.9,8.8,211.4,8,211.9,7.1z M212.3-0.7c-0.5,0.6-1.1,1.1-1.7,1.5l-1.1-0.5
			c0.6-0.3,1.2-0.8,1.8-1.4L212.3-0.7z"/>
		<path class="st0" d="M229.8,0.2C229,1.6,228,2.9,227,4.1h2.2v1H226c-0.7,0.8-1.4,1.4-2,1.9h3.9v0.9c-0.8,0.8-1.7,1.6-2.6,2.4v1
			c1.2-0.2,2.4-0.4,3.6-0.7l0,1c-1.1,0.3-2.3,0.5-3.6,0.7V15c0,0.4-0.1,0.8-0.4,1c-0.2,0.3-0.8,0.4-1.7,0.4c-0.3,0-0.7,0-1,0
			l-0.3-1.1c0.4,0,0.8,0,1.3,0c0.6,0,0.9,0,1-0.1s0.2-0.2,0.2-0.5v-2.3c-1.8,0.3-3.2,0.5-4.3,0.6l-0.2-1c1.7-0.2,3.2-0.5,4.5-0.7
			V9.9c0.7-0.6,1.4-1.2,2.1-1.9h-3.7c-0.9,0.6-1.7,1.2-2.4,1.6l-0.7-0.9c2.2-1.3,3.9-2.5,5.1-3.7H220v-1h3.7V1.8h-3.1V0.9h3.1v-1.9
			h1v1.9h2.3v0.9h-2.3v2.3h1c1.2-1.2,2.3-2.7,3.2-4.4L229.8,0.2z M237.3,15.6l-0.6,0.9c-1.6-1.1-2.9-2.2-3.8-3.4
			c-1.5,1.5-2.9,2.6-4.4,3.3l-0.7-0.9c1.9-1,3.4-2.1,4.5-3.4c-0.7-1.2-1.2-2.9-1.7-5.1l1-0.4c0.4,2.1,0.8,3.6,1.4,4.6
			c1.4-2.2,2.1-5,1.9-8.2h-3.1c-0.8,1.9-1.6,3.5-2.5,4.7l-0.8-0.7c1.7-2.3,2.9-5,3.4-8.3l1,0.3c-0.2,1.1-0.5,2.1-0.7,3h5v1h-1.2
			c0,3.9-0.8,7-2.4,9.2C234.4,13.6,235.7,14.6,237.3,15.6z"/>
		<path class="st0" d="M257.8,13.2h-8.2v2c0,0.4-0.1,0.7-0.4,0.9c-0.2,0.2-0.5,0.3-0.9,0.3l-2.4,0l-0.3-1c0.4,0,0.8,0,1.2,0
			c0.9,0,1.4,0,1.6-0.1s0.2-0.2,0.2-0.5v-1.7h-8.2v-0.9h8.2v-0.8c1.3-0.4,2.3-0.9,3.2-1.3h-8.1V9.2H254v0.9
			c-1.4,0.7-2.8,1.3-4.4,1.9v0.2h8.2V13.2z M257.4,10.5h-1V7.9h-14.5v2.5h-1V7h1l-0.1-7.2c1.3-0.2,2.6-0.5,3.7-1l0.5,0.8
			c-0.9,0.4-2,0.7-3.2,0.9V2h3.2v0.9h-3.2l0,1.5h3.2v0.9h-3.1l0,1.6h12.3l0-1.6H252V4.5h3.2l0-1.5H252V2h3.2l0-1.4h-3.5v-0.9h4.5
			L256.2,7h1.2V10.5z M251.7,5.9L251,6.5c-0.2-0.2-0.8-0.7-1.8-1.5c-1,0.7-1.8,1.2-2.4,1.4l-0.5-0.8c0.4-0.1,1.1-0.5,2.2-1.2
			c-0.2-0.2-0.5-0.4-0.9-0.6c-0.3-0.2-0.6-0.4-0.7-0.5l0.6-0.6c1,0.7,1.5,1.1,1.7,1.2c0.7-0.6,1.2-1,1.3-1.2l0.8,0.5
			c-0.1,0.2-0.6,0.6-1.3,1.2C250.3,4.7,250.9,5.2,251.7,5.9z M251.6,2L251,2.6c-0.5-0.5-1.1-0.9-1.7-1.4c-0.7,0.5-1.4,0.9-2.3,1.3
			l-0.4-0.8c0.6-0.3,1.3-0.6,2-1.1c-0.5-0.4-0.9-0.8-1.4-1.1l0.7-0.6c0.8,0.6,1.3,1,1.5,1.1c0.6-0.5,1.1-0.9,1.4-1.3l0.8,0.4
			c-0.3,0.4-0.7,0.9-1.4,1.5C250.2,0.8,250.8,1.3,251.6,2z"/>
		<path class="st0" d="M275.6,13.7h-8l0.5,0.7c-2.1,1-4.3,1.8-6.6,2.3l-0.5-0.9c2.1-0.4,4.2-1,6.1-2h-3.1V6.3h11.5V13.7z M266.8,4.4
			h-5.6v-1h5.6V4.4z M266.6,0.8h-5.1v-1h5.1V0.8z M274.6,8.4V7.3h-9.4v1.1H274.6z M274.6,10.6V9.3h-9.4v1.2H274.6z M274.6,12.7v-1.3
			h-9.4v1.3H274.6z M278.6,5.1l-0.4,1c-2.6-0.4-4.6-1.2-6-2.3c-1.1,1.1-2.7,1.9-4.6,2.3L267,5c2.5-0.4,4.2-1.4,5.1-3l1.1,0.2
			c0,0.2-0.2,0.4-0.5,0.8C274.1,4.1,276.1,4.8,278.6,5.1z M278.2,1.4c-0.7,1-1.3,1.7-1.9,2.3l-0.8-0.7c0.5-0.5,1-1.1,1.5-1.7h-7.3
			c-0.5,0.7-1.2,1.3-1.8,1.8l-0.7-0.7c1.1-0.9,2.1-2,2.9-3.5l1,0.3l-0.6,1.1h7.8V1.4z M278.5,15.7l-0.5,0.9c-2-0.7-3.9-1.3-5.8-1.7
			l0.5-0.9C274.8,14.5,276.7,15,278.5,15.7z"/>
		<path class="st0" d="M285.2,9.9c-0.8,2.3-1.8,4.4-2.8,6.4l-0.8-0.8c1-1.9,1.8-3.9,2.6-6.1L285.2,9.9z M285.5,6.6l-0.7,0.8
			c-1.4-1.1-2.5-1.9-3.2-2.3l0.8-0.8C283.6,5,284.6,5.7,285.5,6.6z M285.9,1.8l-0.8,0.8c-1.2-1.1-2.3-1.9-3.2-2.5l0.8-0.8
			C284,0.2,285,1,285.9,1.8z M299.2,0.5h-4.7c-0.1,0.6-0.3,1.3-0.6,2.1h4.4v6.9h-3.9V15c0,0.4-0.1,0.7-0.4,1s-0.8,0.5-1.8,0.5
			c-0.3,0-0.7,0-1-0.1l-0.3-1c0.5,0.1,0.9,0.1,1.4,0.1c0.5,0,0.8,0,0.9-0.1c0.1-0.1,0.2-0.2,0.2-0.3V9.6h-3.7V2.6h3.2
			c0.2-0.5,0.4-1.2,0.6-2.1H288V7c0,3.6-0.9,6.7-2.6,9.5l-0.9-0.8c0.7-0.9,1.3-2.2,1.7-3.7c0.4-1.6,0.7-3.8,0.7-6.9v-5.6h12.3V0.5z
			 M291.8,11.5c-1.3,1.8-2.4,3.1-3.4,3.9l-0.7-0.8c1.3-1.3,2.4-2.6,3.3-3.9L291.8,11.5z M297.2,5.6V3.6h-6.5v1.9H297.2z M297.2,8.6
			V6.6h-6.5v2.1H297.2z M299.3,14.7l-0.8,0.8c-0.8-1.3-1.7-2.6-2.8-3.9l0.8-0.7C297.7,12.2,298.7,13.5,299.3,14.7z"/>
		<path class="st0" d="M310.9,9.6c-0.5-0.3-0.7-0.6-0.7-1c0-0.2,0.1-0.4,0.2-0.6c0.2-0.2,0.4-0.3,0.7-0.3c0.6,0,0.9,0.4,0.9,1.2
			c0,0.7-0.4,1.3-1.2,1.9l-0.4-0.3C310.7,10.2,310.9,9.9,310.9,9.6z"/>
		<path class="st0" d="M338,16.5H337v-1.3h-10.4v1.3h-1.1v-17H338V16.5z M337,4.4V0.5h-10.4v3.9H337z M337,9.2V5.5h-10.4v3.7H337z
			 M337,14.1v-3.9h-10.4v3.9H337z"/>
		<path class="st0" d="M352.1,15.2c0,0.4-0.1,0.7-0.3,0.9c-0.2,0.2-0.5,0.4-0.9,0.4c-0.4,0-0.8,0-1.3,0c-0.4,0-0.7,0-1,0l-0.4-1.1
			c0.5,0.1,1.4,0.1,2.5,0.1c0.1,0,0.2-0.1,0.3-0.2s0.1-0.2,0.1-0.3v-2.9h-4.6c-0.3,1.8-1,3.3-1.9,4.6l-0.8-0.7
			c1.3-1.7,1.9-4.1,1.9-7.2V4.2h6.4V15.2z M361.2,2.5h-17.4v-1h17.4V2.5z M351,11.1V8.6h-4.3c0,0.5,0,1.3-0.1,2.5H351z M351,7.6V5.3
			h-4.3v2.3H351z M351,0.8l-1,0.4c-0.5-0.6-1.2-1.2-2-1.8l1.1-0.4C349.9-0.5,350.5,0.2,351,0.8z M357.2-0.6c-0.4,0.6-1.1,1.2-2,1.8
			l-1.1-0.5c0.7-0.5,1.4-1,2.1-1.7L357.2-0.6z M355.7,13.1h-1V4.6h1V13.1z M359.6,15c0,0.4-0.1,0.7-0.3,0.9
			c-0.2,0.2-0.4,0.4-0.7,0.5c-0.3,0.1-0.8,0.1-1.5,0.1c-0.4,0-0.9,0-1.4,0l-0.4-1.1l2.8,0.1c0.3,0,0.5-0.2,0.5-0.6V4.1h1V15z"/>
		<path class="st0" d="M381.7,10.9c-0.1,2.3-0.4,3.7-0.8,4.2s-1,0.8-1.8,0.9c-0.8,0.1-3.1,0.1-7,0.1c-1.7,0-3,0-3.7,0
			c-0.8,0-1.3-0.2-1.6-0.6c-0.3-0.4-0.5-0.9-0.5-1.6V4.1h1.1v2.5h11.7v-6h-14v-1.1h15.1v8.1h-12.7v6.6c0,0.2,0.1,0.4,0.2,0.5
			c0.1,0.2,0.3,0.2,0.5,0.3c0.2,0,1.3,0,3.3,0c5,0,7.8-0.1,8.3-0.3s0.8-1.6,0.9-4.3L381.7,10.9z"/>
		<path class="st0" d="M402.6,2.3h-9.9c-0.5,0.8-1,1.6-1.5,2.3h9.9V15c0,0.6-0.2,1-0.6,1.2c-0.4,0.2-1.2,0.3-2.6,0.3
			c-0.5,0-1,0-1.6-0.1l-0.5-1c0.6,0.1,1.3,0.1,1.9,0.1c1.1,0,1.7,0,2-0.1c0.2-0.1,0.3-0.3,0.3-0.5v-2.6h-9.9
			c-0.4,1.8-1.1,3.2-2.2,4.4l-1-0.6c1.7-1.5,2.5-4.1,2.5-7.8c0-0.4,0-0.9,0-1.5c-1.3,1.3-2.5,2.3-3.6,3L385,9
			c2.8-1.9,4.9-4.1,6.5-6.7h-6.3v-1h6.9c0.4-0.7,0.8-1.5,1.2-2.4l1.1,0.3c-0.4,0.9-0.7,1.5-1,2.1h9.3V2.3z M400,11.3V8.9h-9.6
			c0,1,0,1.8-0.1,2.4H400z M400,7.8V5.5h-9.5v2.3H400z"/>
		<path class="st0" d="M423.4,15.7l-0.7,0.9c-2.2-1.4-3.9-3-5.2-4.8c-1.3-1.8-2.2-4.1-2.9-6.7c-0.8,4.7-3.5,8.5-8.2,11.5l-0.7-0.9
			c1.2-0.8,2.3-1.7,3.4-2.7c1.1-1.1,2-2.2,2.7-3.3c0.7-1.2,1.3-2.8,1.7-4.8h-7.4v-1h7.6c0.2-1.6,0.3-3.3,0.3-4.9h1.1
			c-0.1,1.7-0.2,3.4-0.4,4.9h8.2v1h-7.4c0.7,2.9,1.7,5.1,3,6.7C419.8,13.2,421.4,14.5,423.4,15.7z"/>
		<path class="st0" d="M443.1,16.5h-1v-1h-13.8v1h-1v-17h15.8V16.5z M442.1,14.5V0.4h-13.8v14.1H442.1z M439.8,9.5h-5
			c-0.3,0.4-0.8,0.9-1.5,1.5v1.8c0.8-0.2,1.7-0.4,2.6-0.7l0.1,0.9c-1.2,0.4-2.4,0.7-3.7,1l-0.4-0.9c0.2-0.1,0.3-0.3,0.3-0.5v-0.9
			c-1.3,0.7-2.3,1.1-3.1,1.3l-0.6-0.9c2-0.5,3.6-1.3,4.8-2.6h-3V6.3h9.3V9.5z M441.2,5.1h-11.9V4.2h5.5V2.8H430V2h4.7V1h1v1h4.7v0.9
			h-4.7v1.3h5.5V5.1z M438.8,8.6V7.2h-7.3v1.4H438.8z M441.1,13.1l-0.6,0.7c-1.4-1-3.1-2-5.2-3l0.6-0.8c0.7,0.3,1.4,0.7,2.2,1.1
			c0.5-0.3,0.9-0.7,1.4-1.2l0.7,0.6c-0.5,0.5-1,0.9-1.3,1.1C439.6,12.1,440.3,12.6,441.1,13.1z"/>
		<path class="st0" d="M463.7,16.5h-1v-1.4h-13.6v1.4h-1V-0.6h15.6V16.5z M462.7,14.1V0.4h-13.6v13.8H462.7z M456.1,11
			c-2.5,0.7-4.5,1.2-6,1.4l-0.1-1c1.6-0.2,3.6-0.6,6.1-1.3L456.1,11z M462.1,10.5c-0.2,0.7-0.4,1.3-0.7,1.8c-0.3,0.5-0.5,0.8-0.7,1
			s-0.4,0.2-0.7,0.2c-0.6,0-1.2-0.7-1.9-2.1c-0.7,0.8-1.4,1.5-2.2,2.1l-0.8-0.7c0.8-0.6,1.7-1.4,2.5-2.5c-0.7-1.9-1.1-4-1.2-6.3H450
			V3.1h6.4c0-0.6,0-1.3,0-2.1h1c0,0.6,0,1.3,0,2.1h4.4V4h-4.4c0.2,2.2,0.5,3.9,0.9,5.3c0.7-1.2,1.4-2.5,2-4.1l0.9,0.4
			c-0.7,1.7-1.5,3.3-2.5,4.8c0.2,0.6,0.5,1,0.7,1.4c0.2,0.4,0.4,0.5,0.5,0.5c0.3,0,0.7-0.8,1.2-2.4L462.1,10.5z M455.2,9.5h-4.4V5.6
			h4.4V9.5z M454.2,8.5V6.6h-2.3v1.9H454.2z M460.8,2.3l-0.9,0.4c-0.3-0.5-0.6-0.9-1-1.4l0.9-0.5C460.1,1.4,460.5,1.8,460.8,2.3z"/>
		<path class="st0" d="M484.2,10.5h-7.1v6h-1.1v-6H469v-8h7.1V-1h1.1v3.6h7.1V10.5z M476.1,9.4V3.6h-6v5.8H476.1z M483.1,9.4V3.6h-6
			v5.8H483.1z"/>
		<path class="st0" d="M506,15.2l-0.2,1h-7.1c-3.5,0-6-0.8-7.5-2.4c-0.6,1-1.3,1.9-2,2.7l-0.7-0.9c1.6-1.6,2.8-3.7,3.6-6.3h-3.2V8.5
			c1.1-1.4,2.1-2.7,3-4.1h-3.3v-1h4.6v1c-0.9,1.3-1.9,2.6-3,4.1h3v1c-0.3,1.1-0.8,2.3-1.5,3.7c1.4,1.5,3.8,2.2,7.1,2.2H506z
			 M492.8,1.8L492,2.5c-0.8-1.1-1.8-2-2.9-2.8l0.7-0.7C491-0.2,492,0.7,492.8,1.8z M505.9,10.3l-0.6,0.8c-0.7-0.8-1.5-1.5-2.5-2.3
			c-0.1,1.4-0.2,2.3-0.5,2.7c-0.3,0.4-0.9,0.6-1.7,0.6c-0.2,0-0.5,0-0.9,0l-0.3-1c0.4,0.1,0.7,0.1,1.1,0.1c0.5,0,0.9-0.1,1-0.4
			c0.1-0.2,0.2-0.6,0.2-1.2h-4.8v3c0,0.2,0.1,0.4,0.3,0.5c0.2,0.1,1.3,0.1,3.3,0.1c1.4,0,2.3,0,2.7-0.1c0.4,0,0.7-0.5,0.7-1.3l1,0.4
			c-0.2,0.7-0.4,1.2-0.6,1.4c-0.2,0.2-0.6,0.4-1,0.4c-0.4,0-1.8,0-4.3,0c-0.8,0-1.4,0-1.9,0s-0.8-0.1-1-0.4s-0.3-0.6-0.3-1V10
			c-0.7,0.5-1.3,0.9-1.8,1.2l-0.7-0.7c1.4-0.8,2.6-1.8,3.6-2.9h-3.2V6.7h3.9c0.3-0.5,0.5-0.8,0.6-1.1h-4.1V1.7h3.3V0.4h-4v-0.9h12
			v0.9h-3.8v1.4h3.3v3.8h-5.7c-0.1,0.4-0.3,0.8-0.5,1.1h6.9v0.9h-3.2C503.9,8.4,505,9.3,505.9,10.3z M497.6,4.6V2.7h-2.3v1.9H497.6z
			 M502.7,8.8c-0.3-0.3-0.7-0.5-1.1-0.8c-0.4-0.3-0.6-0.4-0.6-0.4h-2.6c-0.3,0.4-0.6,0.8-1,1.2H502.7z M500.8,1.7V0.4h-2.2v1.4
			H500.8z M500.8,4.6V2.7h-2.2v1.9H500.8z M504.1,4.6V2.7h-2.3v1.9H504.1z"/>
		<path class="st0" d="M526.7,15.7l-0.7,0.9c-3.8-3.1-6.4-7-7.7-11.9c-1.7,5-4.5,8.9-8.3,11.6l-0.8-0.8c1.3-0.9,2.5-1.9,3.5-3.1
			c1-1.1,1.9-2.4,2.6-3.6c0.7-1.3,1.3-2.7,1.8-4.1c0.5-1.5,0.7-2.4,0.7-2.7l-0.1-1.5h-1.9v-1.1h2.9C518.8,6,521.5,11.4,526.7,15.7z"
			/>
		<path class="st0" d="M540.1,0.3h1.5c-2.3,2.6-3.4,5.7-3.4,9.4c0,3.5,1.1,6.6,3.4,9.2h-1.4c-2.3-2.5-3.4-5.6-3.4-9.2
			C536.7,6,537.9,2.9,540.1,0.3z"/>
		<path class="st0" d="M559.6,15.5h-8.5V14h3.4V2.1L551,3.2V1.6l5.2-1.6v14h3.4V15.5z"/>
		<path class="st0" d="M562.4,8.2c0-2.7,0.4-4.7,1.3-6.1s2.1-2.1,3.8-2.1c3.2,0,4.7,2.6,4.7,7.8c0,2.5-0.4,4.5-1.3,5.8
			c-0.9,1.4-2.1,2.1-3.8,2.1c-1.5,0-2.7-0.7-3.5-2C562.8,12.4,562.4,10.6,562.4,8.2z M564,8.1c0,4.1,1.1,6.2,3.2,6.2
			c2.1,0,3.2-2.1,3.2-6.3c0-4.4-1-6.6-3.1-6.6C565.2,1.5,564,3.7,564,8.1z"/>
		<path class="st0" d="M584.3,0.8l-6,14.7h-1.7l5.7-13.7h-7.7V0.3h9.7V0.8z"/>
		<path class="st0" d="M604.7,12.2h-7.4v4.3h-1.1v-4.3h-8.8v-1.1h2.9V5.6h5.9V2.1h-4.8c-1,1.5-2.1,2.7-3.3,3.6L587.3,5
			c1.7-1.2,3.3-3.3,4.8-6.2l1.1,0.3c-0.5,0.9-0.8,1.5-1.1,1.9h11.8v1h-6.6v3.6h6.2v1h-6.2v4.4h7.4V12.2z M596.3,11.1V6.7h-4.8v4.4
			H596.3z"/>
		<path class="st0" d="M625.5,9.2h-6.6v5.5c0,0.2,0.1,0.3,0.2,0.4c0.2,0.1,0.9,0.1,2.3,0.1c1.2,0,2,0,2.2-0.1c0.2-0.1,0.4-1.1,0.4-3
			l1.1,0.4c0,1.7-0.2,2.8-0.6,3.2c-0.4,0.4-1.3,0.6-2.9,0.6c-1.7,0-2.7,0-3-0.1c-0.2-0.1-0.4-0.3-0.6-0.5c-0.2-0.2-0.2-0.6-0.2-0.9
			V9.2h-3.2c0,3.8-2,6.3-5.9,7.3l-0.7-0.9c3.8-0.8,5.6-2.9,5.5-6.3H608v-1h17.5V9.2z M624.8,5.7h-1.1V2.1h-13.8v3.6h-1.1V1.1h7.4
			c-0.5-1-0.9-1.7-1-2l1.1-0.4c0.5,0.9,0.9,1.6,1.1,2.3h7.4V5.7z M622.3,5.3h-11v-1h11V5.3z"/>
		<path class="st0" d="M18.2,50.4H0.7v-1h8.2V35.7H1.5v-1.1h15.8v1.1H10v13.7h8.2V50.4z"/>
		<path class="st0" d="M27.5,38.3H25v4.4c0.5-0.1,1.3-0.4,2.2-0.7l0.1,1.1c-0.8,0.2-1.5,0.5-2.3,0.6v6c0,0.3-0.1,0.6-0.3,1
			c-0.2,0.4-0.8,0.5-1.9,0.5c-0.3,0-0.6,0-1,0l-0.4-1.1c0.5,0.1,0.9,0.1,1.4,0.1c0.5,0,0.8,0,1-0.1c0.1-0.1,0.2-0.2,0.2-0.4v-5.6
			c-0.9,0.2-1.9,0.4-2.9,0.6l-0.2-1c1.1-0.2,2.2-0.4,3.1-0.7v-4.7h-2.8v-1H24v-3.5h1v3.5h2.5V38.3z M37.8,34.3
			c0,1.4-0.1,2.8-0.2,4.1c-0.1,1.3-0.2,2.2-0.4,2.5c-0.1,0.3-0.3,0.6-0.6,0.8s-0.7,0.4-1.3,0.4s-1.2,0.1-1.9,0L33,41.1
			c0.4,0,0.8,0,1.1,0c1,0,1.6-0.1,1.8-0.2c0.2-0.2,0.4-0.4,0.4-0.6c0.1-0.2,0.1-0.8,0.2-1.9c0.1-1,0.1-2.1,0.1-3.2h-3.9
			c-0.5,3.3-2,5.8-4.4,7.4l-0.8-0.8c2.2-1.4,3.6-3.6,4.1-6.6H28v-1H37.8z M37.3,51.3h-1v-1.5h-6.8v1.5h-1.1v-8.1h8.9V51.3z
			 M36.3,48.8v-4.6h-6.8v4.6H36.3z"/>
		<path class="st0" d="M58.6,50.8H41.2v-1h8.5v-5.4h-6.4v-1.1h6.4v-4.6h-5.4c-0.8,1.4-1.6,2.6-2.5,3.5l-0.8-0.7
			c1.8-1.8,3.1-4.2,3.9-7l1,0.3c-0.3,1-0.6,1.9-1,2.9h4.9v-3.9h1.1v3.9h7.6v1.1h-7.6v4.6h6.7v1.1h-6.7v5.4h7.9V50.8z"/>
		<path class="st0" d="M68.5,53.7H67c2.3-2.6,3.4-5.7,3.4-9.3c0-3.6-1.1-6.7-3.4-9.3h1.4c2.3,2.5,3.4,5.6,3.4,9.2
			C71.9,48,70.8,51.1,68.5,53.7z"/>
		<path class="st0" d="M87.4,38.4h-2.1v3.9c0.7-0.3,1.3-0.6,1.9-1l0.2,1.1c-0.8,0.4-1.5,0.8-2.1,1v6.3c0,0.7-0.2,1.1-0.6,1.3
			s-0.9,0.3-1.5,0.3h-0.9l-0.4-1l1.8,0c0.3,0,0.5-0.2,0.5-0.5v-5.9c-0.6,0.3-1.4,0.6-2.2,0.8l-0.3-0.9c0.8-0.3,1.6-0.6,2.5-1v-4.4
			h-2.6v-1h2.6v-3.7h1v3.7h2.1V38.4z M99.3,49.5l-0.7,0.9c-2.2-1.7-3.8-3.5-5-5.6v6.5h-1.1v-6.4c-1.2,2-3,3.8-5.4,5.5l-0.7-0.8
			c2.6-1.7,4.4-3.5,5.4-5.5h-4.4v-1h5v-1.9h1.1v1.9h5.5v1h-4.8C95.4,46.1,97,47.9,99.3,49.5z M98.1,34.5c-2.5,1-5.8,1.6-10,1.8
			l-0.5-1c4.1-0.2,7.4-0.8,9.9-1.7L98.1,34.5z M90.6,40.9l-0.9,0.5c-0.5-1.2-1-2.3-1.6-3.3l0.9-0.5C89.6,38.6,90.2,39.7,90.6,40.9z
			 M94.1,40l-1,0.3c-0.3-1.1-0.6-2.2-1.1-3.2l0.9-0.4C93.4,37.8,93.8,38.9,94.1,40z M98.7,36.9c-0.5,1.6-1.2,3.1-2,4.4l-1-0.4
			c0.9-1.4,1.5-2.9,2-4.4L98.7,36.9z"/>
		<path class="st0" d="M116.3,34.8h-4.7v7.7h-1.1v-8.7h5.8V34.8z"/>
		<path class="st0" d="M130.9,43.8h-7.1v-5.9c-0.3,0.5-0.6,0.9-1,1.4l-0.7-0.7c1-1.2,1.9-2.8,2.7-4.9l0.9,0.3
			c-0.2,0.5-0.4,1-0.7,1.7h2.4c-0.2-0.5-0.4-1-0.7-1.5l0.8-0.4c0.4,0.6,0.7,1.3,0.8,1.9h2.5v1h-2.7V38h2.2v0.9h-2.2v1.5h2.2v0.9
			h-2.2v1.6h2.7V43.8z M139.6,50.4l-0.5,1c-3.5-0.4-6.3-0.9-8.1-1.7c-3,0.9-5.8,1.4-8.4,1.6l-0.5-0.9c2.7-0.2,5.2-0.6,7.4-1.3
			c-1.6-0.8-3-1.8-4.2-2.8H124v-1h13.6v1c-1.5,1.1-3.2,2-5.3,2.9C134.4,49.8,136.8,50.2,139.6,50.4z M127.2,38v-1.4h-2.4V38H127.2z
			 M127.2,40.4v-1.5h-2.4v1.5H127.2z M127.2,42.9v-1.6h-2.4v1.6H127.2z M135.9,46.2h-9.1c1,0.8,2.3,1.6,4.1,2.4
			C132.6,48,134.3,47.2,135.9,46.2z M139.3,43.8H132v-5.5c-0.2,0.4-0.5,0.7-0.7,1.1l-0.6-0.8c0.9-1.2,1.6-2.8,2.2-4.9l0.9,0.2
			c-0.1,0.4-0.3,1-0.6,1.7h2.4c-0.2-0.5-0.4-1-0.7-1.5l0.8-0.4c0.4,0.7,0.7,1.3,0.9,1.9h2.6v1h-2.7V38h2.4v0.9h-2.4v1.5h2.4v0.9
			h-2.4v1.6h2.7V43.8z M135.6,38v-1.4H133V38H135.6z M135.6,40.4v-1.5H133v1.5H135.6z M135.6,42.9v-1.6H133v1.6H135.6z"/>
		<path class="st0" d="M149.1,36.9h-6.7v-1h2.9c-0.2-0.6-0.4-1.3-0.8-1.9l0.9-0.4c0.4,0.8,0.7,1.6,0.9,2.3h2.7V36.9z M148.4,39.8
			h-5.5v-1h5.5V39.8z M148.4,42.7h-5.5v-1h5.5V42.7z M148.2,50.9h-1v-1.1h-3.1v1.5h-1v-6.6h5.2V50.9z M147.2,48.7v-3.1h-3.1v3.1
			H147.2z M159.9,42.9h-10.6v-1h2.9l0.8-3.2h-2.8v-1h3l0.6-2.5h-4v-1h9.6v1h-4.6l-0.6,2.5h3.8v4.2h1.7V42.9z M158.6,51.3h-1.1V50
			h-6.1v1.3h-1v-6.7h8.2V51.3z M157.5,49v-3.3h-6.1V49H157.5z M157.1,41.9v-3.2h-3l-0.7,3.2H157.1z"/>
		<path class="st0" d="M165.5,50.4h4.7v-7.7h1.1v8.7h-5.8V50.4z"/>
		<path class="st0" d="M193,35c-0.8,1.4-1.8,2.7-2.8,3.9h2.2v1h-3.1c-0.7,0.8-1.4,1.4-2,1.9h3.9v0.9c-0.8,0.8-1.7,1.6-2.6,2.4v1
			c1.2-0.2,2.4-0.4,3.6-0.7l0,1c-1.1,0.3-2.3,0.5-3.6,0.7v2.8c0,0.4-0.1,0.8-0.4,1c-0.2,0.3-0.8,0.4-1.7,0.4c-0.3,0-0.7,0-1,0
			l-0.3-1.1c0.4,0,0.8,0,1.3,0c0.6,0,0.9,0,1-0.1c0.1-0.1,0.2-0.2,0.2-0.5v-2.3c-1.8,0.3-3.2,0.5-4.3,0.6l-0.2-1
			c1.7-0.2,3.2-0.5,4.5-0.7v-1.6c0.7-0.6,1.4-1.2,2.1-1.9h-3.7c-0.9,0.6-1.7,1.2-2.4,1.6l-0.7-0.9c2.2-1.3,3.9-2.5,5.1-3.7h-4.7v-1
			h3.7v-2.3h-3.1v-0.9h3.1v-1.9h1v1.9h2.3v0.9h-2.3v2.3h1c1.2-1.2,2.3-2.7,3.2-4.4L193,35z M200.5,50.4l-0.6,0.9
			c-1.6-1.1-2.9-2.2-3.8-3.4c-1.5,1.5-2.9,2.6-4.4,3.3l-0.7-0.9c1.9-1,3.4-2.1,4.5-3.4c-0.7-1.2-1.2-2.9-1.7-5.1l1-0.4
			c0.4,2.1,0.8,3.6,1.4,4.6c1.4-2.2,2.1-5,1.9-8.2H195c-0.8,1.9-1.6,3.5-2.5,4.7l-0.8-0.7c1.7-2.3,2.9-5,3.4-8.3l1,0.3
			c-0.2,1.1-0.5,2.1-0.7,3h5v1h-1.2c0,3.9-0.8,7-2.4,9.2C197.6,48.4,198.9,49.5,200.5,50.4z"/>
		<path class="st0" d="M220.5,48h-8.2v2c0,0.4-0.1,0.7-0.4,0.9c-0.2,0.2-0.5,0.3-0.9,0.3l-2.4,0l-0.3-1c0.4,0,0.8,0,1.2,0
			c0.9,0,1.4,0,1.6-0.1c0.1-0.1,0.2-0.2,0.2-0.5V48h-8.2V47h8.2v-0.8c1.3-0.4,2.3-0.9,3.2-1.3h-8.1V44h10.2v0.9
			c-1.4,0.7-2.8,1.3-4.4,1.9V47h8.2V48z M220.1,45.3h-1v-2.5h-14.5v2.5h-1v-3.5h1l-0.1-7.2c1.3-0.2,2.6-0.5,3.7-1l0.5,0.8
			c-0.9,0.4-2,0.7-3.2,0.9v1.4h3.2v0.9h-3.2l0,1.5h3.2v0.9h-3.1l0,1.6h12.3l0-1.6h-3.2v-0.9h3.2l0-1.5h-3.2v-0.9h3.2l0-1.4h-3.5
			v-0.9h4.5l-0.2,7.4h1.2V45.3z M214.4,40.7l-0.7,0.6c-0.2-0.2-0.8-0.7-1.8-1.5c-1,0.7-1.8,1.2-2.4,1.4l-0.5-0.8
			c0.4-0.1,1.1-0.5,2.2-1.2c-0.2-0.2-0.5-0.4-0.9-0.6c-0.3-0.2-0.6-0.4-0.7-0.5l0.6-0.6c1,0.7,1.5,1.1,1.7,1.2
			c0.7-0.6,1.2-1,1.3-1.2l0.8,0.5c-0.1,0.2-0.6,0.6-1.3,1.2C213,39.5,213.6,40,214.4,40.7z M214.4,36.9l-0.7,0.6
			c-0.5-0.5-1.1-0.9-1.7-1.4c-0.7,0.5-1.4,0.9-2.3,1.3l-0.4-0.8c0.6-0.3,1.3-0.6,2-1.1c-0.5-0.4-0.9-0.8-1.4-1.1l0.7-0.6
			c0.8,0.6,1.3,1,1.5,1.1c0.6-0.5,1.1-0.9,1.4-1.3l0.8,0.4c-0.3,0.4-0.7,0.9-1.4,1.5C213,35.6,213.5,36.1,214.4,36.9z"/>
		<path class="st0" d="M231.8,44.4c-0.5-0.3-0.7-0.6-0.7-1c0-0.2,0.1-0.4,0.2-0.6s0.4-0.3,0.7-0.3c0.6,0,0.9,0.4,0.9,1.2
			c0,0.7-0.4,1.3-1.2,1.9l-0.4-0.3C231.6,45,231.8,44.7,231.8,44.4z"/>
		<path class="st0" d="M253.8,42.3h-10.2v-1h2.8c-0.2-1.1-0.6-2.3-1.2-3.7l0.8-0.6h-2v-1h4.4c-0.2-0.5-0.6-1.2-1.1-2l0.9-0.4
			c0.4,0.6,0.9,1.4,1.3,2.4h3.9v1h-2l0.8,0.5c-0.4,1.3-0.8,2.6-1.3,3.7h2.9V42.3z M252.6,51.3h-1.1v-1.3H246v1.3h-1v-7h7.7V51.3z
			 M251.5,48.9v-3.6H246v3.6H251.5z M251.2,37h-5c0.6,1.5,1,2.9,1.3,4.2h2.3C250.4,40.1,250.8,38.7,251.2,37z M258.9,41.5
			c1.4,1.7,2,3.3,2,5c0,0.9-0.2,1.5-0.6,1.9c-0.4,0.4-1.2,0.6-2.5,0.6c-0.2,0-0.4,0-0.7,0l-0.3-1.1c0.3,0,0.7,0.1,1.1,0.1
			c0.6,0,1,0,1.2-0.1c0.2-0.1,0.4-0.2,0.5-0.5c0.1-0.2,0.2-0.6,0.2-1.1c0-1.5-0.7-3-2.1-4.7c0.7-2,1.3-4.1,1.8-6.2h-3.8v15.8h-1
			V34.5h5.8v1C260.1,37.6,259.5,39.6,258.9,41.5z"/>
		<path class="st0" d="M270.9,34.2c-1.6,3.7-3.7,6.4-6.4,8.3l-0.7-0.8c2.6-1.7,4.6-4.3,6.1-7.8L270.9,34.2z M278.2,41.2
			c0,2.1-0.2,4.1-0.4,5.8c-0.2,1.7-0.4,2.8-0.7,3.2c-0.2,0.4-0.5,0.7-0.9,0.9c-0.4,0.2-1,0.3-2,0.3c-0.4,0-0.9,0-1.6,0l-0.2-1.1
			c0.7,0.1,1.4,0.1,2,0.1c0.6,0,1,0,1.2-0.1c0.2-0.1,0.3-0.2,0.5-0.3c0.1-0.1,0.3-0.6,0.4-1.3c0.2-0.7,0.3-1.6,0.4-2.7
			s0.2-2.3,0.2-3.5h-5.1c-0.5,3.9-2.7,7-6.6,9.3l-0.6-0.8c3.7-2.1,5.7-4.9,6.1-8.4H267v-1.1H278.2z M281.4,41.5l-0.7,0.9
			c-2.6-1.9-4.5-4.3-5.5-7.4h-1.5v-1.1h2.2C277,37.3,278.8,39.8,281.4,41.5z"/>
		<path class="st0" d="M290.3,36.8h-6.2v-1h2.7c-0.2-0.6-0.5-1.2-0.9-1.8l0.9-0.5c0.5,0.7,0.8,1.4,1.1,2.3h2.3V36.8z M289.9,39.6
			h-5.2v-1h5.2V39.6z M289.9,42.6h-5.2v-1h5.2V42.6z M289.7,50.8h-1v-1h-2.8v1.5h-1v-6.6h4.9V50.8z M288.7,48.8v-3.1h-2.8v3.1H288.7
			z M301.6,49.6l-0.6,0.8c-2.2-1.7-3.7-3.5-4.5-5.3v6.2h-1v-6.2c-1,1.9-2.6,3.7-4.6,5.3l-0.7-0.7c2.3-1.9,3.8-3.7,4.7-5.5h-4.2v-1
			h4.8v-1.7h-4v-7.2h9.2v7.2h-4.1v1.7h4.8v1h-4.2C297.9,46,299.4,47.8,301.6,49.6z M295.5,37.3v-2.1h-3v2.1H295.5z M295.5,40.5v-2.2
			h-3v2.2H295.5z M299.6,37.3v-2.1h-3.1v2.1H299.6z M299.6,40.5v-2.2h-3.1v2.2H299.6z"/>
		<path class="st0" d="M311.2,43.7l-0.7,0.8c-0.5-0.9-1.1-1.7-1.7-2.5v9.3h-1V42c-0.9,2.1-1.8,3.8-2.7,5l-0.7-0.8
			c1.3-1.8,2.4-4,3.3-6.4h-3.2v-1h3.3v-3l-2.4,0.5l-0.5-1c2.3-0.3,4.3-0.7,5.8-1.4l0.6,0.9c-1,0.3-1.8,0.6-2.4,0.8v3.2h2.4v1h-2.4
			v0.8C309.9,41.9,310.7,43,311.2,43.7z M321.8,50.8h-11.3v-1h5.1v-3.1h-4.4v-1h4.4v-2.9c-2.1,0.1-3.5,0.2-4,0.2l-0.5-1
			c3.7-0.1,6.9-0.4,9.5-1.1l0.7,0.9c-1.3,0.3-2.9,0.6-4.7,0.8v3h4.3v1h-4.3v3.1h5.1V50.8z M320.5,39.8h-8.6v-5.5h8.6V39.8z
			 M319.4,38.8v-3.5H313v3.5H319.4z"/>
		<path class="st0" d="M333.3,45.2c-3.6,2.5-6.4,4.3-8.4,5.2l-0.4-1l1.9-1V34h1.1v13.9c1.4-0.8,3.3-2,5.8-3.8L333.3,45.2z M335,40.5
			l-1,0.5c-0.9-1.7-2.1-3.6-3.8-5.5l1-0.5C333.1,37.3,334.4,39.1,335,40.5z M341.9,50.6l-0.8,0.7c-0.9-1.4-2.2-3-4-4.8
			c-1.2,1.6-3.1,3.2-5.7,4.9l-0.8-0.9c1.8-1,3.4-2.2,4.7-3.6c1.3-1.4,2.2-3.1,2.7-5.1c0.5-2,0.7-4.7,0.8-8.1h1.1
			c-0.1,5.8-0.9,9.8-2.3,12C339.7,47.8,341.1,49.4,341.9,50.6z"/>
		<path class="st0" d="M362.2,39.8l-0.6,0.9c-3.8-1.7-6.5-3.5-8.2-5.5c-1.6,2.2-4.3,4-8.3,5.5l-0.5-1c3.4-1.2,5.9-2.7,7.5-4.6h-1.9
			v-1h3.8C355.5,36.3,358.2,38.2,362.2,39.8z M361.7,50.9h-16.5v-1h7.8V46h-5.5v-1h5.5v-3.7h-5.5v-1h12v1H354V45h5.5v1H354v3.8h7.7
			V50.9z"/>
		<path class="st0" d="M382.3,45.4h-8.5c-1,3.1-3.8,5-8.3,5.9l-0.6-0.9c4.2-0.7,6.8-2.4,7.8-5h-7.4v-1h1.9V40h6.2v-1.9h1V40h6v4.4
			h1.9V45.4z M373.3,36.9h-2.5v2h-1v-2h-4.7v-1h4.7v-2.2h1V36h2.5V36.9z M373.3,41h-5.1v3.4h4.7C373.1,43.5,373.2,42.3,373.3,41z
			 M379.3,44.4V41h-4.9c0,1.2-0.1,2.3-0.3,3.4H379.3z M382.5,36.9h-4.7v2h-1v-2h-2.5v-1h2.5v-2.2h1V36h4.7V36.9z M382.6,50.5
			l-0.6,0.9c-2.2-1.5-4.7-2.9-7.5-4l0.6-0.9C377.6,47.5,380.1,48.8,382.6,50.5z"/>
		<path class="st0" d="M402.8,50.6l-0.7,0.9c-3.2-1-5.8-2.5-8-4.4c-2.2,1.9-4.9,3.3-8,4.3l-0.8-0.9c3.4-1,6-2.4,8-4.2
			c-1.9-2-3.4-4.4-4.4-7.1l1-0.4c1,2.8,2.4,5.1,4.2,6.9c1.9-2.2,3.3-4.7,4.1-7.7h-12.8v-1h8.4c-0.5-1-1.1-2-1.8-2.9l1-0.4
			c0.8,1.2,1.4,2.3,1.8,3.3h8v1h-3.6c-0.9,3.4-2.3,6.2-4.4,8.4C396.9,48.2,399.5,49.6,402.8,50.6z"/>
		<path class="st0" d="M411.1,42.6c-0.5,0.3-1.1,0.6-1.9,0.9v6.3c0,1.1-0.5,1.6-1.6,1.6c-0.5,0-0.9,0-1.4-0.1l-0.3-1
			c0.3,0,0.7,0.1,1,0.1c0.6,0,1,0,1.1-0.1c0.1-0.1,0.2-0.2,0.2-0.3v-6c-0.8,0.3-1.6,0.6-2.3,0.8l-0.3-1c0.9-0.2,1.8-0.5,2.7-0.9
			v-4.5h-2.6v-1h2.6v-3.6h1v3.6h1.7v1h-1.7v4.1c0.6-0.2,1.1-0.5,1.6-0.7L411.1,42.6z M423.1,50.4l-0.6,0.9c-1.9-0.7-3.6-1.5-5.1-2.4
			c-1.8,1.1-3.7,1.9-5.9,2.4l-0.8-0.8c2.2-0.6,4.1-1.3,5.7-2.2c-1.6-1.1-2.7-2.4-3.3-3.7h-0.8v-1h9.2v1c-0.7,1.4-1.7,2.6-3.2,3.7
			C419.7,49.2,421.3,49.9,423.1,50.4z M422.5,43.1h-1V41h-8.8v2.1h-1V40h10.8V43.1z M421.8,34.6c-2.9,0.8-6.1,1.3-9.7,1.4l-0.5-1
			c3.6-0.1,6.8-0.5,9.5-1.3L421.8,34.6z M414.3,38.9l-0.9,0.5c-0.4-0.9-0.9-1.7-1.5-2.4l0.9-0.5C413.5,37.3,413.9,38.1,414.3,38.9z
			 M420.3,44.7h-6.1c0.8,1.2,1.8,2.2,3.1,3C418.6,47,419.5,46,420.3,44.7z M418.1,39l-0.9,0.4c-0.3-1-0.6-1.8-1-2.5l0.9-0.4
			C417.5,37.2,417.8,38,418.1,39z M422.3,36.5c-0.4,1.1-1,2.1-1.6,2.9l-0.9-0.5c0.7-0.9,1.2-1.9,1.6-2.9L422.3,36.5z"/>
		<path class="st0" d="M432,36.8h-6.2v-1h2.7c-0.2-0.6-0.5-1.2-0.9-1.8l0.9-0.5c0.5,0.7,0.8,1.4,1.1,2.3h2.3V36.8z M431.6,39.6h-5.2
			v-1h5.2V39.6z M431.6,42.6h-5.2v-1h5.2V42.6z M431.4,50.8h-1v-1h-2.8v1.5h-1v-6.6h4.9V50.8z M430.4,48.8v-3.1h-2.8v3.1H430.4z
			 M443.3,49.6l-0.6,0.8c-2.2-1.7-3.7-3.5-4.5-5.3v6.2h-1v-6.2c-1,1.9-2.6,3.7-4.6,5.3l-0.7-0.7c2.3-1.9,3.8-3.7,4.7-5.5h-4.2v-1
			h4.8v-1.7h-4v-7.2h9.2v7.2h-4.1v1.7h4.8v1h-4.2C439.6,46,441.1,47.8,443.3,49.6z M437.2,37.3v-2.1h-3v2.1H437.2z M437.2,40.5v-2.2
			h-3v2.2H437.2z M441.3,37.3v-2.1h-3.1v2.1H441.3z M441.3,40.5v-2.2h-3.1v2.2H441.3z"/>
		<path class="st0" d="M454.5,44.4c-0.5-0.3-0.7-0.6-0.7-1c0-0.2,0.1-0.4,0.2-0.6s0.4-0.3,0.7-0.3c0.6,0,0.9,0.4,0.9,1.2
			c0,0.7-0.4,1.3-1.2,1.9l-0.4-0.3C454.3,45,454.5,44.7,454.5,44.4z"/>
		<path class="st0" d="M484,45.8l-0.7,0.9c-3-2.4-5.6-4.1-7.8-5.2v10h-1.1V40.1c-1.9,2.3-4.4,4.4-7.6,6.5l-0.7-0.9
			c4.9-2.9,8.3-6.4,10-10.4h-9.6v-1.1h17v1.1h-6.2c-0.5,1-1.1,2.1-1.8,3.3v1.6C479.4,42.4,482.2,44.2,484,45.8z"/>
		<path class="st0" d="M491.4,34c-0.1,0.6-0.4,1.4-0.8,2.4l-0.6,1.5v13.4h-1V40.2c-0.7,1.4-1.3,2.4-1.8,3.1l-0.6-1
			c1.6-2.4,2.9-5.3,3.9-8.7L491.4,34z M504,50.8h-12.8v-0.9h6v-1.6h-5.3v-0.9h5.3v-1.6h-5.6v-0.9h5.6v-1.5H492v-3.5h5.1v-1.2h-3.1
			v-2.1h-2.6v-0.9h2.6v-1.9h1v1.9h4.9v-1.9h1v1.9h2.7v0.9h-2.7v2.1h-2.9v1.2h4.9v3.5h-4.9v1.5h5.5v0.9h-5.5v1.6h5.2v0.9h-5.2v1.6
			h5.8V50.8z M497.1,42.4v-1.6h-4v1.6H497.1z M500,37.8v-1.2h-4.9v1.2H500z M502,42.4v-1.6h-3.9v1.6H502z"/>
		<path class="st0" d="M512.1,39.7h-3.4l-0.4,3.8h3.8c0,1.1-0.1,2.4-0.2,3.8c-0.1,1.4-0.2,2.3-0.3,2.6c-0.1,0.3-0.2,0.5-0.4,0.7
			c-0.2,0.2-0.5,0.4-0.8,0.5c-0.3,0.1-0.9,0.2-1.5,0.2c-0.6,0-1.1,0-1.6,0l-0.3-1c0.7,0,1.3,0,1.9,0c0.6,0,1.1,0,1.2-0.1
			c0.2-0.1,0.3-0.2,0.4-0.4c0.1-0.2,0.2-0.8,0.3-2c0.1-1.1,0.2-2.2,0.2-3.3h-3.8l0.6-5.8h3.3v-3.4h-4.2v-1h5.2V39.7z M524.2,50.8
			l-0.9,0.5c-0.3-0.7-0.6-1.2-0.9-1.6c-3.6,0.6-6.9,1.2-9.8,1.5l-0.3-1c2.5-0.3,4.3-0.5,5.2-0.7v-3.3h-4.2v-5h4.2v-1.8
			c-1.9,0.1-3.4,0.2-4.4,0.3l-0.4-0.9c1.7-1.3,3.2-3,4.3-5.1l1.1,0.3c-0.9,1.6-2.1,3.1-3.6,4.5c3.3-0.2,5.6-0.4,7.1-0.5
			c-0.6-0.7-1.3-1.5-2.1-2.2l0.7-0.7c1.4,1.3,2.7,2.7,3.9,4.3l-0.8,0.7c-0.1-0.1-0.4-0.6-1-1.3l-3.8,0.4v1.9h4.2v5h-4.2v3.2
			c1.2-0.2,2.3-0.3,3.3-0.6c-0.3-0.5-0.6-0.9-1-1.4l0.9-0.5C522.9,48.3,523.7,49.6,524.2,50.8z M517.6,45.2v-3h-3.1v3H517.6z
			 M521.8,45.2v-3h-3.1v3H521.8z"/>
		<path class="st0" d="M532.8,34c-0.3,0.7-0.7,1.7-1.2,2.8l-0.8,1.7v12.8h-1.1V40.4c-0.6,0.9-1.3,1.9-2.1,2.8l-0.7-0.8
			c1.8-2,3.4-4.9,4.8-8.7L532.8,34z M544.5,46.7c0,1-0.1,1.9-0.3,2.8c-0.2,0.9-0.6,1.4-1.2,1.5c-0.6,0.1-2.2,0.2-4.8,0.2
			c-0.6,0-1.2,0-1.6,0c-0.5,0-0.8-0.2-1.1-0.4c-0.3-0.3-0.4-0.6-0.4-1.1V33.7h1.1v6.8h7.8v1.1h-7.8v7.9c0,0.1,0,0.3,0.1,0.4
			c0.1,0.1,0.2,0.2,0.3,0.2s0.6,0,1.3,0c2.7,0,4.2-0.1,4.6-0.2c0.4-0.1,0.6-1.3,0.7-3.7L544.5,46.7z"/>
		<path class="st0" d="M556,43.8h-7.1v-5.9c-0.3,0.5-0.6,0.9-1,1.4l-0.7-0.7c1-1.2,1.9-2.8,2.7-4.9l0.9,0.3c-0.2,0.5-0.4,1-0.7,1.7
			h2.4c-0.2-0.5-0.4-1-0.7-1.5l0.8-0.4c0.4,0.6,0.7,1.3,0.8,1.9h2.5v1h-2.7V38h2.2v0.9h-2.2v1.5h2.2v0.9h-2.2v1.6h2.7V43.8z
			 M564.7,50.4l-0.5,1c-3.5-0.4-6.3-0.9-8.1-1.7c-3,0.9-5.8,1.4-8.4,1.6l-0.5-0.9c2.7-0.2,5.2-0.6,7.4-1.3c-1.6-0.8-3-1.8-4.2-2.8
			h-1.3v-1h13.6v1c-1.5,1.1-3.2,2-5.3,2.9C559.5,49.8,561.9,50.2,564.7,50.4z M552.3,38v-1.4h-2.4V38H552.3z M552.3,40.4v-1.5h-2.4
			v1.5H552.3z M552.3,42.9v-1.6h-2.4v1.6H552.3z M561,46.2H552c1,0.8,2.3,1.6,4.1,2.4C557.8,48,559.4,47.2,561,46.2z M564.4,43.8
			h-7.3v-5.5c-0.2,0.4-0.5,0.7-0.7,1.1l-0.6-0.8c0.9-1.2,1.6-2.8,2.2-4.9l0.9,0.2c-0.1,0.4-0.3,1-0.6,1.7h2.4
			c-0.2-0.5-0.4-1-0.7-1.5l0.8-0.4c0.4,0.7,0.7,1.3,0.9,1.9h2.6v1h-2.7V38h2.4v0.9h-2.4v1.5h2.4v0.9h-2.4v1.6h2.7V43.8z M560.7,38
			v-1.4h-2.6V38H560.7z M560.7,40.4v-1.5h-2.6v1.5H560.7z M560.7,42.9v-1.6h-2.6v1.6H560.7z"/>
		<path class="st0" d="M574.2,36.9h-6.7v-1h2.9c-0.2-0.6-0.4-1.3-0.8-1.9l0.9-0.4c0.4,0.8,0.7,1.6,0.9,2.3h2.7V36.9z M573.6,39.8
			H568v-1h5.5V39.8z M573.6,42.7H568v-1h5.5V42.7z M573.3,50.9h-1v-1.1h-3.1v1.5h-1v-6.6h5.2V50.9z M572.3,48.7v-3.1h-3.1v3.1H572.3
			z M585,42.9h-10.6v-1h2.9l0.8-3.2h-2.8v-1h3l0.6-2.5h-4v-1h9.6v1H580l-0.6,2.5h3.8v4.2h1.7V42.9z M583.7,51.3h-1.1V50h-6.1v1.3h-1
			v-6.7h8.2V51.3z M582.6,49v-3.3h-6.1V49H582.6z M582.2,41.9v-3.2h-3l-0.7,3.2H582.2z"/>
		<path class="st0" d="M591.7,41.5l-0.7,0.8c-0.8-0.8-1.9-1.7-3.3-2.6l0.7-0.8C589.5,39.6,590.6,40.5,591.7,41.5z M591.9,45
			c-1,2.6-2.1,4.7-3.3,6.4l-0.8-0.7c1.2-1.7,2.2-3.8,3.1-6.1L591.9,45z M591.9,36.4l-0.7,0.7c-0.8-0.9-1.9-1.8-3-2.7l0.7-0.7
			C590.3,34.7,591.2,35.6,591.9,36.4z M605.3,48H604v1.7c0,0.5-0.2,1-0.5,1.2c-0.3,0.3-0.7,0.4-1.1,0.4h-1.9l-0.4-0.9h2.2
			c0.2,0,0.4-0.1,0.5-0.2c0.2-0.1,0.2-0.3,0.2-0.4V48h-8.3v3.3h-1V48h-1.8v-0.9h1.8v-4.8h4.6v-1.5h-6.2v-0.9h3.8v-1.5h-2.9v-0.9h2.9
			v-1.3h-3.2v-0.9h3.2v-1.4h1v1.4h3.9v-1.4h1v1.4h3.3v0.9h-3.3v1.3h2.9v0.9h-2.9v1.5h3.5v0.9h-6v1.5h4.7v4.8h1.3V48z M598.3,44.7
			v-1.5h-3.6v1.5H598.3z M598.3,47.1v-1.5h-3.6v1.5H598.3z M600.7,37.5v-1.3h-3.9v1.3H600.7z M600.7,39.8v-1.5h-3.9v1.5H600.7z
			 M603,44.7v-1.5h-3.7v1.5H603z M603,47.1v-1.5h-3.7v1.5H603z"/>
		<path class="st0" d="M625.7,49.9l-0.3,1l-8,0c-2.6,0-4.8-0.7-6.4-2.2c-0.7,1-1.5,1.9-2.3,2.7l-0.8-0.7c1.8-1.5,3.1-3.6,3.9-6.4
			h-3.4v-0.9c1-1.2,2-2.6,3.1-4.2h-3.5v-1h4.9v1l-3,4.1h3.1v1c-0.3,1.2-0.8,2.4-1.4,3.6c0.6,0.6,1.3,1.1,2,1.4
			c0.8,0.3,1.5,0.5,2.3,0.6s3.2,0.1,7.2,0.1C624.2,49.9,625.1,49.9,625.7,49.9z M612.3,36.8l-0.7,0.7c-0.5-0.8-1.5-1.8-2.9-3
			l0.7-0.8C610.8,35,611.7,36,612.3,36.8z M624.7,47.4c0,0.8-0.6,1.2-1.9,1.2c-0.2,0-0.5,0-0.9,0l-0.3-1l1.5,0c0.1,0,0.2,0,0.3-0.1
			s0.2-0.2,0.2-0.3v-2h-3.6v3.4h-1.1v-3.4h-3.6v3.6h-1.1V38.4h4.4c-0.8-0.6-1.9-1.2-3.2-1.9l0.7-0.7c0.6,0.3,1.5,0.8,2.7,1.5
			c1.7-0.9,2.9-1.6,3.5-2H614v-1h10.4v1c-1.3,1-2.8,1.9-4.3,2.6c0.2,0.2,0.4,0.4,0.5,0.5h4.1V47.4z M619.1,41.2v-1.9h-3.6v1.9H619.1
			z M619.1,44.3v-2.1h-3.6v2.1H619.1z M623.7,41.2v-1.9h-3.6v1.9H623.7z M623.7,44.3v-2.1h-3.6v2.1H623.7z"/>
		<path class="st0" d="M17,72.3c0,3.2-0.1,5.9-0.2,8.2c-0.1,2.2-0.3,3.6-0.5,4.2c-0.2,0.6-0.5,1-0.9,1.2c-0.4,0.2-1.2,0.3-2.5,0.3
			c-0.5,0-1.2,0-2,0L10.5,85c0.9,0,1.7,0.1,2.4,0.1c1.1,0,1.7-0.1,1.9-0.2c0.2-0.1,0.4-0.4,0.5-0.7c0.1-0.3,0.2-1.6,0.4-3.9
			c0.2-2.3,0.2-4.5,0.3-6.8H9.8c-0.2,3.6-1,6.3-2.2,8.1c-1.2,1.8-3.1,3.4-5.7,4.7l-0.8-1c1.4-0.6,2.6-1.3,3.7-2.3
			c1.1-0.9,1.9-2.1,2.6-3.5c0.6-1.4,1.1-3.4,1.3-6.1h-7v-1.1h7.1c0.1-1.2,0.1-2.5,0.1-3.7h1.1c0,1.1,0,2.3-0.1,3.7H17z"/>
		<path class="st0" d="M29.3,79.2c-0.5-0.3-0.7-0.6-0.7-1c0-0.2,0.1-0.4,0.2-0.6s0.4-0.3,0.7-0.3c0.6,0,0.9,0.4,0.9,1.2
			c0,0.7-0.4,1.3-1.2,1.9l-0.4-0.3C29.2,79.8,29.3,79.5,29.3,79.2z"/>
		<path class="st0" d="M57.7,84.6c0,0.7-0.2,1.1-0.7,1.3c-0.4,0.1-0.8,0.2-1.4,0.2s-1.4,0-2.3,0L52.9,85c0.4,0,1.4,0,3.3,0
			c0.4,0,0.5-0.2,0.5-0.5V70.1H43.2v16.1h-1v-17h15.5V84.6z M55,73.5H44.9v-1H55V73.5z M53.9,82H46v-5.9h7.8V82z M52.8,80.9v-3.8
			h-5.7v3.8H52.8z"/>
		<path class="st0" d="M66.9,85.1h-1v-1.6h-2.8v2h-1V69.8h4.9V85.1z M65.9,76.1v-5.3h-2.8v5.3H65.9z M65.9,82.5v-5.4h-2.8v5.4H65.9z
			 M78.4,71.8h-4.7v2.9h4.1v1h-9.4v-1h4.2v-2.9h-4.9v-1.1h4.9v-2.2h1v2.2h4.7V71.8z M78.9,79.2h-2.2v5.2c0,0.7-0.2,1.1-0.5,1.3
			c-0.4,0.2-1.1,0.3-2.1,0.3c-0.3,0-0.7,0-1.2,0L72.4,85c0.6,0,1.2,0.1,1.7,0.1c0.7,0,1.1-0.1,1.3-0.2c0.2-0.1,0.3-0.3,0.3-0.5v-5.1
			h-7.8v-1h7.8v-1.9h1v1.9h2.2V79.2z M72.9,83.3L72,83.8c-0.7-1.1-1.6-2.1-2.6-3.1l0.9-0.6C71.1,80.9,72,82,72.9,83.3z"/>
		<path class="st0" d="M99,85.6H81.7v-1h5.5c-0.3-0.7-0.6-1.3-0.9-1.7h-2.4v-3.3h12.8v3.3h-2.5c-0.2,0.6-0.4,1.2-0.7,1.7H99V85.6z
			 M97.9,76.4H82.8v-7.3h1v6.4h2.6v-1.2h-1.8v-0.8h1.8v-1.2h-1.6v-0.8h1.6v-1.1h-1.8v-0.8h1.8v-0.8h0.9v0.8H89v0.8h-1.8v1.1h1.6v0.8
			h-1.6v1.2H89v0.8h-1.8v1.2h2.6v-6.9h1v6.9h2.5v-1.2h-1.7v-0.8h1.7v-1.2h-1.5v-0.8h1.5v-1.1h-1.7l0-0.8h1.7v-0.8h0.9v0.8H96v0.8
			h-1.7v1.1h1.5v0.8h-1.5v1.2H96v0.8h-1.7v1.2h2.5v-6.4h1V76.4z M97.2,78.5H83.5v-0.9h13.8V78.5z M95.7,82v-1.5H84.9V82H95.7z
			 M93.2,82.9h-5.8c0.3,0.5,0.5,1.1,0.8,1.7h4.3C92.8,84.1,93,83.5,93.2,82.9z"/>
		<path class="st0" d="M118.6,73.7h-1v-2.9h-14v2.9h-1v-3.9h7.4c-0.1-0.3-0.2-0.7-0.5-1.1l1-0.2c0.2,0.3,0.4,0.8,0.6,1.4h7.5V73.7z
			 M118.2,86.1h-1.1v-0.8h-13v0.8h-1v-6.8h15.1V86.1z M110.1,81.8v-1.5h-6v1.5H110.1z M110.1,84.3v-1.5h-6v1.5H110.1z M116.6,77.9
			h-11.9v-3.4h11.9V77.9z M116.3,73.1H105v-1h11.3V73.1z M115.5,76.9v-1.5h-9.9v1.5H115.5z M117.1,81.8v-1.5h-6v1.5H117.1z
			 M117.1,84.3v-1.5h-6v1.5H117.1z"/>
		<path class="st0" d="M138.7,86.1h-1v-1.4h-13.6v1.4h-1V69h15.6V86.1z M137.7,83.7V70h-13.6v13.8H137.7z M131.1,80.7
			c-2.5,0.7-4.5,1.2-6,1.4l-0.1-1c1.6-0.2,3.6-0.6,6.1-1.3L131.1,80.7z M137,80.1c-0.2,0.7-0.4,1.3-0.7,1.8c-0.3,0.5-0.5,0.8-0.7,1
			s-0.4,0.2-0.7,0.2c-0.6,0-1.2-0.7-1.9-2.1c-0.7,0.8-1.4,1.5-2.2,2.1l-0.8-0.7c0.8-0.6,1.7-1.4,2.5-2.5c-0.7-1.9-1.1-4-1.2-6.3
			h-6.5v-0.9h6.4c0-0.6,0-1.3,0-2.1h1c0,0.6,0,1.3,0,2.1h4.4v0.9h-4.4c0.2,2.2,0.5,3.9,0.9,5.3c0.7-1.2,1.4-2.5,2-4.1l0.9,0.4
			c-0.7,1.7-1.5,3.3-2.5,4.8c0.2,0.6,0.5,1,0.7,1.4c0.2,0.4,0.4,0.5,0.5,0.5c0.3,0,0.7-0.8,1.2-2.4L137,80.1z M130.2,79.1h-4.4v-3.9
			h4.4V79.1z M129.2,78.1v-1.9h-2.3v1.9H129.2z M135.7,72l-0.9,0.4c-0.3-0.5-0.6-0.9-1-1.4l0.9-0.5C135.1,71,135.5,71.5,135.7,72z"
			/>
		<path class="st0" d="M146.2,74.9c1.1,1.4,1.7,2.8,1.7,4.2c0,0.7-0.2,1.3-0.7,1.7c-0.5,0.4-1,0.6-1.7,0.6c-0.1,0-0.3,0-0.4,0
			l-0.4-1c0.9,0,1.5,0,1.8-0.3c0.3-0.2,0.4-0.6,0.4-1c0-1.4-0.6-2.8-1.8-4.1c0.5-1.4,1-3.1,1.5-5h-2.4v16.1h-1v-17h4.6v1
			C147.2,71.9,146.7,73.5,146.2,74.9z M152.3,81.6c-1.1,1.3-2.4,2.6-3.9,3.6l-0.7-0.8c1.3-0.8,2.5-2,3.9-3.5L152.3,81.6z M148.2,75
			l-0.3-0.9c0.9-0.2,1.7-0.5,2.4-0.9l0.3,0.9C150.3,74.3,149.5,74.6,148.2,75z M154.3,70.3c-0.7,3.2-2.6,5.6-5.8,7.2l-0.5-0.8
			c1.7-0.8,3-1.8,3.8-3c-0.5-0.5-1.2-1.1-2-1.6c-0.3,0.3-0.6,0.7-1,1l-0.8-0.7c1.4-1.3,2.3-2.6,2.8-3.8l0.9,0.4l-0.3,0.8L154.3,70.3
			z M159.2,79.7h-4.6v6.4h-1v-6.4h-4.9v-1h10.6V79.7z M153.1,71.1l-2.3-0.4c-0.2,0.3-0.3,0.5-0.4,0.7c0.8,0.5,1.4,1,1.9,1.5
			C152.6,72.2,152.9,71.6,153.1,71.1z M156.5,76.9h-4.9v-1h4.9V76.9z M159.9,76.7l-0.6,0.8c-2.6-1.8-4.1-3.7-4.7-5.8l0.8-0.3
			c0.3,0.7,0.6,1.4,1,2c0.8-0.8,1.4-1.8,1.9-3.1h-3.5v-0.9h4.5v1c-0.4,1.3-1.2,2.6-2.3,3.8C157.8,75.1,158.8,75.9,159.9,76.7z
			 M159.8,84.7l-0.8,0.6c-0.7-1.3-1.7-2.5-2.9-3.8L157,81C158,82,158.9,83.2,159.8,84.7z"/>
		<path class="st0" d="M169.9,79.7l-0.8,0.7c-0.6-1-1.4-2-2.3-3V86h-1v-7.6c-0.5,0.6-1.3,1.4-2.4,2.3l-0.8-0.7
			c2.8-2.5,4.6-4.7,5.4-6.8h-4.9v-1h6v1c-0.6,1.2-1.2,2.3-1.8,3.3C168.4,77.7,169.3,78.7,169.9,79.7z M167.4,71.3l-1,0.4
			c-0.6-1.1-1.1-2-1.7-2.6l0.9-0.5C166.2,69.1,166.7,70,167.4,71.3z M180.1,82.5c0,0.8-0.1,1.5-0.3,2c-0.2,0.5-0.4,0.9-0.7,1
			s-0.7,0.3-1.4,0.3c-1,0-1.6-0.2-1.9-0.5c-0.3-0.3-0.4-0.6-0.4-1v-4.7h-2.2c0,1.1-0.2,2.2-0.7,3.2c-0.5,1-1.2,1.8-2,2.4
			c-0.8,0.6-1.3,0.9-1.5,0.9h0l-0.6-0.8c2.6-1.1,3.9-3,3.9-5.6h-1.9V69.2h8.3v10.5h-2.2v4.6c0,0.4,0.4,0.6,1.2,0.6
			c0.5,0,0.8-0.1,1-0.4c0.2-0.3,0.3-1,0.4-2.3L180.1,82.5z M177.7,72.3v-2.2h-6.2v2.2H177.7z M177.7,75.4v-2.1h-6.2v2.1H177.7z
			 M177.7,78.6v-2.2h-6.2v2.2H177.7z"/>
		<path class="st0" d="M191.8,84c-2.8,0.7-5.7,1.2-8.9,1.7l-0.1-1c1.4-0.1,2.7-0.3,4.1-0.6v-2.9h-3.7v-1h3.7v-2.3h-3.3V69h7.6v8.8
			h-3.3v2.3h3.5v1h-3.5v2.7c0.9-0.2,2.2-0.4,3.8-0.8L191.8,84z M186.9,72.9V70h-2.3v2.8H186.9z M186.9,76.8v-2.9h-2.3v2.9H186.9z
			 M190.2,72.9V70h-2.3v2.8H190.2z M190.2,76.8v-2.9h-2.3v2.9H190.2z M200.1,75.8c-0.3,1.9-0.8,3.6-1.6,5.1l-0.9-0.6
			c0.5-0.9,0.9-2.1,1.3-3.6h-2.5v7.8c0,0.5-0.1,0.9-0.4,1.1s-0.9,0.4-1.8,0.4h-1.2l-0.3-1c1.1,0,1.8,0,2,0c0.2,0,0.3-0.1,0.5-0.3
			c0.1-0.2,0.2-0.3,0.2-0.5v-7.5H192v-1h4.7c-0.9-1.2-2.2-2.3-3.8-3.4l0.7-0.7c0.6,0.4,1.3,1,2.1,1.6c1.1-1.2,1.9-2.2,2.6-3.2h-6v-1
			h7.2v1c-1,1.4-2,2.7-3.1,3.9c0.5,0.4,0.8,0.8,1.1,1.2l-0.5,0.6H200.1z"/>
		<path class="st0" d="M211.5,79.2c-0.5-0.3-0.7-0.6-0.7-1c0-0.2,0.1-0.4,0.2-0.6s0.4-0.3,0.7-0.3c0.6,0,0.9,0.4,0.9,1.2
			c0,0.7-0.4,1.3-1.2,1.9l-0.4-0.3C211.4,79.8,211.5,79.5,211.5,79.2z"/>
		<path class="st0" d="M240.9,85.1l-0.4,1c-4-0.2-7.3-0.9-10-1.9c-1.7,1.2-3.9,1.8-6.7,2l-0.5-1c2.5-0.1,4.5-0.6,6.1-1.5
			c-1.4-0.7-2.6-1.4-3.7-2.3l0.8-0.7c1,0.9,2.2,1.6,3.7,2.2c0.7-0.7,1.1-1.8,1.3-3.1h-6.2v-7.5h6.3v-2.2h-8.2v-1h17.2v1h-8v2.2h6.1
			v7.5h-6.2c-0.2,1.5-0.7,2.7-1.3,3.5C233.9,84.3,237.1,84.9,240.9,85.1z M231.7,75.5v-2.1h-5.2v2.1H231.7z M231.7,76.5h-5.2v2.4
			h5.1c0-0.5,0.1-1,0.1-1.5C231.7,77,231.7,76.8,231.7,76.5z M237.8,78.8v-2.4h-5c0,1.1,0,1.9-0.1,2.4H237.8z M237.8,75.5v-2.1h-5
			v2.1H237.8z"/>
		<path class="st0" d="M261.1,85.4H248v0.7h-1.1v-8.8c-0.7,0.8-1.6,1.6-2.6,2.5l-0.8-0.8c2.4-2,4.3-4,5.5-6.3h-5v-1h5.5
			c0.5-0.8,0.9-1.9,1.3-3.2l1.1,0.2c-0.4,1-0.8,2-1.2,3h10v1h-10.5c-0.7,1.2-1.4,2.3-2.2,3.3v8.4h5.8v-5.6h-4.4v-1h4.4V74h1.1v3.7
			h4.8v1h-4.8v5.6h6.2V85.4z"/>
		<path class="st0" d="M268,68.8c-0.1,0.6-0.4,1.4-0.6,2.4l-0.4,1.4v13.6h-1v-11c-0.6,1.2-1.1,2.1-1.5,2.7l-0.8-0.8
			c1.5-2.2,2.6-5,3.3-8.5L268,68.8z M281,70h-5.9c-0.1,0.3-0.3,0.7-0.5,1.1h4.5V76h1.8v2.5h-1.1v-1.6h-10.6v1.6h-1V76h1.7v-4.9h3.6
			c0.2-0.3,0.3-0.6,0.5-1.1h-5.4v-0.9H281V70z M281.2,85.5l-0.5,0.8c-2.3-0.4-4.1-0.9-5.6-1.5c-1.6,0.7-3.7,1.2-6.3,1.4l-0.5-0.9
			c2.4-0.1,4.3-0.4,5.7-0.9c-0.9-0.4-1.8-1-2.6-1.6c-1,0.5-1.8,0.9-2.4,1.1l-0.6-0.8c1-0.3,1.8-0.7,2.2-0.9
			c-0.3-0.3-0.4-0.4-0.6-0.6l0.7-0.6c0.3,0.3,0.5,0.5,0.7,0.7c0.4-0.2,0.9-0.7,1.6-1.3c-0.8-0.1-1.2-0.5-1.2-1.2v-1.5h1v1.5
			c0,0.2,0.1,0.3,0.2,0.4c0.1,0.1,0.7,0.1,1.6,0.1c1.1,0,1.7-0.1,1.9-0.2c0.2-0.2,0.3-0.5,0.3-1.1l0.9,0.4c-0.1,0.9-0.4,1.4-0.8,1.5
			c-0.5,0.2-1.4,0.2-2.7,0.2c-0.4,0.4-0.6,0.7-0.7,0.8h5.3v0.8c-0.6,0.7-1.4,1.5-2.5,2.2C277.8,84.8,279.4,85.2,281.2,85.5z
			 M271.3,78.1c-0.6,1.2-1.2,2.2-1.9,2.8l-0.8-0.6c0.7-0.7,1.4-1.6,1.9-2.6L271.3,78.1z M278.1,72.7v-0.8h-7.2v0.8H278.1z
			 M278.1,74.4v-0.9h-7.2v0.9H278.1z M278.1,76v-0.9h-7.2V76H278.1z M277.4,82.1h-5.1l-0.1,0.2c0.9,0.7,1.9,1.2,2.9,1.6
			C275.8,83.5,276.6,82.9,277.4,82.1z M275.9,78.3l-0.5,0.7c-0.6-0.4-1.1-0.7-1.7-1l0.5-0.7C274.7,77.6,275.3,77.9,275.9,78.3z
			 M280.7,80.4l-0.8,0.5c-0.5-1-1.1-1.9-1.8-2.8l0.8-0.5C279.6,78.6,280.3,79.5,280.7,80.4z"/>
		<path class="st0" d="M301.5,77.6l-0.5,0.9c-2-1.3-4.6-2.5-7.7-3.7v3.1h3.6c-0.1,0.8-0.2,1.6-0.4,2.5h2.9c0,0.9-0.1,1.8-0.3,2.8
			c-0.2,1-0.4,1.6-0.5,1.8c-0.1,0.2-0.4,0.5-0.6,0.6c-0.3,0.2-0.5,0.3-0.8,0.3s-0.9,0.1-1.8,0.1c-0.5,0-0.9,0-1.3,0l-0.4-1
			c1.8,0,2.8,0,3.1,0c0.3,0,0.6-0.2,0.8-0.5c0.3-0.3,0.5-1.3,0.7-3.1h-3.1c0.2-0.7,0.4-1.5,0.5-2.5h-4.5c-0.2,3.5-2.3,5.9-6.5,7.3
			l-0.7-0.9c4-1.2,6-3.3,6.2-6.4h-3.2v-1h5.3v-4c-2.1,2.2-4.7,3.8-7.8,4.8l-0.6-0.9c2.8-0.8,5.2-2.2,7.2-4h-6.9v-1h8.1v-2
			c-2.2,0.2-4.2,0.3-6,0.3l-0.5-1.1c5.8,0.1,10.2-0.4,13.2-1.3l0.7,0.9c-1.6,0.5-3.7,0.9-6.3,1.1v2.1h8.2v1h-8.2v0.1
			C296.9,75.3,299.7,76.5,301.5,77.6z"/>
		<path class="st0" d="M311.4,84.9h-5.1v1.3h-1V70.9h2c0.5-0.9,0.8-1.7,1.1-2.4l1,0.3c-0.2,0.6-0.5,1.3-1,2.1h2.6v5.4h-4.7v2.6h5.1
			V84.9z M309.8,75.4v-3.4h-3.6v3.4H309.8z M310.3,83.9v-4h-4.1v4H310.3z M321.9,70.1h-4.3V73h3.4v10.3c0,1.1-0.8,1.5-2.3,1.4
			l-0.3-1c0.3,0,0.6,0,0.8,0c0.6,0,0.8-0.2,0.8-0.6V74h-2.4v12.2h-1V74h-2.5v10.8h-1V73h3.5v-2.8h-4.4v-1h9.7V70.1z"/>
		<path class="st0" d="M339.1,83.3h-8l0.5,0.7c-2.1,1-4.3,1.8-6.6,2.3l-0.5-0.9c2.1-0.4,4.2-1,6.1-2h-3.1V76h11.5V83.3z M330.3,74.1
			h-5.6v-1h5.6V74.1z M330.2,70.4h-5v-1h5V70.4z M338.1,78v-1.1h-9.4V78H338.1z M338.1,80.2v-1.2h-9.4v1.2H338.1z M338.1,82.3v-1.3
			h-9.4v1.3H338.1z M342.1,74.7l-0.4,1c-2.6-0.4-4.6-1.2-6-2.3c-1.1,1.1-2.7,1.9-4.6,2.3l-0.5-1c2.5-0.4,4.2-1.4,5.1-3l1.1,0.2
			c0,0.2-0.2,0.4-0.5,0.8C337.6,73.7,339.6,74.4,342.1,74.7z M341.7,71c-0.7,1-1.3,1.7-1.9,2.3l-0.8-0.7c0.5-0.5,1-1.1,1.5-1.7h-7.3
			c-0.5,0.7-1.2,1.3-1.8,1.8l-0.7-0.7c1.1-0.9,2.1-2,2.9-3.5l1,0.3l-0.6,1.1h7.8V71z M342,85.3l-0.5,0.9c-2-0.7-3.9-1.3-5.8-1.7
			l0.5-0.9C338.3,84.1,340.2,84.7,342,85.3z"/>
		<path class="st0" d="M355.5,78.6l-0.7,0.8c-1-1.1-2-2-3.2-2.9l0.7-0.8C353.6,76.7,354.7,77.7,355.5,78.6z"/>
		<path class="st0" d="M380.1,71.1c-3.1,3.6-8,6-14.6,7.1l-0.5-1.1c3-0.4,5.6-1.1,7.7-2c-0.8-0.8-2-1.8-3.4-2.9
			c-1,0.6-2.1,1.1-3.2,1.5l-0.6-0.9c3.2-1.2,5.6-2.7,7.1-4.4l1.1,0.4c-0.4,0.5-0.8,1-1.3,1.4h7.8V71.1z M382.3,78.3
			c0,0.2-0.4,0.8-1.1,1.8c-0.4,0.5-0.8,1-1.3,1.5s-1,0.9-1.6,1.3c-0.6,0.4-1.2,0.8-2,1.2c-0.8,0.4-1.7,0.8-2.8,1.1
			c-1.1,0.3-2.3,0.6-3.5,0.7c-1.2,0.2-2.3,0.2-3.4,0.2l-0.5-1.1c3.6,0,6.6-0.5,9.2-1.6c-0.8-1-2-2.1-3.5-3.2
			c-1.3,0.7-2.8,1.2-4.5,1.6l-0.6-1c4.2-0.8,7.5-2.6,9.9-5.5l1,0.4c-0.5,0.6-0.9,1.1-1.5,1.6h6.2V78.3z M378.5,71.3h-7.6
			c-0.1,0.1-0.4,0.3-0.7,0.5c1.2,0.9,2.4,1.9,3.5,2.9C375.5,73.8,377.1,72.7,378.5,71.3z M381.1,78.4h-6.2c-0.6,0.5-1.3,0.9-2,1.3
			c1.2,0.9,2.4,2,3.5,3.2C378.5,81.7,380.1,80.2,381.1,78.4z"/>
		<path class="st0" d="M402.7,80.9c0,0.9-0.1,1.8-0.3,2.8c-0.2,1-0.5,1.6-0.9,1.8c-0.4,0.3-1.3,0.4-2.6,0.4c-0.9,0-1.6,0-2-0.1
			c-0.4,0-0.7-0.2-1-0.5s-0.4-0.6-0.4-1V76h-3.7c-0.1,2.6-0.6,4.7-1.4,6.2c-0.8,1.6-2.3,2.9-4.4,4l-0.7-0.9c1.5-0.7,2.8-1.7,3.8-3
			c1-1.3,1.6-3.4,1.6-6.4h-5.1v-1.1h16.8V76h-5.9v8.3c0,0.2,0.1,0.4,0.4,0.5s0.7,0.1,1.4,0.1c1.3,0,2,0,2.2-0.1s0.3-0.2,0.5-0.3
			c0.2-0.2,0.3-0.7,0.4-1.5c0.1-0.8,0.2-1.7,0.2-2.5L402.7,80.9z M400.9,70.1h-13.8V69h13.8V70.1z"/>
		<path class="st0" d="M411.8,71.7h-6.2v-1h2.7c-0.2-0.6-0.5-1.2-0.9-1.8l0.9-0.5c0.5,0.7,0.8,1.4,1.1,2.3h2.3V71.7z M411.4,74.4
			h-5.2v-1h5.2V74.4z M411.4,77.4h-5.2v-1h5.2V77.4z M411.1,85.6h-1v-1h-2.8v1.5h-1v-6.6h4.9V85.6z M410.1,83.6v-3.1h-2.8v3.1H410.1
			z M423.1,84.4l-0.6,0.8c-2.2-1.7-3.7-3.5-4.5-5.3v6.2h-1v-6.2c-1,1.9-2.6,3.7-4.6,5.3l-0.7-0.7c2.3-1.9,3.8-3.7,4.7-5.5h-4.2v-1
			h4.8v-1.7h-4V69h9.2v7.2H418V78h4.8v1h-4.2C419.4,80.8,420.9,82.6,423.1,84.4z M417,72.1V70h-3v2.1H417z M417,75.3v-2.2h-3v2.2
			H417z M421.1,72.1V70H418v2.1H421.1z M421.1,75.3v-2.2H418v2.2H421.1z"/>
		<path class="st0" d="M432.6,78.5l-0.7,0.8c-0.5-0.9-1.1-1.7-1.7-2.5v9.3h-1v-9.3c-0.9,2.1-1.8,3.8-2.7,5l-0.7-0.8
			c1.3-1.8,2.4-4,3.3-6.4h-3.2v-1h3.3v-3l-2.4,0.5l-0.5-1c2.3-0.3,4.3-0.7,5.8-1.4l0.6,0.9c-1,0.3-1.8,0.6-2.4,0.8v3.2h2.4v1h-2.4
			v0.8C431.4,76.7,432.2,77.8,432.6,78.5z M443.2,85.6H432v-1h5.1v-3.1h-4.4v-1h4.4v-2.9c-2.1,0.1-3.5,0.2-4,0.2l-0.5-1
			c3.7-0.1,6.9-0.4,9.5-1.1l0.7,0.9c-1.3,0.3-2.9,0.6-4.7,0.8v3h4.3v1h-4.3v3.1h5.1V85.6z M442,74.7h-8.6v-5.5h8.6V74.7z
			 M440.9,73.6v-3.5h-6.5v3.5H440.9z"/>
		<path class="st0" d="M463.5,70.1h-9.1v4.3c3.5,1.9,5.8,3.3,7.1,4.4l-0.6,1c-1.7-1.4-3.9-2.8-6.4-4.2v10.5h-1.1v-16h-7.2V69h17.4
			V70.1z"/>
		<path class="st0" d="M474.7,79.2c-0.5-0.3-0.7-0.6-0.7-1c0-0.2,0.1-0.4,0.2-0.6s0.4-0.3,0.7-0.3c0.6,0,0.9,0.4,0.9,1.2
			c0,0.7-0.4,1.3-1.2,1.9l-0.4-0.3C474.6,79.8,474.7,79.5,474.7,79.2z"/>
		<path class="st0" d="M504,80.3h-8v4.3c0,0.4-0.1,0.8-0.3,1c-0.2,0.2-0.5,0.4-0.7,0.4c-0.3,0-0.9,0.1-1.9,0.1c-0.6,0-1.1,0-1.5,0
			l-0.3-1.1c0.6,0,1.7,0,3.2,0c0.3,0,0.5-0.2,0.5-0.5v-4.2h-8.4v-1h8.4v-1.6c1-0.8,1.9-1.5,2.6-2.2h-6.8c-1,0.9-2.2,1.6-3.6,2.2
			l-0.5-0.9c3.4-1.4,5.4-3.6,6.2-6.7H488v-1h12.7c-0.1,0.4-0.4,1.3-0.9,2.7h3.6c-0.1,1.5-0.3,2.8-0.5,3.8s-0.5,1.6-0.7,1.8
			c-0.2,0.3-0.5,0.4-0.8,0.5c-0.3,0.1-1,0.1-2,0.1l-0.3-1c1.3,0,2,0,2.2-0.1c0.2-0.1,0.4-0.6,0.6-1.5s0.3-1.7,0.4-2.5h-3.9
			c0.3-0.9,0.6-1.8,0.9-2.7h-5.3c-0.5,1.8-1.2,3.2-2.1,4.3h7.6v0.9c-1.9,1.6-3,2.5-3.3,2.8v1.1h8V80.3z"/>
		<path class="st0" d="M524.1,70.9h-10.2c-1,1.1-2.2,2.1-3.4,2.9c3.9-0.2,6.9-0.5,9.1-0.8c-0.7-0.4-1.3-0.7-1.7-0.9l0.8-0.7
			c1.6,0.8,3.1,1.8,4.7,3.1l-0.8,0.8c-0.7-0.6-1.3-1-1.7-1.3c-3.9,0.5-8.2,0.8-12.7,1.1l-0.3-1.1c1.5-0.3,3-1.3,4.6-3h-5.5v-1h6.5
			c0.4-0.4,0.8-0.9,1.1-1.5l1.1,0.3c-0.2,0.2-0.5,0.6-0.9,1.1h9.3V70.9z M522,84.5c0,1-0.8,1.5-2.3,1.5c-0.6,0-1.3,0-2-0.1l-0.3-1
			c0.3,0,1.3,0,2.9,0c0.4,0,0.7-0.2,0.7-0.7v-3.2c-3.7,0.9-7.2,1.7-10.6,2.3l-0.4-0.8c-0.3,1.3-1,2.5-2.1,3.6l-0.8-0.7
			c0.9-0.9,1.5-1.7,1.7-2.6c0.3-0.9,0.4-2.2,0.4-4v-3H522V84.5z M520.9,80.1v-3.2h-10.7v1.4c3.3,0.2,6,0.4,8,0.8l-0.4,1
			c-2.2-0.4-4.7-0.6-7.6-0.7c0,0.6-0.1,1.6-0.2,3C512.7,82,516.3,81.3,520.9,80.1z"/>
		<path class="st0" d="M533.3,70c0,0.1-0.3,0.6-0.9,1.7c-0.6,1.1-1.1,1.9-1.5,2.6v2.8c0.6-0.2,1.3-0.6,2.1-1l0,1.2
			c-0.7,0.4-1.4,0.7-2.2,1v6.5c0,0.4-0.1,0.7-0.4,1s-0.6,0.4-1.1,0.4c-0.6,0-1.1,0-1.3,0l-0.4-1l1.8,0c0.3,0,0.4-0.1,0.4-0.4v-5.9
			c-1,0.4-2,0.7-2.8,1l-0.2-1c1.2-0.4,2.2-0.7,3-1.1V74c0.9-1.4,1.7-2.7,2.3-3.9h-4.8v-1h5.9V70z M544.3,85.5l-0.9,0.7
			c-0.9-1.3-2.1-2.6-3.7-4c-2,1.7-4.2,3-6.8,4l-0.7-0.9c2.2-0.7,4.3-1.8,6.2-3.5c1.9-1.7,3.5-3.6,4.6-5.7l0.9,0.5
			c-1.1,1.9-2.2,3.6-3.5,4.9C542.2,82.9,543.5,84.3,544.3,85.5z M544.3,71.5h-5.5c-1,2-2.1,3.5-3.3,4.6c1.5-0.1,2.8-0.3,4.1-0.5
			c0.7-1,1.2-1.9,1.5-2.6l0.9,0.5c-2,4.1-4.9,6.9-8.8,8.5l-0.7-0.8c2.6-1.2,4.7-2.7,6.2-4.5l-4.9,0.6l-0.3-1c0.6-0.3,1.4-1,2.2-2.1
			c0.8-1.1,1.4-2,1.8-2.8h-3.8v-1h4.6c-0.1-0.3-0.4-0.8-0.9-1.6l1-0.3c0.5,0.7,0.8,1.4,1.1,2h4.8V71.5z"/>
		<path class="st0" d="M564.7,77.9h-8.1v6.7c0,0.5-0.2,0.8-0.5,1.1c-0.3,0.3-0.7,0.4-1.2,0.4c-0.8,0-1.7,0-2.6,0L552,85
			c1.5,0,2.6,0.1,3.1,0.1c0.1,0,0.2-0.1,0.3-0.2c0.1-0.1,0.1-0.2,0.1-0.4v-6.7h-8.2v-1.1h8.2v-2.6c2-1.2,3.8-2.5,5.5-4.1h-11.5v-1.1
			h13v1.1c-1.9,1.8-3.9,3.4-5.9,4.6v2h8.1V77.9z"/>
		<path class="st0" d="M585.3,80.6l-0.7,0.9c-3-2.4-5.6-4.1-7.8-5.2v10h-1.1V74.9c-1.9,2.3-4.4,4.4-7.6,6.5l-0.7-0.9
			c4.9-2.9,8.3-6.4,10-10.4h-9.6v-1.1h17v1.1h-6.2c-0.5,1-1.1,2.1-1.8,3.3V75C580.6,77.2,583.4,79.1,585.3,80.6z"/>
		<path class="st0" d="M605,81.5c-0.1,2.1-0.3,3.4-0.6,3.9s-1.1,0.7-2.3,0.7c-0.7,0-1.2,0-1.4-0.1c-0.2-0.1-0.4-0.2-0.6-0.5
			c-0.2-0.2-0.2-0.5-0.2-0.8V70.2h-8v4.2l0.7-0.5c2.2,2.3,3.9,4.5,5.2,6.6l-0.9,0.6c-1.1-1.9-2.7-4-5-6.5c0,3.1-0.3,5.5-0.9,7.1
			c-0.6,1.7-1.4,3.2-2.6,4.6l-0.8-0.8c1.1-1.1,1.9-2.5,2.4-4.2s0.8-3.8,0.8-6.4v-5.7H601v15.3c0,0.2,0.1,0.3,0.2,0.4
			c0.2,0.1,0.5,0.2,1.1,0.2c0.5,0,0.9-0.1,1.1-0.2c0.2-0.1,0.4-0.6,0.5-1.5c0.1-0.9,0.1-1.6,0.1-2.2L605,81.5z"/>
		<path class="st0" d="M625.5,84.3l-0.7,0.8c-3.3-2.3-5.8-4.9-7.3-8h-0.1v9h-1.1v-9h-0.1c-1.6,3.3-4.1,5.9-7.5,7.9l-0.7-0.9
			c3.3-1.9,5.7-4.2,7.1-7.1h-6.9v-1h8.1v-3.9h-7v-1h7v-2.7h1v2.7h7v1h-7v3.9h8v1h-6.7C620.2,80,622.5,82.4,625.5,84.3z"/>
		<path class="st0" d="M18.3,118.9l-0.6,0.9c-3.4-1.6-6-3.8-7.9-6.8v7.8l-1,0v-7.7c-1.9,2.5-4.4,4.7-7.7,6.7L0.5,119
			c4-2.5,6.8-5,8.3-7.7v-4.9H0.9v-1h7.9v-2h1v2h8.1v1H9.8v4.9c0.9,1.6,2.1,3.1,3.6,4.5C14.9,117.2,16.6,118.2,18.3,118.9z M7,112.5
			l-0.7,0.8c-0.6-0.9-1.3-1.7-2.1-2.4c-0.5,1-1.4,2.1-2.6,3.2l-0.8-0.7c1.9-1.5,3.1-3.5,3.8-6l1,0.2c-0.1,0.7-0.4,1.5-0.8,2.4
			C5.7,110.9,6.5,111.7,7,112.5z M17.4,113.2l-0.5,1c-0.8-1-1.8-2-2.9-3c-0.5,1.1-1,1.9-1.5,2.4l-0.8-0.7c1.1-1.4,1.9-3.1,2.4-5.3
			l1,0.2c-0.2,0.9-0.4,1.7-0.7,2.4C15.6,111.2,16.7,112.2,17.4,113.2z"/>
		<path class="st0" d="M29.4,117.9c0.3,0,0.6,0.1,0.8,0.3s0.3,0.5,0.3,0.8c0,0.3-0.1,0.6-0.3,0.8c-0.2,0.2-0.5,0.3-0.8,0.3
			c-0.3,0-0.6-0.1-0.8-0.3c-0.2-0.2-0.3-0.5-0.3-0.8c0-0.3,0.1-0.6,0.3-0.8C28.8,118,29.1,117.9,29.4,117.9z M30.2,104.8L30,115.6
			h-1.4l-0.2-10.9H30.2z"/>
	</g>
</g>
</svg>
