<?xml version="1.0" encoding="utf-8"?>
<!-- Generator: Adobe Illustrator 25.2.3, SVG Export Plug-In . SVG Version: 6.00 Build 0)  -->
<svg version="1.1" id="section5_p.svg" xmlns="http://www.w3.org/2000/svg" xmlns:xlink="http://www.w3.org/1999/xlink" x="0px"
	 y="0px" viewBox="0 0 628 89" style="enable-background:new 0 0 628 89;" xml:space="preserve">
<style type="text/css">
	.st0{fill:#FFFFFF;}
</style>
<g>
	<g>
		<path class="st0" d="M6.4,5.5H4.2v3.9c0.7-0.3,1.3-0.6,1.9-1l0.2,1.1c-0.8,0.4-1.5,0.8-2.1,1v6.3c0,0.7-0.2,1.1-0.6,1.3
			s-0.9,0.3-1.5,0.3H1.3l-0.4-1l1.8,0c0.3,0,0.5-0.2,0.5-0.5V11c-0.6,0.3-1.4,0.6-2.2,0.8l-0.3-0.9c0.8-0.3,1.6-0.6,2.5-1V5.5H0.6
			v-1h2.6V0.9h1v3.7h2.1V5.5z M18.3,16.7l-0.7,0.9c-2.2-1.7-3.8-3.5-5-5.6v6.5h-1.1v-6.4c-1.2,2-3,3.8-5.4,5.5l-0.7-0.8
			c2.6-1.7,4.4-3.5,5.4-5.5H6.5v-1h5V8.3h1.1v1.9h5.5v1h-4.8C14.4,13.2,16,15,18.3,16.7z M17.1,1.7c-2.5,1-5.8,1.6-10,1.8l-0.5-1
			c4.1-0.2,7.4-0.8,9.9-1.7L17.1,1.7z M9.6,8L8.7,8.5c-0.5-1.2-1-2.3-1.6-3.3l0.9-0.5C8.6,5.8,9.2,6.9,9.6,8z M13.1,7.2l-1,0.3
			c-0.3-1.1-0.6-2.2-1.1-3.2L12,3.9C12.5,4.9,12.9,6,13.1,7.2z M17.8,4.1c-0.5,1.6-1.2,3.1-2,4.4l-1-0.4c0.9-1.4,1.5-2.9,2-4.4
			L17.8,4.1z"/>
		<path class="st0" d="M37.4,17c0,0.5-0.2,0.9-0.6,1.1c-0.4,0.2-1.3,0.3-2.6,0.3c-0.3,0-0.6,0-0.9,0L33,17.4c0.5,0,1,0.1,1.4,0.1
			c1,0,1.5,0,1.7-0.1c0.2-0.1,0.2-0.2,0.2-0.4v-4.8h-5.7V18h-1.1v-5.9h-5.7c-0.3,2.7-1,4.9-2.1,6.3l-0.9-0.7c1.4-2,2-4.4,2-7.2V1.3
			h14.5V17z M29.6,6.1V2.4H24v3.7H29.6z M29.6,11.1V7.2H24v3.9H29.6z M36.4,6.1V2.4h-5.7v3.7H36.4z M36.4,11.1V7.2h-5.7v3.9H36.4z"
			/>
		<path class="st0" d="M58.7,8.4l-0.9,0.7c-0.5-0.7-1-1.3-1.7-2c-4.1,0.9-9,1.4-14.5,1.6l-0.3-1c3-2.3,5-4.6,6.2-6.8l1.1,0.4
			c-1.1,2-2.9,4.1-5.4,6.3c4.4-0.2,8.4-0.6,12-1.4c-0.8-0.9-1.9-1.9-3.2-3l0.9-0.7C55.2,4.4,57.1,6.4,58.7,8.4z M56.8,18.5h-1.1
			v-1.2H44.1v1.2H43v-7.8h13.8V18.5z M55.7,16.2v-4.5H44.1v4.5H55.7z"/>
		<path class="st0" d="M79.1,17.1l-0.3,1h-7.2c-3.4,0-5.8-0.8-7.2-2.3c-0.7,1.1-1.5,2-2.2,2.7l-0.8-0.7c1.9-1.7,3.2-3.9,3.7-6.6
			h-3.2v-1.1c1-1.2,2-2.5,3-4h-3.4v-1H66v1c-0.9,1.3-1.9,2.7-3,4.1h3.1v1c-0.3,1.3-0.7,2.5-1.2,3.6c0.6,0.7,1.3,1.3,2.2,1.7
			c0.9,0.4,2.3,0.6,4.1,0.6H79.1z M65.5,3.7l-0.8,0.8c-0.6-1-1.6-1.9-2.8-2.9l0.8-0.7C63.7,1.7,64.6,2.6,65.5,3.7z M78.9,14.3h-5.4
			v2.2h-1v-2.2h-5.5v-1h5.5v-1.6h-4.3v-1h4.3V9.3h-5v-1h2.9c-0.3-0.7-0.6-1.4-0.9-1.8h-2.4v-1h5.4V3.6h-4.8v-1h4.8V0.9h1v1.7h4.7v1
			h-4.7v1.8h5.4v1h-2.4c-0.4,0.8-0.7,1.4-0.9,1.8h3v1h-5v1.5h4.3v1h-4.3v1.6h5.4V14.3z M75.2,6.4h-4.7c0.4,0.8,0.7,1.4,0.8,1.8h3
			C74.7,7.6,75,7,75.2,6.4z"/>
		<path class="st0" d="M96.7,3.5c-3.1,3.6-8,6-14.6,7.1l-0.5-1.1c3-0.4,5.6-1.1,7.7-2c-0.8-0.8-2-1.8-3.4-2.9
			c-1,0.6-2.1,1.1-3.2,1.5l-0.6-0.9C85.2,4,87.5,2.5,89,0.8l1.1,0.4c-0.4,0.5-0.8,1-1.3,1.4h7.8V3.5z M98.9,10.7
			c0,0.2-0.4,0.8-1.1,1.8c-0.4,0.5-0.8,1-1.3,1.5s-1,0.9-1.6,1.3c-0.6,0.4-1.2,0.8-2,1.2c-0.8,0.4-1.7,0.8-2.8,1.1s-2.3,0.6-3.5,0.7
			c-1.2,0.2-2.3,0.2-3.4,0.2l-0.5-1.1c3.6,0,6.6-0.5,9.2-1.6c-0.8-1-2-2.1-3.5-3.2c-1.3,0.7-2.8,1.2-4.5,1.6l-0.6-1
			c4.2-0.8,7.5-2.6,9.9-5.5l1,0.4c-0.5,0.6-0.9,1.1-1.5,1.6h6.2V10.7z M95.1,3.6h-7.6c-0.1,0.1-0.4,0.3-0.7,0.5
			C88,5,89.2,5.9,90.3,7C92.1,6.2,93.7,5,95.1,3.6z M97.7,10.7h-6.2c-0.6,0.5-1.3,0.9-2,1.3c1.2,0.9,2.4,2,3.5,3.2
			C95.1,14.1,96.7,12.6,97.7,10.7z"/>
		<path class="st0" d="M109.3,13.6c-2.3,1.1-4.7,2-7.1,2.8l-0.2-1c1.2-0.3,2.3-0.7,3.2-1V4.2h-2.8V3.1h6.8v1.1h-2.9v9.6
			c1-0.4,2.1-0.8,3.2-1.3V13.6z M118.8,4.8c0,1.6,0,2.8,0,3.6c0,2.1-0.1,4-0.2,5.6c-0.2,1.7-0.3,2.7-0.5,3.1
			c-0.2,0.4-0.5,0.7-0.8,0.9c-0.4,0.2-0.9,0.3-1.6,0.3c-0.4,0-0.9,0-1.7,0l-0.4-1.1c0.8,0.1,1.4,0.1,1.8,0.1c0.7,0,1.2-0.1,1.5-0.3
			c0.3-0.2,0.4-0.6,0.6-1.2c0.1-0.6,0.2-2,0.3-4c0.1-2.1,0.1-4,0.1-5.9h-4.1c-0.1,3.2-0.5,5.7-1.3,7.6c-0.8,1.8-2,3.5-3.5,5.1
			l-0.9-0.7c1.4-1.4,2.5-2.9,3.4-4.7s1.3-4.1,1.3-7.3h-3.3V4.8h3.4v-4h1v4H118.8z"/>
		<path class="st0" d="M131.5,6.2l-0.8,0.7c-0.2-0.4-0.5-0.8-0.8-1.2c-2.4,0.3-4.9,0.6-7.5,0.7l-0.4-0.9c1.2-0.9,2.3-2.5,3.2-4.5
			l1,0.3c-0.8,1.7-1.7,3-2.6,4.1c2.1-0.2,3.9-0.4,5.5-0.6c-0.4-0.5-0.9-1.1-1.7-1.9l0.9-0.6C130,3.8,131,5.1,131.5,6.2z M130.2,17.3
			c0,0.3-0.1,0.6-0.4,0.8c-0.2,0.2-0.5,0.4-0.8,0.4s-0.9,0-1.9,0l-0.4-1c0.3,0,0.6,0,0.9,0c0.6,0,1.1,0,1.2-0.1
			c0.2,0,0.3-0.2,0.3-0.4v-3.3c-1.9,0.9-3.5,1.5-4.7,1.9l-0.5-0.7c-0.1,1.2-0.5,2.3-0.9,3.4l-0.9-0.5c0.6-1.6,0.9-3.2,0.9-4.8V7.8
			h7.2V17.3z M129.2,12.8v-4h-5.1v1.4c1.4,0.2,2.8,0.6,4.3,1.2l-0.5,0.9c-1.5-0.5-2.8-0.9-3.9-1.1v1.9c0,0.6,0,1.1-0.1,1.6
			C125.4,14.5,127.1,13.8,129.2,12.8z M139.6,15.1c-0.1,1-0.2,1.8-0.4,2.2c-0.2,0.5-0.5,0.8-0.8,0.9c-0.3,0.1-0.8,0.2-1.6,0.2l-3,0
			c-0.5,0-0.8-0.1-1.1-0.4c-0.3-0.3-0.4-0.6-0.4-1V9.4h1v2.9h5.8v1h-5.8v3.6c0,0.4,0.2,0.6,0.7,0.6c2,0,3.2,0,3.5,0
			c0.3,0,0.5-0.2,0.7-0.4s0.3-1,0.4-2.2L139.6,15.1z M139.4,8.6h-5.8c-0.4,0-0.7-0.1-0.9-0.4c-0.2-0.3-0.3-0.6-0.3-0.9V1h1v2.5h5.7
			v1h-5.7v2.6c0,0.3,0.2,0.5,0.5,0.5h5.5V8.6z"/>
		<path class="st0" d="M147.4,6.3c-0.4,0.8-1,1.7-1.8,2.7v9.5h-1.1v-8.2c-0.8,0.8-1.4,1.4-1.7,1.7l-0.7-0.9c1.7-1.4,3.2-3.2,4.4-5.3
			L147.4,6.3z M147.5,1.5c-1.2,1.7-2.8,3.1-4.6,4.4L142.3,5c1.9-1.3,3.3-2.7,4.3-4.2L147.5,1.5z M159.8,5.9h-4.7v2h3.8v10.6h-1v-1.2
			h-6.2v1.2h-1V7.8h3.5v-2h-4.8v2.2c0,4.4-0.7,7.9-2.2,10.4l-0.8-0.6c1.3-2.4,2-5.7,2-9.7V2.6c4.6-0.2,8.1-0.8,10.5-1.7l0.6,0.8
			c-1,0.4-2.4,0.8-4.2,1.1v2h4.7V5.9z M154.1,4.9V3.1c-1.4,0.2-3,0.4-4.8,0.5v1.3H154.1z M157.8,10.6V8.8h-6.2v1.8H157.8z
			 M157.8,13.4v-1.9h-6.2v1.9H157.8z M157.8,16.3v-1.9h-6.2v1.9H157.8z"/>
		<path class="st0" d="M168.3,13.6c-2.3,1.4-4.1,2.5-5.4,3.1l-0.4-0.9c0.8-0.4,1.5-0.8,2.3-1.3V8.8h-2V7.9h2V3.3h-2.2v-1h5.3v1h-2.1
			v4.6h1.9v0.9h-1.9V14c0.9-0.5,1.6-1,2.3-1.4L168.3,13.6z M178.9,12.4h-5.6c-0.5,0.7-1.2,1.4-1.9,2.1v2.7c1.1-0.3,2.2-0.7,3.2-1.1
			l0.2,0.9c-1.9,0.7-3.4,1.3-4.4,1.6l-0.4-0.9c0.3-0.2,0.4-0.5,0.4-0.8v-1.7c-1,0.6-1.7,1-2.3,1.3l-0.5-0.8c1.9-0.9,3.5-1.9,4.6-3.2
			h-3V9h9.8V12.4z M180,7.7h-11.8v-1H180V7.7z M179.2,5.4h-10.4V1.5h10.4V5.4z M172,4.4v-2h-2.1v2H172z M177.9,11.4V9.9h-7.8v1.5
			H177.9z M175.1,4.4v-2H173v2H175.1z M180.1,17.6l-0.5,0.9c-1.2-0.4-2.2-1.1-3.2-2.1c-1-0.9-1.6-2-2-3l0.9-0.3
			c0.3,0.7,0.6,1.3,1,1.8c0.9-0.4,1.7-1,2.4-1.7l0.7,0.6c-0.6,0.6-1.4,1.2-2.5,1.8C177.7,16.4,178.7,17.1,180.1,17.6z M178.2,4.4v-2
			h-2v2H178.2z"/>
		<path class="st0" d="M188,15.9h-0.9V15h-2.5v1.8h-1V2h4.5V15.9z M187,7.9V3h-2.5v4.9H187z M187,14V8.9h-2.5V14H187z M200.6,17.6
			l-0.5,0.9c-1.8-0.5-3.3-1.1-4.5-1.8c-1.3,0.8-2.8,1.4-4.6,1.8l-0.6-1c1.7-0.3,3.1-0.8,4.2-1.4c-1-0.8-1.9-1.8-2.6-2.9
			c-0.7,2-1.9,3.7-3.7,5.3l-0.7-0.8c2.4-1.9,3.7-4.3,4-7.3h-2.8v-1h2.9c0.1-0.5,0.1-1.1,0.1-1.8h-2.6v-1h10.6v1h-7
			c0,0.5-0.1,1.1-0.1,1.8h7.6v1h-7.7c0,0.5-0.1,0.9-0.2,1.5h6.7v1c-0.8,1.5-1.7,2.6-2.7,3.3C197.6,16.7,198.9,17.2,200.6,17.6z
			 M199.7,1.7c-2.7,0.7-6.1,1.1-10.4,1.3L189,2c3.9-0.1,7.3-0.5,10.3-1.2L199.7,1.7z M191.8,5.6l-0.9,0.5c-0.5-0.9-1-1.6-1.5-2.1
			l0.8-0.5C191,4.2,191.5,5,191.8,5.6z M198,12.8h-5c0.8,1.2,1.6,2.2,2.6,2.7C196.6,14.8,197.4,13.8,198,12.8z M195.4,5.6l-1,0.3
			c-0.2-0.9-0.5-1.7-0.9-2.4l0.9-0.3C194.9,3.9,195.2,4.7,195.4,5.6z M199.8,3.2c-0.4,1-1,1.9-1.6,2.7l-0.9-0.5
			c0.6-0.8,1.2-1.7,1.6-2.6L199.8,3.2z"/>
		<path class="st0" d="M220.9,14.6c0,0.5-0.2,1.2-0.4,2.1c-0.3,0.9-0.5,1.4-0.7,1.6c-0.2,0.1-0.5,0.2-0.7,0.2c-0.4,0-0.7-0.2-1-0.5
			c-0.2-0.4-0.4-1.2-0.6-2.5s-0.2-2.7-0.2-4.2V2.4h-11.1v6c0,3.8-0.8,7.2-2.5,10l-0.9-0.8c1.6-2.9,2.3-6,2.3-9.4V1.4h13.1V13
			c0,0.7,0.1,1.6,0.2,2.7c0.2,1.1,0.3,1.6,0.3,1.6c0.1,0,0.1,0.1,0.1,0.1c0.4,0,0.7-1.1,0.9-3.3L220.9,14.6z M217.2,17.8l-0.9,0.5
			c-0.2-0.6-0.4-1-0.7-1.4c-2.1,0.4-5.2,0.7-9.2,1l-0.4-1c2.4-0.1,4.2-0.3,5.4-0.4v-3.5H208V7.7h3.3V5.5h-4.1v-1h9.3v1h-4.2v2.3h3.3
			v5.3h-3.3v3.4c0.9-0.1,1.9-0.2,2.8-0.4c-0.2-0.4-0.6-0.9-1-1.5l0.9-0.5C216,15.6,216.8,16.8,217.2,17.8z M211.3,12.1V8.7H209v3.3
			H211.3z M214.6,12.1V8.7h-2.3v3.3H214.6z"/>
		<path class="st0" d="M228.8,9.3L228,10c-0.4-0.7-0.8-1.4-1.2-2v10.5h-1v-10c-0.7,2.1-1.4,3.6-1.9,4.6l-0.6-1.1
			c1-1.8,1.9-4,2.5-6.5h-2.3v-1h2.4V0.8h1v3.7h1.5v1h-1.5v1.1C227.5,7.4,228.2,8.4,228.8,9.3z M241,15.3c-0.1,1.1-0.3,2-0.6,2.5
			c-0.3,0.6-0.7,0.9-1.1,0.9c-0.9,0-1.8-0.9-2.9-2.7c-1.1,0.9-2.4,1.7-3.9,2.4l-0.7-0.8c1.6-0.6,2.9-1.4,4.1-2.4
			c-0.6-1.2-1-2.4-1.2-3.6H231l-0.1,1.2c1.1,0.6,2.1,1.2,2.8,2l-0.6,0.8c-0.5-0.5-1.3-1.2-2.4-1.8c-0.4,1.9-1.2,3.5-2.5,4.9
			l-0.9-0.6c1.6-1.4,2.5-3.6,2.6-6.4h-1.8v-1h6.3c-0.4-3.2-0.6-6.4-0.6-9.7l1,0c0.1,4.3,0.3,7.5,0.7,9.6h2c-0.1-0.1-0.2-0.4-0.5-0.9
			l0.8-0.3c0.3,0.3,0.5,0.8,0.7,1.3h2.1v1h-5c0.1,0.9,0.5,1.8,0.9,2.8c0.6-0.7,1.2-1.5,1.7-2.4l0.8,0.5c-0.6,1.1-1.3,2-2.1,2.8
			c0.3,0.6,0.6,1.1,1.1,1.6c0.4,0.5,0.8,0.8,1,0.8c0.2,0,0.4-0.2,0.5-0.5c0.2-0.3,0.3-1.1,0.5-2.3L241,15.3z M233.8,9.4l-0.9,0.3
			c0-0.2-0.1-0.5-0.2-0.9c-1.4,0.1-2.6,0.3-3.7,0.4l-0.2-0.7c0.9-1,1.6-1.9,2.1-2.8L229,5.9l-0.3-0.9c0.9-1.5,1.6-2.9,2-4.1l0.9,0.4
			c-0.4,0.9-1,2.1-1.8,3.4c0.6-0.1,1.3-0.2,1.9-0.3c0.3-0.4,0.6-1,0.9-1.6l0.9,0.5c-1,1.6-2.1,3.2-3.3,4.6c0.7,0,1.4-0.1,2.2-0.2
			c-0.1-0.5-0.2-0.9-0.4-1.3l0.9-0.2C233.3,7,233.6,8.1,233.8,9.4z M240.8,9.3l-0.9,0.3c0-0.2-0.1-0.5-0.2-0.9
			c-1.1,0.1-2.3,0.3-3.6,0.5l-0.3-0.9c0.8-1,1.5-1.9,2.1-2.7c-0.6,0.1-1.2,0.2-2,0.3l-0.3-0.9c0.8-1.3,1.5-2.6,2-3.9l0.9,0.4
			c-0.6,1.2-1.1,2.3-1.7,3.3c0.4-0.1,1-0.2,1.9-0.3c0.2-0.4,0.5-0.8,0.9-1.4l0.9,0.4c-0.7,1.2-1.8,2.7-3.2,4.5l2.2-0.3
			c-0.1-0.5-0.2-0.8-0.4-1.1l0.9-0.3C240.2,7.3,240.5,8.2,240.8,9.3z"/>
		<path class="st0" d="M252,11.6c-0.5-0.3-0.7-0.6-0.7-1c0-0.2,0.1-0.4,0.2-0.6s0.4-0.3,0.7-0.3c0.6,0,0.9,0.4,0.9,1.2
			c0,0.7-0.4,1.3-1.2,1.9l-0.4-0.3C251.9,12.2,252,11.8,252,11.6z"/>
		<path class="st0" d="M281.3,4.3h-9.9c-0.5,0.8-1,1.6-1.5,2.3h9.9V17c0,0.6-0.2,1-0.6,1.2c-0.4,0.2-1.2,0.3-2.6,0.3
			c-0.5,0-1,0-1.6-0.1l-0.5-1c0.6,0.1,1.3,0.1,1.9,0.1c1.1,0,1.7,0,2-0.1c0.2-0.1,0.3-0.3,0.3-0.5v-2.6h-9.9
			c-0.4,1.8-1.1,3.2-2.2,4.4l-1-0.6c1.7-1.5,2.5-4.1,2.5-7.8c0-0.4,0-0.9,0-1.5c-1.3,1.3-2.5,2.3-3.6,3l-0.8-0.8
			c2.8-1.9,4.9-4.1,6.5-6.7h-6.3v-1h6.9c0.4-0.7,0.8-1.5,1.2-2.4l1.1,0.3c-0.4,0.9-0.7,1.5-1,2.1h9.3V4.3z M278.7,13.2v-2.4h-9.6
			c0,1,0,1.8-0.1,2.4H278.7z M278.7,9.8V7.5h-9.5v2.3H278.7z"/>
		<path class="st0" d="M287.9,5.9c-1.1,1.9-2.1,3.4-3.1,4.3l-0.7-0.8c1-1,1.9-2.3,2.9-4.1L287.9,5.9z M292.6,16.2l-0.8,0.8
			c-0.7-1-1.4-1.9-2.3-2.7c-1.1,1.7-2.6,3.2-4.6,4.3l-0.8-0.8c2.1-1.2,3.7-2.6,4.6-4.2c-0.6-0.6-1.6-1.5-2.9-2.5l0.7-0.8
			c1.1,0.9,2,1.7,2.7,2.3c0.6-1.1,1-2.3,1.3-3.4l1,0.5c-0.3,1.1-0.8,2.3-1.4,3.7C291,14.2,291.8,15.2,292.6,16.2z M293.2,4.4h-8.8
			v-1h4.3c-0.2-0.7-0.5-1.4-0.9-2.1l0.9-0.5c0.4,0.7,0.7,1.6,1,2.6h3.5V4.4z M293.2,9.2l-0.9,0.6c-0.5-1.3-1.4-2.6-2.6-3.9l0.8-0.7
			C291.7,6.6,292.6,7.9,293.2,9.2z M301.7,17.7l-0.6,1c-1.5-0.9-2.8-1.9-3.8-3.2c-1.1,1.2-2.5,2.2-4.3,3.1l-0.7-1
			c1.7-0.6,3.2-1.7,4.4-3.1c-0.8-1.4-1.4-2.9-1.8-4.5l1-0.4c0.3,1.4,0.8,2.7,1.4,4c1.2-2,2-4.8,2.1-8.5h-3.1c-0.5,1.5-1.2,3-2,4.5
			L293.5,9c1.4-2.4,2.3-5.1,2.9-8.1l1,0.3c-0.2,1-0.4,1.9-0.7,2.9h4.9v1h-1c-0.3,4.4-1.2,7.6-2.6,9.5
			C298.8,15.8,300.1,16.8,301.7,17.7z"/>
		<path class="st0" d="M309.6,6.8h-2.1v11.5h-1V6.8h-2.3v-1h2.3V0.9h1v4.9h2.1V6.8z M314.9,10.2c-0.1,4.1-0.3,6.5-0.6,7.2
			c-0.3,0.7-0.8,1-1.6,1l-1.3,0l-0.3-1.1c0.6,0,1.1,0,1.5,0c0.4,0,0.6-0.2,0.8-0.7c0.1-0.5,0.3-2.3,0.4-5.5h-2
			c-0.2,3.1-1.3,5.5-3.1,7.3l-0.8-0.6c1.8-1.8,2.8-4.1,2.9-6.7h-2v-1h2.1c0.1-0.9,0.1-1.5,0.1-1.6h1c0,0.4,0,0.9-0.1,1.6H314.9z
			 M321.1,2.7c-0.1,1.9-0.2,3.2-0.5,3.9c-0.2,0.6-0.5,1.1-0.9,1.2c-0.4,0.2-1,0.3-1.8,0.3c-0.5,0-1.1,0-1.7,0L315.8,7
			c0.9,0,1.5,0.1,2,0.1c0.7,0,1.2-0.1,1.4-0.2s0.4-0.4,0.5-0.8c0.1-0.4,0.2-1.2,0.2-2.3h-4.1c-0.8,2.2-2.5,3.7-5.2,4.5L310,7.3
			c2.4-0.6,4-1.8,4.7-3.6h-4.8v-1h5.1c0-0.2,0.1-0.8,0.2-1.8h1c0,0.6-0.1,1.2-0.2,1.8H321.1z M321.5,10.2c0,0.6-0.1,1.8-0.2,3.8
			s-0.3,3.1-0.4,3.3s-0.4,0.5-0.6,0.7c-0.3,0.2-0.8,0.3-1.7,0.3c-0.2,0-0.4,0-0.5,0l-0.4-1.1c0.6,0.1,1.1,0.1,1.5,0.1
			c0.6,0,1-0.4,1.1-1.1c0.1-0.7,0.2-2.4,0.3-5.1h-1.9c-0.1,1.4-0.4,2.6-0.8,3.7s-1.1,2.3-2.1,3.7l-0.9-0.7c1.7-2.1,2.6-4.3,2.8-6.7
			h-1.9v-1h1.9c0-0.2,0-0.8,0.1-1.7h1l-0.1,1.7H321.5z"/>
		<path class="st0" d="M333.2,15.4c-2.8,0.9-5.6,1.7-8.6,2.3l-0.4-1c0.5-0.1,1-0.2,1.5-0.4V1.5h6.5v13.1c0.3-0.1,0.6-0.2,1-0.3V15.4
			z M331.2,5.9V2.5h-4.4v3.3H331.2z M331.2,10.5V6.9h-4.4v3.6H331.2z M331.2,14.9v-3.4h-4.4v4.6C328.6,15.7,330,15.3,331.2,14.9z
			 M341.3,4.8c0,3-0.1,5.7-0.2,8.2c-0.1,2.5-0.2,3.9-0.4,4.3c-0.1,0.4-0.4,0.7-0.7,0.9s-0.9,0.3-1.7,0.3c-0.4,0-0.9,0-1.3,0l-0.4-1
			l2.3,0c0.2,0,0.4-0.1,0.6-0.3c0.2-0.2,0.3-0.4,0.3-0.7l0.2-3.6c0.1-2.1,0.2-4.4,0.2-6.9h-2.9c-0.1,2.7-0.4,5-1.1,7
			c-0.7,1.9-1.8,3.8-3.2,5.7l-0.9-0.7c1.5-2,2.6-3.9,3.2-5.7c0.6-1.8,0.9-3.9,0.9-6.3h-3v-1h3c0.1-1.5,0.1-2.8,0.1-3.9h1.1
			c0,1.1,0,2.4,0,3.9H341.3z"/>
		<path class="st0" d="M362.1,17.9h-17.4v-1h8.1v-2.7h-7v-1h7v-2.3c-2.5,0.2-4.7,0.3-6.5,0.3l-0.2-0.9c1.9-0.8,3.6-2,5.3-3.7h-4.2
			v-1h12.3v1h-6.7c-1.1,1.3-2.6,2.5-4.3,3.6c2.6,0,5.8-0.3,9.5-0.7c-0.6-0.5-1.3-0.9-2.2-1.4l0.8-0.7c2,1.2,3.5,2.4,4.6,3.6
			l-0.8,0.7c-0.4-0.4-0.8-0.8-1.3-1.2l-5.2,0.5v2.4h7v1h-7v2.7h8.2V17.9z M361.5,6.3h-1V3.7h-14.1v2.6h-1V2.8h7.6
			c-0.1-0.3-0.4-0.8-0.8-1.6l1-0.3c0.3,0.5,0.7,1.2,1,2h7.3V6.3z"/>
		<path class="st0" d="M381.5,16.7c0,0.5-0.1,0.8-0.4,1.1s-0.6,0.4-1,0.5c-0.4,0-0.9,0-1.6,0c-0.5,0-0.9,0-1.3,0l-0.4-1.1
			c1,0.1,2,0.1,2.9,0.1c0.2,0,0.3-0.1,0.5-0.2c0.2-0.1,0.2-0.3,0.2-0.5V5.7h-5.8c0.3,2.8,2,5.6,5.1,8.3l-0.8,0.7
			c-2.8-2.5-4.5-5-5.1-7.4c-1,2.6-2.7,5.1-5.2,7.3l-0.7-0.8c2.5-2,4.3-4.8,5.4-8.2h-6.2v12.8h-1.1V4.6h7.4c-0.1-0.6-0.1-1.5-0.2-2.6
			h-1.9v-1h2.9c0,0.3,0,0.6,0,1c0,0.8,0.1,1.7,0.2,2.7h7V16.7z"/>
		<path class="st0" d="M391,9.9c-1.1,0.5-1.8,0.8-2.2,0.9v6.4c0,0.3-0.1,0.6-0.4,0.8c-0.3,0.3-0.7,0.4-1.4,0.4c-0.4,0-0.7,0-1.1-0.1
			l-0.2-1c0.4,0,0.9,0.1,1.5,0.1c0.4,0,0.6-0.2,0.6-0.6v-5.5c-0.7,0.3-1.5,0.6-2.3,0.9l-0.3-1c0.6-0.2,1.5-0.5,2.6-0.9V5.4h-2.4v-1
			h2.4V1h1v3.4h2v1h-2v4.4c0.6-0.3,1.3-0.5,2-0.9L391,9.9z M402.7,13.4h-5.6c-0.7,2.2-2.8,3.9-6.3,5l-0.6-0.9c3.1-0.9,5-2.3,5.8-4.1
			h-5.4v-1h1.7V6.3c-0.3,0.3-0.6,0.5-0.8,0.7l-0.7-0.8c1.8-1.4,3.3-3.2,4.4-5.4l0.9,0.5c-0.1,0.2-0.3,0.6-0.6,1.1h5.2v1l-1.6,2.2
			h2.5v6.9h1V13.4z M399.5,3.3h-4.6c-0.5,0.8-1.1,1.5-1.8,2.2h4.8L399.5,3.3z M400.7,12.4V6.5h-3c0,0.4-0.1,1-0.3,1.6
			c1.1,0.8,2,1.6,2.8,2.5l-0.6,0.7c-0.9-1-1.7-1.9-2.5-2.4c-0.5,0.9-1.3,1.7-2.5,2.5l-0.6-0.8c1.8-1,2.8-2.4,2.9-4.1h-3.2v5.9h2.9
			c0.1-0.5,0.1-1,0.2-1.4l1,0.1c0,0.4,0,0.8-0.1,1.3H400.7z M402.4,17.8l-0.7,0.7c-1.6-1.5-2.9-2.5-4-3.1l0.6-0.7
			C399.5,15.3,400.9,16.3,402.4,17.8z"/>
		<path class="st0" d="M422.8,3.6h-13.1c-0.8,1.2-2,2.4-3.4,3.5l-0.7-0.9c2.2-1.6,3.7-3.5,4.6-5.5l1,0.3c-0.2,0.5-0.5,1-0.8,1.4
			h12.4V3.6z M410.7,14.9c-1.1,1.1-2.6,2.1-4.4,3.1l-0.7-0.9c1.8-0.9,3.3-1.8,4.4-2.9L410.7,14.9z M418.4,13.3h-5.5v5.1h-1v-5.1h-6
			v-1h6v-3h1v3h5.5V13.3z M423.1,14.5c-0.2,1.2-0.5,2.2-0.8,3c-0.3,0.7-0.7,1.1-1.2,1.1c-0.7,0-1.2-0.6-1.4-1.8
			c-0.2-1.2-0.3-2.5-0.3-3.9V8.6h-12.1v-1h13.1v5.1c0,1.3,0.1,2.3,0.2,3.2c0.1,0.9,0.3,1.3,0.5,1.3c0.1,0,0.1,0,0.2-0.1
			s0.2-0.4,0.4-1.1c0.2-0.7,0.4-1.4,0.5-2.2L423.1,14.5z M410.6,11.1l-0.9,0.6c-0.7-0.6-1.5-1.2-2.4-1.8l0.8-0.7
			C409.1,9.7,409.9,10.4,410.6,11.1z M421.6,6.1h-11.9v-1h11.9V6.1z M417.4,9.8c-0.7,0.8-1.5,1.5-2.3,2l-0.9-0.7
			c0.7-0.5,1.4-1.1,2.2-1.9L417.4,9.8z M418.8,17.3l-0.8,0.8c-1.4-1.4-2.7-2.4-3.7-3.1l0.8-0.7C416.6,15.4,417.9,16.3,418.8,17.3z"
			/>
		<path class="st0" d="M434.2,11.6c-0.5-0.3-0.7-0.6-0.7-1c0-0.2,0.1-0.4,0.2-0.6s0.4-0.3,0.7-0.3c0.6,0,0.9,0.4,0.9,1.2
			c0,0.7-0.4,1.3-1.2,1.9l-0.4-0.3C434.1,12.2,434.2,11.8,434.2,11.6z"/>
		<path class="st0" d="M454.8,11h-7.1V5c-0.3,0.5-0.6,0.9-1,1.4L446,5.7c1-1.2,1.9-2.8,2.7-4.9l0.9,0.3c-0.2,0.5-0.4,1-0.7,1.7h2.4
			c-0.2-0.5-0.4-1-0.7-1.5l0.8-0.4c0.4,0.6,0.7,1.3,0.8,1.9h2.5v1h-2.7v1.4h2.2v0.9h-2.2v1.5h2.2v0.9h-2.2V10h2.7V11z M463.5,17.6
			l-0.5,1c-3.5-0.4-6.3-0.9-8.1-1.7c-3,0.9-5.8,1.4-8.4,1.6l-0.5-0.9c2.7-0.2,5.2-0.6,7.4-1.3c-1.6-0.8-3-1.8-4.2-2.8h-1.3v-1h13.6
			v1c-1.5,1.1-3.2,2-5.3,2.9C458.3,17,460.7,17.4,463.5,17.6z M451.1,5.2V3.7h-2.4v1.4H451.1z M451.1,7.5V6.1h-2.4v1.5H451.1z
			 M451.1,10V8.5h-2.4V10H451.1z M459.8,13.4h-9.1c1,0.8,2.3,1.6,4.1,2.4C456.5,15.2,458.2,14.4,459.8,13.4z M463.2,11h-7.3V5.5
			c-0.2,0.4-0.5,0.7-0.7,1.1l-0.6-0.8c0.9-1.2,1.6-2.8,2.2-4.9l0.9,0.2c-0.1,0.4-0.3,1-0.6,1.7h2.4c-0.2-0.5-0.4-1-0.7-1.5l0.8-0.4
			c0.4,0.7,0.7,1.3,0.9,1.9h2.6v1h-2.7v1.4h2.4v0.9h-2.4v1.5h2.4v0.9h-2.4V10h2.7V11z M459.5,5.2V3.7h-2.6v1.4H459.5z M459.5,7.5
			V6.1h-2.6v1.5H459.5z M459.5,10V8.5h-2.6V10H459.5z"/>
		<path class="st0" d="M483.7,18h-17.4v-0.9h8.2v-1.6h-7.3v-1h7.3v-1.6h-6.2V7h6.2V5.4h-7.7V4.5h7.7V2.8c-1.9,0.1-4,0.1-6.3,0.1
			L467.9,2c5.5,0.1,10.2-0.3,14.1-1l0.5,0.8c-1.5,0.4-3.8,0.6-7,0.9v1.8h7.8v0.9h-7.8V7h6.3v5.8h-6.3v1.6h7.3v1h-7.3v1.6h8.2V18z
			 M474.5,9.4V8h-5.2v1.5H474.5z M474.5,11.9v-1.6h-5.2v1.6H474.5z M480.7,9.4V8h-5.2v1.5H480.7z M480.7,11.9v-1.6h-5.2v1.6H480.7z"
			/>
		<path class="st0" d="M504.2,17l-0.3,1l-7.3,0c-3.3,0-5.7-0.8-7.1-2.3c-0.9,1.2-1.7,2.1-2.3,2.7l-0.8-0.7c1.9-1.6,3.2-3.7,3.9-6.5
			H487v-0.9c1.1-1.3,2.2-2.7,3.1-4.1h-3.6v-1h4.8v1c-1.4,1.9-2.4,3.3-3.1,4.1h3.1v1c-0.4,1.3-0.8,2.5-1.4,3.6
			c0.6,0.6,1.3,1.1,2.1,1.4c0.8,0.3,1.7,0.5,2.6,0.6c0.9,0.1,2.7,0.1,5.3,0.1C500.9,17,502.4,17,504.2,17z M490.7,3.8l-0.8,0.7
			c-0.9-1.2-1.8-2.2-2.8-2.9l0.7-0.7C488.9,1.7,489.9,2.7,490.7,3.8z M504,5.2h-5.5c0,3.3,0,5.2-0.1,5.7h3.5V6.7h1v5.2h-4.6
			c-0.4,1.9-1.6,3.4-3.6,4.4l-0.8-0.7c1.8-1,3-2.3,3.4-3.7H493V6.7h1v4.2h3.4c0.1-1.8,0.1-3.7,0.1-5.7H492v-1H504V5.2z M496.7,3.3
			L495.8,4c-0.5-0.7-1.1-1.5-2.1-2.5l0.8-0.6C495.4,1.6,496.1,2.4,496.7,3.3z M502,1.3c-0.5,0.9-1.2,1.7-2.1,2.6
			c-0.1-0.1-0.3-0.2-0.5-0.3s-0.3-0.3-0.4-0.3c0.8-0.7,1.5-1.6,2.1-2.5L502,1.3z"/>
		<path class="st0" d="M524.3,17.9h-17.5v-1h3.2V4.1h1v12.8h5v-16h1v6.2h6.3v1h-6.3v8.8h7.2V17.9z"/>
		<path class="st0" d="M544.8,14.6c0,0.5-0.2,1.2-0.4,2.1c-0.3,0.9-0.5,1.4-0.7,1.6c-0.2,0.1-0.5,0.2-0.7,0.2c-0.4,0-0.7-0.2-1-0.5
			s-0.4-1.2-0.6-2.5c-0.1-1.3-0.2-2.7-0.2-4.2V2.4h-11.1v6c0,3.8-0.8,7.2-2.5,10l-0.9-0.8c1.6-2.9,2.3-6,2.3-9.4V1.4h13.1V13
			c0,0.7,0.1,1.6,0.2,2.7s0.3,1.6,0.3,1.6c0.1,0,0.1,0.1,0.1,0.1c0.4,0,0.7-1.1,0.9-3.3L544.8,14.6z M541.1,17.8l-0.9,0.5
			c-0.2-0.6-0.4-1-0.7-1.4c-2.1,0.4-5.2,0.7-9.2,1l-0.4-1c2.4-0.1,4.2-0.3,5.4-0.4v-3.5h-3.3V7.7h3.3V5.5h-4.1v-1h9.3v1h-4.2v2.3
			h3.3v5.3h-3.3v3.4c0.9-0.1,1.9-0.2,2.8-0.4c-0.2-0.4-0.6-0.9-1-1.5l0.9-0.5C540,15.6,540.7,16.8,541.1,17.8z M535.2,12.1V8.7h-2.3
			v3.3H535.2z M538.5,12.1V8.7h-2.3v3.3H538.5z"/>
		<path class="st0" d="M555,9.4h-5.9v9.1h-1.1V1.5h7V9.4z M553.9,4.9V2.5h-4.8v2.3H553.9z M553.9,8.3V5.9h-4.8v2.4H553.9z
			 M563.9,16.8c0,0.5-0.1,0.8-0.3,1.1c-0.2,0.3-0.4,0.4-0.7,0.5s-0.8,0.1-1.6,0.1c-0.4,0-0.9,0-1.5,0l-0.4-1.1c0.5,0,1,0.1,1.6,0.1
			c0.9,0,1.4,0,1.6-0.1c0.2-0.1,0.2-0.2,0.2-0.4V9.4H557V1.5h6.9V16.8z M562.9,4.9V2.5H558v2.3H562.9z M562.9,8.3V5.9H558v2.4H562.9
			z"/>
		<path class="st0" d="M575.9,11.6c-0.5-0.3-0.7-0.6-0.7-1c0-0.2,0.1-0.4,0.2-0.6s0.4-0.3,0.7-0.3c0.6,0,0.9,0.4,0.9,1.2
			c0,0.7-0.4,1.3-1.2,1.9l-0.4-0.3C575.8,12.2,575.9,11.8,575.9,11.6z"/>
		<path class="st0" d="M597.2,6.2l-0.8,0.7c-0.2-0.4-0.5-0.8-0.8-1.2c-2.4,0.3-4.9,0.6-7.5,0.7l-0.4-0.9c1.2-0.9,2.3-2.5,3.2-4.5
			l1,0.3c-0.8,1.7-1.7,3-2.6,4.1c2.1-0.2,3.9-0.4,5.5-0.6c-0.4-0.5-0.9-1.1-1.7-1.9l0.9-0.6C595.6,3.8,596.6,5.1,597.2,6.2z
			 M595.9,17.3c0,0.3-0.1,0.6-0.4,0.8c-0.2,0.2-0.5,0.4-0.8,0.4s-0.9,0-1.9,0l-0.4-1c0.3,0,0.6,0,0.9,0c0.6,0,1.1,0,1.2-0.1
			c0.2,0,0.3-0.2,0.3-0.4v-3.3c-1.9,0.9-3.5,1.5-4.7,1.9l-0.5-0.7c-0.1,1.2-0.5,2.3-0.9,3.4l-0.9-0.5c0.6-1.6,0.9-3.2,0.9-4.8V7.8
			h7.2V17.3z M594.8,12.8v-4h-5.1v1.4c1.4,0.2,2.8,0.6,4.3,1.2l-0.5,0.9c-1.5-0.5-2.8-0.9-3.9-1.1v1.9c0,0.6,0,1.1-0.1,1.6
			C591,14.5,592.7,13.8,594.8,12.8z M605.2,15.1c-0.1,1-0.2,1.8-0.4,2.2c-0.2,0.5-0.5,0.8-0.8,0.9c-0.3,0.1-0.8,0.2-1.6,0.2l-3,0
			c-0.5,0-0.8-0.1-1.1-0.4c-0.3-0.3-0.4-0.6-0.4-1V9.4h1v2.9h5.8v1h-5.8v3.6c0,0.4,0.2,0.6,0.7,0.6c2,0,3.2,0,3.5,0
			c0.3,0,0.5-0.2,0.7-0.4s0.3-1,0.4-2.2L605.2,15.1z M605,8.6h-5.8c-0.4,0-0.7-0.1-0.9-0.4c-0.2-0.3-0.3-0.6-0.3-0.9V1h1v2.5h5.7v1
			h-5.7v2.6c0,0.3,0.2,0.5,0.5,0.5h5.5V8.6z"/>
		<path class="st0" d="M614,16.5c-1.8,0.9-3.5,1.6-5.1,2.1l-0.6-0.8c1.3-0.3,3-1,5.1-2L614,16.5z M617,9.1h-7.8V1.4h7.6v0.9h-2.9
			v1.4h2.5v3.1h-2.5v1.4h3.1V9.1z M624.2,14.7l-0.6,0.7l-0.9-1l-5.5,0.5v2.3c0,0.4-0.1,0.7-0.4,0.9c-0.2,0.2-0.6,0.3-1,0.3h-1.4
			l-0.3-0.9h1.6c0.1,0,0.2-0.1,0.3-0.2s0.1-0.2,0.1-0.4v-2c-1.8,0.1-4.1,0.3-6.7,0.4l-0.3-0.9c2.4-0.6,4.7-1.4,6.8-2.4
			c-2.4,0.2-4.2,0.3-5.4,0.3l-0.3-0.8c1.6-0.3,3.3-1,5.1-2.2l0.9,0.6c-1.1,0.6-2,1.1-2.8,1.4c0.7,0,1.6-0.1,2.9-0.2
			c1.2-0.1,1.9-0.2,2-0.2c0.1,0,0.9-0.4,2.2-1.1l0.7,0.7c-3.9,2-6.9,3.3-9,3.8c2.9-0.1,6-0.4,9.5-0.8c-0.3-0.3-0.7-0.7-1.2-1.1
			l0.6-0.7C622.4,12.7,623.4,13.7,624.2,14.7z M613,3.7V2.3h-2.8v1.4H613z M615.5,5.9V4.6h-5.3v1.3H615.5z M613,8.2V6.8h-2.8v1.4
			H613z M625.6,8.5l-0.5,0.9c-1.3-0.4-2.5-1-3.6-1.8c-1,0.8-2.2,1.3-3.5,1.6l-0.6-0.8c1.2-0.2,2.3-0.7,3.3-1.4
			c-1.2-1.1-2.1-2.6-2.7-4.5h-0.6V1.6h7c-0.2,2.1-0.9,3.9-2.2,5.3C623,7.5,624.1,8,625.6,8.5z M623.4,2.5h-4.3
			c0.4,1.6,1.2,2.9,2.4,3.9C622.4,5.3,623.1,4,623.4,2.5z M624.7,17.8l-0.5,0.8c-1.3-0.8-3-1.5-5.2-2.3l0.5-0.8
			C621.7,16.2,623.4,17,624.7,17.8z"/>
		<path class="st0" d="M14.3,40.4c-1.9,2.2-4.2,4-7.1,5.5c0,0.2,0.1,0.3,0.3,0.4c0.2,0.1,1,0.1,2.3,0.1c1.4,0,2.3-0.1,2.7-0.2
			c0.4-0.1,0.6-0.9,0.7-2.3l1,0.5c0,0.8-0.2,1.5-0.4,1.9s-0.6,0.7-0.9,0.8c-0.4,0.1-1.1,0.2-2.2,0.2c-1.9,0-3.1,0-3.5-0.1
			s-0.7-0.4-0.9-0.8c-1.7,0.8-3.4,1.4-5,2l-0.5-0.8c2-0.7,3.8-1.4,5.4-2.2v-5.7h1v5.1c2.6-1.3,4.7-3,6.4-5L14.3,40.4z M5.4,41.1
			c-1.3,1.6-2.6,2.9-4,3.9l-0.7-0.7c1.2-0.9,2.5-2.1,3.8-3.7L5.4,41.1z M17.3,41.3h-1v-3H2.5v3h-1v-4H9c-0.1-0.4-0.3-0.9-0.6-1.4
			l0.9-0.3c0.3,0.5,0.5,1.1,0.7,1.7h7.3V41.3z M16,53.3h-1v-0.5H2.7v-4.1h1v3.2h5v-4h1v4H15v-3.2h1V53.3z M10.9,41.4l-0.8,0.5
			c-0.6-0.9-1.2-1.7-1.9-2.4l0.9-0.5C9.7,39.5,10.3,40.4,10.9,41.4z M18,45.4l-0.8,0.7c-0.8-1.2-1.9-2.4-3.2-3.7l0.8-0.6
			C16.3,43.2,17.3,44.4,18,45.4z"/>
		<path class="st0" d="M27.2,37.3c0,0.1-0.2,0.7-0.7,1.9c-0.5,1.2-0.8,2.1-1.2,2.9c1.1,1.6,1.6,3.2,1.6,4.9c0,1.4-0.8,2.2-2.3,2.2
			h-1.3l-0.4-1h1.8c0.8,0,1.2-0.5,1.2-1.4c0-1.4-0.6-2.9-1.8-4.5c1.1-2.7,1.7-4.3,1.9-4.9h-3.6v16h-1V36.2h5.7V37.3z M38.4,52.9H26
			v-1h2.3V36.3h8.2v15.6h1.9V52.9z M35.4,41.3v-4h-6.2v4H35.4z M35.4,46.4v-4.1h-6.2v4.1H35.4z M35.4,51.9v-4.4h-6.2v4.4H35.4z"/>
		<path class="st0" d="M45.2,41.9c1.1,1.5,1.7,3,1.7,4.4c0,1.7-1,2.4-3.2,2.3l-0.5-1l0.7,0c0.9,0,1.5-0.1,1.6-0.4s0.2-0.6,0.2-0.9
			c0-1.4-0.6-2.8-1.8-4.2c0.6-1.5,1.1-3.2,1.6-4.9h-2.8v16.1h-1v-17h4.9v1C46.2,38.9,45.7,40.5,45.2,41.9z M58.3,37.2H47.4v-1h10.9
			V37.2z M57.9,51.8c0,1-0.5,1.5-1.6,1.5c-0.6,0-1.1,0-1.4,0l-0.4-1c0.3,0,0.7,0,1.1,0c0.5,0,0.8,0,1-0.1c0.1-0.1,0.2-0.3,0.2-0.5
			v-6.3h-2.1l0.6,0.5c-0.2,0.5-0.5,1.3-0.9,2.3H56v1h-2.6V53h-1v-3.8h-2.7v-1h1.6c-0.2-0.8-0.6-1.5-1-2.3l0.7-0.5h-2.2v7.8h-1v-8.8
			h10.2V51.8z M57,42.6h-8.2v-3.8H57V42.6z M56,41.6v-1.8h-6.2v1.8H56z M54.5,45.4h-3.3c0.5,1.3,0.9,2.3,1.1,2.8h1.2
			C53.9,47.2,54.3,46.3,54.5,45.4z"/>
		<path class="st0" d="M70,38.1h-5.6c-0.7,0.8-1.4,1.6-2.2,2.3l-0.8-0.6c1.4-1.2,2.5-2.5,3.3-4.1l1,0.4c-0.1,0.3-0.4,0.7-0.7,1.2h5
			V38.1z M78.4,44.8h-1V42H63v2.8h-1V41h7.6c-0.1-0.3-0.2-0.6-0.5-1.1l0.9-0.3c0.3,0.4,0.5,0.9,0.6,1.4h7.8V44.8z M76.5,52.4H65.3
			v0.8h-1v-9.7H76v3.4H65.3v1.6h11.3V52.4z M74.9,46v-1.5h-9.6V46H74.9z M75.5,51.4v-1.9H65.3v1.9H75.5z M67.9,40.1L67,40.5
			c-0.2-0.5-0.6-1-1.1-1.7l0.9-0.4C67.2,39,67.6,39.5,67.9,40.1z M78.8,38.1h-6.4c-0.4,0.5-0.9,1.1-1.5,1.6l-0.8-0.6
			c1.4-1.4,2.4-2.5,2.8-3.4l1,0.4c-0.2,0.3-0.4,0.7-0.7,1.1h5.7V38.1z M75.9,40.2L75,40.5c-0.5-0.9-0.8-1.4-1-1.7l0.9-0.3
			C75.4,39,75.7,39.6,75.9,40.2z"/>
		<path class="st0" d="M99.2,52L99,53h-7.9c-2.9,0-5.1-0.7-6.5-2.2c-0.8,1.1-1.5,2-2.3,2.6l-0.8-0.6c1.9-1.6,3.2-3.8,3.7-6.7H82
			v-0.9c1.3-1.6,2.3-3,3.1-4.2h-3.4V40h4.6v0.9c-1,1.5-2,2.9-3,4.2h3.1v1c-0.3,1.4-0.8,2.7-1.3,3.7c1.2,1.4,3,2.1,5.6,2.1H99.2z
			 M85.8,38.8l-0.8,0.7c-0.8-1.1-1.7-2.1-2.8-2.9l0.7-0.8C84.2,36.8,85.2,37.8,85.8,38.8z M99.1,39.3h-5.9c-0.2,0.6-0.5,1.2-0.7,1.8
			h5.3v9.2H88v-9.2h3.3c0.3-0.6,0.5-1.2,0.7-1.8h-5.4v-1h12.4V39.3z M91.5,37.4l-0.9,0.5c-0.6-0.6-1.2-1.2-1.9-1.7l0.9-0.6
			C90.3,36.3,90.9,36.9,91.5,37.4z M96.7,43.8V42H89v1.7H96.7z M96.7,46.6v-1.9H89v1.9H96.7z M96.7,49.4v-1.8H89v1.8H96.7z
			 M97.4,36.2c-0.6,0.6-1.3,1.2-2.2,1.8l-0.9-0.6c0.8-0.4,1.5-1,2.2-1.7L97.4,36.2z"/>
		<path class="st0" d="M109.8,42.7h-6v10.6h-1.1v-17h7V42.7z M108.7,38.9v-1.7h-4.9v1.7H108.7z M108.7,41.7v-1.8h-4.9v1.8H108.7z
			 M114.5,51.4h-7.8v-7.1h7.8V51.4z M113.5,47.3v-2h-5.8v2H113.5z M113.5,50.4v-2.2h-5.8v2.2H113.5z M118.5,51.6
			c0,0.5-0.1,0.9-0.4,1.2c-0.3,0.3-0.8,0.4-1.6,0.4h-1.1l-0.4-1c0.3,0,0.9,0,1.8,0c0.2,0,0.3-0.1,0.5-0.2c0.1-0.1,0.2-0.3,0.2-0.5
			v-8.9h-5.9v-6.5h6.9V51.6z M117.5,38.9v-1.7h-4.9v1.7H117.5z M117.5,41.7v-1.8h-4.9v1.8H117.5z"/>
		<path class="st0" d="M139.6,49.2h-17.4v-1h5v-2.3h-4.4v-1h4.4v-2H124v-6.6h13.8v6.6h-3.2v2h4.4v1h-4.4v2.3h4.9V49.2z M128.9,50.3
			c-1.4,1.1-3.4,2-6,2.9l-0.7-0.9c2.3-0.7,4.2-1.6,5.9-2.7L128.9,50.3z M130.4,39v-1.8h-5.3V39H130.4z M130.4,41.8V40h-5.3v1.8
			H130.4z M133.6,44.8v-2h-5.4v2H133.6z M133.6,48.2v-2.3h-5.4v2.3H133.6z M136.8,39v-1.8h-5.3V39H136.8z M136.8,41.8V40h-5.3v1.8
			H136.8z M139.6,52.5l-0.6,0.9c-1.7-1-3.7-1.8-6.1-2.6l0.6-0.9C136.1,50.6,138.1,51.5,139.6,52.5z"/>
		<path class="st0" d="M148.1,49.6h-1v-1h-3v1.7h-1V37.1h5.1V49.6z M147,47.6v-9.5h-3v9.5H147z M160,50.7l-0.8,0.8
			c-1.5-1.2-3.1-3.2-4.7-6.2v8h-1v-8.1c-1.8,3-3.5,5.1-5.1,6.3l-0.7-0.8c1.9-1.4,3.7-3.6,5.4-6.8h-4.3v-1h4.8v-3.4h-4.2v-1h4.2v-2.7
			h1v2.7h4.6v1h-4.6v3.4h5.1v1h-4.6C156.3,46.7,158,49,160,50.7z"/>
		<path class="st0" d="M171.4,42.5c0.6,0,1,0.2,1.4,0.6c0.4,0.4,0.6,0.9,0.6,1.4c0,0.6-0.2,1.1-0.5,1.4s-0.8,0.6-1.4,0.6
			c-0.5,0-1-0.2-1.4-0.5s-0.6-0.8-0.6-1.5c0-0.6,0.2-1.1,0.6-1.5C170.5,42.7,170.9,42.5,171.4,42.5z M172.6,44.6
			c0-0.3-0.1-0.6-0.4-0.8c-0.2-0.2-0.5-0.3-0.9-0.3c-0.3,0-0.6,0.1-0.8,0.3s-0.3,0.5-0.3,0.8c0,0.3,0.1,0.6,0.3,0.8s0.5,0.4,0.9,0.4
			c0.3,0,0.6-0.1,0.8-0.3C172.5,45.2,172.6,44.9,172.6,44.6z"/>
		<path class="st0" d="M188.8,43.9c-0.5,0.3-1.2,0.7-2.2,1.1v6.7c0,0.5-0.1,0.8-0.4,1.1s-0.6,0.4-1,0.4c-0.8,0-1.3,0-1.5,0l-0.3-1.1
			c0.5,0,0.9,0,1.2,0c0.4,0,0.7,0,0.8-0.1c0.1-0.1,0.2-0.2,0.2-0.3v-6.2c-0.8,0.3-1.6,0.7-2.4,1l-0.3-0.9c0.8-0.3,1.7-0.7,2.8-1.2
			v-3.9H183v-1h2.7v-3.7h1v3.7h2.1v1h-2.1v3.4c0.5-0.2,1.2-0.5,2-1L188.8,43.9z M200.4,45.5l-0.6,0.9c-1-0.6-1.8-1.1-2.5-1.6v0.8
			h-6.2v-0.7c-0.9,0.7-1.6,1.2-2.2,1.5l-0.7-0.8c2.8-1.5,4.8-3.4,6-5.4l1.1,0.3l-0.3,0.4C196.1,42.6,197.9,44.1,200.4,45.5z
			 M193.8,38.6h-1.7v2.1h-1v-2.1h-2.8v-1h2.8v-1.8h1v1.8h1.7V38.6z M198.7,53.3h-1v-1.2h-6.9v1.2h-1.1v-6h9V53.3z M197.7,51.1v-2.8
			h-6.9v2.8H197.7z M197,44.5c-1.1-0.8-2-1.8-2.7-2.8c-0.9,1.1-1.8,2-2.8,2.8H197z M200.3,38.7h-2.9v2h-1v-2h-1.8v-1h1.8v-1.8h1v1.8
			h2.9V38.7z"/>
		<path class="st0" d="M212.3,37.3h-3v2.6h2.4v13.3h-1V52h-5.9v1.1h-1V39.9h2.4v-2.6h-3.1v-1h9.1V37.3z M210.7,51v-5.1h-0.9
			c-1,0-1.5-0.4-1.5-1.3v-3.7h-1.2c0,3-0.6,5.1-1.9,6.3l-0.4-0.4V51H210.7z M206.1,40.9h-1.3v5.2C205.7,45.2,206.1,43.4,206.1,40.9z
			 M209.8,48.8h-4.3v-0.9h4.3V48.8z M208.3,39.9v-2.6h-1.2v2.6H208.3z M210.7,44.9v-4h-1.4v3.5c0,0.3,0.2,0.5,0.6,0.5H210.7z
			 M220.5,48.7c-0.1,1.7-0.2,2.8-0.4,3.2s-0.5,0.7-0.9,0.8c-0.4,0.1-1.2,0.2-2.5,0.2c-1.4,0-2.2,0-2.5-0.1c-0.3,0-0.5-0.2-0.7-0.4
			s-0.3-0.6-0.3-1v-8.9h5.3v-5.2H213v-1h6.7v7.2h-5.4v7.8c0,0.1,0.1,0.3,0.2,0.4c0.1,0.1,0.3,0.2,0.5,0.2c0.2,0,1.3,0,3.2,0
			c0.6,0,1-0.3,1.1-1c0.1-0.7,0.2-1.5,0.2-2.5L220.5,48.7z"/>
		<path class="st0" d="M240,42.7h-1v-3.2h-13.8v3.2h-1v-4.1h7.4v-2.8h1v2.8h7.4V42.7z M239.1,53.3h-1v-0.9h-12v0.9h-1V46h14.1V53.3z
			 M231.6,48.7V47h-5.5v1.7H231.6z M231.6,51.4v-1.7h-5.5v1.7H231.6z M229,37.6l-0.9,0.6c-0.4-0.6-1-1.2-1.8-1.8l0.9-0.6
			C227.8,36.3,228.4,36.9,229,37.6z M237.1,44.7H227V41h10.1V44.7z M236.1,43.7V42h-8v1.8H236.1z M238.1,48.7V47h-5.5v1.7H238.1z
			 M238.1,51.4v-1.7h-5.5v1.7H238.1z M238.2,36.5c-0.5,0.5-1.3,1.1-2.3,1.6l-0.9-0.8c0.9-0.4,1.7-0.9,2.4-1.5L238.2,36.5z"/>
		<path class="st0" d="M260,40h-13.9c0,4.1-0.2,7-0.5,8.9c-0.3,1.8-0.7,3.3-1.2,4.4l-0.8-0.7c0.4-0.9,0.8-2.2,1.1-3.8
			s0.4-4.1,0.4-7.5v-5H260V40z M259,39v-1.8h-12.9V39H259z M259.8,46.3h-12.4v-4.3h12.4V46.3z M259.2,53.2h-1v-0.9h-9v0.9h-1v-6
			h11.1V53.2z M253.1,45.4V43h-4.6v2.4H253.1z M258.2,49.2v-1h-9v1H258.2z M258.2,51.4v-1.2h-9v1.2H258.2z M251.7,44.7l-0.8,0.5
			c-0.4-0.6-0.8-1-1.3-1.4l0.8-0.5C250.9,43.7,251.3,44.1,251.7,44.7z M251.9,41.4l-0.9,0.5c-0.5-0.5-0.9-0.9-1.4-1.2l1-0.5
			C251.2,40.7,251.6,41,251.9,41.4z M258.8,45.4V43h-4.7v2.4H258.8z M257.5,40.8c-0.3,0.3-0.9,0.7-1.6,1.1l-0.9-0.6
			c0.6-0.3,1.1-0.6,1.6-1L257.5,40.8z M257.6,43.7c-0.3,0.4-0.8,0.9-1.4,1.5l-0.8-0.5c0.6-0.5,1.1-1,1.4-1.4L257.6,43.7z"/>
		<path class="st0" d="M269.2,44.6c-0.6,0.3-1.2,0.7-1.9,0.9v5.9c0,1.2-0.5,1.8-1.6,1.8c-0.4,0-0.7,0-1-0.1l-0.5-1l1.7,0
			c0.1,0,0.2-0.1,0.3-0.2c0.1-0.1,0.1-0.2,0.1-0.3V46c-0.8,0.3-1.5,0.6-2.1,0.7l-0.3-0.9c0.8-0.3,1.6-0.6,2.4-0.9v-4.6h-2.4v-1h2.4
			v-3.6h1v3.6h1.6v1h-1.6v4.1c0.5-0.2,1-0.5,1.6-0.8L269.2,44.6z M274.2,44.5c0,2.3-0.3,4.1-0.9,5.3s-1.5,2.4-2.7,3.5l-0.8-0.7
			c1.7-1.4,2.8-3.1,3.1-5c-1.2,0.5-2.5,1-3.9,1.4l-0.4-0.9c1.6-0.5,3.1-1.1,4.5-1.7c0.1-0.8,0.1-1.7,0.1-2.6h-3.7v-1h3.7v-3.1h-3.7
			v-1h3.7v-3h1V44.5z M281.3,48.6h-3.8v4.7h-1V35.7h1v3h3.6v1h-3.6v3.1h3.3v1h-3.3v3.8h3.8V48.6z"/>
		<path class="st0" d="M301.3,38.4h-13.1c-0.8,1.2-2,2.4-3.4,3.5l-0.7-0.9c2.2-1.6,3.7-3.5,4.6-5.5l1,0.3c-0.2,0.5-0.5,1-0.8,1.4
			h12.4V38.4z M289.2,49.7c-1.1,1.1-2.6,2.1-4.4,3.1l-0.7-0.9c1.8-0.9,3.3-1.8,4.4-2.9L289.2,49.7z M296.9,48.1h-5.5v5.1h-1v-5.1h-6
			v-1h6v-3h1v3h5.5V48.1z M301.6,49.3c-0.2,1.2-0.5,2.2-0.8,3c-0.3,0.7-0.7,1.1-1.2,1.1c-0.7,0-1.2-0.6-1.4-1.8
			c-0.2-1.2-0.3-2.5-0.3-3.9v-4.1h-12.1v-1h13.1v5.1c0,1.3,0.1,2.3,0.2,3.2c0.1,0.9,0.3,1.3,0.5,1.3c0.1,0,0.1,0,0.2-0.1
			c0-0.1,0.2-0.4,0.4-1.1s0.4-1.4,0.5-2.2L301.6,49.3z M289.1,45.9l-0.9,0.6c-0.7-0.6-1.5-1.2-2.4-1.8l0.8-0.7
			C287.6,44.5,288.5,45.2,289.1,45.9z M300.2,40.9h-11.9v-1h11.9V40.9z M295.9,44.6c-0.7,0.8-1.5,1.5-2.3,2l-0.9-0.7
			c0.7-0.5,1.4-1.1,2.2-1.9L295.9,44.6z M297.3,52.1l-0.8,0.8c-1.4-1.4-2.7-2.4-3.7-3.1l0.8-0.7C295.2,50.2,296.4,51.2,297.3,52.1z"
			/>
		<path class="st0" d="M306.6,44.7c-0.2,2-0.6,3.9-1.2,5.6l-1-0.4c0.6-1.4,1-3.2,1.3-5.4L306.6,44.7z M310.6,43.4h-2.3v9.9h-1v-9.9
			h-2.8v-1h2.8v-6.6h1v6.6h2.3V43.4z M306.6,40.7l-1,0.4c-0.2-1-0.5-2.1-1-3.4l0.9-0.4C305.9,38.1,306.2,39.2,306.6,40.7z M311,37.5
			c-0.2,1-0.5,2.2-1.1,3.7l-1-0.4c0.5-1,0.9-2.2,1.1-3.7L311,37.5z M311.3,48.3l-1,0.5c-0.3-1.3-0.7-2.6-1.3-3.9l0.9-0.5
			C310.6,45.7,311,47,311.3,48.3z M320.9,51.9c0,0.4-0.2,0.8-0.5,1c-0.3,0.2-1,0.3-2,0.3c-0.3,0-0.7,0-1.1,0l-0.3-1
			c0.5,0,1.1,0,1.8,0c0.5,0,0.8,0,0.9-0.1c0.1-0.1,0.2-0.2,0.2-0.4v-1.6h-6.9c-0.4,1.3-0.9,2.3-1.7,3.2l-0.9-0.7
			c1.2-1.2,1.8-3,1.8-5.4v-3h8.7V51.9z M321.8,42.9h-10.5v-1h4.7v-1.4h-4v-0.9h4v-1.4h-4.3v-1h4.3v-1.5h1v1.5h4.3v1h-4.3v1.4h3.9
			v0.9h-3.9v1.4h4.7V42.9z M319.9,49.1v-1.5h-6.7c0,0.5,0,1-0.1,1.5H319.9z M319.9,46.6v-1.5h-6.7v1.5H319.9z"/>
		<path class="st0" d="M342.1,52.4h-17.5v-1h8.2V37.7h-7.4v-1.1h15.8v1.1h-7.3v13.7h8.2V52.4z"/>
		<path class="st0" d="M351.2,49c-1.5,1.3-3.4,2.3-5.7,3.1l-0.7-0.9c2.6-1,4.4-1.9,5.5-2.9L351.2,49z M361.7,47.4l-0.9,0.6
			c-0.3-0.5-0.7-1-1.2-1.6c-2.6,0.3-4.4,0.5-5.4,0.5v5.1c0,0.3-0.1,0.5-0.3,0.7c-0.2,0.2-0.4,0.3-0.7,0.4c-0.2,0.1-0.7,0.1-1.3,0.1
			c-0.4,0-0.7,0-1,0l-0.4-1.1c0.4,0,0.8,0,1.2,0c0.7,0,1.1,0,1.3,0c0.2,0,0.2-0.2,0.2-0.5v-4.6c-2.9,0.2-5.1,0.3-6.6,0.4l-0.3-0.9
			c2.4-0.9,4.9-2,7.2-3.2c-2.3,0.1-4.4,0.2-6.2,0.3l-0.3-0.7c3-1.1,5.4-2.5,7.3-4.1l1,0.6c-1.4,1.2-3,2.3-5,3.2
			c0.7,0,1.3-0.1,1.9-0.1c0.6,0,1.2-0.1,1.8-0.1c1.1-0.1,1.7-0.2,1.8-0.2c0.9-0.5,1.7-1.1,2.5-1.8l0.9,0.6c-2.1,1.7-5.4,3.4-9.7,5.4
			c3.2-0.1,6.4-0.4,9.4-0.8c-0.3-0.4-0.8-0.8-1.5-1.5l0.9-0.6C359.7,44.9,360.9,46.2,361.7,47.4z M355.6,36.2c-1.9,1.7-4.7,3-8.4,4
			l-0.8-0.9c3.7-0.8,6.5-2,8.3-3.7L355.6,36.2z M362.2,51.3l-0.7,0.9c-1.4-1.2-3.1-2.2-5-3.1l0.7-0.8
			C359.1,49.1,360.8,50.1,362.2,51.3z"/>
		<path class="st0" d="M367.2,48.5c-0.3,2.1-0.8,3.7-1.2,4.7l-0.9-0.3c0.5-1.3,0.9-2.9,1.2-4.6L367.2,48.5z M372.1,47.3l-0.9,0.3
			c-0.1-0.5-0.2-0.8-0.3-1.2c-1.7,0.6-3.5,1-5.3,1.4l-0.3-0.9c1.4-1.4,2.7-3.1,3.9-5c-1.1,0.2-2.2,0.4-3.5,0.6l-0.3-0.9
			c1.5-2,2.6-3.9,3.3-5.9l0.9,0.3c-0.6,1.7-1.6,3.5-2.9,5.4c1.1-0.1,2.1-0.3,3.2-0.6c0.2-0.4,0.5-0.9,0.8-1.5l0.9,0.4
			c-1,2.2-2.6,4.4-4.6,6.8c0.8-0.1,2-0.5,3.5-1c-0.1-0.4-0.3-0.8-0.5-1.2l0.9-0.4C371.5,45.3,371.9,46.5,372.1,47.3z M369.7,52.4
			l-1,0.2c0-1.5-0.3-2.8-0.6-4.1l1-0.2C369.5,50.2,369.7,51.6,369.7,52.4z M372,50.8l-0.9,0.3c-0.2-0.9-0.4-1.8-0.8-2.8l0.9-0.3
			C371.5,48.8,371.8,49.8,372,50.8z M382.5,39h-6.1c-0.9,1.9-1.8,3.4-2.7,4.5c2-0.1,4.1-0.3,6.3-0.7c-0.5-0.7-1-1.3-1.5-1.9l0.9-0.6
			c1.3,1.5,2.2,2.9,2.9,4.2l-0.8,0.6c-0.3-0.5-0.6-1-0.9-1.5l-1.9,0.3v7.5c0,0.3,0.2,0.4,0.5,0.4h1.4c0.2,0,0.3-0.1,0.5-0.2
			c0.1-0.1,0.2-0.5,0.3-1.2c0.1-0.7,0.1-1.5,0.1-2.4l1,0.4c0,1.5-0.1,2.5-0.3,3.1c-0.2,0.6-0.4,0.9-0.7,1.1
			c-0.3,0.2-0.9,0.3-1.7,0.3c-0.8,0-1.3-0.1-1.6-0.3c-0.3-0.2-0.4-0.5-0.4-1.1v-7.4c-1.1,0.1-1.8,0.2-2.1,0.2c0,4-1.2,7-3.7,8.9
			l-0.7-0.7c1.1-0.9,1.9-1.9,2.5-3.2c0.6-1.2,0.9-2.9,0.9-4.9c-0.3,0.1-1.1,0.1-2.2,0.1l-0.2-0.9c1-1,2.1-2.6,3.1-4.7h-3.4v-1h3.9
			c0.2-0.5,0.5-1.3,0.9-2.4l1,0.3c-0.3,0.9-0.6,1.6-0.8,2.1h5.7V39z"/>
		<path class="st0" d="M393.7,46.4c-0.5-0.3-0.7-0.6-0.7-1c0-0.2,0.1-0.4,0.2-0.6c0.2-0.2,0.4-0.3,0.7-0.3c0.6,0,0.9,0.4,0.9,1.2
			c0,0.7-0.4,1.3-1.2,1.9l-0.4-0.3C393.6,47,393.7,46.6,393.7,46.4z"/>
		<path class="st0" d="M423,44.9l-0.5,1c-3.3-0.7-6-1.6-8.2-2.9c-2.3,1.2-5,2.2-8.3,2.9l-0.5-1.1c2.9-0.5,5.5-1.4,7.8-2.5
			c-1.5-1.1-2.7-2.1-3.5-3c-1.2,0.8-2.3,1.6-3.4,2.2l-0.8-0.8c2.7-1.5,5-3.2,6.8-5.2l0.9,0.6c-0.3,0.4-0.7,0.8-1,1h7.8v1
			c-1.3,1.6-2.9,3-4.9,4.2C417.4,43.5,419.9,44.3,423,44.9z M420.7,53.3h-1.1V52h-10.1v1.3h-1.1v-7h12.4V53.3z M419.6,50.9v-3.5
			h-10.1v3.5H419.6z M418.9,38.2h-7.7c-0.2,0.2-0.3,0.3-0.5,0.5c1,1.1,2.2,2.1,3.7,3.1C416.2,40.6,417.7,39.5,418.9,38.2z"/>
		<path class="st0" d="M442.4,36.8c-4.7,0.9-9,1.4-12.9,1.4v2.7h12.8v6.4h-13c-0.4,2.5-1.3,4.6-2.8,6.1l-0.8-0.9
			c1.1-1,1.8-2.2,2.2-3.6c0.4-1.4,0.6-3.7,0.6-7.1v-4.6c4.4,0,8.9-0.4,13.3-1.4L442.4,36.8z M441.3,46.2v-4.3h-11.7
			c0,0.8,0,2.2-0.1,4.3H441.3z"/>
		<path class="st0" d="M453.9,42.7h-6v10.6h-1.1v-17h7V42.7z M452.9,38.9v-1.7H448v1.7H452.9z M452.9,41.7v-1.8H448v1.8H452.9z
			 M458.7,51.4h-7.8v-7.1h7.8V51.4z M457.7,47.3v-2h-5.8v2H457.7z M457.7,50.4v-2.2h-5.8v2.2H457.7z M462.7,51.6
			c0,0.5-0.1,0.9-0.4,1.2c-0.3,0.3-0.8,0.4-1.6,0.4h-1.1l-0.4-1c0.3,0,0.9,0,1.8,0c0.2,0,0.3-0.1,0.5-0.2c0.1-0.1,0.2-0.3,0.2-0.5
			v-8.9h-5.9v-6.5h6.9V51.6z M461.6,38.9v-1.7h-4.9v1.7H461.6z M461.6,41.7v-1.8h-4.9v1.8H461.6z"/>
		<path class="st0" d="M484,47.8l-0.7,0.9c-3-2.4-5.6-4.1-7.8-5.2v10h-1.1V42.1c-1.9,2.3-4.4,4.4-7.6,6.5l-0.7-0.9
			c4.9-2.9,8.3-6.4,10-10.4h-9.6v-1.1h17v1.1h-6.2c-0.5,1-1.1,2.1-1.8,3.3v1.6C479.4,44.3,482.2,46.2,484,47.8z"/>
		<path class="st0" d="M504,44.2h-8.2v9.1h-1.1v-9.1h-8.1v-1.1h8.1v-5.8h-7v-1.1h15v1.1h-7v5.8h8.2V44.2z"/>
		<path class="st0" d="M512.3,40.3h-1.9v4.1c0.7-0.3,1.2-0.6,1.5-0.8l0.2,1c-0.5,0.3-1.1,0.6-1.7,0.9v6.6c0,0.7-0.6,1.1-1.9,1.1
			c-0.3,0-0.6,0-0.9,0l-0.3-1.1c0.3,0,0.8,0,1.6,0c0.1,0,0.2-0.1,0.3-0.2c0.1-0.1,0.2-0.2,0.2-0.3v-5.7c-0.9,0.4-1.6,0.7-2.3,0.9
			l-0.4-0.9l2.6-1.1v-4.6h-2.6v-1h2.6v-3.6h1v3.6h1.9V40.3z M524.2,52.5l-0.5,0.9c-1.9-0.4-3.6-1-5.3-1.7c-2.1,0.8-4,1.4-5.9,1.6
			l-0.6-0.9c1.7-0.2,3.5-0.6,5.3-1.3c-0.9-0.5-1.6-1-2.3-1.6c-0.8,0.4-1.6,0.8-2.5,1.1l-0.5-0.9c0.5-0.2,1.3-0.5,2.3-0.9
			c-0.2-0.1-0.4-0.4-0.6-0.7l0.8-0.4c0.1,0.2,0.3,0.4,0.6,0.6c0.6-0.3,1.2-0.7,1.7-1.1l1,0.4c-0.3,0.3-0.6,0.5-0.6,0.6h5.1v0.9
			c-0.7,0.7-1.6,1.4-2.7,2C521,51.8,522.5,52.2,524.2,52.5z M524.2,37.2h-5.8c-0.1,0.3-0.2,0.6-0.3,0.9h4.5v4.6h1.2v2.4h-1v-1.5
			h-9.3V45h-1v-2.3h1.1v-4.6h3.4c0.1-0.2,0.2-0.5,0.3-0.9h-5v-0.9h11.9V37.2z M515.1,44.9c-0.4,0.9-1,1.8-1.6,2.5l-0.9-0.4
			c0.6-0.6,1.1-1.4,1.6-2.4L515.1,44.9z M521.7,39.7v-0.7h-6.9v0.7H521.7z M521.7,41.1v-0.8h-6.9v0.8H521.7z M521.7,42.7v-0.8h-6.9
			v0.8H521.7z M521.1,45.7c-0.1,0.4-0.2,0.7-0.4,0.9c-0.2,0.2-0.5,0.4-0.9,0.4c-0.4,0-0.9,0-1.5,0c-1.1,0-1.9-0.1-2.1-0.2
			c-0.3-0.2-0.4-0.4-0.4-0.8v-1.8h0.9v1.6c0,0.1,0,0.2,0.1,0.2c0.1,0,0.4,0.1,1.1,0.1c1.1,0,1.7,0,2-0.1s0.3-0.3,0.4-0.7L521.1,45.7
			z M520.6,49.2h-4.8c0.9,0.7,1.7,1.2,2.4,1.5C519.3,50.2,520.1,49.6,520.6,49.2z M519.7,45.1l-0.7,0.6c-0.5-0.5-1-0.9-1.5-1.3
			l0.7-0.6C518.6,44.1,519.2,44.5,519.7,45.1z M524,46.8l-0.8,0.6c-0.5-0.7-1.2-1.5-2.1-2.3l0.7-0.6C522.7,45.3,523.4,46.1,524,46.8
			z"/>
		<path class="st0" d="M535.5,46.4c-0.5-0.3-0.7-0.6-0.7-1c0-0.2,0.1-0.4,0.2-0.6c0.2-0.2,0.4-0.3,0.7-0.3c0.6,0,0.9,0.4,0.9,1.2
			c0,0.7-0.4,1.3-1.2,1.9l-0.4-0.3C535.3,47,535.5,46.6,535.5,46.4z"/>
		<path class="st0" d="M564.8,51.9l-0.3,1h-6.4c-2.3,0-4.1-0.2-5.2-0.7s-2-1-2.7-1.8c-0.6,1.1-1.4,2-2.2,2.8l-0.7-0.7
			c2-2,3.1-4.1,3.2-6.5h-2.7v-0.9c0.9-1.4,1.7-2.7,2.4-4.1h-2.8v-1h4v1c-0.7,1.4-1.5,2.8-2.3,4.1h2.5v1c0,1-0.3,2.2-0.8,3.5
			c0.6,0.7,1.5,1.3,2.5,1.7c1,0.4,2.6,0.6,4.7,0.6H564.8z M551.1,38.8l-0.8,0.7c-0.6-0.9-1.4-1.9-2.5-2.8l0.8-0.7
			C549.6,36.8,550.4,37.8,551.1,38.8z M557.4,41.5h-3.5v1.1c0,2.6-0.5,4.8-1.4,6.8l-0.9-0.6c0.9-1.9,1.3-3.8,1.3-5.9v-6.7h4.5V41.5z
			 M556.3,40.5v-3.3h-2.5v3.3H556.3z M557.7,49.9h-3.4v-6.1h3.4V49.9z M556.7,48.9v-4.1h-1.5v4.1H556.7z M564.5,43.1h-2.7v2.5h2.3v1
			h-2.3v4h-1v-4h-2.4v-1h2.4v-2.5H558v-0.9h1.7c-0.1-0.7-0.4-1.6-0.8-2.8l0.7-0.5h-1.4v-1h2.6c-0.1-0.6-0.4-1.2-0.7-1.9l1-0.3
			c0.3,0.6,0.5,1.3,0.8,2.2h2.3v1h-1.5l0.7,0.6c-0.2,0.9-0.4,1.8-0.8,2.8h1.8V43.1z M562.6,38.8h-2.7c0.3,0.9,0.6,2,0.8,3.4h1
			C562.1,41.1,562.4,40,562.6,38.8z"/>
		<path class="st0" d="M585.1,49.4c-0.2,1.5-0.3,2.4-0.5,2.7c-0.2,0.3-0.5,0.5-0.8,0.7S582.5,53,581,53c-1.8,0-2.9-0.1-3.3-0.3
			c-0.4-0.2-0.5-0.7-0.5-1.3v-4.6h-0.8c-0.4,1.7-1.4,3.1-2.9,4.3c-1.6,1.2-3.4,1.9-5.5,2.3l-0.5-0.9c4.2-0.7,6.8-2.6,7.9-5.6h-5.6
			v-5.2c-0.4,0.3-0.9,0.6-1.6,1l-0.6-0.9c2.4-1.3,4.6-3.3,6.6-6l1,0.4c-0.4,0.6-0.8,1.1-1.1,1.5h6.3v1.1c-1.1,1.2-1.9,2.1-2.4,2.6
			h5.2v5.6h-4.9v4.6c0,0.2,0.1,0.4,0.2,0.5s0.9,0.1,2.3,0.1c1.3,0,2.1,0,2.3-0.1s0.5-0.4,0.6-0.9s0.2-1.2,0.2-2L585.1,49.4z
			 M579,38.6h-5.8c-0.9,0.9-1.8,1.8-2.8,2.6h6.2C577.5,40.2,578.3,39.4,579,38.6z M576,42.3h-5.1v3.6h4.7
			C575.7,44.9,575.9,43.7,576,42.3z M582.1,45.8v-3.6H577c-0.1,1.4-0.2,2.5-0.4,3.6H582.1z"/>
		<path class="st0" d="M605.2,49h-8.7c-0.4,0.9-1.2,1.8-2.2,2.5c-1,0.7-3.1,1.4-6.1,1.9l-0.7-1c4.2-0.4,6.8-1.5,7.8-3.3h-7.5v-1h7.9
			c0.2-0.6,0.2-1.1,0.2-1.7h1c0,0.5-0.1,1.1-0.2,1.7h8.4V49z M603.4,45.7h-13.7v-8.4h4c0.3-0.5,0.6-1,0.8-1.7l1.1,0.3
			c-0.2,0.4-0.4,0.8-0.7,1.4h8.4V45.7z M602.3,39.7v-1.4h-11.6v1.4H602.3z M602.3,42.3v-1.6h-11.6v1.6H602.3z M602.3,44.7v-1.5
			h-11.6v1.5H602.3z M605.1,52.6l-0.6,0.9c-2.1-1-4.6-1.9-7.4-2.7l0.5-0.9C600.5,50.6,602.9,51.5,605.1,52.6z M602.4,47l-0.6,0.9
			c-0.6-0.3-1.2-0.6-1.9-0.8l0.6-0.9C601,46.3,601.7,46.6,602.4,47z"/>
		<path class="st0" d="M625.2,38.4h-13.1c-0.8,1.2-2,2.4-3.4,3.5l-0.7-0.9c2.2-1.6,3.7-3.5,4.6-5.5l1,0.3c-0.2,0.5-0.5,1-0.8,1.4
			h12.4V38.4z M613.1,49.7c-1.1,1.1-2.6,2.1-4.4,3.1l-0.7-0.9c1.8-0.9,3.3-1.8,4.4-2.9L613.1,49.7z M620.8,48.1h-5.5v5.1h-1v-5.1h-6
			v-1h6v-3h1v3h5.5V48.1z M625.5,49.3c-0.2,1.2-0.5,2.2-0.8,3c-0.3,0.7-0.7,1.1-1.2,1.1c-0.7,0-1.2-0.6-1.4-1.8
			c-0.2-1.2-0.3-2.5-0.3-3.9v-4.1h-12.1v-1h13.1v5.1c0,1.3,0.1,2.3,0.2,3.2c0.1,0.9,0.3,1.3,0.5,1.3c0.1,0,0.1,0,0.2-0.1
			c0-0.1,0.2-0.4,0.4-1.1s0.4-1.4,0.5-2.2L625.5,49.3z M613,45.9l-0.9,0.6c-0.7-0.6-1.5-1.2-2.4-1.8l0.8-0.7
			C611.5,44.5,612.4,45.2,613,45.9z M624.1,40.9h-11.9v-1h11.9V40.9z M619.8,44.6c-0.7,0.8-1.5,1.5-2.3,2l-0.9-0.7
			c0.7-0.5,1.4-1.1,2.2-1.9L619.8,44.6z M621.3,52.1l-0.8,0.8c-1.4-1.4-2.7-2.4-3.7-3.1l0.8-0.7C619.1,50.2,620.3,51.2,621.3,52.1z"
			/>
		<path class="st0" d="M11.3,80.6l-0.7,0.8c-1-1.1-2-2-3.2-2.9l0.7-0.8C9.4,78.7,10.5,79.6,11.3,80.6z"/>
		<path class="st0" d="M26.7,71.5c-0.9,0.4-1.6,0.7-2.3,0.9v3.8h1.8v0.9h-1.8v0.4c0.8,0.8,1.5,1.6,2,2.3l-0.6,0.9
			c-0.4-0.6-0.9-1.3-1.4-1.9v9.3h-1v-8.5c-0.6,1.3-1.3,2.6-2.1,3.7l-0.8-0.7c1.1-1.4,2-3.2,2.9-5.4h-2.6v-0.9h2.6v-3.5
			c-0.8,0.2-1.4,0.4-2,0.4L21,72.3c2.1-0.4,3.8-0.9,5.2-1.6L26.7,71.5z M38.2,85c-0.1,0.7-0.2,1.3-0.5,1.9c-0.2,0.6-0.4,1-0.6,1.1
			c-0.2,0.1-0.4,0.2-0.6,0.2c-0.9,0-1.6-0.8-2.2-2.5c-0.8,0.9-1.7,1.6-2.8,2.4l-0.6-0.7c1.3-0.8,2.3-1.8,3.1-2.8
			c-0.4-1.8-0.6-3.9-0.8-6.2h-5.1c0,2.7-0.2,4.8-0.5,6.2s-0.8,2.6-1.4,3.5l-0.9-0.6c0.7-1.1,1.2-2.3,1.5-3.7s0.3-3.5,0.3-6.3h6
			l0-1.3h0.9c0,0.4,0,0.9,0,1.3H38v1h-3.9c0.1,1.9,0.3,3.6,0.6,5.2c0.7-1.1,1.3-2.5,1.7-4.1l0.9,0.2c-0.5,2.1-1.3,3.8-2.3,5.1
			c0.1,0.5,0.3,1.1,0.5,1.6s0.5,0.8,0.8,0.8c0.1,0,0.2-0.1,0.3-0.2c0.1-0.1,0.2-0.5,0.4-1c0.2-0.6,0.3-1.1,0.3-1.7L38.2,85z
			 M37.9,75.4H26.5v-0.9h1.7v-3h1v3h2.5v-3.9h1V72h4.6v0.9h-4.6v1.6h5.2V75.4z M33,82.4c-1.1,2.1-2.6,3.7-4.6,4.9l-0.6-0.7
			c1.1-0.7,2.1-1.4,2.8-2.1v-3.9h-1.6v-0.9h3.9v0.9h-1.3v2.7c0.3-0.5,0.6-0.9,0.8-1.4L33,82.4z M29.9,81.8c-0.2,0.8-0.5,1.6-0.8,2.5
			l-0.8-0.4c0.4-0.8,0.6-1.6,0.9-2.5L29.9,81.8z M37.2,76.5l-0.4,0.7c-0.5-0.3-1-0.6-1.5-0.8l0.4-0.7C36.2,75.9,36.7,76.2,37.2,76.5
			z"/>
		<path class="st0" d="M58,73.2H44.9c-0.8,1.2-2,2.4-3.4,3.5l-0.7-0.9c2.2-1.6,3.7-3.5,4.6-5.5l1,0.3c-0.2,0.5-0.5,1-0.8,1.4H58
			V73.2z M45.9,84.5c-1.1,1.1-2.6,2.1-4.4,3.1l-0.7-0.9c1.8-0.9,3.3-1.8,4.4-2.9L45.9,84.5z M53.6,82.9h-5.5V88h-1v-5.1h-6v-1h6v-3
			h1v3h5.5V82.9z M58.3,84.1c-0.2,1.2-0.5,2.2-0.8,3c-0.3,0.7-0.7,1.1-1.2,1.1c-0.7,0-1.2-0.6-1.4-1.8c-0.2-1.2-0.3-2.5-0.3-3.9
			v-4.1H42.4v-1h13.1v5.1c0,1.3,0.1,2.3,0.2,3.2c0.1,0.9,0.3,1.3,0.5,1.3c0.1,0,0.1,0,0.2-0.1c0-0.1,0.2-0.4,0.4-1.1
			c0.2-0.7,0.4-1.4,0.5-2.2L58.3,84.1z M45.8,80.7l-0.9,0.6c-0.7-0.6-1.5-1.2-2.4-1.8l0.8-0.7C44.3,79.4,45.1,80,45.8,80.7z
			 M56.8,75.7H45v-1h11.9V75.7z M52.6,79.4c-0.7,0.8-1.5,1.5-2.3,2l-0.9-0.7c0.7-0.5,1.4-1.1,2.2-1.9L52.6,79.4z M54,86.9l-0.8,0.8
			c-1.4-1.4-2.7-2.4-3.7-3.1l0.8-0.7C51.8,85,53.1,86,54,86.9z"/>
		<path class="st0" d="M70.6,71.4c-2.7,0.6-5.6,0.9-8.9,1l-0.4-1c3.4,0,6.3-0.3,8.9-0.8L70.6,71.4z M70.8,86.9
			c0,0.8-0.6,1.2-1.7,1.2c-0.2,0-0.5,0-0.8,0L68,87c0.2,0,0.7,0,1.5,0c0.1,0,0.2,0,0.2-0.1c0.1-0.1,0.1-0.2,0.1-0.2v-7.4h-3.3
			c-0.5,0.8-1.1,1.5-1.8,2c0.7,0,1.6-0.1,2.8-0.3c-0.1-0.2-0.3-0.4-0.6-0.7l0.8-0.5c0.7,0.6,1.2,1.3,1.6,2l-0.8,0.6
			c-0.1-0.1-0.2-0.3-0.4-0.6c-2,0.2-3.5,0.4-4.5,0.5l-0.3-0.9c0.8-0.7,1.5-1.4,1.9-2.2h-2.8v8.8h-1v-9.8h4.9
			c-0.7-0.4-1.6-0.9-2.8-1.3l0.7-0.7c0.7,0.3,1.3,0.5,1.8,0.8c1-0.4,1.8-0.8,2.6-1.2h-7.2V75h9.3v0.9c-0.9,0.5-2.1,1.1-3.6,1.8
			c0.2,0.1,0.5,0.3,0.9,0.6h2.7V86.9z M63.7,74.2l-1,0.5c-0.3-0.6-0.7-1.1-1-1.5l0.9-0.5C63.1,73.2,63.4,73.7,63.7,74.2z M68.6,83.8
			c-0.5,0.7-1,1.4-1.5,1.8c0.3,0.3,0.7,0.6,1,0.9l-0.6,0.7c-0.4-0.4-0.8-0.7-1.1-1c-1,0.6-1.8,1-2.5,1.3l-0.7-0.8
			c0.9-0.3,1.7-0.6,2.4-1.1c-0.5-0.4-1.1-0.8-1.8-1.2l0.6-0.6h-0.9v-0.9h5.2V83.8z M67.4,83.8h-2.9l1.8,1.2
			C66.8,84.5,67.2,84.1,67.4,83.8z M66.9,74.3l-1,0.3c-0.2-0.6-0.4-1.2-0.8-1.7l1-0.3C66.5,73.1,66.7,73.6,66.9,74.3z M70.7,72.7
			c-0.4,0.8-0.8,1.4-1.3,1.9l-0.9-0.5c0.4-0.5,0.9-1.1,1.3-1.9L70.7,72.7z M78.3,83.3c0,1.4-0.1,2.3-0.2,3s-0.4,1.1-0.8,1.3
			c-0.4,0.2-1.1,0.3-2.2,0.3c-0.8,0-1.3,0-1.5-0.1s-0.4-0.2-0.6-0.4c-0.2-0.2-0.3-0.5-0.3-0.9V70.5h1v15.7c0,0.2,0.1,0.4,0.3,0.5
			s0.6,0.1,1.2,0.1c0.7,0,1.2,0,1.4-0.1c0.2-0.1,0.3-0.2,0.4-0.3c0.1-0.1,0.2-0.5,0.2-1.2c0.1-0.7,0.1-1.4,0.2-2.3L78.3,83.3z"/>
		<path class="st0" d="M97.9,74.5h-1v-1.9h-5.1v0.8c0,0.2,0.1,0.3,0.2,0.5s0.3,0.2,0.4,0.2h3.4v0.9H92c-0.3,0-0.6-0.1-0.8-0.4
			c-0.2-0.2-0.3-0.5-0.3-0.8v-1.1h-2.1c-1,1.4-2.6,2.3-4.8,2.7l-0.5-0.9c1.9-0.3,3.2-0.9,4-1.8h-5v1.9h-1v-2.8h7.7
			c-0.3-0.4-0.6-0.7-0.8-1l1.1-0.3l1,1.3h7.5V74.5z M87.5,86.6c-1.3,0.5-3.1,1-5.4,1.5l-0.4-0.8c0.2-0.2,0.3-0.4,0.3-0.5v-5.4h1v0.8
			h4.3v0.8H83v1.2h4.3v0.8H83v1.8c1.7-0.3,3.1-0.7,4.3-1.2L87.5,86.6z M96.9,80.7H82.3v-4.6c2.2-0.1,4.3-0.5,6.2-0.9l0.4,0.9
			c-1.7,0.4-3.5,0.7-5.6,0.9v0.9h5.1v0.8h-5.1v1.2h12.6v-1.2h-5.1v-0.8h5.1v-1h-5.5V76h6.5V80.7z M93.9,86.8c-2,0.6-3.7,1-5.1,1.3
			l-0.4-0.7c0.2-0.2,0.3-0.4,0.3-0.6v-5.3h0.9v0.8h3.7v0.8h-3.7v1.2h3.7v0.8h-3.7V87c0.8-0.1,2.2-0.5,4.1-1L93.9,86.8z M98.3,84.8
			c-0.4,2.3-1,3.4-1.8,3.4c-0.7,0-1.2-0.8-1.5-2.4c-0.3-1.6-0.4-3-0.4-4.3h1c0,1.2,0,2.5,0.2,3.7c0.2,1.2,0.5,1.8,0.7,1.8
			c0.2,0,0.4-0.3,0.6-1c0.2-0.7,0.3-1.3,0.4-1.8L98.3,84.8z"/>
		<path class="st0" d="M109.3,81.2c-0.5-0.3-0.7-0.6-0.7-1c0-0.2,0.1-0.4,0.2-0.6s0.4-0.3,0.7-0.3c0.6,0,0.9,0.4,0.9,1.2
			c0,0.7-0.4,1.3-1.2,1.9l-0.4-0.3C109.2,81.8,109.3,81.5,109.3,81.2z"/>
		<path class="st0" d="M137.6,78h-1.1v-3.2h-14V78h-1v-4.2h7.5v-3.2h1.1v3.2h7.5V78z M136.4,85.6c0,0.7-0.2,1.1-0.5,1.3
			c-0.3,0.2-1,0.3-1.9,0.3c-0.3,0-0.7,0-1,0l-0.4-1c1.5,0,2.3,0,2.5-0.1c0.2-0.1,0.2-0.2,0.2-0.5v-2.6h-5.2v5.1h-1v-5.1h-5.2v4.2h-1
			v-5.2h6.3v-1.6h-4.5v-4.3h10.1v4.3h-4.5v1.6h6.2V85.6z M126.1,72.9l-1,0.5c-0.4-0.7-0.9-1.4-1.4-2.1l1-0.5
			C125.2,71.5,125.7,72.2,126.1,72.9z M133.6,79.4v-2.2h-7.9v2.2H133.6z M135.7,71.4c-0.4,0.7-0.9,1.4-1.5,2l-0.9-0.6
			c0.6-0.7,1.1-1.4,1.4-1.9L135.7,71.4z"/>
		<path class="st0" d="M145.5,70.9c-0.1,0.5-0.4,1.3-0.7,2.2l-0.5,1.4v13.7h-1V76.8c-0.7,1.2-1.2,2.2-1.8,3l-0.7-1
			c1.5-2.2,2.8-5,3.7-8.4L145.5,70.9z M149.9,82.9c-1.3,2-2.6,3.5-3.9,4.5l-0.7-0.7c1.4-1.2,2.7-2.7,3.8-4.5L149.9,82.9z
			 M158.4,80.8h-5.9v7.4h-1v-7.4h-6.1v-1h6.1v-2.4h-4.6v-6.2H157v6.2h-4.6v2.4h5.9V80.8z M156,76.3v-4.2h-8.1v4.2H156z M158.5,86.6
			l-0.7,0.7c-1.1-1.6-2.4-3.1-3.9-4.5l0.8-0.8C156.5,83.8,157.7,85.3,158.5,86.6z"/>
		<path class="st0" d="M178.4,87.6H161v-1h8.2v-4.6h-6.3v-1h13.8v1h-6.4v4.6h8.1V87.6z M177.7,76.4h-1v-2.8h-4.5v3.7
			c0,0.4,0.2,0.6,0.7,0.6h4.7v1h-4.7c-1.1,0-1.7-0.5-1.7-1.6v-3.7h-2.6c-0.5,3.2-2.6,5.2-6.3,6l-0.6-0.9c3.6-0.7,5.5-2.4,5.8-5.1
			h-4.6v2.7h-1v-3.7h7.5c-0.2-0.6-0.5-1.1-0.8-1.7l1-0.4c0.3,0.5,0.6,1.2,0.9,2.1h7.3V76.4z"/>
		<path class="st0" d="M198.3,73.2h-13.1c-0.8,1.2-2,2.4-3.4,3.5l-0.7-0.9c2.2-1.6,3.7-3.5,4.6-5.5l1,0.3c-0.2,0.5-0.5,1-0.8,1.4
			h12.4V73.2z M186.2,84.5c-1.1,1.1-2.6,2.1-4.4,3.1l-0.7-0.9c1.8-0.9,3.3-1.8,4.4-2.9L186.2,84.5z M193.9,82.9h-5.5V88h-1v-5.1h-6
			v-1h6v-3h1v3h5.5V82.9z M198.6,84.1c-0.2,1.2-0.5,2.2-0.8,3c-0.3,0.7-0.7,1.1-1.2,1.1c-0.7,0-1.2-0.6-1.4-1.8s-0.3-2.5-0.3-3.9
			v-4.1h-12.1v-1h13.1v5.1c0,1.3,0.1,2.3,0.2,3.2c0.1,0.9,0.3,1.3,0.5,1.3c0.1,0,0.1,0,0.2-0.1c0-0.1,0.2-0.4,0.4-1.1
			c0.2-0.7,0.4-1.4,0.5-2.2L198.6,84.1z M186.1,80.7l-0.9,0.6c-0.7-0.6-1.5-1.2-2.4-1.8l0.8-0.7C184.6,79.4,185.4,80,186.1,80.7z
			 M197.1,75.7h-11.9v-1h11.9V75.7z M192.9,79.4c-0.7,0.8-1.5,1.5-2.3,2l-0.9-0.7c0.7-0.5,1.4-1.1,2.2-1.9L192.9,79.4z M194.3,86.9
			l-0.8,0.8c-1.4-1.4-2.7-2.4-3.7-3.1l0.8-0.7C192.1,85,193.4,86,194.3,86.9z"/>
		<path class="st0" d="M204.7,78.2l-0.8,0.8c-0.8-1-1.8-1.8-2.8-2.5l0.6-0.8C202.7,76.3,203.7,77.1,204.7,78.2z M204.8,81.6
			c-0.8,2.4-1.8,4.6-2.8,6.6l-0.8-0.8c1-1.7,1.9-3.8,2.8-6.3L204.8,81.6z M205,73.2l-0.8,0.8c-0.8-1.1-1.7-2-2.6-2.7l0.8-0.7
			C203.3,71.3,204.2,72.2,205,73.2z M209.2,84.9c-1.2,1-2.5,1.8-4,2.6l-0.7-0.8c1.5-0.7,2.8-1.5,3.9-2.4L209.2,84.9z M211.4,76.9
			c-0.7,0.1-1.6,0.3-2.6,0.4v1.1h-1v-1l-2.6,0.2l-0.1-0.9c0.2,0,1.1-0.1,2.8-0.2v-1.6h-2.3V74h2.3v-1.3h-2.5v-0.9h2.5v-1.2h1v1.2
			h2.6v0.9h-2.6V74h2.3v0.9h-2.3v1.5c0.7,0,1.6-0.2,2.6-0.3V76.9z M218.3,83.8l-0.8,0.6c-0.4-0.6-0.7-1.1-1.1-1.4
			c-1.8,0.2-3.2,0.3-4.2,0.3v3.4c0,0.4-0.1,0.8-0.4,1s-0.8,0.3-1.5,0.3c-0.4,0-0.8,0-1.3-0.1l-0.3-1c0.6,0,1,0.1,1.4,0.1
			c0.6,0,0.9-0.1,1-0.2c0.1-0.1,0.2-0.2,0.2-0.3v-3.2l-5.5,0.3l-0.3-0.9c1.4-0.4,3.2-1.1,5.3-2.1c-1.3,0.1-2.8,0.2-4.6,0.3l-0.2-0.9
			c1.3-0.4,3-1.2,5.1-2.4l0.8,0.7c-1.1,0.6-2.3,1.2-3.7,1.7c1.1-0.1,2.1-0.2,3.1-0.3c1-0.1,1.6-0.2,1.7-0.2c0.1,0,0.7-0.4,1.8-1
			l0.9,0.6c-3,1.8-5.7,2.9-7.9,3.6c2.6-0.1,5.2-0.3,7.9-0.6c-0.3-0.4-0.6-0.8-1.1-1.1l0.9-0.6C216.7,81.7,217.6,82.8,218.3,83.8z
			 M218,71.3c-0.1,1.6-0.2,3-0.4,4.1s-0.3,1.8-0.5,2s-0.3,0.4-0.6,0.5c-0.2,0.1-0.8,0.2-1.7,0.1l-0.4-1c0.8,0,1.3,0,1.5,0
			c0.2-0.1,0.3-0.2,0.4-0.3c0.1-0.1,0.2-0.6,0.3-1.5s0.2-1.8,0.3-2.9h-2c-0.3,2.5-1.1,4.4-2.5,5.7l-0.7-0.7c1.2-1.1,1.9-2.8,2.2-5
			h-1.9v-1H218z M218.7,86.7l-0.8,0.8c-0.9-0.8-2.2-1.7-3.8-2.5l0.7-0.8C216.3,84.9,217.6,85.8,218.7,86.7z"/>
		<path class="st0" d="M224.9,81.5c-0.7,2.5-1.7,4.7-2.9,6.5l-0.9-0.7c1.1-1.7,2.1-3.8,2.8-6.4L224.9,81.5z M225.1,78.3l-0.6,0.8
			c-0.8-0.8-1.9-1.7-3.3-2.5l0.7-0.9C223,76.4,224.1,77.3,225.1,78.3z M225.7,73.1L225,74c-0.9-1-2-1.9-3.2-2.7l0.7-0.8
			C223.8,71.3,224.9,72.2,225.7,73.1z M238.6,81h-1.8v3.2h-4.7v2.5c0,0.3-0.1,0.6-0.2,0.8c-0.2,0.2-0.4,0.4-0.6,0.5
			c-0.2,0.1-0.8,0.1-1.6,0.1c-0.3,0-0.6,0-1,0l-0.5-1.1c0.8,0.1,1.6,0.1,2.4,0.1c0.1,0,0.3-0.1,0.4-0.2c0.1-0.1,0.2-0.2,0.2-0.4
			v-2.3h-4.8v-1h4.8V81h-5.7v-1h5.7v-2.2h-4.8v-1h10.5V80h1.8V81z M237.1,71.6c-3.2,0.6-6.2,1-9.1,1c-0.5,0-1.1,0-1.6,0l-0.5-1
			c0.7,0,1.5,0.1,2.3,0.1c2.9,0,5.7-0.3,8.4-0.9L237.1,71.6z M228.9,75.8l-1,0.4c-0.3-0.9-0.8-1.8-1.4-2.5l0.9-0.5
			C228,73.8,228.5,74.7,228.9,75.8z M232.8,75.7l-1,0.4c-0.2-0.8-0.5-1.6-1-2.6l0.9-0.4C232.3,73.9,232.6,74.8,232.8,75.7z
			 M235.7,80v-2.2h-3.7V80H235.7z M235.7,83.2V81h-3.7v2.3H235.7z M237.4,73.3c-0.5,1.2-1.1,2.2-1.8,2.9l-0.9-0.5
			c0.8-0.9,1.4-1.9,1.8-2.9L237.4,73.3z"/>
		<path class="st0" d="M249.6,81.2c-0.5-0.3-0.7-0.6-0.7-1c0-0.2,0.1-0.4,0.2-0.6s0.4-0.3,0.7-0.3c0.6,0,0.9,0.4,0.9,1.2
			c0,0.7-0.4,1.3-1.2,1.9l-0.4-0.3C249.5,81.8,249.6,81.5,249.6,81.2z"/>
		<path class="st0" d="M278.8,87.1l-0.4,1c-4-0.2-7.3-0.9-10-1.9c-1.7,1.2-3.9,1.8-6.7,2l-0.5-1c2.5-0.1,4.5-0.6,6.1-1.5
			c-1.4-0.7-2.6-1.4-3.7-2.3l0.8-0.7c1,0.9,2.2,1.6,3.7,2.2c0.7-0.7,1.1-1.8,1.3-3.1h-6.2v-7.5h6.3v-2.2h-8.2v-1h17.2v1h-8v2.2h6.1
			v7.5h-6.2c-0.2,1.5-0.7,2.7-1.3,3.5C271.8,86.3,275,86.9,278.8,87.1z M269.6,77.5v-2.1h-5.2v2.1H269.6z M269.5,78.4h-5.2v2.4h5.1
			c0-0.5,0.1-1,0.1-1.5C269.6,79,269.6,78.7,269.5,78.4z M275.7,80.8v-2.4h-5c0,1.1,0,1.9-0.1,2.4H275.7z M275.7,77.5v-2.1h-5v2.1
			H275.7z"/>
		<path class="st0" d="M298.7,79.3H294c-0.7,1.9-1.6,3.6-2.8,4.9c4.1,1.6,6.5,2.7,7.2,3.1l-0.6,0.9c-1-0.6-3.5-1.7-7.4-3.2
			c-2.2,1.6-4.9,2.6-8.3,3.2l-0.6-1c2.9-0.4,5.5-1.3,7.6-2.6c-1.5-0.6-3.4-1.3-5.7-1.9c1-1.1,1.9-2.2,2.6-3.3h-4.8v-1h5.4
			c0.7-1.1,1.3-2.3,2-3.7l1,0.4c-0.5,1-1.1,2.1-1.8,3.3h5.3c0.2-0.6,0.4-1.2,0.5-1.7l1,0.3l-0.4,1.4h4.4V79.3z M298,76.5H297v-2.7
			h-13.9v2.7H282v-3.8h7.6c-0.3-0.6-0.6-1.2-1-1.8l1-0.5c0.4,0.6,0.7,1.3,1.1,2.2h7.3V76.5z M292.8,79.3h-5.5c-0.7,1-1.3,1.9-2,2.8
			c1.2,0.4,2.8,0.9,4.8,1.6C291.2,82.6,292.1,81.2,292.8,79.3z"/>
		<path class="st0" d="M305,77.2c-0.8,3.6-1.8,6.5-2.8,8.6l-1-0.7c1.1-2,2-4.8,2.7-8.3L305,77.2z M314.9,82.4
			c-0.1,1.3-0.2,2.3-0.3,3.2c-0.2,0.8-0.3,1.4-0.5,1.6c-0.2,0.3-0.5,0.4-0.8,0.5s-1.1,0.1-2.4,0.1c-0.9,0-1.7,0-2.3-0.1
			c-0.6,0-1.1-0.2-1.3-0.4c-0.3-0.3-0.4-0.6-0.4-1.1V75.2h1.1V86c0,0.2,0.1,0.3,0.2,0.5c0.1,0.1,0.2,0.2,0.3,0.3c0.1,0,0.6,0,1.5,0
			l2.6,0c0.2,0,0.4-0.1,0.6-0.3c0.2-0.2,0.4-0.8,0.5-1.7c0.1-1,0.2-1.9,0.2-2.8L314.9,82.4z M313,75.9l-0.9,0.7
			c-1-1.8-2.5-3.6-4.5-5.5l0.8-0.7C310.3,72.2,311.8,74,313,75.9z M318.8,84.7l-1.1,0.4c-0.5-2.2-1.5-4.8-3.1-7.6l1-0.6
			C317.1,79.9,318.1,82.5,318.8,84.7z"/>
		<path class="st0" d="M330.1,77.4c0.6,0,1,0.2,1.4,0.6c0.4,0.4,0.6,0.9,0.6,1.4c0,0.6-0.2,1.1-0.5,1.4c-0.4,0.4-0.8,0.6-1.4,0.6
			c-0.5,0-1-0.2-1.4-0.5s-0.6-0.8-0.6-1.5c0-0.6,0.2-1.1,0.6-1.5C329.2,77.5,329.6,77.4,330.1,77.4z M331.3,79.4
			c0-0.3-0.1-0.6-0.4-0.8c-0.2-0.2-0.5-0.3-0.9-0.3c-0.3,0-0.6,0.1-0.8,0.3s-0.3,0.5-0.3,0.8c0,0.3,0.1,0.6,0.3,0.8
			c0.2,0.3,0.5,0.4,0.9,0.4c0.3,0,0.6-0.1,0.8-0.3C331.2,80,331.3,79.7,331.3,79.4z"/>
	</g>
</g>
</svg>
