<?xml version="1.0" encoding="utf-8"?>
<!-- Generator: Adobe Illustrator 25.2.3, SVG Export Plug-In . SVG Version: 6.00 Build 0)  -->
<svg version="1.1" id="section7_title.svg" xmlns="http://www.w3.org/2000/svg" xmlns:xlink="http://www.w3.org/1999/xlink" x="0px"
	 y="0px" viewBox="0 0 309 80" style="enable-background:new 0 0 309 80;" xml:space="preserve">
<style type="text/css">
	.繪圖樣式{fill:url(#SVGID_1_);}
	.st0{fill:url(#SVGID_2_);}
	.st1{fill:url(#SVGID_3_);}
	.st2{fill:url(#SVGID_4_);}
	.st3{fill:url(#SVGID_5_);}
	.st4{fill:url(#SVGID_6_);}
	.st5{fill:url(#SVGID_7_);}
	.st6{fill:url(#SVGID_8_);}
	.st7{fill:url(#SVGID_9_);}
	.st8{fill:url(#SVGID_10_);}
	.st9{fill:url(#SVGID_11_);}
	.st10{fill:#FFFFFF;}
</style>
<linearGradient id="SVGID_1_" gradientUnits="userSpaceOnUse" x1="0" y1="80" x2="0.8008" y2="80.599">
	<stop  offset="0" style="stop-color:#FAC859"/>
	<stop  offset="2.877487e-03" style="stop-color:#FACB64"/>
	<stop  offset="9.516122e-03" style="stop-color:#FBD176"/>
	<stop  offset="1.745736e-02" style="stop-color:#FCD582"/>
	<stop  offset="2.788930e-02" style="stop-color:#FCD78A"/>
	<stop  offset="5.042250e-02" style="stop-color:#FCD88C"/>
	<stop  offset="6.442444e-02" style="stop-color:#FCD681"/>
	<stop  offset="8.918270e-02" style="stop-color:#FBD163"/>
	<stop  offset="0.1216" style="stop-color:#FACA33"/>
	<stop  offset="0.1355" style="stop-color:#FAC61C"/>
	<stop  offset="0.1458" style="stop-color:#E6B417"/>
	<stop  offset="0.1638" style="stop-color:#C99B11"/>
	<stop  offset="0.184" style="stop-color:#B2860B"/>
	<stop  offset="0.207" style="stop-color:#9F7607"/>
	<stop  offset="0.2343" style="stop-color:#936A04"/>
	<stop  offset="0.2701" style="stop-color:#8B6402"/>
	<stop  offset="0.3475" style="stop-color:#896202"/>
	<stop  offset="0.6179" style="stop-color:#FAC859"/>
	<stop  offset="0.651" style="stop-color:#FACC64"/>
	<stop  offset="0.7093" style="stop-color:#FCD582"/>
	<stop  offset="0.7267" style="stop-color:#FCD88C"/>
	<stop  offset="0.7501" style="stop-color:#FCD481"/>
	<stop  offset="0.7914" style="stop-color:#FACB63"/>
	<stop  offset="0.8037" style="stop-color:#FAC859"/>
	<stop  offset="0.811" style="stop-color:#F2C153"/>
	<stop  offset="0.85" style="stop-color:#CC9F36"/>
	<stop  offset="0.8888" style="stop-color:#AF841F"/>
	<stop  offset="0.9271" style="stop-color:#9A710F"/>
	<stop  offset="0.9645" style="stop-color:#8D6605"/>
	<stop  offset="1" style="stop-color:#896202"/>
</linearGradient>
<g>
	<g>
		
			<image style="overflow:visible;opacity:0.4;" width="312" height="44" xlink:href="11C82A7D382A500E.png"  transform="matrix(1 0 0 1 0.2471 39.4471)">
		</image>
		<g>
			<g>
				
					<linearGradient id="SVGID_2_" gradientUnits="userSpaceOnUse" x1="-196.344" y1="105.2015" x2="337.9413" y2="504.821" gradientTransform="matrix(1 0 0 1 -41.501 -338.301)">
					<stop  offset="0" style="stop-color:#FAC859"/>
					<stop  offset="2.877487e-03" style="stop-color:#FACB64"/>
					<stop  offset="9.516122e-03" style="stop-color:#FBD176"/>
					<stop  offset="1.745736e-02" style="stop-color:#FCD582"/>
					<stop  offset="2.788930e-02" style="stop-color:#FCD78A"/>
					<stop  offset="5.042250e-02" style="stop-color:#FCD88C"/>
					<stop  offset="6.442444e-02" style="stop-color:#FCD681"/>
					<stop  offset="8.918270e-02" style="stop-color:#FBD163"/>
					<stop  offset="0.1216" style="stop-color:#FACA33"/>
					<stop  offset="0.1355" style="stop-color:#FAC61C"/>
					<stop  offset="0.1458" style="stop-color:#E6B417"/>
					<stop  offset="0.1638" style="stop-color:#C99B11"/>
					<stop  offset="0.184" style="stop-color:#B2860B"/>
					<stop  offset="0.207" style="stop-color:#9F7607"/>
					<stop  offset="0.2343" style="stop-color:#936A04"/>
					<stop  offset="0.2701" style="stop-color:#8B6402"/>
					<stop  offset="0.3475" style="stop-color:#896202"/>
					<stop  offset="0.6179" style="stop-color:#FAC859"/>
					<stop  offset="0.651" style="stop-color:#FACC64"/>
					<stop  offset="0.7093" style="stop-color:#FCD582"/>
					<stop  offset="0.7267" style="stop-color:#FCD88C"/>
					<stop  offset="0.7501" style="stop-color:#FCD481"/>
					<stop  offset="0.7914" style="stop-color:#FACB63"/>
					<stop  offset="0.8037" style="stop-color:#FAC859"/>
					<stop  offset="0.811" style="stop-color:#F2C153"/>
					<stop  offset="0.85" style="stop-color:#CC9F36"/>
					<stop  offset="0.8888" style="stop-color:#AF841F"/>
					<stop  offset="0.9271" style="stop-color:#9A710F"/>
					<stop  offset="0.9645" style="stop-color:#8D6605"/>
					<stop  offset="1" style="stop-color:#896202"/>
				</linearGradient>
				<path class="st0" d="M13.8,59c-0.3,0.3-0.8,0.6-1.8,0.7v8.7c2.4,2.5,4.8,2.8,11,2.8c3.9,0,9.2,0,13.4-0.1v0.4
					c-1.4,0.3-2.3,1.4-2.4,3.1H23c-6.5,0-9.1-1-11.4-5.7c-1.5,1.9-3.8,4.3-5.2,5.6c0,0.5-0.2,0.7-0.5,0.9l-2.1-4.2
					c1.2-0.4,3-1.1,4.8-1.9V59H4l-0.1-0.8h4.2l1.8-2.4L13.8,59z M5,44.3c5.2,1,6.9,3.2,6.9,4.9c0,1.3-0.9,2.3-2.1,2.3
					c-0.5,0-1-0.2-1.5-0.7c-0.3-2.1-1.8-4.7-3.5-6.2L5,44.3z M22.8,55.6v-6h-3.6c-1.2,2.1-2.7,3.9-4.3,5.2l-0.4-0.3
					c1.3-2.4,2.4-6.7,2.9-10.8l5,1.3c-0.1,0.4-0.4,0.7-1.3,0.7c-0.4,1.1-0.9,2.2-1.5,3.2h3.2v-5.8l5.1,0.5c-0.1,0.5-0.4,0.8-1.5,0.9
					v4.4h2.7l2-2.6l3.7,2.7c-0.2,0.4-0.7,0.6-1.7,0.6h-6.8v6h4.1l2-2.7l3.8,2.7c-0.2,0.4-0.7,0.6-1.7,0.6H13.3l-0.2-0.7H22.8z
					 M32.9,68.9c0,0.2-1.8,1-3,1h-0.6v-2h-9.1v1c0,0.1-0.5,1.3-3.6,1.3V58.1l3.8,1.5h8.6l1.4-1.9l3.9,2.7c-0.2,0.3-0.7,0.6-1.3,0.7
					V68.9z M20.1,67.2h9.1v-6.9h-9.1V67.2z"/>
				
					<linearGradient id="SVGID_3_" gradientUnits="userSpaceOnUse" x1="-196.344" y1="105.2015" x2="337.9413" y2="504.821" gradientTransform="matrix(1 0 0 1 -41.501 -338.301)">
					<stop  offset="0" style="stop-color:#FAC859"/>
					<stop  offset="2.877487e-03" style="stop-color:#FACB64"/>
					<stop  offset="9.516122e-03" style="stop-color:#FBD176"/>
					<stop  offset="1.745736e-02" style="stop-color:#FCD582"/>
					<stop  offset="2.788930e-02" style="stop-color:#FCD78A"/>
					<stop  offset="5.042250e-02" style="stop-color:#FCD88C"/>
					<stop  offset="6.442444e-02" style="stop-color:#FCD681"/>
					<stop  offset="8.918270e-02" style="stop-color:#FBD163"/>
					<stop  offset="0.1216" style="stop-color:#FACA33"/>
					<stop  offset="0.1355" style="stop-color:#FAC61C"/>
					<stop  offset="0.1458" style="stop-color:#E6B417"/>
					<stop  offset="0.1638" style="stop-color:#C99B11"/>
					<stop  offset="0.184" style="stop-color:#B2860B"/>
					<stop  offset="0.207" style="stop-color:#9F7607"/>
					<stop  offset="0.2343" style="stop-color:#936A04"/>
					<stop  offset="0.2701" style="stop-color:#8B6402"/>
					<stop  offset="0.3475" style="stop-color:#896202"/>
					<stop  offset="0.6179" style="stop-color:#FAC859"/>
					<stop  offset="0.651" style="stop-color:#FACC64"/>
					<stop  offset="0.7093" style="stop-color:#FCD582"/>
					<stop  offset="0.7267" style="stop-color:#FCD88C"/>
					<stop  offset="0.7501" style="stop-color:#FCD481"/>
					<stop  offset="0.7914" style="stop-color:#FACB63"/>
					<stop  offset="0.8037" style="stop-color:#FAC859"/>
					<stop  offset="0.811" style="stop-color:#F2C153"/>
					<stop  offset="0.85" style="stop-color:#CC9F36"/>
					<stop  offset="0.8888" style="stop-color:#AF841F"/>
					<stop  offset="0.9271" style="stop-color:#9A710F"/>
					<stop  offset="0.9645" style="stop-color:#8D6605"/>
					<stop  offset="1" style="stop-color:#896202"/>
				</linearGradient>
				<path class="st1" d="M67.8,64.4c0,0.1-0.1,0.2-0.3,0.3L71,67c-0.2,0.4-0.7,0.6-1.6,0.6H51l-0.2-0.7h14.8l1.7-2
					c-1,0.4-1.9,0.4-3,0.4v-1.6h-7.3v0.8c0,0.2-1.1,1-2.8,1h-0.6V50.3l3.8,1.4h1.4v-3.6h-6.3c0.2,0.3,0.2,0.7,0.2,1
					c0,1.1-0.9,1.9-1.9,1.9c-0.5,0-1-0.2-1.4-0.6c-0.3-1.6-1.3-3.8-2.9-5.6c-1.3,2.7-3.5,5.9-6.1,8.3h6.2l1.7-2.3l3.2,2.4
					c-0.2,0.4-0.7,0.6-1.6,0.6h-3.1v5h0.9l1.7-2.3l3.2,2.4c-0.2,0.4-0.7,0.6-1.6,0.6h-4.1v10c1.8-0.2,3.8-0.5,5.8-0.8l0.1,0.5
					c-2.5,1.1-6.3,2.7-11.6,4.7c-0.2,0.4-0.6,0.7-0.9,0.8l-1.9-4.2c1.1-0.1,3-0.3,5.2-0.6V59.5h-4.8l-0.2-0.7h5v-5h-3.2l-0.1-0.5
					c-0.5,0.5-1,1-1.6,1.4l-0.4-0.3c2.1-2.9,3.9-7.7,4.6-11.2l5.1,0.4c-0.1,0.4-0.4,0.6-1.3,0.8c3,0.9,4.6,2,5.4,3h6.7v-4.3l5,0.5
					c-0.1,0.4-0.4,0.7-1.3,0.8v3h3l1.9-2.4l3.5,2.5c-0.3,0.5-0.7,0.6-1.7,0.6h-6.8v3.6H64l1.5-1.9l3.7,2.7c-0.2,0.3-0.6,0.5-1.3,0.6
					V64.4z M39.4,61c2.6,1.9,3.4,3.8,3.4,5.2c0,1.4-0.9,2.4-1.8,2.4c-0.4,0-0.9-0.2-1.3-0.8c0.1-0.4,0.1-0.9,0.1-1.4
					c0-1.8-0.4-3.8-1-5.2L39.4,61z M47.6,67.9c0.4-1.7,1-4.6,1.3-7.1l4,1.1c-0.1,0.4-0.4,0.6-1.2,0.7c-1,1.9-2.3,4.2-3.5,5.6
					L47.6,67.9z M60.3,70.5c-0.2,0.3-0.6,0.5-1.2,0.5c-0.2,0-0.4,0-0.6,0c-2.3,1.8-6.5,3.7-10.7,4.6l-0.2-0.4
					c3.3-1.7,6.6-4.7,8.2-6.9L60.3,70.5z M64.3,52.4h-7.3v3.1h7.3V52.4z M64.3,59.2v-3.1h-7.3v3.1H64.3z M56.9,63h7.3v-3.1h-7.3V63z
					 M62,68.6c6.4,0.7,8.5,3.2,8.5,5c0,1.1-0.8,2-1.8,2c-0.4,0-0.8-0.1-1.2-0.4c-1.1-2.2-3.4-4.8-5.6-6.2L62,68.6z"/>
				
					<linearGradient id="SVGID_4_" gradientUnits="userSpaceOnUse" x1="-196.344" y1="105.2015" x2="337.9413" y2="504.821" gradientTransform="matrix(1 0 0 1 -41.501 -338.301)">
					<stop  offset="0" style="stop-color:#FAC859"/>
					<stop  offset="2.877487e-03" style="stop-color:#FACB64"/>
					<stop  offset="9.516122e-03" style="stop-color:#FBD176"/>
					<stop  offset="1.745736e-02" style="stop-color:#FCD582"/>
					<stop  offset="2.788930e-02" style="stop-color:#FCD78A"/>
					<stop  offset="5.042250e-02" style="stop-color:#FCD88C"/>
					<stop  offset="6.442444e-02" style="stop-color:#FCD681"/>
					<stop  offset="8.918270e-02" style="stop-color:#FBD163"/>
					<stop  offset="0.1216" style="stop-color:#FACA33"/>
					<stop  offset="0.1355" style="stop-color:#FAC61C"/>
					<stop  offset="0.1458" style="stop-color:#E6B417"/>
					<stop  offset="0.1638" style="stop-color:#C99B11"/>
					<stop  offset="0.184" style="stop-color:#B2860B"/>
					<stop  offset="0.207" style="stop-color:#9F7607"/>
					<stop  offset="0.2343" style="stop-color:#936A04"/>
					<stop  offset="0.2701" style="stop-color:#8B6402"/>
					<stop  offset="0.3475" style="stop-color:#896202"/>
					<stop  offset="0.6179" style="stop-color:#FAC859"/>
					<stop  offset="0.651" style="stop-color:#FACC64"/>
					<stop  offset="0.7093" style="stop-color:#FCD582"/>
					<stop  offset="0.7267" style="stop-color:#FCD88C"/>
					<stop  offset="0.7501" style="stop-color:#FCD481"/>
					<stop  offset="0.7914" style="stop-color:#FACB63"/>
					<stop  offset="0.8037" style="stop-color:#FAC859"/>
					<stop  offset="0.811" style="stop-color:#F2C153"/>
					<stop  offset="0.85" style="stop-color:#CC9F36"/>
					<stop  offset="0.8888" style="stop-color:#AF841F"/>
					<stop  offset="0.9271" style="stop-color:#9A710F"/>
					<stop  offset="0.9645" style="stop-color:#8D6605"/>
					<stop  offset="1" style="stop-color:#896202"/>
				</linearGradient>
				<path class="st2" d="M85.7,47.8l3.3,2.4c-0.3,0.5-0.7,0.6-1.6,0.6H72.9l-0.2-0.7h11.2L85.7,47.8z M83.9,52.4l3.2,2.3
					c-0.2,0.4-0.7,0.6-1.6,0.6H74.7l-0.2-0.7h7.6L83.9,52.4z M82.2,59l1.7-2.2l3.2,2.3c-0.2,0.4-0.7,0.6-1.6,0.6H74.7L74.5,59H82.2z
					 M82.5,63.7l1.4-1.8l3.8,2.7c-0.2,0.3-0.7,0.6-1.4,0.7v8.1c0,0-0.9,1-3.4,1v-2.4h-4.9v2.4c0,0-0.5,1.2-3.3,1.2V62.2l3.5,1.4
					H82.5z M86.9,45.8c-0.3,0.4-0.7,0.6-1.6,0.6H74.7l-0.2-0.7h7.3l1.7-2.3L86.9,45.8z M77.9,71.3h4.9v-6.9h-4.9V71.3z M101.8,53
					l3.5,2.8c-0.3,0.4-0.7,0.6-1.7,0.6h-5.8v17.7c0,0.4-1.5,1.3-3,1.3h-0.7v-19h-6.6l-0.2-0.7h6.8V43.2l5.2,0.5
					c-0.1,0.5-0.4,0.8-1.5,1v11.1h1.9L101.8,53z"/>
				
					<linearGradient id="SVGID_5_" gradientUnits="userSpaceOnUse" x1="-196.344" y1="105.2015" x2="337.9413" y2="504.821" gradientTransform="matrix(1 0 0 1 -41.501 -338.301)">
					<stop  offset="0" style="stop-color:#FAC859"/>
					<stop  offset="2.877487e-03" style="stop-color:#FACB64"/>
					<stop  offset="9.516122e-03" style="stop-color:#FBD176"/>
					<stop  offset="1.745736e-02" style="stop-color:#FCD582"/>
					<stop  offset="2.788930e-02" style="stop-color:#FCD78A"/>
					<stop  offset="5.042250e-02" style="stop-color:#FCD88C"/>
					<stop  offset="6.442444e-02" style="stop-color:#FCD681"/>
					<stop  offset="8.918270e-02" style="stop-color:#FBD163"/>
					<stop  offset="0.1216" style="stop-color:#FACA33"/>
					<stop  offset="0.1355" style="stop-color:#FAC61C"/>
					<stop  offset="0.1458" style="stop-color:#E6B417"/>
					<stop  offset="0.1638" style="stop-color:#C99B11"/>
					<stop  offset="0.184" style="stop-color:#B2860B"/>
					<stop  offset="0.207" style="stop-color:#9F7607"/>
					<stop  offset="0.2343" style="stop-color:#936A04"/>
					<stop  offset="0.2701" style="stop-color:#8B6402"/>
					<stop  offset="0.3475" style="stop-color:#896202"/>
					<stop  offset="0.6179" style="stop-color:#FAC859"/>
					<stop  offset="0.651" style="stop-color:#FACC64"/>
					<stop  offset="0.7093" style="stop-color:#FCD582"/>
					<stop  offset="0.7267" style="stop-color:#FCD88C"/>
					<stop  offset="0.7501" style="stop-color:#FCD481"/>
					<stop  offset="0.7914" style="stop-color:#FACB63"/>
					<stop  offset="0.8037" style="stop-color:#FAC859"/>
					<stop  offset="0.811" style="stop-color:#F2C153"/>
					<stop  offset="0.85" style="stop-color:#CC9F36"/>
					<stop  offset="0.8888" style="stop-color:#AF841F"/>
					<stop  offset="0.9271" style="stop-color:#9A710F"/>
					<stop  offset="0.9645" style="stop-color:#8D6605"/>
					<stop  offset="1" style="stop-color:#896202"/>
				</linearGradient>
				<path class="st3" d="M132.7,47.8c0,0.5-0.3,0.7-1.3,0.8v17.8c0,0.1-0.5,1-3.2,1V50c-0.2,0.2-0.6,0.2-1.2,0.2h-2.7v3.5
					c0,0.2-0.7,0.5-1.4,0.8l2.4,1.7c-0.2,0.4-0.7,0.6-1.5,0.6h-5.5v2.5h4l1.7-2.1l3.2,2.2c-0.3,0.5-0.7,0.6-1.6,0.6h-18.2l-0.2-0.7
					h7.9v-2.5h-6.3l-0.2-0.7h6.5v-2.5h-5.4l-0.2-0.7h5.6v-2.7h-7.7l-0.2-0.7h7.9v-2.6h-5.2l-0.2-0.7h5.4v-3.1l4.5,0.4
					c0,0.4-0.4,0.6-1.3,0.8v1.9h2.6l1.2-1.5l3.4,2.3c-0.2,0.2-0.6,0.4-1.1,0.6v2h0.4l1.3-1.9l2.2,1.7v-1.9L132.7,47.8z M127.3,71
					c-3.8,1-9.3,2.2-17.3,3.7c-0.2,0.4-0.6,0.7-1,0.7l-1.8-4.1c3.5,0,11.5-0.4,20-0.9L127.3,71z M124.6,69c0,0.2-1.7,0.9-2.7,0.9
					h-0.5v-1h-9.1v0.6c0,0.2-1,0.9-2.6,0.9h-0.5v-9.8l3.5,1.4h8.3l1.2-1.6l3.5,2.4c-0.2,0.2-0.7,0.5-1.2,0.6V69z M115.2,62.7h-2.9
					v2.4h2.9V62.7z M112.3,65.7v2.5h2.9v-2.5H112.3z M121.4,62.7h-3.2v2.4h3.2V62.7z M118.2,68.2h3.2v-2.5h-3.2V68.2z M118.3,46.9
					v2.6h2.9v-2.6H118.3z M121.2,52.9v-2.7h-2.9v2.7H121.2z M120.9,56l1.1-1.3h-0.7v-1.1h-2.9V56H120.9z M134.5,43.8l4.8,0.4
					c-0.1,0.5-0.2,0.8-1.5,1V71c0,2.4-0.6,4.1-4.5,4.5c0-2.4-0.9-3.1-3.6-3.4v-0.5h4.2c0.5,0,0.7-0.2,0.7-0.7V43.8z"/>
				
					<linearGradient id="SVGID_6_" gradientUnits="userSpaceOnUse" x1="-196.344" y1="105.2015" x2="337.9413" y2="504.821" gradientTransform="matrix(1 0 0 1 -41.501 -338.301)">
					<stop  offset="0" style="stop-color:#FAC859"/>
					<stop  offset="2.877487e-03" style="stop-color:#FACB64"/>
					<stop  offset="9.516122e-03" style="stop-color:#FBD176"/>
					<stop  offset="1.745736e-02" style="stop-color:#FCD582"/>
					<stop  offset="2.788930e-02" style="stop-color:#FCD78A"/>
					<stop  offset="5.042250e-02" style="stop-color:#FCD88C"/>
					<stop  offset="6.442444e-02" style="stop-color:#FCD681"/>
					<stop  offset="8.918270e-02" style="stop-color:#FBD163"/>
					<stop  offset="0.1216" style="stop-color:#FACA33"/>
					<stop  offset="0.1355" style="stop-color:#FAC61C"/>
					<stop  offset="0.1458" style="stop-color:#E6B417"/>
					<stop  offset="0.1638" style="stop-color:#C99B11"/>
					<stop  offset="0.184" style="stop-color:#B2860B"/>
					<stop  offset="0.207" style="stop-color:#9F7607"/>
					<stop  offset="0.2343" style="stop-color:#936A04"/>
					<stop  offset="0.2701" style="stop-color:#8B6402"/>
					<stop  offset="0.3475" style="stop-color:#896202"/>
					<stop  offset="0.6179" style="stop-color:#FAC859"/>
					<stop  offset="0.651" style="stop-color:#FACC64"/>
					<stop  offset="0.7093" style="stop-color:#FCD582"/>
					<stop  offset="0.7267" style="stop-color:#FCD88C"/>
					<stop  offset="0.7501" style="stop-color:#FCD481"/>
					<stop  offset="0.7914" style="stop-color:#FACB63"/>
					<stop  offset="0.8037" style="stop-color:#FAC859"/>
					<stop  offset="0.811" style="stop-color:#F2C153"/>
					<stop  offset="0.85" style="stop-color:#CC9F36"/>
					<stop  offset="0.8888" style="stop-color:#AF841F"/>
					<stop  offset="0.9271" style="stop-color:#9A710F"/>
					<stop  offset="0.9645" style="stop-color:#8D6605"/>
					<stop  offset="1" style="stop-color:#896202"/>
				</linearGradient>
				<path class="st4" d="M142.6,75.7c1.3-0.6,2.3-1.8,2.7-3.4c-0.2,0.1-0.5,0.1-0.7,0.1c-1.4,0-2.5-1.2-2.5-2.6
					c0-1.5,1.2-2.7,2.6-2.7c1.5,0,2.9,1.2,2.9,3.2c0,2.4-1.7,5.2-4.4,6.1L142.6,75.7z"/>
				
					<linearGradient id="SVGID_7_" gradientUnits="userSpaceOnUse" x1="-196.344" y1="105.2015" x2="337.9413" y2="504.821" gradientTransform="matrix(1 0 0 1 -41.501 -338.301)">
					<stop  offset="0" style="stop-color:#FAC859"/>
					<stop  offset="2.877487e-03" style="stop-color:#FACB64"/>
					<stop  offset="9.516122e-03" style="stop-color:#FBD176"/>
					<stop  offset="1.745736e-02" style="stop-color:#FCD582"/>
					<stop  offset="2.788930e-02" style="stop-color:#FCD78A"/>
					<stop  offset="5.042250e-02" style="stop-color:#FCD88C"/>
					<stop  offset="6.442444e-02" style="stop-color:#FCD681"/>
					<stop  offset="8.918270e-02" style="stop-color:#FBD163"/>
					<stop  offset="0.1216" style="stop-color:#FACA33"/>
					<stop  offset="0.1355" style="stop-color:#FAC61C"/>
					<stop  offset="0.1458" style="stop-color:#E6B417"/>
					<stop  offset="0.1638" style="stop-color:#C99B11"/>
					<stop  offset="0.184" style="stop-color:#B2860B"/>
					<stop  offset="0.207" style="stop-color:#9F7607"/>
					<stop  offset="0.2343" style="stop-color:#936A04"/>
					<stop  offset="0.2701" style="stop-color:#8B6402"/>
					<stop  offset="0.3475" style="stop-color:#896202"/>
					<stop  offset="0.6179" style="stop-color:#FAC859"/>
					<stop  offset="0.651" style="stop-color:#FACC64"/>
					<stop  offset="0.7093" style="stop-color:#FCD582"/>
					<stop  offset="0.7267" style="stop-color:#FCD88C"/>
					<stop  offset="0.7501" style="stop-color:#FCD481"/>
					<stop  offset="0.7914" style="stop-color:#FACB63"/>
					<stop  offset="0.8037" style="stop-color:#FAC859"/>
					<stop  offset="0.811" style="stop-color:#F2C153"/>
					<stop  offset="0.85" style="stop-color:#CC9F36"/>
					<stop  offset="0.8888" style="stop-color:#AF841F"/>
					<stop  offset="0.9271" style="stop-color:#9A710F"/>
					<stop  offset="0.9645" style="stop-color:#8D6605"/>
					<stop  offset="1" style="stop-color:#896202"/>
				</linearGradient>
				<path class="st5" d="M187.2,47.6l4,2.9c-0.2,0.4-0.7,0.6-1.7,0.6H159l-0.2-0.7h19c1.1-2.2,2.2-5.2,2.9-7.3l5.2,1.9
					c-0.1,0.3-0.4,0.4-0.9,0.4c-0.1,0-0.3,0-0.5,0c-1.4,1.5-3.8,3.4-5.9,5h6.3L187.2,47.6z M169.8,55.4l1.4-1.9l3.8,2.8
					c-0.2,0.3-0.7,0.6-1.4,0.7v14.5c0,2.1-0.4,3.7-4.2,4.1c0-2.2-0.5-3-2.5-3.3v-0.4h2.8c0.3,0,0.4-0.1,0.4-0.5v-4.9h-4.9v7.7
					c0,0.1-0.5,1.3-3.4,1.3V53.8l3.6,1.5H169.8z M165.4,43.2c4.6,1.1,6.1,3.1,6.1,4.7c0,1.3-1,2.3-2.1,2.3c-0.6,0-1.1-0.2-1.7-0.8
					c-0.1-2-1.2-4.5-2.6-5.9L165.4,43.2z M170.2,56h-4.9v4.4h4.9V56z M165.3,65.8h4.9v-4.7h-4.9V65.8z M181.9,55.3
					c0,0.5-0.3,0.8-1.4,0.9v12.7c0,0.1-0.6,0.9-3.4,0.9V54.9L181.9,55.3z M183.8,71.7c0.5,0,0.7-0.2,0.7-0.6V53.6l4.9,0.3
					c0,0.5-0.2,0.7-1.4,0.9v16.3c0,2.4-0.6,4.1-4.8,4.5c0-2.6-1.3-3.1-3.9-3.3v-0.5H183.8z"/>
				
					<linearGradient id="SVGID_8_" gradientUnits="userSpaceOnUse" x1="-196.344" y1="105.2015" x2="337.9413" y2="504.821" gradientTransform="matrix(1 0 0 1 -41.501 -338.301)">
					<stop  offset="0" style="stop-color:#FAC859"/>
					<stop  offset="2.877487e-03" style="stop-color:#FACB64"/>
					<stop  offset="9.516122e-03" style="stop-color:#FBD176"/>
					<stop  offset="1.745736e-02" style="stop-color:#FCD582"/>
					<stop  offset="2.788930e-02" style="stop-color:#FCD78A"/>
					<stop  offset="5.042250e-02" style="stop-color:#FCD88C"/>
					<stop  offset="6.442444e-02" style="stop-color:#FCD681"/>
					<stop  offset="8.918270e-02" style="stop-color:#FBD163"/>
					<stop  offset="0.1216" style="stop-color:#FACA33"/>
					<stop  offset="0.1355" style="stop-color:#FAC61C"/>
					<stop  offset="0.1458" style="stop-color:#E6B417"/>
					<stop  offset="0.1638" style="stop-color:#C99B11"/>
					<stop  offset="0.184" style="stop-color:#B2860B"/>
					<stop  offset="0.207" style="stop-color:#9F7607"/>
					<stop  offset="0.2343" style="stop-color:#936A04"/>
					<stop  offset="0.2701" style="stop-color:#8B6402"/>
					<stop  offset="0.3475" style="stop-color:#896202"/>
					<stop  offset="0.6179" style="stop-color:#FAC859"/>
					<stop  offset="0.651" style="stop-color:#FACC64"/>
					<stop  offset="0.7093" style="stop-color:#FCD582"/>
					<stop  offset="0.7267" style="stop-color:#FCD88C"/>
					<stop  offset="0.7501" style="stop-color:#FCD481"/>
					<stop  offset="0.7914" style="stop-color:#FACB63"/>
					<stop  offset="0.8037" style="stop-color:#FAC859"/>
					<stop  offset="0.811" style="stop-color:#F2C153"/>
					<stop  offset="0.85" style="stop-color:#CC9F36"/>
					<stop  offset="0.8888" style="stop-color:#AF841F"/>
					<stop  offset="0.9271" style="stop-color:#9A710F"/>
					<stop  offset="0.9645" style="stop-color:#8D6605"/>
					<stop  offset="1" style="stop-color:#896202"/>
				</linearGradient>
				<path class="st6" d="M222.1,54.2l3.5,2.5c-0.2,0.4-0.7,0.6-1.6,0.6h-30.5l-0.2-0.7h14.2v-3.4H202v0.4c0,0.1-0.5,1.3-3.7,1.3
					V43.7l3.9,1.5h14.3l1.4-1.9l4,2.8c-0.2,0.3-0.7,0.6-1.4,0.7v6.9c0,0-1.1,0.9-3.7,0.9v-1.3h-5.4v0l1.1,0.1
					c-0.1,0.4-0.4,0.7-1.3,0.8v2.5h9L222.1,54.2z M216.4,66h-5.1v5.3c0,2.4-0.6,4-4.7,4.2c0-2.5-1-3-3.4-3.3v-0.4h3.9
					c0.4,0,0.5-0.2,0.5-0.6V66h-5c0,0.4,0,0.7-1,1.1l4.1,2.3c-0.1,0.2-0.3,0.4-0.8,0.4c-0.2,0-0.3,0-0.6-0.1
					c-2.3,2.1-6.4,4.1-10.7,5.1l-0.2-0.5c3.3-1.8,6.4-4.7,8-7.2c-0.9,0.4-1.5,0.4-2.4,0.4v-8.9l3.9,1.5H216l1.4-1.9l4.1,2.8
					c-0.2,0.3-0.7,0.6-1.4,0.7v4.5c0,0-1.1,0.8-3.7,0.8V66z M216.8,45.9H202v3h14.8V45.9z M202,49.6v3h14.8v-3H202z M202.6,65.3
					h13.7v-4.4h-13.7V65.3z M214,68.1c7.7,0.3,10.2,3,10.2,4.9c0,1.1-0.8,1.9-1.8,1.9c-0.3,0-0.7-0.1-1.1-0.3
					c-1-1.6-3.7-4.2-7.4-6.1L214,68.1z"/>
				
					<linearGradient id="SVGID_9_" gradientUnits="userSpaceOnUse" x1="-196.344" y1="105.2015" x2="337.9413" y2="504.821" gradientTransform="matrix(1 0 0 1 -41.501 -338.301)">
					<stop  offset="0" style="stop-color:#FAC859"/>
					<stop  offset="2.877487e-03" style="stop-color:#FACB64"/>
					<stop  offset="9.516122e-03" style="stop-color:#FBD176"/>
					<stop  offset="1.745736e-02" style="stop-color:#FCD582"/>
					<stop  offset="2.788930e-02" style="stop-color:#FCD78A"/>
					<stop  offset="5.042250e-02" style="stop-color:#FCD88C"/>
					<stop  offset="6.442444e-02" style="stop-color:#FCD681"/>
					<stop  offset="8.918270e-02" style="stop-color:#FBD163"/>
					<stop  offset="0.1216" style="stop-color:#FACA33"/>
					<stop  offset="0.1355" style="stop-color:#FAC61C"/>
					<stop  offset="0.1458" style="stop-color:#E6B417"/>
					<stop  offset="0.1638" style="stop-color:#C99B11"/>
					<stop  offset="0.184" style="stop-color:#B2860B"/>
					<stop  offset="0.207" style="stop-color:#9F7607"/>
					<stop  offset="0.2343" style="stop-color:#936A04"/>
					<stop  offset="0.2701" style="stop-color:#8B6402"/>
					<stop  offset="0.3475" style="stop-color:#896202"/>
					<stop  offset="0.6179" style="stop-color:#FAC859"/>
					<stop  offset="0.651" style="stop-color:#FACC64"/>
					<stop  offset="0.7093" style="stop-color:#FCD582"/>
					<stop  offset="0.7267" style="stop-color:#FCD88C"/>
					<stop  offset="0.7501" style="stop-color:#FCD481"/>
					<stop  offset="0.7914" style="stop-color:#FACB63"/>
					<stop  offset="0.8037" style="stop-color:#FAC859"/>
					<stop  offset="0.811" style="stop-color:#F2C153"/>
					<stop  offset="0.85" style="stop-color:#CC9F36"/>
					<stop  offset="0.8888" style="stop-color:#AF841F"/>
					<stop  offset="0.9271" style="stop-color:#9A710F"/>
					<stop  offset="0.9645" style="stop-color:#8D6605"/>
					<stop  offset="1" style="stop-color:#896202"/>
				</linearGradient>
				<path class="st7" d="M260.3,56.8c-0.3,0.4-0.7,0.6-1.7,0.6h-4.2v7.5h0.3l1.8-2.8l3.3,2.8c-0.3,0.4-0.7,0.6-1.7,0.6h-29.7
					l-0.2-0.7h4.9v-7.5h-5.3l-0.2-0.7h5.5v-5.4c-1.5,1.3-3.1,2.4-4.7,3.3l-0.3-0.3c2.2-2.4,4.8-6.8,6.3-11.3l4.9,2.2
					c-0.2,0.4-0.6,0.6-1.4,0.5c-0.6,0.9-1.2,1.8-1.9,2.6l0.6,0.2h16.3l2-2.7l3.7,2.8c-0.3,0.4-0.7,0.6-1.7,0.6h-2.4v7.4h0.6l1.9-2.6
					L260.3,56.8z M234.2,67c0.2,1,0.4,1.9,0.4,2.8c0,3.5-2.2,5.7-4.4,5.7c-1.1,0-2-0.5-2-1.5c0-0.8,0.7-1.5,1.4-1.9
					c1.8-0.6,3.8-2.5,4-5H234.2z M236.3,49.3v7.4h2.7v-7.4H236.3z M236.3,57.4v7.5h2.7v-7.5H236.3z M238.4,67.4
					c2.4,1.8,3.3,3.5,3.3,5c0,1.6-1.1,2.7-2.2,2.7c-0.6,0-1.2-0.3-1.6-1.1c0.3-1,0.4-2.2,0.4-3.4s-0.1-2.2-0.4-3.1L238.4,67.4z
					 M245.1,49.3h-2.9v7.4h2.9V49.3z M245.1,57.4h-2.9v7.5h2.9V57.4z M244.4,67.3c4.1,1.7,5.4,3.9,5.4,5.5c0,1.3-0.9,2.3-1.9,2.3
					c-0.5,0-1-0.2-1.5-0.8c0.1-2.2-1-5.1-2.3-6.9L244.4,67.3z M251.1,49.3h-2.8v7.4h2.8V49.3z M251.1,64.9v-7.5h-2.8v7.5H251.1z
					 M251.1,66.9c6.5,1.4,8.5,4.3,8.5,6.4c0,1.3-0.8,2.2-1.9,2.2c-0.4,0-0.9-0.2-1.4-0.6c-0.8-2.7-3.1-6-5.5-7.8L251.1,66.9z"/>
				
					<linearGradient id="SVGID_10_" gradientUnits="userSpaceOnUse" x1="-196.344" y1="105.2015" x2="337.9413" y2="504.821" gradientTransform="matrix(1 0 0 1 -41.501 -338.301)">
					<stop  offset="0" style="stop-color:#FAC859"/>
					<stop  offset="2.877487e-03" style="stop-color:#FACB64"/>
					<stop  offset="9.516122e-03" style="stop-color:#FBD176"/>
					<stop  offset="1.745736e-02" style="stop-color:#FCD582"/>
					<stop  offset="2.788930e-02" style="stop-color:#FCD78A"/>
					<stop  offset="5.042250e-02" style="stop-color:#FCD88C"/>
					<stop  offset="6.442444e-02" style="stop-color:#FCD681"/>
					<stop  offset="8.918270e-02" style="stop-color:#FBD163"/>
					<stop  offset="0.1216" style="stop-color:#FACA33"/>
					<stop  offset="0.1355" style="stop-color:#FAC61C"/>
					<stop  offset="0.1458" style="stop-color:#E6B417"/>
					<stop  offset="0.1638" style="stop-color:#C99B11"/>
					<stop  offset="0.184" style="stop-color:#B2860B"/>
					<stop  offset="0.207" style="stop-color:#9F7607"/>
					<stop  offset="0.2343" style="stop-color:#936A04"/>
					<stop  offset="0.2701" style="stop-color:#8B6402"/>
					<stop  offset="0.3475" style="stop-color:#896202"/>
					<stop  offset="0.6179" style="stop-color:#FAC859"/>
					<stop  offset="0.651" style="stop-color:#FACC64"/>
					<stop  offset="0.7093" style="stop-color:#FCD582"/>
					<stop  offset="0.7267" style="stop-color:#FCD88C"/>
					<stop  offset="0.7501" style="stop-color:#FCD481"/>
					<stop  offset="0.7914" style="stop-color:#FACB63"/>
					<stop  offset="0.8037" style="stop-color:#FAC859"/>
					<stop  offset="0.811" style="stop-color:#F2C153"/>
					<stop  offset="0.85" style="stop-color:#CC9F36"/>
					<stop  offset="0.8888" style="stop-color:#AF841F"/>
					<stop  offset="0.9271" style="stop-color:#9A710F"/>
					<stop  offset="0.9645" style="stop-color:#8D6605"/>
					<stop  offset="1" style="stop-color:#896202"/>
				</linearGradient>
				<path class="st8" d="M272.4,43.5l3.4,3.5c-0.3,0.3-0.8,0.4-1.5,0.4c-1.2,2-3.5,5.7-5,7.8c4,2.4,5.9,5,5.9,8
					c0,3.3-1.3,5.3-5.4,5.7c0-2.2-0.5-2.7-2.2-3v-0.4h2.5c1,0,1.6-0.8,1.6-2.5c0-2.6-0.9-5.2-3.1-7.5c0.6-2.2,1.7-6.5,2.2-9.2h-3.7
					v28.1c0,0.3-1.1,1.2-2.8,1.2h-0.6V44.1l3.9,1.5h2.9L272.4,43.5z M283.8,58.6c0.6,2.8,1.4,5.1,2.6,7c1.3-1.2,2.8-3.1,4.1-4.8
					l3.8,2.9c-0.2,0.2-0.4,0.3-0.7,0.3c-0.2,0-0.5-0.1-0.8-0.2c-2,1-4.1,1.9-5.9,2.5c1.9,2.7,4.6,4.5,7.8,5.9l-0.1,0.3
					c-1.5,0.2-2.7,1.3-3.3,3.1c-2-1.4-3.5-3-4.8-5c-2.4,1.1-5.7,2.4-10.5,4.2c-0.2,0.4-0.6,0.7-1,0.8l-2-4.4c0.8,0,2-0.1,3.5-0.3V44
					l4,1.5h7.3l1.5-1.9l4,2.8c-0.2,0.3-0.7,0.6-1.4,0.8v12.5c0,0-1.1,0.9-3.6,0.9v-2H283.8z M288.2,46.2h-8.1v5.4h8.1V46.2z
					 M280.1,57.9h8.1v-5.5h-8.1V57.9z M280.1,58.6v12c1.9-0.2,3.9-0.4,6-0.6c-1.5-2.9-2.4-6.4-3-11.4H280.1z"/>
				
					<linearGradient id="SVGID_11_" gradientUnits="userSpaceOnUse" x1="-196.344" y1="105.2015" x2="337.9413" y2="504.821" gradientTransform="matrix(1 0 0 1 -41.501 -338.301)">
					<stop  offset="0" style="stop-color:#FAC859"/>
					<stop  offset="2.877487e-03" style="stop-color:#FACB64"/>
					<stop  offset="9.516122e-03" style="stop-color:#FBD176"/>
					<stop  offset="1.745736e-02" style="stop-color:#FCD582"/>
					<stop  offset="2.788930e-02" style="stop-color:#FCD78A"/>
					<stop  offset="5.042250e-02" style="stop-color:#FCD88C"/>
					<stop  offset="6.442444e-02" style="stop-color:#FCD681"/>
					<stop  offset="8.918270e-02" style="stop-color:#FBD163"/>
					<stop  offset="0.1216" style="stop-color:#FACA33"/>
					<stop  offset="0.1355" style="stop-color:#FAC61C"/>
					<stop  offset="0.1458" style="stop-color:#E6B417"/>
					<stop  offset="0.1638" style="stop-color:#C99B11"/>
					<stop  offset="0.184" style="stop-color:#B2860B"/>
					<stop  offset="0.207" style="stop-color:#9F7607"/>
					<stop  offset="0.2343" style="stop-color:#936A04"/>
					<stop  offset="0.2701" style="stop-color:#8B6402"/>
					<stop  offset="0.3475" style="stop-color:#896202"/>
					<stop  offset="0.6179" style="stop-color:#FAC859"/>
					<stop  offset="0.651" style="stop-color:#FACC64"/>
					<stop  offset="0.7093" style="stop-color:#FCD582"/>
					<stop  offset="0.7267" style="stop-color:#FCD88C"/>
					<stop  offset="0.7501" style="stop-color:#FCD481"/>
					<stop  offset="0.7914" style="stop-color:#FACB63"/>
					<stop  offset="0.8037" style="stop-color:#FAC859"/>
					<stop  offset="0.811" style="stop-color:#F2C153"/>
					<stop  offset="0.85" style="stop-color:#CC9F36"/>
					<stop  offset="0.8888" style="stop-color:#AF841F"/>
					<stop  offset="0.9271" style="stop-color:#9A710F"/>
					<stop  offset="0.9645" style="stop-color:#8D6605"/>
					<stop  offset="1" style="stop-color:#896202"/>
				</linearGradient>
				<path class="st9" d="M306,70.4c0,1.4-1.2,2.6-2.6,2.6s-2.6-1.2-2.6-2.6c0-1.4,1.2-2.6,2.6-2.6C304.9,67.8,306,69,306,70.4z
					 M302.9,65.6c-0.3-2.7-1.9-16.5-1.9-17.2c0-1.2,0.7-2.2,2.5-2.2c1.8,0,2.5,1,2.5,2.2c0,0.6-1.6,14.4-1.9,17.2H302.9z"/>
			</g>
		</g>
	</g>
	<g>
		<path class="st10" d="M9.2,9.2c0,1.6,0,2.9,0.1,3.5c0,0.5,0.1,0.8,0.6,0.9c0.2,0,0.6,0.1,0.7,0.1c0.1,0,0.1,0,0.1,0.1
			c0,0.1-0.1,0.1-0.3,0.1c-0.9,0-1.9,0-2,0c-0.1,0-1.1,0-1.6,0c-0.2,0-0.3,0-0.3-0.1c0,0,0-0.1,0.1-0.1c0.1,0,0.3,0,0.5-0.1
			c0.3-0.1,0.4-0.4,0.5-0.9c0.1-0.7,0.1-2,0.1-3.5V2.2l-2.4,0c-1,0-1.4,0.1-1.7,0.5C3.6,3.1,3.6,3.2,3.5,3.3c0,0.1-0.1,0.2-0.2,0.2
			c0,0-0.1,0-0.1-0.1c0-0.2,0.3-1.6,0.4-1.7c0-0.1,0.1-0.3,0.2-0.3c0.1,0,0.3,0.2,0.7,0.2c0.5,0,1.1,0.1,1.3,0.1h6.1
			c0.5,0,0.9,0,1.2-0.1c0.2,0,0.4-0.1,0.5-0.1c0.1,0,0.1,0.1,0.1,0.2c0,0.5,0,1.6,0,1.8c0,0.1,0,0.2-0.1,0.2c-0.1,0-0.1,0-0.1-0.3
			l0-0.2c0-0.5-0.4-0.9-2-0.9l-2.1,0V9.2z"/>
		<path class="st10" d="M31.7,9.9c0,1.3,0,2.4,0.1,3c0,0.4,0.1,0.7,0.5,0.7c0.2,0,0.5,0.1,0.6,0.1c0.1,0,0.1,0.1,0.1,0.1
			c0,0.1-0.1,0.1-0.2,0.1c-0.8,0-1.7,0-1.8,0c-0.1,0-1,0-1.4,0c-0.2,0-0.2,0-0.2-0.1c0,0,0-0.1,0.1-0.1c0.1,0,0.3,0,0.4-0.1
			c0.3-0.1,0.3-0.3,0.4-0.8c0.1-0.6,0.1-1.6,0.1-3V8.5c0-0.1,0-0.1-0.1-0.1h-6c0,0-0.1,0-0.1,0.1v1.4c0,1.3,0,2.4,0.1,3
			c0,0.4,0.1,0.7,0.5,0.7c0.2,0,0.5,0.1,0.7,0.1c0.1,0,0.1,0.1,0.1,0.1c0,0.1-0.1,0.1-0.2,0.1c-0.8,0-1.7,0-1.8,0c-0.1,0-1,0-1.4,0
			c-0.1,0-0.2,0-0.2-0.1c0,0,0-0.1,0.1-0.1c0.1,0,0.3,0,0.4-0.1c0.3-0.1,0.3-0.3,0.4-0.7c0.1-0.6,0.1-1.7,0.1-3V7.4c0-2.2,0-2.6,0-3
			c0-0.5-0.1-0.7-0.6-0.8c-0.1,0-0.4,0-0.5,0c0,0-0.1-0.1-0.1-0.1c0-0.1,0.1-0.1,0.2-0.1c0.7,0,1.6,0,1.7,0c0.1,0,1,0,1.4,0
			c0.2,0,0.2,0,0.2,0.1c0,0-0.1,0.1-0.1,0.1c-0.1,0-0.2,0-0.4,0c-0.4,0.1-0.5,0.3-0.5,0.8c0,0.4,0,0.9,0,3v0.3c0,0.1,0,0.1,0.1,0.1
			h6c0,0,0.1,0,0.1-0.1V7.4c0-2.2,0-2.6,0-3c0-0.5-0.1-0.7-0.6-0.8c-0.1,0-0.4,0-0.5,0c-0.1,0-0.1-0.1-0.1-0.1
			c0-0.1,0.1-0.1,0.2-0.1c0.6,0,1.6,0,1.6,0c0.1,0,1,0,1.4,0c0.2,0,0.2,0,0.2,0.1c0,0-0.1,0.1-0.1,0.1c-0.1,0-0.2,0-0.4,0
			c-0.4,0.1-0.5,0.3-0.5,0.8c0,0.4,0,0.8,0,3V9.9z"/>
		<path class="st10" d="M43,7.4c0-2.2,0-2.6,0-3c0-0.5-0.1-0.7-0.6-0.8c-0.1,0-0.4,0-0.5,0c0,0-0.1-0.1-0.1-0.1
			c0-0.1,0.1-0.1,0.2-0.1c0.7,0,1.6,0,1.7,0c0.1,0,3.1,0,3.4,0c0.3,0,0.5-0.1,0.7-0.1c0.1,0,0.1-0.1,0.2-0.1c0,0,0.1,0.1,0.1,0.1
			c0,0.1-0.1,0.3-0.1,0.7c0,0.1,0,0.8-0.1,0.9c0,0.1-0.1,0.1-0.1,0.1c-0.1,0-0.1-0.1-0.1-0.2c0-0.1,0-0.3-0.1-0.5
			c-0.1-0.2-0.2-0.3-1-0.4c-0.2,0-1.9,0-2.1,0c-0.1,0-0.1,0-0.1,0.1v3.8c0,0.1,0,0.1,0.1,0.1c0.2,0,2.1,0,2.4,0c0.3,0,0.6,0,0.7-0.2
			c0.1-0.1,0.2-0.2,0.2-0.2c0,0,0.1,0,0.1,0.1c0,0.1-0.1,0.3-0.1,0.8c0,0.3-0.1,0.8-0.1,0.9c0,0.1,0,0.3-0.1,0.3
			c-0.1,0-0.1,0-0.1-0.1c0-0.1,0-0.3-0.1-0.5c0-0.2-0.2-0.4-0.7-0.4c-0.4,0-1.9-0.1-2.2-0.1c-0.1,0-0.1,0-0.1,0.1v1.2
			c0,0.5,0,2.1,0,2.4c0,0.9,0.3,1.1,1.7,1.1c0.4,0,1.1,0,1.4-0.1c0.4-0.2,0.6-0.4,0.7-1c0-0.2,0.1-0.2,0.1-0.2
			c0.1,0,0.1,0.1,0.1,0.2c0,0.1-0.1,1-0.2,1.3c-0.1,0.4-0.2,0.4-0.8,0.4c-1.1,0-1.9,0-2.5,0c-0.6,0-1,0-1.2,0c0,0-0.3,0-0.6,0
			c-0.3,0-0.6,0-0.8,0c-0.1,0-0.2,0-0.2-0.1c0,0,0-0.1,0.1-0.1c0.1,0,0.3,0,0.4-0.1c0.3,0,0.3-0.3,0.4-0.7c0.1-0.6,0.1-1.7,0.1-3
			V7.4z"/>
		<path class="st10" d="M70.8,6.3c0-2.6,0-3,0-3.5c0-0.6-0.2-0.8-0.7-0.9c-0.1,0-0.4,0-0.6,0c-0.1,0-0.1,0-0.1-0.1
			c0-0.1,0.1-0.1,0.3-0.1c0.4,0,0.8,0,1.2,0l0.7,0c0.1,0,3.4,0,3.7,0c0.3,0,0.6,0,0.7-0.1c0.1,0,0.1-0.1,0.2-0.1
			c0,0,0.1,0.1,0.1,0.1c0,0.1-0.1,0.3-0.1,0.8c0,0.2,0,0.9-0.1,1.1c0,0.1,0,0.2-0.1,0.2c-0.1,0-0.1-0.1-0.1-0.2c0-0.1,0-0.4-0.1-0.6
			c-0.1-0.3-0.3-0.5-1.2-0.6c-0.3,0-2.1,0-2.2,0c-0.1,0-0.1,0-0.1,0.2v4.5c0,0.1,0,0.2,0.1,0.2c0.2,0,2.2,0,2.6,0
			c0.4,0,0.6-0.1,0.8-0.2c0.1-0.1,0.2-0.2,0.2-0.2c0,0,0.1,0,0.1,0.1c0,0.1-0.1,0.4-0.1,0.9c0,0.3-0.1,0.9-0.1,1
			c0,0.1,0,0.3-0.1,0.3c-0.1,0-0.1-0.1-0.1-0.1c0-0.2,0-0.3-0.1-0.5c-0.1-0.2-0.2-0.5-0.9-0.6c-0.4,0-2.1-0.1-2.3-0.1
			c-0.1,0-0.1,0-0.1,0.1v1.4c0,0.6,0,2.5,0,2.8c0,1.1,0.3,1.3,1.9,1.3c0.4,0,1.1,0,1.6-0.2c0.4-0.2,0.6-0.5,0.7-1.2
			c0-0.2,0.1-0.2,0.1-0.2c0.1,0,0.1,0.1,0.1,0.2c0,0.1-0.1,1.2-0.2,1.6C76.3,14,76.1,14,75.5,14c-1.2,0-2.1,0-2.8,0
			c-0.6,0-1,0-1.3,0c0,0-0.3,0-0.7,0c-0.3,0-0.7,0-0.9,0c-0.2,0-0.3,0-0.3-0.1c0,0,0-0.1,0.1-0.1c0.1,0,0.3,0,0.5-0.1
			c0.3-0.1,0.4-0.4,0.5-0.9c0.1-0.7,0.1-2,0.1-3.5V6.3z"/>
		<path class="st10" d="M88.2,9.9c0,2,0,2.9,0.3,3.1c0.2,0.2,0.8,0.3,1.9,0.3c0.8,0,1.4,0,1.7-0.4c0.2-0.2,0.3-0.5,0.3-0.8
			c0-0.1,0.1-0.2,0.1-0.2c0.1,0,0.1,0.1,0.1,0.2s-0.1,1-0.2,1.4c-0.1,0.3-0.1,0.4-0.9,0.4c-1,0-1.8,0-2.5,0c-0.7,0-1.1,0-1.6,0
			c-0.1,0-0.3,0-0.6,0c-0.3,0-0.6,0-0.8,0c-0.1,0-0.2,0-0.2-0.1c0,0,0-0.1,0.1-0.1c0.1,0,0.3,0,0.4-0.1c0.3-0.1,0.3-0.3,0.4-0.7
			c0.1-0.6,0.1-1.7,0.1-3V7.4c0-2.2,0-2.6,0-3c0-0.5-0.1-0.7-0.6-0.8c-0.1,0-0.4,0-0.5,0c0,0-0.1-0.1-0.1-0.1c0-0.1,0.1-0.1,0.2-0.1
			c0.7,0,1.6,0,1.6,0c0.1,0,1.1,0,1.6,0c0.1,0,0.2,0,0.2,0.1c0,0-0.1,0.1-0.1,0.1c-0.1,0-0.3,0-0.5,0c-0.4,0.1-0.5,0.3-0.5,0.8
			c0,0.4,0,0.8,0,3V9.9z"/>
		<path class="st10" d="M103.5,9.9c0,1.3,0,2.4,0.1,3c0,0.4,0.1,0.7,0.5,0.7c0.2,0,0.5,0.1,0.7,0.1c0.1,0,0.1,0.1,0.1,0.1
			c0,0.1-0.1,0.1-0.2,0.1c-0.8,0-1.7,0-1.8,0c-0.1,0-1,0-1.4,0c-0.1,0-0.2,0-0.2-0.1c0,0,0-0.1,0.1-0.1c0.1,0,0.3,0,0.4-0.1
			c0.3-0.1,0.3-0.3,0.4-0.7c0.1-0.6,0.1-1.7,0.1-3V7.4c0-2.2,0-2.6,0-3c0-0.5-0.1-0.7-0.5-0.8c-0.2,0-0.3,0-0.4,0
			c-0.1,0-0.1-0.1-0.1-0.1c0-0.1,0.1-0.1,0.2-0.1c0.5,0,1.4,0,1.5,0c0.1,0,1,0,1.4,0c0.2,0,0.2,0,0.2,0.1c0,0-0.1,0.1-0.1,0.1
			c-0.1,0-0.2,0-0.4,0c-0.4,0.1-0.5,0.3-0.5,0.8c0,0.4,0,0.8,0,3V9.9z"/>
		<path class="st10" d="M118.3,9.9c0,1.3,0,2.4,0.1,3c0,0.4,0.1,0.7,0.6,0.7c0.2,0,0.5,0.1,0.7,0.1c0.1,0,0.1,0.1,0.1,0.1
			c0,0.1-0.1,0.1-0.2,0.1c-0.8,0-1.7,0-1.8,0c-0.1,0-1.1,0-1.5,0c-0.2,0-0.2,0-0.2-0.1c0,0,0-0.1,0.1-0.1c0.1,0,0.3,0,0.4-0.1
			c0.3-0.1,0.4-0.3,0.4-0.8c0.1-0.6,0.1-1.7,0.1-3V4l-2.1,0c-0.9,0-1.2,0.1-1.5,0.4c-0.2,0.2-0.2,0.3-0.2,0.4c0,0.1-0.1,0.1-0.1,0.1
			c0,0-0.1,0-0.1-0.1c0-0.1,0.3-1.4,0.3-1.5c0-0.1,0.1-0.3,0.1-0.3c0.1,0,0.2,0.1,0.6,0.2c0.4,0,1,0.1,1.1,0.1h5.4
			c0.5,0,0.8,0,1-0.1c0.2,0,0.3-0.1,0.4-0.1s0.1,0.1,0.1,0.2c0,0.4,0,1.4,0,1.6c0,0.1-0.1,0.2-0.1,0.2s-0.1,0-0.1-0.2l0-0.1
			c0-0.4-0.4-0.7-1.7-0.8l-1.8,0V9.9z"/>
		<path class="st10" d="M131.6,7.4c0-2.2,0-2.6,0-3c0-0.5-0.1-0.7-0.6-0.8c-0.1,0-0.4,0-0.5,0c0,0-0.1-0.1-0.1-0.1
			c0-0.1,0.1-0.1,0.2-0.1c0.7,0,1.6,0,1.7,0c0.1,0,3.1,0,3.4,0c0.3,0,0.5-0.1,0.7-0.1c0.1,0,0.1-0.1,0.2-0.1c0,0,0.1,0.1,0.1,0.1
			c0,0.1-0.1,0.3-0.1,0.7c0,0.1,0,0.8-0.1,0.9c0,0.1-0.1,0.1-0.1,0.1c-0.1,0-0.1-0.1-0.1-0.2c0-0.1,0-0.3-0.1-0.5
			c-0.1-0.2-0.2-0.3-1-0.4c-0.2,0-1.9,0-2.1,0c-0.1,0-0.1,0-0.1,0.1v3.8c0,0.1,0,0.1,0.1,0.1c0.2,0,2.1,0,2.4,0c0.3,0,0.6,0,0.7-0.2
			c0.1-0.1,0.2-0.2,0.2-0.2s0.1,0,0.1,0.1c0,0.1-0.1,0.3-0.1,0.8c0,0.3-0.1,0.8-0.1,0.9c0,0.1,0,0.3-0.1,0.3c-0.1,0-0.1,0-0.1-0.1
			c0-0.1,0-0.3-0.1-0.5c0-0.2-0.2-0.4-0.7-0.4c-0.4,0-1.9-0.1-2.2-0.1c-0.1,0-0.1,0-0.1,0.1v1.2c0,0.5,0,2.1,0,2.4
			c0,0.9,0.3,1.1,1.7,1.1c0.4,0,1.1,0,1.4-0.1c0.4-0.2,0.6-0.4,0.7-1c0-0.2,0.1-0.2,0.1-0.2c0.1,0,0.1,0.1,0.1,0.2
			c0,0.1-0.1,1-0.2,1.3c-0.1,0.4-0.2,0.4-0.8,0.4c-1.1,0-1.9,0-2.5,0c-0.6,0-1,0-1.2,0c0,0-0.3,0-0.6,0c-0.3,0-0.6,0-0.8,0
			c-0.1,0-0.2,0-0.2-0.1c0,0,0-0.1,0.1-0.1c0.1,0,0.3,0,0.4-0.1c0.3,0,0.3-0.3,0.4-0.7c0.1-0.6,0.1-1.7,0.1-3V7.4z"/>
		<path class="st10" d="M162.9,9.2c0,1.6,0,2.9,0.1,3.5c0,0.5,0.1,0.8,0.6,0.9c0.2,0,0.6,0.1,0.7,0.1c0.1,0,0.1,0,0.1,0.1
			c0,0.1-0.1,0.1-0.3,0.1c-0.9,0-1.9,0-2,0s-1.1,0-1.6,0c-0.2,0-0.3,0-0.3-0.1c0,0,0-0.1,0.1-0.1c0.1,0,0.3,0,0.5-0.1
			c0.3-0.1,0.4-0.4,0.5-0.9c0.1-0.7,0.1-2,0.1-3.5V2.2l-2.4,0c-1,0-1.4,0.1-1.7,0.5c-0.2,0.3-0.2,0.4-0.3,0.5c0,0.1-0.1,0.2-0.2,0.2
			c0,0-0.1,0-0.1-0.1c0-0.2,0.3-1.6,0.4-1.7c0-0.1,0.1-0.3,0.2-0.3c0.1,0,0.3,0.2,0.7,0.2c0.5,0,1.1,0.1,1.3,0.1h6.1
			c0.5,0,0.9,0,1.2-0.1c0.2,0,0.4-0.1,0.5-0.1c0.1,0,0.1,0.1,0.1,0.2c0,0.5,0,1.6,0,1.8c0,0.1,0,0.2-0.1,0.2c-0.1,0-0.1,0-0.1-0.3
			l0-0.2c0-0.5-0.4-0.9-2-0.9l-2.1,0V9.2z"/>
		<path class="st10" d="M176.6,7.4c0-2.2,0-2.6,0-3c0-0.5-0.1-0.7-0.6-0.8c-0.1,0-0.4,0-0.5,0c0,0-0.1-0.1-0.1-0.1
			c0-0.1,0.1-0.1,0.2-0.1c0.7,0,1.6,0,1.7,0c0.1,0,3.1,0,3.4,0c0.3,0,0.5-0.1,0.7-0.1c0.1,0,0.1-0.1,0.2-0.1c0,0,0.1,0.1,0.1,0.1
			c0,0.1-0.1,0.3-0.1,0.7c0,0.1,0,0.8-0.1,0.9c0,0.1-0.1,0.1-0.1,0.1c-0.1,0-0.1-0.1-0.1-0.2c0-0.1,0-0.3-0.1-0.5
			c-0.1-0.2-0.2-0.3-1-0.4c-0.2,0-1.9,0-2.1,0c-0.1,0-0.1,0-0.1,0.1v3.8c0,0.1,0,0.1,0.1,0.1c0.2,0,2.1,0,2.4,0c0.3,0,0.6,0,0.7-0.2
			c0.1-0.1,0.2-0.2,0.2-0.2c0,0,0.1,0,0.1,0.1c0,0.1-0.1,0.3-0.1,0.8c0,0.3-0.1,0.8-0.1,0.9c0,0.1,0,0.3-0.1,0.3
			c-0.1,0-0.1,0-0.1-0.1c0-0.1,0-0.3-0.1-0.5c0-0.2-0.2-0.4-0.7-0.4c-0.4,0-1.9-0.1-2.2-0.1c-0.1,0-0.1,0-0.1,0.1v1.2
			c0,0.5,0,2.1,0,2.4c0,0.9,0.3,1.1,1.7,1.1c0.4,0,1.1,0,1.4-0.1c0.4-0.2,0.6-0.4,0.7-1c0-0.2,0.1-0.2,0.1-0.2s0.1,0.1,0.1,0.2
			c0,0.1-0.1,1-0.2,1.3c-0.1,0.4-0.2,0.4-0.8,0.4c-1.1,0-1.9,0-2.5,0c-0.6,0-1,0-1.2,0c0,0-0.3,0-0.6,0c-0.3,0-0.6,0-0.8,0
			c-0.1,0-0.2,0-0.2-0.1c0,0,0-0.1,0.1-0.1c0.1,0,0.3,0,0.4-0.1c0.3,0,0.3-0.3,0.4-0.7c0.1-0.6,0.1-1.7,0.1-3V7.4z"/>
		<path class="st10" d="M194.3,3.7c0.2-0.5,0.2-0.5,0.3-0.5c0.1,0,0.2,0.2,0.3,0.5c0.3,0.6,2.6,6.3,3.5,8.4c0.5,1.2,0.9,1.4,1.2,1.5
			c0.2,0.1,0.4,0.1,0.6,0.1c0.1,0,0.2,0,0.2,0.1c0,0.1-0.2,0.1-0.3,0.1c-0.2,0-1.3,0-2.3,0c-0.3,0-0.5,0-0.5-0.1
			c0-0.1,0-0.1,0.1-0.1c0.1,0,0.2-0.1,0.1-0.4l-1.3-3.2c0-0.1,0-0.1-0.1-0.1h-3.3c-0.1,0-0.1,0-0.1,0.1l-0.8,2.2
			c-0.1,0.3-0.2,0.7-0.2,0.9c0,0.3,0.2,0.4,0.5,0.4h0.1c0.1,0,0.1,0,0.1,0.1c0,0.1-0.1,0.1-0.2,0.1c-0.3,0-1.1,0-1.3,0
			c-0.1,0-0.9,0-1.5,0c-0.2,0-0.3,0-0.3-0.1c0-0.1,0.1-0.1,0.1-0.1c0.1,0,0.3,0,0.4,0c0.7-0.1,0.9-0.6,1.2-1.3L194.3,3.7z
			 M195.9,9.5C196,9.5,196,9.4,195.9,9.5l-1.4-3.9c-0.1-0.2-0.2-0.2-0.2,0L193,9.4c0,0.1,0,0.1,0,0.1H195.9z"/>
		<path class="st10" d="M220,12.1c0,0.5,0.1,1.2,0.7,1.4c0.4,0.1,0.8,0.1,0.9,0.1c0.1,0,0.1,0,0.1,0.1c0,0.1-0.1,0.1-0.3,0.1
			c-0.3,0-1.9,0-2.5-0.1c-0.3,0-0.4-0.1-0.4-0.1c0,0,0-0.1,0.1-0.1c0.1,0,0.1-0.2,0.1-0.5l-0.7-7h0l-3.5,7.1
			c-0.3,0.6-0.4,0.7-0.5,0.7s-0.2-0.1-0.5-0.6c-0.4-0.7-1.3-2.5-1.7-3.2c-0.4-0.9-1.6-3.2-1.8-3.8h-0.1l-0.6,6.3c0,0.2,0,0.5,0,0.7
			c0,0.2,0.1,0.3,0.3,0.4c0.2,0.1,0.5,0.1,0.6,0.1c0,0,0.1,0,0.1,0.1c0,0.1-0.1,0.1-0.3,0.1c-0.5,0-1.2,0-1.3,0c-0.1,0-0.8,0-1.2,0
			c-0.1,0-0.2,0-0.2-0.1c0,0,0.1-0.1,0.1-0.1c0.1,0,0.2,0,0.4,0c0.5-0.1,0.5-0.6,0.6-1.1l1-9.1c0-0.1,0.1-0.2,0.2-0.2
			c0.1,0,0.2,0,0.3,0.2l4.4,8.6l4.2-8.6c0.1-0.1,0.1-0.2,0.2-0.2c0.1,0,0.2,0.1,0.2,0.4L220,12.1z"/>
	</g>
</g>
</svg>
