<?xml version="1.0" encoding="utf-8"?>
<!-- Generator: Adobe Illustrator 25.2.3, SVG Export Plug-In . SVG Version: 6.00 Build 0)  -->
<svg version="1.1" id="section7_p.svg" xmlns="http://www.w3.org/2000/svg" xmlns:xlink="http://www.w3.org/1999/xlink" x="0px"
	 y="0px" viewBox="0 0 628 158" style="enable-background:new 0 0 628 158;" xml:space="preserve">
<style type="text/css">
	.st0{fill:#FFFFFF;}
</style>
<g>
	<g>
		<path class="st0" d="M17.8,7.6H7.5C7,8.3,6.7,8.8,6.5,9.1h9.3v9h-1.1v-1H6.3v1h-1v-7.4c-1.2,1.2-2.4,2.3-3.7,3.4l-0.8-0.8
			C3.1,11.4,5,9.5,6.3,7.6H1v-1h5.9C7.2,6.1,7.5,5.6,7.7,5H1.6V4.1h6.5c0.3-0.5,0.5-1,0.6-1.5C6.2,2.8,4.1,2.9,2.4,2.9l-0.3-1
			c5.5,0,10.2-0.5,13.9-1.3l0.6,0.9c-2,0.4-4.2,0.7-6.7,1C9.7,3.1,9.5,3.7,9.3,4.1h7.9V5H8.9C8.7,5.6,8.4,6.2,8.1,6.6h9.7V7.6z
			 M14.7,11.4v-1.4H6.3v1.4H14.7z M14.7,13.8v-1.4H6.3v1.4H14.7z M14.7,16.1v-1.4H6.3v1.4H14.7z"/>
		<path class="st0" d="M38.4,14.8h-8.2v3.4h-1v-3.4H21v-1h8.2v-1.9h-2V5.4c-0.4,0.5-0.9,1-1.5,1.6L25,6.1c1.6-1.4,2.8-3.3,3.8-5.6
			l1,0.3c-0.2,0.6-0.6,1.2-1,2h3.9c-0.1-0.5-0.4-1.2-0.9-2l1-0.3c0.4,0.8,0.8,1.6,1,2.3h4.1v1h-4.6v1.7h3.9v1h-3.9v1.7h3.9v1h-3.9
			v1.7h4.9v1h-8v1.9h8.2V14.8z M24.7,6.6l-0.6,0.8c-0.8-0.6-1.8-1.2-3.1-1.7l0.6-0.9C22.6,5.2,23.6,5.8,24.7,6.6z M25.8,9
			c-1.5,1.8-2.9,3.1-4.2,3.8L21.1,12c1.2-0.7,2.6-2,4.1-3.8L25.8,9z M26,2.9l-0.6,0.9c-1-0.9-2.1-1.6-3.2-2.2l0.6-0.8
			C24.1,1.4,25.2,2.2,26,2.9z M32.2,5.6V3.9h-4v1.7H32.2z M32.2,8.2V6.5h-4v1.7H32.2z M32.2,10.9V9.2h-4v1.7H32.2z"/>
		<path class="st0" d="M58.7,11.3l-0.4,1c-3.4-0.4-6.2-1.2-8.3-2.2c-2.3,1-5,1.7-8.2,2.2l-0.6-1c3-0.4,5.6-1,7.6-1.8
			c-1.2-0.7-2.2-1.5-3-2.3c-1,0.8-1.9,1.4-2.8,1.9l-0.7-0.8c2.4-1.3,4.2-2.8,5.2-4.6l1,0.4c-0.3,0.5-0.6,1-0.9,1.3h7.8v1
			c-1,1.1-2.4,2.1-4.2,3.2C53.2,10.4,55.7,11,58.7,11.3z M57.9,6.4h-1V3.2H42.9v3.1h-1.1V2.2h7.7c-0.1-0.4-0.4-0.9-0.9-1.4l1.1-0.3
			c0.4,0.6,0.7,1.2,1,1.8h7.1V6.4z M55.9,18.1h-1v-0.9H45v0.9h-1v-5.5h11.9V18.1z M54.8,16.1v-2.6H45v2.6H54.8z M53.9,6.4h-7.2
			l-0.1,0.1c0.9,1,2.1,1.8,3.3,2.5C51.6,8.2,52.9,7.3,53.9,6.4z"/>
		<path class="st0" d="M79.1,16.7l-0.3,1h-7.6c-3.1,0-5.4-0.7-6.8-2.2c-0.7,1-1.4,1.9-2.3,2.7l-0.8-0.7c2-1.7,3.3-3.9,3.7-6.6h-3.3
			v-0.8c1.1-1.4,2.1-2.9,3.1-4.3h-3.4V4.8h4.7v0.9c-0.9,1.4-1.9,2.8-2.9,4.1h3v1c-0.3,1.4-0.8,2.7-1.3,3.7c0.6,0.7,1.4,1.3,2.4,1.6
			c1,0.4,2.4,0.5,4.2,0.5H79.1z M65.5,3.3l-0.7,0.7c-0.7-0.9-1.6-1.8-2.7-2.8l0.6-0.8C63.7,1.3,64.6,2.2,65.5,3.3z M78.7,14.1h-5.5
			v1.8h-1v-1.8h-5.4v-0.9h5.4v-1.5h-4.4V6.3h4.4V4.7h-3.4V3.9h3.4V2.6h1v1.2h3.4v0.8h-3.4v1.6h4.4v5.4h-4.4v1.5h5.5V14.1z M78.2,4.3
			h-1V2h-9v2.3h-1V1h11V4.3z M72.2,8.6V7.1h-3.4v1.5H72.2z M72.2,10.9V9.4h-3.4v1.5H72.2z M76.6,8.6V7.1h-3.4v1.5H76.6z M76.6,10.9
			V9.4h-3.4v1.5H76.6z"/>
		<path class="st0" d="M98.3,18.1h-1v-1H83.5v1h-1V1h15.8V18.1z M97.3,16.1V2H83.5v14.1H97.3z M95,11.1h-5c-0.3,0.4-0.8,0.9-1.5,1.5
			v1.8c0.8-0.2,1.7-0.4,2.6-0.7l0.1,0.9c-1.2,0.4-2.4,0.7-3.7,1l-0.4-0.9c0.2-0.1,0.3-0.3,0.3-0.5v-0.9c-1.3,0.7-2.3,1.1-3.1,1.3
			L84,13.7c2-0.5,3.6-1.3,4.8-2.6h-3V7.9H95V11.1z M96.3,6.7H84.4V5.8h5.5V4.4h-4.7V3.6h4.7v-1h1v1h4.7v0.9h-4.7v1.3h5.5V6.7z
			 M94,10.2V8.8h-7.3v1.4H94z M96.3,14.7l-0.6,0.7c-1.4-1-3.1-2-5.2-3l0.6-0.8c0.7,0.3,1.4,0.7,2.2,1.1c0.5-0.3,0.9-0.7,1.4-1.2
			l0.7,0.6c-0.5,0.5-1,0.9-1.3,1.1C94.8,13.7,95.5,14.2,96.3,14.7z"/>
		<path class="st0" d="M119.3,17.6h-14c-0.6,0-1.1-0.2-1.5-0.6c-0.4-0.4-0.6-0.9-0.6-1.6V2h-1.2V1h17v1h-14.7v13.5
			c0,0.3,0.1,0.5,0.4,0.7s0.5,0.3,0.7,0.3h14V17.6z M110.9,14.8h-5.3v-5h5.3V14.8z M109.9,13.8v-3h-3.1v3H109.9z M115.6,8h-8.2V3.7
			h8.2V8z M114.6,7V4.7h-6.1V7H114.6z M117.9,14.8h-5.2v-5h5.2V14.8z M116.9,13.8v-3h-3.1v3H116.9z"/>
		<path class="st0" d="M139.5,8.8h-17.4v-1h17.4V8.8z M139.1,2h-16.2V1h16.2V2z M130.6,6.4l-0.9,0.5c-0.2-0.3-0.3-0.6-0.5-0.9
			c-2.1,0.4-4,0.7-5.9,1L123.1,6c0.9-0.9,1.8-2.1,2.7-3.5l0.9,0.4c-0.6,1-1.3,1.9-2.1,2.8c1.3-0.1,2.6-0.4,4-0.7
			c-0.2-0.2-0.5-0.6-1.1-1.2l0.8-0.5C129.2,4.1,129.9,5.1,130.6,6.4z M137.4,18h-1v-1.1h-10.9V18h-1v-7.6h13V18z M136.3,13.1v-1.7
			h-10.9v1.7H136.3z M136.3,15.9v-1.8h-10.9v1.8H136.3z M138.9,6.5L138,7.1c-0.3-0.5-0.4-0.8-0.5-0.9c-2.3,0.3-4.3,0.6-6,0.8
			l-0.4-0.8c1-0.8,2-2,3-3.6l1,0.4c-0.8,1.2-1.6,2.1-2.3,2.9c1.1-0.1,2.5-0.2,4.1-0.5c-0.2-0.4-0.6-0.8-1.1-1.4l0.9-0.5
			C137.7,4.5,138.4,5.5,138.9,6.5z"/>
		<path class="st0" d="M159.8,9h-4.6v9.2h-1V9h-5.6c-0.2,4.1-2,7.1-5.4,9.2l-0.8-0.8c3.2-1.9,4.9-4.6,5.1-8.4h-5.1v-1h5.1V3.3
			c-1.5,0.4-2.9,0.8-4.1,1l-0.6-1c3.2-0.5,5.9-1.4,8.2-2.7l0.7,0.8c-1.1,0.6-2.1,1.1-3.2,1.4v5.1h5.6V0.5h1v7.4h4.6V9z"/>
		<path class="st0" d="M177.1,1.6h-4.7v7.7h-1.1V0.5h5.8V1.6z"/>
		<path class="st0" d="M200.3,6.5h-3.2V13h-6.9V6.5h-4v10h13.4v1.1h-14.4V6.5h-2.4v-1h2.4V1.2h1v4.3h4V0.6h1v4.9h4.9V0.6h1.1v4.9
			h3.2V6.5z M196,11.9V6.5h-4.9v5.4H196z"/>
		<path class="st0" d="M220.7,12.5l-0.6,0.9c-3.1-1.2-5.4-2.8-6.9-4.8h-2.8c-1.6,2-3.9,3.5-6.8,4.6l-0.5-0.9
			c2.7-0.9,4.7-2.2,6.1-3.7h-4.3V1H219v7.7h-4.4C215.8,10.3,217.8,11.6,220.7,12.5z M209,11.4c0.2,3.4-1.3,5.7-4.4,6.7l-0.6-0.9
			c0.8-0.2,1.5-0.6,2.1-1s1.1-1,1.4-1.6s0.4-1.6,0.4-3.1H209z M211.4,4.3V2h-5.5v2.3H211.4z M211.4,7.6V5.3h-5.5v2.4H211.4z
			 M217.9,4.3V2h-5.5v2.3H217.9z M217.9,7.6V5.3h-5.5v2.4H217.9z M215.4,18.1h-1.1v-6.7h1.1V18.1z"/>
		<path class="st0" d="M229.8,6.3c-0.5,1-1.1,2-1.7,2.8v9h-1.1v-7.6c-0.7,0.8-1.7,1.6-3,2.6l-0.8-0.8c2.5-1.6,4.3-3.7,5.5-6.4
			L229.8,6.3z M231.7,3.6h-2.4v1.9h-1V3.6h-4.8v-1h4.8V0.5h1v2.1h2.4V3.6z M240.8,13.7c-0.1,1.6-0.2,2.7-0.5,3.1s-0.5,0.7-0.8,0.9
			c-0.3,0.1-1.3,0.2-3,0.2c-1.9,0-3-0.1-3.4-0.3s-0.5-0.6-0.5-1.3V6.1h1.1v3.4h6.9v1h-6.9v5.8c0,0.3,0.1,0.5,0.4,0.5
			c0.2,0.1,1.1,0.1,2.5,0.1c1.6,0,2.5,0,2.7-0.1s0.4-0.5,0.5-1.1c0.1-0.7,0.2-1.4,0.2-2.3L240.8,13.7z M240.9,3.6h-4.7v2.1h-1V3.6
			h-2.6v-1h2.6V0.5h1v2.1h4.7V3.6z"/>
		<path class="st0" d="M260.2,18.1h-1v-1h-13.8v1h-1V1h15.8V18.1z M259.2,16.1V2h-13.8v14.1H259.2z M257,11.1h-5
			c-0.3,0.4-0.8,0.9-1.5,1.5v1.8c0.8-0.2,1.7-0.4,2.6-0.7l0.1,0.9c-1.2,0.4-2.4,0.7-3.7,1l-0.4-0.9c0.2-0.1,0.3-0.3,0.3-0.5v-0.9
			c-1.3,0.7-2.3,1.1-3.1,1.3l-0.6-0.9c2-0.5,3.6-1.3,4.8-2.6h-3V7.9h9.3V11.1z M258.3,6.7h-11.9V5.8h5.5V4.4h-4.7V3.6h4.7v-1h1v1
			h4.7v0.9h-4.7v1.3h5.5V6.7z M256,10.2V8.8h-7.3v1.4H256z M258.2,14.7l-0.6,0.7c-1.4-1-3.1-2-5.2-3l0.6-0.8
			c0.7,0.3,1.4,0.7,2.2,1.1c0.5-0.3,0.9-0.7,1.4-1.2l0.7,0.6c-0.5,0.5-1,0.9-1.3,1.1C256.7,13.7,257.5,14.2,258.2,14.7z"/>
		<path class="st0" d="M266.8,12.4c-0.6,1.6-1.4,3-2.3,4.1l-0.9-0.6c0.8-0.9,1.5-2.2,2.2-4L266.8,12.4z M273,10.8h-4.1v7.4h-1v-7.4
			h-4.1v-1h4.1v-2H264v-1h2.4c-0.1-0.6-0.5-1.6-1-3l0.7-0.5h-2v-1h3.7c-0.2-0.5-0.5-0.9-0.8-1.4l1-0.4c0.3,0.4,0.7,1.1,1,1.9h3.5v1
			h-1.6l0.7,0.5c-0.2,0.7-0.7,1.7-1.2,3h2.3v1h-3.8v2h4.1V10.8z M270.6,3.4h-4.2c0.5,1.3,0.9,2.5,1.1,3.5h1.7
			C269.8,5.7,270.3,4.6,270.6,3.4z M272.4,14.6l-0.9,0.6c-0.3-0.8-0.8-1.8-1.4-2.8l0.8-0.5C271.4,12.7,271.9,13.6,272.4,14.6z
			 M281.2,8H279v10.1h-1V8h-3c0,4.5-0.8,7.9-2.5,10.2l-0.8-0.6c0.9-1.3,1.5-2.6,1.9-4s0.6-3.1,0.6-5.3v-6c2.5-0.3,4.6-0.9,6.2-1.7
			l0.8,0.8c-1.8,0.8-3.8,1.4-6,1.8V7h6.2V8z"/>
		<path class="st0" d="M301.4,4.1h-8.2v3.2h6.8v7.5c0,0.4-0.1,0.8-0.4,1.1c-0.2,0.3-0.6,0.4-0.9,0.4s-1.2,0-2.5,0l-0.5-1.1
			c0.5,0,0.9,0,1.4,0c0.9,0,1.4,0,1.6-0.1c0.2-0.1,0.3-0.3,0.3-0.5V8.3h-5.8v9.8h-1.1V8.3h-5.7v8h-1.1v-9h6.8V4.1H284v-1h8.4
			c-0.3-0.6-0.9-1.3-1.5-2.1l1-0.5c0.5,0.5,1.2,1.4,1.9,2.6h7.7V4.1z"/>
		<path class="st0" d="M311.3,4.2l-0.7,0.7c-0.8-1.1-1.6-1.9-2.4-2.7c-0.7,1.2-1.5,2.3-2.4,3.3h4.8v1h-2.2v2.1h2.5v1h-2.5V16
			c0.7-0.1,1.6-0.3,2.4-0.5l0.2,1c-2.6,0.6-4.8,1-6.6,1.3l-0.2-0.9c1.2-0.2,2.2-0.4,3.1-0.6V9.6h-2.7v-1h2.7V6.5h-1.8V5.6
			c-0.2,0.3-0.5,0.5-0.8,0.8l-0.6-0.8c1.4-1.3,2.7-3,3.8-5.2l1,0.4c0,0.1-0.1,0.3-0.2,0.5C309.6,2.2,310.5,3.2,311.3,4.2z
			 M306.6,15.1l-0.9,0.3c-0.2-1.4-0.5-2.9-0.9-4.2l1-0.2C306.1,12.3,306.4,13.6,306.6,15.1z M311.2,11.1c-0.2,1.2-0.6,2.4-1,3.6
			l-0.9-0.3c0.4-1.1,0.7-2.3,1-3.6L311.2,11.1z M315.2,15.8c-1.2,1-2.5,1.7-3.9,2.2l-0.8-0.8c1.3-0.5,2.6-1.2,3.9-2.2L315.2,15.8z
			 M321.9,14.5h-10.6v-0.9h1.2V4.4h2.8c0.2-0.6,0.3-1.1,0.3-1.4h-4.1V2.1h4.3c0.1-0.7,0.2-1.2,0.3-1.5l1,0.2
			c-0.1,0.4-0.2,0.8-0.3,1.4h4.6V3h-4.8c-0.1,0.3-0.2,0.8-0.3,1.4h4.1v9.2h1.4V14.5z M319.4,6.6V5.3h-6v1.3H319.4z M319.4,9V7.5h-6
			V9H319.4z M319.4,11.3V9.9h-6v1.4H319.4z M319.4,13.6v-1.4h-6v1.4H319.4z M321.8,17.3l-0.6,0.8c-1.2-0.8-2.6-1.6-4.1-2.3l0.6-0.8
			C319.3,15.7,320.6,16.4,321.8,17.3z"/>
		<path class="st0" d="M327.5,17.2h4.7V9.5h1.1v8.7h-5.8V17.2z"/>
		<path class="st0" d="M353.1,2c-1.3,1.6-3.1,3.1-5.6,4.3h4.6v4.1h-4l-0.3,2.2h4.3c0,1.6-0.1,2.7-0.2,3.4c-0.1,0.7-0.3,1.1-0.5,1.4
			s-0.5,0.4-0.8,0.5c-0.3,0.1-1.1,0.1-2.4,0.1c-0.5,0-1.1,0-1.6,0l-0.2-1l3.4,0.1c0.5,0,0.8-0.2,1-0.7c0.2-0.5,0.3-1.4,0.3-2.7h-4.3
			l0.4-4.2h4V7.3h-3.8V6.4c-0.7,0.3-1.3,0.6-1.9,0.8l-0.6-0.9c1.1-0.3,2.2-0.8,3.3-1.5c-0.4-0.4-1.1-0.9-1.8-1.3l0.6-0.8
			c0.9,0.5,1.6,1,2.2,1.5c1.2-0.8,2.1-1.6,2.7-2.3h-5V1h6.4V2z M362.1,17.4l-0.7,0.8c-1.1-0.9-2.3-1.8-3.6-2.6
			c-1.4,1.1-2.8,2-4.4,2.6l-0.7-0.8c1.2-0.4,2.7-1.2,4.3-2.3l-3.3-2l0.6-0.7h-0.9v-1h7.3c-0.5,1.4-1.2,2.6-2.1,3.6
			C359.5,15.5,360.7,16.3,362.1,17.4z M361.5,10.3h-2.2c-0.3,0-0.6-0.1-0.8-0.3c-0.2-0.2-0.3-0.5-0.3-0.8V7.3h-2.5
			c-0.1,1.5-0.7,2.6-1.9,3.4l-0.9-0.7c1.2-0.8,1.8-2,1.8-3.7h4.4V9c0,0.2,0.1,0.4,0.4,0.4h1.8V10.3z M362.2,6.3l-0.5,0.9
			c-3.4-1.2-6-3.3-7.7-6.3l0.9-0.4c0.4,0.7,0.9,1.3,1.3,1.9c0.6-0.5,1.2-1.1,1.7-1.7l0.9,0.4c-0.5,0.7-1.2,1.4-1.9,2
			c0.5,0.6,1,1,1.4,1.2c0.8-0.6,1.5-1.2,2.1-1.9l0.8,0.5c-0.7,0.8-1.4,1.4-2.1,1.9C360.1,5.4,361.1,5.9,362.2,6.3z M359.2,12.3h-4.8
			c1.3,0.7,2.4,1.4,3.3,2C358.2,13.8,358.7,13.2,359.2,12.3z"/>
		<path class="st0" d="M382,11.6h-10.6v5.1c1.3-0.2,2.6-0.5,3.9-1l0.1,0.9c-1.6,0.5-3.3,1-5,1.4l-0.3-1c0.2-0.2,0.4-0.4,0.4-0.6
			v-4.9h-2.7c-0.5,2.9-1.2,5.1-2.2,6.6l-0.8-0.7c1.5-2.4,2.2-5.6,2.2-9.7V1h14v4.3h-13v2.1h3.7V6.1h1.1v1.4h4.3V6.1h1.1v1.4h3v1h-3
			v2.2h3.8V11.6z M371.6,10.6V8.4h-3.8c0,0.7,0,1.4-0.1,2.2H371.6z M379.8,4.3V2h-11.9v2.3H379.8z M377,10.6V8.4h-4.3v2.2H377z
			 M383,17.2l-0.5,1c-2.7-0.7-4.6-1.5-5.7-2.5c-1.1-1-1.9-2-2.4-3l1-0.3c0.6,1,1.3,1.8,2.1,2.5c1-0.6,1.8-1.4,2.6-2.4l0.8,0.6
			c-0.8,0.9-1.6,1.7-2.5,2.3C379.5,16.2,381.1,16.7,383,17.2z"/>
		<path class="st0" d="M388.8,8.1l-0.6,0.8c-0.7-0.7-1.6-1.5-3-2.5l0.6-0.8C387,6.4,388,7.2,388.8,8.1z M388.9,11.6
			c-0.5,2-1.4,4.2-2.8,6.4l-0.8-0.6c1.3-2.3,2.2-4.4,2.8-6.3L388.9,11.6z M389.4,3l-0.6,0.8c-0.8-0.9-1.8-1.7-3-2.6l0.6-0.7
			C387.5,1.1,388.5,2,389.4,3z M396.2,7.7c-0.9,0.7-1.8,1.3-2.6,1.8l-0.5-0.8c0.2-0.1,0.3-0.3,0.3-0.6V5.9c-0.7,1.5-1.9,2.8-3.7,4.1
			L389,9.3c1.8-1.2,3-2.5,3.6-4.1H390l0.8-3.2h-0.9V1.1h5.7V2h-1.3c-0.1,0.8-0.2,1.6-0.4,2.3h2v0.9h-2.2c-0.1,0.3-0.2,0.4-0.2,0.6
			h0.9V8c0.4-0.3,1-0.7,1.6-1.1L396.2,7.7z M401.3,18.1h-1v-1h-8.4v1h-1.1v-7.8h10.5V18.1z M393.3,2h-1.5c-0.2,1-0.4,1.7-0.6,2.3
			h1.6C393.1,3.7,393.2,3,393.3,2z M400.3,13.1v-1.9h-8.4v1.9H400.3z M400.3,16.1v-2h-8.4v2H400.3z M402.7,7.2c0,1-0.1,1.6-0.3,1.8
			c-0.2,0.3-0.7,0.4-1.4,0.4c-1,0-1.4-0.5-1.4-1.4V6.3c-0.7,1.3-1.8,2.4-3.3,3.3L395.6,9c1.7-0.9,2.8-2.2,3.4-3.8h-2.4
			c0.2-0.7,0.4-1.7,0.7-3.2h-1V1.1h5.9V2h-1.5c-0.1,0.6-0.2,1.4-0.5,2.3h2.2v0.9h-2.4l-0.3,0.6h0.7v2.3c0,0.3,0.2,0.4,0.6,0.4
			c0.3,0,0.4-0.1,0.6-0.3c0.1-0.2,0.2-0.7,0.2-1.4L402.7,7.2z M399.8,2h-1.5c-0.1,0.7-0.3,1.5-0.5,2.3h1.5
			C399.6,3.6,399.7,2.9,399.8,2z"/>
		<path class="st0" d="M421.9,4.3c0,3.2-0.1,5.9-0.2,8.2c-0.1,2.2-0.3,3.6-0.5,4.2c-0.2,0.6-0.5,1-0.9,1.2s-1.2,0.3-2.5,0.3
			c-0.5,0-1.2,0-2,0l-0.4-1.1c0.9,0,1.7,0.1,2.4,0.1c1.1,0,1.7-0.1,1.9-0.2c0.2-0.2,0.4-0.4,0.5-0.7c0.1-0.3,0.2-1.6,0.4-3.9
			c0.2-2.3,0.2-4.5,0.3-6.8h-6.1c-0.2,3.6-1,6.3-2.2,8.1c-1.2,1.8-3.1,3.4-5.7,4.7l-0.8-1c1.4-0.6,2.6-1.3,3.7-2.3
			c1.1-0.9,1.9-2.1,2.6-3.5c0.6-1.4,1.1-3.4,1.3-6.1h-7V4.3h7.1c0.1-1.2,0.1-2.5,0.1-3.7h1.1c0,1.1,0,2.3-0.1,3.7H421.9z"/>
		<path class="st0" d="M434.2,11.2c-0.5-0.3-0.7-0.6-0.7-1c0-0.2,0.1-0.4,0.2-0.6c0.2-0.2,0.4-0.3,0.7-0.3c0.6,0,0.9,0.4,0.9,1.2
			c0,0.7-0.4,1.3-1.2,1.9l-0.4-0.3C434.1,11.8,434.2,11.5,434.2,11.2z"/>
		<path class="st0" d="M463.6,14.4h-3.9v2.2c0,0.4-0.1,0.7-0.4,0.9c-0.2,0.2-0.5,0.3-0.9,0.4c-0.4,0-0.9,0.1-1.7,0.1h-1.2l-0.4-1
			c0.6,0.1,1.2,0.1,1.7,0.1c0.9,0,1.4-0.1,1.5-0.2c0.1-0.1,0.2-0.2,0.2-0.4v-2.1h-12.5v-0.9h12.5v-1.3h-11V5h4.6
			c0-0.4,0.1-1,0.1-1.6h-6.1v-1h17v1h-6.1V5h4.7v7.1h-2.2v1.3h3.9V14.4z M460.8,11.1V8.2h-3.2c-1,0-1.5-0.5-1.5-1.5V5.9h-2.9
			c-0.4,1.5-1.7,2.6-3.8,3.2l-0.6-0.6v2.7H460.8z M452.1,5.9h-3.4v2.3C450.6,7.8,451.7,7,452.1,5.9z M453.1,16.6l-0.7,0.8
			c-0.8-0.7-1.7-1.3-2.9-1.9l0.6-0.8C451.2,15.1,452.2,15.8,453.1,16.6z M452,1.7l-0.9,0.6c-0.4-0.5-0.9-0.8-1.4-1.2l0.8-0.6
			C451.1,0.8,451.6,1.2,452,1.7z M459.8,10.1h-9.9V9.3h9.9V10.1z M456.1,5V3.4h-2.7c0,0.6,0,1.2-0.1,1.6H456.1z M460.8,7.2V5.9h-3.7
			v0.8c0,0.3,0.2,0.5,0.5,0.5H460.8z M459.8,1c-0.5,0.5-1,0.9-1.5,1.3l-0.9-0.6c0.6-0.4,1-0.8,1.5-1.2L459.8,1z"/>
		<path class="st0" d="M471.3,16.9c0,0.4-0.1,0.7-0.4,0.9c-0.3,0.2-0.7,0.3-1.2,0.3h-0.5l-0.3-1.1c0.2,0,0.4,0.1,0.6,0.1
			c0.6,0,0.8-0.2,0.8-0.5v-4.9h-2.2c-0.1,2.7-0.5,4.8-1.2,6.4l-0.8-0.7c0.7-1.8,1-4.5,1-8.3V1h4.1V16.9z M470.3,5.8V2h-2.2v3.8
			H470.3z M470.3,10.7V6.8h-2.2v3.9H470.3z M483.8,8.7l-0.5,0.8c-0.7-0.2-1.4-0.6-2.2-1.2h-2.5v1.1h3.4v0.8h-3.4v1.1h3.4v0.8h-3.4
			v1.1h4.6c0,2-0.1,3.3-0.5,3.9c-0.1,0.3-0.4,0.5-0.8,0.6c-0.4,0.1-0.8,0.2-1.3,0.2h-0.5l-0.3-1c0.4,0,0.7,0,1,0
			c0.5,0,0.9-0.1,1-0.4c0.2-0.3,0.3-1.1,0.3-2.5h-8.9V9c-0.3,0.2-0.6,0.4-0.9,0.5l-0.7-0.7c1.4-0.7,2.5-1.6,3.5-2.7h-3.1V5.2h3.8
			c0.2-0.4,0.5-0.8,0.7-1.3h-4.2V3h4.6c0.3-0.7,0.5-1.5,0.7-2.6l0.9,0.2c-0.1,0.7-0.3,1.5-0.6,2.4h4.9v0.9h-5.2
			c-0.2,0.4-0.4,0.9-0.7,1.3h6.4v0.9h-3.2C481.1,7.2,482.3,8.1,483.8,8.7z M474,15.1c-0.2,1.1-0.6,2.1-1.1,2.9l-0.8-0.3
			c0.5-0.9,0.9-1.9,1.2-2.8L474,15.1z M475.7,1.9L475,2.5c-0.5-0.4-1.1-0.8-1.7-1.1l0.7-0.6C474.6,1.1,475.1,1.5,475.7,1.9z
			 M477.7,9.4V8.3h-3.3v1.1H477.7z M477.7,11.3v-1.1h-3.3v1.1H477.7z M477.7,13.3v-1.1h-3.3v1.1H477.7z M476.3,17.6l-0.8,0.2
			c-0.1-0.9-0.2-1.8-0.5-2.6l0.8-0.1C476.1,16,476.3,16.8,476.3,17.6z M480.2,7.4c-0.4-0.4-0.7-0.8-1-1.4h-2.7
			c-0.4,0.5-0.8,0.9-1.2,1.4H480.2z M478.7,17.1l-0.8,0.3c-0.2-0.8-0.5-1.6-0.9-2.2l0.7-0.3C478.2,15.6,478.5,16.3,478.7,17.1z
			 M480.8,16.3l-0.8,0.3c-0.2-0.5-0.4-1-0.8-1.6l0.8-0.3C480.4,15.2,480.6,15.7,480.8,16.3z M482.2,1.2c-0.5,0.5-1,0.9-1.6,1.3
			L479.8,2c0.6-0.3,1.1-0.8,1.6-1.2L482.2,1.2z"/>
		<path class="st0" d="M504,16.8l-0.2,1.1c-1.2,0-2.4,0-3.4,0c-2.4,0-4-0.1-5-0.2c-1-0.1-2-0.4-3-0.7c-1-0.3-1.8-0.9-2.6-1.7
			c-1,1.2-1.9,2.1-2.7,2.8l-0.7-0.8c1-0.8,1.9-1.7,2.7-2.8c-0.7-1-1.4-2.3-1.9-3.9l0.9-0.4c0.4,1.4,0.9,2.5,1.5,3.3
			c0.7-1.5,1.1-3.2,1.2-5.1H487V7.5c1.2-1.6,2.5-3.4,3.7-5.4h-4.1v-1h5.2v1c-1.2,2.1-2.4,3.8-3.5,5.3h3.5c-0.1,2.9-0.6,5.3-1.5,7
			c0.6,0.6,1.3,1.2,2.1,1.5s1.6,0.6,2.5,0.7c0.9,0.1,2.7,0.2,5.3,0.2C501.5,16.9,502.8,16.8,504,16.8z M503.8,5.9h-1.4v2.8h-4.6v1.7
			h5v1h-5v1.6h5.7v1h-5.7v2h-1v-2h-5v-1h5v-1.6h-4.2v-1h4.2V8.8H493v-1h3.8V5.9h-5v-1h5V3.2H493v-1h3.8V0.7h1v1.5h4.6v2.7h1.4V5.9z
			 M501.4,4.9V3.2h-3.6v1.7H501.4z M501.4,7.8V5.9h-3.6v1.8H501.4z"/>
		<path class="st0" d="M513.9,3.6h-7.1v-1h3.1c-0.2-0.6-0.4-1.2-0.8-1.8l0.9-0.4c0.4,0.6,0.7,1.4,1,2.2h2.9V3.6z M513.3,9.5h-6.2v-1
			h6.2V9.5z M513.3,6.5h-6.2v-1h6.2V6.5z M513,17.7h-1v-1.1h-3.6V18h-1v-6.7h5.7V17.7z M512,15.5v-3.1h-3.6v3.1H512z M524.2,17.3
			l-0.6,0.9c-2-0.7-3.6-1.4-4.7-2.3c-1.3,0.9-2.9,1.6-4.8,2.2l-0.6-0.9c2-0.6,3.5-1.3,4.6-2c-1.4-1.3-2.4-3-3-5.1h-0.7V9h8.4v1
			c-0.9,2.3-1.9,4.1-3,5.1C520.9,16,522.4,16.7,524.2,17.3z M524.1,7.8h-1.9c-1,0-1.4-0.5-1.4-1.4V2.1h-3.5c0,1.8-0.3,3.2-0.7,4.1
			c-0.5,0.9-1.1,1.6-1.9,2.1l-0.8-0.7c0.8-0.5,1.4-1.2,1.8-2.1c0.4-0.9,0.6-2.4,0.6-4.4h5.5v5c0,0.5,0.2,0.7,0.7,0.7h1.7V7.8z
			 M521.6,10h-5.5c0.7,2,1.6,3.5,2.8,4.5C520.1,13.4,521,11.9,521.6,10z"/>
		<path class="st0" d="M535.4,4.7l-0.7,0.7c-0.9-1.2-1.9-2.2-3.1-3.1c-1.3,2.1-2.6,3.7-3.9,4.8L527,6.3c1.6-1.3,3.1-3.2,4.4-5.8
			l1,0.3c-0.2,0.4-0.3,0.6-0.4,0.7C533.5,2.7,534.7,3.8,535.4,4.7z M534.9,10.1c0,0.2-0.3,0.9-0.8,2c-0.5,1.1-1.2,2.2-2,3.3
			c0.7,0.7,1.3,1.4,1.8,2.1l-0.8,0.7c-1.2-1.6-2.9-3.2-4.9-4.7l0.7-0.7c0.7,0.5,1.5,1.2,2.4,2c1.3-1.9,2.1-3.4,2.4-4.6h-6.4v-1h7.5
			V10.1z M534.3,7.1h-4.9V6h4.9V7.1z M544.5,2.1h-3.9c-0.3,1.2-0.5,2-0.6,2.3h3.6v9.8h-4.7l0.6,0.6c-1.3,1.4-2.6,2.5-3.8,3.3
			l-0.7-0.8c1.2-0.7,2.4-1.7,3.7-3.1h-2.4V4.4h2.6c0.3-0.9,0.5-1.7,0.6-2.3h-4.1v-1h9.2V2.1z M542.5,7.2V5.4h-5.3v1.8H542.5z
			 M542.5,10.1V8.1h-5.3v1.9H542.5z M542.5,13.2V11h-5.3v2.2H542.5z M544.6,17.3l-0.7,0.8c-1-0.9-2.1-1.8-3.4-2.7l0.7-0.8
			C542.5,15.5,543.7,16.4,544.6,17.3z"/>
		<path class="st0" d="M564.7,13.7c-0.1,1.6-0.3,2.5-0.5,3c-0.2,0.4-0.5,0.7-0.9,0.9c-0.4,0.2-1.5,0.3-3.2,0.3c-0.8,0-1.3,0-1.6-0.1
			c-0.2-0.1-0.4-0.2-0.6-0.4c-0.2-0.2-0.3-0.5-0.3-0.9V9.4h-3.6c0.1,4-1.9,6.9-6.1,8.6l-0.7-0.9c1.7-0.7,3-1.6,4.1-2.7
			c1-1.2,1.6-2.8,1.5-4.9h-5.4l0-1h8V4.8h-4.5c-0.6,0.9-1.3,1.8-2.2,2.6l-1-0.7c1.6-1.4,2.9-3.4,4-5.9l1,0.4
			c-0.2,0.6-0.6,1.5-1.3,2.5h3.8V0.5h1.1v3.2h7.1v1.1h-7.1v3.6h7.9v1h-5.9v6.7c0,0.2,0.1,0.4,0.2,0.5c0.2,0.1,0.8,0.1,1.8,0.1
			c1.2,0,1.9-0.1,2.1-0.2c0.2-0.1,0.4-0.4,0.5-0.8c0.1-0.4,0.2-1.2,0.3-2.4L564.7,13.7z"/>
		<path class="st0" d="M584.1,16.6c0,0.7-0.2,1.1-0.7,1.3c-0.4,0.1-0.8,0.2-1.4,0.2c-0.6,0-1.4,0-2.3,0l-0.4-1.1c0.4,0,1.4,0,3.3,0
			c0.4,0,0.5-0.2,0.5-0.5V2h-13.5v16.1h-1V1h15.5V16.6z M581.4,5.5h-10.1v-1h10.1V5.5z M580.2,14h-7.8V8h7.8V14z M579.1,12.9V9.1
			h-5.7v3.8H579.1z"/>
		<path class="st0" d="M605.2,13.1h-8.1v5.1H596v-5.1h-8.2v-1h8.2v-1.6h-7.4V9.5h7.4V7.9h-7.8v-1h5.2c-0.3-0.6-0.7-1.1-1.1-1.6
			l0.8-0.5h-5.3v-1h6.6V0.6h1v3.2h2.3V0.6h1v3.2h6.5v1H600l0.7,0.5c-0.2,0.5-0.6,1-1,1.5h5.1v1h-7.7v1.6h7.2v0.9h-7.2v1.6h8.1V13.1z
			 M594.2,14.6c-1.5,1.2-3.4,2.2-5.7,3.1l-0.7-0.9c2.5-0.9,4.4-1.9,5.6-2.9L594.2,14.6z M592.3,2.9l-0.9,0.5c-0.5-0.6-1.1-1.3-2-2
			l0.9-0.6C591.2,1.5,591.8,2.2,592.3,2.9z M599.7,4.9h-6.4c0.6,0.8,1.1,1.5,1.3,2h3.8C599.1,6.1,599.5,5.4,599.7,4.9z M605.2,17
			l-0.6,0.8c-2-1.3-4-2.4-5.9-3.2l0.6-0.8C601.6,14.8,603.6,15.9,605.2,17z M603.6,1.3c-0.6,0.8-1.2,1.5-2,2.1l-0.9-0.5
			c0.9-0.8,1.6-1.4,2-2L603.6,1.3z"/>
		<path class="st0" d="M613.4,16.6c0,0.9-0.4,1.4-1.3,1.5c-0.4,0-0.9,0-1.5,0l-0.5-1.1c0.7,0.1,1.3,0.1,1.8,0c0.3,0,0.5-0.2,0.5-0.5
			v-6c-0.6,0.7-1.3,1.4-2.1,2.2l-0.6-0.7c-0.2,2.6-0.4,4.7-0.9,6.1l-0.9-0.6c0.6-2,0.9-4.4,0.9-7V1.1h4.6V16.6z M612.4,9V6.8
			L612,7.3c-0.6-0.6-1.3-1.2-2.2-1.8v2.1c0,1.2,0,2.6-0.1,4.3C610.7,11,611.6,10,612.4,9z M612.4,2.1h-2.6v3.1l0.4-0.5
			c0.8,0.5,1.5,1.1,2.2,1.7V2.1z M620.2,8.8l-0.8,0.7c-0.7-1.3-1.4-2.4-2.1-3.1c-0.7,1.4-1.5,2.7-2.3,3.7h4.2v7.5h-1v-1h-2.4v1.4h-1
			v-7.7c-0.2,0.2-0.4,0.5-0.7,0.7l-0.5-1c1.3-1.4,2.3-3.1,3.2-5.3l1,0.3c0,0.1-0.1,0.2-0.1,0.4C618.9,6.7,619.7,7.8,620.2,8.8z
			 M616.6,1c-0.8,2-1.5,3.4-2.1,4.3l-0.8-0.7c0.7-1,1.4-2.4,2-4L616.6,1z M618.3,15.6v-4.5h-2.4v4.5H618.3z M620.1,4.7l-0.9,0.4
			c-0.3-1.3-0.9-2.7-1.6-4.2l0.9-0.4C619.2,1.9,619.8,3.2,620.1,4.7z M624.9,14.7c0,0.8-0.4,1.3-1.1,1.4c-0.4,0-0.8,0-1.4,0l-0.4-1
			c0.6,0.1,1.2,0.1,1.6,0c0.2,0,0.3-0.2,0.3-0.4V2.1h-2.3v16h-1v-17h4.3V14.7z"/>
		<path class="st0" d="M18.2,42.6h-8.1v6.4h-1v-6.4H0.7v-1h3.2v-5h1v5h4.1v-6.3h1v2.6h6.4v1h-6.4v2.7h8V42.6z M7,44.9
			c-1.5,1.8-3.4,3.3-5.5,4.4l-0.7-0.8c2.5-1.3,4.3-2.7,5.4-4.2L7,44.9z M16.8,44.9c-1.5,2.9-3.4,4.9-5.5,6c-2.1,1.1-4.9,1.8-8.4,2
			l-0.5-1c3.4-0.1,6.2-0.7,8.2-1.7c2.1-1,3.8-2.9,5.3-5.7L16.8,44.9z"/>
		<path class="st0" d="M30.8,46c-0.5-0.3-0.7-0.6-0.7-1c0-0.2,0.1-0.4,0.2-0.6s0.4-0.3,0.7-0.3c0.6,0,0.9,0.4,0.9,1.2
			c0,0.7-0.4,1.3-1.2,1.9L30.3,47C30.6,46.6,30.8,46.3,30.8,46z"/>
		<path class="st0" d="M48.9,35.5c-0.2,0.7-0.5,1.7-0.9,2.8l-0.7,1.6v13h-1v-11c-0.8,1.3-1.4,2.2-1.8,2.6l-0.5-1
			c1.7-2.3,3-5,3.9-8.2L48.9,35.5z M55.1,44.6h-3.7c0,0.5-0.1,1.1-0.1,1.8h3.4c-0.1,3-0.2,4.8-0.4,5.4c-0.2,0.6-0.7,0.9-1.5,0.9
			c-0.5,0-0.8,0-1,0l-0.4-1c0.3,0,0.5,0,0.8,0c0.6,0,1-0.1,1.1-0.4s0.2-1.5,0.3-3.9h-2.5c-0.4,2.4-1.3,4.3-2.7,5.5l-0.8-0.7
			c1.8-1.6,2.6-4.1,2.6-7.6h-2v-1h3.1c-0.1-0.5-0.3-0.9-0.6-1.3l0.9-0.4c0.4,0.7,0.6,1.3,0.8,1.7h2.5V44.6z M55.3,38.4h-2.8v2.1h2.3
			v0.9h-5.9v-0.9h2.6v-2.1h-2.8v-1h2.8v-2h1v2h2.8V38.4z M61.6,39.6h-1.2c0,0.3,0,0.7,0,1c0,3.3-0.5,6.1-1.6,8.5
			c0.6,1.1,1.6,2.2,2.8,3.2L60.7,53c-1.1-1-1.9-1.9-2.6-2.9c-0.8,1.1-1.7,2.1-2.7,2.9l-0.8-0.7c1.2-0.9,2.2-2,2.9-3.2
			c-0.7-1.4-1.2-3.3-1.5-5.7l0.9-0.3c0.3,2,0.6,3.6,1.1,4.8c0.8-2.4,1.2-5.2,1.1-8.3H57c-0.6,1.7-1.1,3-1.5,3.6l-0.8-0.6
			c1-2,1.8-4.4,2.3-7.4l1,0.3c-0.2,0.9-0.4,1.9-0.7,3h4.3V39.6z"/>
		<path class="st0" d="M82.4,40.6H68.9v3.1c0,3.8-0.8,6.9-2.4,9.1l-0.9-0.6c1.5-2.1,2.2-4.7,2.2-8v-8.3h14.5V40.6z M81.3,39.5v-2.7
			H68.9v2.7H81.3z M83.2,44.2h-6.4v2.6h5.1v6.1h-1.1v-1.1h-9.2v1.1h-1.1v-6.1h5.2v-2.6h-6.1v-1h6.1v-2h1v2h6.4V44.2z M80.9,50.9v-3
			h-9.2v3H80.9z"/>
		<path class="st0" d="M96.1,44.3c-0.4,0.1-0.8,0.2-1.3,0.2v7.2c0,0.4-0.2,0.7-0.5,1c-0.3,0.3-1.2,0.4-2.6,0.3l-0.3-1.1
			c0.4,0.1,0.9,0.1,1.3,0.1c0.5,0,0.8,0,0.9-0.1c0.1-0.1,0.2-0.2,0.2-0.3v-6.9c-1.1,0.2-2.4,0.3-3.9,0.5c-0.2,3.4-0.7,6.1-1.7,7.8
			l-0.8-0.6c0.9-1.7,1.4-4.1,1.6-7.1c-0.5,0-1,0.1-1.4,0.1l-0.1-1c0.4,0,0.9-0.1,1.6-0.1v-6.5h1.7c0.4-0.9,0.8-1.6,0.9-2.3l1,0.2
			c-0.2,0.6-0.4,1.3-0.8,2.1h3v5.8c0.5-0.1,1-0.1,1.3-0.2V44.3z M93.8,43.7v-4.9H90v5.4C92,43.9,93.3,43.7,93.8,43.7z M92.7,49.2
			l-0.9,0.4c-0.2-0.9-0.5-2-1-3.2l1-0.4C92.1,46.9,92.5,48,92.7,49.2z M92.8,42.5l-0.9,0.3c-0.1-0.6-0.3-1.6-0.8-2.9l0.9-0.4
			C92.3,40.5,92.6,41.5,92.8,42.5z M104.8,48.6c0,1.2-0.1,2.1-0.2,2.8s-0.3,1.1-0.5,1.2c-0.2,0.2-0.6,0.2-1.2,0.2
			c-0.7,0-1.2-0.1-1.4-0.3c-0.2-0.2-0.4-0.5-0.4-0.9v-8.5h-2.8v2.1c0,3-0.7,5.6-2,7.8l-0.9-0.6c1.3-1.9,1.9-4.3,1.9-7.2v-3.1h4.8
			v9.3c0,0.2,0.1,0.3,0.2,0.3c0.1,0.1,0.4,0.1,0.8,0.1c0.2,0,0.3-0.1,0.4-0.2c0.1-0.1,0.2-0.5,0.3-1.2c0.1-0.7,0.1-1.4,0.1-2.3
			L104.8,48.6z M104.7,39.7h-9v-1h3.8c-0.1-0.7-0.5-1.7-1.1-3l1-0.3c0.5,1.2,0.9,2.3,1.2,3.3h4.1V39.7z"/>
		<path class="st0" d="M126.5,52.4h-17.4v-1h8.2v-4.6H111v-1h13.8v1h-6.4v4.6h8.1V52.4z M125.8,41.2h-1v-2.8h-4.5v3.7
			c0,0.4,0.2,0.6,0.7,0.6h4.7v1h-4.7c-1.1,0-1.7-0.5-1.7-1.6v-3.7h-2.6c-0.5,3.2-2.6,5.2-6.3,6l-0.6-0.9c3.6-0.7,5.5-2.4,5.8-5.1
			h-4.6v2.7h-1v-3.7h7.5c-0.2-0.6-0.5-1.1-0.8-1.7l1-0.4c0.3,0.5,0.6,1.2,0.9,2.1h7.3V41.2z"/>
		<path class="st0" d="M135.8,47.6c-2,1.3-3.6,2.2-5,2.7l-0.3-1.1c1-0.4,1.8-0.8,2.4-1.2v-6.4h-1.9v-1h1.9v-5.3h1v5.3h1.8v1H134v5.8
			c0.5-0.3,1.1-0.6,1.8-1.1V47.6z M148.3,49.2c-0.3,1.6-0.6,2.6-0.9,3c-0.3,0.5-0.7,0.7-1.1,0.7c-0.4,0-0.8-0.2-1.2-0.7
			c-0.5-0.5-0.9-1.4-1.4-2.7c-1.3,1.5-2.5,2.7-3.5,3.4l-0.8-0.7c1.5-1.1,2.8-2.4,3.9-3.9c-0.4-1.9-0.7-4.9-0.8-9.1h-4.7v3.1h3.6
			c0,1.5-0.1,2.9-0.1,4.2c-0.1,1.3-0.1,2.1-0.2,2.4c-0.1,0.3-0.2,0.5-0.4,0.7c-0.2,0.2-0.4,0.3-0.7,0.4c-0.3,0.1-0.8,0.1-1.5,0.1
			l-0.4-1.1c0.4,0,0.8,0.1,1.2,0.1c0.4,0,0.6-0.1,0.7-0.4c0.1-0.3,0.2-2.1,0.3-5.4h-2.5c0.1,3.8-0.9,7-2.8,9.8l-0.9-0.7
			c1.8-2.2,2.6-5.2,2.6-9.1v-5.1h5.6c0-0.8,0-1.8,0-2.8h1v2.8h4.5v1h-4.5c0.1,3.5,0.3,6.1,0.6,7.8c0.9-1.5,1.6-3.5,2.1-5.8l0.9,0.4
			c-0.6,2.6-1.5,4.9-2.8,6.9c0.1,0.5,0.3,1.1,0.8,2.1s0.8,1.4,1,1.4c0.1,0,0.2,0,0.3-0.1c0.1-0.1,0.2-0.4,0.4-1s0.3-1.3,0.4-2.1
			L148.3,49.2z M147.4,37.3l-0.8,0.6c-0.5-0.7-1-1.4-1.6-1.9l0.8-0.6C146.3,35.8,146.8,36.5,147.4,37.3z"/>
		<path class="st0" d="M160.8,38.8h-8.3v-1h3.8c-0.3-0.7-0.7-1.4-1.2-2.1l1-0.4c0.4,0.6,0.9,1.5,1.4,2.5h3.3V38.8z M159.8,41.7h-6.4
			v-1h6.4V41.7z M159.8,44.5h-6.4v-1h6.4V44.5z M159.8,52.7h-1v-1h-4.3v1.1h-1v-6.4h6.4V52.7z M158.8,50.7v-3.2h-4.3v3.2H158.8z
			 M170,42.2h-4v10.7h-1.1V42.2h-4v-1.1h4v-5.7h1.1v5.7h4V42.2z"/>
		<path class="st0" d="M191.6,44.9h-17.4v-0.8h8.2V43h-6.8v-0.8h6.8V41H176v-0.8h6.4v-1.1h-8.1v-0.8h8.1v-1.1H176v-0.8h6.4v-1.1h1
			v1.1h6.2v1.9h2v0.8h-2V41h-6.2v1.1h6.8V43h-6.8v1.1h8.2V44.9z M191.6,52.7h-17.4v-0.8h17.4V52.7z M189.5,50.6h-13.2V46h13.2V50.6z
			 M182.4,48v-1.2h-5.1V48H182.4z M182.4,49.9v-1.2h-5.1v1.2H182.4z M188.5,38.4v-1.1h-5.1v1.1H188.5z M188.5,40.3v-1.1h-5.1v1.1
			H188.5z M188.4,48v-1.2h-5.1V48H188.4z M188.4,49.9v-1.2h-5.1v1.2H188.4z"/>
		<path class="st0" d="M213.4,52.4h-17.5v-1h3V40.6h1.1v10.8h4.5V36.8h-8.2v-1h16.6l0,1h-7.3v6.3h6.6v1.1h-6.6v7.2h7.8V52.4z"/>
		<path class="st0" d="M224.2,44.1l-0.8,0.7c-0.5-1-1-1.9-1.5-2.5v10.5h-1V42.8c-0.8,1.8-1.7,3.4-2.6,4.6l-0.7-0.9
			c1.3-1.6,2.3-3.7,3.2-6.1h-2.7v-1h2.9v-4.2h1v4.2h2.3v1h-2.3v0.2C222.6,41.6,223.4,42.8,224.2,44.1z M235.2,52.2l-0.7,0.8
			c-1.3-1.3-2.7-2.5-4.1-3.6c-2.1,1.6-4.2,2.8-6.4,3.5l-0.6-0.8c4.8-1.7,8.3-4.6,10.5-8.7l1,0.4c-1,1.9-2.3,3.5-3.7,4.9
			C232.7,49.9,234.1,51,235.2,52.2z M235.1,38.6h-5.4c-0.9,1.5-1.9,3-3.1,4.3c1.2-0.1,2.5-0.2,4.1-0.5c0.6-0.8,1-1.5,1.3-2.1
			l0.9,0.4c-1.9,3.8-4.8,6.4-8.8,7.9l-0.6-0.9c2.7-1,4.9-2.4,6.3-4.2c-2.1,0.3-3.8,0.4-5,0.5l-0.3-1c0.8,0,2-1.5,3.8-4.4h-4.3v-1
			h5.2c-0.2-0.5-0.6-1.2-1.1-2l1-0.4c0.5,0.7,0.9,1.5,1.3,2.3h4.6V38.6z"/>
		<path class="st0" d="M242.9,42c-0.8,3.6-1.8,6.5-2.8,8.6l-1-0.7c1.1-2,2-4.8,2.7-8.3L242.9,42z M252.8,47.2
			c-0.1,1.3-0.2,2.3-0.3,3.2c-0.2,0.8-0.3,1.4-0.5,1.6c-0.2,0.3-0.5,0.4-0.8,0.5s-1.1,0.1-2.4,0.1c-0.9,0-1.7,0-2.3-0.1
			c-0.6,0-1.1-0.2-1.3-0.4c-0.3-0.3-0.4-0.6-0.4-1.1V40h1.1v10.8c0,0.2,0.1,0.3,0.2,0.5c0.1,0.1,0.2,0.2,0.3,0.3c0.1,0,0.6,0,1.5,0
			l2.6,0c0.2,0,0.4-0.1,0.6-0.3s0.4-0.8,0.5-1.7s0.2-1.9,0.2-2.8L252.8,47.2z M251,40.7l-0.9,0.7c-1-1.8-2.5-3.6-4.5-5.5l0.8-0.7
			C248.3,37,249.8,38.8,251,40.7z M256.7,49.5l-1.1,0.4c-0.5-2.2-1.5-4.8-3.1-7.6l1-0.6C255,44.7,256.1,47.3,256.7,49.5z"/>
		<path class="st0" d="M266.3,35.8c-0.3,0.6-0.6,1.3-1,2.2l-0.7,1.3v13.7h-1.1V41.2c-0.6,1-1.3,2-2.2,3l-0.7-1
			c1.9-2.2,3.4-4.8,4.6-7.8L266.3,35.8z M278.4,52.4h-12.9v-1h4.1c-0.3-3.2-1.1-6.8-2.2-10.8l0.7-0.4h-2.2v-1h6
			c-0.3-1.2-0.7-2.4-1.2-3.5l1-0.3c0.5,1.1,0.9,2.4,1.3,3.9h5.2v1h-2l0.6,0.2c-0.6,4.1-1.4,7.7-2.4,10.9h4.1V52.4z M275.6,40.2h-7.2
			c1.1,4.1,1.8,7.8,2.3,11.1h2.6C274.4,47.7,275.2,44,275.6,40.2z"/>
		<path class="st0" d="M300,52.5h-17.3v-0.9h2.3v-8.5h4.7l0.5-1.4h-7.4v-0.9h7.7l0.4-1.3h-7.3v-3.6H299v3.6h-7l-0.4,1.3h8.1v0.9
			h-8.5l-0.5,1.4h6.8v8.5h2.4V52.5z M288.4,38.6v-1.9h-3.7v1.9H288.4z M296.6,45.2v-1.2h-10.5v1.2H296.6z M296.6,47.3V46h-10.5v1.2
			H296.6z M296.6,49.4v-1.4h-10.5v1.4H296.6z M296.6,51.6v-1.3h-10.5v1.3H296.6z M293.2,38.6v-1.9h-3.8v1.9H293.2z M298,38.6v-1.9
			h-3.7v1.9H298z"/>
		<path class="st0" d="M312.8,46c-0.5-0.3-0.7-0.6-0.7-1c0-0.2,0.1-0.4,0.2-0.6s0.4-0.3,0.7-0.3c0.6,0,0.9,0.4,0.9,1.2
			c0,0.7-0.4,1.3-1.2,1.9l-0.4-0.3C312.6,46.6,312.8,46.3,312.8,46z"/>
		<path class="st0" d="M343.5,52.4H326v-1h6.2V40h-5.8v-1H343v1h-5.8v11.3h6.2V52.4z M330.9,49.2l-1,0.4c-0.6-2.4-1.5-4.8-2.8-7.4
			l0.9-0.4C329.4,44.2,330.3,46.6,330.9,49.2z M332.7,37.9l-0.9,0.7c-0.5-0.8-1.3-1.7-2.4-2.6l0.9-0.6
			C331,35.9,331.8,36.8,332.7,37.9z M336.2,51.4V40h-2.9v11.3H336.2z M340.2,35.8c-0.7,1-1.6,2-2.6,2.8l-0.9-0.7
			c1.3-1,2.1-1.9,2.6-2.7L340.2,35.8z M342.3,42.2c-0.6,2.3-1.6,4.7-2.9,7.4l-0.9-0.4c1.2-2.3,2.2-4.7,2.9-7.3L342.3,42.2z"/>
		<path class="st0" d="M354.1,44.2l-0.8,0.6c-0.4-0.7-1-1.5-1.8-2.4v10.4h-1V42.4c-0.7,2.1-1.5,3.8-2.3,5.2l-0.6-0.9
			c1.2-2.1,2.2-4.3,2.9-6.7h-2.6v-1h2.7v-3.6h1V39h2.1v1h-2.1v1.1C352.6,42.2,353.5,43.3,354.1,44.2z M365.2,52.4H353v-1h1.7V40.3
			h3.3c0.1-0.4,0.3-1.1,0.5-1.9h-5v-1h5.2c0.1-0.6,0.3-1.3,0.4-2.2l1,0.2c-0.1,0.5-0.2,1.1-0.4,1.9h4.8v1h-5
			c-0.1,0.6-0.3,1.3-0.5,1.9h4.2v11.1h1.8V52.4z M362.4,43.1v-1.8h-6.6v1.8H362.4z M362.4,45.8v-1.8h-6.6v1.8H362.4z M362.4,48.6
			v-1.8h-6.6v1.8H362.4z M362.4,51.4v-1.9h-6.6v1.9H362.4z"/>
		<path class="st0" d="M386.9,52.1l-0.7,0.9c-3.8-3.1-6.4-7-7.7-11.9c-1.7,5-4.5,8.9-8.3,11.6l-0.8-0.8c1.3-0.9,2.5-1.9,3.5-3.1
			c1-1.1,1.9-2.4,2.6-3.6c0.7-1.3,1.3-2.7,1.8-4.1c0.5-1.5,0.7-2.4,0.7-2.7l-0.1-1.5H376v-1.1h2.9C379,42.4,381.7,47.8,386.9,52.1z"
			/>
		<path class="st0" d="M408.7,51.5l-0.2,1c-0.7,0-3.1,0-7.2,0c-3.4,0-5.8-0.7-7.2-2.2c-0.8,1.1-1.6,2-2.3,2.7l-0.8-0.7
			c1.9-1.5,3.2-3.7,3.9-6.4h-3.4v-0.9c0.9-1.1,2-2.5,3.1-4.1h-3.5v-1h4.8v1c-0.6,0.8-1.6,2.2-3,4h3v1c-0.4,1.3-0.8,2.5-1.4,3.6
			c0.7,0.7,1.4,1.1,2.2,1.4c0.8,0.3,1.6,0.5,2.5,0.5s2.7,0.1,5.4,0.1C406.7,51.6,408,51.5,408.7,51.5z M395.2,38.4l-0.8,0.7
			c-0.8-1.1-1.8-2.1-2.9-3l0.7-0.7C393.5,36.3,394.5,37.3,395.2,38.4z M408.4,42.9h-11.8v-1h5.5V39h-3.2c-0.6,0.9-1,1.5-1.3,1.9
			l-0.9-0.5c1.1-1.4,1.9-2.9,2.5-4.7l1,0.2c-0.3,0.9-0.5,1.6-0.8,2.2h2.7v-2.7h1V38h4.3v1h-4.3v2.9h5.3V42.9z M407.2,49.4h-9.1v-4.8
			h9.1V49.4z M406.2,48.4v-2.8h-7v2.8H406.2z"/>
		<path class="st0" d="M419.7,39l-0.7,0.7c-0.8-1.1-1.6-1.9-2.4-2.7c-0.7,1.2-1.5,2.3-2.4,3.3h4.8v1h-2.2v2.1h2.5v1h-2.5v6.4
			c0.7-0.1,1.6-0.3,2.4-0.5l0.2,1c-2.6,0.6-4.8,1-6.6,1.3l-0.2-0.9c1.2-0.2,2.2-0.4,3.1-0.6v-6.7h-2.7v-1h2.7v-2.1H414v-0.9
			c-0.2,0.3-0.5,0.5-0.8,0.8l-0.6-0.8c1.4-1.3,2.7-3,3.8-5.2l1,0.4c0,0.1-0.1,0.3-0.2,0.5C418.1,37.1,419,38,419.7,39z M415,49.9
			l-0.9,0.3c-0.2-1.4-0.5-2.9-0.9-4.2l1-0.2C414.5,47.1,414.8,48.5,415,49.9z M419.6,45.9c-0.2,1.2-0.6,2.4-1,3.6l-0.9-0.3
			c0.4-1.1,0.7-2.3,1-3.6L419.6,45.9z M423.6,50.6c-1.2,1-2.5,1.7-3.9,2.2l-0.8-0.8c1.3-0.5,2.6-1.2,3.9-2.2L423.6,50.6z
			 M430.3,49.3h-10.6v-0.9h1.2v-9.2h2.8c0.2-0.6,0.3-1.1,0.3-1.4H420v-0.9h4.3c0.1-0.7,0.2-1.2,0.3-1.5l1,0.2
			c-0.1,0.4-0.2,0.8-0.3,1.4h4.6v0.9h-4.8c-0.1,0.3-0.2,0.8-0.3,1.4h4.1v9.2h1.4V49.3z M427.9,41.4v-1.3h-6v1.3H427.9z M427.9,43.8
			v-1.4h-6v1.4H427.9z M427.9,46.1v-1.4h-6v1.4H427.9z M427.9,48.4V47h-6v1.4H427.9z M430.3,52.1l-0.6,0.8c-1.2-0.8-2.6-1.6-4.1-2.3
			l0.6-0.8C427.7,50.5,429.1,51.3,430.3,52.1z"/>
		<path class="st0" d="M442.8,38.8h-8.3v-1h3.8c-0.3-0.7-0.7-1.4-1.2-2.1l1-0.4c0.4,0.6,0.9,1.5,1.4,2.5h3.3V38.8z M441.8,41.7h-6.4
			v-1h6.4V41.7z M441.8,44.5h-6.4v-1h6.4V44.5z M441.8,52.7h-1v-1h-4.3v1.1h-1v-6.4h6.4V52.7z M440.8,50.7v-3.2h-4.3v3.2H440.8z
			 M452,42.2h-4v10.7h-1.1V42.2h-4v-1.1h4v-5.7h1.1v5.7h4V42.2z"/>
		<path class="st0" d="M473.6,44.9h-17.4v-0.8h8.2V43h-6.8v-0.8h6.8V41H458v-0.8h6.4v-1.1h-8.1v-0.8h8.1v-1.1H458v-0.8h6.4v-1.1h1
			v1.1h6.2v1.9h2v0.8h-2V41h-6.2v1.1h6.8V43h-6.8v1.1h8.2V44.9z M473.6,52.7h-17.4v-0.8h17.4V52.7z M471.4,50.6h-13.2V46h13.2V50.6z
			 M464.4,48v-1.2h-5.1V48H464.4z M464.4,49.9v-1.2h-5.1v1.2H464.4z M470.5,38.4v-1.1h-5.1v1.1H470.5z M470.5,40.3v-1.1h-5.1v1.1
			H470.5z M470.4,48v-1.2h-5.1V48H470.4z M470.4,49.9v-1.2h-5.1v1.2H470.4z"/>
		<path class="st0" d="M483.5,43.9l-0.7,0.7c-0.3-0.7-0.8-1.4-1.4-2.3v10.6h-1v-9.9c-0.6,1.9-1.2,3.3-1.8,4.4l-0.7-0.9
			c1-1.8,1.9-4.1,2.5-6.7H478v-1h2.4v-3.5h1v3.5h1.6v1h-1.6v0.9C482.3,41.9,483,42.9,483.5,43.9z M489.3,49.3l-0.8,0.5
			c-0.1-0.4-0.3-0.7-0.3-0.8c-1.3,0.8-2.7,1.4-4,2l-0.5-0.9c0.2-0.2,0.4-0.4,0.4-0.7V36.1h4.5v8.7H485v4.7c0.7-0.3,1.6-0.7,2.7-1.3
			c-0.2-0.5-0.5-1.1-0.9-1.6l0.8-0.5C488.3,47.3,488.9,48.4,489.3,49.3z M487.5,39.9v-2.8H485v2.8H487.5z M487.5,43.8v-2.9H485v2.9
			H487.5z M495.3,43.5H493c-0.2,0.9-0.4,1.7-0.6,2.5h0.5v5.4c0,0.3,0.2,0.4,0.6,0.4c0.5,0,0.8-0.2,0.8-0.7l0.1-3l0.9,0.4
			c0,2.1-0.1,3.3-0.4,3.7c-0.2,0.4-0.7,0.6-1.5,0.6c-1.1,0-1.6-0.5-1.6-1.4v-4c-0.9,2-2.2,3.9-3.7,5.7l-0.7-0.8
			c2.4-2.8,3.9-5.7,4.5-8.7h-2.4l0.7-6.7h-0.9v-1h5.7v1h-1.2c-0.2,2.1-0.4,4-0.7,5.7h2.2V43.5z M492.8,36.8h-1.5l-0.6,5.7h1.5
			C492.4,40.8,492.6,39,492.8,36.8z"/>
		<path class="st0" d="M517.1,40.4l-0.5,1c-1.9-0.6-3.6-1.3-5.3-2.3V40h-6v-1c-1.3,0.8-3.1,1.6-5.2,2.3l-0.6-0.9
			c3.6-1.1,6.6-2.8,9-5.2l1,0.5c-0.1,0.2-0.3,0.3-0.4,0.5C511.3,38.3,514,39.7,517.1,40.4z M503.2,47.5c-0.8,1.8-1.7,3.3-2.7,4.5
			l-0.9-0.7c1.1-1.2,2-2.6,2.7-4.3L503.2,47.5z M514.8,42.7c-1.9,1.9-5.1,3.2-9.6,3.8l-0.6-1c3.8-0.4,6.7-1.3,8.7-2.8h-11.7v-1.1
			h13.2V42.7z M513,48.8c-0.1,1.2-0.3,2.2-0.5,2.7c-0.2,0.6-0.7,0.9-1.3,1c-0.6,0.1-2.3,0.1-5.1,0.1c-0.5,0-0.8-0.2-1.1-0.5
			c-0.3-0.3-0.4-0.7-0.4-1.2v-3.9h1v3.7c0,0.5,0.3,0.8,0.8,0.8c2.2,0,3.6,0,4.2-0.1c0.6,0,1-0.3,1.1-0.7c0.1-0.4,0.2-1.2,0.3-2.2
			L513,48.8z M511,39c-1-0.7-2-1.4-2.8-2.1c-0.9,0.8-1.8,1.5-2.9,2.1H511z M510.3,49.5l-0.9,0.5c-0.6-1.2-1.3-2.2-1.9-2.9l0.9-0.5
			C509.1,47.4,509.8,48.4,510.3,49.5z M516.9,51.2l-1,0.5c-0.6-1.4-1.5-2.9-2.7-4.6l0.9-0.6C515.1,48,516.1,49.5,516.9,51.2z"/>
		<path class="st0" d="M528,54.6l1.3-5.2h1.6l-1.7,5.2H528z M529.9,40.8c0.3,0,0.6,0.1,0.8,0.3c0.2,0.2,0.3,0.5,0.3,0.8
			s-0.1,0.6-0.3,0.8s-0.5,0.3-0.8,0.3c-0.3,0-0.6-0.1-0.8-0.3c-0.2-0.2-0.3-0.5-0.3-0.8c0-0.3,0.1-0.6,0.3-0.8
			C529.4,40.9,529.6,40.8,529.9,40.8z"/>
		<path class="st0" d="M551.5,49.1H548v3.8h-1.1v-3.8h-4v-1h4v-2.5h-3.5v-1h1.9c-0.2-0.7-0.5-1.8-0.9-3.2h-1.5v-1h4v-2.3h-3.5v-1
			h3.5v-1.8h1.1v1.8h3.1v1h-3.1v2.3h3.5v1h-0.8l-1,3.2h1.5v1H548v2.5h3.6V49.1z M549.5,41.4h-4c0.4,1.3,0.7,2.4,0.9,3.2h2.1
			C548.8,43.7,549.2,42.7,549.5,41.4z M560.5,49.4c-0.1,0.9-0.2,1.7-0.5,2.3c-0.3,0.7-0.6,1-1.1,1c-0.2,0-0.4-0.1-0.6-0.2
			c-0.2-0.1-0.4-0.4-0.5-0.8c-0.2-0.4-0.3-1-0.5-1.7c-0.1-0.7-0.2-1.4-0.2-1.9c0-0.6,0-1.4,0-2.6v-5.8h-2.1c-0.1,2.3-0.2,4-0.5,5.4
			c0.8,1.2,1.5,2.3,1.9,3.2l-0.8,0.7c-0.5-1-0.9-1.8-1.4-2.5c-0.5,2.1-1.5,4.2-3,6.4l-0.9-0.6c1.7-2.3,2.8-4.7,3.2-7
			c-0.9-1.2-1.6-2.1-2.1-2.7l0.8-0.6c0.3,0.3,0.8,1,1.5,1.9c0.2-0.9,0.3-2.3,0.3-4.2h-2.5v-1h2.5c0.1-0.9,0.1-2.1,0.1-3.5h1
			c0,1.4,0,2.6-0.1,3.5h3.1v5.4c0,1.9,0,3.3,0.1,4.1s0.1,1.5,0.3,2.2c0.2,0.7,0.3,1.1,0.3,1.1c0.1,0.1,0.1,0.1,0.1,0.1
			c0.2,0,0.5-0.9,0.8-2.8L560.5,49.4z"/>
		<path class="st0" d="M582.1,50.2h-8.1v1.1c0,0.4-0.1,0.7-0.2,1c-0.2,0.3-0.4,0.4-0.7,0.5c-0.3,0.1-0.9,0.1-1.7,0.1h-1.2l-0.4-1.1
			c0.9,0,1.8,0,2.7,0c0.3,0,0.5-0.1,0.5-0.4v-1.2h-8.2v-1h8.2v-1.4h-7.1v-0.9h7.1v-1.3c-1,0-3,0-6,0l-0.4-1c0.6,0,1.3,0,2,0
			c4.2,0,7.9-0.2,11.2-0.6l0.4,0.9c-1.7,0.2-3.8,0.4-6.1,0.5v1.4h7v0.9h-7v1.4h8.1V50.2z M581.5,42h-1v-3.2h-14.2V42h-1v-4.2h7.6
			v-2.5h1v2.5h7.6V42z M570.1,36.8l-0.8,0.7c-0.6-0.5-1.3-1-2.1-1.4l0.8-0.7C568.8,35.8,569.5,36.3,570.1,36.8z M578.5,43.3h-10.3
			V40h10.3V43.3z M577.5,42.4v-1.4h-8.2v1.4H577.5z M579.6,36c-0.7,0.5-1.4,1-2.2,1.3l-0.9-0.7c0.6-0.2,1.3-0.6,2.2-1.2L579.6,36z"
			/>
		<path class="st0" d="M591.7,43.7l-0.8,0.7c-0.4-0.7-0.8-1.4-1.2-2v10.5h-1v-10c-0.7,2.1-1.4,3.6-1.9,4.6l-0.6-1.1
			c1-1.8,1.9-4,2.5-6.5h-2.3v-1h2.4v-3.7h1V39h1.5v1h-1.5V41C590.4,41.9,591.1,42.8,591.7,43.7z M603.9,49.7c-0.1,1.1-0.3,2-0.6,2.5
			c-0.3,0.6-0.7,0.9-1.1,0.9c-0.9,0-1.8-0.9-2.9-2.7c-1.1,0.9-2.4,1.7-3.9,2.4l-0.7-0.8c1.6-0.6,2.9-1.4,4.1-2.4
			c-0.6-1.2-1-2.4-1.2-3.6H594l-0.1,1.2c1.1,0.6,2.1,1.2,2.8,2l-0.6,0.8c-0.5-0.5-1.3-1.2-2.4-1.8c-0.4,1.9-1.2,3.5-2.5,4.9
			l-0.9-0.6c1.6-1.4,2.5-3.6,2.6-6.4h-1.8v-1h6.3c-0.4-3.2-0.6-6.4-0.6-9.7l1,0c0.1,4.3,0.3,7.5,0.7,9.6h2c-0.1-0.1-0.2-0.4-0.5-0.9
			l0.8-0.3c0.3,0.3,0.5,0.8,0.7,1.3h2.1v1h-5c0.1,0.9,0.5,1.8,0.9,2.8c0.6-0.7,1.2-1.5,1.7-2.4l0.8,0.5c-0.6,1.1-1.3,2-2.1,2.8
			c0.3,0.6,0.6,1.1,1.1,1.6c0.4,0.5,0.8,0.8,1,0.8c0.2,0,0.4-0.2,0.5-0.5c0.2-0.3,0.3-1.1,0.5-2.3L603.9,49.7z M596.8,43.8l-0.9,0.3
			c0-0.2-0.1-0.5-0.2-0.9c-1.4,0.1-2.6,0.3-3.7,0.4l-0.2-0.7c0.9-1,1.6-1.9,2.1-2.8l-2.1,0.3l-0.3-0.9c0.9-1.5,1.6-2.9,2-4.1
			l0.9,0.4c-0.4,0.9-1,2.1-1.8,3.4c0.6-0.1,1.3-0.2,1.9-0.3c0.3-0.4,0.6-1,0.9-1.6l0.9,0.5c-1,1.6-2.1,3.2-3.3,4.6
			c0.7,0,1.4-0.1,2.2-0.2c-0.1-0.5-0.2-0.9-0.4-1.3l0.9-0.2C596.3,41.5,596.6,42.5,596.8,43.8z M603.7,43.7l-0.9,0.3
			c0-0.2-0.1-0.5-0.2-0.9c-1.1,0.1-2.3,0.3-3.6,0.5l-0.3-0.9c0.8-1,1.5-1.9,2.1-2.7c-0.6,0.1-1.2,0.2-2,0.3l-0.3-0.9
			c0.8-1.3,1.5-2.6,2-3.9l0.9,0.4c-0.6,1.2-1.1,2.3-1.7,3.3c0.4-0.1,1-0.2,1.9-0.3c0.2-0.4,0.5-0.8,0.9-1.4l0.9,0.4
			c-0.7,1.2-1.8,2.7-3.2,4.5l2.2-0.3c-0.1-0.5-0.2-0.8-0.4-1.1l0.9-0.3C603.2,41.7,603.5,42.7,603.7,43.7z"/>
		<path class="st0" d="M613.5,46.4c-2,1.1-3.8,2-5.2,2.5l-0.4-1c0.9-0.3,1.8-0.6,2.6-1v-5.7h-2.3v-1h2.3v-4.7h1v4.7h2v1h-2v5.2
			c0.7-0.3,1.3-0.7,1.8-1L613.5,46.4z M625.4,44.1h-7.3c-0.2,0.4-0.5,0.9-0.9,1.4h7.5c0,1.2-0.1,2.4-0.3,3.7
			c-0.1,1.3-0.3,2.1-0.3,2.3c-0.1,0.2-0.2,0.5-0.5,0.7c-0.2,0.2-0.5,0.4-0.8,0.5c-0.3,0.1-0.9,0.2-1.7,0.2c-0.2,0-0.4,0-0.7,0
			l-0.4-1c0.5,0.1,1.1,0.1,1.5,0.1c0.5,0,0.9-0.1,1.1-0.2s0.3-0.3,0.4-0.5c0.1-0.2,0.2-0.8,0.3-1.8c0.1-1,0.2-2,0.2-2.9h-1.2
			c-1.2,2.8-3.4,4.9-6.5,6.4l-0.8-0.7c3-1.4,5.1-3.3,6.1-5.7h-1.8c-1.3,2-3.5,3.7-6.4,5l-0.7-0.8c2.8-1.2,4.8-2.6,6-4.2h-2
			c-0.9,0.8-1.9,1.6-3,2.2l-0.7-0.8c2-1,3.5-2.3,4.4-3.7h-3.8v-1h12.3V44.1z M624,41.8h-9.6v-5.9h9.6V41.8z M623,38.3v-1.4h-7.5v1.4
			H623z M623,40.8v-1.5h-7.5v1.5H623z"/>
		<path class="st0" d="M11.1,84.6c-1.5,1.6-3.3,2.4-5.4,2.4c-1.6,0-2.8-0.4-3.7-1.2s-1.4-1.8-1.4-3.2c0-2.1,1.2-3.6,3.5-4.7
			c-1.2-0.9-1.7-1.9-1.7-3.2c0-1,0.4-1.9,1.1-2.5c0.7-0.6,1.7-1,2.8-1c1.1,0,2,0.3,2.7,0.9c0.7,0.6,1,1.4,1,2.3c0,1.6-1,2.8-2.9,3.5
			c1.5,0.5,2.9,1.9,4.3,4c1.1-1.6,1.7-3.5,1.7-5.7c0-0.5-0.1-1-0.2-1.5h1.6c0.1,0.4,0.1,0.8,0.1,1.4c0,2.4-0.8,4.7-2.4,7.1
			c0.6,0.8,1.1,1.4,1.4,1.7c0.4,0.3,0.8,0.4,1.3,0.4c0.3,0,0.7-0.1,1.3-0.3v1.6c-0.5,0.2-1,0.3-1.6,0.3c-0.7,0-1.2-0.2-1.7-0.5
			C12.4,86.2,11.8,85.5,11.1,84.6z M10.4,83.3c-0.9-1.5-1.7-2.5-2.4-3.1c-0.7-0.6-1.5-1.1-2.5-1.5c-1.1,0.4-1.9,1-2.4,1.6
			s-0.7,1.3-0.7,2.2c0,0.9,0.3,1.7,1,2.2s1.5,0.8,2.5,0.8C7.5,85.5,9.1,84.8,10.4,83.3z M5.7,77.3c0.9-0.3,1.6-0.7,2-1.1
			s0.7-0.9,0.7-1.6c0-0.6-0.2-1.1-0.6-1.5c-0.4-0.4-0.9-0.5-1.5-0.5c-0.7,0-1.3,0.2-1.7,0.6c-0.4,0.4-0.6,0.9-0.6,1.6
			C3.9,75.8,4.5,76.7,5.7,77.3z"/>
		<path class="st0" d="M30.2,86.7h-1.8l-1.6-4.3h-6.5l-1.5,4.3h-1.9l5.8-15.2h1.7L30.2,86.7z M26.1,80.9l-2.4-6.5
			c-0.1-0.2-0.1-0.5-0.2-1h0c-0.1,0.4-0.2,0.8-0.2,1l-2.4,6.5H26.1z"/>
		<path class="st0" d="M40.8,86.7h-8.5v-1.5h3.4V73.3l-3.5,1.1v-1.6l5.2-1.6v14h3.4V86.7z"/>
		<path class="st0" d="M43.8,84.5c1,0.7,2.1,1,3.2,1c1.1,0,1.9-0.3,2.6-0.9c0.7-0.6,1-1.4,1-2.5c0-1-0.3-1.8-1-2.4S47.9,79,46.7,79
			c-0.4,0-1.2,0-2.4,0.1v-7.5h7.3V73h-5.7v4.5c0.6,0,1,0,1.3,0c1.6,0,2.8,0.4,3.7,1.2c0.9,0.8,1.4,1.9,1.4,3.4
			c0,1.5-0.5,2.7-1.5,3.6c-1,0.9-2.3,1.3-3.9,1.3c-1.4,0-2.4-0.2-3.1-0.6V84.5z"/>
		<path class="st0" d="M62.9,74.5h-1.6l0.8,0.6c-0.3,2.5-0.8,5.6-1.6,9.3c0.5-0.1,1.1-0.3,2-0.6v1.1c-3,0.9-5.5,1.6-7.3,2.1L55,85.9
			c0.3-0.1,1-0.2,2-0.5c0-2.8-0.3-6.3-1-10.4l0.9-0.6h-1.6v-1h3.5c-0.1-0.8-0.5-1.8-1.1-3l1-0.4c0.6,1.2,0.9,2.4,1.1,3.4h3V74.5z
			 M61.1,74.5h-4c0.5,3.4,0.9,6.9,1.1,10.6c0.5-0.1,0.9-0.2,1.1-0.3C60.3,80.9,60.9,77.5,61.1,74.5z M72.4,74.8h-5.2v4.6h4.3v8.3h-1
			v-1.4h-6.3v1.4h-1v-8.3h3v-9.2h1v3.5h5.2V74.8z M70.5,85.3v-4.8h-6.3v4.8H70.5z"/>
		<path class="st0" d="M80.1,74.7h-1.7v4.1c0.5-0.2,0.9-0.4,1.3-0.6l0.3,0.9c-0.6,0.3-1.1,0.6-1.7,0.8v6.4c0,0.4-0.1,0.7-0.3,0.9
			s-0.4,0.4-0.7,0.4c-0.3,0-0.8,0.1-1.6,0.1l-0.4-1.1c0.2,0,0.7,0.1,1.3,0.1c0.1,0,0.3-0.1,0.4-0.2c0.1-0.1,0.2-0.3,0.2-0.4v-5.7
			c-0.6,0.3-1.3,0.5-2.1,0.7l-0.3-1c0.8-0.2,1.6-0.5,2.4-0.9v-4.6h-2.3v-1h2.3v-3.5h1v3.5h1.7V74.7z M92.6,86.4l-0.3,1.1
			c-2.8,0-4.6,0-5.5-0.1c-0.9-0.1-1.7-0.3-2.5-0.7c-0.8-0.4-1.5-0.9-2.2-1.6c-0.5,0.9-1.1,1.8-1.7,2.5L79.6,87
			c1.3-1.5,2.2-3.3,2.6-5.2l1,0.3c-0.1,0.5-0.4,1.3-0.7,2.1c0.9,1,1.9,1.7,3,1.9V81h-4.2v-1h4.2v-1.8h-5.1v-1h5.1v-1.7h-4.2v-1h4.2
			V73h-4.8v-1h4.8v-1.7h1v1.7h5.8v1h-5.8v1.5h4.7v2.7h1.3v1h-1.3V81h-4.7v2h5.1v1h-5.1v2.4c1,0.1,2.2,0.2,3.5,0.2
			C90.8,86.5,91.7,86.5,92.6,86.4z M90.2,77.2v-1.7h-3.7v1.7H90.2z M90.2,80v-1.8h-3.7V80H90.2z"/>
		<path class="st0" d="M112.8,86.3l-0.3,1H105c-3.1,0-5.4-0.7-6.8-2.2c-0.7,1-1.4,1.9-2.3,2.7L95,87.1c2-1.7,3.3-3.9,3.7-6.6h-3.3
			v-0.8c1.1-1.4,2.1-2.9,3.1-4.3h-3.4v-0.9h4.7v0.9c-0.9,1.4-1.9,2.8-2.9,4.1h3v1c-0.3,1.4-0.8,2.7-1.3,3.7c0.6,0.7,1.4,1.3,2.4,1.6
			c1,0.4,2.4,0.5,4.2,0.5H112.8z M99.2,72.9l-0.7,0.7c-0.7-0.9-1.6-1.8-2.7-2.8l0.6-0.8C97.4,70.9,98.3,71.9,99.2,72.9z M112.4,83.7
			h-5.5v1.8h-1v-1.8h-5.4v-0.9h5.4v-1.5h-4.4v-5.4h4.4v-1.6h-3.4v-0.8h3.4v-1.2h1v1.2h3.4v0.8h-3.4v1.6h4.4v5.4h-4.4v1.5h5.5V83.7z
			 M111.9,73.9h-1v-2.3h-9v2.3h-1v-3.2h11V73.9z M105.9,78.2v-1.5h-3.4v1.5H105.9z M105.9,80.5V79h-3.4v1.5H105.9z M110.3,78.2v-1.5
			h-3.4v1.5H110.3z M110.3,80.5V79h-3.4v1.5H110.3z"/>
		<path class="st0" d="M132.6,86.8l-0.5,1c-3.2-0.8-6-2.1-8.2-3.7c-2.1,1.6-4.8,2.8-8.1,3.7l-0.6-1c3.3-0.8,5.9-1.9,7.9-3.4
			c-1.3-1.3-2.4-2.9-3.4-4.7l1-0.5c1,1.9,2.1,3.4,3.2,4.5c1.4-1.4,2.5-2.9,3.5-4.5l1,0.5c-1.3,2-2.5,3.6-3.6,4.7
			C126.6,84.8,129.2,86,132.6,86.8z M121.8,75c-1.3,1.7-3.2,3.5-5.7,5.4l-0.7-0.8c2.5-1.8,4.3-3.5,5.6-5.2L121.8,75z M132.4,73.5
			h-17v-1h8.3c-0.2-0.6-0.5-1.2-1-2l1-0.4c0.5,0.8,0.8,1.6,1.1,2.4h7.6V73.5z M132.4,79.7l-0.8,0.7c-1.3-1.7-3.2-3.5-5.5-5.3
			l0.8-0.8C129.2,76.2,131.1,78,132.4,79.7z"/>
		<path class="st0" d="M153,86.3l-0.3,1l-8,0c-2.6,0-4.8-0.7-6.4-2.2c-0.7,1-1.5,1.9-2.3,2.7l-0.8-0.7c1.8-1.5,3.1-3.6,3.9-6.4h-3.4
			v-0.9c1-1.2,2-2.6,3.1-4.2h-3.5v-1h4.9v1l-3,4.1h3.1v1c-0.3,1.2-0.8,2.4-1.4,3.6c0.6,0.6,1.3,1.1,2,1.4c0.8,0.3,1.5,0.5,2.3,0.6
			c0.8,0.1,3.2,0.1,7.2,0.1C151.4,86.3,152.3,86.3,153,86.3z M139.5,73.2l-0.7,0.7c-0.5-0.8-1.5-1.8-2.9-3l0.7-0.8
			C138,71.4,139,72.4,139.5,73.2z M152,83.8c0,0.8-0.6,1.2-1.9,1.2c-0.2,0-0.5,0-0.9,0l-0.3-1l1.5,0c0.1,0,0.2,0,0.3-0.1
			c0.1-0.1,0.2-0.2,0.2-0.3v-2h-3.6V85h-1.1v-3.4h-3.6v3.6h-1.1V74.8h4.4c-0.8-0.6-1.9-1.2-3.2-1.9l0.7-0.7c0.6,0.3,1.5,0.8,2.7,1.5
			c1.7-0.9,2.9-1.6,3.5-2h-8.7v-1h10.4v1c-1.3,1-2.8,1.9-4.3,2.6c0.2,0.2,0.4,0.4,0.5,0.5h4.1V83.8z M146.3,77.6v-1.9h-3.6v1.9
			H146.3z M146.3,80.7v-2.1h-3.6v2.1H146.3z M150.9,77.6v-1.9h-3.6v1.9H150.9z M150.9,80.7v-2.1h-3.6v2.1H150.9z"/>
		<path class="st0" d="M161.5,79.3l-0.8,0.6c-0.7-1.3-1.3-2.3-1.8-2.8v10.7h-1V78c-0.6,1.6-1.3,3-2.1,4.2l-0.7-0.8
			c1-1.5,2-3.5,2.8-6h-2.5v-1h2.5v-4.2h1v4.2h2.1v1h-2.1v0.2C159.9,76.6,160.8,77.9,161.5,79.3z M172.7,71.6h-9.6v14
			c0,0.5,0.3,0.7,0.8,0.7h8.8v0.9h-9.1c-0.4,0-0.7-0.1-1-0.4c-0.3-0.3-0.4-0.7-0.4-1.1V71.6h-0.8v-1h11.5V71.6z M167.6,84.5h-3.2
			v-5.8h3.2V84.5z M171.2,77.2h-6.2v-3.8h6.2V77.2z M166.7,83.6v-4h-1.4v4H166.7z M170.3,76.3v-2H166v2H170.3z M171.9,84.5h-3.2
			v-5.8h3.2V84.5z M171,83.6v-4h-1.4v4H171z"/>
		<path class="st0" d="M177.6,83c-0.3,1.8-0.8,3.4-1.4,4.7l-1-0.4c0.7-1.3,1.1-2.8,1.4-4.7L177.6,83z M183,81.9l-1,0.4
			c-0.1-0.4-0.3-0.8-0.4-1.3c-2.1,0.6-4,0.9-5.7,1.2l-0.4-0.9c1.3-1.4,2.7-3,4-4.8c-1.2,0.2-2.4,0.4-3.6,0.5l-0.3-0.9
			c1.8-2,3-4,3.9-6l1,0.4c-0.8,1.8-1.9,3.6-3.4,5.4c1-0.1,2-0.2,3.2-0.4c0.6-0.9,1.1-1.6,1.4-2.3l1,0.4c-1.5,2.6-3.3,5-5.5,7.4
			c1.1-0.2,2.4-0.4,3.9-0.9c-0.1-0.4-0.4-0.8-0.7-1.3l1-0.5C182.1,79.5,182.7,80.7,183,81.9z M180,87.2l-1,0.1
			c0-1.6-0.1-3.1-0.5-4.4l0.9-0.1C179.9,84.3,180,85.8,180,87.2z M182.7,85.2l-1,0.3c-0.2-0.8-0.6-1.7-1.2-2.7l0.9-0.3
			C181.9,83.2,182.4,84.1,182.7,85.2z M192.8,87.2h-10.6v-1h3l0.5-7.1H183l0-1h2.7l0.4-6.4H183v-1h8.4l-0.3,7.4h1.7v1h-1.7l-0.3,7.1
			h2V87.2z M190,79.1h-3.3l-0.5,7.1h3.6L190,79.1z M190.3,71.6h-3.1l-0.4,6.4h3.3L190.3,71.6z"/>
		<path class="st0" d="M203.8,80.8c-0.5-0.3-0.7-0.6-0.7-1c0-0.2,0.1-0.4,0.2-0.6c0.2-0.2,0.4-0.3,0.7-0.3c0.6,0,0.9,0.4,0.9,1.2
			c0,0.7-0.4,1.3-1.2,1.9l-0.4-0.3C203.6,81.4,203.8,81.1,203.8,80.8z"/>
		<path class="st0" d="M222.4,82.8c-1.5,1.9-3.7,3.6-6.4,5.1l-0.7-0.9c2.7-1.5,4.7-3.1,6.1-4.8L222.4,82.8z M232.9,81.3h-17.5v-1
			h4.6v-5.1h-3.8v-1h3.8v-4h1.1v4h6.1v-4h1.1v4h3.9v1h-3.9v5.1h4.6V81.3z M227.1,80.3v-5.1h-6.1v5.1H227.1z M232.5,87l-0.8,0.8
			c-1.3-1.4-3.2-3-5.7-4.8l0.8-0.8C229,83.7,230.9,85.3,232.5,87z"/>
		<path class="st0" d="M252.8,84h-7.8v2.3c0,0.4-0.1,0.7-0.4,0.9s-0.6,0.3-1,0.3h-3.1l-0.4-1h3.3c0.1,0,0.3-0.1,0.4-0.2
			c0.1-0.1,0.2-0.3,0.2-0.4V84h-8.6v-1h8.6V82c1.6-0.4,2.9-0.8,4.1-1.2h-11.5v-1h14v1c-1.7,0.6-3.5,1.3-5.5,1.9V83h7.8V84z
			 M252.6,72.9h-17.1v-1h8.1c-0.2-0.4-0.6-0.9-1-1.4l0.9-0.5c0.4,0.5,0.9,1.1,1.3,1.9h7.8V72.9z M250.6,78.2h-13v-3.7h13V78.2z
			 M249.6,77.2v-1.7h-10.9v1.7H249.6z"/>
		<path class="st0" d="M273,77.6h-17.4v-0.9h8.2V75H257v-0.9h6.8v-1.5h-7.4v-0.9h7.4v-1.4h1v1.4h7.5v0.9h-7.5v1.5h6.8V75h-6.8v1.6
			h8.2V77.6z M270.7,86.3c0,0.6-0.2,1-0.6,1.2c-0.4,0.2-1.2,0.3-2.5,0.3c-0.3,0-0.6,0-0.9,0l-0.4-1c0.4,0,0.9,0,1.3,0
			c1,0,1.6,0,1.8-0.1c0.2-0.1,0.2-0.3,0.2-0.5v-1.3h-10.8c-0.4,1.2-1.1,2.2-1.9,3l-0.8-0.8c1.4-1.4,2.1-3.2,2.1-5.6v-2.4h12.5V86.3z
			 M269.6,83.9v-1.4h-10.4c0,0.6-0.1,1.1-0.2,1.4H269.6z M269.6,81.5V80h-10.3v1.5H269.6z"/>
		<path class="st0" d="M281.1,83.6c-1.6,0.8-3.4,1.6-5.4,2.3l-0.3-1c0.8-0.2,1.6-0.5,2.4-0.9v-7.5h-2.2v-1h2.2v-5.2h1.1v5.2h2.1v1
			h-2.1v7c0.6-0.3,1.3-0.6,2-1L281.1,83.6z M293,73.5h-5.4v2h4.5v10.6c0,0.4-0.1,0.7-0.3,1c-0.2,0.3-0.5,0.5-0.9,0.5
			c-0.4,0-0.7,0-1.1,0h-0.6l-0.4-1l1.8,0c0.3,0,0.5-0.2,0.5-0.6v-2.7h-3.4v4.2h-1v-4.2H283v4.3h-1V75.5h4.6v-2H281v-1h5.5v-2.3h1
			v2.3h5.4V73.5z M286.5,78.9v-2.3H283v2.3H286.5z M286.5,82.4v-2.4H283v2.4H286.5z M291,78.9v-2.3h-3.4v2.3H291z M291,82.4v-2.4
			h-3.4v2.4H291z M291.7,71.7l-0.8,0.7c-0.5-0.6-1-1-1.6-1.4l0.7-0.7C290.6,70.7,291.2,71.1,291.7,71.7z"/>
		<path class="st0" d="M302.6,79.3l-2.2,1.4v7.2h-1v-6.6c-1.3,0.7-2.5,1.2-3.5,1.7l-0.4-1c1.4-0.6,2.8-1.2,3.9-1.9v-4.4h-2
			c-0.3,1.3-0.6,2.4-0.9,3.3l-0.9-0.4c0.6-1.8,1.1-3.9,1.4-6.3l1,0.2c-0.1,0.6-0.2,1.4-0.3,2.2h1.8v-4.4h1v4.4h2.1v1h-2.1v3.8
			c0.7-0.4,1.4-0.8,2.1-1.3L302.6,79.3z M313,81.1h-2.3v5.7c0,0.3-0.1,0.5-0.3,0.7c-0.2,0.2-0.5,0.3-0.9,0.3s-0.9,0.1-1.7,0.1
			c-0.4,0-0.8,0-1.1,0l-0.3-1c0.8,0,1.5,0.1,2,0.1c0.7,0,1,0,1.2-0.1s0.2-0.3,0.2-0.5v-5.1h-7.5v-1h7.5v-1.9h1v1.9h2.3V81.1z
			 M312.5,73.7h-4.3v2.8h3.8v1h-8.8v-1h4v-2.8h-4.9v-1h4.9v-2.3h1v2.3h4.3V73.7z M306.7,85l-0.9,0.6c-0.5-1.1-1.2-2.2-2.2-3.3
			l0.9-0.6C305.5,82.7,306.2,83.9,306.7,85z"/>
		<path class="st0" d="M333,87.3h-14c-0.6,0-1.1-0.2-1.5-0.6c-0.4-0.4-0.6-0.9-0.6-1.6V71.7h-1.2v-1h17v1h-14.7v13.5
			c0,0.3,0.1,0.5,0.4,0.7s0.5,0.3,0.7,0.3h14V87.3z M324.6,84.4h-5.3v-5h5.3V84.4z M323.6,83.4v-3h-3.1v3H323.6z M329.3,77.6h-8.2
			v-4.3h8.2V77.6z M328.3,76.6v-2.3h-6.1v2.3H328.3z M331.7,84.4h-5.2v-5h5.2V84.4z M330.6,83.4v-3h-3.1v3H330.6z"/>
		<path class="st0" d="M352.2,87.7h-1v-1.4h-13.6v1.4h-1V70.6h15.6V87.7z M351.2,85.3V71.6h-13.6v13.8H351.2z M344.6,82.3
			c-2.5,0.7-4.5,1.2-6,1.4l-0.1-1c1.6-0.2,3.6-0.6,6.1-1.3L344.6,82.3z M350.6,81.7c-0.2,0.7-0.4,1.3-0.7,1.8
			c-0.3,0.5-0.5,0.8-0.7,1s-0.4,0.2-0.7,0.2c-0.6,0-1.2-0.7-1.9-2.1c-0.7,0.8-1.4,1.5-2.2,2.1l-0.8-0.7c0.8-0.6,1.7-1.4,2.5-2.5
			c-0.7-1.9-1.1-4-1.2-6.3h-6.5v-0.9h6.4c0-0.6,0-1.3,0-2.1h1c0,0.6,0,1.3,0,2.1h4.4v0.9h-4.4c0.2,2.2,0.5,3.9,0.9,5.3
			c0.7-1.2,1.4-2.5,2-4.1l0.9,0.4c-0.7,1.7-1.5,3.3-2.5,4.8c0.2,0.6,0.5,1,0.7,1.4c0.2,0.4,0.4,0.5,0.5,0.5c0.3,0,0.7-0.8,1.2-2.4
			L350.6,81.7z M343.7,80.7h-4.4v-3.9h4.4V80.7z M342.7,79.7v-1.9h-2.3v1.9H342.7z M349.2,73.6l-0.9,0.4c-0.3-0.5-0.6-0.9-1-1.4
			l0.9-0.5C348.6,72.6,349,73.1,349.2,73.6z"/>
		<path class="st0" d="M359.5,76.5c1.1,1.4,1.7,2.8,1.7,4.2c0,0.7-0.2,1.3-0.7,1.7c-0.5,0.4-1,0.6-1.7,0.6c-0.1,0-0.3,0-0.4,0
			l-0.4-1c0.9,0,1.5,0,1.8-0.3c0.3-0.2,0.4-0.6,0.4-1c0-1.4-0.6-2.8-1.8-4.1c0.5-1.4,1-3.1,1.5-5h-2.4v16.1h-1v-17h4.6v1
			C360.5,73.5,360,75.1,359.5,76.5z M365.6,83.2c-1.1,1.3-2.4,2.6-3.9,3.6l-0.7-0.8c1.3-0.8,2.5-2,3.9-3.5L365.6,83.2z M361.5,76.6
			l-0.3-0.9c0.9-0.2,1.7-0.5,2.4-0.9l0.3,0.9C363.6,75.9,362.8,76.2,361.5,76.6z M367.6,71.9c-0.7,3.2-2.6,5.6-5.8,7.2l-0.5-0.8
			c1.7-0.8,3-1.8,3.8-3c-0.5-0.5-1.2-1.1-2-1.6c-0.3,0.3-0.6,0.7-1,1l-0.8-0.7c1.4-1.3,2.3-2.6,2.8-3.8l0.9,0.4l-0.3,0.8L367.6,71.9
			z M372.5,81.3h-4.6v6.4h-1v-6.4H362v-1h10.6V81.3z M366.4,72.7l-2.3-0.4c-0.2,0.3-0.3,0.5-0.4,0.7c0.8,0.5,1.4,1,1.9,1.5
			C365.9,73.8,366.2,73.2,366.4,72.7z M369.8,78.5h-4.9v-1h4.9V78.5z M373.3,78.3l-0.6,0.8c-2.6-1.8-4.1-3.7-4.7-5.8l0.8-0.3
			c0.3,0.7,0.6,1.4,1,2c0.8-0.8,1.4-1.8,1.9-3.1h-3.5V71h4.5v1c-0.4,1.3-1.2,2.6-2.3,3.8C371.1,76.6,372.1,77.5,373.3,78.3z
			 M373.1,86.3l-0.8,0.6c-0.7-1.3-1.7-2.5-2.9-3.8l0.8-0.6C371.3,83.6,372.3,84.8,373.1,86.3z"/>
		<path class="st0" d="M382.2,84.2c-1.1,1-3,2.1-5.7,3.2l-0.7-0.9c2.3-0.8,4.2-1.8,5.7-2.9L382.2,84.2z M393,82.3h-8v5.4h-1.1v-5.4
			h-8v-1h8v-1.7h1.1v1.7h8V82.3z M384,76.1l-0.6,0.8c-1.2-1-2.2-1.7-3.1-2.1c-0.6,1-1.7,1.7-3.4,2.3l-0.6-0.9
			c0.9-0.3,1.7-0.7,2.3-1.1s1.1-1,1.3-1.7c0.2-0.7,0.3-1.7,0.3-3.1h1c0,0.5,0,1.2-0.1,2.1c0.7-0.4,1.5-0.9,2.3-1.5l0.6,0.8
			c-0.9,0.8-1.9,1.4-3.2,1.9l-0.1,0.2C382.2,74.7,383.3,75.5,384,76.1z M378.7,73.1l-0.9,0.5c-0.3-0.6-0.7-1.4-1.4-2.5l0.8-0.5
			C377.8,71.4,378.3,72.2,378.7,73.1z M392.5,80.4h-1v-1.8h-14v1.8h-1.1v-2.8h16.1V80.4z M392.8,76.2l-0.6,0.8
			c-1.1-0.8-2.3-1.5-3.7-2.2c-0.7,0.8-1.8,1.6-3.4,2.1l-0.6-0.9c1.6-0.6,2.6-1.3,3.2-1.9c0.5-0.7,0.7-1.9,0.7-3.8h1
			c0,0.7,0,1.4-0.1,2.2c0.8-0.3,1.7-0.9,2.9-1.8l0.7,0.7c-1.1,0.9-2.3,1.6-3.7,2.2c-0.1,0.1-0.1,0.2-0.1,0.3
			C390.6,74.7,391.9,75.5,392.8,76.2z M387.1,73.1l-0.9,0.5c-0.4-0.9-0.8-1.7-1.3-2.5l0.9-0.5C386.2,71.3,386.7,72.1,387.1,73.1z
			 M393.1,86.6l-0.6,0.8c-1.3-1-3.3-2-5.7-3.1l0.8-0.8C390.3,84.8,392.1,85.8,393.1,86.6z"/>
		<path class="st0" d="M413.2,78.2h-17.4v-1h8.2c-0.2-0.6-0.5-1.1-0.8-1.5h-5.3v-5.1h13.4v5.1h-6.8c0.2,0.4,0.5,0.9,0.7,1.5h8.1
			V78.2z M401.4,84.3c-1.1,1.1-2.6,2-4.6,2.9l-0.7-0.9c2-0.9,3.6-1.8,4.5-2.8L401.4,84.3z M411.2,82.9H405v3.5
			c0,0.4-0.2,0.7-0.5,0.9c-0.3,0.2-0.9,0.3-1.8,0.3h-1.3l-0.3-1l2.4,0c0.1,0,0.2-0.1,0.3-0.2c0.1-0.1,0.2-0.2,0.2-0.3v-3.2h-6.2
			v-3.6h13.4V82.9z M410.2,72.7v-1.1h-11.3v1.1H410.2z M410.2,74.8v-1.2h-11.3v1.2H410.2z M410.2,82v-1.6h-11.3V82H410.2z
			 M412.7,86.4l-0.7,0.8c-1.1-0.9-2.6-1.8-4.3-2.7l0.8-0.7C410.2,84.7,411.7,85.5,412.7,86.4z"/>
		<path class="st0" d="M433.2,83.1h-17.4v-1h1.5l-0.1-10.4c1.1-0.2,2.4-0.7,4-1.5l0.5,0.9c-1.1,0.5-2.2,1-3.5,1.3c0,0.9,0,1.6,0,2.3
			h3v1h-3c0,0.9,0,1.8,0,2.6h2.9v1h-2.8v2.7h12.4c0-1.6,0.1-2.5,0.1-2.7H428v-1h2.8c0-0.4,0-1.3,0-2.6H428v-1h2.8
			c0-0.5,0.1-1.1,0.1-1.7c0-0.3,0-0.6,0-0.9h-2.7v-1h3.8c-0.1,5.3-0.1,8.9-0.2,11h1.5V83.1z M422.5,84.7c-1.7,1.3-3.6,2.3-5.7,3
			l-0.7-0.9c2.2-0.7,4.1-1.6,5.6-2.8L422.5,84.7z M423.6,76.8c-0.3,2-0.9,3.6-1.7,4.8L421,81c0.8-1,1.4-2.5,1.6-4.4L423.6,76.8z
			 M427.2,72.5h-3.4c-0.1,0.8-0.2,1.5-0.3,2.1h3.7c-0.1,3.6-0.3,5.6-0.6,6.2c-0.3,0.5-0.9,0.8-1.6,0.8c-0.4,0-0.7,0-0.8,0l-0.3-1
			c0.5,0,0.8,0,1.1,0c0.5,0,0.9-0.2,1-0.6c0.1-0.4,0.2-1.9,0.3-4.4h-3.9c0.2-1.1,0.5-3,0.9-5.5l1,0.1c0,0.4-0.1,0.9-0.2,1.4h3.3
			V72.5z M433,86.8l-0.8,0.7c-1.6-1.1-3.5-2-5.5-2.8l0.7-0.8C429.8,85,431.7,86,433,86.8z"/>
		<path class="st0" d="M450.4,84.9h-8l0.5,0.7c-2.1,1-4.3,1.8-6.6,2.3l-0.5-0.9c2.1-0.4,4.2-1,6.1-2h-3.1v-7.3h11.5V84.9z
			 M441.6,75.7H436v-1h5.6V75.7z M441.5,72h-5.1v-1h5.1V72z M449.4,79.6v-1.1h-9.4v1.1H449.4z M449.4,81.8v-1.2h-9.4v1.2H449.4z
			 M449.4,83.9v-1.3h-9.4v1.3H449.4z M453.4,76.3l-0.4,1c-2.6-0.4-4.6-1.2-6-2.3c-1.1,1.1-2.7,1.9-4.6,2.3l-0.5-1
			c2.5-0.4,4.2-1.4,5.1-3l1.1,0.2c0,0.2-0.2,0.4-0.5,0.8C448.9,75.3,450.9,76,453.4,76.3z M453,72.6c-0.7,1-1.3,1.7-1.9,2.3
			l-0.8-0.7c0.5-0.5,1-1.1,1.5-1.7h-7.3c-0.5,0.7-1.2,1.3-1.8,1.8l-0.7-0.7c1.1-0.9,2.1-2,2.9-3.5l1,0.3l-0.6,1.1h7.8V72.6z
			 M453.3,86.9l-0.5,0.9c-2-0.7-3.9-1.3-5.8-1.7l0.5-0.9C449.6,85.7,451.5,86.3,453.3,86.9z"/>
		<path class="st0" d="M459.4,81.1c-0.8,2.3-1.8,4.4-2.8,6.4l-0.8-0.8c1-1.9,1.8-3.9,2.6-6.1L459.4,81.1z M459.7,77.8l-0.7,0.8
			c-1.4-1.1-2.5-1.9-3.2-2.3l0.8-0.8C457.7,76.2,458.8,77,459.7,77.8z M460.1,73l-0.8,0.8c-1.2-1.1-2.3-1.9-3.2-2.5l0.8-0.8
			C458.1,71.4,459.2,72.2,460.1,73z M473.4,71.8h-4.7c-0.1,0.6-0.3,1.3-0.6,2.1h4.4v6.9h-3.9v5.4c0,0.4-0.1,0.7-0.4,1
			s-0.8,0.5-1.8,0.5c-0.3,0-0.7,0-1-0.1l-0.3-1c0.5,0.1,0.9,0.1,1.4,0.1c0.5,0,0.8,0,0.9-0.1c0.1-0.1,0.2-0.2,0.2-0.3v-5.5h-3.7
			v-6.9h3.2c0.2-0.5,0.4-1.2,0.6-2.1h-5.4v6.5c0,3.6-0.9,6.7-2.6,9.5l-0.9-0.8c0.7-0.9,1.3-2.2,1.7-3.7c0.4-1.6,0.7-3.8,0.7-6.9
			v-5.6h12.3V71.8z M466,82.7c-1.3,1.8-2.4,3-3.4,3.9l-0.7-0.8c1.3-1.3,2.4-2.6,3.3-3.9L466,82.7z M471.4,76.8v-1.9h-6.5v1.9H471.4z
			 M471.4,79.8v-2.1h-6.5v2.1H471.4z M473.5,85.9l-0.8,0.8c-0.8-1.3-1.7-2.6-2.8-3.9l0.8-0.7C471.9,83.5,472.8,84.7,473.5,85.9z"/>
		<path class="st0" d="M484.4,80.8c-0.5-0.3-0.7-0.6-0.7-1c0-0.2,0.1-0.4,0.2-0.6c0.2-0.2,0.4-0.3,0.7-0.3c0.6,0,0.9,0.4,0.9,1.2
			c0,0.7-0.4,1.3-1.2,1.9l-0.4-0.3C484.2,81.4,484.4,81.1,484.4,80.8z"/>
		<path class="st0" d="M496,84.3c1,0.8,2.2,1.2,3.5,1.2c1,0,1.9-0.3,2.5-0.8c0.7-0.5,1-1.3,1-2.2c0-2-1.4-3-4.3-3h-1.3v-1.4h1.2
			c2.5,0,3.8-0.9,3.8-2.8c0-1.8-1-2.6-2.9-2.6c-1.1,0-2.1,0.4-3,1.1v-1.6c1-0.6,2.1-0.9,3.4-0.9c1.2,0,2.2,0.3,3,1
			c0.8,0.7,1.2,1.5,1.2,2.6c0,2-1,3.3-3,3.9v0c1.1,0.1,1.9,0.5,2.6,1.1c0.7,0.7,1,1.5,1,2.5c0,1.4-0.5,2.5-1.5,3.3s-2.3,1.2-3.8,1.2
			c-1.4,0-2.6-0.3-3.4-0.8V84.3z"/>
		<path class="st0" d="M525.1,73.2h-14.6v4.7c0,4.1-0.7,7.4-2.1,9.9l-0.9-0.7c1.3-2.3,2-5.4,2-9.3v-5.6h7.5
			c-0.2-0.5-0.5-1.1-0.9-1.7l1-0.4c0.4,0.8,0.8,1.5,1,2.2h6.9V73.2z M525.1,86.3v1h-14.7v-1h7v-2.9h-6.1v-1h6.1V74l1,0v8.3h6v1h-6
			v2.9H525.1z M516.9,80.4l-0.7,0.7c-0.6-1.1-1.4-2-2.2-2.8c-0.7,1.3-1.4,2.3-2,2.9l-0.8-0.7c1.5-1.5,2.5-3.5,3.1-5.9l1,0.3
			c-0.2,0.7-0.5,1.5-0.9,2.4C515.6,78.5,516.4,79.6,516.9,80.4z M524.9,80.3l-0.7,0.8c-0.8-1.2-1.7-2.1-2.6-2.8
			c-0.5,1.2-1.2,2.1-1.9,3l-0.7-0.8c1.4-1.6,2.3-3.6,2.7-5.9l1,0.3c-0.1,0.8-0.4,1.6-0.7,2.4C523.3,78.4,524.2,79.4,524.9,80.3z"/>
		<path class="st0" d="M545.2,87l-0.7,0.9c-2.3-1.2-4.1-2.5-5.3-3.9c-1.2-1.4-2.1-3.2-2.8-5.4c-0.8,3.8-3.5,6.9-8.1,9.3l-0.8-0.9
			c4.6-2.2,7.2-5.4,7.9-9.3h-7.4v-1h7.6c0.2-1.3,0.3-2.9,0.4-5h-6.9v-1h14.7v1h-6.7c0,1.9-0.1,3.6-0.3,5h7.9v1h-7.4
			c0.5,2.2,1.4,4,2.6,5.4C541.1,84.6,542.9,85.8,545.2,87z"/>
		<path class="st0" d="M556.6,72c-0.5,3-1.5,5.3-3,6.8c-1.5,1.5-3.3,2.6-5.4,3.3l-0.5-0.9c2.7-0.9,4.7-2.3,6-4.2
			c-0.8-0.8-1.7-1.6-2.8-2.4c-1,1.2-1.8,2-2.5,2.5l-0.7-0.7c1.8-1.2,3.4-3.3,4.6-6.2l1,0.3c-0.1,0.4-0.4,0.9-0.7,1.5H556.6z
			 M551.4,83.3c-1,1.8-2,3.3-3,4.4l-0.8-0.7c1-1,1.9-2.4,2.9-4.2L551.4,83.3z M552,77.8c-1.1,0.5-2.2,0.8-3.2,1.1l-0.3-0.9
			c1.3-0.4,2.4-0.8,3.2-1.2L552,77.8z M555.3,73h-3.4c-0.1,0.2-0.3,0.5-0.5,0.9c0.9,0.6,1.9,1.4,2.8,2.2
			C554.7,75.2,555.1,74.2,555.3,73z M555.2,87.4l-1.1,0.3c-0.1-1.7-0.3-3.2-0.6-4.4l1-0.3C554.9,84.4,555.1,85.9,555.2,87.4z
			 M564.7,75.8h-4.4c-0.4,3-2.3,5.1-5.7,6.3l-0.6-0.9c3.2-1.1,5-2.9,5.2-5.4h-2.6v-1h2.7c0.1-1,0.2-2.6,0.2-4.7h1
			c0,1.6-0.1,3.2-0.2,4.7h4.3V75.8z M560.1,87.3l-1,0.4c-0.3-1.3-0.8-2.7-1.6-4.4l1-0.4C559.1,84.3,559.7,85.7,560.1,87.3z
			 M565.2,81.4l-0.8,0.8c-0.9-1.4-2.1-2.8-3.7-4.1l0.8-0.6C562.8,78.5,564,79.9,565.2,81.4z M564.2,73.3l-0.9,0.5
			c-0.5-1-1-1.8-1.6-2.5l0.9-0.5C563.3,71.6,563.9,72.4,564.2,73.3z M565.1,87.3l-1,0.5c-0.5-1.4-1.3-2.9-2.4-4.5l0.9-0.5
			C563.6,84.3,564.4,85.8,565.1,87.3z"/>
		<path class="st0" d="M571.4,78l-0.7,0.7c-0.9-1.1-1.9-2.1-2.9-2.8l0.7-0.7C569.8,76.2,570.8,77.2,571.4,78z M571.6,81.2
			c-0.9,2.5-1.9,4.6-3,6.5l-0.8-0.6c1.3-2.3,2.3-4.4,3-6.4L571.6,81.2z M571.9,72.8l-0.7,0.8c-1-1.1-2-1.9-3-2.6l0.6-0.8
			C569.9,70.8,570.9,71.7,571.9,72.8z M578.8,74.9h-3v3.6h2.1v7h-1v-0.8h-3.2v1.3h-1v-7.4h2.2v-3.6h-2.9v-1h2.9v-3.6h1v3.6h3V74.9z
			 M576.8,83.6v-4.1h-3.2v4.1H576.8z M584.5,86.2c0,0.4-0.1,0.7-0.2,0.9c-0.2,0.2-0.4,0.4-0.6,0.5s-0.7,0.1-1.3,0.1
			c-0.2,0-0.6,0-1,0l-0.4-1.1c0.3,0,0.7,0,1.2,0c0.6,0,1,0,1.1-0.1s0.2-0.2,0.2-0.3v-6.8c-0.7,0.8-1.6,1.5-2.5,2.3l-0.5-0.5
			c-0.3,2.9-0.9,5.1-1.9,6.6l-0.8-0.6c1.2-2.1,1.8-5,1.8-8.7v-7.8h4.9V86.2z M583.5,78.1v-1.3l-0.7,0.6c-0.6-1.1-1.3-2.1-2.1-2.9v4
			c0,0.8,0,1.5-0.1,2.3C581.6,80.1,582.6,79.2,583.5,78.1z M583.5,76.5v-4.8h-2.8v2.4l0.6-0.5C582.3,74.6,583,75.6,583.5,76.5z"/>
		<path class="st0" d="M598.4,80.2l-0.7,0.8c-1-1.1-2-2-3.2-2.9l0.7-0.8C596.6,78.3,597.6,79.2,598.4,80.2z"/>
		<path class="st0" d="M624.3,87.7h-1.1v-1.3h-13.3v1.4h-1v-17h15.4V87.7z M623.2,85.3V71.7h-3.9v8.1c0,0.2,0.1,0.4,0.4,0.4h2.6v1.1
			h-2.8c-0.4,0-0.7-0.1-1-0.4c-0.3-0.3-0.4-0.6-0.4-1v-8.1h-3.3v2.8c0,2-0.3,3.7-0.8,5c-0.5,1.3-1.4,2.5-2.5,3.6l-0.9-0.7
			c1.1-0.9,1.9-2,2.4-3.2c0.5-1.2,0.8-2.7,0.8-4.5v-2.9h-3.9v13.5H623.2z"/>
		<path class="st0" d="M18.1,108H3.6v4.7c0,4.1-0.7,7.4-2.1,9.9l-0.9-0.7c1.3-2.3,2-5.4,2-9.3V107h7.5c-0.2-0.5-0.5-1.1-0.9-1.7
			l1-0.4c0.4,0.8,0.8,1.5,1,2.2h6.9V108z M18.1,121.1v1H3.4v-1h7v-2.9H4.3v-1h6.1v-8.3l1,0v8.3h6v1h-6v2.9H18.1z M9.9,115.2
			l-0.7,0.7c-0.6-1.1-1.4-2-2.2-2.8c-0.7,1.3-1.4,2.3-2,2.9l-0.8-0.7c1.5-1.5,2.5-3.5,3.1-5.9l1,0.3c-0.2,0.7-0.5,1.5-0.9,2.4
			C8.6,113.3,9.4,114.4,9.9,115.2z M17.9,115.1l-0.7,0.8c-0.8-1.2-1.7-2.1-2.6-2.8c-0.5,1.2-1.2,2.1-1.9,3l-0.7-0.8
			c1.4-1.6,2.3-3.6,2.7-5.9l1,0.3c-0.1,0.8-0.4,1.6-0.7,2.4C16.3,113.2,17.3,114.2,17.9,115.1z"/>
		<path class="st0" d="M28,105.4c-1.2,3.6-3.3,6.6-6.4,8.8l-0.8-0.8c2.9-2,5-4.8,6.1-8.3L28,105.4z M37.1,122.2l-0.9,0.5
			c-0.4-1-0.8-1.9-1.2-2.5c-3.8,1-7.5,1.6-11.3,2l-0.3-1c2-2.4,4-5.8,5.9-10.3l1,0.4c-1.7,4-3.5,7.2-5.3,9.7
			c2.6-0.2,5.7-0.8,9.5-1.7c-0.6-1.1-1.4-2.3-2.4-3.7l0.9-0.5C34.8,117.5,36.2,119.9,37.1,122.2z M38.6,113.2l-0.7,0.9
			c-2.4-1.6-4.3-4.1-5.8-7.7h-1.3v-1.1H33C34.2,108.9,36.1,111.5,38.6,113.2z"/>
		<path class="st0" d="M58.1,122.5h-1v-1H43.3v1h-1v-17h15.8V122.5z M57.1,120.5v-14.1H43.3v14.1H57.1z M54.8,115.5h-5
			c-0.3,0.4-0.8,0.9-1.5,1.5v1.8c0.8-0.2,1.7-0.4,2.6-0.7l0.1,0.9c-1.2,0.4-2.4,0.7-3.7,1l-0.4-0.9c0.2-0.1,0.3-0.3,0.3-0.5v-0.9
			c-1.3,0.7-2.3,1.1-3.1,1.3l-0.6-0.9c2-0.5,3.6-1.3,4.8-2.6h-3v-3.2h9.3V115.5z M56.1,111.1H44.2v-0.9h5.5v-1.3H45V108h4.7v-1h1v1
			h4.7v0.9h-4.7v1.3h5.5V111.1z M53.8,114.6v-1.4h-7.3v1.4H53.8z M56.1,119.1l-0.6,0.7c-1.4-1-3.1-2-5.2-3l0.6-0.8
			c0.7,0.3,1.4,0.7,2.2,1.1c0.5-0.3,0.9-0.7,1.4-1.2l0.7,0.6c-0.5,0.5-1,0.9-1.3,1.1C54.6,118.1,55.3,118.6,56.1,119.1z"/>
		<path class="st0" d="M72.5,115l-0.7,0.8c-1-1.1-2-2-3.2-2.9l0.7-0.8C70.6,113.1,71.7,114.1,72.5,115z"/>
		<path class="st0" d="M94.2,117.4v4.1h-1.6v-4.1H85v-1.1l7.2-10h2v9.8h2.1v1.3H94.2z M92.5,107.9c-0.4,0.9-2.3,3.6-5.8,8.2h5.8
			v-7.4C92.6,108.4,92.6,108.1,92.5,107.9L92.5,107.9z"/>
		<path class="st0" d="M119.6,108.6c-0.5,1.4-0.9,2.5-1.5,3.4l-1-0.3c0.5-0.9,0.8-1.6,1-2.1h-7.3v1.4l5.4-0.4l0.1,1l-5.4,0.4v0.8
			c0,0.1,0,0.2,0.1,0.3c0.1,0.1,0.2,0.2,0.3,0.2h6.7v1h-6.9c-0.9,0-1.3-0.4-1.3-1.2v-1l-3.1,0.2l-0.1-1l3.2-0.2v-1.5h-4.2v3.8
			c0,3.2-0.6,6.1-1.9,8.8l-1-0.6c1.3-2.4,1.9-5.1,1.9-8.1v-4.9h5.6v-3.5h1.1v1.1h7.6v1h-7.6v1.4H119.6z M120.3,121.2l-0.3,1
			c-4.1-0.1-6.6-0.1-7.6-0.2s-1.9-0.4-2.8-0.9c-1.2,0.8-2.2,1.3-3,1.6l-0.8-0.8c1.2-0.4,2.2-0.8,3-1.4c-0.5-0.5-1-1.2-1.4-1.8
			c-0.3,0.4-0.8,0.8-1.2,1.1l-0.7-0.7c1.4-1.1,2.4-2.7,3.1-4.9l1,0.3c-0.2,0.5-0.3,1-0.5,1.4h3.4v1c-0.4,1.2-1.1,2.4-2,3.5
			c0.7,0.4,1.6,0.6,2.5,0.7S116.3,121.2,120.3,121.2z M111.3,116.9h-2.7c-0.1,0.1-0.2,0.4-0.6,0.9c0.5,0.9,1,1.5,1.6,1.9
			C110.3,119,110.9,118.1,111.3,116.9z M119.8,117.6c0,1-0.1,1.7-0.2,1.9c-0.1,0.3-0.3,0.5-0.5,0.6s-0.7,0.2-1.4,0.2
			c-0.9,0-1.3-0.4-1.3-1.2v-2.7h-1.6c0,1.7-0.6,3.1-1.8,4.2l-0.8-0.6c1.2-1.1,1.7-2.6,1.6-4.6h3.6v3.6c0,0.2,0.2,0.3,0.6,0.3
			c0.3,0,0.5-0.1,0.6-0.3c0.1-0.2,0.2-0.8,0.2-1.8L119.8,117.6z"/>
		<path class="st0" d="M140.4,118.3c-0.1,1.7-0.3,2.8-0.7,3.2s-0.9,0.7-1.5,0.7h-3.6c-1.1,0-1.6-0.6-1.6-1.8v-5.5h-3
			c-0.3,3.8-2.4,6.4-6.3,7.8l-0.7-1c3.7-1.1,5.7-3.4,5.9-6.7h-4.2v-8.6c2.2-0.2,4.2-0.6,6.1-1.4l0.7,0.9c-1.8,0.7-3.7,1.1-5.8,1.3
			v2.6h5.2v1h-5.2v3h12.3v-3h-5.3v-1h5.3v-2.9h-5.5v-1h6.5v9H134v5.6c0,0.2,0.1,0.4,0.3,0.5c0.2,0.1,0.4,0.2,0.6,0.2h3.3
			c0.4,0,0.7-0.1,0.9-0.4s0.3-1.2,0.4-2.8L140.4,118.3z"/>
		<path class="st0" d="M160.9,110.1h-17.4v-0.9h5.6c-0.4-0.8-0.8-1.5-1.2-2h-3.3v-0.9h7.4c-0.2-0.4-0.5-0.7-0.8-1.1l1.1-0.4
			c0.4,0.4,0.7,0.9,1,1.5h6.7v0.9h-3.6c-0.4,0.9-0.7,1.6-1,2h5.5V110.1z M160.7,122h-17v-0.9h8v-1.7h-7v-0.9h7V117h-6.2v-5.5h13.4
			v5.5h-6.2v1.6h6.9v0.9h-6.9v1.7h7.9V122z M151.7,113.8v-1.4h-5.1v1.4H151.7z M151.7,116.1v-1.4h-5.1v1.4H151.7z M155.2,107.2h-6
			c0.2,0.3,0.6,1,1.1,2h4C154.7,108.4,155,107.7,155.2,107.2z M157.9,113.8v-1.4h-5.1v1.4H157.9z M157.9,116.1v-1.4h-5.1v1.4H157.9z
			"/>
		<path class="st0" d="M181.5,121.1l-0.4,1.1c-1.3,0-2.5,0-3.8,0c-2.3,0-4,0-5-0.1c-1,0-2-0.2-3-0.6s-1.9-0.9-2.6-1.6
			c-0.6,1-1.3,1.9-2.1,2.7l-0.8-0.6c1.8-1.7,2.9-3.9,3.2-6.6h-2.9v-1c0.9-1.2,1.8-2.6,2.7-4.2h-2.9v-1h4.1v1c-1,1.7-1.9,3.1-2.7,4.2
			h2.7v1c-0.2,1.4-0.5,2.6-1,3.7c0.7,0.7,1.5,1.3,2.5,1.6c1,0.4,2.3,0.5,4,0.5C176.9,121.2,179.5,121.2,181.5,121.1z M167.6,107.9
			l-0.8,0.6c-0.7-1.1-1.5-2.1-2.4-3.1l0.8-0.6C166.1,105.7,166.9,106.8,167.6,107.9z M174.5,108.5h-3.3c0,0.6,0,1.3-0.1,2.3h2.9
			c0,1.8-0.1,3.6-0.2,5.2s-0.3,2.6-0.4,2.8s-0.4,0.5-0.7,0.6c-0.3,0.2-0.9,0.2-1.8,0.2l-0.3-1c0.3,0,0.5,0.1,0.8,0.1
			c0.4,0,0.7,0,0.8-0.1c0.1-0.1,0.3-0.2,0.3-0.4c0.1-0.2,0.2-1.1,0.3-2.7c0.1-1.6,0.2-2.9,0.2-3.7h-1.9c-0.2,3.4-0.9,6-2.1,7.8
			l-0.8-0.6c1.5-2,2.2-5.5,2.1-10.5h-1.5v-1h2.4c-0.1-0.7-0.4-1.4-0.9-2.3l0.9-0.3c0.5,1,0.8,1.9,1,2.6h2.4V108.5z M181.2,108.4
			h-4.9c-0.6,0.9-1.1,1.5-1.6,2l-0.7-0.7c1.3-1.4,2.3-3,3-4.9l0.9,0.4c-0.3,0.8-0.6,1.5-1,2.1h4.3V108.4z M181.2,115.4h-2.8v3
			c0,0.5-0.1,0.8-0.4,1c-0.3,0.2-0.8,0.3-1.6,0.3c-0.2,0-0.6,0-1,0l-0.3-1l1.9,0c0.1,0,0.2-0.1,0.2-0.2c0.1-0.1,0.1-0.2,0.1-0.3
			v-2.9h-2.8v-1h2.8v-1.1c0.6-0.6,1.2-1.2,1.8-1.8h-3.9v-1h5.2v1c-0.9,0.9-1.5,1.6-2,2.1v0.8h2.8V115.4z"/>
		<path class="st0" d="M190.8,119.1c-1.9,1.3-3.9,2.3-6,3.1l-0.7-0.9c1.9-0.6,3.9-1.6,6.1-3L190.8,119.1z M201.6,117.3h-8.1v5.3
			h-1.1v-5.3h-8.2v-1.1h8.2v-1.3h1.1v1.3h8.1V117.3z M190.2,114.4l-0.8,0.5c-0.1-0.5-0.2-0.8-0.3-1l-4.5,0.6l-0.2-0.9
			c1.1-1,2.2-2.2,3.1-3.5l-2.7,0.3l-0.2-0.8c1-1.2,1.9-2.7,2.8-4.6l0.9,0.3c-0.6,1.3-1.4,2.7-2.4,4.1l2.3-0.2
			c0.5-0.7,0.8-1.2,1.1-1.7l0.9,0.5c-1.5,2.4-3,4.3-4.4,5.6l3-0.4c-0.1-0.3-0.2-0.7-0.5-1.2l0.8-0.4
			C189.5,112.2,189.9,113.2,190.2,114.4z M195.4,114.4h-4.8v-7.7h1.4c0.3-0.6,0.7-1.2,0.9-1.9l1,0.2c-0.2,0.5-0.5,1.1-0.8,1.7h2.3
			V114.4z M194.4,109.9v-2.2h-2.8v2.2H194.4z M194.4,113.5v-2.5h-2.8v2.5H194.4z M201.7,121.3L201,122c-1.6-1-3.6-2-5.8-2.9l0.7-0.8
			C198.4,119.4,200.3,120.4,201.7,121.3z M201.8,114.4l-0.8,0.5c-0.1-0.2-0.2-0.5-0.3-1l-4.5,0.5l-0.2-0.9c1.2-1.1,2.2-2.3,3.1-3.6
			l-2.8,0.3l-0.2-0.8c1-1.2,1.9-2.7,2.7-4.5l0.9,0.3c-0.7,1.6-1.4,2.9-2.2,3.9l2.3-0.2c0.3-0.4,0.6-1,1-1.7l0.9,0.4
			c-1.3,2.4-2.7,4.3-4.1,5.7l2.9-0.3c-0.1-0.4-0.3-0.8-0.6-1.3l0.8-0.4C201.1,112.4,201.5,113.4,201.8,114.4z"/>
		<path class="st0" d="M210.1,116c-2,1.1-3.8,2-5.2,2.5l-0.4-1c0.9-0.3,1.8-0.6,2.6-1v-5.7h-2.3v-1h2.3v-4.7h1v4.7h2v1h-2v5.2
			c0.7-0.3,1.3-0.7,1.8-1L210.1,116z M222,113.8h-7.3c-0.2,0.4-0.5,0.9-0.9,1.4h7.5c0,1.2-0.1,2.4-0.3,3.7c-0.1,1.3-0.3,2.1-0.3,2.3
			c-0.1,0.2-0.2,0.5-0.5,0.7c-0.2,0.2-0.5,0.4-0.8,0.5c-0.3,0.1-0.9,0.2-1.7,0.2c-0.2,0-0.4,0-0.7,0l-0.4-1c0.5,0.1,1,0.1,1.5,0.1
			c0.5,0,0.9-0.1,1.1-0.2c0.2-0.1,0.3-0.3,0.4-0.5c0.1-0.2,0.2-0.8,0.3-1.8s0.2-2,0.2-2.9H219c-1.2,2.8-3.4,4.9-6.5,6.4l-0.8-0.7
			c3-1.4,5.1-3.3,6.1-5.7h-1.8c-1.3,2-3.5,3.7-6.4,5l-0.7-0.8c2.8-1.2,4.8-2.6,6-4.2h-2c-0.9,0.8-1.9,1.6-3,2.2l-0.7-0.8
			c2-1,3.5-2.3,4.4-3.7h-3.8v-1H222V113.8z M220.6,111.4H211v-5.9h9.6V111.4z M219.6,107.9v-1.4h-7.5v1.4H219.6z M219.6,110.4v-1.5
			h-7.5v1.5H219.6z"/>
		<path class="st0" d="M225.1,120.6c0-0.3,0.1-0.6,0.3-0.8s0.5-0.3,0.8-0.3c0.3,0,0.6,0.1,0.8,0.4c0.2,0.2,0.3,0.5,0.3,0.8
			s-0.1,0.6-0.3,0.8c-0.2,0.2-0.5,0.3-0.8,0.3c-0.3,0-0.6-0.1-0.8-0.3C225.2,121.2,225.1,120.9,225.1,120.6z M230.3,120.6
			c0-0.3,0.1-0.6,0.3-0.8s0.5-0.3,0.8-0.3c0.3,0,0.6,0.1,0.8,0.4c0.2,0.2,0.3,0.5,0.3,0.8s-0.1,0.6-0.3,0.8
			c-0.2,0.2-0.5,0.3-0.8,0.3c-0.3,0-0.6-0.1-0.8-0.3C230.4,121.2,230.3,120.9,230.3,120.6z M235.5,120.6c0-0.3,0.1-0.6,0.3-0.8
			s0.5-0.3,0.8-0.3c0.3,0,0.6,0.1,0.8,0.3s0.3,0.5,0.3,0.8c0,0.3-0.1,0.6-0.3,0.8c-0.2,0.2-0.5,0.3-0.8,0.3c-0.3,0-0.6-0.1-0.8-0.3
			C235.7,121.1,235.5,120.9,235.5,120.6z"/>
		<path class="st0" d="M258.5,120.7l-0.7,0.8c-3.3-2.3-5.8-4.9-7.3-8h-0.1v9h-1.1v-9h-0.1c-1.6,3.3-4.1,5.9-7.5,7.9l-0.7-0.9
			c3.3-1.9,5.7-4.2,7.1-7.1h-6.9v-1h8.1v-3.9h-7v-1h7v-2.7h1v2.7h7v1h-7v3.9h8v1h-6.7C253.1,116.4,255.4,118.8,258.5,120.7z"/>
		<path class="st0" d="M279,120.5l-0.6,0.9c-3.4-1.6-6-3.8-7.9-6.8v7.8l-1,0v-7.7c-1.9,2.5-4.4,4.7-7.7,6.7l-0.6-0.8
			c4-2.5,6.8-5,8.3-7.7V108h-7.9v-1h7.9v-2h1v2h8.1v1h-8.1v4.9c0.9,1.6,2.1,3.1,3.6,4.5C275.6,118.8,277.2,119.8,279,120.5z
			 M267.7,114.1l-0.7,0.8c-0.6-0.9-1.3-1.7-2.1-2.4c-0.5,1-1.4,2.1-2.6,3.2l-0.8-0.7c1.9-1.5,3.1-3.5,3.8-6l1,0.2
			c-0.1,0.7-0.4,1.5-0.8,2.4C266.3,112.5,267.1,113.3,267.7,114.1z M278.1,114.8l-0.5,1c-0.8-1-1.8-2-2.9-3c-0.5,1.1-1,1.9-1.5,2.4
			l-0.8-0.7c1.1-1.4,1.9-3.1,2.4-5.3l1,0.2c-0.2,0.9-0.4,1.7-0.7,2.4C276.3,112.8,277.3,113.8,278.1,114.8z"/>
		<path class="st0" d="M289.5,112.4h-5.8v10.2h-1.1v-17.1h6.9V112.4z M288.5,108.4v-1.9h-4.8v1.9H288.5z M288.5,111.4v-2h-4.8v2
			H288.5z M295.7,119.6l-0.7,0.8c-1.5-1.5-3.1-2.8-5-3.9c-1.1,1.6-2.5,3-4.4,4l-0.8-0.8c2.8-1.5,4.6-3.7,5.6-6.6l1,0.2
			c-0.2,0.8-0.6,1.5-0.9,2.2C292.5,116.8,294.3,118.1,295.7,119.6z M298.2,121.2c0,0.5-0.2,0.8-0.5,1c-0.3,0.2-1.1,0.3-2.3,0.3
			c-0.3,0-0.7,0-1.2,0l-0.4-1c0.5,0,1,0,1.6,0c0.9,0,1.4,0,1.6-0.1s0.2-0.3,0.2-0.5v-8.5h-5.9v-6.9h6.9V121.2z M297.2,108.4v-1.9
			h-4.8v1.9H297.2z M297.2,111.4v-2h-4.8v2H297.2z"/>
		<path class="st0" d="M308.7,113.1h-3.8c0,4.4-0.7,7.6-2,9.5l-0.8-0.8c1.2-1.6,1.9-4.5,1.9-8.7h-1.7v-0.9h3v-7.1h1v7.1h2.5V113.1z
			 M304.4,110.5l-0.9,0.3c-0.2-1.6-0.6-3.2-1.1-4.6l0.9-0.3C303.8,107.9,304.2,109.4,304.4,110.5z M308.8,119.3
			c-1.1,1.2-2,2-2.6,2.5l-0.6-0.8c0.2-0.3,0.4-0.6,0.4-1v-5.8l0.9,0v5.8c0.6-0.6,1.1-1.1,1.5-1.5L308.8,119.3z M308.7,106.3
			c-0.3,1.7-0.7,3.3-1.1,4.6l-0.8-0.3c0.5-1.3,0.8-2.8,1.1-4.5L308.7,106.3z M319.4,121.7h-8.7v0.9h-1v-6.6c-0.5,0.6-0.9,1-1.2,1.3
			l-0.5-0.8c1.1-1,2.1-2.4,2.8-4.1l0.8,0.3c0,0.1-0.1,0.4-0.4,0.9h3.2c-0.2-0.4-0.3-0.8-0.5-1.1l0.9-0.3c0.4,0.7,0.6,1.2,0.6,1.4
			h3.9v0.9h-4v1.3h3.5v1h-3.5v1.4h3.5v1h-3.5v1.5h4.3V121.7z M311.9,110.1c-0.8,0.5-1.7,1.1-2.8,1.6l-0.3-0.9
			c0.9-0.3,1.8-0.9,2.9-1.5L311.9,110.1z M311.6,108.2l-0.5,0.8c-1-0.5-1.6-0.8-2.1-1l0.5-0.8C310.2,107.4,310.8,107.7,311.6,108.2z
			 M313.4,111.1c0,0.3-0.1,0.6-0.3,0.8c-0.2,0.2-0.5,0.3-0.8,0.3l-0.9,0l-0.3-0.9c0.6,0,1,0,1.1-0.1c0.1-0.1,0.2-0.2,0.2-0.4v-4.4
			h-3.3v-0.9h4.2V111.1z M314.2,116v-1.3h-3.5v1.3H314.2z M314.2,118.3v-1.4h-3.5v1.4H314.2z M314.2,120.8v-1.5h-3.5v1.5H314.2z
			 M316.9,110.2c-1,0.7-1.8,1.2-2.4,1.5l-0.4-0.8c0.9-0.5,1.7-1,2.6-1.7L316.9,110.2z M316.7,108.2l-0.5,0.8c-0.6-0.4-1.2-0.7-2-1
			l0.5-0.7C315.3,107.4,316,107.8,316.7,108.2z M318.6,111.2c0,0.8-0.7,1.2-2.2,1l-0.2-0.9c0.7,0,1.1,0,1.2-0.1
			c0.1-0.1,0.2-0.2,0.2-0.4v-4.4h-3.4v-0.9h4.4V111.2z"/>
		<path class="st0" d="M330.8,121.2c0,0.4-0.1,0.7-0.3,0.9c-0.2,0.2-0.5,0.4-0.9,0.4c-0.4,0-0.8,0-1.3,0c-0.4,0-0.7,0-1,0l-0.4-1.1
			c0.5,0.1,1.4,0.1,2.5,0.1c0.1,0,0.2-0.1,0.3-0.2c0.1-0.1,0.1-0.2,0.1-0.3v-2.9h-4.6c-0.3,1.8-1,3.3-1.9,4.6l-0.8-0.7
			c1.3-1.7,1.9-4.1,1.9-7.2v-4.4h6.4V121.2z M339.9,108.5h-17.4v-1h17.4V108.5z M329.8,117.1v-2.5h-4.3c0,0.5,0,1.3-0.1,2.5H329.8z
			 M329.8,113.6v-2.3h-4.3v2.3H329.8z M329.8,106.8l-1,0.4c-0.5-0.6-1.2-1.2-2-1.8l1.1-0.4C328.6,105.6,329.2,106.2,329.8,106.8z
			 M335.9,105.4c-0.4,0.6-1.1,1.2-2,1.8l-1.1-0.5c0.7-0.5,1.4-1,2.1-1.7L335.9,105.4z M334.4,119.2h-1v-8.6h1V119.2z M338.3,121.1
			c0,0.4-0.1,0.7-0.3,0.9c-0.2,0.2-0.4,0.4-0.7,0.5c-0.3,0.1-0.8,0.1-1.5,0.1c-0.4,0-0.9,0-1.4,0l-0.4-1.1l2.8,0.1
			c0.3,0,0.5-0.2,0.5-0.6v-10.8h1V121.1z"/>
		<path class="st0" d="M360.3,113h-17.4v-1h8.2c-0.2-0.6-0.5-1.1-0.8-1.5H345v-5.1h13.4v5.1h-6.8c0.2,0.4,0.5,0.9,0.7,1.5h8.1V113z
			 M348.5,119.2c-1.1,1.1-2.6,2-4.6,2.9l-0.7-0.9c2-0.9,3.6-1.8,4.5-2.8L348.5,119.2z M358.4,117.7h-6.2v3.5c0,0.4-0.2,0.7-0.5,0.9
			s-0.9,0.3-1.8,0.3h-1.3l-0.3-1l2.4,0c0.1,0,0.2-0.1,0.3-0.2c0.1-0.1,0.2-0.2,0.2-0.3v-3.2h-6.2v-3.6h13.4V117.7z M357.3,107.5
			v-1.1H346v1.1H357.3z M357.3,109.6v-1.2H346v1.2H357.3z M357.3,116.8v-1.6H346v1.6H357.3z M359.8,121.2l-0.7,0.8
			c-1.1-0.9-2.6-1.8-4.3-2.7l0.8-0.7C357.3,119.5,358.8,120.4,359.8,121.2z"/>
		<path class="st0" d="M371.7,115.6c-0.5-0.3-0.7-0.6-0.7-1c0-0.2,0.1-0.4,0.2-0.6s0.4-0.3,0.7-0.3c0.6,0,0.9,0.4,0.9,1.2
			c0,0.7-0.4,1.3-1.2,1.9l-0.4-0.3C371.6,116.2,371.7,115.9,371.7,115.6z"/>
		<path class="st0" d="M401.2,122h-17.5v-1h8.5v-5.4h-6.4v-1.1h6.4v-4.6h-5.4c-0.8,1.4-1.6,2.6-2.5,3.5l-0.8-0.7
			c1.8-1.8,3.1-4.2,3.9-7l1,0.3c-0.3,1-0.6,1.9-1,2.9h4.9v-3.9h1.1v3.9h7.6v1.1h-7.6v4.6h6.7v1.1h-6.7v5.4h7.9V122z"/>
		<path class="st0" d="M407.4,118.8c-0.8,1.3-1.6,2.3-2.5,3.1l-0.9-0.6c1-0.7,1.8-1.7,2.6-2.9L407.4,118.8z M412.4,115.8
			c0,0.5-0.2,0.9-0.5,1.1c-0.3,0.2-1,0.4-1.9,0.4c-0.3,0-0.6,0-0.9,0l-0.4-0.9c1.3,0,2.1,0,2.3-0.1c0.2-0.1,0.3-0.2,0.3-0.5v-1.1
			c-1.3,0.3-2.8,0.6-4.6,1l-0.5-0.7c-0.2,0.9-0.5,1.8-1.1,2.7l-1-0.6c0.8-1,1.2-2.4,1.2-4.4v-2.3h6.8V115.8z M413.3,109.1l-0.9,0.6
			c-0.2-0.5-0.5-0.8-0.7-1c-3.2,0.4-5.5,0.6-7,0.8l-0.3-0.8c1.1-0.9,2.1-2.1,2.8-3.7l1.1,0.3c-0.7,1.3-1.3,2.3-2.1,3.1
			c1.9-0.2,3.5-0.4,4.7-0.6c-0.4-0.5-0.8-1-1.2-1.3l0.9-0.5C411.5,106.7,412.4,107.7,413.3,109.1z M411.4,113.7v-2.4h-4.8v0.7
			c1.3,0.1,2.5,0.2,3.7,0.5l-0.3,0.9c-1.2-0.2-2.3-0.4-3.4-0.5c0,0.5-0.1,1.1-0.1,1.7C408.4,114.4,410.1,114,411.4,113.7z
			 M417.9,119.6c-0.1,0.6-0.2,1.1-0.4,1.5s-0.4,0.6-0.6,0.8c-0.2,0.1-0.7,0.2-1.5,0.3c-0.8,0.1-1.7,0.1-2.8,0.1
			c-1.8,0-2.9-0.1-3.3-0.3c-0.4-0.2-0.6-0.6-0.6-1.2V118h1v2.6c0,0.3,0.1,0.5,0.5,0.6c0.3,0.1,1.2,0.1,2.6,0.1c1.1,0,2,0,2.5-0.1
			c0.6-0.1,0.9-0.1,1.1-0.3c0.1-0.1,0.3-0.3,0.4-0.7s0.2-0.7,0.2-1.1L417.9,119.6z M414.7,119.5l-0.8,0.7c-0.5-0.5-1.2-1.2-2.2-1.9
			l0.8-0.7C413.4,118.1,414.2,118.8,414.7,119.5z M420.8,110.6h-5.3c-0.4,0-0.8-0.1-1-0.4c-0.3-0.3-0.4-0.6-0.4-1.1V105h1v1.4h5.5v1
			h-5.5v1.8c0,0.1,0.1,0.2,0.2,0.4s0.2,0.2,0.3,0.2h5.2V110.6z M421,115.3c0,0.6-0.2,1.1-0.4,1.4c-0.2,0.3-0.5,0.5-0.8,0.6
			c-0.3,0.1-1,0.1-2.1,0.1c-0.8,0-1.4,0-2-0.1c-0.5,0-0.9-0.1-1-0.2s-0.3-0.3-0.4-0.5c-0.1-0.2-0.2-0.5-0.2-0.9v-4.2h1v1.3h5.5v1
			h-5.5v1.9c0,0.3,0.1,0.5,0.3,0.6c0.2,0.1,0.9,0.1,2,0.1c0.6,0,1.1,0,1.5,0c0.4,0,0.7-0.2,0.9-0.4c0.2-0.2,0.2-0.6,0.2-1.1
			L421,115.3z M421.4,121.1l-0.8,0.7c-0.8-1.2-1.6-2.1-2.4-2.9l0.8-0.7C419.9,119.1,420.7,120,421.4,121.1z"/>
		<path class="st0" d="M430.2,114.1c-1.7,2.8-3.4,5-5.1,6.5l-0.8-0.8c1.7-1.5,3.4-3.6,5-6.3L430.2,114.1z M441.8,111.3h-8.1v11.2
			h-1.1v-11.2h-8.3v-1.1h17.5V111.3z M439.7,106.5h-13.1v-1.1h13.1V106.5z M441.9,120.1l-0.9,0.5c-1.4-2.4-3-4.5-4.9-6.4l1-0.6
			C439.4,116.2,441,118.3,441.9,120.1z"/>
		<path class="st0" d="M453.5,107.5h-6c-0.7,0.9-1.4,1.5-2,1.9l-0.6-0.7c1.2-0.9,2.3-2.2,3.3-3.9l0.9,0.3c-0.5,0.8-0.8,1.3-0.9,1.5
			h5.4V107.5z M454.6,120.2h-4.1v2.3h-1v-2.3h-4.6v-0.9h4.6V118h-3.6v-5.3h3.6v-1.4h-4.3v-0.8h4.3v-0.9h1v0.9h4v0.8h-4v1.4h3.6v5.3
			h-3.6v1.4h4.1V120.2z M449.5,114.9v-1.4h-2.6v1.4H449.5z M449.5,117.1v-1.4h-2.6v1.4H449.5z M452.1,109.2l-0.9,0.4
			c-0.3-0.6-0.7-1.1-1-1.4l0.8-0.5C451.5,108.3,451.8,108.8,452.1,109.2z M453,114.9v-1.4h-2.6v1.4H453z M453,117.1v-1.4h-2.6v1.4
			H453z M461.8,107.5h-6c-0.6,0.8-1.1,1.5-1.6,1.9l-0.8-0.7c1.1-1.1,2-2.4,2.8-3.9l1,0.3c-0.2,0.5-0.5,1-0.8,1.4h5.4V107.5z
			 M462.3,118.7c-0.1,1.1-0.2,1.9-0.4,2.4c-0.2,0.6-0.5,0.9-0.8,1s-1.1,0.2-2.1,0.2c-1.6,0-2.5-0.1-2.9-0.4
			c-0.3-0.3-0.5-0.7-0.5-1.2v-10.4h5.7c0,1.6-0.1,3-0.2,4.1c-0.1,1.1-0.2,1.8-0.3,2.1c-0.1,0.3-0.3,0.5-0.6,0.7
			c-0.3,0.2-0.8,0.2-1.6,0.2c-0.2,0-0.5,0-0.7,0l-0.3-1.1c0.4,0.1,0.8,0.1,1.1,0.1c0.7,0,1.1-0.1,1.2-0.4s0.3-1.9,0.4-4.7h-3.7v9.4
			c0,0.3,0.1,0.5,0.3,0.6s0.9,0.2,2,0.2c1.1,0,1.7-0.1,1.9-0.2c0.1-0.1,0.2-0.6,0.4-1.3c0.1-0.7,0.2-1.2,0.2-1.5L462.3,118.7z
			 M459.4,109.5l-0.9,0.4c-0.2-0.4-0.6-0.9-1.1-1.4l0.9-0.4C458.7,108.6,459.1,109,459.4,109.5z"/>
		<path class="st0" d="M470.3,117.2c-2,1.3-3.6,2.2-5,2.7l-0.3-1.1c1-0.4,1.8-0.8,2.4-1.2v-6.4h-1.9v-1h1.9V105h1v5.3h1.8v1h-1.8
			v5.8c0.5-0.3,1.1-0.6,1.8-1.1V117.2z M482.7,118.9c-0.3,1.6-0.6,2.6-0.9,3c-0.3,0.5-0.7,0.7-1.1,0.7c-0.4,0-0.8-0.2-1.2-0.7
			c-0.5-0.5-0.9-1.4-1.4-2.7c-1.3,1.5-2.5,2.7-3.5,3.4l-0.8-0.7c1.5-1.1,2.8-2.4,3.9-3.9c-0.4-1.9-0.7-4.9-0.8-9.1h-4.7v3.1h3.6
			c0,1.5-0.1,2.9-0.1,4.2c-0.1,1.3-0.1,2.1-0.2,2.4c-0.1,0.3-0.2,0.5-0.4,0.7c-0.2,0.2-0.4,0.3-0.7,0.4c-0.3,0.1-0.8,0.1-1.5,0.1
			l-0.4-1.1c0.4,0,0.8,0.1,1.2,0.1c0.4,0,0.6-0.1,0.7-0.4c0.1-0.3,0.2-2.1,0.3-5.4h-2.5c0.1,3.8-0.9,7-2.8,9.8l-0.9-0.7
			c1.8-2.2,2.6-5.2,2.6-9.1v-5.1h5.6c0-0.8,0-1.8,0-2.8h1v2.8h4.5v1H478c0.1,3.5,0.3,6.1,0.6,7.8c0.9-1.5,1.6-3.5,2.1-5.8l0.9,0.4
			c-0.6,2.6-1.5,4.9-2.8,6.9c0.1,0.5,0.3,1.1,0.8,2.1c0.4,0.9,0.8,1.4,1,1.4c0.1,0,0.2,0,0.3-0.1c0.1-0.1,0.2-0.4,0.4-1
			s0.3-1.3,0.4-2.1L482.7,118.9z M481.8,106.9l-0.8,0.6c-0.5-0.7-1-1.4-1.6-1.9l0.8-0.6C480.7,105.5,481.2,106.1,481.8,106.9z"/>
		<path class="st0" d="M503.1,122.1h-14c-0.6,0-1.1-0.2-1.5-0.6s-0.6-0.9-0.6-1.6v-13.5h-1.2v-1h17v1H488V120c0,0.3,0.1,0.5,0.4,0.7
			c0.2,0.2,0.5,0.3,0.7,0.3h14V122.1z M494.7,119.2h-5.3v-5h5.3V119.2z M493.6,118.2v-3h-3.1v3H493.6z M499.4,112.4h-8.2v-4.3h8.2
			V112.4z M498.3,111.4v-2.3h-6.1v2.3H498.3z M501.7,119.2h-5.2v-5h5.2V119.2z M500.7,118.2v-3h-3.1v3H500.7z"/>
		<path class="st0" d="M514.5,115.6c-0.5-0.3-0.7-0.6-0.7-1c0-0.2,0.1-0.4,0.2-0.6s0.4-0.3,0.7-0.3c0.6,0,0.9,0.4,0.9,1.2
			c0,0.7-0.4,1.3-1.2,1.9l-0.4-0.3C514.3,116.2,514.5,115.9,514.5,115.6z"/>
		<path class="st0" d="M542.6,122.5h-1.1v-1.3h-9.5v1.3h-1.1v-6.9c-1.6,0.6-2.8,1-3.8,1.3l-0.6-1c3.1-0.8,5.8-1.9,8-3.1
			c-0.8-1.2-1.9-2.3-3.3-3.5c-1,0.7-2.1,1.3-3.4,1.9l-0.9-0.9c3-1.3,5.6-3.1,7.6-5.5l1,0.5c-0.3,0.4-0.7,0.7-1.1,1.2h7.8v0.9
			c-2.2,2.9-5.1,5.3-8.8,7.1h9.1V122.5z M541.5,120.2v-4.6h-9.5v4.6H541.5z M540.7,107.6h-7.3c-0.5,0.4-0.9,0.7-1.3,1.1
			c1.3,1.2,2.4,2.4,3.4,3.6C537.6,110.9,539.3,109.4,540.7,107.6z"/>
		<path class="st0" d="M564.3,116.5h-9v4.5c0,0.1,0.1,0.2,0.2,0.3c0.1,0.1,0.2,0.2,0.4,0.2h1.6c2.9,0,4.5,0,5-0.1
			c0.4-0.1,0.6-1,0.6-2.8l1.1,0.4c-0.1,1.5-0.2,2.4-0.5,2.8c-0.3,0.4-0.6,0.6-1,0.7s-1.9,0.1-4.6,0.1c-1.2,0-2,0-2.4,0
			s-0.7-0.2-1-0.5c-0.2-0.3-0.4-0.6-0.4-0.9v-4.6h-7.3v-1h7.3v-3.3c-1.8,0.1-3.1,0.2-4,0.2l-0.4-1c4.9-0.2,8.5-0.7,10.8-1.6l0.6,0.9
			c-1.7,0.6-3.7,1-5.9,1.2v3.5h9V116.5z M563.6,112.3h-1.1v-4.1h-13.9v4.1h-1.1v-5.1h7.5c-0.4-0.7-0.7-1.3-1-1.8l1-0.4
			c0.4,0.5,0.7,1.3,1.2,2.2h7.4V112.3z"/>
		<path class="st0" d="M574.7,121l-0.6,0.8c-1.1-1.1-2.1-2.1-3.1-2.7c-0.8,1-1.8,1.9-2.9,2.7l-0.7-0.8c2-1.3,3.3-2.7,3.8-4.4l1,0.4
			c-0.2,0.5-0.4,1-0.6,1.3C572.6,119,573.7,120,574.7,121z M576.5,106.4h-1v7.9h-1V113c-2.2,0.4-4.4,0.6-6.8,0.8l-0.3-0.9
			c0.7,0,1.3-0.1,1.9-0.2v-6.4h-1.5v-0.9h8.6V106.4z M582.7,114.7c-1.9,0.5-4,0.9-6.3,1.1v6.8h-1v-6.7c-1.8,0.2-3.8,0.3-5.8,0.3
			l-0.4-1c5.6,0,9.9-0.5,12.9-1.4L582.7,114.7z M574.5,107.8v-1.4h-4.1v1.4H574.5z M574.5,110.1v-1.4h-4.1v1.4H574.5z M574.5,112.1
			V111h-4.1v1.7C571.4,112.5,572.8,112.3,574.5,112.1z M584.7,113l-0.5,0.9c-0.7-0.9-1.6-1.8-2.7-2.8c-1.3,1.3-2.9,2.3-4.8,2.9
			l-0.6-0.8c1.9-0.6,3.4-1.6,4.6-2.8c-0.8-0.8-2-1.7-3.5-2.8l0.7-0.7h-0.6V106h6.5v0.9c-0.4,1.3-0.9,2.5-1.7,3.4
			C583,111.2,583.9,112.1,584.7,113z M584.4,121l-0.6,0.8c-0.9-1.1-1.9-2.1-3.1-3c-0.7,1.1-1.7,2.1-2.8,3.1l-0.7-0.7
			c1.9-1.5,3.1-3.1,3.6-5l1,0.4c-0.1,0.5-0.3,0.9-0.5,1.3C582.6,119.1,583.7,120.1,584.4,121z M582.7,107H578
			c1.2,0.9,2.3,1.8,3.4,2.8C582,108.7,582.5,107.8,582.7,107z"/>
		<path class="st0" d="M591.8,117.4c-1,1.9-2.2,3.5-3.4,5.1l-0.7-0.8c1.1-1.2,2.3-2.9,3.4-4.9L591.8,117.4z M591.3,114.6l-0.6,0.9
			c-0.8-0.7-1.8-1.4-3.1-2.1l0.6-0.8C589.7,113.3,590.7,114,591.3,114.6z M595.9,107.5h-2.5v1.4h-1v-1.4h-4.7v-1h4.7V105h1v1.5h2.5
			V107.5z M592.2,111l-0.6,0.9c-0.8-0.7-1.8-1.4-3.2-2.2l0.6-0.8C590.3,109.6,591.3,110.3,592.2,111z M605.1,115.5l-0.4,1
			c-2.7-0.5-4.8-1.1-6.4-2c-1.9,0.9-4,1.5-6.2,1.9l-0.6-0.9c2.4-0.4,4.3-1,5.7-1.7c-0.6-0.4-1.4-1.1-2.3-2c-0.9,0.6-1.6,1-2.1,1.3
			l-0.7-0.8c2.1-1.1,3.8-2.4,5.2-4l0.9,0.4c-0.2,0.3-0.6,0.7-1,1.2h6.1v1c-1.1,1.1-2.5,2.1-4,3C600.9,114.7,602.8,115.2,605.1,115.5
			z M603.2,122.4h-1.1v-1.1h-7.4v1.1h-1.1v-5.5h9.5V122.4z M602.2,120.3v-2.4h-7.4v2.4H602.2z M601.9,111h-5.6
			c-0.1,0.1-0.2,0.2-0.4,0.3c0.8,0.8,1.6,1.5,2.5,2.1C599.5,112.8,600.7,112,601.9,111z M605.1,107.5h-4.7v1.4h-1v-1.4h-2.5v-1h2.5
			V105h1v1.5h4.7V107.5z"/>
		<path class="st0" d="M616.4,115.6c-0.5-0.3-0.7-0.6-0.7-1c0-0.2,0.1-0.4,0.2-0.6s0.4-0.3,0.7-0.3c0.6,0,0.9,0.4,0.9,1.2
			c0,0.7-0.4,1.3-1.2,1.9l-0.4-0.3C616.3,116.2,616.4,115.9,616.4,115.6z"/>
		<path class="st0" d="M9.2,155.7l-1,0.4c-0.2-0.8-0.5-1.5-0.7-2c-2,0.8-3.9,1.6-5.9,2.2l-0.5-1.1c0.2-0.2,0.2-0.4,0.2-0.7v-14.3
			h7.1v8.8H2.4v5.8c2-0.6,3.5-1.2,4.7-1.7c-0.4-0.9-0.8-1.7-1.1-2.3l0.9-0.4C7.9,152.3,8.7,154.1,9.2,155.7z M7.4,144.1v-2.8h-5v2.8
			H7.4z M7.4,148.1v-3h-5v3H7.4z M17.4,153.9c0,0.6-0.2,0.9-0.5,1.1s-1,0.3-2.1,0.3c-0.4,0-0.9,0-1.4,0l-0.3-1.1
			c1.1,0.1,2,0.1,2.6,0.1c0.4,0,0.6-0.2,0.6-0.6v-12.4h-4.6v16.1h-1v-17.1h6.6V153.9z"/>
		<path class="st0" d="M26.3,157.3h-1v-7.9h-1.9c-0.1,3.7-0.7,6.2-1.7,7.7l-0.9-0.6c1-1.6,1.5-4,1.5-7.1h-1.5v-1h4.5v-2.6h-3.5v-5
			h1.1v3.9h2.4v-5h1V157.3z M37.3,142.5c-2,3.1-5.1,5.2-9.6,6.3l-0.7-1c2.4-0.4,4.4-1.2,6.1-2.4c-0.8-0.7-2-1.4-3.7-2.3
			c-0.5,0.4-1.1,0.7-1.6,1l-0.8-0.8c2.3-1.1,3.9-2.4,4.9-3.7l1,0.5c-0.3,0.5-0.8,0.9-1.2,1.4h5.6V142.5z M38.2,150.5h-2.3v5.4
			c0,0.6-0.2,1-0.6,1.2c-0.4,0.2-1.1,0.3-2.2,0.3c-0.4,0-0.7,0-1.1,0l-0.4-1.1c0.8,0,1.5,0.1,2,0.1c0.5,0,0.9,0,1-0.1
			c0.1-0.1,0.2-0.2,0.2-0.4v-5.3h-7.6v-1h7.6V147h1v2.4h2.3V150.5z M27.7,146.1l0-1c0.9,0,2-0.1,3.2-0.3l0,1
			C29.4,146,28.4,146.1,27.7,146.1z M31.7,154.6l-0.9,0.6c-0.7-1.2-1.5-2.3-2.6-3.4l0.8-0.6C30.2,152.3,31,153.4,31.7,154.6z
			 M36,142.5h-5.5l-0.1,0c1.3,0.7,2.5,1.5,3.5,2.2C34.7,144.2,35.3,143.4,36,142.5z"/>
		<path class="st0" d="M58.2,145.6H55l-0.2,2H43.7l0.2-2h-3.1v-0.8H44l0.2-1.9h11.1l-0.2,1.9h3.1V145.6z M55.7,154.7h-8.1l0.4,0.6
			c-2.2,1.2-4.3,1.9-6.5,2.1l-0.6-0.9c2.2-0.2,4.3-0.8,6.3-1.8h-3.9v-6h12.3V154.7z M57.5,143.7h-1v-1.9H42.6v1.8h-1v-2.7H49
			c-0.2-0.3-0.3-0.6-0.5-0.9l1-0.3c0.2,0.2,0.4,0.6,0.7,1.2h7.4V143.7z M54.7,150.4v-0.9H44.3v0.9H54.7z M54.7,152.1v-0.9H44.3v0.9
			H54.7z M54.7,153.9v-0.9H44.3v0.9H54.7z M48.9,145.6h-4l-0.1,1.2h4L48.9,145.6z M49.1,143.7h-4l-0.1,1.1H49L49.1,143.7z M54,145.6
			H50l-0.1,1.2h4.1L54,145.6z M54.2,143.7h-4.1l-0.1,1.1h4.1L54.2,143.7z M58,156.5l-0.4,0.9c-1.7-0.6-4-1.1-6.7-1.5l0.4-0.8
			C54.1,155.4,56.3,155.9,58,156.5z"/>
		<path class="st0" d="M67,152.3c-2.1,1.2-4.1,2.3-5.9,3.1l-0.4-0.9l2.7-1.4v-5.6h-2.4v-0.9h2.4v-4.6h-2.6v-1h6v1h-2.4v4.6h2.1v0.9
			h-2.1v5c0.7-0.4,1.5-0.8,2.3-1.3L67,152.3z M78.3,153.8c-0.1,0.9-0.2,1.6-0.4,2.1c-0.2,0.5-0.5,0.8-0.8,0.9
			c-0.3,0.2-0.9,0.2-1.7,0.2c-0.4,0-0.8,0-1.2,0c-0.3,0-0.6-0.1-0.8-0.4c-0.2-0.2-0.3-0.6-0.3-1V151h-1.8c-0.3,3.3-2.1,5.4-5.5,6.4
			l-0.6-0.8c3.1-0.8,4.8-2.7,5.1-5.6h-2.1v-10.6h8.7V151h-2.7v4.7c0,0.2,0.1,0.3,0.2,0.3s0.5,0.1,1.2,0.1c0.6,0,1-0.1,1.2-0.2
			s0.3-0.5,0.4-1c0.1-0.5,0.2-1.1,0.2-1.6L78.3,153.8z M75.9,143.5v-2.2h-6.7v2.2H75.9z M75.9,146.7v-2.3h-6.7v2.3H75.9z M75.9,150
			v-2.3h-6.7v2.3H75.9z"/>
		<path class="st0" d="M89.5,154.3c0.3,0,0.6,0.1,0.8,0.3c0.2,0.2,0.3,0.5,0.3,0.8c0,0.3-0.1,0.6-0.3,0.8c-0.2,0.2-0.5,0.3-0.8,0.3
			c-0.3,0-0.6-0.1-0.8-0.3c-0.2-0.2-0.3-0.5-0.3-0.8c0-0.3,0.1-0.6,0.3-0.8C88.9,154.4,89.2,154.3,89.5,154.3z M90.3,141.2L90.2,152
			h-1.4l-0.2-10.9H90.3z"/>
	</g>
</g>
</svg>
