<?xml version="1.0" encoding="utf-8"?>
<!-- Generator: Adobe Illustrator 25.2.3, SVG Export Plug-In . SVG Version: 6.00 Build 0)  -->
<svg version="1.1" id="section3_p.svg" xmlns="http://www.w3.org/2000/svg" xmlns:xlink="http://www.w3.org/1999/xlink" x="0px"
	 y="0px" viewBox="0 0 627 53" style="enable-background:new 0 0 627 53;" xml:space="preserve">
<style type="text/css">
	.st0{fill:#FFFFFF;}
</style>
<g>
	<g>
		<path class="st0" d="M6.5,5H4.4v3.9c0.7-0.3,1.3-0.6,1.9-1L6.5,9C5.7,9.4,5,9.7,4.4,10v6.3c0,0.7-0.2,1.1-0.6,1.3
			c-0.4,0.2-0.9,0.3-1.5,0.3H1.4l-0.4-1l1.8,0c0.3,0,0.5-0.2,0.5-0.5v-5.9c-0.6,0.3-1.4,0.6-2.2,0.8l-0.3-0.9c0.8-0.3,1.6-0.6,2.5-1
			V5H0.7V4h2.6V0.3h1V4h2.1V5z M18.4,16.1L17.7,17c-2.2-1.7-3.8-3.5-5-5.6v6.5h-1.1v-6.4c-1.2,2-3,3.8-5.4,5.5l-0.7-0.8
			c2.6-1.7,4.4-3.5,5.4-5.5H6.6v-1h5V7.7h1.1v1.9h5.5v1h-4.8C14.5,12.7,16.1,14.5,18.4,16.1z M17.2,1.1c-2.5,1-5.8,1.6-10,1.8L6.8,2
			c4.1-0.2,7.4-0.8,9.9-1.7L17.2,1.1z M9.7,7.5L8.8,7.9c-0.5-1.2-1-2.3-1.6-3.3L8,4.1C8.7,5.2,9.3,6.3,9.7,7.5z M13.3,6.6l-1,0.3
			c-0.3-1.1-0.6-2.2-1.1-3.2l0.9-0.4C12.6,4.4,13,5.5,13.3,6.6z M17.9,3.5c-0.5,1.6-1.2,3.1-2,4.4l-1-0.4c0.9-1.4,1.5-2.9,2-4.4
			L17.9,3.5z"/>
		<path class="st0" d="M38.2,9.3H20.9V8.2h17.4V9.3z"/>
		<path class="st0" d="M49.7,2.8h-5.7c-0.8,0.9-1.5,1.6-2.2,2.1l-0.8-0.8c1.3-0.8,2.4-2.1,3.4-3.9l1,0.4c-0.2,0.4-0.5,0.8-0.7,1.2
			h5.1V2.8z M58.4,8.7h-1.8V11h-6.3v1.4h7.2l0,0.9h-7.2v1.4h8.1v0.9h-8.1v2.3h-1v-2.3h-8.3v-0.9h8.3v-1.4h-7.3v-0.9h7.3V11h-6.4
			v-0.9h6.4V8.7h-8.3V7.8h8.3V6.4h-6.4V5.5h6.4v-1h1v1h6.3v2.2h1.8V8.7z M47.4,4.6L46.3,5c-0.3-0.4-0.7-0.8-1.2-1.3l1-0.4
			C46.5,3.5,46.9,4,47.4,4.6z M58.1,2.8h-6c-0.3,0.4-0.7,0.9-1.3,1.3L50,3.5c1-0.9,1.8-1.9,2.4-3.2l0.9,0.4
			c-0.1,0.4-0.3,0.7-0.6,1.1h5.5V2.8z M55.5,7.8V6.4h-5.3v1.4H55.5z M55.5,10.1V8.7h-5.3v1.4H55.5z M55.7,4.5L54.5,5
			c-0.3-0.5-0.7-1-1.2-1.3l1-0.4C54.8,3.5,55.2,4,55.7,4.5z"/>
		<path class="st0" d="M69.4,3.2h-5.8C63,4.2,62.3,5,61.6,5.7l-0.8-0.6C61.9,4,63,2.4,64.1,0.3L65,0.7c-0.3,0.7-0.6,1.2-0.9,1.6h5.3
			V3.2z M67.1,8.8h-2.2v2.9c0.7-0.2,1.4-0.5,2.1-0.8v1.1c-0.4,0.2-1.1,0.5-2.1,0.9v3.8c0,0.5-0.1,0.8-0.4,1C64.3,17.9,63.8,18,63,18
			c-0.2,0-0.5,0-0.9,0l-0.4-1.1l1.9,0c0.2,0,0.3-0.1,0.3-0.3v-3.4c-0.9,0.3-1.8,0.6-2.7,0.8l-0.3-1c1-0.3,2-0.6,3-0.9V8.8H61v-1h2.8
			V5.3h1v2.5h2.2V8.8z M67.4,5.3l-0.9,0.4C66.1,5,65.7,4.4,65.2,4l1-0.4C66.7,4.1,67.1,4.7,67.4,5.3z M78.4,17.4H67.8V5.9h10.3v0.9
			h-9.2v9.6h9.5V17.4z M78.3,3.2h-6.7c-0.5,0.7-1.1,1.5-1.9,2.2l-0.9-0.6c1.3-1.3,2.5-2.8,3.4-4.5l1,0.4c-0.3,0.6-0.6,1.1-1,1.6h6
			V3.2z M77.7,13.1c0,0.5-0.1,0.9-0.4,1.1c-0.3,0.2-0.9,0.3-1.7,0.3L75,13.4c0.3,0,0.6,0,0.8,0c0.4,0,0.6,0,0.7-0.1s0.2-0.2,0.2-0.3
			V10h-2.2v5.6h-1V10h-2.1v4.6h-1V9.1h3.1V7.6h1v1.5h3.2V13.1z M75.3,5.1l-0.9,0.4c-0.2-0.4-0.5-1-1-1.6l0.9-0.4
			C74.7,4,75.1,4.5,75.3,5.1z"/>
		<path class="st0" d="M88.6,7.2c-0.3,2-0.9,3.5-1.6,4.6l-0.9-0.6c0.6-0.8,1-1.8,1.2-2.9h-2.3v8.2c0,0.4-0.2,0.7-0.5,1
			s-1.2,0.4-2.8,0.3l-0.3-1c1.3,0,2,0,2.1,0c0.1,0,0.3-0.1,0.4-0.2c0.1-0.1,0.2-0.3,0.2-0.4v-8H81v-1h4.4c-0.8-0.9-2-1.9-3.7-3.1
			l0.6-0.8c0.5,0.3,1.1,0.8,2,1.5c1.1-1.1,1.9-2,2.4-2.7h-5.1v-1h6.4v1c-1,1.3-1.9,2.5-2.8,3.4c0.6,0.5,1,0.9,1.3,1.3L86,7.2H88.6z
			 M98.4,1.9H94c-0.1,0.7-0.4,1.5-0.6,2.3h4.1v9.8h-5.2l0.6,0.6c-1,1.2-2.4,2.4-4.2,3.5L88,17.2c1.6-0.9,3-2,4.1-3.2h-2.6V4.2h2.8
			c0.3-0.7,0.5-1.4,0.7-2.3h-4.1v-1h9.7V1.9z M96.4,7V5.2h-6V7H96.4z M96.4,9.9V8h-6v1.9H96.4z M96.4,12.9v-2.1h-6v2.1H96.4z
			 M98.4,17.1L97.7,18c-1.2-1.1-2.5-2-3.8-2.7l0.6-0.8C96.1,15.4,97.4,16.3,98.4,17.1z"/>
		<path class="st0" d="M107.3,3.9l-0.7,0.7c-0.5-0.8-1.1-1.6-2.1-2.6c-0.5,1-1.2,2.1-2.1,3.2h4.1v1h-1.8v2.2h2.1v0.9h-2.1v6.2
			c1-0.3,1.8-0.5,2.2-0.7l0.1,1c-2,0.7-3.9,1.2-5.6,1.5l-0.4-1c0.8-0.1,1.7-0.4,2.7-0.6V9.3h-2.4V8.3h2.4V6.1h-1.5V5.5
			c-0.2,0.2-0.4,0.5-0.7,0.8l-0.5-0.9c1.3-1.4,2.4-3.1,3.3-5.1l0.9,0.4c0,0,0,0.1-0.1,0.2c0,0.1-0.1,0.2-0.1,0.2
			C106.1,2.3,106.8,3.2,107.3,3.9z M103,14.7l-0.9,0.3c-0.2-1.6-0.5-3-0.8-4.1l0.9-0.3C102.6,11.9,102.9,13.3,103,14.7z M106.9,10.7
			c-0.2,1.4-0.4,2.6-0.7,3.5l-0.8-0.3c0.3-1.1,0.6-2.2,0.7-3.4L106.9,10.7z M118.2,5.3c-0.1,0.9-0.3,1.9-0.7,2.9l-0.9-0.4
			c0.2-0.5,0.4-1.1,0.5-1.7h-9.7V5.3H118.2z M118.1,2.4h-5v1.1h4.5v0.9h-9.3V3.5h3.9V2.4h-4.6V1.5h4.6V0.4h1v1.1h5V2.4z M118.4,11.8
			h-11v-0.9h11V11.8z M117.7,9.8h-10.2V9h4.5V7.8h-3.8V7h7.4v0.8H113V9h4.7V9.8z M111.6,17.7h-1v-1H109v1.2h-1v-5.1h3.7V17.7z
			 M110.7,15.8v-2.2H109v2.2H110.7z M118.4,14.1h-1.7v2.5c0,0.3-0.1,0.6-0.3,0.9c-0.2,0.3-0.7,0.4-1.4,0.4c-0.3,0-0.7,0-1,0l-0.3-1
			c0.2,0,0.5,0,0.9,0c0.5,0,0.9,0,1-0.1s0.2-0.2,0.2-0.4v-2.3h-3.4v-0.9h3.4v-1h0.9v1h1.7V14.1z M114.4,15.8l-0.7,0.6
			c-0.4-0.6-0.8-1.1-1.3-1.5l0.7-0.6C113.5,14.7,114,15.2,114.4,15.8z"/>
		<path class="st0" d="M138.6,17h-17.5v-1h8.2V2.3h-7.4V1.2h15.8v1.1h-7.3V16h8.2V17z"/>
		<path class="st0" d="M145.4,11.2c-1.2,2.9-2.4,5.1-3.6,6.7l-0.9-0.6c1.2-1.6,2.4-3.9,3.6-6.7L145.4,11.2z M145.4,8l-0.7,0.8
			c-0.7-0.8-1.8-1.7-3.3-2.6l0.6-0.8C143.6,6.4,144.7,7.2,145.4,8z M145.8,3L145,3.7c-0.9-1-2-1.8-3.2-2.6l0.7-0.8
			C143.7,1.2,144.8,2,145.8,3z M158.6,9.4h-6.3c-1.4,2.8-2.9,5.1-4.4,6.9c2.9-0.3,5.5-0.8,8.1-1.4c-0.7-1.2-1.4-2.2-2.2-3.1l0.9-0.5
			c1.7,2.3,3,4.4,3.8,6.2l-0.9,0.6c-0.4-0.9-0.8-1.6-1.1-2.2c-2.9,0.7-6.2,1.2-9.9,1.6l-0.4-1.1c0.6-0.3,1.4-1.1,2.3-2.4
			c0.9-1.4,1.8-2.9,2.6-4.5h-4.9v-1h5.8v-4h-4.8v-1h4.8V0.4h1v3.1h4.7v1h-4.7v4h5.6V9.4z"/>
		<path class="st0" d="M169.6,11c-0.5-0.3-0.7-0.6-0.7-1c0-0.2,0.1-0.4,0.2-0.6c0.2-0.2,0.4-0.3,0.7-0.3c0.6,0,0.9,0.4,0.9,1.2
			c0,0.7-0.4,1.3-1.2,1.9l-0.4-0.3C169.4,11.6,169.6,11.3,169.6,11z"/>
		<path class="st0" d="M188.4,9.5c-1,0.5-2,1-3,1.4v5.7c0,0.5-0.2,0.8-0.6,1c-0.4,0.2-1.1,0.3-2.1,0.3c-0.3,0-0.6,0-1,0l-0.3-1.1
			c0.5,0,1,0,1.5,0c0.7,0,1.1,0,1.2-0.1c0.1,0,0.2-0.2,0.2-0.3v-5.2c-1.1,0.4-2.1,0.7-3.1,0.9l-0.2-1c1.2-0.3,2.3-0.6,3.3-1V5.2h-3
			v-1h3V0.3h1.1v3.9h3v1h-3v4.5c0.8-0.3,1.7-0.7,2.9-1.3L188.4,9.5z M198.5,2H195v14.2c0,0.4-0.1,0.8-0.3,1
			c-0.2,0.2-0.5,0.4-0.9,0.5c-0.3,0.1-1,0.1-1.8,0.1c-0.4,0-1,0-1.6,0l-0.3-1.1c0.8,0,1.4,0,2.1,0c0.9,0,1.4,0,1.5-0.1
			s0.3-0.2,0.3-0.5V2h-5.5V1h10.1V2z"/>
		<path class="st0" d="M218.8,16.5l-0.2,1c-0.7,0-3.1,0-7.2,0c-3.4,0-5.8-0.7-7.2-2.2c-0.8,1.1-1.6,2-2.3,2.7l-0.8-0.7
			c1.9-1.5,3.2-3.7,3.9-6.4h-3.4V10c0.9-1.1,2-2.5,3.1-4.1h-3.5v-1h4.8v1c-0.6,0.8-1.6,2.2-3,4h3v1c-0.4,1.3-0.8,2.5-1.4,3.6
			c0.7,0.7,1.4,1.1,2.2,1.4c0.8,0.3,1.6,0.5,2.5,0.5c0.9,0.1,2.7,0.1,5.4,0.1C216.8,16.6,218.1,16.5,218.8,16.5z M205.4,3.4
			l-0.8,0.7c-0.8-1.1-1.8-2.1-2.9-3l0.7-0.7C203.6,1.3,204.6,2.3,205.4,3.4z M218.6,7.9h-11.8v-1h5.5V4H209c-0.6,0.9-1,1.5-1.3,1.9
			l-0.9-0.5c1.1-1.4,1.9-2.9,2.5-4.7l1,0.2c-0.3,0.9-0.5,1.6-0.8,2.2h2.7V0.4h1V3h4.3v1h-4.3v2.9h5.3V7.9z M217.4,14.4h-9.1V9.6h9.1
			V14.4z M216.3,13.4v-2.8h-7v2.8H216.3z"/>
		<path class="st0" d="M238.7,16.6l-0.2,1.1c-1.2,0-2.4,0-3.4,0c-2.4,0-4-0.1-5-0.2c-1-0.1-2-0.4-3-0.7c-1-0.3-1.8-0.9-2.6-1.7
			c-1,1.2-1.9,2.1-2.7,2.8l-0.7-0.8c1-0.8,1.9-1.7,2.7-2.8c-0.7-1-1.4-2.3-1.9-3.9l0.9-0.4c0.4,1.4,0.9,2.5,1.5,3.3
			c0.7-1.5,1.1-3.2,1.2-5.1h-3.7V7.3c1.2-1.6,2.5-3.4,3.7-5.4h-4.1v-1h5.2v1c-1.2,2.1-2.4,3.8-3.5,5.3h3.5c-0.1,2.9-0.6,5.3-1.5,7
			c0.6,0.6,1.3,1.2,2.1,1.5s1.6,0.6,2.5,0.7c0.9,0.1,2.7,0.2,5.3,0.2C236.3,16.7,237.5,16.7,238.7,16.6z M238.6,5.7h-1.4v2.8h-4.6
			v1.7h5v1h-5v1.6h5.7v1h-5.7v2h-1v-2h-5v-1h5v-1.6h-4.2v-1h4.2V8.6h-3.8v-1h3.8V5.7h-5v-1h5V3h-3.8V2h3.8V0.5h1V2h4.6v2.7h1.4V5.7z
			 M236.1,4.7V3h-3.6v1.7H236.1z M236.1,7.6V5.7h-3.6v1.8H236.1z"/>
		<path class="st0" d="M250,2.7h-5.6c-0.6,0.8-1.3,1.5-2.2,2.2l-0.9-0.6c1.4-1.1,2.6-2.5,3.5-4.1l1,0.4c-0.2,0.4-0.5,0.8-0.8,1.2
			h4.9V2.7z M258.7,12.9h-8.2v5h-1.1v-5h-8.2v-0.9h8.2V11h1.1v0.9h8.2V12.9z M247.8,14.5c-1.5,1-3.4,2-5.8,2.9l-0.7-0.9
			c2.3-0.8,4.2-1.7,5.8-2.8L247.8,14.5z M249,6.4h-2.9v2.9c0.7-0.1,1.6-0.3,2.9-0.6v1c-2.5,0.6-4.8,1-7,1.4l-0.3-0.9l3.3-0.6V6.4
			h-2.9v-1h6.9V6.4z M247.9,4.6L247,5c-0.5-0.7-0.9-1.2-1.3-1.6l0.9-0.4C247.3,3.6,247.7,4.1,247.9,4.6z M258.8,8.2
			c0,0.8-0.2,1.3-0.5,1.7c-0.3,0.4-0.8,0.6-1.6,0.6c-1.1,0-1.6-0.4-1.6-1.1v-3h-1.9c-0.1,0.8-0.3,1.5-0.5,2c0.5,0.3,1.1,0.7,1.7,1.3
			l-0.7,0.6c-0.5-0.4-1-0.8-1.6-1.2c-0.6,0.6-1.3,1.1-2,1.4l-0.8-0.7c0.9-0.3,1.6-0.7,2.1-1.2c-0.6-0.4-1.2-0.7-1.6-0.9l0.7-0.7
			c0.5,0.2,0.9,0.5,1.4,0.8c0.2-0.4,0.3-0.9,0.3-1.5h-2.2V5.5h6.2v3.8c0,0.2,0.2,0.3,0.7,0.3c0.4,0,0.7-0.2,0.8-0.5
			c0.1-0.3,0.2-0.7,0.2-1.2L258.8,8.2z M258.7,2.7h-6.1c-0.8,0.9-1.6,1.7-2.3,2.2l-0.9-0.6c1.5-1.1,2.7-2.5,3.7-4l1,0.4
			c-0.2,0.4-0.5,0.8-0.7,1.1h5.4V2.7z M258.8,16.8l-0.7,0.8c-1.6-1-3.5-2-5.7-2.9l0.7-0.8C255.4,14.8,257.3,15.7,258.8,16.8z
			 M256,4.8l-0.9,0.4c-0.4-0.7-0.7-1.3-1.1-1.7l1-0.4C255.4,3.6,255.8,4.2,256,4.8z"/>
		<path class="st0" d="M278.5,3.1h-16.9v-1h7.9c-0.1-0.4-0.2-0.9-0.6-1.6l1-0.3c0.2,0.5,0.4,1.1,0.6,1.9h7.8V3.1z M277.6,16.3
			c0,0.5-0.1,0.8-0.4,1.1c-0.2,0.3-0.8,0.4-1.7,0.4c-0.3,0-0.7,0-1.1,0l-0.3-1c0.8,0,1.4,0,1.6,0c0.6,0,0.9-0.2,0.9-0.7v-5.6h-13
			v7.3h-1V9.6h15.1V16.3z M275.7,8.2h-11.2V4.4h11.2V8.2z M274.6,7.3V5.4h-9v1.8H274.6z M274.2,15.9H266v-3.9h8.2V15.9z M273.1,14.9
			v-2H267v2H273.1z"/>
		<path class="st0" d="M287.5,9.1l-0.8,0.7c-0.3-0.7-0.8-1.6-1.6-2.6v10.7h-1V8.2c-0.9,2-1.6,3.4-2.2,4.2l-0.7-0.8
			c1.1-1.6,2.1-3.7,2.8-6h-2.5v-1h2.6V0.4h1v4.1h2v1h-2v0.2C286.2,6.9,287,8.1,287.5,9.1z M291.4,14.3c-1.2,1.4-2.4,2.4-3.6,3.2
			l-0.7-0.8c1.1-0.7,2.3-1.7,3.5-3.1L291.4,14.3z M298.8,12.5h-5.2v5.4h-1v-5.4h-5.3v-1h11.5V12.5z M298.8,1.8h-3.7v1.5h3.1v4.4H288
			V3.3h3V1.8h-3.6v-1h11.3V1.8z M298.1,10h-9.9V9.1h9.9V10z M291,6.7V4.2h-2v2.5H291z M294.1,3.3V1.8h-2v1.5H294.1z M294.1,6.7V4.2
			h-2v2.5H294.1z M298.9,16.8l-0.7,0.7c-0.8-0.9-1.9-2-3.3-3l0.7-0.7C297.1,14.9,298.2,15.9,298.9,16.8z M297.2,4.2h-2.1v2.5h2.1
			V4.2z"/>
		<path class="st0" d="M318.9,9.1h-4.7c-0.7,1.9-1.6,3.6-2.8,4.9c4.1,1.6,6.5,2.7,7.2,3.1l-0.6,0.9c-1-0.6-3.5-1.7-7.4-3.2
			c-2.2,1.6-4.9,2.6-8.3,3.2l-0.6-1c2.9-0.4,5.5-1.3,7.6-2.6c-1.5-0.6-3.4-1.3-5.7-1.9c1-1.1,1.9-2.2,2.6-3.3h-4.8v-1h5.4
			c0.7-1.1,1.3-2.3,2-3.7l1,0.4c-0.5,1-1.1,2.1-1.8,3.3h5.3c0.2-0.6,0.4-1.2,0.5-1.7l1,0.3l-0.4,1.4h4.4V9.1z M318.2,6.3h-1.1V3.5
			h-13.9v2.7h-1.1V2.5h7.6c-0.3-0.6-0.6-1.2-1-1.8l1-0.5c0.4,0.6,0.7,1.3,1.1,2.2h7.3V6.3z M312.9,9.1h-5.5c-0.7,1-1.3,1.9-2,2.8
			c1.2,0.4,2.8,0.9,4.8,1.6C311.4,12.5,312.3,11,312.9,9.1z"/>
		<path class="st0" d="M338.8,6.4l-0.6,0.9c-3.8-1.7-6.5-3.5-8.2-5.5c-1.6,2.2-4.3,4-8.3,5.5l-0.5-1c3.4-1.2,5.9-2.7,7.5-4.6h-1.9
			v-1h3.8C332.1,2.9,334.9,4.8,338.8,6.4z M338.4,17.5h-16.5v-1h7.8v-3.8h-5.5v-1h5.5V7.9h-5.5v-1h12v1h-5.5v3.7h5.5v1h-5.5v3.8h7.7
			V17.5z"/>
		<path class="st0" d="M343.6,13.2c-0.3,1.9-0.7,3.4-1.3,4.6l-1-0.5c0.6-1.1,1-2.5,1.3-4.3L343.6,13.2z M348.9,11.9l-0.9,0.5
			c-0.1-0.4-0.2-0.8-0.4-1.2c-1.8,0.5-3.7,0.8-5.8,1.1l-0.3-1c1.5-1.1,2.8-2.4,4-4.1c-1.6,0.2-2.8,0.3-3.6,0.3l-0.2-0.9
			c1.5-1.6,2.7-3.7,3.7-6.1l0.9,0.4c-0.8,2.1-1.8,3.9-3,5.5c1.2-0.1,2.2-0.1,2.9-0.2c0.5-0.7,0.9-1.4,1.2-2.1l0.9,0.5
			c-1.6,2.9-3.2,5.1-4.9,6.5c1.4-0.2,2.6-0.5,3.6-0.8c-0.1-0.3-0.3-0.7-0.6-1.1l0.9-0.4C348.2,9.9,348.6,11,348.9,11.9z M346.2,17.2
			l-1.1,0.2c0-1.1-0.1-2.4-0.4-4.1l1-0.2C346,14.6,346.2,16,346.2,17.2z M348.9,16.3l-1,0.4c-0.2-1.1-0.5-2.2-1-3.5l0.9-0.4
			C348.4,14.1,348.7,15.2,348.9,16.3z M358.9,4.2h-4.6v3.1h4v1h-8.8v-1h3.8V4.2h-4.4v-1h4.4V0.5h1v2.7h4.6V4.2z M357.7,17.9h-1v-1.1
			h-5.7v1.1h-1v-7.4h7.8V17.9z M356.7,15.7v-4.2h-5.7v4.2H356.7z"/>
		<path class="st0" d="M367.2,9.1l-0.8,0.8c-0.4-1-0.9-1.8-1.3-2.4v10.3h-1V8.2c-0.6,1.7-1.2,3.1-1.9,4.2l-0.7-0.8
			c1-1.7,1.8-3.8,2.6-6.4h-2.3v-1h2.3V0.4h1v3.8h1.8v1h-1.8V6C366,7,366.6,8,367.2,9.1z M379,14.3h-1.4v2c0,0.4-0.1,0.8-0.3,1
			s-0.4,0.4-0.6,0.5c-0.2,0.1-0.6,0.1-1.2,0.1c-0.4,0-0.8,0-1.2,0l-0.4-1c0.4,0,1.1,0.1,2.1,0.1c0.4,0,0.6-0.2,0.6-0.6v-2H369v3.6
			h-1v-3.6h-1.4v-0.9h1.4V8.7h4.3V7.3h-5.5V6.4h3.1V5h-2.1V4.1h2.1V2.8h-2.6V1.9h2.6V0.5h1v1.4h3.9V0.5h1v1.4h2.6v0.9h-2.6v1.3h2V5
			h-2v1.4h3v0.9h-5.5v1.4h4.4v4.7h1.4V14.3z M372.4,11V9.6H369V11H372.4z M372.4,13.4V12H369v1.4H372.4z M374.8,4.1V2.8h-3.9v1.3
			H374.8z M374.8,6.4V5h-3.9v1.4H374.8z M376.7,11V9.6h-3.3V11H376.7z M376.7,13.4V12h-3.3v1.4H376.7z"/>
		<path class="st0" d="M390,11c-0.5-0.3-0.7-0.6-0.7-1c0-0.2,0.1-0.4,0.2-0.6c0.2-0.2,0.4-0.3,0.7-0.3c0.6,0,0.9,0.4,0.9,1.2
			c0,0.7-0.4,1.3-1.2,1.9l-0.4-0.3C389.9,11.6,390,11.3,390,11z"/>
		<path class="st0" d="M413,16.9h-2l-2.5-4.3c-0.5-0.9-1-1.5-1.5-1.8c-0.4-0.3-1-0.4-1.6-0.4H404v6.5h-1.7V1.7h4.5
			c1.4,0,2.5,0.4,3.3,1.1c0.8,0.7,1.2,1.7,1.2,3c0,2.1-1.1,3.5-3.4,4.1v0c0.4,0.2,0.8,0.4,1,0.7c0.3,0.3,0.7,0.9,1.2,1.7L413,16.9z
			 M404,3.3v5.6h2.5c0.9,0,1.7-0.3,2.3-0.8c0.6-0.5,0.9-1.3,0.9-2.1c0-0.8-0.3-1.5-0.8-1.9c-0.5-0.5-1.3-0.7-2.3-0.7H404z"/>
		<path class="st0" d="M425.1,16.2c-1.1,0.6-2.5,0.9-4.2,0.9c-2.1,0-3.8-0.7-5.1-2.1c-1.3-1.4-2-3.2-2-5.4c0-2.3,0.7-4.3,2.1-5.8
			c1.4-1.5,3.3-2.3,5.6-2.3c1.4,0,2.6,0.2,3.6,0.6v1.8c-1.1-0.6-2.3-0.9-3.6-0.9c-1.8,0-3.2,0.6-4.3,1.8s-1.6,2.8-1.6,4.7
			c0,1.8,0.5,3.3,1.5,4.4c1,1.1,2.4,1.7,4,1.7c1.5,0,2.9-0.3,4-1V16.2z"/>
		<path class="st0" d="M429.7,13.2c-0.3,1.9-0.7,3.4-1.3,4.6l-1-0.5c0.6-1.1,1-2.5,1.3-4.3L429.7,13.2z M435,11.9l-0.9,0.5
			c-0.1-0.4-0.2-0.8-0.4-1.2c-1.8,0.5-3.7,0.8-5.8,1.1l-0.3-1c1.5-1.1,2.8-2.4,4-4.1c-1.6,0.2-2.8,0.3-3.6,0.3l-0.2-0.9
			c1.5-1.6,2.7-3.7,3.7-6.1l0.9,0.4c-0.8,2.1-1.8,3.9-3,5.5c1.2-0.1,2.2-0.1,2.9-0.2c0.5-0.7,0.9-1.4,1.2-2.1l0.9,0.5
			c-1.6,2.9-3.2,5.1-4.9,6.5c1.4-0.2,2.6-0.5,3.6-0.8c-0.1-0.3-0.3-0.7-0.6-1.1l0.9-0.4C434.3,9.9,434.7,11,435,11.9z M432.3,17.2
			l-1.1,0.2c0-1.1-0.1-2.4-0.4-4.1l1-0.2C432.1,14.6,432.3,16,432.3,17.2z M435,16.3l-1,0.4c-0.2-1.1-0.5-2.2-1-3.5l0.9-0.4
			C434.4,14.1,434.8,15.2,435,16.3z M445,4.2h-4.6v3.1h4v1h-8.8v-1h3.8V4.2h-4.4v-1h4.4V0.5h1v2.7h4.6V4.2z M443.8,17.9h-1v-1.1H437
			v1.1h-1v-7.4h7.8V17.9z M442.8,15.7v-4.2H437v4.2H442.8z"/>
		<path class="st0" d="M453.3,9.1l-0.8,0.8c-0.4-1-0.9-1.8-1.3-2.4v10.3h-1V8.2c-0.6,1.7-1.2,3.1-1.9,4.2l-0.7-0.8
			c1-1.7,1.8-3.8,2.6-6.4h-2.3v-1h2.3V0.4h1v3.8h1.8v1h-1.8V6C452,7,452.7,8,453.3,9.1z M465.1,14.3h-1.4v2c0,0.4-0.1,0.8-0.3,1
			s-0.4,0.4-0.6,0.5c-0.2,0.1-0.6,0.1-1.2,0.1c-0.4,0-0.8,0-1.2,0l-0.4-1c0.4,0,1.1,0.1,2.1,0.1c0.4,0,0.6-0.2,0.6-0.6v-2h-7.7v3.6
			h-1v-3.6h-1.4v-0.9h1.4V8.7h4.3V7.3h-5.5V6.4h3.1V5h-2.1V4.1h2.1V2.8h-2.6V1.9h2.6V0.5h1v1.4h3.9V0.5h1v1.4h2.6v0.9h-2.6v1.3h2V5
			h-2v1.4h3v0.9h-5.5v1.4h4.4v4.7h1.4V14.3z M458.4,11V9.6h-3.3V11H458.4z M458.4,13.4V12h-3.3v1.4H458.4z M460.9,4.1V2.8H457v1.3
			H460.9z M460.9,6.4V5H457v1.4H460.9z M462.8,11V9.6h-3.3V11H462.8z M462.8,13.4V12h-3.3v1.4H462.8z"/>
		<path class="st0" d="M478.3,10.4l-0.7,0.8c-1-1.1-2-2-3.2-2.9l0.7-0.8C476.5,8.5,477.5,9.4,478.3,10.4z"/>
		<path class="st0" d="M491.9,8.1l-0.7,0.8c-0.9-0.9-2.1-1.8-3.6-2.6l0.7-0.8C489.7,6.2,490.9,7.1,491.9,8.1z M491.5,11.1
			c-0.8,2.6-1.8,4.9-3,6.9l-0.9-0.7c1.2-1.9,2.2-4.2,3-6.8L491.5,11.1z M492.3,3.2L491.6,4c-0.6-0.8-1.6-1.8-3.1-2.9l0.7-0.8
			C490.3,1.2,491.4,2.1,492.3,3.2z M498.2,16.1c-1.8,0.7-3.5,1.3-5.2,1.9l-0.4-0.9c0.3-0.2,0.4-0.5,0.4-0.7V9h1v2.2h4.1v1h-4.1v4.4
			c1.2-0.4,2.5-0.9,4-1.5L498.2,16.1z M503.7,8.3h-10.3V0.9h10.3V8.3z M502.7,4V1.8h-8.2V4H502.7z M502.7,7.3V5h-8.2v2.3H502.7z
			 M505.3,14.3c-0.1,1.3-0.3,2.2-0.7,2.7c-0.4,0.5-1,0.7-1.8,0.7c-1.4,0-2.3,0-2.7-0.1c-0.4-0.1-0.6-0.2-0.8-0.5
			c-0.2-0.3-0.3-0.7-0.3-1.4V9h1v2.2h4.5v1h-4.5v4c0,0.4,0.2,0.5,0.7,0.5h2.2c0.4,0,0.7-0.2,0.9-0.5s0.3-1.1,0.4-2.3L505.3,14.3z"/>
		<path class="st0" d="M510.9,11.3c-0.6,2.5-1.4,4.5-2.3,6l-0.8-0.7c0.9-1.5,1.7-3.5,2.3-5.8L510.9,11.3z M511.1,6.1l-0.9,0.4
			c-0.5-1.6-1.3-3.1-2.2-4.7l0.9-0.5C509.8,3,510.6,4.6,511.1,6.1z M517.4,12.2h-2.5c0,0.3-0.1,0.5-0.1,0.7c0.6,0.4,1.2,1.1,1.9,1.9
			l-0.6,0.7c-0.6-0.7-1.1-1.3-1.6-1.7c-0.7,1.6-1.8,3-3.3,4.1l-0.8-0.7c2.1-1.5,3.2-3.1,3.5-5h-2.3v-0.9h2.3
			c0.1-0.8,0.1-1.6,0.1-2.4h-1.3c-0.3,0.5-0.6,1.1-1.1,1.6l-0.8-0.5c0.8-0.9,1.5-2.2,1.9-3.8l0.9,0.3c-0.1,0.4-0.2,0.9-0.5,1.5h4v1
			H515c0,0.3,0,1.1-0.1,2.4h2.4V12.2z M517.5,5.7h-4.1c-1,0-1.4-0.5-1.4-1.5V0.4h1v1.5h4.2v0.9h-4.2v1.2c0,0.2,0.1,0.3,0.2,0.5
			c0.1,0.1,0.2,0.2,0.4,0.2h4V5.7z M525.3,16.6l-0.3,1c-3.5,0.1-5.7-0.9-6.5-3c-0.5,1.5-1.2,2.6-2.1,3.4l-0.8-0.7
			c0.8-0.7,1.4-1.6,1.8-2.8c0.4-1.2,0.6-2.9,0.6-5.1l0.9,0c0,0.7,0,1.5-0.1,2.4l-0.1,1.2c0,0.2,0.2,0.6,0.5,1.2
			c0.3,0.6,0.8,1.2,1.4,1.5V7.6H518v-1h4.1c-0.7-0.8-1.8-1.7-3.5-2.7l0.6-0.7l1.8,1.2c0.7-0.6,1.5-1.5,2.2-2.5h-5.1v-1h6.3v1
			c-0.9,1.3-1.8,2.3-2.7,3.1c0.6,0.5,0.9,0.9,1.1,1l-0.5,0.6h2.5c-0.2,1.3-0.6,2.4-1.1,3.5L523,9.6c0.3-0.7,0.6-1.3,0.8-2.1h-2v3.5
			h2.7v1h-2.7v4.3c0.8,0.2,1.6,0.3,2.6,0.3C524.7,16.7,525,16.7,525.3,16.6z"/>
		<path class="st0" d="M545.2,17.4h-17.4v-1.1h8.1V7.7h-6.8V6.7h6.8V0.3h1.1v6.4h6.8v1.1h-6.8v8.6h8.1V17.4z"/>
		<path class="st0" d="M565.3,8.6h-9v9.2h-1v-2.2c-2.7,0.4-5.1,0.7-7.3,0.9l-0.4-1c0.3,0,0.9-0.1,1.8-0.2V8.6h-1.6v-1h17.4V8.6z
			 M562.6,6.6h-1V1.8h-10.2v4.8h-1V0.9h12.2V6.6z M555.3,10V8.6h-4.8V10H555.3z M555.3,12.4v-1.4h-4.8v1.4H555.3z M555.3,14.7v-1.4
			h-4.8v2C552.5,15.1,554.1,14.9,555.3,14.7z M560.4,4h-7.7V3h7.7V4z M560.4,6.2h-7.7v-1h7.7V6.2z M565.3,17.1l-0.5,0.9
			c-1.3-0.5-2.6-1.2-3.7-2c-1.2,0.9-2.4,1.6-3.6,2l-0.7-0.7c1.2-0.4,2.4-1,3.5-1.8c-1.2-1.3-2.2-2.7-2.9-4.3h-0.4v-1h7.4
			c-0.4,2.2-1.2,4-2.5,5.3C562.8,16,563.9,16.6,565.3,17.1z M563.2,11h-4.6c0.6,1.4,1.5,2.6,2.6,3.7C562.1,13.7,562.7,12.5,563.2,11
			z"/>
		<path class="st0" d="M585.1,3.1h-16.9v-1h7.9c-0.1-0.4-0.2-0.9-0.6-1.6l1-0.3c0.2,0.5,0.4,1.1,0.6,1.9h7.8V3.1z M584.2,16.3
			c0,0.5-0.1,0.8-0.4,1.1s-0.8,0.4-1.7,0.4c-0.3,0-0.7,0-1.1,0l-0.3-1c0.8,0,1.4,0,1.6,0c0.6,0,0.9-0.2,0.9-0.7v-5.6h-13v7.3h-1V9.6
			h15.1V16.3z M582.3,8.2H571V4.4h11.2V8.2z M581.1,7.3V5.4h-9v1.8H581.1z M580.7,15.9h-8.2v-3.9h8.2V15.9z M579.7,14.9v-2h-6.1v2
			H579.7z"/>
		<path class="st0" d="M592.9,0.8c-0.1,0.4-0.4,1.1-0.8,2.1l-0.6,1.4V18h-1V6.2c-0.8,1.3-1.5,2.3-2.1,3.1l-0.6-1
			c1.4-1.7,2.8-4.3,4.2-8L592.9,0.8z M605.4,3.5h-5.9v2.4h4.9v5.2h-5c-0.1,1.6-0.4,2.9-1,3.9c1.7,1,4.1,1.7,7,2l-0.4,1
			c-2.9-0.3-5.3-1.1-7.2-2.2c-1.2,1.3-2.9,2-5,2.3l-0.4-0.9c2.1-0.3,3.6-0.9,4.6-1.9c-1.2-0.9-2.2-1.9-2.9-2.8l0.9-0.5
			c0.6,0.8,1.4,1.7,2.6,2.5c0.5-0.7,0.8-1.8,0.9-3.3h-5V5.9h5V3.5h-5.7v-1h5.7v-2h1.1v2h5.9V3.5z M598.4,6.9h-3.9v3.2h3.9
			C598.4,8.9,598.4,7.8,598.4,6.9z M603.4,10.1V6.9h-3.9c0,1,0,2.1-0.1,3.2H603.4z"/>
		<path class="st0" d="M624.5,16.5c0,0.5-0.2,0.9-0.6,1.1c-0.4,0.2-1.3,0.3-2.6,0.3c-0.3,0-0.6,0-0.9,0l-0.3-1.1
			c0.5,0,1,0.1,1.4,0.1c1,0,1.5,0,1.7-0.1c0.2-0.1,0.2-0.2,0.2-0.4v-4.8h-5.7v5.9h-1.1v-5.9H611c-0.3,2.7-1,4.9-2.1,6.3l-0.9-0.7
			c1.4-2,2-4.4,2-7.2V0.8h14.5V16.5z M616.7,5.5V1.9h-5.6v3.7H616.7z M616.7,10.5V6.6h-5.6v3.9H616.7z M623.5,5.5V1.9h-5.7v3.7
			H623.5z M623.5,10.5V6.6h-5.7v3.9H623.5z"/>
		<path class="st0" d="M18.3,52.3H0.8v-1.1H9v-3.9H2.5v-1H9v-2.5H10v2.5h6.6v1H10v3.9h8.2V52.3z M17.8,36.7H9.7
			c-1.4,2.2-2.9,3.9-4.4,5.3c3.2-0.2,6.1-0.5,8.7-0.8c-0.7-0.8-1.5-1.6-2.2-2.2l0.9-0.6c1.9,1.8,3.5,3.6,4.7,5.3l-0.9,0.6
			c-0.5-0.6-1-1.3-1.7-2.1c-3.8,0.5-7.7,0.8-11.6,1l-0.3-0.8c1.8-1.1,3.6-3,5.4-5.8H1.2v-1h16.6V36.7z"/>
		<path class="st0" d="M21.2,49.6c1,0.7,2.1,1,3.2,1s1.9-0.3,2.6-0.9c0.7-0.6,1-1.4,1-2.5c0-1-0.3-1.8-1-2.4S25.3,44,24.1,44
			c-0.4,0-1.2,0-2.4,0.1v-7.5h7.3V38h-5.7v4.5c0.6,0,1,0,1.3,0c1.6,0,2.8,0.4,3.7,1.2c0.9,0.8,1.4,1.9,1.4,3.4
			c0,1.5-0.5,2.7-1.5,3.6c-1,0.9-2.3,1.3-3.9,1.3c-1.4,0-2.4-0.2-3.1-0.6V49.6z"/>
		<path class="st0" d="M32,44.4c0-2.7,0.4-4.7,1.3-6.1c0.9-1.4,2.1-2.1,3.8-2.1c3.2,0,4.7,2.6,4.7,7.8c0,2.5-0.4,4.5-1.3,5.8
			c-0.9,1.4-2.1,2.1-3.8,2.1c-1.5,0-2.7-0.7-3.5-2C32.4,48.7,32,46.8,32,44.4z M33.7,44.3c0,4.1,1.1,6.2,3.2,6.2
			c2.1,0,3.2-2.1,3.2-6.3c0-4.4-1-6.6-3.1-6.6C34.8,37.7,33.7,39.9,33.7,44.3z"/>
		<path class="st0" d="M43.6,44.4c0-2.7,0.4-4.7,1.3-6.1c0.9-1.4,2.1-2.1,3.8-2.1c3.2,0,4.7,2.6,4.7,7.8c0,2.5-0.4,4.5-1.3,5.8
			C51.3,51.3,50,52,48.4,52c-1.5,0-2.7-0.7-3.5-2C44,48.7,43.6,46.8,43.6,44.4z M45.3,44.3c0,4.1,1.1,6.2,3.2,6.2
			c2.1,0,3.2-2.1,3.2-6.3c0-4.4-1-6.6-3.1-6.6C46.4,37.7,45.3,39.9,45.3,44.3z"/>
		<path class="st0" d="M55.2,44.4c0-2.7,0.4-4.7,1.3-6.1c0.9-1.4,2.1-2.1,3.8-2.1c3.2,0,4.7,2.6,4.7,7.8c0,2.5-0.4,4.5-1.3,5.8
			C62.9,51.3,61.6,52,60,52c-1.5,0-2.7-0.7-3.5-2C55.6,48.7,55.2,46.8,55.2,44.4z M56.9,44.3c0,4.1,1.1,6.2,3.2,6.2
			c2.1,0,3.2-2.1,3.2-6.3c0-4.4-1-6.6-3.1-6.6C58,37.7,56.9,39.9,56.9,44.3z"/>
		<path class="st0" d="M73.7,37.1h-2.4c-0.4,2.1-0.9,3.7-1.4,5h3.4v8.3h-1v-0.9h-2v1.2h-1v-7.1c-0.5,0.8-0.9,1.5-1.3,2.1l-0.7-0.7
			c1.6-2.3,2.7-4.9,3.1-7.8h-2.7v-1h6.1V37.1z M72.3,48.5V43h-2v5.4H72.3z M84.6,45.3h-6.5c0,0.5-0.1,1.1-0.2,1.9h5.5
			c-0.2,2.8-0.4,4.4-0.8,4.9s-1.1,0.7-2.4,0.7c-0.3,0-0.6,0-1.1,0l-0.3-1c0.7,0,1.2,0,1.6,0c0.7,0,1.1-0.1,1.3-0.2
			c0.2-0.1,0.3-0.4,0.4-0.9c0.1-0.5,0.2-1.3,0.2-2.5h-4.6c-0.5,1.8-1.6,3.4-3.4,4.7l-0.8-0.7c2.2-1.5,3.4-3.8,3.6-6.8h-2.8v-1h4.9
			c-0.2-0.7-0.4-1.3-0.6-1.8l0.9-0.3c0.3,0.7,0.6,1.4,0.7,2.1h4.5V45.3z M84.5,38.1h-1.9c-0.3,1.1-0.6,2-0.9,2.6h2.5v2.7h-1v-1.7
			h-7.8v1.7h-1v-2.7h2.8c-0.2-0.8-0.5-1.7-1-2.6h-1.6v-1h4c-0.2-0.6-0.4-1.2-0.6-1.7l0.9-0.4c0.3,0.8,0.6,1.5,0.7,2h4.9V38.1z
			 M81.5,38.1h-4.1c0.2,0.6,0.5,1.5,0.9,2.6h2.4C81,40,81.3,39.1,81.5,38.1z"/>
		<path class="st0" d="M95.8,45.8c-0.5-0.3-0.7-0.6-0.7-1c0-0.2,0.1-0.4,0.2-0.6c0.2-0.2,0.4-0.3,0.7-0.3c0.6,0,0.9,0.4,0.9,1.2
			c0,0.7-0.4,1.3-1.2,1.9l-0.4-0.3C95.6,46.4,95.8,46.1,95.8,45.8z"/>
		<path class="st0" d="M124.7,41.2l-0.6,0.9c-3.8-1.7-6.5-3.5-8.2-5.5c-1.6,2.2-4.3,4-8.3,5.5l-0.5-1c3.4-1.2,5.9-2.7,7.5-4.6h-1.9
			v-1h3.8C118,37.7,120.8,39.6,124.7,41.2z M124.3,52.3h-16.5v-1h7.8v-3.8H110v-1h5.5v-3.7H110v-1h12v1h-5.5v3.7h5.5v1h-5.5v3.8h7.7
			V52.3z"/>
		<path class="st0" d="M144.8,36.7H137c-0.4,1-0.8,1.9-1.2,2.6h7.8v13.4h-1v-1.2h-12.5v1.2h-1.1V39.3h5.7c0.6-0.9,1.1-1.8,1.3-2.6
			h-8.4v-1h17.4V36.7z M132.7,50.4V40.3h-2.8v10.1H132.7z M138.5,42.8v-2.5h-4.7v2.5H138.5z M138.5,46.5v-2.7h-4.7v2.7H138.5z
			 M138.5,50.4v-2.9h-4.7v2.9H138.5z M142.4,50.4V40.3h-2.8v10.1H142.4z"/>
		<path class="st0" d="M154.2,44c-0.5,0.2-1.4,0.6-2.8,1.1v6.2c0,0.5-0.2,0.9-0.5,1.1c-0.3,0.2-0.9,0.3-1.7,0.3c-0.3,0-0.5,0-0.8,0
			l-0.3-1.1c0.5,0.1,1.1,0.1,1.9,0.1c0.3,0,0.4-0.2,0.4-0.5v-5.8l-2.7,0.9l-0.3-1.1l3-0.9v-4.4h-2.8v-1h2.8v-3.7h1v3.7h2.3v1h-2.3
			V44c0.8-0.3,1.7-0.6,2.6-1L154.2,44z M165,52.3h-11.8v-1h4.2c-0.2-2.8-0.8-6.4-1.9-10.7l0.8-0.5h-1.7v-1h4.5
			c-0.3-1.1-0.7-2.2-1.3-3.4l1-0.4c0.7,1.4,1.2,2.6,1.5,3.8h4.3v1h-1.7l0.8,0.5c-0.4,2.9-1.1,6.5-2.3,10.8h3.5V52.3z M162.7,40h-6.3
			c1.1,4.7,1.7,8.4,2,11.3h2C161.6,46.9,162.4,43.2,162.7,40z"/>
		<path class="st0" d="M184.7,38h-16.9v-1h7.9c-0.1-0.4-0.2-0.9-0.6-1.6l1-0.3c0.2,0.5,0.4,1.1,0.6,1.9h7.8V38z M183.8,51.1
			c0,0.5-0.1,0.8-0.4,1.1s-0.8,0.4-1.7,0.4c-0.3,0-0.7,0-1.1,0l-0.3-1c0.8,0,1.4,0,1.6,0c0.6,0,0.9-0.2,0.9-0.7v-5.6h-13v7.3h-1
			v-8.3h15.1V51.1z M181.9,43h-11.2v-3.8h11.2V43z M180.7,42.1v-1.8h-9v1.8H180.7z M180.3,50.7h-8.2v-3.9h8.2V50.7z M179.3,49.7v-2
			h-6.1v2H179.3z"/>
		<path class="st0" d="M205,51.4l-0.2,1.1c-1.2,0-2.4,0-3.4,0c-2.4,0-4-0.1-5-0.2c-1-0.1-2-0.4-3-0.7s-1.8-0.9-2.6-1.7
			c-1,1.2-1.9,2.1-2.7,2.8l-0.7-0.8c1-0.8,1.9-1.7,2.7-2.8c-0.7-1-1.4-2.3-1.9-3.9l0.9-0.4c0.4,1.4,0.9,2.5,1.5,3.3
			c0.7-1.5,1.1-3.2,1.2-5.1H188v-0.9c1.2-1.6,2.5-3.4,3.7-5.4h-4.1v-1h5.2v1c-1.2,2.1-2.4,3.8-3.5,5.3h3.5c-0.1,2.9-0.6,5.3-1.5,7
			c0.6,0.6,1.3,1.2,2.1,1.5s1.6,0.6,2.5,0.7s2.7,0.2,5.3,0.2C202.6,51.5,203.8,51.5,205,51.4z M204.9,40.6h-1.4v2.8h-4.6v1.7h5v1h-5
			v1.6h5.7v1h-5.7v2h-1v-2h-5v-1h5V46h-4.2v-1h4.2v-1.7H194v-1h3.8v-1.8h-5v-1h5v-1.7h-3.8v-1h3.8v-1.5h1v1.5h4.6v2.7h1.4V40.6z
			 M202.4,39.5v-1.7h-3.6v1.7H202.4z M202.4,42.4v-1.8h-3.6v1.8H202.4z"/>
		<path class="st0" d="M216.3,37.5h-5.6c-0.6,0.8-1.3,1.5-2.2,2.2l-0.9-0.6c1.4-1.1,2.6-2.5,3.5-4.1l1,0.4c-0.2,0.4-0.5,0.8-0.8,1.2
			h4.9V37.5z M225,47.7h-8.2v5h-1.1v-5h-8.2v-0.9h8.2v-0.9h1.1v0.9h8.2V47.7z M214.1,49.3c-1.5,1-3.4,2-5.8,2.9l-0.7-0.9
			c2.3-0.8,4.2-1.7,5.8-2.8L214.1,49.3z M215.3,41.2h-2.9v2.9c0.7-0.1,1.6-0.3,2.9-0.6v1c-2.5,0.6-4.8,1-7,1.4l-0.3-0.9l3.3-0.6
			v-3.1h-2.9v-1h6.9V41.2z M214.2,39.4l-0.9,0.5c-0.5-0.7-0.9-1.2-1.3-1.6l0.9-0.4C213.6,38.4,214,39,214.2,39.4z M225.1,43.1
			c0,0.8-0.2,1.3-0.5,1.7c-0.3,0.4-0.8,0.6-1.6,0.6c-1.1,0-1.6-0.4-1.6-1.1v-3h-1.9c-0.1,0.8-0.3,1.5-0.5,2c0.5,0.3,1.1,0.7,1.7,1.3
			l-0.7,0.6c-0.5-0.4-1-0.8-1.6-1.2c-0.6,0.6-1.3,1.1-2,1.4l-0.8-0.7c0.9-0.3,1.6-0.7,2.1-1.2c-0.6-0.4-1.2-0.7-1.6-0.9l0.7-0.7
			c0.5,0.2,0.9,0.5,1.4,0.8c0.2-0.4,0.3-0.9,0.3-1.5h-2.2v-0.9h6.2V44c0,0.2,0.2,0.3,0.7,0.3c0.4,0,0.7-0.2,0.8-0.5
			c0.1-0.3,0.2-0.7,0.2-1.2L225.1,43.1z M225,37.5h-6.1c-0.8,0.9-1.6,1.7-2.3,2.2l-0.9-0.6c1.5-1.1,2.7-2.5,3.7-4l1,0.4
			c-0.2,0.4-0.5,0.8-0.7,1.1h5.4V37.5z M225.1,51.6l-0.7,0.8c-1.6-1-3.5-2-5.7-2.9l0.7-0.8C221.7,49.6,223.6,50.6,225.1,51.6z
			 M222.3,39.6l-0.9,0.4c-0.4-0.7-0.7-1.3-1.1-1.7l1-0.4C221.7,38.4,222.1,39,222.3,39.6z"/>
		<path class="st0" d="M238.3,36.7h-4.4c-0.3,1.2-0.6,2.2-0.9,3.1h4.3v11.5c0,0.9-0.4,1.3-1.3,1.3h-0.5l-0.2-1h0.7
			c0.3,0,0.4-0.1,0.4-0.4V40.8h-1.6v10.8h-1V40.8h-1.6v10.8h-1V40.8h-1.6v11.9h-1V39.8h3.4c0.3-0.8,0.6-1.8,0.9-3.1H228v-1h10.3
			V36.7z M245.4,40.2h-1.8v11c0,1-0.5,1.5-1.6,1.5h-2.5l-0.3-1h2.7c0.5,0,0.7-0.2,0.7-0.7V40.2h-4.5v-1h4.5v-3.9h1v3.9h1.8V40.2z
			 M241.4,47.7l-1,0.3c-0.4-1.8-1-3.6-1.8-5.5l0.9-0.4C240.4,44.3,241,46.1,241.4,47.7z"/>
		<path class="st0" d="M264.8,48.1H253v3.3c1.3-0.2,2.6-0.5,3.9-0.8v1c-2.1,0.5-3.8,0.8-4.9,1l-0.4-0.9c0.3-0.2,0.4-0.4,0.4-0.7
			v-2.9H250c-0.3,1.8-0.8,3.4-1.4,4.6l-0.9-0.5c1-1.7,1.5-4,1.5-6.8v-2.1h15.5V44h-14.5v1.1h13.3V46h-13.3c0,0.4,0,0.8-0.1,1.2h14.7
			V48.1z M264.6,42h-1v-3.4h-6.7v3.8h-1v-3.8h-6.7V42h-1v-4.3h7.7v-1.1h-7.1v-0.9h15.1v0.9h-7v1.1h7.8V42z M254.9,42
			c-2.3,0.2-3.8,0.4-4.5,0.4l-0.3-0.8c1.6-0.1,3-0.2,4.4-0.4L254.9,42z M255,40l-0.4,0.8c-1.3-0.3-2.7-0.6-4.4-0.8l0.3-0.9
			C252.1,39.4,253.6,39.6,255,40z M265.2,51.7l-0.4,1c-3.3-0.5-5.8-1.6-7.5-3.5l0.8-0.7c0.6,0.7,1.3,1.3,2.1,1.8
			c0.9-0.5,1.7-1.1,2.4-1.7l0.8,0.6c-0.5,0.5-1.2,1-2.1,1.5C262.5,51.3,263.8,51.6,265.2,51.7z M262.6,41.6l-0.4,0.8
			c-1.6-0.2-3.1-0.4-4.7-0.5l0.4-0.8C259.4,41.2,260.9,41.3,262.6,41.6z M262.6,40c-1.5,0.3-3,0.5-4.6,0.6l-0.4-0.8
			c1.4-0.1,2.9-0.3,4.5-0.6L262.6,40z"/>
		<path class="st0" d="M272.8,35.5c-0.3,0.7-0.6,1.5-1,2.5l-0.6,1.3v13.4h-1V41.2c-0.6,1-1.3,2-2,2.8l-0.6-0.9
			c1.5-1.8,2.9-4.5,4.3-8L272.8,35.5z M276.5,48.3c-1.2,1.5-2.6,2.7-4.1,3.6l-0.8-0.7c1.3-0.7,2.6-1.9,4-3.5L276.5,48.3z
			 M279.5,35.6c-2.2,2.2-4.5,3.8-6.8,4.9l-0.8-0.7c2.2-0.9,4.4-2.4,6.7-4.6L279.5,35.6z M284.9,46.7l-0.9,0.6
			c-0.2-0.4-0.4-0.8-0.6-1.3c-1.7,0.2-3.1,0.4-4.1,0.5v4.9c0,0.3-0.1,0.5-0.3,0.8s-0.4,0.4-0.6,0.5s-0.6,0.1-1.2,0.1
			c-0.3,0-0.5,0-0.8,0l-0.4-1l1.7,0c0.2,0,0.3-0.1,0.4-0.2c0.1-0.1,0.2-0.3,0.2-0.4v-4.5c-1.9,0.2-3.6,0.4-5.2,0.5l-0.4-1
			c1.8-0.7,3.9-1.8,6.2-3.3c-2,0.2-3.8,0.4-5.3,0.5l-0.3-0.9c2.5-1.4,4.8-3.1,7-5.2l0.9,0.6c-1.8,1.8-3.7,3.2-5.8,4.4l0.9-0.1
			l4.1-0.4c0.1,0,0.4-0.2,1-0.7c0.4-0.3,0.7-0.5,1-0.8l0.8,0.6c-2.6,2.1-5.2,3.8-8,5.2c2.9-0.3,5.4-0.6,7.4-0.9
			c-0.3-0.4-0.6-1-1-1.5l0.9-0.6C283.5,44.2,284.3,45.4,284.9,46.7z M285.3,51.3l-0.7,0.7c-1-1.3-2.2-2.5-3.7-3.6l0.7-0.7
			C283.1,48.8,284.4,50,285.3,51.3z"/>
		<path class="st0" d="M298.5,39.3h-1.4v2.3h-3.5v1.2h3.5v3.1h-3.5c-0.4,0.6-0.7,1.1-1,1.5h2.4c0.1-0.2,0.2-0.4,0.3-0.7l1,0.2
			c0,0.2-0.1,0.3-0.1,0.5h2.1v0.9h-2.5c-0.5,0.9-1.1,1.7-1.8,2.3c1.1,0.5,2.1,1,2.9,1.4l-0.7,0.7c-1-0.5-2-1.1-3.1-1.5
			c-1.3,0.8-2.8,1.3-4.8,1.5l-0.4-0.9c1.7-0.2,3-0.6,4-1c-1-0.4-1.9-0.7-2.7-1c0.4-0.4,0.8-0.9,1.3-1.4h-2.8v-0.9h3.5
			c0.4-0.5,0.8-1,1.1-1.5h-3.2v-3.1h3.5v-1.2h-3.5v-2.3h-1.4v-0.9h1.4v-2.1h3.5v-1.1h1v1.1h3.5v2.1h1.4V39.3z M292.7,38.4v-1.2h-2.5
			v1.2H292.7z M292.7,40.7v-1.4h-2.5v1.4H292.7z M292.7,45v-1.3h-2.5V45H292.7z M294.6,48.3h-2.7c-0.2,0.2-0.4,0.6-0.9,1.1
			c0.6,0.2,1.2,0.4,1.9,0.7C293.6,49.6,294.1,49,294.6,48.3z M296.2,38.4v-1.2h-2.5v1.2H296.2z M296.2,40.7v-1.4h-2.5v1.4H296.2z
			 M296.2,45v-1.3h-2.5V45H296.2z M305.2,39.4h-0.9c-0.1,4.2-0.8,7.4-2.1,9.7c0.7,1,1.7,2,3,2.9l-0.6,0.8c-1.3-0.8-2.3-1.7-3.1-2.8
			c-1,1.1-2.1,2-3.4,2.8l-0.6-0.8c1.5-0.9,2.6-1.9,3.4-2.9c-0.9-1.8-1.5-3.7-1.7-5.6l0.9-0.3c0.4,2.2,0.8,3.9,1.4,5
			c0.6-1.1,1.1-2.5,1.3-4.1c0.2-1.1,0.3-2.7,0.4-4.6h-2.7c-0.6,1.6-1.4,2.9-2.2,4l-0.8-0.6c1.3-1.7,2.3-4.2,3.1-7.6l1,0.2
			c-0.1,0.8-0.4,1.9-0.8,3.1h4.3V39.4z"/>
		<path class="st0" d="M325.3,52.3h-17.5v-1.1h8.2v-3.9h-6.5v-1h6.5v-2.5h1.1v2.5h6.6v1h-6.6v3.9h8.2V52.3z M324.8,36.7h-8.1
			c-1.4,2.2-2.9,3.9-4.4,5.3c3.2-0.2,6.1-0.5,8.7-0.8c-0.7-0.8-1.5-1.6-2.2-2.2l0.9-0.6c1.9,1.8,3.5,3.6,4.7,5.3l-0.9,0.6
			c-0.5-0.6-1-1.3-1.7-2.1c-3.8,0.5-7.7,0.8-11.6,1l-0.3-0.8c1.8-1.1,3.6-3,5.4-5.8h-7.2v-1h16.6V36.7z"/>
		<path class="st0" d="M332.9,41.1h-1.8v11.5h-1V41.1h-2.3v-1h2.3v-4.9h1v4.9h1.8V41.1z M345.3,48.5h-2.5v2.8c0,0.4-0.1,0.8-0.4,1
			c-0.3,0.2-0.6,0.4-1.1,0.4c-0.5,0-1,0-1.7,0l-0.4-1c0.5,0,0.9,0,1.3,0c0.7,0,1,0,1.2-0.1c0.1-0.1,0.2-0.3,0.2-0.5v-2.5h-9.3v-1
			h9.3v-0.8h1v0.8h2.5V48.5z M345.1,38h-5.7v1.3h4.6v5.5c0,0.4-0.1,0.7-0.4,1c-0.2,0.3-0.8,0.4-1.6,0.4c-0.3,0-0.6,0-0.9,0l-0.4-0.9
			c0.5,0,0.9,0.1,1.4,0.1c0.4,0,0.6,0,0.7-0.1c0.1-0.1,0.1-0.2,0.1-0.4v-0.6h-3.6v1.9h-1v-1.9h-3.6v2.3h-1v-7.2h4.6V38h-5.7v-0.9
			h5.7v-1.9h1v1.9h5.7V38z M338,50.9l-0.7,0.8c-0.9-0.8-1.8-1.3-2.5-1.7l0.6-0.8C336.5,49.7,337.3,50.2,338,50.9z M338.4,41.3v-1
			h-3.6v1H338.4z M338.4,43.2v-1.1h-3.6v1.1H338.4z M343.1,41.3v-1h-3.6v1H343.1z M343.1,43.3v-1.1h-3.6v1.1H343.1z M343.5,36.3
			L343,37c-0.6-0.4-1.1-0.8-1.7-1l0.6-0.7C342.5,35.6,343.1,35.9,343.5,36.3z"/>
		<path class="st0" d="M354.9,45c-0.9,0.4-1.6,0.8-2.3,1v6.7h-1v-6.3c-1.3,0.5-2.4,0.9-3.4,1.2l-0.3-1c1.4-0.4,2.6-0.8,3.7-1.3v-5.1
			h-1.7c-0.3,1.4-0.6,2.5-1,3.5l-0.9-0.4c0.8-2.2,1.3-4.4,1.4-6.7l1,0.2c0,0.7-0.1,1.5-0.3,2.4h1.6v-4.2h1v4.2h2.1v1h-2.1V45
			c0.7-0.3,1.5-0.6,2.3-1V45z M364.9,38.1c0,2.9-0.1,5.7-0.3,8.5s-0.3,4.4-0.5,4.8c-0.2,0.5-0.5,0.8-0.9,1.1
			c-0.4,0.3-1.1,0.4-2.1,0.4c-0.5,0-1,0-1.5-0.1l-0.4-1c0.6,0.1,1.2,0.1,1.7,0.1c0.9,0,1.4-0.1,1.7-0.3c0.3-0.2,0.5-0.5,0.6-0.8
			c0.1-0.4,0.2-1.8,0.4-4.3c0.1-2.5,0.2-5,0.2-7.4h-1.2c-0.5,5.5-2.7,9.8-6.4,13l-0.8-0.7c3.8-3,5.9-7.1,6.3-12.3h-1.6
			c-0.7,3.6-2.3,6.6-4.8,9.1l-0.8-0.6c2.4-2.4,4-5.2,4.6-8.5h-1.6c-0.8,1.6-1.5,2.8-2.2,3.6l-0.8-0.6c1.5-1.7,2.6-4,3.2-6.9l1,0.2
			c-0.3,1.2-0.6,2.1-0.8,2.7H364.9z"/>
		<path class="st0" d="M375.7,38.1l-0.7,0.8c-0.8-0.8-1.6-1.5-2.7-2.2c-0.3,0.4-0.9,1-1.6,1.7h3.2v1h-3.3v-0.8
			c-0.8,0.7-1.5,1.3-2.2,1.8l-0.5-1c2-1.3,3.4-2.8,4.2-4.3l0.9,0.3c-0.1,0.1-0.1,0.3-0.2,0.4C374,36.6,374.9,37.4,375.7,38.1z
			 M375.9,52.1l-0.9,0.5c-0.4-0.8-0.6-1.4-0.7-1.6c-1.2,0.5-2.9,1-4.9,1.7l-0.4-0.9c0.3-0.2,0.4-0.5,0.4-0.9V40.5h5.9v6.4h-4.9v4.4
			c0.8-0.2,2-0.6,3.5-1.1c-0.5-0.9-0.9-1.5-1.1-1.8l0.9-0.5C374.5,49.4,375.3,50.8,375.9,52.1z M374.1,43.2v-1.6h-3.8v1.6H374.1z
			 M374.1,45.9v-1.8h-3.8v1.8H374.1z M385.2,40h-1v-1.8h-6.9V40h-1v-2.8h3.9c-0.2-0.5-0.5-1-0.9-1.7l0.9-0.4
			c0.4,0.7,0.8,1.4,1.1,2.2h3.9V40z M384.5,51.6h-6.4v1.1h-1V40.6h6.7v4.4h-5.7v2h6.4V51.6z M382.8,43.9v-2.4h-4.7v2.4H382.8z
			 M383.5,50.6V48h-5.4v2.6H383.5z"/>
		<path class="st0" d="M405.4,47.8h-3.6v3.1c0,0.8-0.2,1.3-0.6,1.6c-0.4,0.2-1.1,0.3-2.1,0.3c-0.5,0-1,0-1.5-0.1l-0.4-1
			c0.8,0,1.4,0,1.8,0c0.6,0,1.1,0,1.3,0c0.3,0,0.4-0.2,0.4-0.6v-3.3H388v-1h12.7v-1.9h-10.9v-1h6.4v-1.8h-7.4v-1h7.4v-1.3h1v1.3h7.3
			v1h-7.3v1.8h6.4v1h-1.9v1.9h3.6V47.8z M396.5,38H391c-0.7,0.8-1.3,1.5-2,2.1l-0.8-0.7c1.4-1,2.5-2.4,3.4-4.3l1,0.3
			c-0.3,0.5-0.6,1-0.9,1.6h4.9V38z M394.1,40.2l-1,0.4c-0.3-0.5-0.7-1-1.3-1.5l0.9-0.4C393.2,38.9,393.6,39.4,394.1,40.2z
			 M395.7,51.1l-0.8,0.7c-1-1.1-2-2-3-2.7l0.8-0.7C394,49.4,395,50.3,395.7,51.1z M405.2,38h-6.4c-0.4,0.5-0.9,0.9-1.2,1.2l-0.8-0.6
			c1.2-1,2-2.2,2.5-3.5l1,0.4c-0.3,0.6-0.5,1.1-0.8,1.5h5.7V38z M402.7,40.1l-1,0.5c-0.3-0.5-0.8-1-1.4-1.6l1-0.5
			C401.8,39,402.3,39.6,402.7,40.1z"/>
		<path class="st0" d="M410.3,48c-0.4,2-0.8,3.5-1.3,4.7l-1-0.3c0.6-1.5,1-3.1,1.3-4.7L410.3,48z M415.8,46.9l-0.9,0.3
			c-0.2-0.5-0.4-1-0.5-1.2c-1.7,0.5-3.6,0.9-5.8,1.2l-0.3-1c1.4-1.2,2.7-2.7,4-4.6c-1.2,0.2-2.4,0.3-3.5,0.3l-0.2-0.9
			c1.5-1.6,2.8-3.6,3.8-6l1,0.4c-0.9,2.1-2,4-3.3,5.5c1,0,2-0.2,3-0.3c0.6-0.9,1.1-1.7,1.5-2.5l1,0.4c-1.9,3.3-3.7,5.7-5.5,7.4
			c1.1-0.1,2.5-0.4,3.9-0.8c-0.3-0.5-0.5-1-0.8-1.4l0.9-0.4C414.9,44.7,415.5,45.9,415.8,46.9z M413,52.1l-1,0.1
			c-0.1-1.4-0.3-2.8-0.6-4.2l1-0.1C412.7,49.4,412.9,50.8,413,52.1z M425.6,51.9l-0.6,0.8c-1.2-0.7-2.3-1.6-3.4-2.8
			c-1.1,1.1-2.4,2.1-3.8,2.8l-0.7-0.8c1.3-0.6,2.5-1.5,3.8-2.8c-1.2-1.7-2.1-3.9-2.6-6.6c-0.3,4.1-1.3,7.5-2.9,10.2l-0.8-0.6
			c0.3-0.5,0.6-1,0.8-1.6l-0.8,0.2c-0.3-1.1-0.6-2-1-2.8l0.9-0.2c0.4,0.7,0.8,1.6,1,2.6c1.3-2.8,1.9-7.3,2-13.5h-1.6v-1h7.9
			c-0.3,2-0.7,3.8-1.3,5.6h2.4c-0.4,3.5-1.3,6.1-2.7,7.9C423.2,50.2,424.3,51.1,425.6,51.9z M422.5,36.7h-4c0,1.6-0.1,3.1-0.1,4.6h3
			C421.9,39.6,422.3,38.1,422.5,36.7z M423.8,42.3h-4.5c0.4,2.4,1.2,4.4,2.3,6C422.7,46.9,423.4,44.9,423.8,42.3z"/>
		<path class="st0" d="M436.5,45.8c-0.5-0.3-0.7-0.6-0.7-1c0-0.2,0.1-0.4,0.2-0.6c0.2-0.2,0.4-0.3,0.7-0.3c0.6,0,0.9,0.4,0.9,1.2
			c0,0.7-0.4,1.3-1.2,1.9l-0.4-0.3C436.4,46.4,436.5,46.1,436.5,45.8z"/>
		<path class="st0" d="M464.7,40.4h-13.5v3.1c0,3.8-0.8,6.9-2.4,9.1L448,52c1.5-2.1,2.2-4.7,2.2-8v-8.3h14.5V40.4z M463.7,39.4v-2.7
			h-12.4v2.7H463.7z M465.6,44.1h-6.4v2.6h5.1v6.1h-1.1v-1.1H454v1.1h-1.1v-6.1h5.2v-2.6H452v-1h6.1v-2h1v2h6.4V44.1z M463.2,50.7
			v-3H454v3H463.2z"/>
		<path class="st0" d="M473.8,35.5c-0.2,0.6-0.6,1.3-1,2.3l-0.7,1.3v13.6H471V40.8c-0.7,1.1-1.6,2.1-2.6,3.2l-0.6-1
			c2-1.9,3.7-4.5,5-7.8L473.8,35.5z M485.5,52.2h-12.4v-1h5.4v-5.4h-4.4v-1h4.4v-4.6h-5v-1h5.3c-0.2-1-0.7-2.2-1.5-3.6l1-0.4
			c0.6,1.2,1.1,2.6,1.5,4h5.4v1h-5.7v4.6h5v1h-5v5.4h5.9V52.2z"/>
		<path class="st0" d="M505.7,43.9h-4.7c-0.7,1.9-1.6,3.6-2.8,4.9c4.1,1.6,6.5,2.7,7.2,3.1l-0.6,0.9c-1-0.6-3.5-1.7-7.4-3.2
			c-2.2,1.6-4.9,2.6-8.3,3.2l-0.6-1c2.9-0.4,5.5-1.3,7.6-2.6c-1.5-0.6-3.4-1.3-5.7-1.9c1-1.1,1.9-2.2,2.6-3.3h-4.8v-1h5.4
			c0.7-1,1.3-2.3,2-3.7l1,0.4c-0.5,1-1.1,2.1-1.8,3.3h5.3c0.2-0.6,0.4-1.2,0.5-1.7l1,0.3l-0.4,1.4h4.4V43.9z M504.9,41.1h-1.1v-2.7
			H490v2.7h-1.1v-3.8h7.6c-0.3-0.6-0.6-1.2-1-1.8l1-0.5c0.4,0.6,0.7,1.3,1.1,2.2h7.3V41.1z M499.7,43.9h-5.5c-0.7,1-1.3,1.9-2,2.8
			c1.2,0.4,2.8,0.9,4.8,1.6C498.1,47.3,499,45.8,499.7,43.9z"/>
		<path class="st0" d="M511.9,41.8c-0.8,3.6-1.8,6.5-2.8,8.6l-1-0.7c1.1-2,2-4.8,2.7-8.3L511.9,41.8z M521.8,47
			c-0.1,1.3-0.2,2.3-0.3,3.2c-0.2,0.8-0.3,1.4-0.5,1.6c-0.2,0.3-0.5,0.4-0.8,0.5c-0.3,0.1-1.1,0.1-2.4,0.1c-0.9,0-1.7,0-2.3-0.1
			c-0.6,0-1.1-0.2-1.3-0.4c-0.3-0.3-0.4-0.6-0.4-1.1V39.8h1.1v10.8c0,0.2,0.1,0.3,0.2,0.5s0.2,0.2,0.3,0.3c0.1,0,0.6,0,1.5,0l2.6,0
			c0.2,0,0.4-0.1,0.6-0.3s0.4-0.8,0.5-1.7c0.1-1,0.2-1.9,0.2-2.8L521.8,47z M519.9,40.6l-0.9,0.7c-1-1.8-2.5-3.6-4.5-5.5l0.8-0.7
			C517.2,36.8,518.8,38.7,519.9,40.6z M525.7,49.3l-1.1,0.4c-0.5-2.2-1.5-4.8-3.1-7.6l1-0.6C524,44.5,525.1,47.1,525.7,49.3z"/>
		<path class="st0" d="M545.8,38.5h-9.9c-0.5,0.8-1,1.6-1.5,2.3h9.9v10.4c0,0.6-0.2,1-0.6,1.2c-0.4,0.2-1.2,0.3-2.6,0.3
			c-0.5,0-1,0-1.6-0.1l-0.5-1c0.6,0.1,1.3,0.1,1.9,0.1c1.1,0,1.7,0,2-0.1c0.2-0.1,0.3-0.3,0.3-0.5v-2.6h-9.9
			c-0.4,1.8-1.1,3.2-2.2,4.4l-1-0.6c1.7-1.5,2.5-4.1,2.5-7.8c0-0.4,0-0.9,0-1.5c-1.3,1.3-2.5,2.3-3.6,3l-0.8-0.8
			c2.8-1.9,4.9-4.1,6.5-6.7h-6.3v-1h6.9c0.4-0.7,0.8-1.5,1.2-2.4l1.1,0.3c-0.4,0.9-0.7,1.5-1,2.1h9.3V38.5z M543.2,47.5v-2.4h-9.6
			c0,1,0,1.8-0.1,2.4H543.2z M543.2,44v-2.3h-9.5V44H543.2z"/>
		<path class="st0" d="M552.9,35.5c-0.1,0.5-0.4,1.3-0.7,2.2l-0.5,1.4v13.7h-1V41.5c-0.7,1.2-1.2,2.2-1.8,3l-0.7-1
			c1.5-2.2,2.8-5,3.7-8.4L552.9,35.5z M557.2,47.6c-1.3,2-2.6,3.5-3.9,4.5l-0.7-0.7c1.4-1.2,2.7-2.7,3.8-4.5L557.2,47.6z
			 M565.8,45.4h-5.9v7.4h-1v-7.4h-6.1v-1h6.1V42h-4.6v-6.2h10.2V42h-4.6v2.4h5.9V45.4z M563.4,41v-4.2h-8.1V41H563.4z M565.9,51.2
			l-0.7,0.7c-1.1-1.6-2.4-3.1-3.9-4.5l0.8-0.8C563.8,48.5,565.1,50,565.9,51.2z"/>
		<path class="st0" d="M572.3,41.4c1.1,1.5,1.7,3,1.7,4.5c0,0.6-0.2,1.2-0.6,1.7s-1.3,0.7-2.6,0.6l-0.4-1c0.5,0,0.9,0,1.2,0
			c0.5,0,0.9-0.1,1.1-0.4c0.2-0.2,0.3-0.6,0.3-1c0-0.6-0.2-1.2-0.5-2s-0.8-1.5-1.3-2.2c0.5-1.6,1.1-3.2,1.5-4.9H570v16h-1v-17h4.9v1
			C573.5,38,573,39.6,572.3,41.4z M585.8,50h-5.5v2.8h-1V50h-5.3v-1h5.3v-1.4h-4.1v-5.8h9.4v5.8h-4.4V49h5.5V50z M585.8,40.5h-11.6
			v-1h3.3c-0.3-0.7-0.6-1.4-1-1.9h-1.6v-1h4.5c-0.2-0.3-0.4-0.6-0.7-1l0.9-0.5c0.4,0.5,0.7,1,1,1.5h4.8v1h-1.8
			c-0.4,0.9-0.7,1.5-1,1.9h3.2V40.5z M583.7,44.2v-1.4h-7.4v1.4H583.7z M583.7,46.6v-1.5h-7.4v1.5H583.7z M582.5,37.6h-5
			c0.3,0.6,0.6,1.2,0.9,1.9h3.1C581.9,38.9,582.2,38.2,582.5,37.6z"/>
		<path class="st0" d="M597.1,49.7c0.3,0,0.6,0.1,0.8,0.3c0.2,0.2,0.3,0.5,0.3,0.8c0,0.3-0.1,0.6-0.3,0.8c-0.2,0.2-0.5,0.3-0.8,0.3
			c-0.3,0-0.6-0.1-0.8-0.3c-0.2-0.2-0.3-0.5-0.3-0.8c0-0.3,0.1-0.6,0.3-0.8C596.5,49.8,596.8,49.7,597.1,49.7z M597.9,36.6
			l-0.2,10.9h-1.4l-0.2-10.9H597.9z"/>
	</g>
</g>
</svg>
