<?xml version="1.0" encoding="utf-8"?>
<!-- Generator: Adobe Illustrator 25.2.3, SVG Export Plug-In . SVG Version: 6.00 Build 0)  -->
<svg version="1.1" id="section6_p.svg" xmlns="http://www.w3.org/2000/svg" xmlns:xlink="http://www.w3.org/1999/xlink" x="0px"
	 y="0px" viewBox="0 0 628 88" style="enable-background:new 0 0 628 88;" xml:space="preserve">
<style type="text/css">
	.st0{fill:#FFFFFF;}
</style>
<g>
	<g>
		<path class="st0" d="M17.9,5.9H3.2v3.5c0,3.1-0.6,5.6-1.8,7.5l-0.8-0.6c1.1-1.6,1.6-3.9,1.6-6.8V5h15.7V5.9z M9.1,0.4v3.4H2.5V0.4
			H9.1z M11.2,10H10v7.4h-1v-1.8c-1.1,0.2-3,0.4-5.7,0.6l-0.3-0.9c0.7,0,1.3-0.1,1.9-0.2V10h-1V9.2h3.3V7.9H4.4V7h6.4v0.9H8.2v1.3
			h3.1V10z M8.1,2.8V1.3H3.5v1.5H8.1z M9.1,11v-1H6v1H9.1z M9.1,12.9v-1H6v1H9.1z M9.1,14.6v-0.8H6V15C7.1,14.9,8.1,14.8,9.1,14.6z
			 M16.9,3.8h-6.3V0.4h6.3V3.8z M18.2,16.6l-0.6,0.8c-1.4-0.6-2.5-1.3-3.3-2.2c-1,0.9-2,1.7-3.2,2.2l-0.5-0.8c1.2-0.5,2.2-1.2,3-2
			c-0.6-1-1.1-1.9-1.3-2.9l0.9-0.4c0.2,0.9,0.6,1.7,1,2.5c0.8-1.1,1.3-2.6,1.5-4.2h-2.4c-0.5,1-1.2,1.9-1.9,2.6l-0.6-0.7
			c1.1-1.1,2-2.7,2.5-4.7l0.9,0.3c0,0.1-0.2,0.7-0.5,1.6H18v0.9h-1.2c-0.3,2-0.9,3.7-1.8,5C15.6,15.3,16.7,16,18.2,16.6z M15.9,2.8
			V1.3h-4.4v1.5H15.9z"/>
		<path class="st0" d="M38.4,16.2l-0.4,1h-6.8c-2,0-3.5-0.2-4.6-0.6c-1.1-0.4-2.1-1-2.8-1.8c-0.8,1.3-1.5,2.2-2.2,2.7l-0.7-0.6
			c1.8-1.5,2.9-3.7,3.5-6.4h-2.9v-1c1.1-1.5,2-2.8,2.7-4.1h-3.2v-1h4.3v1c-1,1.8-1.9,3.1-2.6,4.1h2.7v1c-0.2,1.1-0.5,2.3-1.1,3.4
			c1.3,1.6,3.5,2.3,6.6,2.3H38.4z M25,2.9l-0.8,0.7c-1-1.1-1.9-2-2.7-2.7l0.7-0.8C23.2,1,24.2,1.9,25,2.9z M38.1,12.3H25.8v-1h3.3
			V9.7h-2.8v-1h2.8V7.4h1v1.3h3.7V7.4h1v1.3h2.9v1h-2.9v1.6h3.4V12.3z M30.5,13.4c-1.3,0.8-2.5,1.4-3.6,1.8l-0.7-0.8
			c1.2-0.4,2.3-1,3.5-1.7L30.5,13.4z M31.6,6.3c-1.2,0.3-2.8,0.7-4.9,1.1l-0.4-0.9c0.2-0.2,0.4-0.4,0.4-0.6V0.5h4.4v3.8h-3.5v1.9
			c1.3-0.2,2.5-0.5,3.8-0.9L31.6,6.3z M30.1,3.2V1.4h-2.5v1.8H30.1z M33.7,11.3V9.7h-3.7v1.6H33.7z M37.9,6.8h-4.1
			c-0.2,0-0.4-0.1-0.7-0.4c-0.2-0.2-0.4-0.5-0.4-0.7V0.5h4.6v3.8h-3.6v1.3c0,0.1,0,0.1,0.1,0.2c0.1,0.1,0.2,0.1,0.2,0.1h3.8V6.8z
			 M37.6,14.3l-0.5,0.8c-1.3-0.7-2.6-1.2-3.8-1.6l0.5-0.8C35.1,13,36.4,13.6,37.6,14.3z M36.2,3.2V1.4h-2.6v1.8H36.2z"/>
		<path class="st0" d="M43.3,12.7c-0.3,1.9-0.7,3.4-1.3,4.6l-1-0.5c0.6-1.1,1-2.5,1.3-4.3L43.3,12.7z M48.5,11.4l-0.9,0.5
			c-0.1-0.4-0.2-0.8-0.4-1.2c-1.8,0.5-3.7,0.8-5.8,1.1l-0.3-1c1.5-1.1,2.8-2.4,4-4.1c-1.6,0.2-2.8,0.3-3.6,0.3l-0.2-0.9
			c1.5-1.6,2.7-3.7,3.7-6.1L46,0.4c-0.8,2.1-1.8,3.9-3,5.5c1.2-0.1,2.2-0.1,2.9-0.2c0.5-0.7,0.9-1.4,1.2-2.1L48,4.1
			c-1.6,2.9-3.2,5.1-4.9,6.5c1.4-0.2,2.6-0.5,3.6-0.8c-0.1-0.3-0.3-0.7-0.6-1.1l0.9-0.4C47.8,9.5,48.3,10.5,48.5,11.4z M45.8,16.7
			l-1.1,0.2c0-1.1-0.1-2.4-0.4-4.1l1-0.2C45.7,14.1,45.8,15.5,45.8,16.7z M48.5,15.9l-1,0.4c-0.2-1.1-0.5-2.2-1-3.5l0.9-0.4
			C48,13.6,48.4,14.8,48.5,15.9z M58.5,3.7h-4.6v3.1h4v1H49v-1h3.8V3.7h-4.4v-1h4.4V0h1v2.7h4.6V3.7z M57.3,17.4h-1v-1.1h-5.7v1.1
			h-1v-7.3h7.8V17.4z M56.3,15.3v-4.2h-5.7v4.2H56.3z"/>
		<path class="st0" d="M69,17.4h-1v-1h-4.9v1h-1V8.8H69V17.4z M68,12.1V9.8h-4.9v2.3H68z M68,15.4V13h-4.9v2.4H68z M76,7.1H64.4V0.3
			H76V7.1z M75,3.2V1.3h-9.5v1.9H75z M75,6.1V4.2h-9.5v1.9H75z M78.1,17.4h-1v-1h-5.1v1h-1V8.8h7.1V17.4z M77.1,12.1V9.8h-5.1v2.3
			H77.1z M77.1,15.4V13h-5.1v2.4H77.1z"/>
		<path class="st0" d="M92.3,1.4h-4.4c-0.3,1.2-0.6,2.2-0.9,3.1h4.3v11.5c0,0.9-0.4,1.3-1.3,1.3h-0.5l-0.2-1H90
			c0.3,0,0.4-0.1,0.4-0.4V5.5h-1.6v10.8h-1V5.5h-1.6v10.8h-1V5.5h-1.6v11.9h-1V4.5H86c0.3-0.8,0.6-1.8,0.9-3.1H82v-1h10.3V1.4z
			 M99.4,5h-1.8v11c0,1-0.5,1.5-1.6,1.5h-2.5l-0.3-1H96c0.5,0,0.7-0.2,0.7-0.7V5h-4.5v-1h4.5V0h1v3.9h1.8V5z M95.4,12.4l-1,0.3
			c-0.4-1.8-1-3.6-1.8-5.5l0.9-0.4C94.4,9,95,10.8,95.4,12.4z"/>
		<path class="st0" d="M119.1,2.3h-14.8v6.3c0,3.3-0.5,6.1-1.5,8.5l-0.8-0.7c0.9-2,1.3-4.5,1.3-7.5V1.4h7.5
			c-0.2-0.4-0.4-0.8-0.6-1.2l0.9-0.4c0.3,0.5,0.6,1,0.8,1.5h7.3V2.3z M118.6,11.1h-8c-0.4,0.5-0.9,1.1-1.5,1.8h8.2v4.6h-1v-0.9H109
			v0.9h-1v-3.6c-0.9,0.7-1.9,1.3-2.9,1.8l-0.7-0.8c2.2-1,3.9-2.3,5-3.7h-4.3v-1h13.5V11.1z M111.3,5.1h-2.4v4.2h-1V5.1h-2.8V4.1h2.8
			V3h1v1.1h2.4V5.1z M107.1,5.7c-0.1,1.7-0.5,2.9-1.1,3.6l-0.8-0.5c0.5-0.7,0.9-1.7,1-3.1H107.1z M116.3,15.6v-1.7H109v1.7H116.3z
			 M111.7,8.9h-0.9c-0.2,0-0.4-0.1-0.6-0.3C110.1,8.5,110,8.3,110,8V5.7h1v2c0,0.2,0.1,0.3,0.4,0.3h0.3V8.9z M113.8,5.7
			c0,1.5-0.4,2.7-1,3.5L112,8.7c0.6-0.8,0.9-1.8,0.9-3H113.8z M118.8,5.1h-3.1v4.2h-1V5.1h-2.5V4.1h2.5V3h1v1.1h3.1V5.1z M119.2,8.9
			h-1.6c-0.6,0-0.9-0.3-0.9-0.9V5.7h0.9v2c0,0.1,0,0.2,0.1,0.2C117.8,8,117.9,8,118,8h1.2V8.9z"/>
		<path class="st0" d="M128.1,13.4c-2,1.1-3.9,1.9-5.7,2.5l-0.3-1c0.8-0.3,1.7-0.6,2.5-1V6h-2.3V5h2.3V0.2h1V5h2.2v1h-2.2v7.5
			c1.1-0.6,1.9-0.9,2.2-1.1L128.1,13.4z M139.6,13.6c-0.1,1.3-0.3,2.2-0.6,2.7c-0.3,0.5-0.7,0.7-1,0.8c-0.3,0-1.4,0.1-3.2,0.1
			c-2.5,0-3.9,0-4.4-0.1c-0.5,0-0.8-0.2-1-0.5s-0.3-0.6-0.3-1V7.5l-1.8,0.6l-0.2-1l1.9-0.7V2.2h1v3.8l3.2-1.1V0h1v4.6l4.4-1.5
			c0,2.6-0.4,5.5-1.1,8.5l-1-0.3c0.6-2.4,0.9-4.7,1-6.7l-3.3,1.1v7.8h-1V6l-3.2,1.1v8.6c0,0.1,0,0.1,0.1,0.2
			c0.1,0.1,0.2,0.2,0.2,0.2s0.5,0.1,1.2,0.1c0.7,0,1.5,0,2.2,0c2.3,0,3.6-0.1,3.9-0.2c0.4-0.1,0.6-1,0.7-2.7L139.6,13.6z"/>
		<path class="st0" d="M149.4,9.3l-0.8,0.8c-0.7-1.1-1.4-2-2-2.8v10.2l-1,0V7.2c-0.7,2.2-1.6,3.9-2.5,5.2l-0.7-0.9
			c1.3-1.9,2.3-4.1,2.9-6.5h-2.7V4h3V0h1v4h2.6v1h-2.6v1C147.7,7.2,148.6,8.3,149.4,9.3z M159.9,16.6l-0.7,0.9c-1.7-0.9-3-1.9-4.1-3
			c-1.2,1.2-2.7,2.3-4.3,3.1l-0.8-0.8c1.9-0.9,3.3-1.9,4.3-3c-1.4-1.9-2.3-4.3-2.6-7.2h-0.7c0,2.9-0.2,5.2-0.7,6.8
			c-0.5,1.6-1.1,3-2,4.1l-1-0.5c0.8-0.9,1.4-2.1,1.9-3.6s0.7-3.7,0.7-6.7V0.5h9.4v1h-8.4v4h7.5c-0.4,3.7-1.3,6.4-2.7,8.2
			C156.9,14.8,158.3,15.7,159.9,16.6z M157.4,6.5H153c0.3,2.6,1.1,4.7,2.2,6.3C156.3,11.3,157.1,9.2,157.4,6.5z"/>
		<path class="st0" d="M171.1,10.6c-0.5-0.3-0.7-0.6-0.7-1c0-0.2,0.1-0.4,0.2-0.6s0.4-0.3,0.7-0.3c0.6,0,0.9,0.4,0.9,1.2
			c0,0.7-0.4,1.3-1.2,1.9l-0.4-0.3C170.9,11.2,171.1,10.8,171.1,10.6z"/>
		<path class="st0" d="M200.3,9l-0.5,1c-3.3-0.7-6-1.6-8.2-2.9c-2.3,1.2-5,2.2-8.3,2.9L182.9,9c2.9-0.5,5.5-1.4,7.8-2.5
			c-1.5-1.1-2.7-2.1-3.5-3c-1.2,0.8-2.3,1.6-3.4,2.2l-0.8-0.8c2.7-1.5,5-3.2,6.8-5.2l0.9,0.6c-0.3,0.4-0.7,0.8-1,1h7.8v1
			c-1.3,1.6-2.9,3-4.9,4.2C194.7,7.7,197.2,8.5,200.3,9z M198,17.5h-1.1v-1.3h-10.1v1.3h-1.1v-7H198V17.5z M196.9,15.1v-3.5h-10.1
			v3.5H196.9z M196.2,2.4h-7.7c-0.2,0.2-0.3,0.3-0.5,0.5c1,1.1,2.2,2.1,3.7,3.1C193.5,4.8,195,3.6,196.2,2.4z"/>
		<path class="st0" d="M220.7,16.7l-0.7,0.9c-2.2-1.4-3.9-3-5.2-4.8c-1.3-1.8-2.2-4.1-2.9-6.7c-0.8,4.7-3.5,8.5-8.2,11.5l-0.7-0.9
			c1.2-0.8,2.3-1.7,3.4-2.7c1.1-1,2-2.2,2.7-3.3s1.3-2.8,1.7-4.8h-7.4v-1h7.6c0.2-1.6,0.3-3.3,0.3-4.9h1.1c-0.1,1.7-0.2,3.4-0.4,4.9
			h8.2v1h-7.4c0.7,2.9,1.7,5.1,3,6.7C217.1,14.1,218.7,15.5,220.7,16.7z"/>
		<path class="st0" d="M240.8,17h-17.4v-1.1h4.6l1.7-8.4H225V6.5h4.8l1-5h-6.7V0.4h16v1.1h-8.2l-1,5h6.8v9.4h3.1V17z M236.6,15.9
			V7.6h-5.9l-1.6,8.4H236.6z"/>
		<path class="st0" d="M261.1,17h-17.5v-1h8.6v-2.2h-6.4v-1h6.4v-2.2h-5.5c-0.7,0.8-1.4,1.6-2.2,2.2l-0.9-0.7c1.4-1,2.7-2.5,3.9-4.4
			l1,0.4c-0.3,0.6-0.7,1.1-1.1,1.5h4.8V8h1v1.6h6.9v1h-6.9v2.2h6.4v1h-6.4V16h7.8V17z M259.5,7.3h-14V0.4h14V7.3z M258.4,3.3V1.4
			h-11.9v1.9H258.4z M258.4,6.3v-2h-11.9v2H258.4z"/>
		<path class="st0" d="M266.1,12.7c-0.4,2-0.8,3.5-1.3,4.7l-1-0.3c0.6-1.5,1-3.1,1.3-4.7L266.1,12.7z M271.6,11.6l-0.9,0.3
			c-0.2-0.5-0.4-1-0.5-1.2c-1.7,0.5-3.6,0.9-5.8,1.2l-0.3-1c1.4-1.2,2.7-2.7,4-4.6c-1.2,0.2-2.4,0.3-3.5,0.3l-0.2-0.9
			c1.5-1.6,2.8-3.6,3.8-6l1,0.4c-0.9,2.1-2,4-3.3,5.5c1,0,2-0.2,3-0.3c0.6-0.9,1.1-1.7,1.5-2.5l1,0.4c-1.9,3.3-3.7,5.7-5.5,7.4
			c1.1-0.1,2.5-0.4,3.9-0.8c-0.3-0.5-0.5-1-0.8-1.4l0.9-0.4C270.7,9.5,271.3,10.6,271.6,11.6z M268.8,16.8l-1,0.1
			c-0.1-1.4-0.3-2.8-0.6-4.2l1-0.1C268.5,14.2,268.7,15.6,268.8,16.8z M281.4,16.7l-0.6,0.8c-1.2-0.7-2.3-1.6-3.4-2.8
			c-1.1,1.1-2.4,2.1-3.8,2.8l-0.7-0.8c1.3-0.6,2.5-1.5,3.8-2.8c-1.2-1.7-2.1-3.9-2.6-6.6c-0.3,4.1-1.3,7.5-2.9,10.2l-0.8-0.6
			c0.3-0.5,0.6-1,0.8-1.6l-0.8,0.2c-0.3-1.1-0.6-2-1-2.8l0.9-0.2c0.4,0.7,0.8,1.6,1,2.6c1.3-2.8,1.9-7.3,2-13.5h-1.6v-1h7.9
			c-0.3,2-0.7,3.8-1.3,5.6h2.4c-0.4,3.5-1.3,6.1-2.7,7.9C279,15,280.1,15.9,281.4,16.7z M278.3,1.4h-4c0,1.6-0.1,3.1-0.1,4.6h3
			C277.7,4.4,278.1,2.9,278.3,1.4z M279.6,7.1h-4.5c0.4,2.4,1.2,4.4,2.3,6C278.5,11.7,279.3,9.7,279.6,7.1z"/>
		<path class="st0" d="M292,3.5l-0.7,0.7c-1.1-1.3-2.1-2.3-3-3c-0.5,0.7-1,1.4-1.6,1.9h3.4v1h-3.6V3.3c-0.5,0.5-1.1,1.2-2,1.8
			L284,4.3c1.8-1.4,3.1-2.9,4-4.6l1,0.3c0,0.1-0.1,0.2-0.1,0.3C289.8,1.2,290.9,2.2,292,3.5z M291.1,11.7h-4.9v4.2
			c1.6-0.8,2.7-1.3,3.2-1.6c-0.2-0.3-0.4-0.8-0.8-1.3l0.8-0.6c0.6,0.9,1.2,1.9,1.6,3.1l-0.8,0.6c-0.1-0.3-0.2-0.6-0.4-0.9
			c-1.6,0.8-3.1,1.6-4.5,2.3l-0.5-1c0.2-0.3,0.4-0.5,0.4-0.8V5.3h5.9V11.7z M290.1,8V6.3h-3.8V8H290.1z M290.1,10.7V8.9h-3.8v1.7
			H290.1z M301.6,16.8l-0.6,0.8c-1.4-0.9-2.6-1.8-3.5-2.9c-1.1,1.1-2.3,2-3.7,2.7l-0.7-0.8c1.5-0.8,2.8-1.7,3.8-2.7
			c-1.2-1.8-1.9-4.4-2.3-7.8h-0.7c0,3.1-0.2,5.4-0.4,7s-0.8,3.1-1.6,4.4l-0.9-0.5c0.7-1.2,1.2-2.5,1.5-4c0.3-1.5,0.4-3.6,0.4-6.2
			V0.4h8.5v1h-7.5v3.7h6.8c-0.2,3.8-1,6.7-2.5,8.9C298.9,15,300.1,15.9,301.6,16.8z M299.5,6.1h-4c0.2,3,0.9,5.3,1.9,7
			C298.6,11.3,299.3,9,299.5,6.1z"/>
		<path class="st0" d="M321.8,2.9h-14.4V9c0,3.3-0.7,6.1-2.2,8.3l-0.9-0.6c1.4-2.1,2-4.6,2-7.4V1.8h6.9c-0.2-0.5-0.4-1.1-0.8-1.7
			l1.1-0.2c0.3,0.6,0.6,1.2,0.9,2h7.3V2.9z M320.9,7.1h-6.4v3.2h5.8v7.3h-1v-1.3H310v1.3h-1.1v-7.3h4.6V3.8h1V6h6.4V7.1z
			 M319.3,15.2v-3.8H310v3.8H319.3z"/>
		<path class="st0" d="M331.1,9c-0.8,0.3-1.6,0.5-2.7,0.8V16c0,0.4-0.1,0.7-0.3,0.9c-0.2,0.2-0.6,0.4-1,0.4c-0.5,0-0.9,0-1.2,0
			l-0.5,0l-0.3-1.1c0.8,0,1.4,0.1,1.8,0.1c0.1,0,0.3-0.1,0.4-0.2c0.1-0.1,0.2-0.3,0.2-0.4v-5.5c-1.2,0.3-2.1,0.6-2.6,0.7l-0.2-1
			c0.7-0.2,1.6-0.4,2.8-0.8V4.3h-2.6v-1h2.6v-3.4h1.1v3.4h2.3v1h-2.3v4.5c0.8-0.2,1.6-0.5,2.5-0.8L331.1,9z M342,6.6h-8.6
			c-0.4,0-0.8-0.1-1-0.4c-0.3-0.3-0.4-0.6-0.4-1v-5.3h1v1.9h8.3v1H333v2.2c0,0.1,0.1,0.3,0.2,0.4s0.3,0.2,0.4,0.2h8.4V6.6z
			 M340.9,17.4h-1v-1.1h-6.8v1.1h-1.1V8.4h8.9V17.4z M339.9,11.8V9.4h-6.8v2.3H339.9z M339.9,15.3v-2.5h-6.8v2.5H339.9z"/>
		<path class="st0" d="M362.3,16l-0.2,1c-1.3,0-2.3,0-3,0c-2.1,0-3.8-0.1-5-0.3c-1.2-0.2-2.3-0.7-3.2-1.3c-1-0.6-1.7-1.4-2.2-2.3
			c-0.7,1.5-1.8,2.9-3.1,4.3l-0.8-0.8c2.1-2.1,3.6-4.8,4.3-8.1l1.1,0.1c-0.2,1-0.6,2.1-1,3.2c1,1.9,2.4,3.1,4.3,3.6V6.8h-6V5.8h12.5
			v1.1h-5.4v3.4h6.5v1h-6.5v4.5c1.9,0.2,3.9,0.3,5.9,0.3C361,16.1,361.6,16,362.3,16z M361.7,6.1h-1V3h-14v3h-1.1V2h7.5
			c-0.2-0.6-0.4-1.3-0.8-1.9l1.1-0.2c0.4,0.7,0.6,1.4,0.8,2.1h7.5V6.1z"/>
		<path class="st0" d="M370,0.3c-0.1,0.4-0.4,1.1-0.8,2.1l-0.6,1.4v13.8h-1V5.8c-0.8,1.3-1.5,2.3-2.1,3.1l-0.6-1
			c1.4-1.7,2.8-4.3,4.2-8L370,0.3z M382.6,3.1h-5.9v2.4h4.9v5.2h-5c-0.1,1.6-0.4,2.9-1,3.9c1.7,1,4.1,1.7,7,2l-0.4,1
			c-2.9-0.3-5.3-1.1-7.2-2.2c-1.2,1.3-2.9,2-5,2.3l-0.4-0.9c2.1-0.3,3.6-0.9,4.6-1.9c-1.2-0.9-2.2-1.9-2.9-2.8l0.9-0.5
			c0.6,0.8,1.4,1.7,2.6,2.5c0.5-0.7,0.8-1.8,0.9-3.3h-5V5.4h5V3.1h-5.7v-1h5.7v-2h1.1v2h5.9V3.1z M375.5,6.4h-3.9v3.2h3.9
			C375.5,8.5,375.6,7.4,375.5,6.4z M380.5,9.6V6.4h-3.9c0,1,0,2.1-0.1,3.2H380.5z"/>
		<path class="st0" d="M401.8,16c0,0.5-0.2,0.9-0.6,1.1c-0.4,0.2-1.3,0.3-2.6,0.3c-0.3,0-0.6,0-0.9,0l-0.3-1.1c0.5,0,1,0.1,1.4,0.1
			c1,0,1.5,0,1.7-0.1c0.2-0.1,0.2-0.2,0.2-0.4v-4.8h-5.7V17H394v-5.9h-5.7c-0.3,2.7-1,4.9-2.1,6.3l-0.9-0.7c1.4-2,2-4.4,2-7.2V0.3
			h14.5V16z M394,5.1V1.4h-5.6v3.7H394z M394,10.1V6.2h-5.6v3.9H394z M400.8,5.1V1.4h-5.7v3.7H400.8z M400.8,10.1V6.2h-5.7v3.9
			H400.8z"/>
		<path class="st0" d="M414,10.6c-0.5-0.3-0.7-0.6-0.7-1c0-0.2,0.1-0.4,0.2-0.6s0.4-0.3,0.7-0.3c0.6,0,0.9,0.4,0.9,1.2
			c0,0.7-0.4,1.3-1.2,1.9l-0.4-0.3C413.8,11.2,414,10.8,414,10.6z"/>
		<path class="st0" d="M443.4,16.4l-0.4,1c-4-0.2-7.3-0.9-10-1.9c-1.7,1.2-3.9,1.8-6.7,2l-0.5-1c2.5-0.1,4.5-0.6,6.1-1.5
			c-1.4-0.7-2.6-1.4-3.7-2.3l0.8-0.7c1,0.9,2.2,1.6,3.7,2.2c0.7-0.7,1.1-1.8,1.3-3.1h-6.2V3.7h6.3V1.5H426v-1h17.2v1h-8v2.2h6.1v7.5
			h-6.2c-0.2,1.5-0.7,2.7-1.3,3.5C436.3,15.7,439.5,16.3,443.4,16.4z M434.1,6.8V4.7h-5.2v2.1H434.1z M434.1,7.8h-5.2v2.4h5.1
			c0-0.5,0.1-1,0.1-1.5C434.1,8.4,434.1,8.1,434.1,7.8z M440.2,10.2V7.8h-5c0,1.1,0,1.9-0.1,2.4H440.2z M440.2,6.8V4.7h-5v2.1H440.2
			z"/>
		<path class="st0" d="M450.9,4.4h-1.6v4c0.3-0.2,0.7-0.4,1.1-0.6l0.2,1c-0.5,0.3-0.9,0.6-1.3,0.7v6.5c0,0.4-0.1,0.7-0.4,1
			s-0.7,0.3-1.4,0.3h-0.9l-0.3-1c0.4,0,0.8,0,1,0c0.4,0,0.7,0,0.8-0.1c0.1-0.1,0.2-0.2,0.2-0.4v-5.7c-0.7,0.4-1.4,0.7-2.1,1l-0.3-1
			c0.7-0.4,1.6-0.8,2.4-1.2V4.4H446v-1h2.3v-3.5h1v3.5h1.6V4.4z M455.9,5.4c-1.2,2.5-2.4,4.6-3.7,6.4c0.7-0.2,1.4-0.3,2.2-0.5
			c0.1-0.3,0.2-0.7,0.2-1.2h0.9c-0.1,1.8-0.6,3.3-1.2,4.4c-0.7,1.1-1.9,2.1-3.5,2.9l-0.6-0.8c2.3-1.1,3.6-2.5,4.1-4.3
			c-1,0.3-2.1,0.6-3.3,0.8l-0.2-1c0.4-0.1,1.2-1.2,2.5-3.5c-0.7,0.1-1.3,0.3-2,0.4L451,8c0.6-0.3,1.3-2,2.1-4.9l1,0.4
			c-0.6,1.7-1.1,3.1-1.7,4.3c0.3,0,0.8-0.1,1.4-0.2C454,7,454.4,6.2,455,5L455.9,5.4z M463.4,2.5h-12.6v-1h5.8
			c-0.1-0.4-0.3-0.9-0.6-1.4l0.9-0.4c0.3,0.6,0.6,1.1,0.7,1.7h5.8V2.5z M463.4,16.5h-6v0.9h-1v-9c-0.2,0.3-0.5,0.7-0.7,1.1l-0.6-0.8
			c1-1.4,1.9-3.3,2.6-5.5l1,0.2c-0.2,0.6-0.4,1.3-0.7,2h2.4c-0.1-0.6-0.3-1.2-0.6-1.9l0.9-0.4c0.2,0.4,0.5,1.2,0.8,2.3h1.9v1H461
			v2.3h1.8v1H461V12h1.8v1H461v2.5h2.4V16.5z M460,8.7V6.4h-2.5l-0.1,0.2v2.1H460z M460,12V9.7h-2.6V12H460z M460,15.5V13h-2.6v2.5
			H460z"/>
		<path class="st0" d="M483.7,9l-0.5,1c-3.3-0.7-6-1.6-8.2-2.9c-2.3,1.2-5,2.2-8.3,2.9L466.3,9c2.9-0.5,5.5-1.4,7.8-2.5
			c-1.5-1.1-2.7-2.1-3.5-3c-1.2,0.8-2.3,1.6-3.4,2.2l-0.8-0.8c2.7-1.5,5-3.2,6.8-5.2l0.9,0.6c-0.3,0.4-0.7,0.8-1,1h7.8v1
			c-1.3,1.6-2.9,3-4.9,4.2C478.1,7.7,480.6,8.5,483.7,9z M481.5,17.5h-1.1v-1.3h-10.1v1.3h-1.1v-7h12.4V17.5z M480.3,15.1v-3.5
			h-10.1v3.5H480.3z M479.6,2.4H472c-0.2,0.2-0.3,0.3-0.5,0.5c1,1.1,2.2,2.1,3.7,3.1C476.9,4.8,478.4,3.6,479.6,2.4z"/>
		<path class="st0" d="M492.8,12.4c-2,1-4,1.9-6,2.6l-0.3-1c1.1-0.4,2-0.7,2.7-1V2.2h-2.4v-1h5.9v1h-2.5v10.3
			c0.6-0.2,1.5-0.6,2.5-1.2L492.8,12.4z M504,1.4h-5.1c-0.2,0.9-0.4,1.7-0.5,2.3h4.5v9.7h-6.3l0.7,0.7c-1.7,1.4-3.5,2.6-5.3,3.4
			l-0.6-0.8c1.9-0.8,3.6-1.9,5.1-3.2h-2.6V3.7h3.5c0.2-0.6,0.4-1.4,0.6-2.3h-4.6v-1H504V1.4z M501.8,6.6V4.7h-7v1.9H501.8z
			 M501.8,9.5V7.6h-7v1.9H501.8z M501.8,12.5v-2h-7v2H501.8z M504.1,16.5l-0.7,0.8c-1.4-0.9-2.9-1.7-4.7-2.4l0.7-0.8
			C501.2,14.8,502.8,15.6,504.1,16.5z"/>
		<path class="st0" d="M524.1,6l-0.6,0.9c-3.8-1.7-6.5-3.5-8.2-5.5c-1.6,2.2-4.3,4-8.3,5.5l-0.5-1c3.4-1.2,5.9-2.7,7.5-4.6h-1.9v-1
			h3.8C517.4,2.5,520.2,4.4,524.1,6z M523.7,17h-16.5v-1h7.8v-3.8h-5.5v-1h5.5V7.5h-5.5v-1h12v1h-5.5v3.7h5.5v1h-5.5V16h7.7V17z"/>
		<path class="st0" d="M533.2,12.4c-1.6,0.9-3.6,2-5.9,3.2l-0.4-0.9c1.2-0.6,2.2-1.1,2.9-1.5V7.8h-2.4V6.8h2.4V2.2h-2.6v-1h6v1h-2.5
			v4.6h2.1v0.9h-2.1v4.9c0.7-0.3,1.6-0.8,2.4-1.4L533.2,12.4z M537,11.8c-1.7,1.9-3.1,3.2-4.1,3.9l-0.7-0.8c1.3-0.9,2.7-2.3,4.3-4
			L537,11.8z M544.5,15.1l-0.6,0.9c-2.2-1.9-3.7-4.3-4.8-7.1v6.9c0,0.5-0.1,0.9-0.4,1.2c-0.3,0.3-0.9,0.5-1.9,0.5
			c-0.4,0-0.9,0-1.2-0.1l-0.3-1c0.6,0.1,1.1,0.1,1.6,0.1c0.5,0,0.9-0.1,1-0.2c0.2-0.1,0.2-0.3,0.2-0.6V4.5H533v-1h5.1v-3.6h1v3.6
			h5.3v1h-5.3v1c0.1,1.1,0.5,2.3,1,3.5c1.2-0.9,2.2-1.9,3-3l0.8,0.7c-0.8,1.1-2,2.2-3.4,3.3C541.3,11.4,542.6,13.2,544.5,15.1z
			 M537.1,8.9l-0.9,0.6c-0.6-1.1-1.5-2.2-2.5-3.3l0.8-0.6C535.7,6.9,536.6,8,537.1,8.9z M543.6,2.1l-0.8,0.7
			c-0.5-0.7-1.1-1.3-1.9-1.9l0.7-0.7C542.3,0.8,543,1.4,543.6,2.1z"/>
		<path class="st0" d="M553.5,3h-6.2V2h2.7c-0.2-0.7-0.5-1.3-0.8-1.8l0.9-0.3c0.4,0.8,0.8,1.5,1,2.2h2.4V3z M553.1,5.9h-5.4v-1h5.4
			V5.9z M553.1,8.7h-5.4v-1h5.4V8.7z M552.7,16.9h-1v-1.1h-2.6v1.6h-1v-6.7h4.6V16.9z M551.7,14.8v-3.1h-2.6v3.1H551.7z M555.7,11
			c-0.5,2.1-1,3.8-1.5,4.9l-0.9-0.4c0.6-1.4,1.1-2.9,1.5-4.7L555.7,11z M564,0.4c-0.1,1.5-0.1,2.9-0.3,4.3c-0.1,1.4-0.2,2.2-0.3,2.5
			c-0.1,0.3-0.2,0.5-0.5,0.7c-0.2,0.2-0.5,0.4-0.9,0.5c-0.4,0.1-1.1,0.1-2,0.1l-0.3-1.1c0.6,0,1.1,0,1.4,0c0.7,0,1.1-0.2,1.3-0.6
			c0.2-0.4,0.4-2.2,0.5-5.4h-2.7c-0.3,4.1-2.2,6.7-5.7,7.8l-0.6-0.8c1.5-0.5,2.8-1.3,3.7-2.3c-0.7-0.8-1.5-1.5-2.5-2.1l0.7-0.7
			c0.9,0.5,1.7,1.2,2.4,2c0.6-1.1,0.9-2.3,1-3.8h-5v-1H564z M562,13.5c-0.1,1.4-0.2,2.3-0.4,2.7c-0.2,0.4-0.4,0.7-0.7,0.8
			c-0.3,0.1-0.9,0.2-1.9,0.2c-0.9,0-1.5-0.1-1.8-0.4c-0.3-0.2-0.5-0.7-0.5-1.3v-4.8h1v4.9c0,0.2,0.1,0.3,0.3,0.5
			c0.2,0.1,0.7,0.2,1.5,0.2c0.6,0,1-0.1,1.2-0.3s0.3-1.1,0.4-2.6L562,13.5z M560.7,11.2l-0.7,0.7c-0.7-1-1.5-1.9-2.3-2.7l0.7-0.7
			C559.4,9.5,560.2,10.4,560.7,11.2z M564.7,15.1l-1,0.4c-0.3-1.4-0.8-3-1.5-4.6l0.9-0.4C563.9,12.3,564.4,13.9,564.7,15.1z"/>
		<path class="st0" d="M573.6,2.9h-6.1V2h2.8c-0.1-0.4-0.4-1.1-0.7-1.8l0.9-0.3c0.4,0.9,0.7,1.6,0.8,2.2h2.3V2.9z M573.1,5.8H568
			V4.8h5.1V5.8z M573.1,8.9H568v-1h5.1V8.9z M573,17h-1v-1.2h-2.8v1.6h-1v-6.7h4.9V17z M572,14.8v-3.1h-2.8v3.1H572z M578.8,1.4
			c0,0.2-0.4,1.1-1.1,2.5c-0.7,1.4-1.9,2.8-3.5,4.2l-0.8-0.7c1.1-1,1.9-1.8,2.5-2.6c-0.5-0.5-1.1-1-1.8-1.5l0.7-0.6
			c0.5,0.3,1,0.7,1.7,1.3c0.6-1,1-1.8,1.3-2.6h-3.6V0.4h4.6V1.4z M584.7,17h-11v-0.9h3.2c-0.1-0.6-0.4-1.5-1-2.9l0.7-0.6h-1.6V8.4h8
			v4.2h-1.4l0.7,0.6c-0.4,1.3-0.8,2.2-1.1,2.9h3.4V17z M582,11.6V9.3h-5.9v2.2H582z M581.6,6.9h-4.9V6h4.9V6.9z M581.5,12.5h-4.6
			c0.4,0.9,0.8,2.1,1.2,3.5h2.3C580.7,15.2,581.1,14.1,581.5,12.5z M585,7.2L584.3,8c-2.6-2-4.2-4.5-4.9-7.5l0.9-0.5
			c0.2,0.8,0.4,1.4,0.6,1.9c0.6-0.4,1.1-0.9,1.7-1.6l0.7,0.6c-0.4,0.5-1.1,1.1-2,1.8c0.3,0.5,0.5,1,0.7,1.3c0.5-0.4,1.1-1,1.8-1.8
			l0.7,0.6c-0.6,0.8-1.3,1.5-2,2.1C583.2,5.6,584,6.4,585,7.2z"/>
		<path class="st0" d="M596.5,6.7c0.6,0,1,0.2,1.4,0.6c0.4,0.4,0.6,0.9,0.6,1.4s-0.2,1.1-0.5,1.4c-0.4,0.4-0.8,0.6-1.4,0.6
			c-0.5,0-1-0.2-1.4-0.5c-0.4-0.3-0.6-0.8-0.6-1.5c0-0.6,0.2-1.1,0.6-1.5C595.6,6.9,596,6.7,596.5,6.7z M597.7,8.8
			c0-0.3-0.1-0.6-0.4-0.8c-0.2-0.2-0.5-0.3-0.9-0.3c-0.3,0-0.6,0.1-0.8,0.3c-0.2,0.2-0.3,0.5-0.3,0.8c0,0.3,0.1,0.6,0.3,0.8
			c0.2,0.3,0.5,0.4,0.9,0.4c0.3,0,0.6-0.1,0.8-0.3C597.6,9.4,597.7,9.1,597.7,8.8z"/>
		<path class="st0" d="M625.5,10.6l-0.5,0.9c-2.4-0.6-4.3-1.2-5.8-1.8v0.8H614V9.8c-1.9,0.8-3.8,1.4-5.6,1.7l-0.5-0.9
			c4-0.8,6.9-2,8.9-3.7l1,0.5c-0.2,0.1-0.3,0.2-0.3,0.3C619.5,8.9,622.2,9.9,625.5,10.6z M625,7.3h-1V3.7h-6.7v2.8h-1V3.7h-6.8v3.5
			h-1V2.7h7.8V1.3h-7.2v-1h15.2v1h-7v1.4h7.7V7.3z M623,12.7c-1.2,0.9-2.7,1.8-4.7,2.8c0.6,0.2,1.4,0.6,2.5,1.2l-0.6,0.8
			c-2.3-1.2-5-2.2-8-2.9l0.6-0.9c1.9,0.5,3.4,1,4.2,1.3c1.5-0.6,2.9-1.4,4.2-2.3h-11.5v-0.9H623V12.7z M615.5,7.2
			c-1.4,0.3-3,0.6-4.8,0.8l-0.3-0.9c1.6-0.1,3.2-0.4,4.8-0.7L615.5,7.2z M615.4,5.1l-0.5,0.8c-1.7-0.5-3.2-0.7-4.5-0.8l0.4-0.9
			C612.7,4.5,614.2,4.8,615.4,5.1z M619.1,9.7c-0.9-0.4-1.7-0.9-2.4-1.3c-0.7,0.5-1.4,0.9-2.3,1.3H619.1z M623,5.2
			c-1.4,0.4-2.9,0.6-4.5,0.7l-0.4-0.9c1.7-0.1,3.2-0.3,4.5-0.7L623,5.2z M623.3,7.2l-0.5,0.9c-1.5-0.4-3-0.7-4.5-0.9l0.4-0.9
			C620.8,6.7,622.3,7,623.3,7.2z"/>
		<path class="st0" d="M17.1,46H10v6.3H8.9V46H1.8V35.2h15.4V46z M8.9,40v-3.7h-6V40H8.9z M8.9,44.9v-3.9h-6v3.9H8.9z M16,40v-3.7
			H10V40H16z M16,44.9v-3.9H10v3.9H16z"/>
		<path class="st0" d="M28.7,36.4h-2.3v2.7h1.9v13h-0.9v-1.1h-4.6v1.3h-1V39.1h1.9v-2.7h-2.3v-0.9h7.3V36.4z M27.4,50.1v-5h-0.9
			c-0.7,0-1.1-0.4-1.1-1.1v-3.9h-0.9c0.1,2.3-0.3,4.3-1.1,5.8l-0.7-0.5v4.7H27.4z M23.6,40.1h-0.9v5C23.4,43.6,23.7,42,23.6,40.1z
			 M26.9,47.9h-3.5V47h3.5V47.9z M25.5,39.1v-2.7h-0.8v2.7H25.5z M27.4,44.1v-4h-1v3.6c0,0.3,0.1,0.4,0.4,0.4H27.4z M38.9,44.5
			l-0.6,0.8c-0.5-0.3-1.1-0.7-1.8-1.1v0.7h-2.2v2.4h3.4v0.9h-3.4v2.7h4.2v1h-9.2v-1h4v-2.7H30v-0.9h3.3v-2.4H31v-0.6
			c-0.9,0.6-1.5,0.9-1.8,1l-0.6-0.8c1.9-1,3.3-2.1,4.2-3.4h-1.4v-0.9h3.1C35.2,41.8,36.7,43.2,38.9,44.5z M33.5,37.8h-1.2v1.7h-1
			v-1.7h-2.1v-1h2.1v-2h1v2h1.2V37.8z M36.2,43.9c-1-0.9-1.8-1.7-2.3-2.6c-0.5,0.9-1.3,1.7-2.4,2.6H36.2z M38.6,37.8h-2.1v1.7h-1
			v-1.7h-1.3v-1h1.3v-1.9h1v1.9h2.1V37.8z"/>
		<path class="st0" d="M50.3,45.4c-0.5-0.3-0.7-0.6-0.7-1c0-0.2,0.1-0.4,0.2-0.6c0.2-0.2,0.4-0.3,0.7-0.3c0.6,0,0.9,0.4,0.9,1.2
			c0,0.7-0.4,1.3-1.2,1.9l-0.4-0.3C50.2,46,50.3,45.6,50.3,45.4z"/>
		<path class="st0" d="M80.2,46.8l-0.7,0.9c-3-2.4-5.6-4.1-7.8-5.2v10h-1.1V41.1c-1.9,2.3-4.4,4.4-7.6,6.5l-0.7-0.9
			c4.9-2.9,8.3-6.4,10-10.4h-9.6v-1.1h17v1.1h-6.2c-0.5,1-1.1,2.1-1.8,3.3v1.6C75.6,43.3,78.4,45.2,80.2,46.8z"/>
		<path class="st0" d="M100.7,39.9l-0.5,1c-3.4-1.2-6.2-2.8-8.4-4.9c-2.3,2.1-5,3.7-8.3,4.9l-0.6-1c3.6-1.1,6.6-2.8,8.8-5.3l1.2,0.3
			c-0.1,0.1-0.1,0.2-0.3,0.3C94.6,37.3,97.3,38.9,100.7,39.9z M98.4,52.3h-1.1v-0.9h-11v0.9h-1.1V46h7.4c1.4-1.1,2.7-2.3,3.9-3.6
			H85.7v-1h12.1v1c-1.3,1.4-2.5,2.6-3.7,3.6h4.2V52.3z M97.3,50.3v-3.2h-11v3.2H97.3z M94.8,39.6h-5.9v-1h5.9V39.6z"/>
		<path class="st0" d="M109.6,35.3c-0.1,5.1-0.5,8.9-1.4,11.4c-0.9,2.4-2.1,4.3-3.8,5.6l-0.8-0.8c1.5-1.2,2.7-2.8,3.5-5
			c0.8-2.2,1.3-6,1.4-11.4L109.6,35.3z M121.2,51.4l-0.8,0.9c-1.6-1.8-2.9-3.8-3.7-6.2c-0.8-2.4-1.3-5.7-1.4-9.8h-2.5v-1.1h3.5
			C116.4,43,118,48.4,121.2,51.4z"/>
		<path class="st0" d="M141.9,51.5l-0.7,0.9c-2.2-1.4-3.9-3-5.2-4.8c-1.3-1.8-2.2-4.1-2.9-6.7c-0.8,4.7-3.5,8.5-8.2,11.5l-0.7-0.9
			c1.2-0.8,2.3-1.7,3.4-2.7c1.1-1,2-2.2,2.7-3.3c0.7-1.2,1.3-2.8,1.7-4.8h-7.4v-1h7.6c0.2-1.6,0.3-3.3,0.3-4.9h1.1
			c-0.1,1.7-0.2,3.4-0.4,4.9h8.2v1h-7.4c0.7,2.9,1.7,5.1,3,6.7S139.9,50.3,141.9,51.5z"/>
		<path class="st0" d="M162.4,51.8H145v-0.9h8.2v-1.6h-7.3v-1h7.3v-1.6h-6.2v-5.9h6.2v-1.6h-7.7v-0.9h7.7v-1.7
			c-1.9,0.1-4,0.1-6.3,0.1l-0.3-0.9c5.5,0.1,10.2-0.3,14.1-1l0.5,0.8c-1.5,0.4-3.8,0.6-7,0.9v1.8h7.8v0.9h-7.8v1.6h6.3v5.8h-6.3v1.6
			h7.3v1h-7.3v1.6h8.2V51.8z M153.2,43.3v-1.5H148v1.5H153.2z M153.2,45.7v-1.6H148v1.6H153.2z M159.4,43.3v-1.5h-5.2v1.5H159.4z
			 M159.4,45.7v-1.6h-5.2v1.6H159.4z"/>
		<path class="st0" d="M183,41.1l-0.6,0.9c-1.3-0.6-2.4-1.2-3.2-1.7v1h-4.5v2.8h7.2v1h-7.2v5.6h7.6v1h-16v-1h7.4v-5.6h-7v-1h7v-2.8
			h-4.3v-1c-1.2,0.7-2.3,1.3-3.3,1.7l-0.7-0.9c3.7-1.5,6.6-3.6,8.7-6.3l1.1,0.4l-0.3,0.3C177.1,37.9,179.8,39.7,183,41.1z
			 M171.5,49.5l-1,0.4c-0.4-0.9-1-2-2-3.3l0.9-0.4C170.3,47.2,171,48.4,171.5,49.5z M179,40.2c-1.6-1-3.2-2.3-4.7-4
			c-1.2,1.4-2.8,2.7-4.8,4H179z M180.3,46.6c-0.8,1.5-1.5,2.6-2.3,3.4l-0.9-0.6c0.7-0.7,1.5-1.8,2.3-3.3L180.3,46.6z"/>
		<path class="st0" d="M202.7,38.2h-14.3v7.5c0,2.4-0.4,4.6-1.3,6.6l-0.8-0.6c0.8-2.3,1.2-4.8,1.2-7.5v-8.9h15.3V38.2z M201.7,37.3
			v-1.2h-13.3v1.2H201.7z M203,45.6c0,1.1,0,2.2-0.1,3.4s-0.1,1.9-0.2,2.2c0,0.3-0.2,0.5-0.4,0.7s-0.5,0.3-0.8,0.3h-1.1l-0.3-0.9
			h1.4c0.1,0,0.2-0.1,0.3-0.2c0.1-0.1,0.1-0.7,0.2-1.7c0.1-1,0.1-2,0.1-3h-6v0.8h4.1v2.3h-1.4c0.3,0.4,0.7,1,1.1,1.7l-0.7,0.4
			c-0.1-0.1-0.2-0.4-0.3-0.6c-2.9,0.4-5.9,0.7-8.7,0.9l-0.3-0.8c1.1-0.1,2.9-0.2,5.4-0.5v-1.1h-4v-2.3c-0.7,0.4-1.4,0.7-1.9,0.9
			l-0.4-0.7c1.7-0.7,3.1-1.6,4.1-2.8h-2.6v-2.5h12.7v2.5h-9c-0.2,0.4-0.5,0.7-0.8,0.9H203z M194.8,41.1c-1.3,0.2-3,0.5-5,0.7
			l-0.3-0.8c1.6-0.2,3.3-0.4,5.1-0.7L194.8,41.1z M194.7,39.2l-0.2,0.8c-1.6-0.3-3.2-0.5-4.9-0.6l0.3-0.8
			C191,38.6,192.6,38.8,194.7,39.2z M194,43.9v-1h-3v1H194z M195,47.2v-0.8h-2.9c-0.5,0.4-0.8,0.7-1,0.8H195z M195,48.8v-0.9h-3.1
			v0.9H195z M197.9,43.9v-1h-3.1v1H197.9z M196.8,41.5h-1v-2.8h1V41.5z M199.1,48.8v-0.9H196v0.9H199.1z M198.3,49.5H196v1l2.1-0.2
			l-0.3-0.5L198.3,49.5z M203.4,39.5c-1.7,0.3-3.4,0.4-5.1,0.5l-0.3-0.8c1.7-0.1,3.4-0.2,5.1-0.5L203.4,39.5z M203.6,41.1l-0.2,0.8
			c-1.8-0.4-3.5-0.6-5.3-0.8l0.1-0.8C200.4,40.5,202.2,40.8,203.6,41.1z M201.9,43.9v-1h-3.1v1H201.9z"/>
		<path class="st0" d="M215.2,45.4c-0.5-0.3-0.7-0.6-0.7-1c0-0.2,0.1-0.4,0.2-0.6c0.2-0.2,0.4-0.3,0.7-0.3c0.6,0,0.9,0.4,0.9,1.2
			c0,0.7-0.4,1.3-1.2,1.9l-0.4-0.3C215,46,215.2,45.6,215.2,45.4z"/>
		<path class="st0" d="M235.3,41.8h-7.9v-0.9h3.7v-1.4h-3v-0.9h3v-1.4h-3.4v-0.9h3.4v-1.5h1v1.5h3.1v0.9h-3.1v1.4h2.7v0.9h-2.7v1.4
			h3.1V41.8z M234.6,50.8c0,1-0.6,1.5-1.7,1.5c-0.3,0-0.6,0-1-0.1l-0.4-1c0.3,0,0.9,0,1.6,0c0.3,0,0.5-0.2,0.5-0.5V49h-4.1
			c-0.3,1.4-0.6,2.5-1.1,3.2l-0.9-0.5c0.7-1.2,1.1-2.8,1.1-4.8v-3.9h6.1V50.8z M233.6,48.1v-1.6h-4c0,0.5,0,1,0,1.6H233.6z
			 M233.6,45.6V44h-4v1.5H233.6z M244.8,45h-1.2v3.1h-3.3v2.6c0,0.6-0.1,1-0.4,1.2s-0.8,0.3-1.4,0.3c-0.3,0-0.7,0-1.2,0l-0.5-1
			c0.6,0,1.1,0.1,1.4,0.1c0.5,0,0.7,0,0.8-0.1c0.1-0.1,0.2-0.2,0.2-0.4v-2.6h-3.2v-0.9h3.2V45h-3.8v-0.9h3.8V42h-3.2v-0.9h7.5v3h1.2
			V45z M244.2,35.6c-2,0.7-4.6,1.1-8,1.3l-0.4-0.9c3.4-0.2,6-0.6,7.9-1.2L244.2,35.6z M238.2,40.1l-0.9,0.3
			c-0.4-0.8-0.8-1.5-1.4-2.2l0.9-0.4C237.4,38.5,237.8,39.3,238.2,40.1z M241,39.9l-0.9,0.3c-0.5-1.2-0.8-2-1-2.4l0.9-0.3
			C240.4,38.1,240.7,39,241,39.9z M242.6,44.1V42h-2.3v2.1H242.6z M242.6,47.2V45h-2.3v2.2H242.6z M244.4,37.7
			c-0.6,1.3-1,2.2-1.4,2.7l-0.9-0.5c0.6-0.8,1.1-1.7,1.4-2.7L244.4,37.7z"/>
		<path class="st0" d="M265.4,41.7H248v-1h5.5c-0.3-0.9-0.8-1.9-1.5-3h-3v-1h7.4c-0.3-0.7-0.6-1.2-0.9-1.7l1-0.4
			c0.4,0.7,0.7,1.3,1,2h7v1h-3.1c-0.5,1.2-0.9,2.2-1.3,3h5.4V41.7z M262.7,52.2h-1v-1.3h-9.9v1.3h-1v-8.8h11.9V52.2z M261.7,46.6
			v-2.1h-9.9v2.1H261.7z M261.7,49.9v-2.3h-9.9v2.3H261.7z M260.3,37.7h-7c0.6,1.1,1,2.1,1.4,3h4.2
			C259.3,39.9,259.8,38.9,260.3,37.7z"/>
		<path class="st0" d="M273,41.1c1.1,1.4,1.6,2.7,1.6,4c0,0.8-0.2,1.4-0.6,1.9s-1.1,0.8-2.2,0.8c-0.2,0-0.5,0-0.6,0l-0.4-1.1
			c0.3,0.1,0.7,0.1,1.2,0.1c0.6,0,1-0.1,1.3-0.4c0.2-0.3,0.4-0.6,0.4-1.1c0-1.2-0.6-2.6-1.7-4c0.6-1.8,1.1-3.4,1.5-4.9h-3v16h-1v-17
			h5.1v1C274.1,37.2,273.7,38.8,273,41.1z M286.2,42.9l-0.5,1c-1.8-0.6-3.5-1.4-5-2.3c-1.6,1-3.3,1.7-5.2,2.3l-0.5-0.9
			c1.8-0.5,3.5-1.2,4.9-2c-1.1-0.8-1.9-1.7-2.5-2.4c-0.6,0.6-1.3,1.1-1.9,1.5l-0.7-0.7c1.6-0.9,3-2.5,4.1-4.6l1,0.3
			c-0.2,0.3-0.5,0.8-0.9,1.5h6.2v1c-1,1.2-2.1,2.3-3.4,3.4C282.7,41.6,284.3,42.3,286.2,42.9z M286.1,49.6h-4.8v2.7h-1v-2.7h-4.6
			l0.7-3.7h-1.1v-1h4.9V43h1v1.9h4.2v1h-4.2v2.7h4.8V49.6z M280.2,48.6v-2.7h-2.8l-0.4,2.7H280.2z M283.7,37.6h-5.7
			c-0.1,0.1-0.1,0.2-0.2,0.2c0.8,1,1.7,1.8,2.8,2.6C281.7,39.6,282.8,38.7,283.7,37.6z"/>
		<path class="st0" d="M294.2,50.5h-1v-1.4h-2.3v2h-1v-15h4.3V50.5z M293.1,48.2V37h-2.3v11.1L293.1,48.2z M299,48.4
			c-0.8,1.3-2,2.4-3.5,3.5l-0.8-0.7c1.4-1,2.5-2.1,3.3-3.3L299,48.4z M306.6,47h-5.4v5.3h-1V47H295v-1h5.3v-1.1h1V46h5.4V47z
			 M299.9,44.5h-4.4v-4.2h4.4V44.5z M298.9,43.6v-2.4h-2.4v2.4H298.9z M304.9,39.1h-8.3v-3.9h8.3V39.1z M303.8,38.2v-2h-6.2v2H303.8
			z M306,44.5h-4.5v-4.2h4.5V44.5z M306.8,51.2l-0.8,0.7c-1-1.2-2.2-2.3-3.6-3.3l0.7-0.7C304.7,48.9,305.9,50,306.8,51.2z M305,43.6
			v-2.4h-2.5v2.4H305z"/>
		<path class="st0" d="M327.5,50.9l-0.3,1h-7.2c-3.4,0-5.8-0.8-7.2-2.3c-0.7,1.1-1.5,2-2.2,2.7l-0.8-0.7c1.9-1.7,3.2-3.9,3.7-6.6
			h-3.2V44c1-1.2,2-2.5,3-4h-3.4v-1h4.6v1c-0.9,1.3-1.9,2.7-3,4.1h3.1v1c-0.3,1.3-0.7,2.5-1.2,3.6c0.6,0.7,1.3,1.3,2.2,1.7
			c0.9,0.4,2.3,0.6,4.1,0.6H327.5z M313.9,37.5l-0.8,0.8c-0.6-1-1.6-1.9-2.8-2.9l0.8-0.7C312.1,35.5,313.1,36.4,313.9,37.5z
			 M327.3,48.1h-5.4v2.2h-1v-2.2h-5.5v-1h5.5v-1.6h-4.3v-1h4.3v-1.5h-5v-1h2.9c-0.3-0.7-0.6-1.4-0.9-1.8h-2.4v-1h5.4v-1.8H316v-1
			h4.8v-1.7h1v1.7h4.7v1h-4.7v1.8h5.4v1h-2.4c-0.4,0.8-0.7,1.4-0.9,1.8h3v1h-5v1.5h4.3v1h-4.3v1.6h5.4V48.1z M323.6,40.3h-4.7
			c0.4,0.8,0.7,1.4,0.8,1.8h3C323.1,41.4,323.4,40.8,323.6,40.3z"/>
		<path class="st0" d="M339.1,51.3h-9.1v-1.5l4.4-4.4c1.5-1.5,2.4-2.5,2.7-3.2c0.3-0.7,0.5-1.4,0.5-2.1c0-0.9-0.3-1.6-0.8-2.1
			c-0.5-0.5-1.2-0.7-2.2-0.7c-1.4,0-2.6,0.6-3.9,1.8v-1.7c1.2-0.9,2.5-1.4,4.1-1.4c1.3,0,2.4,0.4,3.1,1.1c0.8,0.7,1.2,1.7,1.2,2.9
			c0,1-0.3,1.9-0.8,2.8c-0.5,0.9-1.5,2.1-2.9,3.5l-3.5,3.5v0h7.1V51.3z"/>
		<path class="st0" d="M351.1,37.8c-0.8-0.4-1.6-0.6-2.5-0.6c-1.4,0-2.5,0.6-3.3,1.8s-1.2,2.8-1.2,4.9h0c0.7-1.4,1.9-2.2,3.5-2.2
			c1.3,0,2.4,0.4,3.2,1.3c0.8,0.9,1.2,2,1.2,3.4c0,1.4-0.4,2.6-1.3,3.6s-2,1.4-3.4,1.4c-1.6,0-2.8-0.6-3.6-1.8
			c-0.8-1.2-1.2-2.9-1.2-5.1c0-2.6,0.5-4.7,1.6-6.3c1.1-1.6,2.6-2.5,4.5-2.5c1.1,0,1.9,0.1,2.5,0.4V37.8z M344.2,46.3
			c0,1.1,0.3,2,0.9,2.7c0.6,0.7,1.3,1.1,2.2,1.1c0.9,0,1.6-0.3,2.2-1c0.5-0.7,0.8-1.5,0.8-2.5c0-1.1-0.3-2-0.8-2.6
			c-0.5-0.6-1.3-0.9-2.2-0.9c-0.9,0-1.6,0.3-2.2,0.9C344.5,44.7,344.2,45.4,344.2,46.3z"/>
		<path class="st0" d="M364.4,51.3h-1.6v-1.9h0c-0.8,1.4-2,2.1-3.7,2.1c-1.4,0-2.5-0.5-3.3-1.5c-0.8-1-1.2-2.3-1.2-3.9
			c0-1.8,0.5-3.2,1.4-4.3c0.9-1.1,2.1-1.6,3.6-1.6c1.5,0,2.6,0.6,3.3,1.8h0v-6.7h1.6V51.3z M362.7,44.7c0-0.9-0.3-1.6-0.9-2.3
			s-1.3-0.9-2.2-0.9c-1.1,0-1.9,0.4-2.5,1.2c-0.6,0.8-0.9,1.9-0.9,3.2c0,1.2,0.3,2.2,0.9,3s1.4,1.1,2.4,1.1c1,0,1.8-0.4,2.4-1.1
			c0.6-0.7,0.9-1.6,0.9-2.7V44.7z"/>
		<path class="st0" d="M370.1,49.7v1.6h-1.6v-16h1.6v7.1h0c0.9-1.4,2.1-2.2,3.7-2.2c1.4,0,2.5,0.5,3.3,1.5s1.2,2.3,1.2,3.9
			c0,1.8-0.4,3.2-1.3,4.3s-2.1,1.6-3.6,1.6C372,51.5,370.9,50.9,370.1,49.7L370.1,49.7z M370.1,46.9c0,0.9,0.3,1.7,0.9,2.3
			c0.6,0.6,1.4,0.9,2.2,0.9c1.1,0,1.9-0.4,2.5-1.2c0.6-0.8,0.9-2,0.9-3.4c0-1.2-0.3-2.2-0.9-2.9c-0.6-0.7-1.3-1.1-2.3-1.1
			c-1,0-1.8,0.4-2.5,1.1c-0.6,0.7-1,1.6-1,2.7V46.9z"/>
		<path class="st0" d="M389.7,45.4c-0.5-0.3-0.7-0.6-0.7-1c0-0.2,0.1-0.4,0.2-0.6c0.2-0.2,0.4-0.3,0.7-0.3c0.6,0,0.9,0.4,0.9,1.2
			c0,0.7-0.4,1.3-1.2,1.9l-0.4-0.3C389.6,46,389.7,45.6,389.7,45.4z"/>
		<path class="st0" d="M406.4,41c1.5,1.4,2.3,2.8,2.3,4.4c0,0.6-0.2,1.2-0.5,1.6s-1,0.7-2.1,0.7c-0.2,0-0.6,0-1,0l-0.3-1.1
			c0.5,0,0.9,0.1,1.3,0.1c0.7,0,1.1-0.1,1.3-0.3c0.2-0.2,0.3-0.5,0.3-1c0-1.4-0.8-2.8-2.4-4.1c0.9-2.1,1.6-3.8,2-5h-3.7v16.1h-1
			V35.2h5.7v1.1C407.5,38.2,406.9,39.8,406.4,41z M419.3,38.6h-6.5l-0.1,3.1h5.7c-0.1,2.3-0.2,4.4-0.3,6.1c-0.2,1.7-0.3,2.8-0.5,3.1
			s-0.5,0.7-0.8,0.9s-1,0.3-1.9,0.3c-0.3,0-0.7,0-1.2,0l-0.4-1c0.5,0,0.9,0,1.2,0c0.9,0,1.5-0.1,1.8-0.2s0.5-0.3,0.5-0.6
			s0.2-1.2,0.3-2.9c0.1-1.7,0.2-3.2,0.3-4.7h-4.7c0,1.7-0.4,3.3-1,4.9c-0.6,1.5-1.8,3.1-3.6,4.7l-0.9-0.7c1.4-1.1,2.5-2.3,3.2-3.7
			c0.8-1.4,1.2-2.9,1.3-4.6c0.1-1.7,0.2-3.3,0.2-4.8h-3.1v-1h4.9c-0.3-0.8-0.8-1.7-1.5-2.7l1-0.4c0.7,1,1.3,2,1.7,3h4.5V38.6z"/>
		<path class="st0" d="M424.8,43.6l-1,0.4c-0.2-1.4-0.7-3.1-1.4-5l0.9-0.5C424,40.1,424.4,41.8,424.8,43.6z M429.1,38.4
			c-0.7,1.4-1.6,2.8-2.6,4.1c0,1.2,0,2.2-0.2,3.2c1,1.3,1.7,2.6,2.3,3.7l-0.8,0.6c-0.6-1.1-1.2-2.1-1.8-3c-0.6,2.2-1.5,3.9-2.8,5
			l-0.8-0.7c0.9-0.8,1.6-1.9,2.1-3.3c0.5-1.4,0.8-3.6,0.8-6.6v-6.9h1v6c0.6-0.8,1.2-1.8,1.7-3L429.1,38.4z M439.3,36.3
			c-0.1,2-1.1,3.9-2.8,5.4l-0.8-0.6c1.2-1,2-2.2,2.5-3.8H433c-0.9,1.4-1.9,2.7-3.1,3.8l-0.8-0.7c1.4-1.2,2.8-3.1,4.1-5.7l1,0.3
			c-0.2,0.5-0.5,0.9-0.7,1.3H439.3z M439.3,52.3h-1v-0.9h-7.7v0.9h-1v-9c1.4-0.6,2.6-1.3,3.6-2.1l0.7,0.8c-0.8,0.6-1.8,1.2-3.2,1.9
			v2.6h3.1v1h-3.1v2.9h7.7v-2.9h-3.5v-1h3.5v-2.8h-3.6v-1h4.7V52.3z"/>
		<path class="st0" d="M447.6,41c1.5,1.4,2.3,2.8,2.3,4.4c0,0.6-0.2,1.2-0.5,1.6s-1,0.7-2.1,0.7c-0.2,0-0.6,0-1,0l-0.3-1.1
			c0.5,0,0.9,0.1,1.3,0.1c0.7,0,1.1-0.1,1.3-0.3c0.2-0.2,0.3-0.5,0.3-1c0-1.4-0.8-2.8-2.4-4.1c0.9-2.1,1.6-3.8,2-5h-3.7v16.1h-1
			V35.2h5.7v1.1C448.8,38.2,448.1,39.8,447.6,41z M460.5,38.6H454l-0.1,3.1h5.7c-0.1,2.3-0.2,4.4-0.3,6.1c-0.2,1.7-0.3,2.8-0.5,3.1
			s-0.5,0.7-0.8,0.9s-1,0.3-1.9,0.3c-0.3,0-0.7,0-1.2,0l-0.4-1c0.5,0,0.9,0,1.2,0c0.9,0,1.5-0.1,1.8-0.2s0.5-0.3,0.5-0.6
			s0.2-1.2,0.3-2.9c0.1-1.7,0.2-3.2,0.3-4.7h-4.7c0,1.7-0.4,3.3-1,4.9c-0.6,1.5-1.8,3.1-3.6,4.7l-0.9-0.7c1.4-1.1,2.5-2.3,3.2-3.7
			c0.8-1.4,1.2-2.9,1.3-4.6c0.1-1.7,0.2-3.3,0.2-4.8h-3.1v-1h4.9c-0.3-0.8-0.8-1.7-1.5-2.7l1-0.4c0.7,1,1.3,2,1.7,3h4.5V38.6z"/>
		<path class="st0" d="M470.8,39.2c-0.7,4.8-2.8,8.6-6.4,11.3l-0.7-0.8c3.2-2.5,5.1-5.6,5.8-9.4h-5.1v-1.1H470.8z M481.3,49.6
			l-0.7,0.9c-3.2-2.1-5.7-4.7-7.3-8.1v8.4c0,0.5-0.1,0.8-0.2,1c-0.2,0.2-0.4,0.3-0.6,0.4c-0.2,0.1-0.8,0.1-1.6,0.1
			c-0.7,0-1.2,0-1.5,0l-0.4-1.1c1.4,0,2.3,0.1,2.8,0.1c0.3,0,0.5-0.2,0.5-0.5v-16h1.1V39c0,1,0.3,2,1,3.1c2.2-1.7,4-3.4,5.2-4.9
			l0.9,0.7c-1.4,1.7-3.2,3.5-5.5,5.1C476,45.4,478.1,47.6,481.3,49.6z"/>
		<path class="st0" d="M488.8,41c1.5,1.4,2.3,2.8,2.3,4.4c0,0.6-0.2,1.2-0.5,1.6c-0.3,0.5-1,0.7-2.1,0.7c-0.2,0-0.6,0-1,0l-0.3-1.1
			c0.5,0,0.9,0.1,1.3,0.1c0.7,0,1.1-0.1,1.3-0.3c0.2-0.2,0.3-0.5,0.3-1c0-1.4-0.8-2.8-2.4-4.1c0.9-2.1,1.6-3.8,2-5H486v16.1h-1V35.2
			h5.7v1.1C490,38.2,489.3,39.8,488.8,41z M501.7,38.6h-6.5l-0.1,3.1h5.7c-0.1,2.3-0.2,4.4-0.3,6.1c-0.2,1.7-0.3,2.8-0.5,3.1
			c-0.2,0.4-0.5,0.7-0.8,0.9c-0.4,0.2-1,0.3-1.9,0.3c-0.3,0-0.7,0-1.2,0l-0.4-1c0.5,0,0.9,0,1.2,0c0.9,0,1.5-0.1,1.8-0.2
			c0.3-0.1,0.5-0.3,0.5-0.6s0.2-1.2,0.3-2.9c0.1-1.7,0.2-3.2,0.3-4.7h-4.7c0,1.7-0.4,3.3-1,4.9c-0.6,1.5-1.8,3.1-3.6,4.7l-0.9-0.7
			c1.4-1.1,2.5-2.3,3.2-3.7c0.8-1.4,1.2-2.9,1.3-4.6c0.1-1.7,0.2-3.3,0.2-4.8h-3.1v-1h4.9c-0.3-0.8-0.8-1.7-1.5-2.7l1-0.4
			c0.7,1,1.3,2,1.7,3h4.5V38.6z"/>
		<path class="st0" d="M508.7,45.7c-0.8,2.3-1.8,4.6-3,6.7l-0.8-0.7c1.2-2,2.2-4.1,3-6.4L508.7,45.7z M508.7,42.6l-0.7,0.8
			c-1-1-2-1.9-3.2-2.7l0.6-0.8C506.9,40.7,508,41.6,508.7,42.6z M508.9,37.3L508,38c-0.9-1.1-1.8-2-2.7-2.6l0.7-0.8
			C507,35.2,507.9,36.1,508.9,37.3z M515.9,49h-2.9v3.2h-1V49h-3v-0.9h3v-1.9h-2.2v-6.8h2.2v-1.8h-2.8v-1h2.8v-1.9h1v1.9h2.6v1h-2.6
			v1.8h2.2v6.8h-2.2v1.9h2.9V49z M514.3,42.2v-1.9h-3.4v1.9H514.3z M514.3,45.2v-2.1h-3.4v2.1H514.3z M521.9,50.8
			c0,0.5-0.2,0.9-0.5,1.1s-0.8,0.4-1.6,0.4c-0.3,0-0.6,0-0.9,0l-0.3-1c0.7,0.1,1.2,0.1,1.5,0.1c0.2,0,0.4-0.1,0.6-0.2
			c0.2-0.2,0.2-0.3,0.2-0.6v-4.7h-3.1c-0.1,2.7-0.6,4.9-1.5,6.5l-0.9-0.5c0.4-0.7,0.8-1.8,1-3.1c0.3-1.4,0.4-3.5,0.4-6.3v-7.2h4.9
			V50.8z M521,44.9V41H518v1.6l0,2.3H521z M521,40v-3.8H518V40H521z"/>
		<path class="st0" d="M530,41c1.5,1.4,2.3,2.8,2.3,4.4c0,0.6-0.2,1.2-0.5,1.6c-0.3,0.5-1,0.7-2.1,0.7c-0.2,0-0.6,0-1,0l-0.3-1.1
			c0.5,0,0.9,0.1,1.3,0.1c0.7,0,1.1-0.1,1.3-0.3c0.2-0.2,0.3-0.5,0.3-1c0-1.4-0.8-2.8-2.4-4.1c0.9-2.1,1.6-3.8,2-5h-3.7v16.1h-1
			V35.2h5.7v1.1C531.2,38.2,530.6,39.8,530,41z M542.9,38.6h-6.5l-0.1,3.1h5.7c-0.1,2.3-0.2,4.4-0.3,6.1c-0.2,1.7-0.3,2.8-0.5,3.1
			c-0.2,0.4-0.5,0.7-0.8,0.9c-0.4,0.2-1,0.3-1.9,0.3c-0.3,0-0.7,0-1.2,0l-0.4-1c0.5,0,0.9,0,1.2,0c0.9,0,1.5-0.1,1.8-0.2
			c0.3-0.1,0.5-0.3,0.5-0.6s0.2-1.2,0.3-2.9c0.1-1.7,0.2-3.2,0.3-4.7h-4.7c0,1.7-0.4,3.3-1,4.9c-0.6,1.5-1.8,3.1-3.6,4.7l-0.9-0.7
			c1.4-1.1,2.5-2.3,3.2-3.7c0.8-1.4,1.2-2.9,1.3-4.6c0.1-1.7,0.2-3.3,0.2-4.8h-3.1v-1h4.9c-0.3-0.8-0.8-1.7-1.5-2.7l1-0.4
			c0.7,1,1.3,2,1.7,3h4.5V38.6z"/>
		<path class="st0" d="M562,52.2h-1.1v-1.8h-12.1v1.8h-1.1V37.9h3.6c0.6-0.9,1.3-2,1.8-3.3l1.1,0.3c-0.3,0.7-0.8,1.7-1.6,3h9.3V52.2
			z M560.9,43.7V39h-12.1v4.7H560.9z M560.9,49.4v-4.7h-12.1v4.7H560.9z"/>
		<path class="st0" d="M573.4,50.9l-0.9,0.4c-0.1-0.5-0.2-0.9-0.4-1.4c-1.9,0.8-3.6,1.4-5.2,1.8l-0.3-0.9c1-0.3,1.9-0.5,2.9-0.9
			v-4.7h-2.2v-7.5h2.2v-2.9h1v2.9h2.2v7.5h-2.2v4.4c0.5-0.1,0.9-0.3,1.4-0.5c-0.2-0.5-0.4-1.1-0.7-1.7l0.8-0.3
			C572.8,48.6,573.2,49.9,573.4,50.9z M569.6,44.3v-5.7h-1.2v5.7H569.6z M571.8,44.3v-5.7h-1.2v5.7H571.8z M584.3,49.5
			c-0.2,1.9-0.7,2.8-1.5,2.8c-0.6,0-1.3-0.6-2-1.8c-1.2,0.9-2.1,1.4-2.8,1.8l-0.6-0.8c1.1-0.5,2.1-1.1,3-1.9c-0.3-1-0.5-2.1-0.6-3.3
			h-2.9v1.6c0.7-0.1,1.4-0.3,2.1-0.5l0.1,0.9c-0.7,0.2-1.4,0.4-2.3,0.6v1.8c0,1-0.5,1.6-1.5,1.6c-0.5,0-0.9,0-1.1,0l-0.4-1
			c0.2,0,0.7,0,1.4,0c0.3,0,0.5-0.2,0.5-0.5v-1.6c-1,0.1-1.7,0.2-2.1,0.3l-0.3-0.9c0.7-0.1,1.5-0.2,2.4-0.3v-1.8h-2.4v-0.9h2.4v-1.2
			c-0.8,0.1-1.4,0.2-2,0.2l-0.3-0.9c1.8-0.1,3.4-0.4,4.9-1l0.4,0.8c-0.8,0.3-1.5,0.5-2,0.7v1.4h2.8c-0.1-1.3-0.1-2.2-0.1-2.7h0.9
			c0,1.3,0.1,2.2,0.1,2.7h3.6v0.9h-3.5c0.1,0.7,0.2,1.6,0.5,2.6c0.7-0.7,1.2-1.4,1.7-2.1l0.8,0.4c-0.5,0.8-1.2,1.7-2.2,2.6
			c0.2,0.4,0.4,0.7,0.6,1c0.3,0.3,0.5,0.4,0.6,0.4c0.1,0,0.2-0.2,0.4-0.6c0.1-0.4,0.2-0.9,0.3-1.6L584.3,49.5z M584.2,42.1h-10.7
			v-0.9h4.8V40h-4.1V39h4.1v-1.3h-4.6v-0.9h10.2v0.9h-4.6V39h4.1V40h-4.1v1.3h5V42.1z M577.6,36.1l-0.9,0.4
			c-0.4-0.5-0.8-0.9-1.4-1.4l0.8-0.5C576.7,35.1,577.2,35.6,577.6,36.1z M582.3,35.3c-0.4,0.4-0.9,0.8-1.7,1.2l-0.8-0.6
			c0.7-0.5,1.3-0.9,1.7-1.2L582.3,35.3z M583.7,44.5l-0.8,0.4c-0.2-0.5-0.6-1.2-1.1-1.9l0.7-0.4C582.9,43,583.3,43.6,583.7,44.5z"/>
		<path class="st0" d="M595.8,45.4c-0.5-0.3-0.7-0.6-0.7-1c0-0.2,0.1-0.4,0.2-0.6c0.2-0.2,0.4-0.3,0.7-0.3c0.6,0,0.9,0.4,0.9,1.2
			c0,0.7-0.4,1.3-1.2,1.9l-0.4-0.3C595.7,46,595.8,45.6,595.8,45.4z"/>
		<path class="st0" d="M613.9,43.5l-0.6,0.7c-0.5-0.7-1-1.2-1.5-1.6v9.7h-0.9v-9.6c-0.8,2-1.6,3.7-2.5,4.9l-0.6-0.9
			c1.1-1.5,2.1-3.6,3-6.3h-2.6v-0.9h2.6v-3c-0.4,0.1-1.2,0.3-2.2,0.5l-0.4-0.9c2.1-0.3,3.7-0.8,5-1.5l0.5,0.7
			c-0.7,0.4-1.3,0.7-2,0.9v3.3h1.9v0.9h-1.9v0.9C612.5,42,613.2,42.7,613.9,43.5z M615.5,48.6c-0.7,1.4-1.3,2.4-1.8,2.9l-0.8-0.5
			c0.7-0.8,1.3-1.7,1.8-2.9L615.5,48.6z M625.4,44.9h-1.1v1.9h-8.8v-0.8h7.9v-1.1h-9.3v-0.8h9.3V43h-7.9v-0.8h8.8v1.9h1.1V44.9z
			 M625.1,41.2h-10.6v-0.8h4.7v-1H615v-0.8h9.7v0.8h-4.5v1h5V41.2z M624.3,35.6c-1.9,0.5-5,0.8-9.3,1l-0.4-0.9
			c3.6,0,6.7-0.3,9.3-0.9L624.3,35.6z M617,37.8l-0.9,0.4c-0.3-0.3-0.7-0.7-1.1-1.1l0.8-0.4C616.1,36.9,616.5,37.3,617,37.8z
			 M622.7,49.5c-0.1,1-0.3,1.6-0.5,1.9c-0.2,0.3-0.6,0.4-1,0.4H618c-0.4,0-0.7-0.1-1-0.3c-0.2-0.2-0.4-0.5-0.4-0.9V48h1v2.4
			c0,0.4,0.2,0.6,0.6,0.6h2.6c0.2,0,0.3-0.1,0.5-0.2c0.1-0.1,0.2-0.3,0.3-0.4l0.2-1.1L622.7,49.5z M620.8,48.8l-0.7,0.6
			c-0.9-1.1-1.4-1.6-1.4-1.7l0.7-0.6C619.9,47.8,620.4,48.3,620.8,48.8z M620.4,37.8l-0.9,0.4c-0.3-0.4-0.6-0.8-0.9-1.2l0.8-0.4
			C619.8,36.9,620.1,37.3,620.4,37.8z M624.5,36.6c-0.3,0.4-0.8,0.9-1.6,1.5l-0.9-0.5c0.7-0.6,1.3-1,1.6-1.4L624.5,36.6z
			 M625.5,51.1l-0.8,0.4c-0.5-1-1.1-1.9-1.8-2.9l0.7-0.5C624.4,49.1,625.1,50.1,625.5,51.1z"/>
		<path class="st0" d="M18.1,85.6l-0.2,1c-1.3,0-2.3,0-3,0c-2.1,0-3.8-0.1-5-0.3c-1.2-0.2-2.3-0.7-3.2-1.3c-1-0.6-1.7-1.4-2.2-2.3
			c-0.7,1.5-1.8,2.9-3.1,4.3l-0.8-0.8c2.1-2.1,3.6-4.8,4.3-8.1l1.1,0.1c-0.2,1-0.6,2.1-1,3.2c1,1.9,2.4,3.1,4.3,3.6v-8.7h-6v-1.1
			h12.5v1.1h-5.4v3.4h6.5v1h-6.5v4.5c1.9,0.2,3.9,0.3,5.9,0.3C16.8,85.7,17.5,85.7,18.1,85.6z M17.5,75.7h-1v-3.1h-14v3H1.4v-4.1
			h7.5c-0.2-0.6-0.4-1.3-0.8-1.9l1.1-0.2c0.4,0.7,0.6,1.4,0.8,2.1h7.5V75.7z"/>
		<path class="st0" d="M26.9,78.3c-0.6,0.3-1.5,0.6-2.5,1v6.6c0,0.3-0.1,0.5-0.3,0.8s-0.8,0.4-1.7,0.4c-0.2,0-0.6,0-1,0L21.1,86
			c0.2,0,0.6,0.1,1,0.1c0.7,0,1,0,1.2-0.1c0.1,0,0.2-0.2,0.2-0.4v-5.9c-1.1,0.4-1.9,0.7-2.6,0.8l-0.3-1c1-0.3,1.9-0.6,2.9-0.9V74
			h-2.7v-1h2.7v-3.5h1V73h2.2v1h-2.2v4.2c0.7-0.2,1.5-0.5,2.5-1V78.3z M38.1,83c-0.1,2-0.3,3.1-0.6,3.5c-0.3,0.4-0.9,0.6-1.9,0.6
			c-0.7,0-1.2-0.1-1.5-0.3s-0.4-0.5-0.4-0.9V77H30c-0.1,3.2-0.5,5.5-1.2,6.9c-0.7,1.4-1.5,2.5-2.4,3.2l-0.9-0.7
			c1-0.9,1.8-1.8,2.3-2.9c0.6-1.1,0.9-2.1,0.9-3.2c0.1-1,0.1-2.5,0.1-4.4h5.7v9.6c0,0.3,0.3,0.5,0.8,0.5c0.5,0,0.8,0,1-0.1
			c0.2-0.1,0.3-0.4,0.4-1c0.1-0.6,0.1-1.4,0.2-2.4L38.1,83z M37.6,73.3H27.1v-1h4.7c-0.2-0.7-0.5-1.5-1-2.5l1-0.4c0.4,1,0.8,2,1,2.9
			h4.7V73.3z"/>
		<path class="st0" d="M45,74.5l-1.1,2.3V87h-1v-8.6c-0.6,0.9-1.1,1.6-1.6,2.2l-0.7-0.7c1.4-1.7,2.6-3.7,3.5-5.9L45,74.5z M45,70
			c-1.1,1.8-2.3,3.3-3.6,4.5l-0.7-0.7c1.3-1.2,2.5-2.6,3.5-4.3L45,70z M53.3,85.1c-3.2,0.6-6,1.1-8.3,1.3l-0.2-0.9
			c1.1-0.1,2.5-0.3,4.1-0.5v-1.8h-3.3v-0.9h3.3v-1.4h-3.1v-5.6h3.1v-1.4h-3.3v-0.9h3.3v-1.6L46,71.5l-0.3-1c2.7-0.1,4.9-0.4,6.8-0.9
			l0.5,0.8c-0.9,0.3-1.9,0.5-3,0.7v1.7h3.3v0.9h-3.3v1.4h3.1v5.6h-3.1v1.4h3.3v0.9h-3.3v1.6c1-0.1,2.2-0.3,3.5-0.6V85.1z M48.9,77.6
			v-1.4h-2.1v1.4H48.9z M48.9,79.9v-1.4h-2.1v1.4H48.9z M52,77.6v-1.3h-2.1v1.3H52z M52,79.9v-1.4h-2.1v1.4H52z M58.2,76.4h-1.6v9.2
			c0,0.5-0.2,0.9-0.5,1.1c-0.3,0.2-0.8,0.3-1.6,0.3c-0.3,0-0.7,0-1.2,0l-0.3-1c0.6,0,1.1,0.1,1.5,0.1c0.7,0,1-0.2,1-0.6v-9h-1.9v-1
			h4.5V76.4z M57.7,71.2h-3.9v-1h3.9V71.2z"/>
		<path class="st0" d="M69.9,77.2H66v1.3h2.4v-0.7h1v1.6h-7.7v-1.6h0.9v0.7H65v-1.3h-4.2v-0.8H65v-0.8h-3.3v-3.7H65v-0.8h-4v-0.8h4
			v-0.7H66v0.7h3.9v0.8H66v0.8h3.4v3.7H66v0.8h3.9V77.2z M78.2,84.9h-7.7v0.8c0,0.6-0.2,0.9-0.5,1.1c-0.3,0.2-0.9,0.3-1.8,0.3h-1
			l-0.4-1l2.1,0c0.3,0,0.5-0.2,0.5-0.5v-0.7h-8.7V84h8.7V83h-7.4v-0.9h7.4V81c-1.4,0.1-3.6,0.1-6.6,0.1l-0.3-0.9
			c5.5,0.1,10-0.2,13.3-0.7l0.5,0.8c-2,0.3-3.9,0.5-5.8,0.6v1.2h6.7V83h-6.7V84h7.7V84.9z M65,74.8V74h-2.4v0.8H65z M65,73.3v-0.7
			h-2.4v0.7H65z M68.4,73.3v-0.7H66v0.7H68.4z M68.4,74.8V74H66v0.8H68.4z M78.3,78.7l-0.5,0.9c-1.6-0.4-2.9-0.9-3.7-1.4
			c-1.1,0.6-2.4,1-3.8,1.3l-0.5-0.8c1.7-0.3,2.8-0.7,3.4-1c-0.7-0.6-1.4-1.4-2-2.4h-0.6v-0.9h6.9v0.9c-0.7,1-1.5,1.8-2.4,2.4
			C75.9,78.1,77,78.5,78.3,78.7z M78.2,73.4h-2c-0.8,0-1.2-0.4-1.2-1.1V71h-2.4c-0.2,1.4-0.9,2.4-2.2,2.9l-0.6-0.8
			c1.3-0.5,1.9-1.6,1.9-3.1h4.3v2.1c0,0.1,0,0.1,0.1,0.2s0.2,0.1,0.2,0.1h1.8V73.4z M76.3,75.2h-4c0.5,0.7,1.1,1.4,1.9,1.9
			C75,76.6,75.8,76,76.3,75.2z"/>
		<path class="st0" d="M89.3,80.2c-0.5-0.3-0.7-0.6-0.7-1c0-0.2,0.1-0.4,0.2-0.6s0.4-0.3,0.7-0.3c0.6,0,0.9,0.4,0.9,1.2
			c0,0.7-0.4,1.3-1.2,1.9l-0.4-0.3C89.1,80.8,89.3,80.5,89.3,80.2z"/>
		<path class="st0" d="M105.3,75.8c1.5,1.4,2.3,2.8,2.3,4.4c0,0.6-0.2,1.2-0.5,1.6c-0.3,0.5-1,0.7-2.1,0.7c-0.2,0-0.6,0-1,0
			l-0.3-1.1c0.5,0,0.9,0.1,1.3,0.1c0.7,0,1.1-0.1,1.3-0.3c0.2-0.2,0.3-0.5,0.3-1c0-1.4-0.8-2.8-2.4-4.1c0.9-2.1,1.6-3.8,2-5h-3.7
			v16.1h-1V70h5.7v1.1C106.5,73,105.9,74.6,105.3,75.8z M118.3,73.4h-6.5l-0.1,3.1h5.7c-0.1,2.3-0.2,4.4-0.3,6.1
			c-0.2,1.7-0.3,2.8-0.5,3.1c-0.2,0.4-0.5,0.7-0.8,0.9c-0.4,0.2-1,0.3-1.9,0.3c-0.3,0-0.7,0-1.2,0l-0.4-1c0.5,0,0.9,0,1.2,0
			c0.9,0,1.5-0.1,1.8-0.2c0.3-0.1,0.5-0.3,0.5-0.6s0.2-1.2,0.3-2.9c0.1-1.7,0.2-3.2,0.3-4.7h-4.7c0,1.7-0.4,3.3-1,4.9
			c-0.6,1.5-1.8,3.1-3.6,4.7l-0.9-0.7c1.4-1.1,2.5-2.3,3.2-3.7c0.8-1.4,1.2-2.9,1.3-4.6c0.1-1.7,0.2-3.3,0.2-4.8h-3.1v-1h4.9
			c-0.3-0.8-0.8-1.7-1.5-2.7l1-0.4c0.7,1,1.3,2,1.7,3h4.5V73.4z"/>
		<path class="st0" d="M124.8,77.3l-0.6,0.8c-0.9-0.9-2-1.8-3.4-2.7l0.7-0.7C122.9,75.5,124,76.4,124.8,77.3z M125.5,80.8
			c-1,2.3-2.3,4.5-3.7,6.4l-0.7-0.7c1.2-1.5,2.4-3.6,3.7-6.4L125.5,80.8z M125.6,72.2l-0.7,0.8c-0.9-1-2-1.9-3.3-2.7l0.7-0.8
			C123.7,70.3,124.8,71.2,125.6,72.2z M136,85.6c0,0.3-0.1,0.6-0.3,0.9c-0.2,0.2-0.4,0.4-0.6,0.5c-0.3,0.1-0.8,0.1-1.6,0.1
			c-0.3,0-0.7,0-1,0l-0.3-1l2.4,0c0.3,0,0.5-0.2,0.5-0.5v-2.5c-2.6,0.8-4.8,1.4-6.7,1.7L128,84c-0.4,1.2-1.1,2.3-1.9,3.1l-0.8-0.6
			c0.9-0.9,1.5-2,1.8-3.3s0.5-3,0.5-5.2h8.4V85.6z M138,78.7h-1v-2.5h-10.3v2.5h-1v-3.4h1.4V70h9.5v5.3h1.5V78.7z M135.4,72.6V71
			H128v4.3h2.5v-2.7H135.4z M135,82v-3h-6.4c0,0.3,0,0.6,0,1.1c1.8,0.1,3.4,0.3,5,0.7l-0.4,0.9c-1.5-0.4-3-0.6-4.6-0.7
			c-0.1,1.2-0.2,2.1-0.4,2.8C130.1,83.5,132.5,82.9,135,82z M135.4,75.3v-1.7h-3.8v1.7H135.4z"/>
		<path class="st0" d="M146,69.9c-0.3,0.7-0.6,1.5-1,2.5l-0.6,1.3v13.4h-1V75.6c-0.6,1-1.3,2-2,2.8l-0.6-0.9c1.5-1.8,2.9-4.5,4.3-8
			L146,69.9z M149.7,82.7c-1.2,1.5-2.6,2.7-4.1,3.6l-0.8-0.7c1.3-0.7,2.6-1.9,4-3.5L149.7,82.7z M152.7,70c-2.2,2.2-4.5,3.8-6.8,4.9
			l-0.8-0.7c2.2-0.9,4.4-2.4,6.7-4.6L152.7,70z M158.2,81.1l-0.9,0.6c-0.2-0.4-0.4-0.8-0.6-1.3c-1.7,0.2-3.1,0.4-4.2,0.5v4.9
			c0,0.3-0.1,0.5-0.3,0.8c-0.2,0.2-0.4,0.4-0.6,0.5c-0.2,0.1-0.6,0.1-1.2,0.1c-0.3,0-0.5,0-0.8,0l-0.4-1l1.7,0
			c0.2,0,0.3-0.1,0.4-0.2s0.2-0.3,0.2-0.4V81c-1.9,0.2-3.6,0.4-5.2,0.5l-0.4-1c1.8-0.7,3.9-1.8,6.2-3.3c-2,0.2-3.8,0.4-5.3,0.5
			l-0.3-0.9c2.5-1.4,4.8-3.1,7-5.2l0.9,0.6c-1.8,1.8-3.7,3.2-5.8,4.4l0.9-0.1l4.1-0.4c0.1,0,0.4-0.2,1-0.7c0.4-0.3,0.7-0.5,1-0.8
			l0.8,0.6c-2.6,2.1-5.2,3.8-8,5.2c2.9-0.3,5.4-0.6,7.4-0.9c-0.3-0.4-0.6-1-1-1.5l0.9-0.6C156.8,78.5,157.5,79.8,158.2,81.1z
			 M158.6,85.7l-0.7,0.7c-1-1.3-2.2-2.5-3.7-3.6l0.7-0.7C156.4,83.2,157.6,84.4,158.6,85.7z"/>
		<path class="st0" d="M171.8,73.7h-1.4V76h-3.5v1.2h3.5v3.1h-3.5c-0.4,0.6-0.7,1.1-1,1.5h2.4c0.1-0.2,0.2-0.4,0.3-0.7l1,0.2
			c0,0.2-0.1,0.3-0.1,0.5h2.1v0.9H169c-0.5,0.9-1.1,1.7-1.8,2.3c1.1,0.5,2.1,1,2.9,1.4l-0.7,0.7c-1-0.5-2-1.1-3.1-1.5
			c-1.3,0.8-2.8,1.3-4.8,1.5l-0.4-1c1.7-0.2,3-0.6,4-1c-1-0.4-1.9-0.7-2.7-1c0.4-0.4,0.8-0.9,1.3-1.4H161v-0.9h3.5
			c0.4-0.5,0.8-1,1.1-1.5h-3.2v-3.1h3.5V76h-3.5v-2.3H161v-0.9h1.4v-2.1h3.5v-1.1h1v1.1h3.5v2.1h1.4V73.7z M165.9,72.8v-1.2h-2.5
			v1.2H165.9z M165.9,75.1v-1.4h-2.5v1.4H165.9z M165.9,79.3v-1.3h-2.5v1.3H165.9z M167.8,82.6h-2.7c-0.1,0.2-0.4,0.6-0.9,1.1
			c0.6,0.2,1.2,0.4,1.9,0.7C166.8,84,167.4,83.4,167.8,82.6z M169.4,72.8v-1.2h-2.5v1.2H169.4z M169.4,75.1v-1.4h-2.5v1.4H169.4z
			 M169.4,79.3v-1.3h-2.5v1.3H169.4z M178.5,73.8h-0.9c-0.1,4.2-0.8,7.4-2.1,9.7c0.7,1,1.7,2,3,2.9l-0.6,0.8
			c-1.3-0.8-2.3-1.7-3.1-2.8c-1,1.1-2.1,2-3.4,2.8l-0.6-0.8c1.5-0.9,2.6-1.9,3.4-2.9c-0.9-1.8-1.5-3.7-1.7-5.6l0.9-0.3
			c0.4,2.2,0.8,3.9,1.4,5c0.6-1.1,1.1-2.5,1.3-4.1c0.2-1.1,0.3-2.7,0.4-4.6h-2.7c-0.6,1.6-1.4,2.9-2.2,4l-0.8-0.6
			c1.3-1.7,2.3-4.2,3.1-7.6l1,0.2c-0.1,0.8-0.4,1.9-0.8,3.1h4.3V73.8z"/>
		<path class="st0" d="M198.7,85.7l-0.3,1h-7.2c-3.4,0-5.8-0.8-7.2-2.3c-0.7,1.1-1.5,2-2.2,2.7l-0.8-0.7c1.9-1.7,3.2-3.9,3.7-6.6
			h-3.2v-1.1c1-1.2,2-2.5,3-4h-3.4v-1h4.6v1c-0.9,1.3-1.9,2.7-3,4.1h3.1v1c-0.3,1.3-0.7,2.5-1.2,3.6c0.6,0.7,1.3,1.3,2.2,1.7
			c0.9,0.4,2.3,0.6,4.1,0.6H198.7z M185.2,72.3l-0.8,0.8c-0.6-1-1.6-1.9-2.8-2.9l0.8-0.7C183.4,70.3,184.3,71.2,185.2,72.3z
			 M198.5,82.9h-5.4v2.2h-1v-2.2h-5.5v-1h5.5v-1.6h-4.3v-1h4.3v-1.5h-5v-1h2.9c-0.3-0.7-0.6-1.4-0.9-1.8h-2.4v-1h5.4v-1.8h-4.8v-1
			h4.8v-1.7h1v1.7h4.7v1h-4.7v1.8h5.4v1H196c-0.4,0.8-0.7,1.4-0.9,1.8h3v1h-5v1.5h4.3v1h-4.3V82h5.4V82.9z M194.9,75.1h-4.7
			c0.4,0.8,0.7,1.4,0.8,1.8h3C194.4,76.2,194.7,75.6,194.9,75.1z"/>
		<path class="st0" d="M200.7,78.8c0-2.7,0.4-4.7,1.3-6.1c0.9-1.4,2.1-2.1,3.8-2.1c3.2,0,4.7,2.6,4.7,7.8c0,2.5-0.4,4.5-1.3,5.8
			c-0.9,1.4-2.1,2.1-3.8,2.1c-1.5,0-2.7-0.7-3.5-2C201.1,83,200.7,81.2,200.7,78.8z M202.3,78.7c0,4.1,1.1,6.2,3.2,6.2
			c2.1,0,3.2-2.1,3.2-6.3c0-4.4-1-6.6-3.1-6.6C203.4,72.1,202.3,74.3,202.3,78.7z"/>
		<path class="st0" d="M212.5,85.2c0-0.3,0.1-0.6,0.3-0.8c0.2-0.2,0.5-0.3,0.8-0.3c0.3,0,0.6,0.1,0.8,0.3c0.2,0.2,0.3,0.5,0.3,0.8
			c0,0.3-0.1,0.6-0.3,0.8c-0.2,0.2-0.5,0.3-0.8,0.3c-0.3,0-0.6-0.1-0.8-0.3C212.7,85.8,212.5,85.5,212.5,85.2z"/>
		<path class="st0" d="M226.6,71.4l-6,14.7h-1.7l5.7-13.7h-7.7v-1.5h9.7V71.4z"/>
		<path class="st0" d="M229.3,83.9c1,0.7,2.1,1,3.2,1s1.9-0.3,2.6-0.9s1-1.4,1-2.5c0-1-0.3-1.8-1-2.4c-0.7-0.6-1.6-0.8-2.9-0.8
			c-0.4,0-1.2,0-2.4,0.1v-7.5h7.3v1.5h-5.7v4.5c0.6,0,1,0,1.3,0c1.6,0,2.8,0.4,3.7,1.2c0.9,0.8,1.4,1.9,1.4,3.4
			c0,1.5-0.5,2.7-1.5,3.6c-1,0.9-2.3,1.3-3.9,1.3c-1.4,0-2.4-0.2-3.1-0.6V83.9z"/>
		<path class="st0" d="M246.5,80.7h-5.8v-1.3h5.8V80.7z"/>
		<path class="st0" d="M248.8,78.8c0-2.7,0.4-4.7,1.3-6.1c0.9-1.4,2.1-2.1,3.8-2.1c3.2,0,4.7,2.6,4.7,7.8c0,2.5-0.4,4.5-1.3,5.8
			c-0.9,1.4-2.1,2.1-3.8,2.1c-1.5,0-2.7-0.7-3.5-2C249.2,83,248.8,81.2,248.8,78.8z M250.5,78.7c0,4.1,1.1,6.2,3.2,6.2
			c2.1,0,3.2-2.1,3.2-6.3c0-4.4-1-6.6-3.1-6.6C251.6,72.1,250.5,74.3,250.5,78.7z"/>
		<path class="st0" d="M260.7,85.2c0-0.3,0.1-0.6,0.3-0.8c0.2-0.2,0.5-0.3,0.8-0.3c0.3,0,0.6,0.1,0.8,0.3c0.2,0.2,0.3,0.5,0.3,0.8
			c0,0.3-0.1,0.6-0.3,0.8c-0.2,0.2-0.5,0.3-0.8,0.3c-0.3,0-0.6-0.1-0.8-0.3C260.8,85.8,260.7,85.5,260.7,85.2z"/>
		<path class="st0" d="M265.9,84.2c0.9,0.5,1.7,0.7,2.7,0.7c1.4,0,2.5-0.6,3.2-1.7c0.8-1.1,1.2-2.7,1.2-4.8c0,0,0,0,0,0
			c-0.7,1.3-1.8,2-3.4,2c-1.3,0-2.4-0.4-3.2-1.3c-0.8-0.9-1.2-2-1.2-3.4c0-1.4,0.4-2.6,1.3-3.6c0.9-1,2.1-1.4,3.5-1.4
			c1.5,0,2.7,0.6,3.5,1.8c0.8,1.2,1.2,2.9,1.2,5.1c0,2.8-0.5,4.9-1.6,6.4s-2.6,2.3-4.5,2.3c-1,0-1.9-0.2-2.6-0.5V84.2z M266.8,75.5
			c0,1.1,0.3,1.9,0.8,2.5c0.6,0.6,1.3,1,2.3,1c0.9,0,1.6-0.3,2.1-0.9c0.6-0.6,0.8-1.3,0.8-2.1c0-1.1-0.3-2.1-0.8-2.8
			s-1.3-1.1-2.3-1.1c-0.9,0-1.6,0.3-2.2,1C267.1,73.7,266.8,74.5,266.8,75.5z"/>
		<path class="st0" d="M294.5,85.6l-0.3,1c-1.4,0-3.8,0-7,0c-3.7,0-6.4-1.1-8-3.2c-0.4,1.5-0.8,2.8-1.2,3.7l-0.9-0.5
			c0.9-2.2,1.5-4.8,1.7-8l1.1,0.2c-0.1,1-0.2,2.1-0.4,3.3c0.6,0.8,1.2,1.5,1.8,2v-7h-3.8v-1h3.6v-2.8h-3.2v-1h3.2v-2.8h1v2.8h2.9v1
			h-2.9v2.8h3v1h-2.9V80h2.9v1h-2.9v3.7c1.5,0.7,3.3,1.1,5.6,1.1C289.2,85.8,291.4,85.7,294.5,85.6z M293.8,70c0,0.4,0,0.8,0,1.2
			c0,1.1-0.1,2.2-0.2,3.2c-0.1,1.1-0.3,1.7-0.4,2c-0.2,0.2-0.4,0.4-0.8,0.6c-0.4,0.1-1.2,0.2-2.5,0.2l-0.4-1c0.4,0,0.8,0.1,1.2,0.1
			c0.8,0,1.3-0.1,1.5-0.3s0.3-0.7,0.4-1.6s0.1-2,0.1-3.3h-3.2c-0.5,3-1.6,5.2-3.3,6.7l-0.7-0.8c1.5-1.1,2.5-3.1,3-5.9h-2.8v-1H293.8
			z M293.6,84.1h-7.4v-5.8h7.4V84.1z M292.7,83.1v-3.8h-5.4v3.8H292.7z"/>
		<path class="st0" d="M301.2,69.8c-0.2,0.6-0.4,1.4-0.6,2.4l-0.4,1.4v13.6h-1v-11c-0.6,1.2-1.1,2.1-1.5,2.7L297,78
			c1.5-2.2,2.6-5,3.3-8.5L301.2,69.8z M314.3,71h-5.9c-0.1,0.3-0.3,0.7-0.5,1.1h4.5V77h1.8v2.5h-1.1v-1.6h-10.6v1.6h-1V77h1.7v-4.9
			h3.6c0.2-0.3,0.3-0.6,0.5-1.1H302v-0.9h12.3V71z M314.5,86.5l-0.5,0.8c-2.3-0.4-4.1-0.9-5.6-1.5c-1.6,0.7-3.7,1.2-6.3,1.4
			l-0.5-0.9c2.4-0.1,4.3-0.4,5.7-0.9c-0.9-0.4-1.8-1-2.6-1.6c-1,0.5-1.8,0.9-2.4,1.1l-0.6-0.8c1-0.3,1.8-0.7,2.2-0.9
			c-0.3-0.3-0.4-0.4-0.6-0.6l0.7-0.6c0.3,0.3,0.5,0.5,0.7,0.7c0.4-0.2,0.9-0.7,1.6-1.3c-0.8-0.1-1.2-0.5-1.2-1.2v-1.5h1v1.5
			c0,0.2,0.1,0.3,0.2,0.4c0.1,0.1,0.7,0.1,1.6,0.1c1.1,0,1.7-0.1,1.9-0.2s0.3-0.5,0.3-1.1l0.9,0.4c-0.1,0.9-0.4,1.4-0.8,1.5
			c-0.5,0.2-1.4,0.2-2.7,0.2c-0.4,0.4-0.6,0.7-0.7,0.8h5.3v0.8c-0.6,0.7-1.4,1.5-2.5,2.2C311,85.8,312.7,86.2,314.5,86.5z
			 M304.5,79.1c-0.6,1.2-1.2,2.2-1.9,2.8l-0.8-0.6c0.7-0.7,1.4-1.6,1.9-2.6L304.5,79.1z M311.4,73.7v-0.8h-7.2v0.8H311.4z
			 M311.4,75.4v-0.9h-7.2v0.9H311.4z M311.4,77v-0.9h-7.2V77H311.4z M310.7,83.1h-5.1l-0.1,0.2c0.9,0.7,1.9,1.2,2.9,1.6
			C309.1,84.5,309.9,83.9,310.7,83.1z M309.2,79.3l-0.5,0.7c-0.6-0.4-1.1-0.7-1.7-1l0.5-0.7C308,78.5,308.6,78.8,309.2,79.3z
			 M314,81.4l-0.8,0.5c-0.5-1-1.1-1.9-1.8-2.8l0.8-0.5C312.9,79.5,313.5,80.5,314,81.4z"/>
		<path class="st0" d="M334.6,78.6l-0.5,0.9c-2-1.3-4.6-2.5-7.7-3.7v3.1h3.6c-0.1,0.8-0.2,1.6-0.4,2.5h2.9c0,0.9-0.1,1.8-0.3,2.8
			c-0.2,1-0.4,1.6-0.5,1.8c-0.1,0.2-0.4,0.5-0.6,0.6c-0.3,0.2-0.5,0.3-0.8,0.3s-0.9,0.1-1.8,0.1c-0.5,0-0.9,0-1.3,0l-0.4-1
			c1.8,0,2.8,0,3.1,0s0.6-0.2,0.8-0.5c0.3-0.3,0.5-1.3,0.7-3.1h-3.1c0.2-0.7,0.4-1.5,0.5-2.5h-4.5c-0.2,3.5-2.3,5.9-6.5,7.3
			l-0.7-0.9c4-1.2,6-3.3,6.2-6.4H320v-1h5.3v-4c-2.1,2.2-4.7,3.8-7.8,4.8l-0.6-0.9c2.8-0.8,5.2-2.2,7.2-4h-6.9v-1h8.1v-2
			c-2.2,0.2-4.2,0.3-6,0.3l-0.5-1.1c5.8,0.1,10.2-0.4,13.2-1.3l0.7,0.9c-1.6,0.5-3.7,0.9-6.3,1.1v2.1h8.2v1h-8.2v0.1
			C330,76.2,332.8,77.5,334.6,78.6z"/>
		<path class="st0" d="M345.9,76.4c0.6,0,1,0.2,1.4,0.6c0.4,0.4,0.6,0.9,0.6,1.4c0,0.6-0.2,1.1-0.5,1.4c-0.4,0.4-0.8,0.6-1.4,0.6
			c-0.5,0-1-0.2-1.4-0.5S344,79,344,78.3c0-0.6,0.2-1.1,0.6-1.5C345.1,76.5,345.5,76.4,345.9,76.4z M347.2,78.4
			c0-0.3-0.1-0.6-0.4-0.8c-0.2-0.2-0.5-0.3-0.9-0.3c-0.3,0-0.6,0.1-0.8,0.3s-0.3,0.5-0.3,0.8c0,0.3,0.1,0.6,0.3,0.8
			c0.2,0.3,0.5,0.4,0.9,0.4c0.3,0,0.6-0.1,0.8-0.3C347,79,347.2,78.7,347.2,78.4z"/>
	</g>
</g>
</svg>
